G75*
%MOIN*%
%OFA0B0*%
%FSLAX25Y25*%
%IPPOS*%
%LPD*%
%AMOC8*
5,1,8,0,0,1.08239X$1,22.5*
%
%ADD10C,0.01981*%
%ADD11C,0.08674*%
%ADD12C,0.06000*%
%ADD13OC8,0.06000*%
%ADD14C,0.07850*%
%ADD15C,0.04800*%
D10*
X0037790Y0026186D03*
X0339790Y0024186D03*
X0340790Y0263186D03*
X0035790Y0269186D03*
D11*
X0278586Y0197123D02*
X0278586Y0189249D01*
X0302601Y0189249D02*
X0302601Y0197123D01*
X0294727Y0212084D02*
X0286853Y0212084D01*
D12*
X0173390Y0188186D02*
X0168190Y0188186D01*
X0168190Y0178186D02*
X0173390Y0178186D01*
X0143390Y0178186D02*
X0138190Y0178186D01*
X0138190Y0188186D02*
X0143390Y0188186D01*
X0113390Y0193186D02*
X0108190Y0193186D01*
X0108190Y0203186D02*
X0113390Y0203186D01*
X0083390Y0203186D02*
X0078190Y0203186D01*
X0078190Y0193186D02*
X0083390Y0193186D01*
X0049790Y0198586D02*
X0049790Y0203786D01*
X0039790Y0203786D02*
X0039790Y0198586D01*
X0039790Y0216586D02*
X0039790Y0221786D01*
X0049790Y0221786D02*
X0049790Y0216586D01*
X0049790Y0234586D02*
X0049790Y0239786D01*
X0039790Y0239786D02*
X0039790Y0234586D01*
X0039790Y0252586D02*
X0039790Y0257786D01*
X0049790Y0257786D02*
X0049790Y0252586D01*
X0078190Y0153186D02*
X0083390Y0153186D01*
X0083390Y0143186D02*
X0078190Y0143186D01*
X0108190Y0143186D02*
X0113390Y0143186D01*
X0113390Y0153186D02*
X0108190Y0153186D01*
X0138190Y0138186D02*
X0143390Y0138186D01*
X0143390Y0128186D02*
X0138190Y0128186D01*
X0113390Y0113186D02*
X0108190Y0113186D01*
X0108190Y0103186D02*
X0113390Y0103186D01*
X0138190Y0093186D02*
X0143390Y0093186D01*
X0143390Y0083186D02*
X0138190Y0083186D01*
X0113390Y0063186D02*
X0108190Y0063186D01*
X0108190Y0053186D02*
X0113390Y0053186D01*
X0138190Y0043186D02*
X0143390Y0043186D01*
X0143390Y0033186D02*
X0138190Y0033186D01*
X0168190Y0033186D02*
X0173390Y0033186D01*
X0173390Y0043186D02*
X0168190Y0043186D01*
X0168190Y0083186D02*
X0173390Y0083186D01*
X0173390Y0093186D02*
X0168190Y0093186D01*
X0168190Y0128186D02*
X0173390Y0128186D01*
X0173390Y0138186D02*
X0168190Y0138186D01*
X0083390Y0113186D02*
X0078190Y0113186D01*
X0078190Y0103186D02*
X0083390Y0103186D01*
X0083390Y0063186D02*
X0078190Y0063186D01*
X0078190Y0053186D02*
X0083390Y0053186D01*
D13*
X0201790Y0043186D03*
X0209290Y0038186D03*
X0201790Y0033186D03*
X0214790Y0055186D03*
X0201790Y0088186D03*
X0209290Y0093186D03*
X0201790Y0098186D03*
X0218790Y0107186D03*
X0201790Y0143186D03*
X0209290Y0148186D03*
X0201790Y0153186D03*
X0218790Y0161186D03*
X0201790Y0193186D03*
X0209290Y0198186D03*
X0201790Y0203186D03*
X0215790Y0206186D03*
X0218790Y0224186D03*
X0192790Y0242186D03*
X0168790Y0224186D03*
X0150790Y0222186D03*
X0142790Y0242186D03*
X0124790Y0255186D03*
X0100790Y0222186D03*
X0074790Y0255186D03*
X0265790Y0206186D03*
X0268790Y0161186D03*
X0268790Y0107186D03*
X0279790Y0089186D03*
X0264790Y0055186D03*
X0279790Y0039186D03*
D14*
X0054315Y0043344D02*
X0047265Y0043344D01*
X0047265Y0063029D02*
X0054315Y0063029D01*
X0054315Y0083344D02*
X0047265Y0083344D01*
X0047265Y0103029D02*
X0054315Y0103029D01*
X0054315Y0123344D02*
X0047265Y0123344D01*
X0047265Y0143029D02*
X0054315Y0143029D01*
X0054315Y0163344D02*
X0047265Y0163344D01*
X0047265Y0183029D02*
X0054315Y0183029D01*
D15*
X0168241Y0194043D03*
M02*
