  0
SECTION
  2
HEADER
  9
$ACADVER
  1
AC1014
  9
$HANDSEED
  5
FFFF
  9
$MEASUREMENT
 70
     1
  0
ENDSEC
  0
SECTION
  2
TABLES
  0
TABLE
  2
VPORT
  5
8
330
0
100
AcDbSymbolTable
 70
     4
  0
VPORT
  5
2E
330
8
100
AcDbSymbolTableRecord
100
AcDbViewportTableRecord
  2
*ACTIVE
 70
     0
 10
0.0
 20
0.0
 11
1.0
 21
1.0
 12
210.0
 22
148.5
 13
0.0
 23
0.0
 14
10.0
 24
10.0
 15
10.0
 25
10.0
 16
0.0
 26
0.0
 36
1.0
 17
0.0
 27
0.0
 37
0.0
 40
341.0
 41
1.24
 42
50.0
 43
0.0
 44
0.0
 50
0.0
 51
0.0
 71
     0
 72
   100
 73
     1
 74
     3
 75
     0
 76
     0
 77
     0
 78
     0
  0
ENDTAB
  0
TABLE
  2
LTYPE
  5
5
330
0
100
AcDbSymbolTable
 70
     1
  0
LTYPE
  5
14
330
5
100
AcDbSymbolTableRecord
100
AcDbLinetypeTableRecord
  2
BYBLOCK
 70
     0
  3

 72
    65
 73
     0
 40
0.0
  0
LTYPE
  5
15
330
5
100
AcDbSymbolTableRecord
100
AcDbLinetypeTableRecord
  2
BYLAYER
 70
     0
  3

 72
    65
 73
     0
 40
0.0
  0
LTYPE
  5
16
330
5
100
AcDbSymbolTableRecord
100
AcDbLinetypeTableRecord
  2
CONTINUOUS
 70
     0
  3
Solid line
 72
    65
 73
     0
 40
0.0
  0
ENDTAB
  0
TABLE
  2
LAYER
  5
2
100
AcDbSymbolTable
 70
2
  0
LAYER
  5
50
100
AcDbSymbolTableRecord
100
AcDbLayerTableRecord
  2
0
 70
0
  6
CONTINUOUS
  0
LAYER
  5
51
100
AcDbSymbolTableRecord
100
AcDbLayerTableRecord
  2
Laag_1
 70
0
  6
CONTINUOUS
  0
ENDTAB
  0
TABLE
  2
STYLE
  5
3
330
0
100
AcDbSymbolTable
 70
     1
  0
STYLE
  5
11
330
3
100
AcDbSymbolTableRecord
100
AcDbTextStyleTableRecord
  2
STANDARD
 70
     0
 40
0.0
 41
1.0
 50
0.0
 71
     0
 42
2.5
  3
txt
  4

  0
ENDTAB
  0
TABLE
  2
VIEW
  5
6
330
0
100
AcDbSymbolTable
 70
     0
  0
ENDTAB
  0
TABLE
  2
UCS
  5
7
330
0
100
AcDbSymbolTable
 70
     0
  0
ENDTAB
  0
TABLE
  2
APPID
  5
9
330
0
100
AcDbSymbolTable
 70
     2
  0
APPID
  5
12
330
9
100
AcDbSymbolTableRecord
100
AcDbRegAppTableRecord
  2
ACAD
 70
     0
  0
ENDTAB
  0
TABLE
  2
DIMSTYLE
  5
A
330
0
100
AcDbSymbolTable
 70
     1
  0
DIMSTYLE
105
27
330
A
100
AcDbSymbolTableRecord
100
AcDbDimStyleTableRecord
  2
ISO-25
 70
     0
  3

  4

  5

  6

  7

 40
1.0
 41
2.5
 42
0.625
 43
3.75
 44
1.25
 45
0.0
 46
0.0
 47
0.0
 48
0.0
140
2.5
141
2.5
142
0.0
143
0.03937007874016
144
1.0
145
0.0
146
1.0
147
0.625
 71
     0
 72
     0
 73
     0
 74
     0
 75
     0
 76
     0
 77
     1
 78
     8
170
     0
171
     3
172
     1
173
     0
174
     0
175
     0
176
     0
177
     0
178
     0
270
     2
271
     2
272
     2
273
     2
274
     3
340
11
275
     0
280
     0
281
     0
282
     0
283
     0
284
     8
285
     0
286
     0
287
     3
288
     0
  0
ENDTAB
  0
TABLE
  2
BLOCK_RECORD
  5
1
330
0
100
AcDbSymbolTable
 70
     1
  0
BLOCK_RECORD
  5
1F
330
1
100
AcDbSymbolTableRecord
100
AcDbBlockTableRecord
  2
*MODEL_SPACE
  0
BLOCK_RECORD
  5
1B
330
1
100
AcDbSymbolTableRecord
100
AcDbBlockTableRecord
  2
*PAPER_SPACE
  0
ENDTAB
  0
ENDSEC
  0
SECTION
  2
BLOCKS
  0
BLOCK
  5
20
330
1F
100
AcDbEntity
  8
0
100
AcDbBlockBegin
  2
*MODEL_SPACE
 70
     0
 10
0.0
 20
0.0
 30
0.0
  3
*MODEL_SPACE
  1

  0
ENDBLK
  5
21
330
1F
100
AcDbEntity
  8
0
100
AcDbBlockEnd
  0
BLOCK
  5
1C
330
1B
100
AcDbEntity
 67
     1
  8
0
100
AcDbBlockBegin
  2
*PAPER_SPACE
  1

  0
ENDBLK
  5
1D
330
1B
100
AcDbEntity
 67
     1
  8
0
100
AcDbBlockEnd
  0
ENDSEC
  0
SECTION
  2
ENTITIES
  0
LWPOLYLINE
  5
100
100
AcDbEntity
  8
Laag_1
 62
7
100
AcDbPolyline
 90
6
 70
1
 10
471.773868
 20
95.359075
 30
0.0
 10
473.086201
 20
95.359075
 30
0.0
 10
473.086201
 20
95.062741
 30
0.0
 10
471.773868
 20
95.062741
 30
0.0
 10
471.773868
 20
95.359075
 30
0.0
 10
471.773868
 20
95.359075
 30
0.0
  0
LWPOLYLINE
  5
101
100
AcDbEntity
  8
Laag_1
 62
7
100
AcDbPolyline
 90
6
 70
1
 10
471.773868
 20
96.375075
 30
0.0
 10
473.086201
 20
96.375075
 30
0.0
 10
473.086201
 20
96.078741
 30
0.0
 10
471.773868
 20
96.078741
 30
0.0
 10
471.773868
 20
96.375075
 30
0.0
 10
471.773868
 20
96.375075
 30
0.0
  0
LWPOLYLINE
  5
102
100
AcDbEntity
  8
Laag_1
 62
7
100
AcDbPolyline
 90
6
 70
1
 10
471.773868
 20
97.369908
 30
0.0
 10
473.086201
 20
97.369908
 30
0.0
 10
473.086201
 20
97.073575
 30
0.0
 10
471.773868
 20
97.073575
 30
0.0
 10
471.773868
 20
97.369908
 30
0.0
 10
471.773868
 20
97.369908
 30
0.0
  0
LWPOLYLINE
  5
103
100
AcDbEntity
  8
Laag_1
 62
7
100
AcDbPolyline
 90
6
 70
1
 10
471.773868
 20
98.364741
 30
0.0
 10
473.086201
 20
98.364741
 30
0.0
 10
473.086201
 20
98.068408
 30
0.0
 10
471.773868
 20
98.068408
 30
0.0
 10
471.773868
 20
98.364741
 30
0.0
 10
471.773868
 20
98.364741
 30
0.0
  0
LWPOLYLINE
  5
104
100
AcDbEntity
  8
Laag_1
 62
7
100
AcDbPolyline
 90
6
 70
1
 10
471.773868
 20
99.359575
 30
0.0
 10
473.086201
 20
99.359575
 30
0.0
 10
473.086201
 20
99.063241
 30
0.0
 10
471.773868
 20
99.063241
 30
0.0
 10
471.773868
 20
99.359575
 30
0.0
 10
471.773868
 20
99.359575
 30
0.0
  0
LWPOLYLINE
  5
105
100
AcDbEntity
  8
Laag_1
 62
7
100
AcDbPolyline
 90
6
 70
1
 10
471.773868
 20
100.354408
 30
0.0
 10
473.086201
 20
100.354408
 30
0.0
 10
473.086201
 20
100.058075
 30
0.0
 10
471.773868
 20
100.058075
 30
0.0
 10
471.773868
 20
100.354408
 30
0.0
 10
471.773868
 20
100.354408
 30
0.0
  0
LWPOLYLINE
  5
106
100
AcDbEntity
  8
Laag_1
 62
7
100
AcDbPolyline
 90
6
 70
1
 10
471.773868
 20
101.370408
 30
0.0
 10
473.086201
 20
101.370408
 30
0.0
 10
473.086201
 20
101.074075
 30
0.0
 10
471.773868
 20
101.074075
 30
0.0
 10
471.773868
 20
101.370408
 30
0.0
 10
471.773868
 20
101.370408
 30
0.0
  0
LWPOLYLINE
  5
107
100
AcDbEntity
  8
Laag_1
 62
7
100
AcDbPolyline
 90
6
 70
1
 10
471.773868
 20
102.365241
 30
0.0
 10
473.086201
 20
102.365241
 30
0.0
 10
473.086201
 20
102.068908
 30
0.0
 10
471.773868
 20
102.068908
 30
0.0
 10
471.773868
 20
102.365241
 30
0.0
 10
471.773868
 20
102.365241
 30
0.0
  0
LWPOLYLINE
  5
108
100
AcDbEntity
  8
Laag_1
 62
7
100
AcDbPolyline
 90
6
 70
1
 10
468.069701
 20
105.497908
 30
0.0
 10
470.271035
 20
105.497908
 30
0.0
 10
470.271035
 20
103.719908
 30
0.0
 10
468.069701
 20
103.719908
 30
0.0
 10
468.069701
 20
105.497908
 30
0.0
 10
468.069701
 20
105.497908
 30
0.0
  0
LWPOLYLINE
  5
109
100
AcDbEntity
  8
Laag_1
 62
7
100
AcDbPolyline
 90
6
 70
1
 10
468.069701
 20
93.708075
 30
0.0
 10
470.271035
 20
93.708075
 30
0.0
 10
470.271035
 20
91.930075
 30
0.0
 10
468.069701
 20
91.930075
 30
0.0
 10
468.069701
 20
93.708075
 30
0.0
 10
468.069701
 20
93.708075
 30
0.0
  0
LWPOLYLINE
  5
10a
100
AcDbEntity
  8
Laag_1
 62
7
100
AcDbPolyline
 90
2
 70
0
 10
437.949535
 20
94.660575
 30
0.0
 10
433.631535
 20
91.104575
 30
0.0
  0
LWPOLYLINE
  5
10b
100
AcDbEntity
  8
Laag_1
 62
7
100
AcDbPolyline
 90
2
 70
0
 10
450.649535
 20
94.660575
 30
0.0
 10
437.949535
 20
94.660575
 30
0.0
  0
LWPOLYLINE
  5
10c
100
AcDbEntity
  8
Laag_1
 62
7
100
AcDbPolyline
 90
2
 70
0
 10
435.409535
 20
107.339408
 30
0.0
 10
433.631535
 20
105.053408
 30
0.0
  0
LWPOLYLINE
  5
10d
100
AcDbEntity
  8
Laag_1
 62
7
100
AcDbPolyline
 90
2
 70
0
 10
435.409535
 20
121.055408
 30
0.0
 10
433.631535
 20
119.023408
 30
0.0
  0
LWPOLYLINE
  5
10e
100
AcDbEntity
  8
Laag_1
 62
7
100
AcDbPolyline
 90
2
 70
0
 10
437.187535
 20
137.544241
 30
0.0
 10
433.631535
 20
134.242241
 30
0.0
  0
LWPOLYLINE
  5
10f
100
AcDbEntity
  8
Laag_1
 62
7
100
AcDbPolyline
 90
3
 70
0
 10
450.649535
 20
107.339408
 30
0.0
 10
448.109535
 20
107.339408
 30
0.0
 10
448.109535
 20
121.055408
 30
0.0
  0
LWPOLYLINE
  5
110
100
AcDbEntity
  8
Laag_1
 62
7
100
AcDbPolyline
 90
2
 70
0
 10
456.470368
 20
131.956241
 30
0.0
 10
449.887535
 20
137.544241
 30
0.0
  0
LWPOLYLINE
  5
111
100
AcDbEntity
  8
Laag_1
 62
7
100
AcDbPolyline
 90
2
 70
0
 10
466.947868
 20
131.956241
 30
0.0
 10
456.470368
 20
131.956241
 30
0.0
  0
LWPOLYLINE
  5
112
100
AcDbEntity
  8
Laag_1
 62
7
100
AcDbPolyline
 90
2
 70
0
 10
469.487868
 20
129.183408
 30
0.0
 10
466.947868
 20
131.956241
 30
0.0
  0
LWPOLYLINE
  5
113
100
AcDbEntity
  8
Laag_1
 62
7
100
AcDbPolyline
 90
2
 70
0
 10
469.487868
 20
129.183408
 30
0.0
 10
469.636035
 20
129.183408
 30
0.0
  0
LWPOLYLINE
  5
114
100
AcDbEntity
  8
Laag_1
 62
7
100
AcDbPolyline
 90
8
 70
0
 10
469.487868
 20
113.244908
 30
0.0
 10
464.090368
 20
107.847408
 30
0.0
 10
464.090368
 20
105.138075
 30
0.0
 10
462.248868
 20
103.275408
 30
0.0
 10
455.602535
 20
103.275408
 30
0.0
 10
453.422368
 20
105.455575
 30
0.0
 10
453.422368
 20
112.165408
 30
0.0
 10
448.109535
 20
121.055408
 30
0.0
  0
LWPOLYLINE
  5
115
100
AcDbEntity
  8
Laag_1
 62
7
100
AcDbPolyline
 90
2
 70
0
 10
469.487868
 20
129.183408
 30
0.0
 10
469.487868
 20
113.244908
 30
0.0
  0
LWPOLYLINE
  5
116
100
AcDbEntity
  8
Laag_1
 62
7
100
AcDbPolyline
 90
4
 70
0
 10
435.536535
 20
89.834575
 30
0.0
 10
471.625701
 20
89.834575
 30
0.0
 10
474.123368
 20
92.332241
 30
0.0
 10
474.123368
 20
95.803575
 30
0.0
  0
LWPOLYLINE
  5
117
100
AcDbEntity
  8
Laag_1
 62
7
100
AcDbPolyline
 90
2
 70
0
 10
472.662868
 20
96.184575
 30
0.0
 10
472.430035
 20
96.226908
 30
0.0
  0
LWPOLYLINE
  5
118
100
AcDbEntity
  8
Laag_1
 62
7
100
AcDbPolyline
 90
3
 70
0
 10
472.662868
 20
96.184575
 30
0.0
 10
473.742368
 20
96.184575
 30
0.0
 10
474.123368
 20
95.803575
 30
0.0
  0
LWPOLYLINE
  5
119
100
AcDbEntity
  8
Laag_1
 62
7
100
AcDbPolyline
 90
2
 70
0
 10
442.013535
 20
103.783408
 30
0.0
 10
448.617535
 20
97.200575
 30
0.0
  0
LWPOLYLINE
  5
11a
100
AcDbEntity
  8
Laag_1
 62
7
100
AcDbPolyline
 90
2
 70
0
 10
435.536535
 20
103.783408
 30
0.0
 10
442.013535
 20
103.783408
 30
0.0
  0
LWPOLYLINE
  5
11b
100
AcDbEntity
  8
Laag_1
 62
7
100
AcDbPolyline
 90
2
 70
0
 10
472.345368
 20
97.137075
 30
0.0
 10
472.430035
 20
97.221741
 30
0.0
  0
LWPOLYLINE
  5
11c
100
AcDbEntity
  8
Laag_1
 62
7
100
AcDbPolyline
 90
3
 70
0
 10
448.617535
 20
97.200575
 30
0.0
 10
472.430035
 20
97.200575
 30
0.0
 10
472.430035
 20
97.221741
 30
0.0
  0
LWPOLYLINE
  5
11d
100
AcDbEntity
  8
Laag_1
 62
7
100
AcDbPolyline
 90
5
 70
0
 10
444.426535
 20
108.609408
 30
0.0
 10
444.426535
 20
107.466408
 30
0.0
 10
451.411535
 20
100.756575
 30
0.0
 10
467.900368
 20
100.756575
 30
0.0
 10
470.440368
 20
98.216575
 30
0.0
  0
LWPOLYLINE
  5
11e
100
AcDbEntity
  8
Laag_1
 62
7
100
AcDbPolyline
 90
2
 70
0
 10
435.536535
 20
117.753408
 30
0.0
 10
444.426535
 20
108.609408
 30
0.0
  0
LWPOLYLINE
  5
11f
100
AcDbEntity
  8
Laag_1
 62
7
100
AcDbPolyline
 90
2
 70
0
 10
472.345368
 20
98.089575
 30
0.0
 10
472.430035
 20
98.216575
 30
0.0
  0
LWPOLYLINE
  5
120
100
AcDbEntity
  8
Laag_1
 62
7
100
AcDbPolyline
 90
3
 70
0
 10
470.440368
 20
98.216575
 30
0.0
 10
472.430035
 20
98.216575
 30
0.0
 10
472.430035
 20
98.195408
 30
0.0
  0
LWPOLYLINE
  5
121
100
AcDbEntity
  8
Laag_1
 62
7
100
AcDbPolyline
 90
2
 70
0
 10
474.885368
 20
99.740575
 30
0.0
 10
474.440868
 20
99.169075
 30
0.0
  0
LWPOLYLINE
  5
122
100
AcDbEntity
  8
Laag_1
 62
7
100
AcDbPolyline
 90
4
 70
0
 10
441.886535
 20
139.322241
 30
0.0
 10
466.926701
 20
139.322241
 30
0.0
 10
474.885368
 20
131.384741
 30
0.0
 10
474.885368
 20
99.740575
 30
0.0
  0
LWPOLYLINE
  5
123
100
AcDbEntity
  8
Laag_1
 62
7
100
AcDbPolyline
 90
2
 70
0
 10
435.536535
 20
132.972241
 30
0.0
 10
441.886535
 20
139.322241
 30
0.0
  0
LWPOLYLINE
  5
124
100
AcDbEntity
  8
Laag_1
 62
7
100
AcDbPolyline
 90
3
 70
0
 10
472.430035
 20
99.211408
 30
0.0
 10
474.440868
 20
99.211408
 30
0.0
 10
474.440868
 20
99.169075
 30
0.0
  0
LWPOLYLINE
  5
125
100
AcDbEntity
  8
Laag_1
 62
7
100
AcDbPolyline
 90
2
 70
0
 10
390.472701
 20
93.644575
 30
0.0
 10
413.311535
 20
93.644575
 30
0.0
  0
LWPOLYLINE
  5
126
100
AcDbEntity
  8
Laag_1
 62
7
100
AcDbPolyline
 90
2
 70
0
 10
390.472701
 20
93.644575
 30
0.0
 10
390.472701
 20
93.686908
 30
0.0
  0
LWPOLYLINE
  5
127
100
AcDbEntity
  8
Laag_1
 62
7
100
AcDbPolyline
 90
5
 70
0
 10
402.156701
 20
95.676575
 30
0.0
 10
406.220701
 20
103.529408
 30
0.0
 10
406.220701
 20
106.894908
 30
0.0
 10
408.189201
 20
108.863408
 30
0.0
 10
413.311535
 20
108.863408
 30
0.0
  0
LWPOLYLINE
  5
128
100
AcDbEntity
  8
Laag_1
 62
7
100
AcDbPolyline
 90
4
 70
0
 10
391.425201
 20
97.454575
 30
0.0
 10
397.584701
 20
97.454575
 30
0.0
 10
399.362701
 20
95.676575
 30
0.0
 10
402.156701
 20
95.676575
 30
0.0
  0
LWPOLYLINE
  5
129
100
AcDbEntity
  8
Laag_1
 62
7
100
AcDbPolyline
 90
2
 70
0
 10
390.472701
 20
98.407075
 30
0.0
 10
391.425201
 20
97.454575
 30
0.0
  0
LWPOLYLINE
  5
12a
100
AcDbEntity
  8
Laag_1
 62
7
100
AcDbPolyline
 90
2
 70
0
 10
390.472701
 20
98.407075
 30
0.0
 10
390.472701
 20
98.682241
 30
0.0
  0
LWPOLYLINE
  5
12b
100
AcDbEntity
  8
Laag_1
 62
7
100
AcDbPolyline
 90
4
 70
0
 10
395.552701
 20
103.783408
 30
0.0
 10
396.568701
 20
102.767408
 30
0.0
 10
396.568701
 20
100.248575
 30
0.0
 10
400.632701
 20
98.724575
 30
0.0
  0
LWPOLYLINE
  5
12c
100
AcDbEntity
  8
Laag_1
 62
7
100
AcDbPolyline
 90
2
 70
0
 10
390.472701
 20
103.783408
 30
0.0
 10
395.552701
 20
103.783408
 30
0.0
  0
LWPOLYLINE
  5
12d
100
AcDbEntity
  8
Laag_1
 62
7
100
AcDbPolyline
 90
2
 70
0
 10
390.472701
 20
103.783408
 30
0.0
 10
390.472701
 20
103.825741
 30
0.0
  0
LWPOLYLINE
  5
12e
100
AcDbEntity
  8
Laag_1
 62
7
100
AcDbPolyline
 90
6
 70
0
 10
390.472701
 20
108.863408
 30
0.0
 10
395.192868
 20
108.863408
 30
0.0
 10
395.806701
 20
109.117408
 30
0.0
 10
396.822701
 20
111.572741
 30
0.0
 10
396.822701
 20
111.657408
 30
0.0
 10
400.632701
 20
113.943408
 30
0.0
  0
LWPOLYLINE
  5
12f
100
AcDbEntity
  8
Laag_1
 62
7
100
AcDbPolyline
 90
2
 70
0
 10
390.472701
 20
108.863408
 30
0.0
 10
390.472701
 20
108.821075
 30
0.0
  0
LWPOLYLINE
  5
130
100
AcDbEntity
  8
Laag_1
 62
7
100
AcDbPolyline
 90
2
 70
0
 10
393.965201
 20
117.753408
 30
0.0
 10
413.311535
 20
117.753408
 30
0.0
  0
LWPOLYLINE
  5
131
100
AcDbEntity
  8
Laag_1
 62
7
100
AcDbPolyline
 90
2
 70
0
 10
390.472701
 20
114.260908
 30
0.0
 10
393.965201
 20
117.753408
 30
0.0
  0
LWPOLYLINE
  5
132
100
AcDbEntity
  8
Laag_1
 62
7
100
AcDbPolyline
 90
2
 70
0
 10
390.472701
 20
114.260908
 30
0.0
 10
390.472701
 20
113.985741
 30
0.0
  0
LWPOLYLINE
  5
133
100
AcDbEntity
  8
Laag_1
 62
7
100
AcDbPolyline
 90
4
 70
0
 10
407.617701
 20
136.909241
 30
0.0
 10
411.766368
 20
136.909241
 30
0.0
 10
413.311535
 20
135.364075
 30
0.0
 10
413.311535
 20
132.972241
 30
0.0
  0
LWPOLYLINE
  5
134
100
AcDbEntity
  8
Laag_1
 62
7
100
AcDbPolyline
 90
2
 70
0
 10
390.472701
 20
119.023408
 30
0.0
 10
407.617701
 20
136.909241
 30
0.0
  0
LWPOLYLINE
  5
135
100
AcDbEntity
  8
Laag_1
 62
7
100
AcDbPolyline
 90
2
 70
0
 10
390.472701
 20
119.023408
 30
0.0
 10
390.472701
 20
118.981075
 30
0.0
  0
LWPOLYLINE
  5
136
100
AcDbEntity
  8
Laag_1
 62
7
100
AcDbPolyline
 90
2
 70
0
 10
395.552701
 20
140.719241
 30
0.0
 10
395.552701
 20
141.862241
 30
0.0
  0
LWPOLYLINE
  5
137
100
AcDbEntity
  8
Laag_1
 62
7
100
AcDbPolyline
 90
2
 70
0
 10
387.996201
 20
133.162741
 30
0.0
 10
395.552701
 20
140.719241
 30
0.0
  0
LWPOLYLINE
  5
138
100
AcDbEntity
  8
Laag_1
 62
7
100
AcDbPolyline
 90
2
 70
0
 10
387.996201
 20
124.166908
 30
0.0
 10
387.996201
 20
133.162741
 30
0.0
  0
LWPOLYLINE
  5
139
100
AcDbEntity
  8
Laag_1
 62
7
100
AcDbPolyline
 90
2
 70
0
 10
390.472701
 20
124.420908
 30
0.0
 10
387.996201
 20
124.166908
 30
0.0
  0
LWPOLYLINE
  5
13a
100
AcDbEntity
  8
Laag_1
 62
7
100
AcDbPolyline
 90
2
 70
0
 10
390.472701
 20
124.420908
 30
0.0
 10
390.472701
 20
124.145741
 30
0.0
  0
LWPOLYLINE
  5
13b
100
AcDbEntity
  8
Laag_1
 62
7
100
AcDbPolyline
 90
4
 70
0
 10
396.759201
 20
138.433241
 30
0.0
 10
399.489701
 20
138.433241
 30
0.0
 10
404.950701
 20
144.402241
 30
0.0
 10
410.009535
 20
144.402241
 30
0.0
  0
LWPOLYLINE
  5
13c
100
AcDbEntity
  8
Laag_1
 62
7
100
AcDbPolyline
 90
2
 70
0
 10
390.472701
 20
132.400741
 30
0.0
 10
396.759201
 20
138.433241
 30
0.0
  0
LWPOLYLINE
  5
13d
100
AcDbEntity
  8
Laag_1
 62
7
100
AcDbPolyline
 90
2
 70
0
 10
390.472701
 20
129.141075
 30
0.0
 10
390.472701
 20
132.400741
 30
0.0
  0
LWPOLYLINE
  5
13e
100
AcDbEntity
  8
Laag_1
 62
7
100
AcDbPolyline
 90
4
 70
0
 10
410.009535
 20
144.402241
 30
0.0
 10
411.025535
 20
143.386241
 30
0.0
 10
411.025535
 20
142.116241
 30
0.0
 10
410.771535
 20
141.862241
 30
0.0
  0
LWPOLYLINE
  5
13f
100
AcDbEntity
  8
Laag_1
 62
7
100
AcDbPolyline
 90
5
 70
0
 10
428.551535
 20
88.564575
 30
0.0
 10
425.249535
 20
93.898575
 30
0.0
 10
425.249535
 20
94.575908
 30
0.0
 10
423.640868
 20
96.184575
 30
0.0
 10
420.931535
 20
96.184575
 30
0.0
  0
LWPOLYLINE
  5
140
100
AcDbEntity
  8
Laag_1
 62
7
100
AcDbPolyline
 90
2
 70
0
 10
433.631535
 20
88.564575
 30
0.0
 10
428.551535
 20
88.564575
 30
0.0
  0
LWPOLYLINE
  5
141
100
AcDbEntity
  8
Laag_1
 62
7
100
AcDbPolyline
 90
2
 70
0
 10
409.501535
 20
102.513408
 30
0.0
 10
408.231535
 20
101.243408
 30
0.0
  0
LWPOLYLINE
  5
142
100
AcDbEntity
  8
Laag_1
 62
7
100
AcDbPolyline
 90
2
 70
0
 10
433.631535
 20
102.513408
 30
0.0
 10
409.501535
 20
102.513408
 30
0.0
  0
LWPOLYLINE
  5
143
100
AcDbEntity
  8
Laag_1
 62
7
100
AcDbPolyline
 90
4
 70
0
 10
424.741535
 20
116.483408
 30
0.0
 10
423.217535
 20
120.039408
 30
0.0
 10
422.963535
 20
120.293408
 30
0.0
 10
420.931535
 20
120.293408
 30
0.0
  0
LWPOLYLINE
  5
144
100
AcDbEntity
  8
Laag_1
 62
7
100
AcDbPolyline
 90
2
 70
0
 10
433.631535
 20
116.483408
 30
0.0
 10
424.741535
 20
116.483408
 30
0.0
  0
LWPOLYLINE
  5
145
100
AcDbEntity
  8
Laag_1
 62
7
100
AcDbPolyline
 90
6
 70
0
 10
428.805535
 20
135.406408
 30
0.0
 10
426.688868
 20
137.501908
 30
0.0
 10
425.334201
 20
138.814241
 30
0.0
 10
404.082868
 20
138.814241
 30
0.0
 10
398.198535
 20
134.411575
 30
0.0
 10
398.092701
 20
134.242241
 30
0.0
  0
LWPOLYLINE
  5
146
100
AcDbEntity
  8
Laag_1
 62
7
100
AcDbPolyline
 90
2
 70
0
 10
430.075535
 20
134.242241
 30
0.0
 10
428.805535
 20
135.406408
 30
0.0
  0
LWPOLYLINE
  5
147
100
AcDbEntity
  8
Laag_1
 62
7
100
AcDbPolyline
 90
2
 70
0
 10
433.631535
 20
131.702241
 30
0.0
 10
430.075535
 20
134.242241
 30
0.0
  0
LWPOLYLINE
  5
148
100
AcDbEntity
  8
Laag_1
 62
7
100
AcDbPolyline
 90
2
 70
0
 10
419.407535
 20
129.437408
 30
0.0
 10
420.931535
 20
130.432241
 30
0.0
  0
LWPOLYLINE
  5
149
100
AcDbEntity
  8
Laag_1
 62
7
100
AcDbPolyline
 90
3
 70
0
 10
411.533535
 20
127.659408
 30
0.0
 10
416.486535
 20
127.659408
 30
0.0
 10
419.407535
 20
129.437408
 30
0.0
  0
LWPOLYLINE
  5
14a
100
AcDbEntity
  8
Laag_1
 62
7
100
AcDbPolyline
 90
2
 70
0
 10
408.231535
 20
134.242241
 30
0.0
 10
411.533535
 20
127.659408
 30
0.0
  0
LWPOLYLINE
  5
14b
100
AcDbEntity
  8
Laag_1
 62
7
100
AcDbPolyline
 90
3
 70
0
 10
423.852535
 20
129.183408
 30
0.0
 10
460.026368
 20
129.183408
 30
0.0
 10
463.540035
 20
129.183408
 30
0.0
  0
LWPOLYLINE
  5
14c
100
AcDbEntity
  8
Laag_1
 62
7
100
AcDbPolyline
 90
2
 70
0
 10
420.931535
 20
130.432241
 30
0.0
 10
423.852535
 20
129.183408
 30
0.0
  0
LWPOLYLINE
  5
14d
100
AcDbEntity
  8
Laag_1
 62
7
100
AcDbPolyline
 90
3
 70
0
 10
417.121535
 20
110.133408
 30
0.0
 10
416.486535
 20
111.403408
 30
0.0
 10
408.231535
 20
111.403408
 30
0.0
  0
LWPOLYLINE
  5
14e
100
AcDbEntity
  8
Laag_1
 62
7
100
AcDbPolyline
 90
4
 70
0
 10
420.931535
 20
106.323408
 30
0.0
 10
418.645535
 20
106.323408
 30
0.0
 10
417.121535
 20
107.847408
 30
0.0
 10
417.121535
 20
110.133408
 30
0.0
  0
LWPOLYLINE
  5
14f
100
AcDbEntity
  8
Laag_1
 62
7
100
AcDbPolyline
 90
2
 70
0
 10
416.486535
 20
111.403408
 30
0.0
 10
416.486535
 20
127.659408
 30
0.0
  0
LWPOLYLINE
  5
150
100
AcDbEntity
  8
Laag_1
 62
7
100
AcDbPolyline
 90
4
 70
0
 10
455.962368
 20
107.847408
 30
0.0
 10
458.100201
 20
107.847408
 30
0.0
 10
460.026368
 20
109.794741
 30
0.0
 10
460.026368
 20
129.183408
 30
0.0
  0
LWPOLYLINE
  5
151
100
AcDbEntity
  8
Laag_1
 62
7
100
AcDbPolyline
 90
3
 70
0
 10
455.962368
 20
95.168575
 30
0.0
 10
472.430035
 20
95.168575
 30
0.0
 10
472.430035
 20
95.210908
 30
0.0
  0
SPLINE
  5
152
100
AcDbEntity
  8
Laag_1
 62
7
100
AcDbSpline
 70
8
 71
3
 72
8
 73
4
 74
0
 40
0
 40
0
 40
0
 40
0
 40
1
 40
1
 40
1
 40
1
 10
464.048035
 20
129.183408
 30
0.0
 10
464.048035
 20
128.902848
 30
0.0
 10
463.820595
 20
128.675408
 30
0.0
 10
463.540035
 20
128.675408
 30
0.0
  0
SPLINE
  5
153
100
AcDbEntity
  8
Laag_1
 62
7
100
AcDbSpline
 70
8
 71
3
 72
8
 73
4
 74
0
 40
0
 40
0
 40
0
 40
0
 40
1
 40
1
 40
1
 40
1
 10
463.540035
 20
128.675408
 30
0.0
 10
463.259475
 20
128.675408
 30
0.0
 10
463.032035
 20
128.902848
 30
0.0
 10
463.032035
 20
129.183408
 30
0.0
  0
SPLINE
  5
154
100
AcDbEntity
  8
Laag_1
 62
7
100
AcDbSpline
 70
8
 71
3
 72
8
 73
4
 74
0
 40
0
 40
0
 40
0
 40
0
 40
1
 40
1
 40
1
 40
1
 10
463.032035
 20
129.183408
 30
0.0
 10
463.032035
 20
129.463968
 30
0.0
 10
463.259475
 20
129.691408
 30
0.0
 10
463.540035
 20
129.691408
 30
0.0
  0
SPLINE
  5
155
100
AcDbEntity
  8
Laag_1
 62
7
100
AcDbSpline
 70
8
 71
3
 72
8
 73
4
 74
0
 40
0
 40
0
 40
0
 40
0
 40
1
 40
1
 40
1
 40
1
 10
463.540035
 20
129.691408
 30
0.0
 10
463.820595
 20
129.691408
 30
0.0
 10
464.048035
 20
129.463968
 30
0.0
 10
464.048035
 20
129.183408
 30
0.0
  0
LWPOLYLINE
  5
156
100
AcDbEntity
  8
Laag_1
 62
7
100
AcDbPolyline
 90
2
 70
0
 10
463.540035
 20
130.178241
 30
0.0
 10
463.540035
 20
128.167408
 30
0.0
  0
LWPOLYLINE
  5
157
100
AcDbEntity
  8
Laag_1
 62
7
100
AcDbPolyline
 90
2
 70
1
 10
464.048035
 20
129.183408
 30
0.0
 10
464.048035
 20
129.183408
 30
0.0
  0
SPLINE
  5
158
100
AcDbEntity
  8
Laag_1
 62
7
100
AcDbSpline
 70
8
 71
3
 72
8
 73
4
 74
0
 40
0
 40
0
 40
0
 40
0
 40
1
 40
1
 40
1
 40
1
 10
470.144035
 20
129.183408
 30
0.0
 10
470.144035
 20
128.902848
 30
0.0
 10
469.916595
 20
128.675408
 30
0.0
 10
469.636035
 20
128.675408
 30
0.0
  0
SPLINE
  5
159
100
AcDbEntity
  8
Laag_1
 62
7
100
AcDbSpline
 70
8
 71
3
 72
8
 73
4
 74
0
 40
0
 40
0
 40
0
 40
0
 40
1
 40
1
 40
1
 40
1
 10
469.636035
 20
128.675408
 30
0.0
 10
469.355475
 20
128.675408
 30
0.0
 10
469.128035
 20
128.902848
 30
0.0
 10
469.128035
 20
129.183408
 30
0.0
  0
SPLINE
  5
15a
100
AcDbEntity
  8
Laag_1
 62
7
100
AcDbSpline
 70
8
 71
3
 72
8
 73
4
 74
0
 40
0
 40
0
 40
0
 40
0
 40
1
 40
1
 40
1
 40
1
 10
469.128035
 20
129.183408
 30
0.0
 10
469.128035
 20
129.463968
 30
0.0
 10
469.355475
 20
129.691408
 30
0.0
 10
469.636035
 20
129.691408
 30
0.0
  0
SPLINE
  5
15b
100
AcDbEntity
  8
Laag_1
 62
7
100
AcDbSpline
 70
8
 71
3
 72
8
 73
4
 74
0
 40
0
 40
0
 40
0
 40
0
 40
1
 40
1
 40
1
 40
1
 10
469.636035
 20
129.691408
 30
0.0
 10
469.916595
 20
129.691408
 30
0.0
 10
470.144035
 20
129.463968
 30
0.0
 10
470.144035
 20
129.183408
 30
0.0
  0
LWPOLYLINE
  5
15c
100
AcDbEntity
  8
Laag_1
 62
7
100
AcDbPolyline
 90
2
 70
0
 10
469.636035
 20
130.178241
 30
0.0
 10
469.636035
 20
128.167408
 30
0.0
  0
LWPOLYLINE
  5
15d
100
AcDbEntity
  8
Laag_1
 62
7
100
AcDbPolyline
 90
2
 70
1
 10
470.144035
 20
129.183408
 30
0.0
 10
470.144035
 20
129.183408
 30
0.0
  0
SPLINE
  5
15e
100
AcDbEntity
  8
Laag_1
 62
7
100
AcDbSpline
 70
8
 71
3
 72
8
 73
4
 74
0
 40
0
 40
0
 40
0
 40
0
 40
1
 40
1
 40
1
 40
1
 10
467.138368
 20
133.967075
 30
0.0
 10
467.138368
 20
133.686515
 30
0.0
 10
466.910928
 20
133.459075
 30
0.0
 10
466.630368
 20
133.459075
 30
0.0
  0
SPLINE
  5
15f
100
AcDbEntity
  8
Laag_1
 62
7
100
AcDbSpline
 70
8
 71
3
 72
8
 73
4
 74
0
 40
0
 40
0
 40
0
 40
0
 40
1
 40
1
 40
1
 40
1
 10
466.630368
 20
133.459075
 30
0.0
 10
466.349808
 20
133.459075
 30
0.0
 10
466.122368
 20
133.686515
 30
0.0
 10
466.122368
 20
133.967075
 30
0.0
  0
SPLINE
  5
160
100
AcDbEntity
  8
Laag_1
 62
7
100
AcDbSpline
 70
8
 71
3
 72
8
 73
4
 74
0
 40
0
 40
0
 40
0
 40
0
 40
1
 40
1
 40
1
 40
1
 10
466.122368
 20
133.967075
 30
0.0
 10
466.122368
 20
134.247635
 30
0.0
 10
466.349808
 20
134.475075
 30
0.0
 10
466.630368
 20
134.475075
 30
0.0
  0
SPLINE
  5
161
100
AcDbEntity
  8
Laag_1
 62
7
100
AcDbSpline
 70
8
 71
3
 72
8
 73
4
 74
0
 40
0
 40
0
 40
0
 40
0
 40
1
 40
1
 40
1
 40
1
 10
466.630368
 20
134.475075
 30
0.0
 10
466.910928
 20
134.475075
 30
0.0
 10
467.138368
 20
134.247635
 30
0.0
 10
467.138368
 20
133.967075
 30
0.0
  0
LWPOLYLINE
  5
162
100
AcDbEntity
  8
Laag_1
 62
7
100
AcDbPolyline
 90
2
 70
0
 10
467.625201
 20
133.967075
 30
0.0
 10
465.635535
 20
133.967075
 30
0.0
  0
LWPOLYLINE
  5
163
100
AcDbEntity
  8
Laag_1
 62
7
100
AcDbPolyline
 90
2
 70
1
 10
467.138368
 20
133.967075
 30
0.0
 10
467.138368
 20
133.967075
 30
0.0
  0
SPLINE
  5
164
100
AcDbEntity
  8
Laag_1
 62
7
100
AcDbSpline
 70
8
 71
3
 72
8
 73
4
 74
0
 40
0
 40
0
 40
0
 40
0
 40
1
 40
1
 40
1
 40
1
 10
421.333701
 20
93.644575
 30
0.0
 10
421.333701
 20
93.422464
 30
0.0
 10
421.153645
 20
93.242408
 30
0.0
 10
420.931535
 20
93.242408
 30
0.0
  0
SPLINE
  5
165
100
AcDbEntity
  8
Laag_1
 62
7
100
AcDbSpline
 70
8
 71
3
 72
8
 73
4
 74
0
 40
0
 40
0
 40
0
 40
0
 40
1
 40
1
 40
1
 40
1
 10
420.931535
 20
93.242408
 30
0.0
 10
420.709424
 20
93.242408
 30
0.0
 10
420.529368
 20
93.422464
 30
0.0
 10
420.529368
 20
93.644575
 30
0.0
  0
SPLINE
  5
166
100
AcDbEntity
  8
Laag_1
 62
7
100
AcDbSpline
 70
8
 71
3
 72
8
 73
4
 74
0
 40
0
 40
0
 40
0
 40
0
 40
1
 40
1
 40
1
 40
1
 10
420.529368
 20
93.644575
 30
0.0
 10
420.529368
 20
93.866685
 30
0.0
 10
420.709424
 20
94.046741
 30
0.0
 10
420.931535
 20
94.046741
 30
0.0
  0
SPLINE
  5
167
100
AcDbEntity
  8
Laag_1
 62
7
100
AcDbSpline
 70
8
 71
3
 72
8
 73
4
 74
0
 40
0
 40
0
 40
0
 40
0
 40
1
 40
1
 40
1
 40
1
 10
420.931535
 20
94.046741
 30
0.0
 10
421.153645
 20
94.046741
 30
0.0
 10
421.333701
 20
93.866685
 30
0.0
 10
421.333701
 20
93.644575
 30
0.0
  0
LWPOLYLINE
  5
168
100
AcDbEntity
  8
Laag_1
 62
7
100
AcDbPolyline
 90
2
 70
0
 10
421.587701
 20
93.644575
 30
0.0
 10
420.275368
 20
93.644575
 30
0.0
  0
LWPOLYLINE
  5
169
100
AcDbEntity
  8
Laag_1
 62
7
100
AcDbPolyline
 90
2
 70
1
 10
421.333701
 20
93.644575
 30
0.0
 10
421.333701
 20
93.644575
 30
0.0
  0
SPLINE
  5
16a
100
AcDbEntity
  8
Laag_1
 62
7
100
AcDbSpline
 70
8
 71
3
 72
8
 73
4
 74
0
 40
0
 40
0
 40
0
 40
0
 40
1
 40
1
 40
1
 40
1
 10
421.333701
 20
96.184575
 30
0.0
 10
421.333701
 20
95.962464
 30
0.0
 10
421.153645
 20
95.782408
 30
0.0
 10
420.931535
 20
95.782408
 30
0.0
  0
SPLINE
  5
16b
100
AcDbEntity
  8
Laag_1
 62
7
100
AcDbSpline
 70
8
 71
3
 72
8
 73
4
 74
0
 40
0
 40
0
 40
0
 40
0
 40
1
 40
1
 40
1
 40
1
 10
420.931535
 20
95.782408
 30
0.0
 10
420.709424
 20
95.782408
 30
0.0
 10
420.529368
 20
95.962464
 30
0.0
 10
420.529368
 20
96.184575
 30
0.0
  0
SPLINE
  5
16c
100
AcDbEntity
  8
Laag_1
 62
7
100
AcDbSpline
 70
8
 71
3
 72
8
 73
4
 74
0
 40
0
 40
0
 40
0
 40
0
 40
1
 40
1
 40
1
 40
1
 10
420.529368
 20
96.184575
 30
0.0
 10
420.529368
 20
96.406685
 30
0.0
 10
420.709424
 20
96.586741
 30
0.0
 10
420.931535
 20
96.586741
 30
0.0
  0
SPLINE
  5
16d
100
AcDbEntity
  8
Laag_1
 62
7
100
AcDbSpline
 70
8
 71
3
 72
8
 73
4
 74
0
 40
0
 40
0
 40
0
 40
0
 40
1
 40
1
 40
1
 40
1
 10
420.931535
 20
96.586741
 30
0.0
 10
421.153645
 20
96.586741
 30
0.0
 10
421.333701
 20
96.406685
 30
0.0
 10
421.333701
 20
96.184575
 30
0.0
  0
LWPOLYLINE
  5
16e
100
AcDbEntity
  8
Laag_1
 62
7
100
AcDbPolyline
 90
2
 70
0
 10
421.587701
 20
96.184575
 30
0.0
 10
420.275368
 20
96.184575
 30
0.0
  0
LWPOLYLINE
  5
16f
100
AcDbEntity
  8
Laag_1
 62
7
100
AcDbPolyline
 90
2
 70
1
 10
421.333701
 20
96.184575
 30
0.0
 10
421.333701
 20
96.184575
 30
0.0
  0
SPLINE
  5
170
100
AcDbEntity
  8
Laag_1
 62
7
100
AcDbSpline
 70
8
 71
3
 72
8
 73
4
 74
0
 40
0
 40
0
 40
0
 40
0
 40
1
 40
1
 40
1
 40
1
 10
421.333701
 20
106.323408
 30
0.0
 10
421.333701
 20
106.101298
 30
0.0
 10
421.153645
 20
105.921241
 30
0.0
 10
420.931535
 20
105.921241
 30
0.0
  0
SPLINE
  5
171
100
AcDbEntity
  8
Laag_1
 62
7
100
AcDbSpline
 70
8
 71
3
 72
8
 73
4
 74
0
 40
0
 40
0
 40
0
 40
0
 40
1
 40
1
 40
1
 40
1
 10
420.931535
 20
105.921241
 30
0.0
 10
420.709424
 20
105.921241
 30
0.0
 10
420.529368
 20
106.101298
 30
0.0
 10
420.529368
 20
106.323408
 30
0.0
  0
SPLINE
  5
172
100
AcDbEntity
  8
Laag_1
 62
7
100
AcDbSpline
 70
8
 71
3
 72
8
 73
4
 74
0
 40
0
 40
0
 40
0
 40
0
 40
1
 40
1
 40
1
 40
1
 10
420.529368
 20
106.323408
 30
0.0
 10
420.529368
 20
106.545518
 30
0.0
 10
420.709424
 20
106.725575
 30
0.0
 10
420.931535
 20
106.725575
 30
0.0
  0
SPLINE
  5
173
100
AcDbEntity
  8
Laag_1
 62
7
100
AcDbSpline
 70
8
 71
3
 72
8
 73
4
 74
0
 40
0
 40
0
 40
0
 40
0
 40
1
 40
1
 40
1
 40
1
 10
420.931535
 20
106.725575
 30
0.0
 10
421.153645
 20
106.725575
 30
0.0
 10
421.333701
 20
106.545518
 30
0.0
 10
421.333701
 20
106.323408
 30
0.0
  0
LWPOLYLINE
  5
174
100
AcDbEntity
  8
Laag_1
 62
7
100
AcDbPolyline
 90
2
 70
0
 10
421.587701
 20
106.323408
 30
0.0
 10
420.275368
 20
106.323408
 30
0.0
  0
LWPOLYLINE
  5
175
100
AcDbEntity
  8
Laag_1
 62
7
100
AcDbPolyline
 90
2
 70
1
 10
421.333701
 20
106.323408
 30
0.0
 10
421.333701
 20
106.323408
 30
0.0
  0
SPLINE
  5
176
100
AcDbEntity
  8
Laag_1
 62
7
100
AcDbSpline
 70
8
 71
3
 72
8
 73
4
 74
0
 40
0
 40
0
 40
0
 40
0
 40
1
 40
1
 40
1
 40
1
 10
421.333701
 20
108.863408
 30
0.0
 10
421.333701
 20
108.641298
 30
0.0
 10
421.153645
 20
108.461241
 30
0.0
 10
420.931535
 20
108.461241
 30
0.0
  0
SPLINE
  5
177
100
AcDbEntity
  8
Laag_1
 62
7
100
AcDbSpline
 70
8
 71
3
 72
8
 73
4
 74
0
 40
0
 40
0
 40
0
 40
0
 40
1
 40
1
 40
1
 40
1
 10
420.931535
 20
108.461241
 30
0.0
 10
420.709424
 20
108.461241
 30
0.0
 10
420.529368
 20
108.641298
 30
0.0
 10
420.529368
 20
108.863408
 30
0.0
  0
SPLINE
  5
178
100
AcDbEntity
  8
Laag_1
 62
7
100
AcDbSpline
 70
8
 71
3
 72
8
 73
4
 74
0
 40
0
 40
0
 40
0
 40
0
 40
1
 40
1
 40
1
 40
1
 10
420.529368
 20
108.863408
 30
0.0
 10
420.529368
 20
109.085518
 30
0.0
 10
420.709424
 20
109.265575
 30
0.0
 10
420.931535
 20
109.265575
 30
0.0
  0
SPLINE
  5
179
100
AcDbEntity
  8
Laag_1
 62
7
100
AcDbSpline
 70
8
 71
3
 72
8
 73
4
 74
0
 40
0
 40
0
 40
0
 40
0
 40
1
 40
1
 40
1
 40
1
 10
420.931535
 20
109.265575
 30
0.0
 10
421.153645
 20
109.265575
 30
0.0
 10
421.333701
 20
109.085518
 30
0.0
 10
421.333701
 20
108.863408
 30
0.0
  0
LWPOLYLINE
  5
17a
100
AcDbEntity
  8
Laag_1
 62
7
100
AcDbPolyline
 90
2
 70
0
 10
421.587701
 20
108.863408
 30
0.0
 10
420.275368
 20
108.863408
 30
0.0
  0
LWPOLYLINE
  5
17b
100
AcDbEntity
  8
Laag_1
 62
7
100
AcDbPolyline
 90
2
 70
1
 10
421.333701
 20
108.863408
 30
0.0
 10
421.333701
 20
108.863408
 30
0.0
  0
SPLINE
  5
17c
100
AcDbEntity
  8
Laag_1
 62
7
100
AcDbSpline
 70
8
 71
3
 72
8
 73
4
 74
0
 40
0
 40
0
 40
0
 40
0
 40
1
 40
1
 40
1
 40
1
 10
413.713701
 20
108.863408
 30
0.0
 10
413.713701
 20
108.641298
 30
0.0
 10
413.533645
 20
108.461241
 30
0.0
 10
413.311535
 20
108.461241
 30
0.0
  0
SPLINE
  5
17d
100
AcDbEntity
  8
Laag_1
 62
7
100
AcDbSpline
 70
8
 71
3
 72
8
 73
4
 74
0
 40
0
 40
0
 40
0
 40
0
 40
1
 40
1
 40
1
 40
1
 10
413.311535
 20
108.461241
 30
0.0
 10
413.089424
 20
108.461241
 30
0.0
 10
412.909368
 20
108.641298
 30
0.0
 10
412.909368
 20
108.863408
 30
0.0
  0
SPLINE
  5
17e
100
AcDbEntity
  8
Laag_1
 62
7
100
AcDbSpline
 70
8
 71
3
 72
8
 73
4
 74
0
 40
0
 40
0
 40
0
 40
0
 40
1
 40
1
 40
1
 40
1
 10
412.909368
 20
108.863408
 30
0.0
 10
412.909368
 20
109.085518
 30
0.0
 10
413.089424
 20
109.265575
 30
0.0
 10
413.311535
 20
109.265575
 30
0.0
  0
SPLINE
  5
17f
100
AcDbEntity
  8
Laag_1
 62
7
100
AcDbSpline
 70
8
 71
3
 72
8
 73
4
 74
0
 40
0
 40
0
 40
0
 40
0
 40
1
 40
1
 40
1
 40
1
 10
413.311535
 20
109.265575
 30
0.0
 10
413.533645
 20
109.265575
 30
0.0
 10
413.713701
 20
109.085518
 30
0.0
 10
413.713701
 20
108.863408
 30
0.0
  0
LWPOLYLINE
  5
180
100
AcDbEntity
  8
Laag_1
 62
7
100
AcDbPolyline
 90
2
 70
0
 10
413.988868
 20
108.863408
 30
0.0
 10
412.655368
 20
108.863408
 30
0.0
  0
LWPOLYLINE
  5
181
100
AcDbEntity
  8
Laag_1
 62
7
100
AcDbPolyline
 90
2
 70
1
 10
413.713701
 20
108.863408
 30
0.0
 10
413.713701
 20
108.863408
 30
0.0
  0
SPLINE
  5
182
100
AcDbEntity
  8
Laag_1
 62
7
100
AcDbSpline
 70
8
 71
3
 72
8
 73
4
 74
0
 40
0
 40
0
 40
0
 40
0
 40
1
 40
1
 40
1
 40
1
 10
413.713701
 20
106.323408
 30
0.0
 10
413.713701
 20
106.101298
 30
0.0
 10
413.533645
 20
105.921241
 30
0.0
 10
413.311535
 20
105.921241
 30
0.0
  0
SPLINE
  5
183
100
AcDbEntity
  8
Laag_1
 62
7
100
AcDbSpline
 70
8
 71
3
 72
8
 73
4
 74
0
 40
0
 40
0
 40
0
 40
0
 40
1
 40
1
 40
1
 40
1
 10
413.311535
 20
105.921241
 30
0.0
 10
413.089424
 20
105.921241
 30
0.0
 10
412.909368
 20
106.101298
 30
0.0
 10
412.909368
 20
106.323408
 30
0.0
  0
SPLINE
  5
184
100
AcDbEntity
  8
Laag_1
 62
7
100
AcDbSpline
 70
8
 71
3
 72
8
 73
4
 74
0
 40
0
 40
0
 40
0
 40
0
 40
1
 40
1
 40
1
 40
1
 10
412.909368
 20
106.323408
 30
0.0
 10
412.909368
 20
106.545518
 30
0.0
 10
413.089424
 20
106.725575
 30
0.0
 10
413.311535
 20
106.725575
 30
0.0
  0
SPLINE
  5
185
100
AcDbEntity
  8
Laag_1
 62
7
100
AcDbSpline
 70
8
 71
3
 72
8
 73
4
 74
0
 40
0
 40
0
 40
0
 40
0
 40
1
 40
1
 40
1
 40
1
 10
413.311535
 20
106.725575
 30
0.0
 10
413.533645
 20
106.725575
 30
0.0
 10
413.713701
 20
106.545518
 30
0.0
 10
413.713701
 20
106.323408
 30
0.0
  0
LWPOLYLINE
  5
186
100
AcDbEntity
  8
Laag_1
 62
7
100
AcDbPolyline
 90
2
 70
0
 10
413.988868
 20
106.323408
 30
0.0
 10
412.655368
 20
106.323408
 30
0.0
  0
LWPOLYLINE
  5
187
100
AcDbEntity
  8
Laag_1
 62
7
100
AcDbPolyline
 90
2
 70
1
 10
413.713701
 20
106.323408
 30
0.0
 10
413.713701
 20
106.323408
 30
0.0
  0
SPLINE
  5
188
100
AcDbEntity
  8
Laag_1
 62
7
100
AcDbSpline
 70
8
 71
3
 72
8
 73
4
 74
0
 40
0
 40
0
 40
0
 40
0
 40
1
 40
1
 40
1
 40
1
 10
413.713701
 20
96.184575
 30
0.0
 10
413.713701
 20
95.962464
 30
0.0
 10
413.533645
 20
95.782408
 30
0.0
 10
413.311535
 20
95.782408
 30
0.0
  0
SPLINE
  5
189
100
AcDbEntity
  8
Laag_1
 62
7
100
AcDbSpline
 70
8
 71
3
 72
8
 73
4
 74
0
 40
0
 40
0
 40
0
 40
0
 40
1
 40
1
 40
1
 40
1
 10
413.311535
 20
95.782408
 30
0.0
 10
413.089424
 20
95.782408
 30
0.0
 10
412.909368
 20
95.962464
 30
0.0
 10
412.909368
 20
96.184575
 30
0.0
  0
SPLINE
  5
18a
100
AcDbEntity
  8
Laag_1
 62
7
100
AcDbSpline
 70
8
 71
3
 72
8
 73
4
 74
0
 40
0
 40
0
 40
0
 40
0
 40
1
 40
1
 40
1
 40
1
 10
412.909368
 20
96.184575
 30
0.0
 10
412.909368
 20
96.406685
 30
0.0
 10
413.089424
 20
96.586741
 30
0.0
 10
413.311535
 20
96.586741
 30
0.0
  0
SPLINE
  5
18b
100
AcDbEntity
  8
Laag_1
 62
7
100
AcDbSpline
 70
8
 71
3
 72
8
 73
4
 74
0
 40
0
 40
0
 40
0
 40
0
 40
1
 40
1
 40
1
 40
1
 10
413.311535
 20
96.586741
 30
0.0
 10
413.533645
 20
96.586741
 30
0.0
 10
413.713701
 20
96.406685
 30
0.0
 10
413.713701
 20
96.184575
 30
0.0
  0
LWPOLYLINE
  5
18c
100
AcDbEntity
  8
Laag_1
 62
7
100
AcDbPolyline
 90
2
 70
0
 10
413.988868
 20
96.184575
 30
0.0
 10
412.655368
 20
96.184575
 30
0.0
  0
LWPOLYLINE
  5
18d
100
AcDbEntity
  8
Laag_1
 62
7
100
AcDbPolyline
 90
2
 70
1
 10
413.713701
 20
96.184575
 30
0.0
 10
413.713701
 20
96.184575
 30
0.0
  0
SPLINE
  5
18e
100
AcDbEntity
  8
Laag_1
 62
7
100
AcDbSpline
 70
8
 71
3
 72
8
 73
4
 74
0
 40
0
 40
0
 40
0
 40
0
 40
1
 40
1
 40
1
 40
1
 10
413.713701
 20
93.644575
 30
0.0
 10
413.713701
 20
93.422464
 30
0.0
 10
413.533645
 20
93.242408
 30
0.0
 10
413.311535
 20
93.242408
 30
0.0
  0
SPLINE
  5
18f
100
AcDbEntity
  8
Laag_1
 62
7
100
AcDbSpline
 70
8
 71
3
 72
8
 73
4
 74
0
 40
0
 40
0
 40
0
 40
0
 40
1
 40
1
 40
1
 40
1
 10
413.311535
 20
93.242408
 30
0.0
 10
413.089424
 20
93.242408
 30
0.0
 10
412.909368
 20
93.422464
 30
0.0
 10
412.909368
 20
93.644575
 30
0.0
  0
SPLINE
  5
190
100
AcDbEntity
  8
Laag_1
 62
7
100
AcDbSpline
 70
8
 71
3
 72
8
 73
4
 74
0
 40
0
 40
0
 40
0
 40
0
 40
1
 40
1
 40
1
 40
1
 10
412.909368
 20
93.644575
 30
0.0
 10
412.909368
 20
93.866685
 30
0.0
 10
413.089424
 20
94.046741
 30
0.0
 10
413.311535
 20
94.046741
 30
0.0
  0
SPLINE
  5
191
100
AcDbEntity
  8
Laag_1
 62
7
100
AcDbSpline
 70
8
 71
3
 72
8
 73
4
 74
0
 40
0
 40
0
 40
0
 40
0
 40
1
 40
1
 40
1
 40
1
 10
413.311535
 20
94.046741
 30
0.0
 10
413.533645
 20
94.046741
 30
0.0
 10
413.713701
 20
93.866685
 30
0.0
 10
413.713701
 20
93.644575
 30
0.0
  0
LWPOLYLINE
  5
192
100
AcDbEntity
  8
Laag_1
 62
7
100
AcDbPolyline
 90
2
 70
0
 10
413.988868
 20
93.644575
 30
0.0
 10
412.655368
 20
93.644575
 30
0.0
  0
LWPOLYLINE
  5
193
100
AcDbEntity
  8
Laag_1
 62
7
100
AcDbPolyline
 90
2
 70
1
 10
413.713701
 20
93.644575
 30
0.0
 10
413.713701
 20
93.644575
 30
0.0
  0
SPLINE
  5
194
100
AcDbEntity
  8
Laag_1
 62
7
100
AcDbSpline
 70
8
 71
3
 72
8
 73
4
 74
0
 40
0
 40
0
 40
0
 40
0
 40
1
 40
1
 40
1
 40
1
 10
408.633701
 20
98.724575
 30
0.0
 10
408.633701
 20
98.502464
 30
0.0
 10
408.453645
 20
98.322408
 30
0.0
 10
408.231535
 20
98.322408
 30
0.0
  0
SPLINE
  5
195
100
AcDbEntity
  8
Laag_1
 62
7
100
AcDbSpline
 70
8
 71
3
 72
8
 73
4
 74
0
 40
0
 40
0
 40
0
 40
0
 40
1
 40
1
 40
1
 40
1
 10
408.231535
 20
98.322408
 30
0.0
 10
408.009424
 20
98.322408
 30
0.0
 10
407.829368
 20
98.502464
 30
0.0
 10
407.829368
 20
98.724575
 30
0.0
  0
SPLINE
  5
196
100
AcDbEntity
  8
Laag_1
 62
7
100
AcDbSpline
 70
8
 71
3
 72
8
 73
4
 74
0
 40
0
 40
0
 40
0
 40
0
 40
1
 40
1
 40
1
 40
1
 10
407.829368
 20
98.724575
 30
0.0
 10
407.829368
 20
98.946685
 30
0.0
 10
408.009424
 20
99.126741
 30
0.0
 10
408.231535
 20
99.126741
 30
0.0
  0
SPLINE
  5
197
100
AcDbEntity
  8
Laag_1
 62
7
100
AcDbSpline
 70
8
 71
3
 72
8
 73
4
 74
0
 40
0
 40
0
 40
0
 40
0
 40
1
 40
1
 40
1
 40
1
 10
408.231535
 20
99.126741
 30
0.0
 10
408.453645
 20
99.126741
 30
0.0
 10
408.633701
 20
98.946685
 30
0.0
 10
408.633701
 20
98.724575
 30
0.0
  0
LWPOLYLINE
  5
198
100
AcDbEntity
  8
Laag_1
 62
7
100
AcDbPolyline
 90
2
 70
0
 10
408.908868
 20
98.724575
 30
0.0
 10
407.575368
 20
98.724575
 30
0.0
  0
LWPOLYLINE
  5
199
100
AcDbEntity
  8
Laag_1
 62
7
100
AcDbPolyline
 90
2
 70
1
 10
408.633701
 20
98.724575
 30
0.0
 10
408.633701
 20
98.724575
 30
0.0
  0
SPLINE
  5
19a
100
AcDbEntity
  8
Laag_1
 62
7
100
AcDbSpline
 70
8
 71
3
 72
8
 73
4
 74
0
 40
0
 40
0
 40
0
 40
0
 40
1
 40
1
 40
1
 40
1
 10
408.633701
 20
101.243408
 30
0.0
 10
408.633701
 20
101.021298
 30
0.0
 10
408.453645
 20
100.841241
 30
0.0
 10
408.231535
 20
100.841241
 30
0.0
  0
SPLINE
  5
19b
100
AcDbEntity
  8
Laag_1
 62
7
100
AcDbSpline
 70
8
 71
3
 72
8
 73
4
 74
0
 40
0
 40
0
 40
0
 40
0
 40
1
 40
1
 40
1
 40
1
 10
408.231535
 20
100.841241
 30
0.0
 10
408.009424
 20
100.841241
 30
0.0
 10
407.829368
 20
101.021298
 30
0.0
 10
407.829368
 20
101.243408
 30
0.0
  0
SPLINE
  5
19c
100
AcDbEntity
  8
Laag_1
 62
7
100
AcDbSpline
 70
8
 71
3
 72
8
 73
4
 74
0
 40
0
 40
0
 40
0
 40
0
 40
1
 40
1
 40
1
 40
1
 10
407.829368
 20
101.243408
 30
0.0
 10
407.829368
 20
101.465518
 30
0.0
 10
408.009424
 20
101.645575
 30
0.0
 10
408.231535
 20
101.645575
 30
0.0
  0
SPLINE
  5
19d
100
AcDbEntity
  8
Laag_1
 62
7
100
AcDbSpline
 70
8
 71
3
 72
8
 73
4
 74
0
 40
0
 40
0
 40
0
 40
0
 40
1
 40
1
 40
1
 40
1
 10
408.231535
 20
101.645575
 30
0.0
 10
408.453645
 20
101.645575
 30
0.0
 10
408.633701
 20
101.465518
 30
0.0
 10
408.633701
 20
101.243408
 30
0.0
  0
LWPOLYLINE
  5
19e
100
AcDbEntity
  8
Laag_1
 62
7
100
AcDbPolyline
 90
2
 70
0
 10
408.908868
 20
101.243408
 30
0.0
 10
407.575368
 20
101.243408
 30
0.0
  0
LWPOLYLINE
  5
19f
100
AcDbEntity
  8
Laag_1
 62
7
100
AcDbPolyline
 90
2
 70
1
 10
408.633701
 20
101.243408
 30
0.0
 10
408.633701
 20
101.243408
 30
0.0
  0
SPLINE
  5
1a0
100
AcDbEntity
  8
Laag_1
 62
7
100
AcDbSpline
 70
8
 71
3
 72
8
 73
4
 74
0
 40
0
 40
0
 40
0
 40
0
 40
1
 40
1
 40
1
 40
1
 10
408.633701
 20
111.403408
 30
0.0
 10
408.633701
 20
111.181298
 30
0.0
 10
408.453645
 20
111.001241
 30
0.0
 10
408.231535
 20
111.001241
 30
0.0
  0
SPLINE
  5
1a1
100
AcDbEntity
  8
Laag_1
 62
7
100
AcDbSpline
 70
8
 71
3
 72
8
 73
4
 74
0
 40
0
 40
0
 40
0
 40
0
 40
1
 40
1
 40
1
 40
1
 10
408.231535
 20
111.001241
 30
0.0
 10
408.009424
 20
111.001241
 30
0.0
 10
407.829368
 20
111.181298
 30
0.0
 10
407.829368
 20
111.403408
 30
0.0
  0
SPLINE
  5
1a2
100
AcDbEntity
  8
Laag_1
 62
7
100
AcDbSpline
 70
8
 71
3
 72
8
 73
4
 74
0
 40
0
 40
0
 40
0
 40
0
 40
1
 40
1
 40
1
 40
1
 10
407.829368
 20
111.403408
 30
0.0
 10
407.829368
 20
111.625518
 30
0.0
 10
408.009424
 20
111.805575
 30
0.0
 10
408.231535
 20
111.805575
 30
0.0
  0
SPLINE
  5
1a3
100
AcDbEntity
  8
Laag_1
 62
7
100
AcDbSpline
 70
8
 71
3
 72
8
 73
4
 74
0
 40
0
 40
0
 40
0
 40
0
 40
1
 40
1
 40
1
 40
1
 10
408.231535
 20
111.805575
 30
0.0
 10
408.453645
 20
111.805575
 30
0.0
 10
408.633701
 20
111.625518
 30
0.0
 10
408.633701
 20
111.403408
 30
0.0
  0
LWPOLYLINE
  5
1a4
100
AcDbEntity
  8
Laag_1
 62
7
100
AcDbPolyline
 90
2
 70
0
 10
408.908868
 20
111.403408
 30
0.0
 10
407.575368
 20
111.403408
 30
0.0
  0
LWPOLYLINE
  5
1a5
100
AcDbEntity
  8
Laag_1
 62
7
100
AcDbPolyline
 90
2
 70
1
 10
408.633701
 20
111.403408
 30
0.0
 10
408.633701
 20
111.403408
 30
0.0
  0
SPLINE
  5
1a6
100
AcDbEntity
  8
Laag_1
 62
7
100
AcDbSpline
 70
8
 71
3
 72
8
 73
4
 74
0
 40
0
 40
0
 40
0
 40
0
 40
1
 40
1
 40
1
 40
1
 10
408.633701
 20
113.943408
 30
0.0
 10
408.633701
 20
113.721298
 30
0.0
 10
408.453645
 20
113.541241
 30
0.0
 10
408.231535
 20
113.541241
 30
0.0
  0
SPLINE
  5
1a7
100
AcDbEntity
  8
Laag_1
 62
7
100
AcDbSpline
 70
8
 71
3
 72
8
 73
4
 74
0
 40
0
 40
0
 40
0
 40
0
 40
1
 40
1
 40
1
 40
1
 10
408.231535
 20
113.541241
 30
0.0
 10
408.009424
 20
113.541241
 30
0.0
 10
407.829368
 20
113.721298
 30
0.0
 10
407.829368
 20
113.943408
 30
0.0
  0
SPLINE
  5
1a8
100
AcDbEntity
  8
Laag_1
 62
7
100
AcDbSpline
 70
8
 71
3
 72
8
 73
4
 74
0
 40
0
 40
0
 40
0
 40
0
 40
1
 40
1
 40
1
 40
1
 10
407.829368
 20
113.943408
 30
0.0
 10
407.829368
 20
114.165518
 30
0.0
 10
408.009424
 20
114.345575
 30
0.0
 10
408.231535
 20
114.345575
 30
0.0
  0
SPLINE
  5
1a9
100
AcDbEntity
  8
Laag_1
 62
7
100
AcDbSpline
 70
8
 71
3
 72
8
 73
4
 74
0
 40
0
 40
0
 40
0
 40
0
 40
1
 40
1
 40
1
 40
1
 10
408.231535
 20
114.345575
 30
0.0
 10
408.453645
 20
114.345575
 30
0.0
 10
408.633701
 20
114.165518
 30
0.0
 10
408.633701
 20
113.943408
 30
0.0
  0
LWPOLYLINE
  5
1aa
100
AcDbEntity
  8
Laag_1
 62
7
100
AcDbPolyline
 90
2
 70
0
 10
408.908868
 20
113.943408
 30
0.0
 10
407.575368
 20
113.943408
 30
0.0
  0
LWPOLYLINE
  5
1ab
100
AcDbEntity
  8
Laag_1
 62
7
100
AcDbPolyline
 90
2
 70
1
 10
408.633701
 20
113.943408
 30
0.0
 10
408.633701
 20
113.943408
 30
0.0
  0
SPLINE
  5
1ac
100
AcDbEntity
  8
Laag_1
 62
7
100
AcDbSpline
 70
8
 71
3
 72
8
 73
4
 74
0
 40
0
 40
0
 40
0
 40
0
 40
1
 40
1
 40
1
 40
1
 10
401.034868
 20
113.943408
 30
0.0
 10
401.034868
 20
113.721298
 30
0.0
 10
400.854812
 20
113.541241
 30
0.0
 10
400.632701
 20
113.541241
 30
0.0
  0
SPLINE
  5
1ad
100
AcDbEntity
  8
Laag_1
 62
7
100
AcDbSpline
 70
8
 71
3
 72
8
 73
4
 74
0
 40
0
 40
0
 40
0
 40
0
 40
1
 40
1
 40
1
 40
1
 10
400.632701
 20
113.541241
 30
0.0
 10
400.410591
 20
113.541241
 30
0.0
 10
400.230535
 20
113.721298
 30
0.0
 10
400.230535
 20
113.943408
 30
0.0
  0
SPLINE
  5
1ae
100
AcDbEntity
  8
Laag_1
 62
7
100
AcDbSpline
 70
8
 71
3
 72
8
 73
4
 74
0
 40
0
 40
0
 40
0
 40
0
 40
1
 40
1
 40
1
 40
1
 10
400.230535
 20
113.943408
 30
0.0
 10
400.230535
 20
114.165518
 30
0.0
 10
400.410591
 20
114.345575
 30
0.0
 10
400.632701
 20
114.345575
 30
0.0
  0
SPLINE
  5
1af
100
AcDbEntity
  8
Laag_1
 62
7
100
AcDbSpline
 70
8
 71
3
 72
8
 73
4
 74
0
 40
0
 40
0
 40
0
 40
0
 40
1
 40
1
 40
1
 40
1
 10
400.632701
 20
114.345575
 30
0.0
 10
400.854812
 20
114.345575
 30
0.0
 10
401.034868
 20
114.165518
 30
0.0
 10
401.034868
 20
113.943408
 30
0.0
  0
LWPOLYLINE
  5
1b0
100
AcDbEntity
  8
Laag_1
 62
7
100
AcDbPolyline
 90
2
 70
0
 10
401.288868
 20
113.943408
 30
0.0
 10
399.955368
 20
113.943408
 30
0.0
  0
LWPOLYLINE
  5
1b1
100
AcDbEntity
  8
Laag_1
 62
7
100
AcDbPolyline
 90
2
 70
1
 10
401.034868
 20
113.943408
 30
0.0
 10
401.034868
 20
113.943408
 30
0.0
  0
SPLINE
  5
1b2
100
AcDbEntity
  8
Laag_1
 62
7
100
AcDbSpline
 70
8
 71
3
 72
8
 73
4
 74
0
 40
0
 40
0
 40
0
 40
0
 40
1
 40
1
 40
1
 40
1
 10
401.034868
 20
111.403408
 30
0.0
 10
401.034868
 20
111.181298
 30
0.0
 10
400.854812
 20
111.001241
 30
0.0
 10
400.632701
 20
111.001241
 30
0.0
  0
SPLINE
  5
1b3
100
AcDbEntity
  8
Laag_1
 62
7
100
AcDbSpline
 70
8
 71
3
 72
8
 73
4
 74
0
 40
0
 40
0
 40
0
 40
0
 40
1
 40
1
 40
1
 40
1
 10
400.632701
 20
111.001241
 30
0.0
 10
400.410591
 20
111.001241
 30
0.0
 10
400.230535
 20
111.181298
 30
0.0
 10
400.230535
 20
111.403408
 30
0.0
  0
SPLINE
  5
1b4
100
AcDbEntity
  8
Laag_1
 62
7
100
AcDbSpline
 70
8
 71
3
 72
8
 73
4
 74
0
 40
0
 40
0
 40
0
 40
0
 40
1
 40
1
 40
1
 40
1
 10
400.230535
 20
111.403408
 30
0.0
 10
400.230535
 20
111.625518
 30
0.0
 10
400.410591
 20
111.805575
 30
0.0
 10
400.632701
 20
111.805575
 30
0.0
  0
SPLINE
  5
1b5
100
AcDbEntity
  8
Laag_1
 62
7
100
AcDbSpline
 70
8
 71
3
 72
8
 73
4
 74
0
 40
0
 40
0
 40
0
 40
0
 40
1
 40
1
 40
1
 40
1
 10
400.632701
 20
111.805575
 30
0.0
 10
400.854812
 20
111.805575
 30
0.0
 10
401.034868
 20
111.625518
 30
0.0
 10
401.034868
 20
111.403408
 30
0.0
  0
LWPOLYLINE
  5
1b6
100
AcDbEntity
  8
Laag_1
 62
7
100
AcDbPolyline
 90
2
 70
0
 10
401.288868
 20
111.403408
 30
0.0
 10
399.955368
 20
111.403408
 30
0.0
  0
LWPOLYLINE
  5
1b7
100
AcDbEntity
  8
Laag_1
 62
7
100
AcDbPolyline
 90
2
 70
1
 10
401.034868
 20
111.403408
 30
0.0
 10
401.034868
 20
111.403408
 30
0.0
  0
SPLINE
  5
1b8
100
AcDbEntity
  8
Laag_1
 62
7
100
AcDbSpline
 70
8
 71
3
 72
8
 73
4
 74
0
 40
0
 40
0
 40
0
 40
0
 40
1
 40
1
 40
1
 40
1
 10
401.034868
 20
101.243408
 30
0.0
 10
401.034868
 20
101.021298
 30
0.0
 10
400.854812
 20
100.841241
 30
0.0
 10
400.632701
 20
100.841241
 30
0.0
  0
SPLINE
  5
1b9
100
AcDbEntity
  8
Laag_1
 62
7
100
AcDbSpline
 70
8
 71
3
 72
8
 73
4
 74
0
 40
0
 40
0
 40
0
 40
0
 40
1
 40
1
 40
1
 40
1
 10
400.632701
 20
100.841241
 30
0.0
 10
400.410591
 20
100.841241
 30
0.0
 10
400.230535
 20
101.021298
 30
0.0
 10
400.230535
 20
101.243408
 30
0.0
  0
SPLINE
  5
1ba
100
AcDbEntity
  8
Laag_1
 62
7
100
AcDbSpline
 70
8
 71
3
 72
8
 73
4
 74
0
 40
0
 40
0
 40
0
 40
0
 40
1
 40
1
 40
1
 40
1
 10
400.230535
 20
101.243408
 30
0.0
 10
400.230535
 20
101.465518
 30
0.0
 10
400.410591
 20
101.645575
 30
0.0
 10
400.632701
 20
101.645575
 30
0.0
  0
SPLINE
  5
1bb
100
AcDbEntity
  8
Laag_1
 62
7
100
AcDbSpline
 70
8
 71
3
 72
8
 73
4
 74
0
 40
0
 40
0
 40
0
 40
0
 40
1
 40
1
 40
1
 40
1
 10
400.632701
 20
101.645575
 30
0.0
 10
400.854812
 20
101.645575
 30
0.0
 10
401.034868
 20
101.465518
 30
0.0
 10
401.034868
 20
101.243408
 30
0.0
  0
LWPOLYLINE
  5
1bc
100
AcDbEntity
  8
Laag_1
 62
7
100
AcDbPolyline
 90
2
 70
0
 10
401.288868
 20
101.243408
 30
0.0
 10
399.955368
 20
101.243408
 30
0.0
  0
LWPOLYLINE
  5
1bd
100
AcDbEntity
  8
Laag_1
 62
7
100
AcDbPolyline
 90
2
 70
1
 10
401.034868
 20
101.243408
 30
0.0
 10
401.034868
 20
101.243408
 30
0.0
  0
SPLINE
  5
1be
100
AcDbEntity
  8
Laag_1
 62
7
100
AcDbSpline
 70
8
 71
3
 72
8
 73
4
 74
0
 40
0
 40
0
 40
0
 40
0
 40
1
 40
1
 40
1
 40
1
 10
401.034868
 20
98.724575
 30
0.0
 10
401.034868
 20
98.502464
 30
0.0
 10
400.854812
 20
98.322408
 30
0.0
 10
400.632701
 20
98.322408
 30
0.0
  0
SPLINE
  5
1bf
100
AcDbEntity
  8
Laag_1
 62
7
100
AcDbSpline
 70
8
 71
3
 72
8
 73
4
 74
0
 40
0
 40
0
 40
0
 40
0
 40
1
 40
1
 40
1
 40
1
 10
400.632701
 20
98.322408
 30
0.0
 10
400.410591
 20
98.322408
 30
0.0
 10
400.230535
 20
98.502464
 30
0.0
 10
400.230535
 20
98.724575
 30
0.0
  0
SPLINE
  5
1c0
100
AcDbEntity
  8
Laag_1
 62
7
100
AcDbSpline
 70
8
 71
3
 72
8
 73
4
 74
0
 40
0
 40
0
 40
0
 40
0
 40
1
 40
1
 40
1
 40
1
 10
400.230535
 20
98.724575
 30
0.0
 10
400.230535
 20
98.946685
 30
0.0
 10
400.410591
 20
99.126741
 30
0.0
 10
400.632701
 20
99.126741
 30
0.0
  0
SPLINE
  5
1c1
100
AcDbEntity
  8
Laag_1
 62
7
100
AcDbSpline
 70
8
 71
3
 72
8
 73
4
 74
0
 40
0
 40
0
 40
0
 40
0
 40
1
 40
1
 40
1
 40
1
 10
400.632701
 20
99.126741
 30
0.0
 10
400.854812
 20
99.126741
 30
0.0
 10
401.034868
 20
98.946685
 30
0.0
 10
401.034868
 20
98.724575
 30
0.0
  0
LWPOLYLINE
  5
1c2
100
AcDbEntity
  8
Laag_1
 62
7
100
AcDbPolyline
 90
2
 70
0
 10
401.288868
 20
98.724575
 30
0.0
 10
399.955368
 20
98.724575
 30
0.0
  0
LWPOLYLINE
  5
1c3
100
AcDbEntity
  8
Laag_1
 62
7
100
AcDbPolyline
 90
2
 70
1
 10
401.034868
 20
98.724575
 30
0.0
 10
401.034868
 20
98.724575
 30
0.0
  0
SPLINE
  5
1c4
100
AcDbEntity
  8
Laag_1
 62
7
100
AcDbSpline
 70
8
 71
3
 72
8
 73
4
 74
0
 40
0
 40
0
 40
0
 40
0
 40
1
 40
1
 40
1
 40
1
 10
421.333701
 20
117.753408
 30
0.0
 10
421.333701
 20
117.531298
 30
0.0
 10
421.153645
 20
117.351241
 30
0.0
 10
420.931535
 20
117.351241
 30
0.0
  0
SPLINE
  5
1c5
100
AcDbEntity
  8
Laag_1
 62
7
100
AcDbSpline
 70
8
 71
3
 72
8
 73
4
 74
0
 40
0
 40
0
 40
0
 40
0
 40
1
 40
1
 40
1
 40
1
 10
420.931535
 20
117.351241
 30
0.0
 10
420.709424
 20
117.351241
 30
0.0
 10
420.529368
 20
117.531298
 30
0.0
 10
420.529368
 20
117.753408
 30
0.0
  0
SPLINE
  5
1c6
100
AcDbEntity
  8
Laag_1
 62
7
100
AcDbSpline
 70
8
 71
3
 72
8
 73
4
 74
0
 40
0
 40
0
 40
0
 40
0
 40
1
 40
1
 40
1
 40
1
 10
420.529368
 20
117.753408
 30
0.0
 10
420.529368
 20
117.975518
 30
0.0
 10
420.709424
 20
118.155575
 30
0.0
 10
420.931535
 20
118.155575
 30
0.0
  0
SPLINE
  5
1c7
100
AcDbEntity
  8
Laag_1
 62
7
100
AcDbSpline
 70
8
 71
3
 72
8
 73
4
 74
0
 40
0
 40
0
 40
0
 40
0
 40
1
 40
1
 40
1
 40
1
 10
420.931535
 20
118.155575
 30
0.0
 10
421.153645
 20
118.155575
 30
0.0
 10
421.333701
 20
117.975518
 30
0.0
 10
421.333701
 20
117.753408
 30
0.0
  0
LWPOLYLINE
  5
1c8
100
AcDbEntity
  8
Laag_1
 62
7
100
AcDbPolyline
 90
2
 70
0
 10
421.587701
 20
117.753408
 30
0.0
 10
420.275368
 20
117.753408
 30
0.0
  0
LWPOLYLINE
  5
1c9
100
AcDbEntity
  8
Laag_1
 62
7
100
AcDbPolyline
 90
2
 70
1
 10
421.333701
 20
117.753408
 30
0.0
 10
421.333701
 20
117.753408
 30
0.0
  0
SPLINE
  5
1ca
100
AcDbEntity
  8
Laag_1
 62
7
100
AcDbSpline
 70
8
 71
3
 72
8
 73
4
 74
0
 40
0
 40
0
 40
0
 40
0
 40
1
 40
1
 40
1
 40
1
 10
421.333701
 20
120.293408
 30
0.0
 10
421.333701
 20
120.071298
 30
0.0
 10
421.153645
 20
119.891241
 30
0.0
 10
420.931535
 20
119.891241
 30
0.0
  0
SPLINE
  5
1cb
100
AcDbEntity
  8
Laag_1
 62
7
100
AcDbSpline
 70
8
 71
3
 72
8
 73
4
 74
0
 40
0
 40
0
 40
0
 40
0
 40
1
 40
1
 40
1
 40
1
 10
420.931535
 20
119.891241
 30
0.0
 10
420.709424
 20
119.891241
 30
0.0
 10
420.529368
 20
120.071298
 30
0.0
 10
420.529368
 20
120.293408
 30
0.0
  0
SPLINE
  5
1cc
100
AcDbEntity
  8
Laag_1
 62
7
100
AcDbSpline
 70
8
 71
3
 72
8
 73
4
 74
0
 40
0
 40
0
 40
0
 40
0
 40
1
 40
1
 40
1
 40
1
 10
420.529368
 20
120.293408
 30
0.0
 10
420.529368
 20
120.515518
 30
0.0
 10
420.709424
 20
120.695575
 30
0.0
 10
420.931535
 20
120.695575
 30
0.0
  0
SPLINE
  5
1cd
100
AcDbEntity
  8
Laag_1
 62
7
100
AcDbSpline
 70
8
 71
3
 72
8
 73
4
 74
0
 40
0
 40
0
 40
0
 40
0
 40
1
 40
1
 40
1
 40
1
 10
420.931535
 20
120.695575
 30
0.0
 10
421.153645
 20
120.695575
 30
0.0
 10
421.333701
 20
120.515518
 30
0.0
 10
421.333701
 20
120.293408
 30
0.0
  0
LWPOLYLINE
  5
1ce
100
AcDbEntity
  8
Laag_1
 62
7
100
AcDbPolyline
 90
2
 70
0
 10
421.587701
 20
120.293408
 30
0.0
 10
420.275368
 20
120.293408
 30
0.0
  0
LWPOLYLINE
  5
1cf
100
AcDbEntity
  8
Laag_1
 62
7
100
AcDbPolyline
 90
2
 70
1
 10
421.333701
 20
120.293408
 30
0.0
 10
421.333701
 20
120.293408
 30
0.0
  0
SPLINE
  5
1d0
100
AcDbEntity
  8
Laag_1
 62
7
100
AcDbSpline
 70
8
 71
3
 72
8
 73
4
 74
0
 40
0
 40
0
 40
0
 40
0
 40
1
 40
1
 40
1
 40
1
 10
421.333701
 20
130.432241
 30
0.0
 10
421.333701
 20
130.210131
 30
0.0
 10
421.153645
 20
130.030075
 30
0.0
 10
420.931535
 20
130.030075
 30
0.0
  0
SPLINE
  5
1d1
100
AcDbEntity
  8
Laag_1
 62
7
100
AcDbSpline
 70
8
 71
3
 72
8
 73
4
 74
0
 40
0
 40
0
 40
0
 40
0
 40
1
 40
1
 40
1
 40
1
 10
420.931535
 20
130.030075
 30
0.0
 10
420.709424
 20
130.030075
 30
0.0
 10
420.529368
 20
130.210131
 30
0.0
 10
420.529368
 20
130.432241
 30
0.0
  0
SPLINE
  5
1d2
100
AcDbEntity
  8
Laag_1
 62
7
100
AcDbSpline
 70
8
 71
3
 72
8
 73
4
 74
0
 40
0
 40
0
 40
0
 40
0
 40
1
 40
1
 40
1
 40
1
 10
420.529368
 20
130.432241
 30
0.0
 10
420.529368
 20
130.654352
 30
0.0
 10
420.709424
 20
130.834408
 30
0.0
 10
420.931535
 20
130.834408
 30
0.0
  0
SPLINE
  5
1d3
100
AcDbEntity
  8
Laag_1
 62
7
100
AcDbSpline
 70
8
 71
3
 72
8
 73
4
 74
0
 40
0
 40
0
 40
0
 40
0
 40
1
 40
1
 40
1
 40
1
 10
420.931535
 20
130.834408
 30
0.0
 10
421.153645
 20
130.834408
 30
0.0
 10
421.333701
 20
130.654352
 30
0.0
 10
421.333701
 20
130.432241
 30
0.0
  0
LWPOLYLINE
  5
1d4
100
AcDbEntity
  8
Laag_1
 62
7
100
AcDbPolyline
 90
2
 70
0
 10
421.587701
 20
130.432241
 30
0.0
 10
420.275368
 20
130.432241
 30
0.0
  0
LWPOLYLINE
  5
1d5
100
AcDbEntity
  8
Laag_1
 62
7
100
AcDbPolyline
 90
2
 70
1
 10
421.333701
 20
130.432241
 30
0.0
 10
421.333701
 20
130.432241
 30
0.0
  0
SPLINE
  5
1d6
100
AcDbEntity
  8
Laag_1
 62
7
100
AcDbSpline
 70
8
 71
3
 72
8
 73
4
 74
0
 40
0
 40
0
 40
0
 40
0
 40
1
 40
1
 40
1
 40
1
 10
421.333701
 20
132.972241
 30
0.0
 10
421.333701
 20
132.750131
 30
0.0
 10
421.153645
 20
132.570075
 30
0.0
 10
420.931535
 20
132.570075
 30
0.0
  0
SPLINE
  5
1d7
100
AcDbEntity
  8
Laag_1
 62
7
100
AcDbSpline
 70
8
 71
3
 72
8
 73
4
 74
0
 40
0
 40
0
 40
0
 40
0
 40
1
 40
1
 40
1
 40
1
 10
420.931535
 20
132.570075
 30
0.0
 10
420.709424
 20
132.570075
 30
0.0
 10
420.529368
 20
132.750131
 30
0.0
 10
420.529368
 20
132.972241
 30
0.0
  0
SPLINE
  5
1d8
100
AcDbEntity
  8
Laag_1
 62
7
100
AcDbSpline
 70
8
 71
3
 72
8
 73
4
 74
0
 40
0
 40
0
 40
0
 40
0
 40
1
 40
1
 40
1
 40
1
 10
420.529368
 20
132.972241
 30
0.0
 10
420.529368
 20
133.194352
 30
0.0
 10
420.709424
 20
133.374408
 30
0.0
 10
420.931535
 20
133.374408
 30
0.0
  0
SPLINE
  5
1d9
100
AcDbEntity
  8
Laag_1
 62
7
100
AcDbSpline
 70
8
 71
3
 72
8
 73
4
 74
0
 40
0
 40
0
 40
0
 40
0
 40
1
 40
1
 40
1
 40
1
 10
420.931535
 20
133.374408
 30
0.0
 10
421.153645
 20
133.374408
 30
0.0
 10
421.333701
 20
133.194352
 30
0.0
 10
421.333701
 20
132.972241
 30
0.0
  0
LWPOLYLINE
  5
1da
100
AcDbEntity
  8
Laag_1
 62
7
100
AcDbPolyline
 90
2
 70
0
 10
421.587701
 20
132.972241
 30
0.0
 10
420.275368
 20
132.972241
 30
0.0
  0
LWPOLYLINE
  5
1db
100
AcDbEntity
  8
Laag_1
 62
7
100
AcDbPolyline
 90
2
 70
1
 10
421.333701
 20
132.972241
 30
0.0
 10
421.333701
 20
132.972241
 30
0.0
  0
SPLINE
  5
1dc
100
AcDbEntity
  8
Laag_1
 62
7
100
AcDbSpline
 70
8
 71
3
 72
8
 73
4
 74
0
 40
0
 40
0
 40
0
 40
0
 40
1
 40
1
 40
1
 40
1
 10
413.713701
 20
132.972241
 30
0.0
 10
413.713701
 20
132.750131
 30
0.0
 10
413.533645
 20
132.570075
 30
0.0
 10
413.311535
 20
132.570075
 30
0.0
  0
SPLINE
  5
1dd
100
AcDbEntity
  8
Laag_1
 62
7
100
AcDbSpline
 70
8
 71
3
 72
8
 73
4
 74
0
 40
0
 40
0
 40
0
 40
0
 40
1
 40
1
 40
1
 40
1
 10
413.311535
 20
132.570075
 30
0.0
 10
413.089424
 20
132.570075
 30
0.0
 10
412.909368
 20
132.750131
 30
0.0
 10
412.909368
 20
132.972241
 30
0.0
  0
SPLINE
  5
1de
100
AcDbEntity
  8
Laag_1
 62
7
100
AcDbSpline
 70
8
 71
3
 72
8
 73
4
 74
0
 40
0
 40
0
 40
0
 40
0
 40
1
 40
1
 40
1
 40
1
 10
412.909368
 20
132.972241
 30
0.0
 10
412.909368
 20
133.194352
 30
0.0
 10
413.089424
 20
133.374408
 30
0.0
 10
413.311535
 20
133.374408
 30
0.0
  0
SPLINE
  5
1df
100
AcDbEntity
  8
Laag_1
 62
7
100
AcDbSpline
 70
8
 71
3
 72
8
 73
4
 74
0
 40
0
 40
0
 40
0
 40
0
 40
1
 40
1
 40
1
 40
1
 10
413.311535
 20
133.374408
 30
0.0
 10
413.533645
 20
133.374408
 30
0.0
 10
413.713701
 20
133.194352
 30
0.0
 10
413.713701
 20
132.972241
 30
0.0
  0
LWPOLYLINE
  5
1e0
100
AcDbEntity
  8
Laag_1
 62
7
100
AcDbPolyline
 90
2
 70
0
 10
413.988868
 20
132.972241
 30
0.0
 10
412.655368
 20
132.972241
 30
0.0
  0
LWPOLYLINE
  5
1e1
100
AcDbEntity
  8
Laag_1
 62
7
100
AcDbPolyline
 90
2
 70
1
 10
413.713701
 20
132.972241
 30
0.0
 10
413.713701
 20
132.972241
 30
0.0
  0
SPLINE
  5
1e2
100
AcDbEntity
  8
Laag_1
 62
7
100
AcDbSpline
 70
8
 71
3
 72
8
 73
4
 74
0
 40
0
 40
0
 40
0
 40
0
 40
1
 40
1
 40
1
 40
1
 10
413.713701
 20
130.432241
 30
0.0
 10
413.713701
 20
130.210131
 30
0.0
 10
413.533645
 20
130.030075
 30
0.0
 10
413.311535
 20
130.030075
 30
0.0
  0
SPLINE
  5
1e3
100
AcDbEntity
  8
Laag_1
 62
7
100
AcDbSpline
 70
8
 71
3
 72
8
 73
4
 74
0
 40
0
 40
0
 40
0
 40
0
 40
1
 40
1
 40
1
 40
1
 10
413.311535
 20
130.030075
 30
0.0
 10
413.089424
 20
130.030075
 30
0.0
 10
412.909368
 20
130.210131
 30
0.0
 10
412.909368
 20
130.432241
 30
0.0
  0
SPLINE
  5
1e4
100
AcDbEntity
  8
Laag_1
 62
7
100
AcDbSpline
 70
8
 71
3
 72
8
 73
4
 74
0
 40
0
 40
0
 40
0
 40
0
 40
1
 40
1
 40
1
 40
1
 10
412.909368
 20
130.432241
 30
0.0
 10
412.909368
 20
130.654352
 30
0.0
 10
413.089424
 20
130.834408
 30
0.0
 10
413.311535
 20
130.834408
 30
0.0
  0
SPLINE
  5
1e5
100
AcDbEntity
  8
Laag_1
 62
7
100
AcDbSpline
 70
8
 71
3
 72
8
 73
4
 74
0
 40
0
 40
0
 40
0
 40
0
 40
1
 40
1
 40
1
 40
1
 10
413.311535
 20
130.834408
 30
0.0
 10
413.533645
 20
130.834408
 30
0.0
 10
413.713701
 20
130.654352
 30
0.0
 10
413.713701
 20
130.432241
 30
0.0
  0
LWPOLYLINE
  5
1e6
100
AcDbEntity
  8
Laag_1
 62
7
100
AcDbPolyline
 90
2
 70
0
 10
413.988868
 20
130.432241
 30
0.0
 10
412.655368
 20
130.432241
 30
0.0
  0
LWPOLYLINE
  5
1e7
100
AcDbEntity
  8
Laag_1
 62
7
100
AcDbPolyline
 90
2
 70
1
 10
413.713701
 20
130.432241
 30
0.0
 10
413.713701
 20
130.432241
 30
0.0
  0
SPLINE
  5
1e8
100
AcDbEntity
  8
Laag_1
 62
7
100
AcDbSpline
 70
8
 71
3
 72
8
 73
4
 74
0
 40
0
 40
0
 40
0
 40
0
 40
1
 40
1
 40
1
 40
1
 10
413.713701
 20
120.293408
 30
0.0
 10
413.713701
 20
120.071298
 30
0.0
 10
413.533645
 20
119.891241
 30
0.0
 10
413.311535
 20
119.891241
 30
0.0
  0
SPLINE
  5
1e9
100
AcDbEntity
  8
Laag_1
 62
7
100
AcDbSpline
 70
8
 71
3
 72
8
 73
4
 74
0
 40
0
 40
0
 40
0
 40
0
 40
1
 40
1
 40
1
 40
1
 10
413.311535
 20
119.891241
 30
0.0
 10
413.089424
 20
119.891241
 30
0.0
 10
412.909368
 20
120.071298
 30
0.0
 10
412.909368
 20
120.293408
 30
0.0
  0
SPLINE
  5
1ea
100
AcDbEntity
  8
Laag_1
 62
7
100
AcDbSpline
 70
8
 71
3
 72
8
 73
4
 74
0
 40
0
 40
0
 40
0
 40
0
 40
1
 40
1
 40
1
 40
1
 10
412.909368
 20
120.293408
 30
0.0
 10
412.909368
 20
120.515518
 30
0.0
 10
413.089424
 20
120.695575
 30
0.0
 10
413.311535
 20
120.695575
 30
0.0
  0
SPLINE
  5
1eb
100
AcDbEntity
  8
Laag_1
 62
7
100
AcDbSpline
 70
8
 71
3
 72
8
 73
4
 74
0
 40
0
 40
0
 40
0
 40
0
 40
1
 40
1
 40
1
 40
1
 10
413.311535
 20
120.695575
 30
0.0
 10
413.533645
 20
120.695575
 30
0.0
 10
413.713701
 20
120.515518
 30
0.0
 10
413.713701
 20
120.293408
 30
0.0
  0
LWPOLYLINE
  5
1ec
100
AcDbEntity
  8
Laag_1
 62
7
100
AcDbPolyline
 90
2
 70
0
 10
413.988868
 20
120.293408
 30
0.0
 10
412.655368
 20
120.293408
 30
0.0
  0
LWPOLYLINE
  5
1ed
100
AcDbEntity
  8
Laag_1
 62
7
100
AcDbPolyline
 90
2
 70
1
 10
413.713701
 20
120.293408
 30
0.0
 10
413.713701
 20
120.293408
 30
0.0
  0
SPLINE
  5
1ee
100
AcDbEntity
  8
Laag_1
 62
7
100
AcDbSpline
 70
8
 71
3
 72
8
 73
4
 74
0
 40
0
 40
0
 40
0
 40
0
 40
1
 40
1
 40
1
 40
1
 10
413.713701
 20
117.753408
 30
0.0
 10
413.713701
 20
117.531298
 30
0.0
 10
413.533645
 20
117.351241
 30
0.0
 10
413.311535
 20
117.351241
 30
0.0
  0
SPLINE
  5
1ef
100
AcDbEntity
  8
Laag_1
 62
7
100
AcDbSpline
 70
8
 71
3
 72
8
 73
4
 74
0
 40
0
 40
0
 40
0
 40
0
 40
1
 40
1
 40
1
 40
1
 10
413.311535
 20
117.351241
 30
0.0
 10
413.089424
 20
117.351241
 30
0.0
 10
412.909368
 20
117.531298
 30
0.0
 10
412.909368
 20
117.753408
 30
0.0
  0
SPLINE
  5
1f0
100
AcDbEntity
  8
Laag_1
 62
7
100
AcDbSpline
 70
8
 71
3
 72
8
 73
4
 74
0
 40
0
 40
0
 40
0
 40
0
 40
1
 40
1
 40
1
 40
1
 10
412.909368
 20
117.753408
 30
0.0
 10
412.909368
 20
117.975518
 30
0.0
 10
413.089424
 20
118.155575
 30
0.0
 10
413.311535
 20
118.155575
 30
0.0
  0
SPLINE
  5
1f1
100
AcDbEntity
  8
Laag_1
 62
7
100
AcDbSpline
 70
8
 71
3
 72
8
 73
4
 74
0
 40
0
 40
0
 40
0
 40
0
 40
1
 40
1
 40
1
 40
1
 10
413.311535
 20
118.155575
 30
0.0
 10
413.533645
 20
118.155575
 30
0.0
 10
413.713701
 20
117.975518
 30
0.0
 10
413.713701
 20
117.753408
 30
0.0
  0
LWPOLYLINE
  5
1f2
100
AcDbEntity
  8
Laag_1
 62
7
100
AcDbPolyline
 90
2
 70
0
 10
413.988868
 20
117.753408
 30
0.0
 10
412.655368
 20
117.753408
 30
0.0
  0
LWPOLYLINE
  5
1f3
100
AcDbEntity
  8
Laag_1
 62
7
100
AcDbPolyline
 90
2
 70
1
 10
413.713701
 20
117.753408
 30
0.0
 10
413.713701
 20
117.753408
 30
0.0
  0
SPLINE
  5
1f4
100
AcDbEntity
  8
Laag_1
 62
7
100
AcDbSpline
 70
8
 71
3
 72
8
 73
4
 74
0
 40
0
 40
0
 40
0
 40
0
 40
1
 40
1
 40
1
 40
1
 10
395.954868
 20
134.242241
 30
0.0
 10
395.954868
 20
134.020131
 30
0.0
 10
395.774812
 20
133.840075
 30
0.0
 10
395.552701
 20
133.840075
 30
0.0
  0
SPLINE
  5
1f5
100
AcDbEntity
  8
Laag_1
 62
7
100
AcDbSpline
 70
8
 71
3
 72
8
 73
4
 74
0
 40
0
 40
0
 40
0
 40
0
 40
1
 40
1
 40
1
 40
1
 10
395.552701
 20
133.840075
 30
0.0
 10
395.330591
 20
133.840075
 30
0.0
 10
395.150535
 20
134.020131
 30
0.0
 10
395.150535
 20
134.242241
 30
0.0
  0
SPLINE
  5
1f6
100
AcDbEntity
  8
Laag_1
 62
7
100
AcDbSpline
 70
8
 71
3
 72
8
 73
4
 74
0
 40
0
 40
0
 40
0
 40
0
 40
1
 40
1
 40
1
 40
1
 10
395.150535
 20
134.242241
 30
0.0
 10
395.150535
 20
134.464352
 30
0.0
 10
395.330591
 20
134.644408
 30
0.0
 10
395.552701
 20
134.644408
 30
0.0
  0
SPLINE
  5
1f7
100
AcDbEntity
  8
Laag_1
 62
7
100
AcDbSpline
 70
8
 71
3
 72
8
 73
4
 74
0
 40
0
 40
0
 40
0
 40
0
 40
1
 40
1
 40
1
 40
1
 10
395.552701
 20
134.644408
 30
0.0
 10
395.774812
 20
134.644408
 30
0.0
 10
395.954868
 20
134.464352
 30
0.0
 10
395.954868
 20
134.242241
 30
0.0
  0
LWPOLYLINE
  5
1f8
100
AcDbEntity
  8
Laag_1
 62
7
100
AcDbPolyline
 90
2
 70
0
 10
395.552701
 20
133.586075
 30
0.0
 10
395.552701
 20
134.919575
 30
0.0
  0
LWPOLYLINE
  5
1f9
100
AcDbEntity
  8
Laag_1
 62
7
100
AcDbPolyline
 90
2
 70
1
 10
395.954868
 20
134.242241
 30
0.0
 10
395.954868
 20
134.242241
 30
0.0
  0
SPLINE
  5
1fa
100
AcDbEntity
  8
Laag_1
 62
7
100
AcDbSpline
 70
8
 71
3
 72
8
 73
4
 74
0
 40
0
 40
0
 40
0
 40
0
 40
1
 40
1
 40
1
 40
1
 10
398.494868
 20
134.242241
 30
0.0
 10
398.494868
 20
134.020131
 30
0.0
 10
398.314812
 20
133.840075
 30
0.0
 10
398.092701
 20
133.840075
 30
0.0
  0
SPLINE
  5
1fb
100
AcDbEntity
  8
Laag_1
 62
7
100
AcDbSpline
 70
8
 71
3
 72
8
 73
4
 74
0
 40
0
 40
0
 40
0
 40
0
 40
1
 40
1
 40
1
 40
1
 10
398.092701
 20
133.840075
 30
0.0
 10
397.870591
 20
133.840075
 30
0.0
 10
397.690535
 20
134.020131
 30
0.0
 10
397.690535
 20
134.242241
 30
0.0
  0
SPLINE
  5
1fc
100
AcDbEntity
  8
Laag_1
 62
7
100
AcDbSpline
 70
8
 71
3
 72
8
 73
4
 74
0
 40
0
 40
0
 40
0
 40
0
 40
1
 40
1
 40
1
 40
1
 10
397.690535
 20
134.242241
 30
0.0
 10
397.690535
 20
134.464352
 30
0.0
 10
397.870591
 20
134.644408
 30
0.0
 10
398.092701
 20
134.644408
 30
0.0
  0
SPLINE
  5
1fd
100
AcDbEntity
  8
Laag_1
 62
7
100
AcDbSpline
 70
8
 71
3
 72
8
 73
4
 74
0
 40
0
 40
0
 40
0
 40
0
 40
1
 40
1
 40
1
 40
1
 10
398.092701
 20
134.644408
 30
0.0
 10
398.314812
 20
134.644408
 30
0.0
 10
398.494868
 20
134.464352
 30
0.0
 10
398.494868
 20
134.242241
 30
0.0
  0
LWPOLYLINE
  5
1fe
100
AcDbEntity
  8
Laag_1
 62
7
100
AcDbPolyline
 90
2
 70
0
 10
398.092701
 20
133.586075
 30
0.0
 10
398.092701
 20
134.919575
 30
0.0
  0
LWPOLYLINE
  5
1ff
100
AcDbEntity
  8
Laag_1
 62
7
100
AcDbPolyline
 90
2
 70
1
 10
398.494868
 20
134.242241
 30
0.0
 10
398.494868
 20
134.242241
 30
0.0
  0
SPLINE
  5
200
100
AcDbEntity
  8
Laag_1
 62
7
100
AcDbSpline
 70
8
 71
3
 72
8
 73
4
 74
0
 40
0
 40
0
 40
0
 40
0
 40
1
 40
1
 40
1
 40
1
 10
408.633701
 20
134.242241
 30
0.0
 10
408.633701
 20
134.020131
 30
0.0
 10
408.453645
 20
133.840075
 30
0.0
 10
408.231535
 20
133.840075
 30
0.0
  0
SPLINE
  5
201
100
AcDbEntity
  8
Laag_1
 62
7
100
AcDbSpline
 70
8
 71
3
 72
8
 73
4
 74
0
 40
0
 40
0
 40
0
 40
0
 40
1
 40
1
 40
1
 40
1
 10
408.231535
 20
133.840075
 30
0.0
 10
408.009424
 20
133.840075
 30
0.0
 10
407.829368
 20
134.020131
 30
0.0
 10
407.829368
 20
134.242241
 30
0.0
  0
SPLINE
  5
202
100
AcDbEntity
  8
Laag_1
 62
7
100
AcDbSpline
 70
8
 71
3
 72
8
 73
4
 74
0
 40
0
 40
0
 40
0
 40
0
 40
1
 40
1
 40
1
 40
1
 10
407.829368
 20
134.242241
 30
0.0
 10
407.829368
 20
134.464352
 30
0.0
 10
408.009424
 20
134.644408
 30
0.0
 10
408.231535
 20
134.644408
 30
0.0
  0
SPLINE
  5
203
100
AcDbEntity
  8
Laag_1
 62
7
100
AcDbSpline
 70
8
 71
3
 72
8
 73
4
 74
0
 40
0
 40
0
 40
0
 40
0
 40
1
 40
1
 40
1
 40
1
 10
408.231535
 20
134.644408
 30
0.0
 10
408.453645
 20
134.644408
 30
0.0
 10
408.633701
 20
134.464352
 30
0.0
 10
408.633701
 20
134.242241
 30
0.0
  0
LWPOLYLINE
  5
204
100
AcDbEntity
  8
Laag_1
 62
7
100
AcDbPolyline
 90
2
 70
0
 10
408.231535
 20
133.586075
 30
0.0
 10
408.231535
 20
134.919575
 30
0.0
  0
LWPOLYLINE
  5
205
100
AcDbEntity
  8
Laag_1
 62
7
100
AcDbPolyline
 90
2
 70
1
 10
408.633701
 20
134.242241
 30
0.0
 10
408.633701
 20
134.242241
 30
0.0
  0
SPLINE
  5
206
100
AcDbEntity
  8
Laag_1
 62
7
100
AcDbSpline
 70
8
 71
3
 72
8
 73
4
 74
0
 40
0
 40
0
 40
0
 40
0
 40
1
 40
1
 40
1
 40
1
 10
411.173701
 20
134.242241
 30
0.0
 10
411.173701
 20
134.020131
 30
0.0
 10
410.993645
 20
133.840075
 30
0.0
 10
410.771535
 20
133.840075
 30
0.0
  0
SPLINE
  5
207
100
AcDbEntity
  8
Laag_1
 62
7
100
AcDbSpline
 70
8
 71
3
 72
8
 73
4
 74
0
 40
0
 40
0
 40
0
 40
0
 40
1
 40
1
 40
1
 40
1
 10
410.771535
 20
133.840075
 30
0.0
 10
410.549424
 20
133.840075
 30
0.0
 10
410.369368
 20
134.020131
 30
0.0
 10
410.369368
 20
134.242241
 30
0.0
  0
SPLINE
  5
208
100
AcDbEntity
  8
Laag_1
 62
7
100
AcDbSpline
 70
8
 71
3
 72
8
 73
4
 74
0
 40
0
 40
0
 40
0
 40
0
 40
1
 40
1
 40
1
 40
1
 10
410.369368
 20
134.242241
 30
0.0
 10
410.369368
 20
134.464352
 30
0.0
 10
410.549424
 20
134.644408
 30
0.0
 10
410.771535
 20
134.644408
 30
0.0
  0
SPLINE
  5
209
100
AcDbEntity
  8
Laag_1
 62
7
100
AcDbSpline
 70
8
 71
3
 72
8
 73
4
 74
0
 40
0
 40
0
 40
0
 40
0
 40
1
 40
1
 40
1
 40
1
 10
410.771535
 20
134.644408
 30
0.0
 10
410.993645
 20
134.644408
 30
0.0
 10
411.173701
 20
134.464352
 30
0.0
 10
411.173701
 20
134.242241
 30
0.0
  0
LWPOLYLINE
  5
20a
100
AcDbEntity
  8
Laag_1
 62
7
100
AcDbPolyline
 90
2
 70
0
 10
410.771535
 20
133.586075
 30
0.0
 10
410.771535
 20
134.919575
 30
0.0
  0
LWPOLYLINE
  5
20b
100
AcDbEntity
  8
Laag_1
 62
7
100
AcDbPolyline
 90
2
 70
1
 10
411.173701
 20
134.242241
 30
0.0
 10
411.173701
 20
134.242241
 30
0.0
  0
SPLINE
  5
20c
100
AcDbEntity
  8
Laag_1
 62
7
100
AcDbSpline
 70
8
 71
3
 72
8
 73
4
 74
0
 40
0
 40
0
 40
0
 40
0
 40
1
 40
1
 40
1
 40
1
 10
411.173701
 20
141.862241
 30
0.0
 10
411.173701
 20
141.640131
 30
0.0
 10
410.993645
 20
141.460075
 30
0.0
 10
410.771535
 20
141.460075
 30
0.0
  0
SPLINE
  5
20d
100
AcDbEntity
  8
Laag_1
 62
7
100
AcDbSpline
 70
8
 71
3
 72
8
 73
4
 74
0
 40
0
 40
0
 40
0
 40
0
 40
1
 40
1
 40
1
 40
1
 10
410.771535
 20
141.460075
 30
0.0
 10
410.549424
 20
141.460075
 30
0.0
 10
410.369368
 20
141.640131
 30
0.0
 10
410.369368
 20
141.862241
 30
0.0
  0
SPLINE
  5
20e
100
AcDbEntity
  8
Laag_1
 62
7
100
AcDbSpline
 70
8
 71
3
 72
8
 73
4
 74
0
 40
0
 40
0
 40
0
 40
0
 40
1
 40
1
 40
1
 40
1
 10
410.369368
 20
141.862241
 30
0.0
 10
410.369368
 20
142.084352
 30
0.0
 10
410.549424
 20
142.264408
 30
0.0
 10
410.771535
 20
142.264408
 30
0.0
  0
SPLINE
  5
20f
100
AcDbEntity
  8
Laag_1
 62
7
100
AcDbSpline
 70
8
 71
3
 72
8
 73
4
 74
0
 40
0
 40
0
 40
0
 40
0
 40
1
 40
1
 40
1
 40
1
 10
410.771535
 20
142.264408
 30
0.0
 10
410.993645
 20
142.264408
 30
0.0
 10
411.173701
 20
142.084352
 30
0.0
 10
411.173701
 20
141.862241
 30
0.0
  0
LWPOLYLINE
  5
210
100
AcDbEntity
  8
Laag_1
 62
7
100
AcDbPolyline
 90
2
 70
0
 10
410.771535
 20
141.206075
 30
0.0
 10
410.771535
 20
142.518408
 30
0.0
  0
LWPOLYLINE
  5
211
100
AcDbEntity
  8
Laag_1
 62
7
100
AcDbPolyline
 90
2
 70
1
 10
411.173701
 20
141.862241
 30
0.0
 10
411.173701
 20
141.862241
 30
0.0
  0
SPLINE
  5
212
100
AcDbEntity
  8
Laag_1
 62
7
100
AcDbSpline
 70
8
 71
3
 72
8
 73
4
 74
0
 40
0
 40
0
 40
0
 40
0
 40
1
 40
1
 40
1
 40
1
 10
408.633701
 20
141.862241
 30
0.0
 10
408.633701
 20
141.640131
 30
0.0
 10
408.453645
 20
141.460075
 30
0.0
 10
408.231535
 20
141.460075
 30
0.0
  0
SPLINE
  5
213
100
AcDbEntity
  8
Laag_1
 62
7
100
AcDbSpline
 70
8
 71
3
 72
8
 73
4
 74
0
 40
0
 40
0
 40
0
 40
0
 40
1
 40
1
 40
1
 40
1
 10
408.231535
 20
141.460075
 30
0.0
 10
408.009424
 20
141.460075
 30
0.0
 10
407.829368
 20
141.640131
 30
0.0
 10
407.829368
 20
141.862241
 30
0.0
  0
SPLINE
  5
214
100
AcDbEntity
  8
Laag_1
 62
7
100
AcDbSpline
 70
8
 71
3
 72
8
 73
4
 74
0
 40
0
 40
0
 40
0
 40
0
 40
1
 40
1
 40
1
 40
1
 10
407.829368
 20
141.862241
 30
0.0
 10
407.829368
 20
142.084352
 30
0.0
 10
408.009424
 20
142.264408
 30
0.0
 10
408.231535
 20
142.264408
 30
0.0
  0
SPLINE
  5
215
100
AcDbEntity
  8
Laag_1
 62
7
100
AcDbSpline
 70
8
 71
3
 72
8
 73
4
 74
0
 40
0
 40
0
 40
0
 40
0
 40
1
 40
1
 40
1
 40
1
 10
408.231535
 20
142.264408
 30
0.0
 10
408.453645
 20
142.264408
 30
0.0
 10
408.633701
 20
142.084352
 30
0.0
 10
408.633701
 20
141.862241
 30
0.0
  0
LWPOLYLINE
  5
216
100
AcDbEntity
  8
Laag_1
 62
7
100
AcDbPolyline
 90
2
 70
0
 10
408.231535
 20
141.206075
 30
0.0
 10
408.231535
 20
142.518408
 30
0.0
  0
LWPOLYLINE
  5
217
100
AcDbEntity
  8
Laag_1
 62
7
100
AcDbPolyline
 90
2
 70
1
 10
408.633701
 20
141.862241
 30
0.0
 10
408.633701
 20
141.862241
 30
0.0
  0
SPLINE
  5
218
100
AcDbEntity
  8
Laag_1
 62
7
100
AcDbSpline
 70
8
 71
3
 72
8
 73
4
 74
0
 40
0
 40
0
 40
0
 40
0
 40
1
 40
1
 40
1
 40
1
 10
398.494868
 20
141.862241
 30
0.0
 10
398.494868
 20
141.640131
 30
0.0
 10
398.314812
 20
141.460075
 30
0.0
 10
398.092701
 20
141.460075
 30
0.0
  0
SPLINE
  5
219
100
AcDbEntity
  8
Laag_1
 62
7
100
AcDbSpline
 70
8
 71
3
 72
8
 73
4
 74
0
 40
0
 40
0
 40
0
 40
0
 40
1
 40
1
 40
1
 40
1
 10
398.092701
 20
141.460075
 30
0.0
 10
397.870591
 20
141.460075
 30
0.0
 10
397.690535
 20
141.640131
 30
0.0
 10
397.690535
 20
141.862241
 30
0.0
  0
SPLINE
  5
21a
100
AcDbEntity
  8
Laag_1
 62
7
100
AcDbSpline
 70
8
 71
3
 72
8
 73
4
 74
0
 40
0
 40
0
 40
0
 40
0
 40
1
 40
1
 40
1
 40
1
 10
397.690535
 20
141.862241
 30
0.0
 10
397.690535
 20
142.084352
 30
0.0
 10
397.870591
 20
142.264408
 30
0.0
 10
398.092701
 20
142.264408
 30
0.0
  0
SPLINE
  5
21b
100
AcDbEntity
  8
Laag_1
 62
7
100
AcDbSpline
 70
8
 71
3
 72
8
 73
4
 74
0
 40
0
 40
0
 40
0
 40
0
 40
1
 40
1
 40
1
 40
1
 10
398.092701
 20
142.264408
 30
0.0
 10
398.314812
 20
142.264408
 30
0.0
 10
398.494868
 20
142.084352
 30
0.0
 10
398.494868
 20
141.862241
 30
0.0
  0
LWPOLYLINE
  5
21c
100
AcDbEntity
  8
Laag_1
 62
7
100
AcDbPolyline
 90
2
 70
0
 10
398.092701
 20
141.206075
 30
0.0
 10
398.092701
 20
142.518408
 30
0.0
  0
LWPOLYLINE
  5
21d
100
AcDbEntity
  8
Laag_1
 62
7
100
AcDbPolyline
 90
2
 70
1
 10
398.494868
 20
141.862241
 30
0.0
 10
398.494868
 20
141.862241
 30
0.0
  0
SPLINE
  5
21e
100
AcDbEntity
  8
Laag_1
 62
7
100
AcDbSpline
 70
8
 71
3
 72
8
 73
4
 74
0
 40
0
 40
0
 40
0
 40
0
 40
1
 40
1
 40
1
 40
1
 10
395.954868
 20
141.862241
 30
0.0
 10
395.954868
 20
141.640131
 30
0.0
 10
395.774812
 20
141.460075
 30
0.0
 10
395.552701
 20
141.460075
 30
0.0
  0
SPLINE
  5
21f
100
AcDbEntity
  8
Laag_1
 62
7
100
AcDbSpline
 70
8
 71
3
 72
8
 73
4
 74
0
 40
0
 40
0
 40
0
 40
0
 40
1
 40
1
 40
1
 40
1
 10
395.552701
 20
141.460075
 30
0.0
 10
395.330591
 20
141.460075
 30
0.0
 10
395.150535
 20
141.640131
 30
0.0
 10
395.150535
 20
141.862241
 30
0.0
  0
SPLINE
  5
220
100
AcDbEntity
  8
Laag_1
 62
7
100
AcDbSpline
 70
8
 71
3
 72
8
 73
4
 74
0
 40
0
 40
0
 40
0
 40
0
 40
1
 40
1
 40
1
 40
1
 10
395.150535
 20
141.862241
 30
0.0
 10
395.150535
 20
142.084352
 30
0.0
 10
395.330591
 20
142.264408
 30
0.0
 10
395.552701
 20
142.264408
 30
0.0
  0
SPLINE
  5
221
100
AcDbEntity
  8
Laag_1
 62
7
100
AcDbSpline
 70
8
 71
3
 72
8
 73
4
 74
0
 40
0
 40
0
 40
0
 40
0
 40
1
 40
1
 40
1
 40
1
 10
395.552701
 20
142.264408
 30
0.0
 10
395.774812
 20
142.264408
 30
0.0
 10
395.954868
 20
142.084352
 30
0.0
 10
395.954868
 20
141.862241
 30
0.0
  0
LWPOLYLINE
  5
222
100
AcDbEntity
  8
Laag_1
 62
7
100
AcDbPolyline
 90
2
 70
0
 10
395.552701
 20
141.206075
 30
0.0
 10
395.552701
 20
142.518408
 30
0.0
  0
LWPOLYLINE
  5
223
100
AcDbEntity
  8
Laag_1
 62
7
100
AcDbPolyline
 90
2
 70
1
 10
395.954868
 20
141.862241
 30
0.0
 10
395.954868
 20
141.862241
 30
0.0
  0
SPLINE
  5
224
100
AcDbEntity
  8
Laag_1
 62
7
100
AcDbSpline
 70
8
 71
3
 72
8
 73
4
 74
0
 40
0
 40
0
 40
0
 40
0
 40
1
 40
1
 40
1
 40
1
 10
451.051701
 20
94.660575
 30
0.0
 10
451.051701
 20
94.438464
 30
0.0
 10
450.871645
 20
94.258408
 30
0.0
 10
450.649535
 20
94.258408
 30
0.0
  0
SPLINE
  5
225
100
AcDbEntity
  8
Laag_1
 62
7
100
AcDbSpline
 70
8
 71
3
 72
8
 73
4
 74
0
 40
0
 40
0
 40
0
 40
0
 40
1
 40
1
 40
1
 40
1
 10
450.649535
 20
94.258408
 30
0.0
 10
450.427424
 20
94.258408
 30
0.0
 10
450.247368
 20
94.438464
 30
0.0
 10
450.247368
 20
94.660575
 30
0.0
  0
SPLINE
  5
226
100
AcDbEntity
  8
Laag_1
 62
7
100
AcDbSpline
 70
8
 71
3
 72
8
 73
4
 74
0
 40
0
 40
0
 40
0
 40
0
 40
1
 40
1
 40
1
 40
1
 10
450.247368
 20
94.660575
 30
0.0
 10
450.247368
 20
94.882685
 30
0.0
 10
450.427424
 20
95.062741
 30
0.0
 10
450.649535
 20
95.062741
 30
0.0
  0
SPLINE
  5
227
100
AcDbEntity
  8
Laag_1
 62
7
100
AcDbSpline
 70
8
 71
3
 72
8
 73
4
 74
0
 40
0
 40
0
 40
0
 40
0
 40
1
 40
1
 40
1
 40
1
 10
450.649535
 20
95.062741
 30
0.0
 10
450.871645
 20
95.062741
 30
0.0
 10
451.051701
 20
94.882685
 30
0.0
 10
451.051701
 20
94.660575
 30
0.0
  0
LWPOLYLINE
  5
228
100
AcDbEntity
  8
Laag_1
 62
7
100
AcDbPolyline
 90
10
 70
1
 10
451.305701
 20
94.385408
 30
0.0
 10
450.924701
 20
94.004408
 30
0.0
 10
450.374368
 20
94.004408
 30
0.0
 10
449.993368
 20
94.385408
 30
0.0
 10
449.993368
 20
94.935741
 30
0.0
 10
450.374368
 20
95.316741
 30
0.0
 10
450.924701
 20
95.316741
 30
0.0
 10
451.305701
 20
94.935741
 30
0.0
 10
451.305701
 20
94.385408
 30
0.0
 10
451.305701
 20
94.385408
 30
0.0
  0
LWPOLYLINE
  5
229
100
AcDbEntity
  8
Laag_1
 62
7
100
AcDbPolyline
 90
2
 70
1
 10
451.051701
 20
94.660575
 30
0.0
 10
451.051701
 20
94.660575
 30
0.0
  0
SPLINE
  5
22a
100
AcDbEntity
  8
Laag_1
 62
7
100
AcDbSpline
 70
8
 71
3
 72
8
 73
4
 74
0
 40
0
 40
0
 40
0
 40
0
 40
1
 40
1
 40
1
 40
1
 10
451.051701
 20
107.339408
 30
0.0
 10
451.051701
 20
107.117298
 30
0.0
 10
450.871645
 20
106.937241
 30
0.0
 10
450.649535
 20
106.937241
 30
0.0
  0
SPLINE
  5
22b
100
AcDbEntity
  8
Laag_1
 62
7
100
AcDbSpline
 70
8
 71
3
 72
8
 73
4
 74
0
 40
0
 40
0
 40
0
 40
0
 40
1
 40
1
 40
1
 40
1
 10
450.649535
 20
106.937241
 30
0.0
 10
450.427424
 20
106.937241
 30
0.0
 10
450.247368
 20
107.117298
 30
0.0
 10
450.247368
 20
107.339408
 30
0.0
  0
SPLINE
  5
22c
100
AcDbEntity
  8
Laag_1
 62
7
100
AcDbSpline
 70
8
 71
3
 72
8
 73
4
 74
0
 40
0
 40
0
 40
0
 40
0
 40
1
 40
1
 40
1
 40
1
 10
450.247368
 20
107.339408
 30
0.0
 10
450.247368
 20
107.561518
 30
0.0
 10
450.427424
 20
107.741575
 30
0.0
 10
450.649535
 20
107.741575
 30
0.0
  0
SPLINE
  5
22d
100
AcDbEntity
  8
Laag_1
 62
7
100
AcDbSpline
 70
8
 71
3
 72
8
 73
4
 74
0
 40
0
 40
0
 40
0
 40
0
 40
1
 40
1
 40
1
 40
1
 10
450.649535
 20
107.741575
 30
0.0
 10
450.871645
 20
107.741575
 30
0.0
 10
451.051701
 20
107.561518
 30
0.0
 10
451.051701
 20
107.339408
 30
0.0
  0
LWPOLYLINE
  5
22e
100
AcDbEntity
  8
Laag_1
 62
7
100
AcDbPolyline
 90
10
 70
1
 10
451.305701
 20
107.064241
 30
0.0
 10
450.924701
 20
106.683241
 30
0.0
 10
450.374368
 20
106.683241
 30
0.0
 10
449.993368
 20
107.064241
 30
0.0
 10
449.993368
 20
107.614575
 30
0.0
 10
450.374368
 20
107.995575
 30
0.0
 10
450.924701
 20
107.995575
 30
0.0
 10
451.305701
 20
107.614575
 30
0.0
 10
451.305701
 20
107.064241
 30
0.0
 10
451.305701
 20
107.064241
 30
0.0
  0
LWPOLYLINE
  5
22f
100
AcDbEntity
  8
Laag_1
 62
7
100
AcDbPolyline
 90
2
 70
1
 10
451.051701
 20
107.339408
 30
0.0
 10
451.051701
 20
107.339408
 30
0.0
  0
SPLINE
  5
230
100
AcDbEntity
  8
Laag_1
 62
7
100
AcDbSpline
 70
8
 71
3
 72
8
 73
4
 74
0
 40
0
 40
0
 40
0
 40
0
 40
1
 40
1
 40
1
 40
1
 10
435.811701
 20
107.339408
 30
0.0
 10
435.811701
 20
107.117298
 30
0.0
 10
435.631645
 20
106.937241
 30
0.0
 10
435.409535
 20
106.937241
 30
0.0
  0
SPLINE
  5
231
100
AcDbEntity
  8
Laag_1
 62
7
100
AcDbSpline
 70
8
 71
3
 72
8
 73
4
 74
0
 40
0
 40
0
 40
0
 40
0
 40
1
 40
1
 40
1
 40
1
 10
435.409535
 20
106.937241
 30
0.0
 10
435.187424
 20
106.937241
 30
0.0
 10
435.007368
 20
107.117298
 30
0.0
 10
435.007368
 20
107.339408
 30
0.0
  0
SPLINE
  5
232
100
AcDbEntity
  8
Laag_1
 62
7
100
AcDbSpline
 70
8
 71
3
 72
8
 73
4
 74
0
 40
0
 40
0
 40
0
 40
0
 40
1
 40
1
 40
1
 40
1
 10
435.007368
 20
107.339408
 30
0.0
 10
435.007368
 20
107.561518
 30
0.0
 10
435.187424
 20
107.741575
 30
0.0
 10
435.409535
 20
107.741575
 30
0.0
  0
SPLINE
  5
233
100
AcDbEntity
  8
Laag_1
 62
7
100
AcDbSpline
 70
8
 71
3
 72
8
 73
4
 74
0
 40
0
 40
0
 40
0
 40
0
 40
1
 40
1
 40
1
 40
1
 10
435.409535
 20
107.741575
 30
0.0
 10
435.631645
 20
107.741575
 30
0.0
 10
435.811701
 20
107.561518
 30
0.0
 10
435.811701
 20
107.339408
 30
0.0
  0
LWPOLYLINE
  5
234
100
AcDbEntity
  8
Laag_1
 62
7
100
AcDbPolyline
 90
10
 70
1
 10
436.065701
 20
107.064241
 30
0.0
 10
435.684701
 20
106.683241
 30
0.0
 10
435.134368
 20
106.683241
 30
0.0
 10
434.753368
 20
107.064241
 30
0.0
 10
434.753368
 20
107.614575
 30
0.0
 10
435.134368
 20
107.995575
 30
0.0
 10
435.684701
 20
107.995575
 30
0.0
 10
436.065701
 20
107.614575
 30
0.0
 10
436.065701
 20
107.064241
 30
0.0
 10
436.065701
 20
107.064241
 30
0.0
  0
LWPOLYLINE
  5
235
100
AcDbEntity
  8
Laag_1
 62
7
100
AcDbPolyline
 90
2
 70
1
 10
435.811701
 20
107.339408
 30
0.0
 10
435.811701
 20
107.339408
 30
0.0
  0
SPLINE
  5
236
100
AcDbEntity
  8
Laag_1
 62
7
100
AcDbSpline
 70
8
 71
3
 72
8
 73
4
 74
0
 40
0
 40
0
 40
0
 40
0
 40
1
 40
1
 40
1
 40
1
 10
448.511701
 20
107.339408
 30
0.0
 10
448.511701
 20
107.117298
 30
0.0
 10
448.331645
 20
106.937241
 30
0.0
 10
448.109535
 20
106.937241
 30
0.0
  0
SPLINE
  5
237
100
AcDbEntity
  8
Laag_1
 62
7
100
AcDbSpline
 70
8
 71
3
 72
8
 73
4
 74
0
 40
0
 40
0
 40
0
 40
0
 40
1
 40
1
 40
1
 40
1
 10
448.109535
 20
106.937241
 30
0.0
 10
447.887424
 20
106.937241
 30
0.0
 10
447.707368
 20
107.117298
 30
0.0
 10
447.707368
 20
107.339408
 30
0.0
  0
SPLINE
  5
238
100
AcDbEntity
  8
Laag_1
 62
7
100
AcDbSpline
 70
8
 71
3
 72
8
 73
4
 74
0
 40
0
 40
0
 40
0
 40
0
 40
1
 40
1
 40
1
 40
1
 10
447.707368
 20
107.339408
 30
0.0
 10
447.707368
 20
107.561518
 30
0.0
 10
447.887424
 20
107.741575
 30
0.0
 10
448.109535
 20
107.741575
 30
0.0
  0
SPLINE
  5
239
100
AcDbEntity
  8
Laag_1
 62
7
100
AcDbSpline
 70
8
 71
3
 72
8
 73
4
 74
0
 40
0
 40
0
 40
0
 40
0
 40
1
 40
1
 40
1
 40
1
 10
448.109535
 20
107.741575
 30
0.0
 10
448.331645
 20
107.741575
 30
0.0
 10
448.511701
 20
107.561518
 30
0.0
 10
448.511701
 20
107.339408
 30
0.0
  0
LWPOLYLINE
  5
23a
100
AcDbEntity
  8
Laag_1
 62
7
100
AcDbPolyline
 90
10
 70
1
 10
448.765701
 20
107.064241
 30
0.0
 10
448.384701
 20
106.683241
 30
0.0
 10
447.834368
 20
106.683241
 30
0.0
 10
447.453368
 20
107.064241
 30
0.0
 10
447.453368
 20
107.614575
 30
0.0
 10
447.834368
 20
107.995575
 30
0.0
 10
448.384701
 20
107.995575
 30
0.0
 10
448.765701
 20
107.614575
 30
0.0
 10
448.765701
 20
107.064241
 30
0.0
 10
448.765701
 20
107.064241
 30
0.0
  0
LWPOLYLINE
  5
23b
100
AcDbEntity
  8
Laag_1
 62
7
100
AcDbPolyline
 90
2
 70
1
 10
448.511701
 20
107.339408
 30
0.0
 10
448.511701
 20
107.339408
 30
0.0
  0
SPLINE
  5
23c
100
AcDbEntity
  8
Laag_1
 62
7
100
AcDbSpline
 70
8
 71
3
 72
8
 73
4
 74
0
 40
0
 40
0
 40
0
 40
0
 40
1
 40
1
 40
1
 40
1
 10
435.811701
 20
121.055408
 30
0.0
 10
435.811701
 20
120.833298
 30
0.0
 10
435.631645
 20
120.653241
 30
0.0
 10
435.409535
 20
120.653241
 30
0.0
  0
SPLINE
  5
23d
100
AcDbEntity
  8
Laag_1
 62
7
100
AcDbSpline
 70
8
 71
3
 72
8
 73
4
 74
0
 40
0
 40
0
 40
0
 40
0
 40
1
 40
1
 40
1
 40
1
 10
435.409535
 20
120.653241
 30
0.0
 10
435.187424
 20
120.653241
 30
0.0
 10
435.007368
 20
120.833298
 30
0.0
 10
435.007368
 20
121.055408
 30
0.0
  0
SPLINE
  5
23e
100
AcDbEntity
  8
Laag_1
 62
7
100
AcDbSpline
 70
8
 71
3
 72
8
 73
4
 74
0
 40
0
 40
0
 40
0
 40
0
 40
1
 40
1
 40
1
 40
1
 10
435.007368
 20
121.055408
 30
0.0
 10
435.007368
 20
121.277518
 30
0.0
 10
435.187424
 20
121.457575
 30
0.0
 10
435.409535
 20
121.457575
 30
0.0
  0
SPLINE
  5
23f
100
AcDbEntity
  8
Laag_1
 62
7
100
AcDbSpline
 70
8
 71
3
 72
8
 73
4
 74
0
 40
0
 40
0
 40
0
 40
0
 40
1
 40
1
 40
1
 40
1
 10
435.409535
 20
121.457575
 30
0.0
 10
435.631645
 20
121.457575
 30
0.0
 10
435.811701
 20
121.277518
 30
0.0
 10
435.811701
 20
121.055408
 30
0.0
  0
LWPOLYLINE
  5
240
100
AcDbEntity
  8
Laag_1
 62
7
100
AcDbPolyline
 90
10
 70
1
 10
436.065701
 20
120.780241
 30
0.0
 10
435.684701
 20
120.399241
 30
0.0
 10
435.134368
 20
120.399241
 30
0.0
 10
434.753368
 20
120.780241
 30
0.0
 10
434.753368
 20
121.330575
 30
0.0
 10
435.134368
 20
121.711575
 30
0.0
 10
435.684701
 20
121.711575
 30
0.0
 10
436.065701
 20
121.330575
 30
0.0
 10
436.065701
 20
120.780241
 30
0.0
 10
436.065701
 20
120.780241
 30
0.0
  0
LWPOLYLINE
  5
241
100
AcDbEntity
  8
Laag_1
 62
7
100
AcDbPolyline
 90
2
 70
1
 10
435.811701
 20
121.055408
 30
0.0
 10
435.811701
 20
121.055408
 30
0.0
  0
SPLINE
  5
242
100
AcDbEntity
  8
Laag_1
 62
7
100
AcDbSpline
 70
8
 71
3
 72
8
 73
4
 74
0
 40
0
 40
0
 40
0
 40
0
 40
1
 40
1
 40
1
 40
1
 10
448.511701
 20
121.055408
 30
0.0
 10
448.511701
 20
120.833298
 30
0.0
 10
448.331645
 20
120.653241
 30
0.0
 10
448.109535
 20
120.653241
 30
0.0
  0
SPLINE
  5
243
100
AcDbEntity
  8
Laag_1
 62
7
100
AcDbSpline
 70
8
 71
3
 72
8
 73
4
 74
0
 40
0
 40
0
 40
0
 40
0
 40
1
 40
1
 40
1
 40
1
 10
448.109535
 20
120.653241
 30
0.0
 10
447.887424
 20
120.653241
 30
0.0
 10
447.707368
 20
120.833298
 30
0.0
 10
447.707368
 20
121.055408
 30
0.0
  0
SPLINE
  5
244
100
AcDbEntity
  8
Laag_1
 62
7
100
AcDbSpline
 70
8
 71
3
 72
8
 73
4
 74
0
 40
0
 40
0
 40
0
 40
0
 40
1
 40
1
 40
1
 40
1
 10
447.707368
 20
121.055408
 30
0.0
 10
447.707368
 20
121.277518
 30
0.0
 10
447.887424
 20
121.457575
 30
0.0
 10
448.109535
 20
121.457575
 30
0.0
  0
SPLINE
  5
245
100
AcDbEntity
  8
Laag_1
 62
7
100
AcDbSpline
 70
8
 71
3
 72
8
 73
4
 74
0
 40
0
 40
0
 40
0
 40
0
 40
1
 40
1
 40
1
 40
1
 10
448.109535
 20
121.457575
 30
0.0
 10
448.331645
 20
121.457575
 30
0.0
 10
448.511701
 20
121.277518
 30
0.0
 10
448.511701
 20
121.055408
 30
0.0
  0
LWPOLYLINE
  5
246
100
AcDbEntity
  8
Laag_1
 62
7
100
AcDbPolyline
 90
10
 70
1
 10
448.765701
 20
120.780241
 30
0.0
 10
448.384701
 20
120.399241
 30
0.0
 10
447.834368
 20
120.399241
 30
0.0
 10
447.453368
 20
120.780241
 30
0.0
 10
447.453368
 20
121.330575
 30
0.0
 10
447.834368
 20
121.711575
 30
0.0
 10
448.384701
 20
121.711575
 30
0.0
 10
448.765701
 20
121.330575
 30
0.0
 10
448.765701
 20
120.780241
 30
0.0
 10
448.765701
 20
120.780241
 30
0.0
  0
LWPOLYLINE
  5
247
100
AcDbEntity
  8
Laag_1
 62
7
100
AcDbPolyline
 90
2
 70
1
 10
448.511701
 20
121.055408
 30
0.0
 10
448.511701
 20
121.055408
 30
0.0
  0
SPLINE
  5
248
100
AcDbEntity
  8
Laag_1
 62
7
100
AcDbSpline
 70
8
 71
3
 72
8
 73
4
 74
0
 40
0
 40
0
 40
0
 40
0
 40
1
 40
1
 40
1
 40
1
 10
437.589701
 20
137.544241
 30
0.0
 10
437.589701
 20
137.322131
 30
0.0
 10
437.409645
 20
137.142075
 30
0.0
 10
437.187535
 20
137.142075
 30
0.0
  0
SPLINE
  5
249
100
AcDbEntity
  8
Laag_1
 62
7
100
AcDbSpline
 70
8
 71
3
 72
8
 73
4
 74
0
 40
0
 40
0
 40
0
 40
0
 40
1
 40
1
 40
1
 40
1
 10
437.187535
 20
137.142075
 30
0.0
 10
436.965424
 20
137.142075
 30
0.0
 10
436.785368
 20
137.322131
 30
0.0
 10
436.785368
 20
137.544241
 30
0.0
  0
SPLINE
  5
24a
100
AcDbEntity
  8
Laag_1
 62
7
100
AcDbSpline
 70
8
 71
3
 72
8
 73
4
 74
0
 40
0
 40
0
 40
0
 40
0
 40
1
 40
1
 40
1
 40
1
 10
436.785368
 20
137.544241
 30
0.0
 10
436.785368
 20
137.766352
 30
0.0
 10
436.965424
 20
137.946408
 30
0.0
 10
437.187535
 20
137.946408
 30
0.0
  0
SPLINE
  5
24b
100
AcDbEntity
  8
Laag_1
 62
7
100
AcDbSpline
 70
8
 71
3
 72
8
 73
4
 74
0
 40
0
 40
0
 40
0
 40
0
 40
1
 40
1
 40
1
 40
1
 10
437.187535
 20
137.946408
 30
0.0
 10
437.409645
 20
137.946408
 30
0.0
 10
437.589701
 20
137.766352
 30
0.0
 10
437.589701
 20
137.544241
 30
0.0
  0
LWPOLYLINE
  5
24c
100
AcDbEntity
  8
Laag_1
 62
7
100
AcDbPolyline
 90
10
 70
1
 10
437.843701
 20
137.269075
 30
0.0
 10
437.462701
 20
136.888075
 30
0.0
 10
436.912368
 20
136.888075
 30
0.0
 10
436.531368
 20
137.269075
 30
0.0
 10
436.531368
 20
137.819408
 30
0.0
 10
436.912368
 20
138.200408
 30
0.0
 10
437.462701
 20
138.200408
 30
0.0
 10
437.843701
 20
137.819408
 30
0.0
 10
437.843701
 20
137.269075
 30
0.0
 10
437.843701
 20
137.269075
 30
0.0
  0
LWPOLYLINE
  5
24d
100
AcDbEntity
  8
Laag_1
 62
7
100
AcDbPolyline
 90
2
 70
1
 10
437.589701
 20
137.544241
 30
0.0
 10
437.589701
 20
137.544241
 30
0.0
  0
SPLINE
  5
24e
100
AcDbEntity
  8
Laag_1
 62
7
100
AcDbSpline
 70
8
 71
3
 72
8
 73
4
 74
0
 40
0
 40
0
 40
0
 40
0
 40
1
 40
1
 40
1
 40
1
 10
450.289701
 20
137.544241
 30
0.0
 10
450.289701
 20
137.322131
 30
0.0
 10
450.109645
 20
137.142075
 30
0.0
 10
449.887535
 20
137.142075
 30
0.0
  0
SPLINE
  5
24f
100
AcDbEntity
  8
Laag_1
 62
7
100
AcDbSpline
 70
8
 71
3
 72
8
 73
4
 74
0
 40
0
 40
0
 40
0
 40
0
 40
1
 40
1
 40
1
 40
1
 10
449.887535
 20
137.142075
 30
0.0
 10
449.665424
 20
137.142075
 30
0.0
 10
449.485368
 20
137.322131
 30
0.0
 10
449.485368
 20
137.544241
 30
0.0
  0
SPLINE
  5
250
100
AcDbEntity
  8
Laag_1
 62
7
100
AcDbSpline
 70
8
 71
3
 72
8
 73
4
 74
0
 40
0
 40
0
 40
0
 40
0
 40
1
 40
1
 40
1
 40
1
 10
449.485368
 20
137.544241
 30
0.0
 10
449.485368
 20
137.766352
 30
0.0
 10
449.665424
 20
137.946408
 30
0.0
 10
449.887535
 20
137.946408
 30
0.0
  0
SPLINE
  5
251
100
AcDbEntity
  8
Laag_1
 62
7
100
AcDbSpline
 70
8
 71
3
 72
8
 73
4
 74
0
 40
0
 40
0
 40
0
 40
0
 40
1
 40
1
 40
1
 40
1
 10
449.887535
 20
137.946408
 30
0.0
 10
450.109645
 20
137.946408
 30
0.0
 10
450.289701
 20
137.766352
 30
0.0
 10
450.289701
 20
137.544241
 30
0.0
  0
LWPOLYLINE
  5
252
100
AcDbEntity
  8
Laag_1
 62
7
100
AcDbPolyline
 90
10
 70
1
 10
450.543701
 20
137.269075
 30
0.0
 10
450.162701
 20
136.888075
 30
0.0
 10
449.612368
 20
136.888075
 30
0.0
 10
449.231368
 20
137.269075
 30
0.0
 10
449.231368
 20
137.819408
 30
0.0
 10
449.612368
 20
138.200408
 30
0.0
 10
450.162701
 20
138.200408
 30
0.0
 10
450.543701
 20
137.819408
 30
0.0
 10
450.543701
 20
137.269075
 30
0.0
 10
450.543701
 20
137.269075
 30
0.0
  0
LWPOLYLINE
  5
253
100
AcDbEntity
  8
Laag_1
 62
7
100
AcDbPolyline
 90
2
 70
1
 10
450.289701
 20
137.544241
 30
0.0
 10
450.289701
 20
137.544241
 30
0.0
  0
SPLINE
  5
254
100
AcDbEntity
  8
Laag_1
 62
7
100
AcDbSpline
 70
8
 71
3
 72
8
 73
4
 74
0
 40
0
 40
0
 40
0
 40
0
 40
1
 40
1
 40
1
 40
1
 10
434.033701
 20
88.564575
 30
0.0
 10
434.033701
 20
88.342464
 30
0.0
 10
433.853645
 20
88.162408
 30
0.0
 10
433.631535
 20
88.162408
 30
0.0
  0
SPLINE
  5
255
100
AcDbEntity
  8
Laag_1
 62
7
100
AcDbSpline
 70
8
 71
3
 72
8
 73
4
 74
0
 40
0
 40
0
 40
0
 40
0
 40
1
 40
1
 40
1
 40
1
 10
433.631535
 20
88.162408
 30
0.0
 10
433.409424
 20
88.162408
 30
0.0
 10
433.229368
 20
88.342464
 30
0.0
 10
433.229368
 20
88.564575
 30
0.0
  0
SPLINE
  5
256
100
AcDbEntity
  8
Laag_1
 62
7
100
AcDbSpline
 70
8
 71
3
 72
8
 73
4
 74
0
 40
0
 40
0
 40
0
 40
0
 40
1
 40
1
 40
1
 40
1
 10
433.229368
 20
88.564575
 30
0.0
 10
433.229368
 20
88.786685
 30
0.0
 10
433.409424
 20
88.966741
 30
0.0
 10
433.631535
 20
88.966741
 30
0.0
  0
SPLINE
  5
257
100
AcDbEntity
  8
Laag_1
 62
7
100
AcDbSpline
 70
8
 71
3
 72
8
 73
4
 74
0
 40
0
 40
0
 40
0
 40
0
 40
1
 40
1
 40
1
 40
1
 10
433.631535
 20
88.966741
 30
0.0
 10
433.853645
 20
88.966741
 30
0.0
 10
434.033701
 20
88.786685
 30
0.0
 10
434.033701
 20
88.564575
 30
0.0
  0
LWPOLYLINE
  5
258
100
AcDbEntity
  8
Laag_1
 62
7
100
AcDbPolyline
 90
10
 70
1
 10
434.287701
 20
88.289408
 30
0.0
 10
433.906701
 20
87.908408
 30
0.0
 10
433.356368
 20
87.908408
 30
0.0
 10
432.975368
 20
88.289408
 30
0.0
 10
432.975368
 20
88.839741
 30
0.0
 10
433.356368
 20
89.220741
 30
0.0
 10
433.906701
 20
89.220741
 30
0.0
 10
434.287701
 20
88.839741
 30
0.0
 10
434.287701
 20
88.289408
 30
0.0
 10
434.287701
 20
88.289408
 30
0.0
  0
LWPOLYLINE
  5
259
100
AcDbEntity
  8
Laag_1
 62
7
100
AcDbPolyline
 90
2
 70
1
 10
434.033701
 20
88.564575
 30
0.0
 10
434.033701
 20
88.564575
 30
0.0
  0
SPLINE
  5
25a
100
AcDbEntity
  8
Laag_1
 62
7
100
AcDbSpline
 70
8
 71
3
 72
8
 73
4
 74
0
 40
0
 40
0
 40
0
 40
0
 40
1
 40
1
 40
1
 40
1
 10
435.938701
 20
89.834575
 30
0.0
 10
435.938701
 20
89.612464
 30
0.0
 10
435.758645
 20
89.432408
 30
0.0
 10
435.536535
 20
89.432408
 30
0.0
  0
SPLINE
  5
25b
100
AcDbEntity
  8
Laag_1
 62
7
100
AcDbSpline
 70
8
 71
3
 72
8
 73
4
 74
0
 40
0
 40
0
 40
0
 40
0
 40
1
 40
1
 40
1
 40
1
 10
435.536535
 20
89.432408
 30
0.0
 10
435.314424
 20
89.432408
 30
0.0
 10
435.134368
 20
89.612464
 30
0.0
 10
435.134368
 20
89.834575
 30
0.0
  0
SPLINE
  5
25c
100
AcDbEntity
  8
Laag_1
 62
7
100
AcDbSpline
 70
8
 71
3
 72
8
 73
4
 74
0
 40
0
 40
0
 40
0
 40
0
 40
1
 40
1
 40
1
 40
1
 10
435.134368
 20
89.834575
 30
0.0
 10
435.134368
 20
90.056685
 30
0.0
 10
435.314424
 20
90.236741
 30
0.0
 10
435.536535
 20
90.236741
 30
0.0
  0
SPLINE
  5
25d
100
AcDbEntity
  8
Laag_1
 62
7
100
AcDbSpline
 70
8
 71
3
 72
8
 73
4
 74
0
 40
0
 40
0
 40
0
 40
0
 40
1
 40
1
 40
1
 40
1
 10
435.536535
 20
90.236741
 30
0.0
 10
435.758645
 20
90.236741
 30
0.0
 10
435.938701
 20
90.056685
 30
0.0
 10
435.938701
 20
89.834575
 30
0.0
  0
LWPOLYLINE
  5
25e
100
AcDbEntity
  8
Laag_1
 62
7
100
AcDbPolyline
 90
10
 70
1
 10
436.192701
 20
89.559408
 30
0.0
 10
435.811701
 20
89.178408
 30
0.0
 10
435.261368
 20
89.178408
 30
0.0
 10
434.880368
 20
89.559408
 30
0.0
 10
434.880368
 20
90.109741
 30
0.0
 10
435.261368
 20
90.490741
 30
0.0
 10
435.811701
 20
90.490741
 30
0.0
 10
436.192701
 20
90.109741
 30
0.0
 10
436.192701
 20
89.559408
 30
0.0
 10
436.192701
 20
89.559408
 30
0.0
  0
LWPOLYLINE
  5
25f
100
AcDbEntity
  8
Laag_1
 62
7
100
AcDbPolyline
 90
2
 70
1
 10
435.938701
 20
89.834575
 30
0.0
 10
435.938701
 20
89.834575
 30
0.0
  0
SPLINE
  5
260
100
AcDbEntity
  8
Laag_1
 62
7
100
AcDbSpline
 70
8
 71
3
 72
8
 73
4
 74
0
 40
0
 40
0
 40
0
 40
0
 40
1
 40
1
 40
1
 40
1
 10
434.033701
 20
91.104575
 30
0.0
 10
434.033701
 20
90.882464
 30
0.0
 10
433.853645
 20
90.702408
 30
0.0
 10
433.631535
 20
90.702408
 30
0.0
  0
SPLINE
  5
261
100
AcDbEntity
  8
Laag_1
 62
7
100
AcDbSpline
 70
8
 71
3
 72
8
 73
4
 74
0
 40
0
 40
0
 40
0
 40
0
 40
1
 40
1
 40
1
 40
1
 10
433.631535
 20
90.702408
 30
0.0
 10
433.409424
 20
90.702408
 30
0.0
 10
433.229368
 20
90.882464
 30
0.0
 10
433.229368
 20
91.104575
 30
0.0
  0
SPLINE
  5
262
100
AcDbEntity
  8
Laag_1
 62
7
100
AcDbSpline
 70
8
 71
3
 72
8
 73
4
 74
0
 40
0
 40
0
 40
0
 40
0
 40
1
 40
1
 40
1
 40
1
 10
433.229368
 20
91.104575
 30
0.0
 10
433.229368
 20
91.326685
 30
0.0
 10
433.409424
 20
91.506741
 30
0.0
 10
433.631535
 20
91.506741
 30
0.0
  0
SPLINE
  5
263
100
AcDbEntity
  8
Laag_1
 62
7
100
AcDbSpline
 70
8
 71
3
 72
8
 73
4
 74
0
 40
0
 40
0
 40
0
 40
0
 40
1
 40
1
 40
1
 40
1
 10
433.631535
 20
91.506741
 30
0.0
 10
433.853645
 20
91.506741
 30
0.0
 10
434.033701
 20
91.326685
 30
0.0
 10
434.033701
 20
91.104575
 30
0.0
  0
LWPOLYLINE
  5
264
100
AcDbEntity
  8
Laag_1
 62
7
100
AcDbPolyline
 90
10
 70
1
 10
434.287701
 20
90.829408
 30
0.0
 10
433.906701
 20
90.448408
 30
0.0
 10
433.356368
 20
90.448408
 30
0.0
 10
432.975368
 20
90.829408
 30
0.0
 10
432.975368
 20
91.379741
 30
0.0
 10
433.356368
 20
91.760741
 30
0.0
 10
433.906701
 20
91.760741
 30
0.0
 10
434.287701
 20
91.379741
 30
0.0
 10
434.287701
 20
90.829408
 30
0.0
 10
434.287701
 20
90.829408
 30
0.0
  0
LWPOLYLINE
  5
265
100
AcDbEntity
  8
Laag_1
 62
7
100
AcDbPolyline
 90
2
 70
1
 10
434.033701
 20
91.104575
 30
0.0
 10
434.033701
 20
91.104575
 30
0.0
  0
SPLINE
  5
266
100
AcDbEntity
  8
Laag_1
 62
7
100
AcDbSpline
 70
8
 71
3
 72
8
 73
4
 74
0
 40
0
 40
0
 40
0
 40
0
 40
1
 40
1
 40
1
 40
1
 10
434.033701
 20
102.513408
 30
0.0
 10
434.033701
 20
102.291298
 30
0.0
 10
433.853645
 20
102.111241
 30
0.0
 10
433.631535
 20
102.111241
 30
0.0
  0
SPLINE
  5
267
100
AcDbEntity
  8
Laag_1
 62
7
100
AcDbSpline
 70
8
 71
3
 72
8
 73
4
 74
0
 40
0
 40
0
 40
0
 40
0
 40
1
 40
1
 40
1
 40
1
 10
433.631535
 20
102.111241
 30
0.0
 10
433.409424
 20
102.111241
 30
0.0
 10
433.229368
 20
102.291298
 30
0.0
 10
433.229368
 20
102.513408
 30
0.0
  0
SPLINE
  5
268
100
AcDbEntity
  8
Laag_1
 62
7
100
AcDbSpline
 70
8
 71
3
 72
8
 73
4
 74
0
 40
0
 40
0
 40
0
 40
0
 40
1
 40
1
 40
1
 40
1
 10
433.229368
 20
102.513408
 30
0.0
 10
433.229368
 20
102.735518
 30
0.0
 10
433.409424
 20
102.915575
 30
0.0
 10
433.631535
 20
102.915575
 30
0.0
  0
SPLINE
  5
269
100
AcDbEntity
  8
Laag_1
 62
7
100
AcDbSpline
 70
8
 71
3
 72
8
 73
4
 74
0
 40
0
 40
0
 40
0
 40
0
 40
1
 40
1
 40
1
 40
1
 10
433.631535
 20
102.915575
 30
0.0
 10
433.853645
 20
102.915575
 30
0.0
 10
434.033701
 20
102.735518
 30
0.0
 10
434.033701
 20
102.513408
 30
0.0
  0
LWPOLYLINE
  5
26a
100
AcDbEntity
  8
Laag_1
 62
7
100
AcDbPolyline
 90
10
 70
1
 10
434.287701
 20
102.238241
 30
0.0
 10
433.906701
 20
101.857241
 30
0.0
 10
433.356368
 20
101.857241
 30
0.0
 10
432.975368
 20
102.238241
 30
0.0
 10
432.975368
 20
102.788575
 30
0.0
 10
433.356368
 20
103.169575
 30
0.0
 10
433.906701
 20
103.169575
 30
0.0
 10
434.287701
 20
102.788575
 30
0.0
 10
434.287701
 20
102.238241
 30
0.0
 10
434.287701
 20
102.238241
 30
0.0
  0
LWPOLYLINE
  5
26b
100
AcDbEntity
  8
Laag_1
 62
7
100
AcDbPolyline
 90
2
 70
1
 10
434.033701
 20
102.513408
 30
0.0
 10
434.033701
 20
102.513408
 30
0.0
  0
SPLINE
  5
26c
100
AcDbEntity
  8
Laag_1
 62
7
100
AcDbSpline
 70
8
 71
3
 72
8
 73
4
 74
0
 40
0
 40
0
 40
0
 40
0
 40
1
 40
1
 40
1
 40
1
 10
435.938701
 20
103.783408
 30
0.0
 10
435.938701
 20
103.561298
 30
0.0
 10
435.758645
 20
103.381241
 30
0.0
 10
435.536535
 20
103.381241
 30
0.0
  0
SPLINE
  5
26d
100
AcDbEntity
  8
Laag_1
 62
7
100
AcDbSpline
 70
8
 71
3
 72
8
 73
4
 74
0
 40
0
 40
0
 40
0
 40
0
 40
1
 40
1
 40
1
 40
1
 10
435.536535
 20
103.381241
 30
0.0
 10
435.314424
 20
103.381241
 30
0.0
 10
435.134368
 20
103.561298
 30
0.0
 10
435.134368
 20
103.783408
 30
0.0
  0
SPLINE
  5
26e
100
AcDbEntity
  8
Laag_1
 62
7
100
AcDbSpline
 70
8
 71
3
 72
8
 73
4
 74
0
 40
0
 40
0
 40
0
 40
0
 40
1
 40
1
 40
1
 40
1
 10
435.134368
 20
103.783408
 30
0.0
 10
435.134368
 20
104.005518
 30
0.0
 10
435.314424
 20
104.185575
 30
0.0
 10
435.536535
 20
104.185575
 30
0.0
  0
SPLINE
  5
26f
100
AcDbEntity
  8
Laag_1
 62
7
100
AcDbSpline
 70
8
 71
3
 72
8
 73
4
 74
0
 40
0
 40
0
 40
0
 40
0
 40
1
 40
1
 40
1
 40
1
 10
435.536535
 20
104.185575
 30
0.0
 10
435.758645
 20
104.185575
 30
0.0
 10
435.938701
 20
104.005518
 30
0.0
 10
435.938701
 20
103.783408
 30
0.0
  0
LWPOLYLINE
  5
270
100
AcDbEntity
  8
Laag_1
 62
7
100
AcDbPolyline
 90
10
 70
1
 10
436.192701
 20
103.508241
 30
0.0
 10
435.811701
 20
103.127241
 30
0.0
 10
435.261368
 20
103.127241
 30
0.0
 10
434.880368
 20
103.508241
 30
0.0
 10
434.880368
 20
104.058575
 30
0.0
 10
435.261368
 20
104.439575
 30
0.0
 10
435.811701
 20
104.439575
 30
0.0
 10
436.192701
 20
104.058575
 30
0.0
 10
436.192701
 20
103.508241
 30
0.0
 10
436.192701
 20
103.508241
 30
0.0
  0
LWPOLYLINE
  5
271
100
AcDbEntity
  8
Laag_1
 62
7
100
AcDbPolyline
 90
2
 70
1
 10
435.938701
 20
103.783408
 30
0.0
 10
435.938701
 20
103.783408
 30
0.0
  0
SPLINE
  5
272
100
AcDbEntity
  8
Laag_1
 62
7
100
AcDbSpline
 70
8
 71
3
 72
8
 73
4
 74
0
 40
0
 40
0
 40
0
 40
0
 40
1
 40
1
 40
1
 40
1
 10
434.033701
 20
105.053408
 30
0.0
 10
434.033701
 20
104.831298
 30
0.0
 10
433.853645
 20
104.651241
 30
0.0
 10
433.631535
 20
104.651241
 30
0.0
  0
SPLINE
  5
273
100
AcDbEntity
  8
Laag_1
 62
7
100
AcDbSpline
 70
8
 71
3
 72
8
 73
4
 74
0
 40
0
 40
0
 40
0
 40
0
 40
1
 40
1
 40
1
 40
1
 10
433.631535
 20
104.651241
 30
0.0
 10
433.409424
 20
104.651241
 30
0.0
 10
433.229368
 20
104.831298
 30
0.0
 10
433.229368
 20
105.053408
 30
0.0
  0
SPLINE
  5
274
100
AcDbEntity
  8
Laag_1
 62
7
100
AcDbSpline
 70
8
 71
3
 72
8
 73
4
 74
0
 40
0
 40
0
 40
0
 40
0
 40
1
 40
1
 40
1
 40
1
 10
433.229368
 20
105.053408
 30
0.0
 10
433.229368
 20
105.275518
 30
0.0
 10
433.409424
 20
105.455575
 30
0.0
 10
433.631535
 20
105.455575
 30
0.0
  0
SPLINE
  5
275
100
AcDbEntity
  8
Laag_1
 62
7
100
AcDbSpline
 70
8
 71
3
 72
8
 73
4
 74
0
 40
0
 40
0
 40
0
 40
0
 40
1
 40
1
 40
1
 40
1
 10
433.631535
 20
105.455575
 30
0.0
 10
433.853645
 20
105.455575
 30
0.0
 10
434.033701
 20
105.275518
 30
0.0
 10
434.033701
 20
105.053408
 30
0.0
  0
LWPOLYLINE
  5
276
100
AcDbEntity
  8
Laag_1
 62
7
100
AcDbPolyline
 90
10
 70
1
 10
434.287701
 20
104.778241
 30
0.0
 10
433.906701
 20
104.397241
 30
0.0
 10
433.356368
 20
104.397241
 30
0.0
 10
432.975368
 20
104.778241
 30
0.0
 10
432.975368
 20
105.328575
 30
0.0
 10
433.356368
 20
105.709575
 30
0.0
 10
433.906701
 20
105.709575
 30
0.0
 10
434.287701
 20
105.328575
 30
0.0
 10
434.287701
 20
104.778241
 30
0.0
 10
434.287701
 20
104.778241
 30
0.0
  0
LWPOLYLINE
  5
277
100
AcDbEntity
  8
Laag_1
 62
7
100
AcDbPolyline
 90
2
 70
1
 10
434.033701
 20
105.053408
 30
0.0
 10
434.033701
 20
105.053408
 30
0.0
  0
SPLINE
  5
278
100
AcDbEntity
  8
Laag_1
 62
7
100
AcDbSpline
 70
8
 71
3
 72
8
 73
4
 74
0
 40
0
 40
0
 40
0
 40
0
 40
1
 40
1
 40
1
 40
1
 10
434.033701
 20
116.483408
 30
0.0
 10
434.033701
 20
116.261298
 30
0.0
 10
433.853645
 20
116.081241
 30
0.0
 10
433.631535
 20
116.081241
 30
0.0
  0
SPLINE
  5
279
100
AcDbEntity
  8
Laag_1
 62
7
100
AcDbSpline
 70
8
 71
3
 72
8
 73
4
 74
0
 40
0
 40
0
 40
0
 40
0
 40
1
 40
1
 40
1
 40
1
 10
433.631535
 20
116.081241
 30
0.0
 10
433.409424
 20
116.081241
 30
0.0
 10
433.229368
 20
116.261298
 30
0.0
 10
433.229368
 20
116.483408
 30
0.0
  0
SPLINE
  5
27a
100
AcDbEntity
  8
Laag_1
 62
7
100
AcDbSpline
 70
8
 71
3
 72
8
 73
4
 74
0
 40
0
 40
0
 40
0
 40
0
 40
1
 40
1
 40
1
 40
1
 10
433.229368
 20
116.483408
 30
0.0
 10
433.229368
 20
116.705518
 30
0.0
 10
433.409424
 20
116.885575
 30
0.0
 10
433.631535
 20
116.885575
 30
0.0
  0
SPLINE
  5
27b
100
AcDbEntity
  8
Laag_1
 62
7
100
AcDbSpline
 70
8
 71
3
 72
8
 73
4
 74
0
 40
0
 40
0
 40
0
 40
0
 40
1
 40
1
 40
1
 40
1
 10
433.631535
 20
116.885575
 30
0.0
 10
433.853645
 20
116.885575
 30
0.0
 10
434.033701
 20
116.705518
 30
0.0
 10
434.033701
 20
116.483408
 30
0.0
  0
LWPOLYLINE
  5
27c
100
AcDbEntity
  8
Laag_1
 62
7
100
AcDbPolyline
 90
10
 70
1
 10
434.287701
 20
116.208241
 30
0.0
 10
433.906701
 20
115.827241
 30
0.0
 10
433.356368
 20
115.827241
 30
0.0
 10
432.975368
 20
116.208241
 30
0.0
 10
432.975368
 20
116.758575
 30
0.0
 10
433.356368
 20
117.139575
 30
0.0
 10
433.906701
 20
117.139575
 30
0.0
 10
434.287701
 20
116.758575
 30
0.0
 10
434.287701
 20
116.208241
 30
0.0
 10
434.287701
 20
116.208241
 30
0.0
  0
LWPOLYLINE
  5
27d
100
AcDbEntity
  8
Laag_1
 62
7
100
AcDbPolyline
 90
2
 70
1
 10
434.033701
 20
116.483408
 30
0.0
 10
434.033701
 20
116.483408
 30
0.0
  0
SPLINE
  5
27e
100
AcDbEntity
  8
Laag_1
 62
7
100
AcDbSpline
 70
8
 71
3
 72
8
 73
4
 74
0
 40
0
 40
0
 40
0
 40
0
 40
1
 40
1
 40
1
 40
1
 10
435.938701
 20
117.753408
 30
0.0
 10
435.938701
 20
117.531298
 30
0.0
 10
435.758645
 20
117.351241
 30
0.0
 10
435.536535
 20
117.351241
 30
0.0
  0
SPLINE
  5
27f
100
AcDbEntity
  8
Laag_1
 62
7
100
AcDbSpline
 70
8
 71
3
 72
8
 73
4
 74
0
 40
0
 40
0
 40
0
 40
0
 40
1
 40
1
 40
1
 40
1
 10
435.536535
 20
117.351241
 30
0.0
 10
435.314424
 20
117.351241
 30
0.0
 10
435.134368
 20
117.531298
 30
0.0
 10
435.134368
 20
117.753408
 30
0.0
  0
SPLINE
  5
280
100
AcDbEntity
  8
Laag_1
 62
7
100
AcDbSpline
 70
8
 71
3
 72
8
 73
4
 74
0
 40
0
 40
0
 40
0
 40
0
 40
1
 40
1
 40
1
 40
1
 10
435.134368
 20
117.753408
 30
0.0
 10
435.134368
 20
117.975518
 30
0.0
 10
435.314424
 20
118.155575
 30
0.0
 10
435.536535
 20
118.155575
 30
0.0
  0
SPLINE
  5
281
100
AcDbEntity
  8
Laag_1
 62
7
100
AcDbSpline
 70
8
 71
3
 72
8
 73
4
 74
0
 40
0
 40
0
 40
0
 40
0
 40
1
 40
1
 40
1
 40
1
 10
435.536535
 20
118.155575
 30
0.0
 10
435.758645
 20
118.155575
 30
0.0
 10
435.938701
 20
117.975518
 30
0.0
 10
435.938701
 20
117.753408
 30
0.0
  0
LWPOLYLINE
  5
282
100
AcDbEntity
  8
Laag_1
 62
7
100
AcDbPolyline
 90
10
 70
1
 10
436.192701
 20
117.478241
 30
0.0
 10
435.811701
 20
117.097241
 30
0.0
 10
435.261368
 20
117.097241
 30
0.0
 10
434.880368
 20
117.478241
 30
0.0
 10
434.880368
 20
118.028575
 30
0.0
 10
435.261368
 20
118.409575
 30
0.0
 10
435.811701
 20
118.409575
 30
0.0
 10
436.192701
 20
118.028575
 30
0.0
 10
436.192701
 20
117.478241
 30
0.0
 10
436.192701
 20
117.478241
 30
0.0
  0
LWPOLYLINE
  5
283
100
AcDbEntity
  8
Laag_1
 62
7
100
AcDbPolyline
 90
2
 70
1
 10
435.938701
 20
117.753408
 30
0.0
 10
435.938701
 20
117.753408
 30
0.0
  0
SPLINE
  5
284
100
AcDbEntity
  8
Laag_1
 62
7
100
AcDbSpline
 70
8
 71
3
 72
8
 73
4
 74
0
 40
0
 40
0
 40
0
 40
0
 40
1
 40
1
 40
1
 40
1
 10
434.033701
 20
119.023408
 30
0.0
 10
434.033701
 20
118.801298
 30
0.0
 10
433.853645
 20
118.621241
 30
0.0
 10
433.631535
 20
118.621241
 30
0.0
  0
SPLINE
  5
285
100
AcDbEntity
  8
Laag_1
 62
7
100
AcDbSpline
 70
8
 71
3
 72
8
 73
4
 74
0
 40
0
 40
0
 40
0
 40
0
 40
1
 40
1
 40
1
 40
1
 10
433.631535
 20
118.621241
 30
0.0
 10
433.409424
 20
118.621241
 30
0.0
 10
433.229368
 20
118.801298
 30
0.0
 10
433.229368
 20
119.023408
 30
0.0
  0
SPLINE
  5
286
100
AcDbEntity
  8
Laag_1
 62
7
100
AcDbSpline
 70
8
 71
3
 72
8
 73
4
 74
0
 40
0
 40
0
 40
0
 40
0
 40
1
 40
1
 40
1
 40
1
 10
433.229368
 20
119.023408
 30
0.0
 10
433.229368
 20
119.245518
 30
0.0
 10
433.409424
 20
119.425575
 30
0.0
 10
433.631535
 20
119.425575
 30
0.0
  0
SPLINE
  5
287
100
AcDbEntity
  8
Laag_1
 62
7
100
AcDbSpline
 70
8
 71
3
 72
8
 73
4
 74
0
 40
0
 40
0
 40
0
 40
0
 40
1
 40
1
 40
1
 40
1
 10
433.631535
 20
119.425575
 30
0.0
 10
433.853645
 20
119.425575
 30
0.0
 10
434.033701
 20
119.245518
 30
0.0
 10
434.033701
 20
119.023408
 30
0.0
  0
LWPOLYLINE
  5
288
100
AcDbEntity
  8
Laag_1
 62
7
100
AcDbPolyline
 90
10
 70
1
 10
434.287701
 20
118.748241
 30
0.0
 10
433.906701
 20
118.367241
 30
0.0
 10
433.356368
 20
118.367241
 30
0.0
 10
432.975368
 20
118.748241
 30
0.0
 10
432.975368
 20
119.298575
 30
0.0
 10
433.356368
 20
119.679575
 30
0.0
 10
433.906701
 20
119.679575
 30
0.0
 10
434.287701
 20
119.298575
 30
0.0
 10
434.287701
 20
118.748241
 30
0.0
 10
434.287701
 20
118.748241
 30
0.0
  0
LWPOLYLINE
  5
289
100
AcDbEntity
  8
Laag_1
 62
7
100
AcDbPolyline
 90
2
 70
1
 10
434.033701
 20
119.023408
 30
0.0
 10
434.033701
 20
119.023408
 30
0.0
  0
SPLINE
  5
28a
100
AcDbEntity
  8
Laag_1
 62
7
100
AcDbSpline
 70
8
 71
3
 72
8
 73
4
 74
0
 40
0
 40
0
 40
0
 40
0
 40
1
 40
1
 40
1
 40
1
 10
434.033701
 20
131.702241
 30
0.0
 10
434.033701
 20
131.480131
 30
0.0
 10
433.853645
 20
131.300075
 30
0.0
 10
433.631535
 20
131.300075
 30
0.0
  0
SPLINE
  5
28b
100
AcDbEntity
  8
Laag_1
 62
7
100
AcDbSpline
 70
8
 71
3
 72
8
 73
4
 74
0
 40
0
 40
0
 40
0
 40
0
 40
1
 40
1
 40
1
 40
1
 10
433.631535
 20
131.300075
 30
0.0
 10
433.409424
 20
131.300075
 30
0.0
 10
433.229368
 20
131.480131
 30
0.0
 10
433.229368
 20
131.702241
 30
0.0
  0
SPLINE
  5
28c
100
AcDbEntity
  8
Laag_1
 62
7
100
AcDbSpline
 70
8
 71
3
 72
8
 73
4
 74
0
 40
0
 40
0
 40
0
 40
0
 40
1
 40
1
 40
1
 40
1
 10
433.229368
 20
131.702241
 30
0.0
 10
433.229368
 20
131.924352
 30
0.0
 10
433.409424
 20
132.104408
 30
0.0
 10
433.631535
 20
132.104408
 30
0.0
  0
SPLINE
  5
28d
100
AcDbEntity
  8
Laag_1
 62
7
100
AcDbSpline
 70
8
 71
3
 72
8
 73
4
 74
0
 40
0
 40
0
 40
0
 40
0
 40
1
 40
1
 40
1
 40
1
 10
433.631535
 20
132.104408
 30
0.0
 10
433.853645
 20
132.104408
 30
0.0
 10
434.033701
 20
131.924352
 30
0.0
 10
434.033701
 20
131.702241
 30
0.0
  0
LWPOLYLINE
  5
28e
100
AcDbEntity
  8
Laag_1
 62
7
100
AcDbPolyline
 90
10
 70
1
 10
434.287701
 20
131.427075
 30
0.0
 10
433.906701
 20
131.046075
 30
0.0
 10
433.356368
 20
131.046075
 30
0.0
 10
432.975368
 20
131.427075
 30
0.0
 10
432.975368
 20
131.977408
 30
0.0
 10
433.356368
 20
132.358408
 30
0.0
 10
433.906701
 20
132.358408
 30
0.0
 10
434.287701
 20
131.977408
 30
0.0
 10
434.287701
 20
131.427075
 30
0.0
 10
434.287701
 20
131.427075
 30
0.0
  0
LWPOLYLINE
  5
28f
100
AcDbEntity
  8
Laag_1
 62
7
100
AcDbPolyline
 90
2
 70
1
 10
434.033701
 20
131.702241
 30
0.0
 10
434.033701
 20
131.702241
 30
0.0
  0
SPLINE
  5
290
100
AcDbEntity
  8
Laag_1
 62
7
100
AcDbSpline
 70
8
 71
3
 72
8
 73
4
 74
0
 40
0
 40
0
 40
0
 40
0
 40
1
 40
1
 40
1
 40
1
 10
435.938701
 20
132.972241
 30
0.0
 10
435.938701
 20
132.750131
 30
0.0
 10
435.758645
 20
132.570075
 30
0.0
 10
435.536535
 20
132.570075
 30
0.0
  0
SPLINE
  5
291
100
AcDbEntity
  8
Laag_1
 62
7
100
AcDbSpline
 70
8
 71
3
 72
8
 73
4
 74
0
 40
0
 40
0
 40
0
 40
0
 40
1
 40
1
 40
1
 40
1
 10
435.536535
 20
132.570075
 30
0.0
 10
435.314424
 20
132.570075
 30
0.0
 10
435.134368
 20
132.750131
 30
0.0
 10
435.134368
 20
132.972241
 30
0.0
  0
SPLINE
  5
292
100
AcDbEntity
  8
Laag_1
 62
7
100
AcDbSpline
 70
8
 71
3
 72
8
 73
4
 74
0
 40
0
 40
0
 40
0
 40
0
 40
1
 40
1
 40
1
 40
1
 10
435.134368
 20
132.972241
 30
0.0
 10
435.134368
 20
133.194352
 30
0.0
 10
435.314424
 20
133.374408
 30
0.0
 10
435.536535
 20
133.374408
 30
0.0
  0
SPLINE
  5
293
100
AcDbEntity
  8
Laag_1
 62
7
100
AcDbSpline
 70
8
 71
3
 72
8
 73
4
 74
0
 40
0
 40
0
 40
0
 40
0
 40
1
 40
1
 40
1
 40
1
 10
435.536535
 20
133.374408
 30
0.0
 10
435.758645
 20
133.374408
 30
0.0
 10
435.938701
 20
133.194352
 30
0.0
 10
435.938701
 20
132.972241
 30
0.0
  0
LWPOLYLINE
  5
294
100
AcDbEntity
  8
Laag_1
 62
7
100
AcDbPolyline
 90
10
 70
1
 10
436.192701
 20
132.697075
 30
0.0
 10
435.811701
 20
132.316075
 30
0.0
 10
435.261368
 20
132.316075
 30
0.0
 10
434.880368
 20
132.697075
 30
0.0
 10
434.880368
 20
133.247408
 30
0.0
 10
435.261368
 20
133.628408
 30
0.0
 10
435.811701
 20
133.628408
 30
0.0
 10
436.192701
 20
133.247408
 30
0.0
 10
436.192701
 20
132.697075
 30
0.0
 10
436.192701
 20
132.697075
 30
0.0
  0
LWPOLYLINE
  5
295
100
AcDbEntity
  8
Laag_1
 62
7
100
AcDbPolyline
 90
2
 70
1
 10
435.938701
 20
132.972241
 30
0.0
 10
435.938701
 20
132.972241
 30
0.0
  0
SPLINE
  5
296
100
AcDbEntity
  8
Laag_1
 62
7
100
AcDbSpline
 70
8
 71
3
 72
8
 73
4
 74
0
 40
0
 40
0
 40
0
 40
0
 40
1
 40
1
 40
1
 40
1
 10
434.033701
 20
134.242241
 30
0.0
 10
434.033701
 20
134.020131
 30
0.0
 10
433.853645
 20
133.840075
 30
0.0
 10
433.631535
 20
133.840075
 30
0.0
  0
SPLINE
  5
297
100
AcDbEntity
  8
Laag_1
 62
7
100
AcDbSpline
 70
8
 71
3
 72
8
 73
4
 74
0
 40
0
 40
0
 40
0
 40
0
 40
1
 40
1
 40
1
 40
1
 10
433.631535
 20
133.840075
 30
0.0
 10
433.409424
 20
133.840075
 30
0.0
 10
433.229368
 20
134.020131
 30
0.0
 10
433.229368
 20
134.242241
 30
0.0
  0
SPLINE
  5
298
100
AcDbEntity
  8
Laag_1
 62
7
100
AcDbSpline
 70
8
 71
3
 72
8
 73
4
 74
0
 40
0
 40
0
 40
0
 40
0
 40
1
 40
1
 40
1
 40
1
 10
433.229368
 20
134.242241
 30
0.0
 10
433.229368
 20
134.464352
 30
0.0
 10
433.409424
 20
134.644408
 30
0.0
 10
433.631535
 20
134.644408
 30
0.0
  0
SPLINE
  5
299
100
AcDbEntity
  8
Laag_1
 62
7
100
AcDbSpline
 70
8
 71
3
 72
8
 73
4
 74
0
 40
0
 40
0
 40
0
 40
0
 40
1
 40
1
 40
1
 40
1
 10
433.631535
 20
134.644408
 30
0.0
 10
433.853645
 20
134.644408
 30
0.0
 10
434.033701
 20
134.464352
 30
0.0
 10
434.033701
 20
134.242241
 30
0.0
  0
LWPOLYLINE
  5
29a
100
AcDbEntity
  8
Laag_1
 62
7
100
AcDbPolyline
 90
10
 70
1
 10
434.287701
 20
133.967075
 30
0.0
 10
433.906701
 20
133.586075
 30
0.0
 10
433.356368
 20
133.586075
 30
0.0
 10
432.975368
 20
133.967075
 30
0.0
 10
432.975368
 20
134.517408
 30
0.0
 10
433.356368
 20
134.898408
 30
0.0
 10
433.906701
 20
134.898408
 30
0.0
 10
434.287701
 20
134.517408
 30
0.0
 10
434.287701
 20
133.967075
 30
0.0
 10
434.287701
 20
133.967075
 30
0.0
  0
LWPOLYLINE
  5
29b
100
AcDbEntity
  8
Laag_1
 62
7
100
AcDbPolyline
 90
2
 70
1
 10
434.033701
 20
134.242241
 30
0.0
 10
434.033701
 20
134.242241
 30
0.0
  0
SPLINE
  5
29c
100
AcDbEntity
  8
Laag_1
 62
7
100
AcDbSpline
 70
8
 71
3
 72
8
 73
4
 74
0
 40
0
 40
0
 40
0
 40
0
 40
1
 40
1
 40
1
 40
1
 10
391.065368
 20
93.686908
 30
0.0
 10
391.065368
 20
93.359587
 30
0.0
 10
390.800023
 20
93.094241
 30
0.0
 10
390.472701
 20
93.094241
 30
0.0
  0
SPLINE
  5
29d
100
AcDbEntity
  8
Laag_1
 62
7
100
AcDbSpline
 70
8
 71
3
 72
8
 73
4
 74
0
 40
0
 40
0
 40
0
 40
0
 40
1
 40
1
 40
1
 40
1
 10
390.472701
 20
93.094241
 30
0.0
 10
390.145380
 20
93.094241
 30
0.0
 10
389.880035
 20
93.359587
 30
0.0
 10
389.880035
 20
93.686908
 30
0.0
  0
SPLINE
  5
29e
100
AcDbEntity
  8
Laag_1
 62
7
100
AcDbSpline
 70
8
 71
3
 72
8
 73
4
 74
0
 40
0
 40
0
 40
0
 40
0
 40
1
 40
1
 40
1
 40
1
 10
389.880035
 20
93.686908
 30
0.0
 10
389.880035
 20
94.014229
 30
0.0
 10
390.145380
 20
94.279575
 30
0.0
 10
390.472701
 20
94.279575
 30
0.0
  0
SPLINE
  5
29f
100
AcDbEntity
  8
Laag_1
 62
7
100
AcDbSpline
 70
8
 71
3
 72
8
 73
4
 74
0
 40
0
 40
0
 40
0
 40
0
 40
1
 40
1
 40
1
 40
1
 10
390.472701
 20
94.279575
 30
0.0
 10
390.800023
 20
94.279575
 30
0.0
 10
391.065368
 20
94.014229
 30
0.0
 10
391.065368
 20
93.686908
 30
0.0
  0
LWPOLYLINE
  5
2a0
100
AcDbEntity
  8
Laag_1
 62
7
100
AcDbPolyline
 90
2
 70
0
 10
391.361701
 20
93.686908
 30
0.0
 10
389.583701
 20
93.686908
 30
0.0
  0
LWPOLYLINE
  5
2a1
100
AcDbEntity
  8
Laag_1
 62
7
100
AcDbPolyline
 90
2
 70
1
 10
391.065368
 20
93.686908
 30
0.0
 10
391.065368
 20
93.686908
 30
0.0
  0
SPLINE
  5
2a2
100
AcDbEntity
  8
Laag_1
 62
7
100
AcDbSpline
 70
8
 71
3
 72
8
 73
4
 74
0
 40
0
 40
0
 40
0
 40
0
 40
1
 40
1
 40
1
 40
1
 10
391.065368
 20
98.682241
 30
0.0
 10
391.065368
 20
98.354920
 30
0.0
 10
390.800023
 20
98.089575
 30
0.0
 10
390.472701
 20
98.089575
 30
0.0
  0
SPLINE
  5
2a3
100
AcDbEntity
  8
Laag_1
 62
7
100
AcDbSpline
 70
8
 71
3
 72
8
 73
4
 74
0
 40
0
 40
0
 40
0
 40
0
 40
1
 40
1
 40
1
 40
1
 10
390.472701
 20
98.089575
 30
0.0
 10
390.145380
 20
98.089575
 30
0.0
 10
389.880035
 20
98.354920
 30
0.0
 10
389.880035
 20
98.682241
 30
0.0
  0
SPLINE
  5
2a4
100
AcDbEntity
  8
Laag_1
 62
7
100
AcDbSpline
 70
8
 71
3
 72
8
 73
4
 74
0
 40
0
 40
0
 40
0
 40
0
 40
1
 40
1
 40
1
 40
1
 10
389.880035
 20
98.682241
 30
0.0
 10
389.880035
 20
99.009563
 30
0.0
 10
390.145380
 20
99.274908
 30
0.0
 10
390.472701
 20
99.274908
 30
0.0
  0
SPLINE
  5
2a5
100
AcDbEntity
  8
Laag_1
 62
7
100
AcDbSpline
 70
8
 71
3
 72
8
 73
4
 74
0
 40
0
 40
0
 40
0
 40
0
 40
1
 40
1
 40
1
 40
1
 10
390.472701
 20
99.274908
 30
0.0
 10
390.800023
 20
99.274908
 30
0.0
 10
391.065368
 20
99.009563
 30
0.0
 10
391.065368
 20
98.682241
 30
0.0
  0
LWPOLYLINE
  5
2a6
100
AcDbEntity
  8
Laag_1
 62
7
100
AcDbPolyline
 90
2
 70
0
 10
391.361701
 20
98.682241
 30
0.0
 10
389.583701
 20
98.682241
 30
0.0
  0
LWPOLYLINE
  5
2a7
100
AcDbEntity
  8
Laag_1
 62
7
100
AcDbPolyline
 90
2
 70
1
 10
391.065368
 20
98.682241
 30
0.0
 10
391.065368
 20
98.682241
 30
0.0
  0
SPLINE
  5
2a8
100
AcDbEntity
  8
Laag_1
 62
7
100
AcDbSpline
 70
8
 71
3
 72
8
 73
4
 74
0
 40
0
 40
0
 40
0
 40
0
 40
1
 40
1
 40
1
 40
1
 10
391.065368
 20
103.825741
 30
0.0
 10
391.065368
 20
103.498420
 30
0.0
 10
390.800023
 20
103.233075
 30
0.0
 10
390.472701
 20
103.233075
 30
0.0
  0
SPLINE
  5
2a9
100
AcDbEntity
  8
Laag_1
 62
7
100
AcDbSpline
 70
8
 71
3
 72
8
 73
4
 74
0
 40
0
 40
0
 40
0
 40
0
 40
1
 40
1
 40
1
 40
1
 10
390.472701
 20
103.233075
 30
0.0
 10
390.145380
 20
103.233075
 30
0.0
 10
389.880035
 20
103.498420
 30
0.0
 10
389.880035
 20
103.825741
 30
0.0
  0
SPLINE
  5
2aa
100
AcDbEntity
  8
Laag_1
 62
7
100
AcDbSpline
 70
8
 71
3
 72
8
 73
4
 74
0
 40
0
 40
0
 40
0
 40
0
 40
1
 40
1
 40
1
 40
1
 10
389.880035
 20
103.825741
 30
0.0
 10
389.880035
 20
104.153063
 30
0.0
 10
390.145380
 20
104.418408
 30
0.0
 10
390.472701
 20
104.418408
 30
0.0
  0
SPLINE
  5
2ab
100
AcDbEntity
  8
Laag_1
 62
7
100
AcDbSpline
 70
8
 71
3
 72
8
 73
4
 74
0
 40
0
 40
0
 40
0
 40
0
 40
1
 40
1
 40
1
 40
1
 10
390.472701
 20
104.418408
 30
0.0
 10
390.800023
 20
104.418408
 30
0.0
 10
391.065368
 20
104.153063
 30
0.0
 10
391.065368
 20
103.825741
 30
0.0
  0
LWPOLYLINE
  5
2ac
100
AcDbEntity
  8
Laag_1
 62
7
100
AcDbPolyline
 90
2
 70
0
 10
391.361701
 20
103.825741
 30
0.0
 10
389.583701
 20
103.825741
 30
0.0
  0
LWPOLYLINE
  5
2ad
100
AcDbEntity
  8
Laag_1
 62
7
100
AcDbPolyline
 90
2
 70
1
 10
391.065368
 20
103.825741
 30
0.0
 10
391.065368
 20
103.825741
 30
0.0
  0
SPLINE
  5
2ae
100
AcDbEntity
  8
Laag_1
 62
7
100
AcDbSpline
 70
8
 71
3
 72
8
 73
4
 74
0
 40
0
 40
0
 40
0
 40
0
 40
1
 40
1
 40
1
 40
1
 10
391.065368
 20
108.821075
 30
0.0
 10
391.065368
 20
108.493753
 30
0.0
 10
390.800023
 20
108.228408
 30
0.0
 10
390.472701
 20
108.228408
 30
0.0
  0
SPLINE
  5
2af
100
AcDbEntity
  8
Laag_1
 62
7
100
AcDbSpline
 70
8
 71
3
 72
8
 73
4
 74
0
 40
0
 40
0
 40
0
 40
0
 40
1
 40
1
 40
1
 40
1
 10
390.472701
 20
108.228408
 30
0.0
 10
390.145380
 20
108.228408
 30
0.0
 10
389.880035
 20
108.493753
 30
0.0
 10
389.880035
 20
108.821075
 30
0.0
  0
SPLINE
  5
2b0
100
AcDbEntity
  8
Laag_1
 62
7
100
AcDbSpline
 70
8
 71
3
 72
8
 73
4
 74
0
 40
0
 40
0
 40
0
 40
0
 40
1
 40
1
 40
1
 40
1
 10
389.880035
 20
108.821075
 30
0.0
 10
389.880035
 20
109.148396
 30
0.0
 10
390.145380
 20
109.413741
 30
0.0
 10
390.472701
 20
109.413741
 30
0.0
  0
SPLINE
  5
2b1
100
AcDbEntity
  8
Laag_1
 62
7
100
AcDbSpline
 70
8
 71
3
 72
8
 73
4
 74
0
 40
0
 40
0
 40
0
 40
0
 40
1
 40
1
 40
1
 40
1
 10
390.472701
 20
109.413741
 30
0.0
 10
390.800023
 20
109.413741
 30
0.0
 10
391.065368
 20
109.148396
 30
0.0
 10
391.065368
 20
108.821075
 30
0.0
  0
LWPOLYLINE
  5
2b2
100
AcDbEntity
  8
Laag_1
 62
7
100
AcDbPolyline
 90
2
 70
0
 10
391.361701
 20
108.821075
 30
0.0
 10
389.583701
 20
108.821075
 30
0.0
  0
LWPOLYLINE
  5
2b3
100
AcDbEntity
  8
Laag_1
 62
7
100
AcDbPolyline
 90
2
 70
1
 10
391.065368
 20
108.821075
 30
0.0
 10
391.065368
 20
108.821075
 30
0.0
  0
SPLINE
  5
2b4
100
AcDbEntity
  8
Laag_1
 62
7
100
AcDbSpline
 70
8
 71
3
 72
8
 73
4
 74
0
 40
0
 40
0
 40
0
 40
0
 40
1
 40
1
 40
1
 40
1
 10
391.065368
 20
113.985741
 30
0.0
 10
391.065368
 20
113.658420
 30
0.0
 10
390.800023
 20
113.393075
 30
0.0
 10
390.472701
 20
113.393075
 30
0.0
  0
SPLINE
  5
2b5
100
AcDbEntity
  8
Laag_1
 62
7
100
AcDbSpline
 70
8
 71
3
 72
8
 73
4
 74
0
 40
0
 40
0
 40
0
 40
0
 40
1
 40
1
 40
1
 40
1
 10
390.472701
 20
113.393075
 30
0.0
 10
390.145380
 20
113.393075
 30
0.0
 10
389.880035
 20
113.658420
 30
0.0
 10
389.880035
 20
113.985741
 30
0.0
  0
SPLINE
  5
2b6
100
AcDbEntity
  8
Laag_1
 62
7
100
AcDbSpline
 70
8
 71
3
 72
8
 73
4
 74
0
 40
0
 40
0
 40
0
 40
0
 40
1
 40
1
 40
1
 40
1
 10
389.880035
 20
113.985741
 30
0.0
 10
389.880035
 20
114.313063
 30
0.0
 10
390.145380
 20
114.578408
 30
0.0
 10
390.472701
 20
114.578408
 30
0.0
  0
SPLINE
  5
2b7
100
AcDbEntity
  8
Laag_1
 62
7
100
AcDbSpline
 70
8
 71
3
 72
8
 73
4
 74
0
 40
0
 40
0
 40
0
 40
0
 40
1
 40
1
 40
1
 40
1
 10
390.472701
 20
114.578408
 30
0.0
 10
390.800023
 20
114.578408
 30
0.0
 10
391.065368
 20
114.313063
 30
0.0
 10
391.065368
 20
113.985741
 30
0.0
  0
LWPOLYLINE
  5
2b8
100
AcDbEntity
  8
Laag_1
 62
7
100
AcDbPolyline
 90
2
 70
0
 10
391.361701
 20
113.985741
 30
0.0
 10
389.583701
 20
113.985741
 30
0.0
  0
LWPOLYLINE
  5
2b9
100
AcDbEntity
  8
Laag_1
 62
7
100
AcDbPolyline
 90
2
 70
1
 10
391.065368
 20
113.985741
 30
0.0
 10
391.065368
 20
113.985741
 30
0.0
  0
SPLINE
  5
2ba
100
AcDbEntity
  8
Laag_1
 62
7
100
AcDbSpline
 70
8
 71
3
 72
8
 73
4
 74
0
 40
0
 40
0
 40
0
 40
0
 40
1
 40
1
 40
1
 40
1
 10
391.065368
 20
118.981075
 30
0.0
 10
391.065368
 20
118.653753
 30
0.0
 10
390.800023
 20
118.388408
 30
0.0
 10
390.472701
 20
118.388408
 30
0.0
  0
SPLINE
  5
2bb
100
AcDbEntity
  8
Laag_1
 62
7
100
AcDbSpline
 70
8
 71
3
 72
8
 73
4
 74
0
 40
0
 40
0
 40
0
 40
0
 40
1
 40
1
 40
1
 40
1
 10
390.472701
 20
118.388408
 30
0.0
 10
390.145380
 20
118.388408
 30
0.0
 10
389.880035
 20
118.653753
 30
0.0
 10
389.880035
 20
118.981075
 30
0.0
  0
SPLINE
  5
2bc
100
AcDbEntity
  8
Laag_1
 62
7
100
AcDbSpline
 70
8
 71
3
 72
8
 73
4
 74
0
 40
0
 40
0
 40
0
 40
0
 40
1
 40
1
 40
1
 40
1
 10
389.880035
 20
118.981075
 30
0.0
 10
389.880035
 20
119.308396
 30
0.0
 10
390.145380
 20
119.573741
 30
0.0
 10
390.472701
 20
119.573741
 30
0.0
  0
SPLINE
  5
2bd
100
AcDbEntity
  8
Laag_1
 62
7
100
AcDbSpline
 70
8
 71
3
 72
8
 73
4
 74
0
 40
0
 40
0
 40
0
 40
0
 40
1
 40
1
 40
1
 40
1
 10
390.472701
 20
119.573741
 30
0.0
 10
390.800023
 20
119.573741
 30
0.0
 10
391.065368
 20
119.308396
 30
0.0
 10
391.065368
 20
118.981075
 30
0.0
  0
LWPOLYLINE
  5
2be
100
AcDbEntity
  8
Laag_1
 62
7
100
AcDbPolyline
 90
2
 70
0
 10
391.361701
 20
118.981075
 30
0.0
 10
389.583701
 20
118.981075
 30
0.0
  0
LWPOLYLINE
  5
2bf
100
AcDbEntity
  8
Laag_1
 62
7
100
AcDbPolyline
 90
2
 70
1
 10
391.065368
 20
118.981075
 30
0.0
 10
391.065368
 20
118.981075
 30
0.0
  0
SPLINE
  5
2c0
100
AcDbEntity
  8
Laag_1
 62
7
100
AcDbSpline
 70
8
 71
3
 72
8
 73
4
 74
0
 40
0
 40
0
 40
0
 40
0
 40
1
 40
1
 40
1
 40
1
 10
391.065368
 20
124.145741
 30
0.0
 10
391.065368
 20
123.818420
 30
0.0
 10
390.800023
 20
123.553075
 30
0.0
 10
390.472701
 20
123.553075
 30
0.0
  0
SPLINE
  5
2c1
100
AcDbEntity
  8
Laag_1
 62
7
100
AcDbSpline
 70
8
 71
3
 72
8
 73
4
 74
0
 40
0
 40
0
 40
0
 40
0
 40
1
 40
1
 40
1
 40
1
 10
390.472701
 20
123.553075
 30
0.0
 10
390.145380
 20
123.553075
 30
0.0
 10
389.880035
 20
123.818420
 30
0.0
 10
389.880035
 20
124.145741
 30
0.0
  0
SPLINE
  5
2c2
100
AcDbEntity
  8
Laag_1
 62
7
100
AcDbSpline
 70
8
 71
3
 72
8
 73
4
 74
0
 40
0
 40
0
 40
0
 40
0
 40
1
 40
1
 40
1
 40
1
 10
389.880035
 20
124.145741
 30
0.0
 10
389.880035
 20
124.473063
 30
0.0
 10
390.145380
 20
124.738408
 30
0.0
 10
390.472701
 20
124.738408
 30
0.0
  0
SPLINE
  5
2c3
100
AcDbEntity
  8
Laag_1
 62
7
100
AcDbSpline
 70
8
 71
3
 72
8
 73
4
 74
0
 40
0
 40
0
 40
0
 40
0
 40
1
 40
1
 40
1
 40
1
 10
390.472701
 20
124.738408
 30
0.0
 10
390.800023
 20
124.738408
 30
0.0
 10
391.065368
 20
124.473063
 30
0.0
 10
391.065368
 20
124.145741
 30
0.0
  0
LWPOLYLINE
  5
2c4
100
AcDbEntity
  8
Laag_1
 62
7
100
AcDbPolyline
 90
2
 70
0
 10
391.361701
 20
124.145741
 30
0.0
 10
389.583701
 20
124.145741
 30
0.0
  0
LWPOLYLINE
  5
2c5
100
AcDbEntity
  8
Laag_1
 62
7
100
AcDbPolyline
 90
2
 70
1
 10
391.065368
 20
124.145741
 30
0.0
 10
391.065368
 20
124.145741
 30
0.0
  0
SPLINE
  5
2c6
100
AcDbEntity
  8
Laag_1
 62
7
100
AcDbSpline
 70
8
 71
3
 72
8
 73
4
 74
0
 40
0
 40
0
 40
0
 40
0
 40
1
 40
1
 40
1
 40
1
 10
391.065368
 20
129.141075
 30
0.0
 10
391.065368
 20
128.813753
 30
0.0
 10
390.800023
 20
128.548408
 30
0.0
 10
390.472701
 20
128.548408
 30
0.0
  0
SPLINE
  5
2c7
100
AcDbEntity
  8
Laag_1
 62
7
100
AcDbSpline
 70
8
 71
3
 72
8
 73
4
 74
0
 40
0
 40
0
 40
0
 40
0
 40
1
 40
1
 40
1
 40
1
 10
390.472701
 20
128.548408
 30
0.0
 10
390.145380
 20
128.548408
 30
0.0
 10
389.880035
 20
128.813753
 30
0.0
 10
389.880035
 20
129.141075
 30
0.0
  0
SPLINE
  5
2c8
100
AcDbEntity
  8
Laag_1
 62
7
100
AcDbSpline
 70
8
 71
3
 72
8
 73
4
 74
0
 40
0
 40
0
 40
0
 40
0
 40
1
 40
1
 40
1
 40
1
 10
389.880035
 20
129.141075
 30
0.0
 10
389.880035
 20
129.468396
 30
0.0
 10
390.145380
 20
129.733741
 30
0.0
 10
390.472701
 20
129.733741
 30
0.0
  0
SPLINE
  5
2c9
100
AcDbEntity
  8
Laag_1
 62
7
100
AcDbSpline
 70
8
 71
3
 72
8
 73
4
 74
0
 40
0
 40
0
 40
0
 40
0
 40
1
 40
1
 40
1
 40
1
 10
390.472701
 20
129.733741
 30
0.0
 10
390.800023
 20
129.733741
 30
0.0
 10
391.065368
 20
129.468396
 30
0.0
 10
391.065368
 20
129.141075
 30
0.0
  0
LWPOLYLINE
  5
2ca
100
AcDbEntity
  8
Laag_1
 62
7
100
AcDbPolyline
 90
2
 70
0
 10
391.361701
 20
129.141075
 30
0.0
 10
389.583701
 20
129.141075
 30
0.0
  0
LWPOLYLINE
  5
2cb
100
AcDbEntity
  8
Laag_1
 62
7
100
AcDbPolyline
 90
2
 70
1
 10
391.065368
 20
129.141075
 30
0.0
 10
391.065368
 20
129.141075
 30
0.0
  0
SPLINE
  5
2cc
100
AcDbEntity
  8
Laag_1
 62
7
100
AcDbSpline
 70
8
 71
3
 72
8
 73
4
 74
0
 40
0
 40
0
 40
0
 40
0
 40
1
 40
1
 40
1
 40
1
 10
456.364535
 20
107.847408
 30
0.0
 10
456.364535
 20
107.625298
 30
0.0
 10
456.184478
 20
107.445241
 30
0.0
 10
455.962368
 20
107.445241
 30
0.0
  0
SPLINE
  5
2cd
100
AcDbEntity
  8
Laag_1
 62
7
100
AcDbSpline
 70
8
 71
3
 72
8
 73
4
 74
0
 40
0
 40
0
 40
0
 40
0
 40
1
 40
1
 40
1
 40
1
 10
455.962368
 20
107.445241
 30
0.0
 10
455.740258
 20
107.445241
 30
0.0
 10
455.560201
 20
107.625298
 30
0.0
 10
455.560201
 20
107.847408
 30
0.0
  0
SPLINE
  5
2ce
100
AcDbEntity
  8
Laag_1
 62
7
100
AcDbSpline
 70
8
 71
3
 72
8
 73
4
 74
0
 40
0
 40
0
 40
0
 40
0
 40
1
 40
1
 40
1
 40
1
 10
455.560201
 20
107.847408
 30
0.0
 10
455.560201
 20
108.069518
 30
0.0
 10
455.740258
 20
108.249575
 30
0.0
 10
455.962368
 20
108.249575
 30
0.0
  0
SPLINE
  5
2cf
100
AcDbEntity
  8
Laag_1
 62
7
100
AcDbSpline
 70
8
 71
3
 72
8
 73
4
 74
0
 40
0
 40
0
 40
0
 40
0
 40
1
 40
1
 40
1
 40
1
 10
455.962368
 20
108.249575
 30
0.0
 10
456.184478
 20
108.249575
 30
0.0
 10
456.364535
 20
108.069518
 30
0.0
 10
456.364535
 20
107.847408
 30
0.0
  0
LWPOLYLINE
  5
2d0
100
AcDbEntity
  8
Laag_1
 62
7
100
AcDbPolyline
 90
10
 70
1
 10
456.618535
 20
107.572241
 30
0.0
 10
456.237535
 20
107.191241
 30
0.0
 10
455.687201
 20
107.191241
 30
0.0
 10
455.306201
 20
107.572241
 30
0.0
 10
455.306201
 20
108.122575
 30
0.0
 10
455.687201
 20
108.503575
 30
0.0
 10
456.237535
 20
108.503575
 30
0.0
 10
456.618535
 20
108.122575
 30
0.0
 10
456.618535
 20
107.572241
 30
0.0
 10
456.618535
 20
107.572241
 30
0.0
  0
LWPOLYLINE
  5
2d1
100
AcDbEntity
  8
Laag_1
 62
7
100
AcDbPolyline
 90
2
 70
1
 10
456.364535
 20
107.847408
 30
0.0
 10
456.364535
 20
107.847408
 30
0.0
  0
SPLINE
  5
2d2
100
AcDbEntity
  8
Laag_1
 62
7
100
AcDbSpline
 70
8
 71
3
 72
8
 73
4
 74
0
 40
0
 40
0
 40
0
 40
0
 40
1
 40
1
 40
1
 40
1
 10
456.364535
 20
95.168575
 30
0.0
 10
456.364535
 20
94.946464
 30
0.0
 10
456.184478
 20
94.766408
 30
0.0
 10
455.962368
 20
94.766408
 30
0.0
  0
SPLINE
  5
2d3
100
AcDbEntity
  8
Laag_1
 62
7
100
AcDbSpline
 70
8
 71
3
 72
8
 73
4
 74
0
 40
0
 40
0
 40
0
 40
0
 40
1
 40
1
 40
1
 40
1
 10
455.962368
 20
94.766408
 30
0.0
 10
455.740258
 20
94.766408
 30
0.0
 10
455.560201
 20
94.946464
 30
0.0
 10
455.560201
 20
95.168575
 30
0.0
  0
SPLINE
  5
2d4
100
AcDbEntity
  8
Laag_1
 62
7
100
AcDbSpline
 70
8
 71
3
 72
8
 73
4
 74
0
 40
0
 40
0
 40
0
 40
0
 40
1
 40
1
 40
1
 40
1
 10
455.560201
 20
95.168575
 30
0.0
 10
455.560201
 20
95.390685
 30
0.0
 10
455.740258
 20
95.570741
 30
0.0
 10
455.962368
 20
95.570741
 30
0.0
  0
SPLINE
  5
2d5
100
AcDbEntity
  8
Laag_1
 62
7
100
AcDbSpline
 70
8
 71
3
 72
8
 73
4
 74
0
 40
0
 40
0
 40
0
 40
0
 40
1
 40
1
 40
1
 40
1
 10
455.962368
 20
95.570741
 30
0.0
 10
456.184478
 20
95.570741
 30
0.0
 10
456.364535
 20
95.390685
 30
0.0
 10
456.364535
 20
95.168575
 30
0.0
  0
LWPOLYLINE
  5
2d6
100
AcDbEntity
  8
Laag_1
 62
7
100
AcDbPolyline
 90
10
 70
1
 10
456.618535
 20
94.893408
 30
0.0
 10
456.237535
 20
94.512408
 30
0.0
 10
455.687201
 20
94.512408
 30
0.0
 10
455.306201
 20
94.893408
 30
0.0
 10
455.306201
 20
95.443741
 30
0.0
 10
455.687201
 20
95.824741
 30
0.0
 10
456.237535
 20
95.824741
 30
0.0
 10
456.618535
 20
95.443741
 30
0.0
 10
456.618535
 20
94.893408
 30
0.0
 10
456.618535
 20
94.893408
 30
0.0
  0
LWPOLYLINE
  5
2d7
100
AcDbEntity
  8
Laag_1
 62
7
100
AcDbPolyline
 90
2
 70
1
 10
456.364535
 20
95.168575
 30
0.0
 10
456.364535
 20
95.168575
 30
0.0
  0
SPLINE
  5
2d8
100
AcDbEntity
  8
Laag_1
 62
7
100
AcDbSpline
 70
8
 71
3
 72
8
 73
4
 74
0
 40
0
 40
0
 40
0
 40
0
 40
1
 40
1
 40
1
 40
1
 10
387.826868
 20
145.672241
 30
0.0
 10
387.826868
 20
145.590411
 30
0.0
 10
387.760532
 20
145.524075
 30
0.0
 10
387.678701
 20
145.524075
 30
0.0
  0
SPLINE
  5
2d9
100
AcDbEntity
  8
Laag_1
 62
7
100
AcDbSpline
 70
8
 71
3
 72
8
 73
4
 74
0
 40
0
 40
0
 40
0
 40
0
 40
1
 40
1
 40
1
 40
1
 10
387.678701
 20
145.524075
 30
0.0
 10
387.596871
 20
145.524075
 30
0.0
 10
387.530535
 20
145.590411
 30
0.0
 10
387.530535
 20
145.672241
 30
0.0
  0
SPLINE
  5
2da
100
AcDbEntity
  8
Laag_1
 62
7
100
AcDbSpline
 70
8
 71
3
 72
8
 73
4
 74
0
 40
0
 40
0
 40
0
 40
0
 40
1
 40
1
 40
1
 40
1
 10
387.530535
 20
145.672241
 30
0.0
 10
387.530535
 20
145.754072
 30
0.0
 10
387.596871
 20
145.820408
 30
0.0
 10
387.678701
 20
145.820408
 30
0.0
  0
SPLINE
  5
2db
100
AcDbEntity
  8
Laag_1
 62
7
100
AcDbSpline
 70
8
 71
3
 72
8
 73
4
 74
0
 40
0
 40
0
 40
0
 40
0
 40
1
 40
1
 40
1
 40
1
 10
387.678701
 20
145.820408
 30
0.0
 10
387.760532
 20
145.820408
 30
0.0
 10
387.826868
 20
145.754072
 30
0.0
 10
387.826868
 20
145.672241
 30
0.0
  0
LWPOLYLINE
  5
2dc
100
AcDbEntity
  8
Laag_1
 62
7
100
AcDbPolyline
 90
5
 70
0
 10
385.392701
 20
86.024575
 30
0.0
 10
476.451701
 20
86.024575
 30
0.0
 10
476.705701
 20
148.445075
 30
0.0
 10
385.646701
 20
148.445075
 30
0.0
 10
385.392701
 20
86.024575
 30
0.0
  0
SPLINE
  5
2dd
100
AcDbEntity
  8
Laag_1
 62
7
100
AcDbSpline
 70
8
 71
3
 72
8
 73
4
 74
0
 40
0
 40
0
 40
0
 40
0
 40
1
 40
1
 40
1
 40
1
 10
387.826868
 20
145.672241
 30
0.0
 10
387.826868
 20
145.590411
 30
0.0
 10
387.760532
 20
145.524075
 30
0.0
 10
387.678701
 20
145.524075
 30
0.0
  0
SPLINE
  5
2de
100
AcDbEntity
  8
Laag_1
 62
7
100
AcDbSpline
 70
8
 71
3
 72
8
 73
4
 74
0
 40
0
 40
0
 40
0
 40
0
 40
1
 40
1
 40
1
 40
1
 10
387.678701
 20
145.524075
 30
0.0
 10
387.596871
 20
145.524075
 30
0.0
 10
387.530535
 20
145.590411
 30
0.0
 10
387.530535
 20
145.672241
 30
0.0
  0
SPLINE
  5
2df
100
AcDbEntity
  8
Laag_1
 62
7
100
AcDbSpline
 70
8
 71
3
 72
8
 73
4
 74
0
 40
0
 40
0
 40
0
 40
0
 40
1
 40
1
 40
1
 40
1
 10
387.530535
 20
145.672241
 30
0.0
 10
387.530535
 20
145.754072
 30
0.0
 10
387.596871
 20
145.820408
 30
0.0
 10
387.678701
 20
145.820408
 30
0.0
  0
SPLINE
  5
2e0
100
AcDbEntity
  8
Laag_1
 62
7
100
AcDbSpline
 70
8
 71
3
 72
8
 73
4
 74
0
 40
0
 40
0
 40
0
 40
0
 40
1
 40
1
 40
1
 40
1
 10
387.678701
 20
145.820408
 30
0.0
 10
387.760532
 20
145.820408
 30
0.0
 10
387.826868
 20
145.754072
 30
0.0
 10
387.826868
 20
145.672241
 30
0.0
  0
SPLINE
  5
2e1
100
AcDbEntity
  8
Laag_1
 62
7
100
AcDbSpline
 70
8
 71
3
 72
8
 73
4
 74
0
 40
0
 40
0
 40
0
 40
0
 40
1
 40
1
 40
1
 40
1
 10
387.318868
 20
88.056575
 30
0.0
 10
387.318868
 20
87.974744
 30
0.0
 10
387.252532
 20
87.908408
 30
0.0
 10
387.170701
 20
87.908408
 30
0.0
  0
SPLINE
  5
2e2
100
AcDbEntity
  8
Laag_1
 62
7
100
AcDbSpline
 70
8
 71
3
 72
8
 73
4
 74
0
 40
0
 40
0
 40
0
 40
0
 40
1
 40
1
 40
1
 40
1
 10
387.170701
 20
87.908408
 30
0.0
 10
387.088871
 20
87.908408
 30
0.0
 10
387.022535
 20
87.974744
 30
0.0
 10
387.022535
 20
88.056575
 30
0.0
  0
SPLINE
  5
2e3
100
AcDbEntity
  8
Laag_1
 62
7
100
AcDbSpline
 70
8
 71
3
 72
8
 73
4
 74
0
 40
0
 40
0
 40
0
 40
0
 40
1
 40
1
 40
1
 40
1
 10
387.022535
 20
88.056575
 30
0.0
 10
387.022535
 20
88.138405
 30
0.0
 10
387.088871
 20
88.204741
 30
0.0
 10
387.170701
 20
88.204741
 30
0.0
  0
SPLINE
  5
2e4
100
AcDbEntity
  8
Laag_1
 62
7
100
AcDbSpline
 70
8
 71
3
 72
8
 73
4
 74
0
 40
0
 40
0
 40
0
 40
0
 40
1
 40
1
 40
1
 40
1
 10
387.170701
 20
88.204741
 30
0.0
 10
387.252532
 20
88.204741
 30
0.0
 10
387.318868
 20
88.138405
 30
0.0
 10
387.318868
 20
88.056575
 30
0.0
  0
LWPOLYLINE
  5
2e5
100
AcDbEntity
  8
Laag_1
 62
7
100
AcDbPolyline
 90
3
 70
1
 10
387.826868
 20
145.672241
 30
0.0
 10
387.826868
 20
145.672241
 30
0.0
 10
387.826868
 20
145.672241
 30
0.0
  0
SPLINE
  5
2e6
100
AcDbEntity
  8
Laag_1
 62
7
100
AcDbSpline
 70
8
 71
3
 72
8
 73
4
 74
0
 40
0
 40
0
 40
0
 40
0
 40
1
 40
1
 40
1
 40
1
 10
387.318868
 20
88.056575
 30
0.0
 10
387.318868
 20
87.974744
 30
0.0
 10
387.252532
 20
87.908408
 30
0.0
 10
387.170701
 20
87.908408
 30
0.0
  0
SPLINE
  5
2e7
100
AcDbEntity
  8
Laag_1
 62
7
100
AcDbSpline
 70
8
 71
3
 72
8
 73
4
 74
0
 40
0
 40
0
 40
0
 40
0
 40
1
 40
1
 40
1
 40
1
 10
387.170701
 20
87.908408
 30
0.0
 10
387.088871
 20
87.908408
 30
0.0
 10
387.022535
 20
87.974744
 30
0.0
 10
387.022535
 20
88.056575
 30
0.0
  0
SPLINE
  5
2e8
100
AcDbEntity
  8
Laag_1
 62
7
100
AcDbSpline
 70
8
 71
3
 72
8
 73
4
 74
0
 40
0
 40
0
 40
0
 40
0
 40
1
 40
1
 40
1
 40
1
 10
387.022535
 20
88.056575
 30
0.0
 10
387.022535
 20
88.138405
 30
0.0
 10
387.088871
 20
88.204741
 30
0.0
 10
387.170701
 20
88.204741
 30
0.0
  0
SPLINE
  5
2e9
100
AcDbEntity
  8
Laag_1
 62
7
100
AcDbSpline
 70
8
 71
3
 72
8
 73
4
 74
0
 40
0
 40
0
 40
0
 40
0
 40
1
 40
1
 40
1
 40
1
 10
387.170701
 20
88.204741
 30
0.0
 10
387.252532
 20
88.204741
 30
0.0
 10
387.318868
 20
88.138405
 30
0.0
 10
387.318868
 20
88.056575
 30
0.0
  0
SPLINE
  5
2ea
100
AcDbEntity
  8
Laag_1
 62
7
100
AcDbSpline
 70
8
 71
3
 72
8
 73
4
 74
0
 40
0
 40
0
 40
0
 40
0
 40
1
 40
1
 40
1
 40
1
 10
474.144535
 20
145.926241
 30
0.0
 10
474.144535
 20
145.844411
 30
0.0
 10
474.078198
 20
145.778075
 30
0.0
 10
473.996368
 20
145.778075
 30
0.0
  0
SPLINE
  5
2eb
100
AcDbEntity
  8
Laag_1
 62
7
100
AcDbSpline
 70
8
 71
3
 72
8
 73
4
 74
0
 40
0
 40
0
 40
0
 40
0
 40
1
 40
1
 40
1
 40
1
 10
473.996368
 20
145.778075
 30
0.0
 10
473.914538
 20
145.778075
 30
0.0
 10
473.848201
 20
145.844411
 30
0.0
 10
473.848201
 20
145.926241
 30
0.0
  0
SPLINE
  5
2ec
100
AcDbEntity
  8
Laag_1
 62
7
100
AcDbSpline
 70
8
 71
3
 72
8
 73
4
 74
0
 40
0
 40
0
 40
0
 40
0
 40
1
 40
1
 40
1
 40
1
 10
473.848201
 20
145.926241
 30
0.0
 10
473.848201
 20
146.008072
 30
0.0
 10
473.914538
 20
146.074408
 30
0.0
 10
473.996368
 20
146.074408
 30
0.0
  0
SPLINE
  5
2ed
100
AcDbEntity
  8
Laag_1
 62
7
100
AcDbSpline
 70
8
 71
3
 72
8
 73
4
 74
0
 40
0
 40
0
 40
0
 40
0
 40
1
 40
1
 40
1
 40
1
 10
473.996368
 20
146.074408
 30
0.0
 10
474.078198
 20
146.074408
 30
0.0
 10
474.144535
 20
146.008072
 30
0.0
 10
474.144535
 20
145.926241
 30
0.0
  0
LWPOLYLINE
  5
2ee
100
AcDbEntity
  8
Laag_1
 62
7
100
AcDbPolyline
 90
3
 70
1
 10
387.318868
 20
88.056575
 30
0.0
 10
387.318868
 20
88.056575
 30
0.0
 10
387.318868
 20
88.056575
 30
0.0
  0
SPLINE
  5
2ef
100
AcDbEntity
  8
Laag_1
 62
7
100
AcDbSpline
 70
8
 71
3
 72
8
 73
4
 74
0
 40
0
 40
0
 40
0
 40
0
 40
1
 40
1
 40
1
 40
1
 10
474.144535
 20
145.926241
 30
0.0
 10
474.144535
 20
145.844411
 30
0.0
 10
474.078198
 20
145.778075
 30
0.0
 10
473.996368
 20
145.778075
 30
0.0
  0
SPLINE
  5
2f0
100
AcDbEntity
  8
Laag_1
 62
7
100
AcDbSpline
 70
8
 71
3
 72
8
 73
4
 74
0
 40
0
 40
0
 40
0
 40
0
 40
1
 40
1
 40
1
 40
1
 10
473.996368
 20
145.778075
 30
0.0
 10
473.914538
 20
145.778075
 30
0.0
 10
473.848201
 20
145.844411
 30
0.0
 10
473.848201
 20
145.926241
 30
0.0
  0
SPLINE
  5
2f1
100
AcDbEntity
  8
Laag_1
 62
7
100
AcDbSpline
 70
8
 71
3
 72
8
 73
4
 74
0
 40
0
 40
0
 40
0
 40
0
 40
1
 40
1
 40
1
 40
1
 10
473.848201
 20
145.926241
 30
0.0
 10
473.848201
 20
146.008072
 30
0.0
 10
473.914538
 20
146.074408
 30
0.0
 10
473.996368
 20
146.074408
 30
0.0
  0
SPLINE
  5
2f2
100
AcDbEntity
  8
Laag_1
 62
7
100
AcDbSpline
 70
8
 71
3
 72
8
 73
4
 74
0
 40
0
 40
0
 40
0
 40
0
 40
1
 40
1
 40
1
 40
1
 10
473.996368
 20
146.074408
 30
0.0
 10
474.078198
 20
146.074408
 30
0.0
 10
474.144535
 20
146.008072
 30
0.0
 10
474.144535
 20
145.926241
 30
0.0
  0
SPLINE
  5
2f3
100
AcDbEntity
  8
Laag_1
 62
7
100
AcDbSpline
 70
8
 71
3
 72
8
 73
4
 74
0
 40
0
 40
0
 40
0
 40
0
 40
1
 40
1
 40
1
 40
1
 10
474.144535
 20
87.548575
 30
0.0
 10
474.144535
 20
87.466744
 30
0.0
 10
474.078198
 20
87.400408
 30
0.0
 10
473.996368
 20
87.400408
 30
0.0
  0
SPLINE
  5
2f4
100
AcDbEntity
  8
Laag_1
 62
7
100
AcDbSpline
 70
8
 71
3
 72
8
 73
4
 74
0
 40
0
 40
0
 40
0
 40
0
 40
1
 40
1
 40
1
 40
1
 10
473.996368
 20
87.400408
 30
0.0
 10
473.914538
 20
87.400408
 30
0.0
 10
473.848201
 20
87.466744
 30
0.0
 10
473.848201
 20
87.548575
 30
0.0
  0
SPLINE
  5
2f5
100
AcDbEntity
  8
Laag_1
 62
7
100
AcDbSpline
 70
8
 71
3
 72
8
 73
4
 74
0
 40
0
 40
0
 40
0
 40
0
 40
1
 40
1
 40
1
 40
1
 10
473.848201
 20
87.548575
 30
0.0
 10
473.848201
 20
87.630405
 30
0.0
 10
473.914538
 20
87.696741
 30
0.0
 10
473.996368
 20
87.696741
 30
0.0
  0
SPLINE
  5
2f6
100
AcDbEntity
  8
Laag_1
 62
7
100
AcDbSpline
 70
8
 71
3
 72
8
 73
4
 74
0
 40
0
 40
0
 40
0
 40
0
 40
1
 40
1
 40
1
 40
1
 10
473.996368
 20
87.696741
 30
0.0
 10
474.078198
 20
87.696741
 30
0.0
 10
474.144535
 20
87.630405
 30
0.0
 10
474.144535
 20
87.548575
 30
0.0
  0
LWPOLYLINE
  5
2f7
100
AcDbEntity
  8
Laag_1
 62
7
100
AcDbPolyline
 90
3
 70
1
 10
474.144535
 20
145.926241
 30
0.0
 10
474.144535
 20
145.926241
 30
0.0
 10
474.144535
 20
145.926241
 30
0.0
  0
SPLINE
  5
2f8
100
AcDbEntity
  8
Laag_1
 62
7
100
AcDbSpline
 70
8
 71
3
 72
8
 73
4
 74
0
 40
0
 40
0
 40
0
 40
0
 40
1
 40
1
 40
1
 40
1
 10
474.144535
 20
87.548575
 30
0.0
 10
474.144535
 20
87.466744
 30
0.0
 10
474.078198
 20
87.400408
 30
0.0
 10
473.996368
 20
87.400408
 30
0.0
  0
SPLINE
  5
2f9
100
AcDbEntity
  8
Laag_1
 62
7
100
AcDbSpline
 70
8
 71
3
 72
8
 73
4
 74
0
 40
0
 40
0
 40
0
 40
0
 40
1
 40
1
 40
1
 40
1
 10
473.996368
 20
87.400408
 30
0.0
 10
473.914538
 20
87.400408
 30
0.0
 10
473.848201
 20
87.466744
 30
0.0
 10
473.848201
 20
87.548575
 30
0.0
  0
SPLINE
  5
2fa
100
AcDbEntity
  8
Laag_1
 62
7
100
AcDbSpline
 70
8
 71
3
 72
8
 73
4
 74
0
 40
0
 40
0
 40
0
 40
0
 40
1
 40
1
 40
1
 40
1
 10
473.848201
 20
87.548575
 30
0.0
 10
473.848201
 20
87.630405
 30
0.0
 10
473.914538
 20
87.696741
 30
0.0
 10
473.996368
 20
87.696741
 30
0.0
  0
SPLINE
  5
2fb
100
AcDbEntity
  8
Laag_1
 62
7
100
AcDbSpline
 70
8
 71
3
 72
8
 73
4
 74
0
 40
0
 40
0
 40
0
 40
0
 40
1
 40
1
 40
1
 40
1
 10
473.996368
 20
87.696741
 30
0.0
 10
474.078198
 20
87.696741
 30
0.0
 10
474.144535
 20
87.630405
 30
0.0
 10
474.144535
 20
87.548575
 30
0.0
  0
SPLINE
  5
2fc
100
AcDbEntity
  8
Laag_1
 62
7
100
AcDbSpline
 70
8
 71
3
 72
8
 73
4
 74
0
 40
0
 40
0
 40
0
 40
0
 40
1
 40
1
 40
1
 40
1
 10
388.673535
 20
145.672241
 30
0.0
 10
388.673535
 20
145.122810
 30
0.0
 10
388.228133
 20
144.677408
 30
0.0
 10
387.678701
 20
144.677408
 30
0.0
  0
SPLINE
  5
2fd
100
AcDbEntity
  8
Laag_1
 62
7
100
AcDbSpline
 70
8
 71
3
 72
8
 73
4
 74
0
 40
0
 40
0
 40
0
 40
0
 40
1
 40
1
 40
1
 40
1
 10
387.678701
 20
144.677408
 30
0.0
 10
387.129270
 20
144.677408
 30
0.0
 10
386.683868
 20
145.122810
 30
0.0
 10
386.683868
 20
145.672241
 30
0.0
  0
SPLINE
  5
2fe
100
AcDbEntity
  8
Laag_1
 62
7
100
AcDbSpline
 70
8
 71
3
 72
8
 73
4
 74
0
 40
0
 40
0
 40
0
 40
0
 40
1
 40
1
 40
1
 40
1
 10
386.683868
 20
145.672241
 30
0.0
 10
386.683868
 20
146.221673
 30
0.0
 10
387.129270
 20
146.667075
 30
0.0
 10
387.678701
 20
146.667075
 30
0.0
  0
SPLINE
  5
2ff
100
AcDbEntity
  8
Laag_1
 62
7
100
AcDbSpline
 70
8
 71
3
 72
8
 73
4
 74
0
 40
0
 40
0
 40
0
 40
0
 40
1
 40
1
 40
1
 40
1
 10
387.678701
 20
146.667075
 30
0.0
 10
388.228133
 20
146.667075
 30
0.0
 10
388.673535
 20
146.221673
 30
0.0
 10
388.673535
 20
145.672241
 30
0.0
  0
LWPOLYLINE
  5
300
100
AcDbEntity
  8
Laag_1
 62
7
100
AcDbPolyline
 90
3
 70
1
 10
474.144535
 20
87.548575
 30
0.0
 10
474.144535
 20
87.548575
 30
0.0
 10
474.144535
 20
87.548575
 30
0.0
  0
LWPOLYLINE
  5
301
100
AcDbEntity
  8
Laag_1
 62
7
100
AcDbPolyline
 90
2
 70
1
 10
388.673535
 20
145.672241
 30
0.0
 10
388.673535
 20
145.672241
 30
0.0
  0
SPLINE
  5
302
100
AcDbEntity
  8
Laag_1
 62
7
100
AcDbSpline
 70
8
 71
3
 72
8
 73
4
 74
0
 40
0
 40
0
 40
0
 40
0
 40
1
 40
1
 40
1
 40
1
 10
388.165535
 20
88.056575
 30
0.0
 10
388.165535
 20
87.507143
 30
0.0
 10
387.720133
 20
87.061741
 30
0.0
 10
387.170701
 20
87.061741
 30
0.0
  0
SPLINE
  5
303
100
AcDbEntity
  8
Laag_1
 62
7
100
AcDbSpline
 70
8
 71
3
 72
8
 73
4
 74
0
 40
0
 40
0
 40
0
 40
0
 40
1
 40
1
 40
1
 40
1
 10
387.170701
 20
87.061741
 30
0.0
 10
386.621270
 20
87.061741
 30
0.0
 10
386.175868
 20
87.507143
 30
0.0
 10
386.175868
 20
88.056575
 30
0.0
  0
SPLINE
  5
304
100
AcDbEntity
  8
Laag_1
 62
7
100
AcDbSpline
 70
8
 71
3
 72
8
 73
4
 74
0
 40
0
 40
0
 40
0
 40
0
 40
1
 40
1
 40
1
 40
1
 10
386.175868
 20
88.056575
 30
0.0
 10
386.175868
 20
88.606006
 30
0.0
 10
386.621270
 20
89.051408
 30
0.0
 10
387.170701
 20
89.051408
 30
0.0
  0
SPLINE
  5
305
100
AcDbEntity
  8
Laag_1
 62
7
100
AcDbSpline
 70
8
 71
3
 72
8
 73
4
 74
0
 40
0
 40
0
 40
0
 40
0
 40
1
 40
1
 40
1
 40
1
 10
387.170701
 20
89.051408
 30
0.0
 10
387.720133
 20
89.051408
 30
0.0
 10
388.165535
 20
88.606006
 30
0.0
 10
388.165535
 20
88.056575
 30
0.0
  0
LWPOLYLINE
  5
306
100
AcDbEntity
  8
Laag_1
 62
7
100
AcDbPolyline
 90
2
 70
0
 10
386.662701
 20
144.656241
 30
0.0
 10
388.694701
 20
146.688241
 30
0.0
  0
LWPOLYLINE
  5
307
100
AcDbEntity
  8
Laag_1
 62
7
100
AcDbPolyline
 90
2
 70
1
 10
388.165535
 20
88.056575
 30
0.0
 10
388.165535
 20
88.056575
 30
0.0
  0
SPLINE
  5
308
100
AcDbEntity
  8
Laag_1
 62
7
100
AcDbSpline
 70
8
 71
3
 72
8
 73
4
 74
0
 40
0
 40
0
 40
0
 40
0
 40
1
 40
1
 40
1
 40
1
 10
474.991201
 20
145.926241
 30
0.0
 10
474.991201
 20
145.376810
 30
0.0
 10
474.545800
 20
144.931408
 30
0.0
 10
473.996368
 20
144.931408
 30
0.0
  0
SPLINE
  5
309
100
AcDbEntity
  8
Laag_1
 62
7
100
AcDbSpline
 70
8
 71
3
 72
8
 73
4
 74
0
 40
0
 40
0
 40
0
 40
0
 40
1
 40
1
 40
1
 40
1
 10
473.996368
 20
144.931408
 30
0.0
 10
473.446936
 20
144.931408
 30
0.0
 10
473.001535
 20
145.376810
 30
0.0
 10
473.001535
 20
145.926241
 30
0.0
  0
SPLINE
  5
30a
100
AcDbEntity
  8
Laag_1
 62
7
100
AcDbSpline
 70
8
 71
3
 72
8
 73
4
 74
0
 40
0
 40
0
 40
0
 40
0
 40
1
 40
1
 40
1
 40
1
 10
473.001535
 20
145.926241
 30
0.0
 10
473.001535
 20
146.475673
 30
0.0
 10
473.446936
 20
146.921075
 30
0.0
 10
473.996368
 20
146.921075
 30
0.0
  0
SPLINE
  5
30b
100
AcDbEntity
  8
Laag_1
 62
7
100
AcDbSpline
 70
8
 71
3
 72
8
 73
4
 74
0
 40
0
 40
0
 40
0
 40
0
 40
1
 40
1
 40
1
 40
1
 10
473.996368
 20
146.921075
 30
0.0
 10
474.545800
 20
146.921075
 30
0.0
 10
474.991201
 20
146.475673
 30
0.0
 10
474.991201
 20
145.926241
 30
0.0
  0
LWPOLYLINE
  5
30c
100
AcDbEntity
  8
Laag_1
 62
7
100
AcDbPolyline
 90
2
 70
0
 10
386.154701
 20
87.040575
 30
0.0
 10
388.186701
 20
89.072575
 30
0.0
  0
LWPOLYLINE
  5
30d
100
AcDbEntity
  8
Laag_1
 62
7
100
AcDbPolyline
 90
2
 70
1
 10
474.991201
 20
145.926241
 30
0.0
 10
474.991201
 20
145.926241
 30
0.0
  0
SPLINE
  5
30e
100
AcDbEntity
  8
Laag_1
 62
7
100
AcDbSpline
 70
8
 71
3
 72
8
 73
4
 74
0
 40
0
 40
0
 40
0
 40
0
 40
1
 40
1
 40
1
 40
1
 10
474.991201
 20
87.548575
 30
0.0
 10
474.991201
 20
86.999143
 30
0.0
 10
474.545800
 20
86.553741
 30
0.0
 10
473.996368
 20
86.553741
 30
0.0
  0
SPLINE
  5
30f
100
AcDbEntity
  8
Laag_1
 62
7
100
AcDbSpline
 70
8
 71
3
 72
8
 73
4
 74
0
 40
0
 40
0
 40
0
 40
0
 40
1
 40
1
 40
1
 40
1
 10
473.996368
 20
86.553741
 30
0.0
 10
473.446936
 20
86.553741
 30
0.0
 10
473.001535
 20
86.999143
 30
0.0
 10
473.001535
 20
87.548575
 30
0.0
  0
SPLINE
  5
310
100
AcDbEntity
  8
Laag_1
 62
7
100
AcDbSpline
 70
8
 71
3
 72
8
 73
4
 74
0
 40
0
 40
0
 40
0
 40
0
 40
1
 40
1
 40
1
 40
1
 10
473.001535
 20
87.548575
 30
0.0
 10
473.001535
 20
88.098006
 30
0.0
 10
473.446936
 20
88.543408
 30
0.0
 10
473.996368
 20
88.543408
 30
0.0
  0
SPLINE
  5
311
100
AcDbEntity
  8
Laag_1
 62
7
100
AcDbSpline
 70
8
 71
3
 72
8
 73
4
 74
0
 40
0
 40
0
 40
0
 40
0
 40
1
 40
1
 40
1
 40
1
 10
473.996368
 20
88.543408
 30
0.0
 10
474.545800
 20
88.543408
 30
0.0
 10
474.991201
 20
88.098006
 30
0.0
 10
474.991201
 20
87.548575
 30
0.0
  0
LWPOLYLINE
  5
312
100
AcDbEntity
  8
Laag_1
 62
7
100
AcDbPolyline
 90
2
 70
0
 10
472.980368
 20
144.910241
 30
0.0
 10
475.012368
 20
146.942241
 30
0.0
  0
LWPOLYLINE
  5
313
100
AcDbEntity
  8
Laag_1
 62
7
100
AcDbPolyline
 90
2
 70
1
 10
474.991201
 20
87.548575
 30
0.0
 10
474.991201
 20
87.548575
 30
0.0
  0
LWPOLYLINE
  5
314
100
AcDbEntity
  8
Laag_1
 62
7
100
AcDbPolyline
 90
2
 70
0
 10
472.980368
 20
86.532575
 30
0.0
 10
475.012368
 20
88.564575
 30
0.0
  0
ENDSEC
  0
SECTION
  2
OBJECTS
  0
DICTIONARY
  5
C
330
0
100
AcDbDictionary
  3
ACAD_GROUP
350
D
  3
ACAD_MLINESTYLE
350
17
  0
DICTIONARY
  5
D
330
C
100
AcDbDictionary
  0
DICTIONARY
  5
1A
330
C
100
AcDbDictionary
  0
DICTIONARY
  5
17
330
C
100
AcDbDictionary
  3
STANDARD
350
18
  0
DICTIONARY
  5
19
330
C
100
AcDbDictionary
  0
ENDSEC
  0
EOF
