%
M48
M72
T01C0.02362
T02C0.02400
T03C0.03200
T04C0.04700
T05C0.07874
T06C0.12598
%
T01
X225790Y157260
X225790Y164740
T02
X203290Y189125
X198212Y199425
T03
X183790Y217000
X178790Y232000
X133790Y217000
X125790Y221000
X128790Y232000
X124790Y243000
X75790Y221000
X64790Y207000
X54790Y207000
X49790Y189000
X39790Y189000
X80790Y191000
X80790Y181000
X110790Y181000
X110790Y191000
X140790Y176000
X140790Y166000
X170790Y166000
X170790Y176000
X110790Y141000
X110790Y131000
X80790Y131000
X80790Y141000
X80790Y101000
X80790Y91000
X110790Y91000
X110790Y101000
X140790Y116000
X140790Y126000
X170790Y126000
X170790Y116000
X170790Y81000
X170790Y71000
X140790Y71000
X140790Y81000
X110790Y51000
X110790Y41000
X80790Y41000
X80790Y51000
X140790Y31000
X140790Y21000
X170790Y21000
X170790Y31000
X49790Y230000
X39790Y230000
X54790Y253000
X64790Y253000
X74790Y243000
T04
X50790Y170843
X50790Y151157
X50790Y130843
X50790Y111157
X50790Y90843
X50790Y71157
X50790Y50843
X50790Y31157
X315790Y26157
X315790Y45843
X315790Y66157
X315790Y85843
X315790Y106157
X315790Y125843
T05
X322601Y161000
X310790Y179898
X298586Y161000
T06
X37790Y14000
X339790Y12000
X340790Y256000
X35790Y257000
M30
