  0
SECTION
  2
HEADER
  9
$EXTMIN
 10
0.000000
 20
0.000000
  9
$EXTMAX
 10
14.000000
 20
8.500000
  9
$LTSCALE
 40
100.000000
  9
$PDMODE
 70
35
  9
$PDSIZE
 40
80.000000
  0
ENDSEC
  0
SECTION
  2
TABLES
  0
TABLE
  2
LAYER
 70
2
  0
LAYER
  2
LAYER_2
 70
0
 62
7
  6
CONTINUOUS
  0
LAYER
  2
LAYER_1
 70
0
 62
1
  6
CONTINUOUS
  0
ENDTAB
  0
ENDSEC
  0
SECTION
  2
BLOCKS
  0
ENDSEC
  0
SECTION
  2
ENTITIES
  0
POLYLINE
  8
LAYER_2
 62
4
 70
1
 66
1
  0
VERTEX
  8
LAYER_2
 62
7
 10
2.778961
 20
-2.172690
  0
VERTEX
  8
LAYER_2
 62
7
 10
2.792740
 20
-2.186469
  0
VERTEX
  8
LAYER_2
 62
7
 10
2.812425
 20
-2.186469
  0
VERTEX
  8
LAYER_2
 62
7
 10
2.828173
 20
-2.170721
  0
VERTEX
  8
LAYER_2
 62
7
 10
2.828173
 20
-2.151036
  0
VERTEX
  8
LAYER_2
 62
7
 10
2.812425
 20
-2.135288
  0
VERTEX
  8
LAYER_2
 62
7
 10
2.792740
 20
-2.135288
  0
VERTEX
  8
LAYER_2
 62
7
 10
2.778961
 20
-2.149068
  0
VERTEX
  8
LAYER_2
 62
7
 10
2.726795
 20
-2.149068
  0
VERTEX
  8
LAYER_2
 62
7
 10
2.714984
 20
-2.137257
  0
VERTEX
  8
LAYER_2
 62
7
 10
2.714984
 20
-1.663832
  0
VERTEX
  8
LAYER_2
 62
7
 10
2.901008
 20
-1.973871
  0
VERTEX
  8
LAYER_2
 62
7
 10
2.901008
 20
-2.233713
  0
VERTEX
  8
LAYER_2
 62
7
 10
2.901008
 20
-2.237650
  0
VERTEX
  8
LAYER_2
 62
7
 10
2.902976
 20
-2.242572
  0
VERTEX
  8
LAYER_2
 62
7
 10
2.905929
 20
-2.245524
  0
VERTEX
  8
LAYER_2
 62
7
 10
2.988606
 20
-2.328202
  0
VERTEX
  8
LAYER_2
 62
7
 10
2.991559
 20
-2.331154
  0
VERTEX
  8
LAYER_2
 62
7
 10
2.996480
 20
-2.333123
  0
VERTEX
  8
LAYER_2
 62
7
 10
3.000417
 20
-2.333123
  0
VERTEX
  8
LAYER_2
 62
7
 10
3.258291
 20
-2.333123
  0
VERTEX
  8
LAYER_2
 62
7
 10
3.262228
 20
-2.333123
  0
VERTEX
  8
LAYER_2
 62
7
 10
3.267150
 20
-2.331154
  0
VERTEX
  8
LAYER_2
 62
7
 10
3.270102
 20
-2.328202
  0
VERTEX
  8
LAYER_2
 62
7
 10
3.339984
 20
-2.258320
  0
VERTEX
  8
LAYER_2
 62
7
 10
3.342937
 20
-2.255367
  0
VERTEX
  8
LAYER_2
 62
7
 10
3.344906
 20
-2.250446
  0
VERTEX
  8
LAYER_2
 62
7
 10
3.344906
 20
-2.246509
  0
VERTEX
  8
LAYER_2
 62
7
 10
3.344906
 20
-2.146115
  0
VERTEX
  8
LAYER_2
 62
7
 10
3.552583
 20
-1.938438
  0
VERTEX
  8
LAYER_2
 62
7
 10
3.555536
 20
-1.935485
  0
VERTEX
  8
LAYER_2
 62
7
 10
3.557504
 20
-1.930564
  0
VERTEX
  8
LAYER_2
 62
7
 10
3.557504
 20
-1.926627
  0
VERTEX
  8
LAYER_2
 62
7
 10
3.557504
 20
-1.378792
  0
VERTEX
  8
LAYER_2
 62
7
 10
3.565378
 20
-1.376430
  0
VERTEX
  8
LAYER_2
 62
7
 10
3.575221
 20
-1.371509
  0
VERTEX
  8
LAYER_2
 62
7
 10
3.582110
 20
-1.364619
  0
VERTEX
  8
LAYER_2
 62
7
 10
3.587032
 20
-1.354776
  0
VERTEX
  8
LAYER_2
 62
7
 10
3.589984
 20
-1.344934
  0
VERTEX
  8
LAYER_2
 62
7
 10
3.589984
 20
-1.256351
  0
VERTEX
  8
LAYER_2
 62
7
 10
3.587032
 20
-1.246509
  0
VERTEX
  8
LAYER_2
 62
7
 10
3.582110
 20
-1.236666
  0
VERTEX
  8
LAYER_2
 62
7
 10
3.575221
 20
-1.229776
  0
VERTEX
  8
LAYER_2
 62
7
 10
3.565378
 20
-1.224855
  0
VERTEX
  8
LAYER_2
 62
7
 10
3.555536
 20
-1.221902
  0
VERTEX
  8
LAYER_2
 62
7
 10
3.545693
 20
-1.221902
  0
VERTEX
  8
LAYER_2
 62
7
 10
3.535850
 20
-1.224855
  0
VERTEX
  8
LAYER_2
 62
7
 10
3.526008
 20
-1.229776
  0
VERTEX
  8
LAYER_2
 62
7
 10
3.519118
 20
-1.236666
  0
VERTEX
  8
LAYER_2
 62
7
 10
3.514197
 20
-1.246509
  0
VERTEX
  8
LAYER_2
 62
7
 10
3.513620
 20
-1.248431
  0
VERTEX
  8
LAYER_2
 62
7
 10
3.455364
 20
-1.184071
  0
VERTEX
  8
LAYER_2
 62
7
 10
3.455142
 20
-1.183517
  0
VERTEX
  8
LAYER_2
 62
7
 10
3.452189
 20
-1.180564
  0
VERTEX
  8
LAYER_2
 62
7
 10
3.448252
 20
-1.178595
  0
VERTEX
  8
LAYER_2
 62
7
 10
3.447268
 20
-1.178595
  0
VERTEX
  8
LAYER_2
 62
7
 10
3.443331
 20
-1.178595
  0
VERTEX
  8
LAYER_2
 62
7
 10
3.038072
 20
-1.178595
  0
VERTEX
  8
LAYER_2
 62
7
 10
2.798646
 20
-0.976691
  0
VERTEX
  8
LAYER_2
 62
7
 10
2.798646
 20
-0.961076
  0
VERTEX
  8
LAYER_2
 62
7
 10
2.782898
 20
-0.945328
  0
VERTEX
  8
LAYER_2
 62
7
 10
2.763213
 20
-0.945328
  0
VERTEX
  8
LAYER_2
 62
7
 10
2.747465
 20
-0.961076
  0
VERTEX
  8
LAYER_2
 62
7
 10
2.747465
 20
-0.980761
  0
VERTEX
  8
LAYER_2
 62
7
 10
2.763213
 20
-0.996509
  0
VERTEX
  8
LAYER_2
 62
7
 10
2.782898
 20
-0.996509
  0
VERTEX
  8
LAYER_2
 62
7
 10
2.783503
 20
-0.995903
  0
VERTEX
  8
LAYER_2
 62
7
 10
3.026992
 20
-1.201233
  0
VERTEX
  8
LAYER_2
 62
7
 10
3.029945
 20
-1.201824
  0
VERTEX
  8
LAYER_2
 62
7
 10
3.030929
 20
-1.202217
  0
VERTEX
  8
LAYER_2
 62
7
 10
3.031913
 20
-1.202217
  0
VERTEX
  8
LAYER_2
 62
7
 10
3.035850
 20
-1.202217
  0
VERTEX
  8
LAYER_2
 62
7
 10
3.440802
 20
-1.202217
  0
VERTEX
  8
LAYER_2
 62
7
 10
3.511244
 20
-1.280039
  0
VERTEX
  8
LAYER_2
 62
7
 10
3.511244
 20
-1.344934
  0
VERTEX
  8
LAYER_2
 62
7
 10
3.514197
 20
-1.354776
  0
VERTEX
  8
LAYER_2
 62
7
 10
3.519118
 20
-1.364619
  0
VERTEX
  8
LAYER_2
 62
7
 10
3.526008
 20
-1.371509
  0
VERTEX
  8
LAYER_2
 62
7
 10
3.533882
 20
-1.375446
  0
VERTEX
  8
LAYER_2
 62
7
 10
3.533882
 20
-1.923674
  0
VERTEX
  8
LAYER_2
 62
7
 10
3.326205
 20
-2.131351
  0
VERTEX
  8
LAYER_2
 62
7
 10
3.323252
 20
-2.134304
  0
VERTEX
  8
LAYER_2
 62
7
 10
3.321284
 20
-2.139225
  0
VERTEX
  8
LAYER_2
 62
7
 10
3.321284
 20
-2.143162
  0
VERTEX
  8
LAYER_2
 62
7
 10
3.321284
 20
-2.243556
  0
VERTEX
  8
LAYER_2
 62
7
 10
3.255339
 20
-2.309501
  0
VERTEX
  8
LAYER_2
 62
7
 10
3.003370
 20
-2.309501
  0
VERTEX
  8
LAYER_2
 62
7
 10
2.924630
 20
-2.230761
  0
VERTEX
  8
LAYER_2
 62
7
 10
2.924630
 20
-1.971902
  0
VERTEX
  8
LAYER_2
 62
7
 10
2.924630
 20
-1.968950
  0
VERTEX
  8
LAYER_2
 62
7
 10
2.924630
 20
-1.966981
  0
VERTEX
  8
LAYER_2
 62
7
 10
2.724950
 20
-1.634181
  0
VERTEX
  8
LAYER_2
 62
7
 10
2.728764
 20
-1.630367
  0
VERTEX
  8
LAYER_2
 62
7
 10
2.728764
 20
-1.610682
  0
VERTEX
  8
LAYER_2
 62
7
 10
2.713016
 20
-1.594934
  0
VERTEX
  8
LAYER_2
 62
7
 10
2.693331
 20
-1.594934
  0
VERTEX
  8
LAYER_2
 62
7
 10
2.677583
 20
-1.610682
  0
VERTEX
  8
LAYER_2
 62
7
 10
2.677583
 20
-1.630367
  0
VERTEX
  8
LAYER_2
 62
7
 10
2.691362
 20
-1.644147
  0
VERTEX
  8
LAYER_2
 62
7
 10
2.691362
 20
-2.137257
  0
VERTEX
  8
LAYER_2
 62
7
 10
2.677583
 20
-2.151036
  0
VERTEX
  8
LAYER_2
 62
7
 10
2.677583
 20
-2.170721
  0
VERTEX
  8
LAYER_2
 62
7
 10
2.693331
 20
-2.186469
  0
VERTEX
  8
LAYER_2
 62
7
 10
2.713016
 20
-2.186469
  0
VERTEX
  8
LAYER_2
 62
7
 10
2.726795
 20
-2.172690
  0
VERTEX
  8
LAYER_2
 62
7
 10
2.778961
 20
-2.172690
  0
SEQEND
  0
POLYLINE
  8
LAYER_2
 62
4
 70
1
 66
1
  0
VERTEX
  8
LAYER_2
 62
7
 10
2.231717
 20
-2.288832
  0
VERTEX
  8
LAYER_2
 62
7
 10
2.217937
 20
-2.275052
  0
VERTEX
  8
LAYER_2
 62
7
 10
2.198252
 20
-2.275052
  0
VERTEX
  8
LAYER_2
 62
7
 10
2.182504
 20
-2.290800
  0
VERTEX
  8
LAYER_2
 62
7
 10
2.182504
 20
-2.310485
  0
VERTEX
  8
LAYER_2
 62
7
 10
2.198252
 20
-2.326233
  0
VERTEX
  8
LAYER_2
 62
7
 10
2.217937
 20
-2.326233
  0
VERTEX
  8
LAYER_2
 62
7
 10
2.231717
 20
-2.312454
  0
VERTEX
  8
LAYER_2
 62
7
 10
2.458095
 20
-2.312454
  0
VERTEX
  8
LAYER_2
 62
7
 10
2.713016
 20
-2.567375
  0
VERTEX
  8
LAYER_2
 62
7
 10
2.715969
 20
-2.570328
  0
VERTEX
  8
LAYER_2
 62
7
 10
2.720890
 20
-2.572296
  0
VERTEX
  8
LAYER_2
 62
7
 10
2.724827
 20
-2.572296
  0
VERTEX
  8
LAYER_2
 62
7
 10
3.662819
 20
-2.572296
  0
VERTEX
  8
LAYER_2
 62
7
 10
3.667740
 20
-2.570328
  0
VERTEX
  8
LAYER_2
 62
7
 10
3.670693
 20
-2.567375
  0
VERTEX
  8
LAYER_2
 62
7
 10
3.671480
 20
-2.565406
  0
VERTEX
  8
LAYER_2
 62
7
 10
3.686441
 20
-2.565406
  0
VERTEX
  8
LAYER_2
 62
7
 10
3.686441
 20
-2.553595
  0
VERTEX
  8
LAYER_2
 62
7
 10
3.670693
 20
-2.553595
  0
VERTEX
  8
LAYER_2
 62
7
 10
3.667740
 20
-2.550643
  0
VERTEX
  8
LAYER_2
 62
7
 10
3.662819
 20
-2.548674
  0
VERTEX
  8
LAYER_2
 62
7
 10
2.727780
 20
-2.548674
  0
VERTEX
  8
LAYER_2
 62
7
 10
2.472858
 20
-2.293753
  0
VERTEX
  8
LAYER_2
 62
7
 10
2.469906
 20
-2.290800
  0
VERTEX
  8
LAYER_2
 62
7
 10
2.464984
 20
-2.288832
  0
VERTEX
  8
LAYER_2
 62
7
 10
2.461047
 20
-2.288832
  0
VERTEX
  8
LAYER_2
 62
7
 10
2.231717
 20
-2.288832
  0
SEQEND
  0
POLYLINE
  8
LAYER_2
 62
4
 70
1
 66
1
  0
VERTEX
  8
LAYER_2
 62
7
 10
0.811378
 20
-1.927611
  0
VERTEX
  8
LAYER_2
 62
7
 10
0.861638
 20
-1.927611
  0
VERTEX
  8
LAYER_2
 62
7
 10
0.868528
 20
-1.925643
  0
VERTEX
  8
LAYER_2
 62
7
 10
0.874433
 20
-1.921706
  0
VERTEX
  8
LAYER_2
 62
7
 10
0.879354
 20
-1.916784
  0
VERTEX
  8
LAYER_2
 62
7
 10
0.883291
 20
-1.910879
  0
VERTEX
  8
LAYER_2
 62
7
 10
0.885260
 20
-1.903989
  0
VERTEX
  8
LAYER_2
 62
7
 10
0.885260
 20
-1.898084
  0
VERTEX
  8
LAYER_2
 62
7
 10
0.883291
 20
-1.891194
  0
VERTEX
  8
LAYER_2
 62
7
 10
0.879354
 20
-1.885288
  0
VERTEX
  8
LAYER_2
 62
7
 10
0.874433
 20
-1.880367
  0
VERTEX
  8
LAYER_2
 62
7
 10
0.868528
 20
-1.876430
  0
VERTEX
  8
LAYER_2
 62
7
 10
0.861638
 20
-1.874461
  0
VERTEX
  8
LAYER_2
 62
7
 10
0.803567
 20
-1.874461
  0
VERTEX
  8
LAYER_2
 62
7
 10
0.796677
 20
-1.876430
  0
VERTEX
  8
LAYER_2
 62
7
 10
0.790772
 20
-1.880367
  0
VERTEX
  8
LAYER_2
 62
7
 10
0.785850
 20
-1.885288
  0
VERTEX
  8
LAYER_2
 62
7
 10
0.781913
 20
-1.891194
  0
VERTEX
  8
LAYER_2
 62
7
 10
0.779945
 20
-1.898084
  0
VERTEX
  8
LAYER_2
 62
7
 10
0.779945
 20
-1.903989
  0
VERTEX
  8
LAYER_2
 62
7
 10
0.781913
 20
-1.910879
  0
VERTEX
  8
LAYER_2
 62
7
 10
0.785074
 20
-1.915619
  0
VERTEX
  8
LAYER_2
 62
7
 10
0.677602
 20
-1.979966
  0
VERTEX
  8
LAYER_2
 62
7
 10
0.675614
 20
-1.980761
  0
VERTEX
  8
LAYER_2
 62
7
 10
0.674630
 20
-1.981745
  0
VERTEX
  8
LAYER_2
 62
7
 10
0.672661
 20
-1.983713
  0
VERTEX
  8
LAYER_2
 62
7
 10
0.672099
 20
-1.985120
  0
VERTEX
  8
LAYER_2
 62
7
 10
0.671677
 20
-1.985682
  0
VERTEX
  8
LAYER_2
 62
7
 10
0.671349
 20
-1.986994
  0
VERTEX
  8
LAYER_2
 62
7
 10
0.670693
 20
-1.988635
  0
VERTEX
  8
LAYER_2
 62
7
 10
0.670693
 20
-1.989619
  0
VERTEX
  8
LAYER_2
 62
7
 10
0.670693
 20
-1.992478
  0
VERTEX
  8
LAYER_2
 62
7
 10
0.634200
 20
-2.081972
  0
VERTEX
  8
LAYER_2
 62
7
 10
0.616559
 20
-2.089028
  0
VERTEX
  8
LAYER_2
 62
7
 10
0.501402
 20
-2.089028
  0
VERTEX
  8
LAYER_2
 62
7
 10
0.496480
 20
-2.081154
  0
VERTEX
  8
LAYER_2
 62
7
 10
0.489591
 20
-2.074265
  0
VERTEX
  8
LAYER_2
 62
7
 10
0.481717
 20
-2.069343
  0
VERTEX
  8
LAYER_2
 62
7
 10
0.472858
 20
-2.067375
  0
VERTEX
  8
LAYER_2
 62
7
 10
0.393134
 20
-2.067375
  0
VERTEX
  8
LAYER_2
 62
7
 10
0.384276
 20
-2.069343
  0
VERTEX
  8
LAYER_2
 62
7
 10
0.376402
 20
-2.074265
  0
VERTEX
  8
LAYER_2
 62
7
 10
0.369512
 20
-2.081154
  0
VERTEX
  8
LAYER_2
 62
7
 10
0.364591
 20
-2.089028
  0
VERTEX
  8
LAYER_2
 62
7
 10
0.362622
 20
-2.097887
  0
VERTEX
  8
LAYER_2
 62
7
 10
0.362622
 20
-2.107729
  0
VERTEX
  8
LAYER_2
 62
7
 10
0.364591
 20
-2.116587
  0
VERTEX
  8
LAYER_2
 62
7
 10
0.369512
 20
-2.124461
  0
VERTEX
  8
LAYER_2
 62
7
 10
0.376402
 20
-2.131351
  0
VERTEX
  8
LAYER_2
 62
7
 10
0.384276
 20
-2.136272
  0
VERTEX
  8
LAYER_2
 62
7
 10
0.393134
 20
-2.138241
  0
VERTEX
  8
LAYER_2
 62
7
 10
0.472858
 20
-2.138241
  0
VERTEX
  8
LAYER_2
 62
7
 10
0.481717
 20
-2.136272
  0
VERTEX
  8
LAYER_2
 62
7
 10
0.489591
 20
-2.131351
  0
VERTEX
  8
LAYER_2
 62
7
 10
0.496480
 20
-2.124461
  0
VERTEX
  8
LAYER_2
 62
7
 10
0.501402
 20
-2.116587
  0
VERTEX
  8
LAYER_2
 62
7
 10
0.502277
 20
-2.112650
  0
VERTEX
  8
LAYER_2
 62
7
 10
0.615575
 20
-2.112650
  0
VERTEX
  8
LAYER_2
 62
7
 10
0.620496
 20
-2.112650
  0
VERTEX
  8
LAYER_2
 62
7
 10
0.625417
 20
-2.110682
  0
VERTEX
  8
LAYER_2
 62
7
 10
0.645102
 20
-2.102808
  0
VERTEX
  8
LAYER_2
 62
7
 10
0.650024
 20
-2.100839
  0
VERTEX
  8
LAYER_2
 62
7
 10
0.652976
 20
-2.097887
  0
VERTEX
  8
LAYER_2
 62
7
 10
0.654945
 20
-2.093950
  0
VERTEX
  8
LAYER_2
 62
7
 10
0.654945
 20
-2.093059
  0
VERTEX
  8
LAYER_2
 62
7
 10
0.692282
 20
-2.001495
  0
VERTEX
  8
LAYER_2
 62
7
 10
0.692347
 20
-2.001430
  0
VERTEX
  8
LAYER_2
 62
7
 10
0.693689
 20
-1.998075
  0
VERTEX
  8
LAYER_2
 62
7
 10
0.811378
 20
-1.927611
  0
SEQEND
  0
POLYLINE
  8
LAYER_2
 62
4
 70
1
 66
1
  0
VERTEX
  8
LAYER_2
 62
7
 10
0.502277
 20
-2.689422
  0
VERTEX
  8
LAYER_2
 62
7
 10
0.501402
 20
-2.685485
  0
VERTEX
  8
LAYER_2
 62
7
 10
0.496480
 20
-2.677611
  0
VERTEX
  8
LAYER_2
 62
7
 10
0.489591
 20
-2.670721
  0
VERTEX
  8
LAYER_2
 62
7
 10
0.481717
 20
-2.665800
  0
VERTEX
  8
LAYER_2
 62
7
 10
0.472858
 20
-2.663832
  0
VERTEX
  8
LAYER_2
 62
7
 10
0.393134
 20
-2.663832
  0
VERTEX
  8
LAYER_2
 62
7
 10
0.384276
 20
-2.665800
  0
VERTEX
  8
LAYER_2
 62
7
 10
0.376402
 20
-2.670721
  0
VERTEX
  8
LAYER_2
 62
7
 10
0.369512
 20
-2.677611
  0
VERTEX
  8
LAYER_2
 62
7
 10
0.364591
 20
-2.685485
  0
VERTEX
  8
LAYER_2
 62
7
 10
0.362622
 20
-2.694343
  0
VERTEX
  8
LAYER_2
 62
7
 10
0.362622
 20
-2.704186
  0
VERTEX
  8
LAYER_2
 62
7
 10
0.364591
 20
-2.713044
  0
VERTEX
  8
LAYER_2
 62
7
 10
0.369512
 20
-2.720918
  0
VERTEX
  8
LAYER_2
 62
7
 10
0.376402
 20
-2.727808
  0
VERTEX
  8
LAYER_2
 62
7
 10
0.384276
 20
-2.732729
  0
VERTEX
  8
LAYER_2
 62
7
 10
0.393134
 20
-2.734698
  0
VERTEX
  8
LAYER_2
 62
7
 10
0.472858
 20
-2.734698
  0
VERTEX
  8
LAYER_2
 62
7
 10
0.481717
 20
-2.732729
  0
VERTEX
  8
LAYER_2
 62
7
 10
0.489591
 20
-2.727808
  0
VERTEX
  8
LAYER_2
 62
7
 10
0.496480
 20
-2.720918
  0
VERTEX
  8
LAYER_2
 62
7
 10
0.501402
 20
-2.713044
  0
VERTEX
  8
LAYER_2
 62
7
 10
1.283226
 20
-2.713044
  0
VERTEX
  8
LAYER_2
 62
7
 10
1.285850
 20
-2.716981
  0
VERTEX
  8
LAYER_2
 62
7
 10
1.290772
 20
-2.721902
  0
VERTEX
  8
LAYER_2
 62
7
 10
1.296677
 20
-2.725839
  0
VERTEX
  8
LAYER_2
 62
7
 10
1.303567
 20
-2.727808
  0
VERTEX
  8
LAYER_2
 62
7
 10
1.361638
 20
-2.727808
  0
VERTEX
  8
LAYER_2
 62
7
 10
1.368528
 20
-2.725839
  0
VERTEX
  8
LAYER_2
 62
7
 10
1.374433
 20
-2.721902
  0
VERTEX
  8
LAYER_2
 62
7
 10
1.379354
 20
-2.716981
  0
VERTEX
  8
LAYER_2
 62
7
 10
1.383291
 20
-2.711076
  0
VERTEX
  8
LAYER_2
 62
7
 10
1.385260
 20
-2.704186
  0
VERTEX
  8
LAYER_2
 62
7
 10
1.385260
 20
-2.698280
  0
VERTEX
  8
LAYER_2
 62
7
 10
1.383291
 20
-2.691391
  0
VERTEX
  8
LAYER_2
 62
7
 10
1.379354
 20
-2.685485
  0
VERTEX
  8
LAYER_2
 62
7
 10
1.374433
 20
-2.680564
  0
VERTEX
  8
LAYER_2
 62
7
 10
1.368528
 20
-2.676627
  0
VERTEX
  8
LAYER_2
 62
7
 10
1.361638
 20
-2.674658
  0
VERTEX
  8
LAYER_2
 62
7
 10
1.303567
 20
-2.674658
  0
VERTEX
  8
LAYER_2
 62
7
 10
1.296677
 20
-2.676627
  0
VERTEX
  8
LAYER_2
 62
7
 10
1.290772
 20
-2.680564
  0
VERTEX
  8
LAYER_2
 62
7
 10
1.285850
 20
-2.685485
  0
VERTEX
  8
LAYER_2
 62
7
 10
1.283226
 20
-2.689422
  0
VERTEX
  8
LAYER_2
 62
7
 10
0.502277
 20
-2.689422
  0
SEQEND
  0
POLYLINE
  8
LAYER_2
 62
4
 70
1
 66
1
  0
VERTEX
  8
LAYER_2
 62
7
 10
0.449034
 20
-1.666784
  0
VERTEX
  8
LAYER_2
 62
7
 10
0.393134
 20
-1.666784
  0
VERTEX
  8
LAYER_2
 62
7
 10
0.384276
 20
-1.668753
  0
VERTEX
  8
LAYER_2
 62
7
 10
0.376402
 20
-1.673674
  0
VERTEX
  8
LAYER_2
 62
7
 10
0.369512
 20
-1.680564
  0
VERTEX
  8
LAYER_2
 62
7
 10
0.364591
 20
-1.688438
  0
VERTEX
  8
LAYER_2
 62
7
 10
0.362622
 20
-1.697296
  0
VERTEX
  8
LAYER_2
 62
7
 10
0.362622
 20
-1.707139
  0
VERTEX
  8
LAYER_2
 62
7
 10
0.364591
 20
-1.715997
  0
VERTEX
  8
LAYER_2
 62
7
 10
0.369512
 20
-1.723871
  0
VERTEX
  8
LAYER_2
 62
7
 10
0.376402
 20
-1.730761
  0
VERTEX
  8
LAYER_2
 62
7
 10
0.384276
 20
-1.735682
  0
VERTEX
  8
LAYER_2
 62
7
 10
0.393134
 20
-1.737650
  0
VERTEX
  8
LAYER_2
 62
7
 10
0.472858
 20
-1.737650
  0
VERTEX
  8
LAYER_2
 62
7
 10
0.481717
 20
-1.735682
  0
VERTEX
  8
LAYER_2
 62
7
 10
0.489591
 20
-1.730761
  0
VERTEX
  8
LAYER_2
 62
7
 10
0.496480
 20
-1.723871
  0
VERTEX
  8
LAYER_2
 62
7
 10
0.501402
 20
-1.715997
  0
VERTEX
  8
LAYER_2
 62
7
 10
0.503370
 20
-1.707139
  0
VERTEX
  8
LAYER_2
 62
7
 10
0.503370
 20
-1.697296
  0
VERTEX
  8
LAYER_2
 62
7
 10
0.501402
 20
-1.688438
  0
VERTEX
  8
LAYER_2
 62
7
 10
0.496480
 20
-1.680564
  0
VERTEX
  8
LAYER_2
 62
7
 10
0.489591
 20
-1.673674
  0
VERTEX
  8
LAYER_2
 62
7
 10
0.481717
 20
-1.668753
  0
VERTEX
  8
LAYER_2
 62
7
 10
0.480214
 20
-1.668419
  0
VERTEX
  8
LAYER_2
 62
7
 10
1.112834
 20
-1.007335
  0
VERTEX
  8
LAYER_2
 62
7
 10
1.267150
 20
-1.007335
  0
VERTEX
  8
LAYER_2
 62
7
 10
1.321284
 20
-1.061469
  0
VERTEX
  8
LAYER_2
 62
7
 10
1.321284
 20
-1.124461
  0
VERTEX
  8
LAYER_2
 62
7
 10
1.303567
 20
-1.124461
  0
VERTEX
  8
LAYER_2
 62
7
 10
1.296677
 20
-1.126430
  0
VERTEX
  8
LAYER_2
 62
7
 10
1.290772
 20
-1.130367
  0
VERTEX
  8
LAYER_2
 62
7
 10
1.285850
 20
-1.135288
  0
VERTEX
  8
LAYER_2
 62
7
 10
1.281913
 20
-1.141194
  0
VERTEX
  8
LAYER_2
 62
7
 10
1.279945
 20
-1.148084
  0
VERTEX
  8
LAYER_2
 62
7
 10
1.279945
 20
-1.153989
  0
VERTEX
  8
LAYER_2
 62
7
 10
1.281913
 20
-1.160879
  0
VERTEX
  8
LAYER_2
 62
7
 10
1.285850
 20
-1.166784
  0
VERTEX
  8
LAYER_2
 62
7
 10
1.290772
 20
-1.171706
  0
VERTEX
  8
LAYER_2
 62
7
 10
1.296677
 20
-1.175643
  0
VERTEX
  8
LAYER_2
 62
7
 10
1.303567
 20
-1.177611
  0
VERTEX
  8
LAYER_2
 62
7
 10
1.361638
 20
-1.177611
  0
VERTEX
  8
LAYER_2
 62
7
 10
1.368528
 20
-1.175643
  0
VERTEX
  8
LAYER_2
 62
7
 10
1.374433
 20
-1.171706
  0
VERTEX
  8
LAYER_2
 62
7
 10
1.379354
 20
-1.166784
  0
VERTEX
  8
LAYER_2
 62
7
 10
1.383291
 20
-1.160879
  0
VERTEX
  8
LAYER_2
 62
7
 10
1.385260
 20
-1.153989
  0
VERTEX
  8
LAYER_2
 62
7
 10
1.385260
 20
-1.148084
  0
VERTEX
  8
LAYER_2
 62
7
 10
1.383291
 20
-1.141194
  0
VERTEX
  8
LAYER_2
 62
7
 10
1.379354
 20
-1.135288
  0
VERTEX
  8
LAYER_2
 62
7
 10
1.374433
 20
-1.130367
  0
VERTEX
  8
LAYER_2
 62
7
 10
1.368528
 20
-1.126430
  0
VERTEX
  8
LAYER_2
 62
7
 10
1.361638
 20
-1.124461
  0
VERTEX
  8
LAYER_2
 62
7
 10
1.344906
 20
-1.124461
  0
VERTEX
  8
LAYER_2
 62
7
 10
1.344906
 20
-1.058517
  0
VERTEX
  8
LAYER_2
 62
7
 10
1.344906
 20
-1.054580
  0
VERTEX
  8
LAYER_2
 62
7
 10
1.342937
 20
-1.049658
  0
VERTEX
  8
LAYER_2
 62
7
 10
1.339984
 20
-1.046706
  0
VERTEX
  8
LAYER_2
 62
7
 10
1.281913
 20
-0.988635
  0
VERTEX
  8
LAYER_2
 62
7
 10
1.278961
 20
-0.985682
  0
VERTEX
  8
LAYER_2
 62
7
 10
1.274039
 20
-0.983713
  0
VERTEX
  8
LAYER_2
 62
7
 10
1.270102
 20
-0.983713
  0
VERTEX
  8
LAYER_2
 62
7
 10
1.109669
 20
-0.983713
  0
VERTEX
  8
LAYER_2
 62
7
 10
1.105732
 20
-0.983713
  0
VERTEX
  8
LAYER_2
 62
7
 10
1.104748
 20
-0.983713
  0
VERTEX
  8
LAYER_2
 62
7
 10
1.100811
 20
-0.985682
  0
VERTEX
  8
LAYER_2
 62
7
 10
1.097858
 20
-0.988635
  0
VERTEX
  8
LAYER_2
 62
7
 10
1.097767
 20
-0.988863
  0
VERTEX
  8
LAYER_2
 62
7
 10
0.449034
 20
-1.666784
  0
SEQEND
  0
POLYLINE
  8
LAYER_2
 62
4
 70
1
 66
1
  0
VERTEX
  8
LAYER_2
 62
7
 10
0.363310
 20
-1.507478
  0
VERTEX
  8
LAYER_2
 62
7
 10
0.364591
 20
-1.513241
  0
VERTEX
  8
LAYER_2
 62
7
 10
0.369512
 20
-1.521115
  0
VERTEX
  8
LAYER_2
 62
7
 10
0.376402
 20
-1.528005
  0
VERTEX
  8
LAYER_2
 62
7
 10
0.384276
 20
-1.532926
  0
VERTEX
  8
LAYER_2
 62
7
 10
0.393134
 20
-1.534895
  0
VERTEX
  8
LAYER_2
 62
7
 10
0.472858
 20
-1.534895
  0
VERTEX
  8
LAYER_2
 62
7
 10
0.481717
 20
-1.532926
  0
VERTEX
  8
LAYER_2
 62
7
 10
0.489591
 20
-1.528005
  0
VERTEX
  8
LAYER_2
 62
7
 10
0.496480
 20
-1.521115
  0
VERTEX
  8
LAYER_2
 62
7
 10
0.501402
 20
-1.513241
  0
VERTEX
  8
LAYER_2
 62
7
 10
0.503370
 20
-1.504383
  0
VERTEX
  8
LAYER_2
 62
7
 10
0.503370
 20
-1.494540
  0
VERTEX
  8
LAYER_2
 62
7
 10
0.501402
 20
-1.485682
  0
VERTEX
  8
LAYER_2
 62
7
 10
0.496480
 20
-1.477808
  0
VERTEX
  8
LAYER_2
 62
7
 10
0.489591
 20
-1.470918
  0
VERTEX
  8
LAYER_2
 62
7
 10
0.481717
 20
-1.465997
  0
VERTEX
  8
LAYER_2
 62
7
 10
0.472858
 20
-1.464028
  0
VERTEX
  8
LAYER_2
 62
7
 10
0.393134
 20
-1.464028
  0
VERTEX
  8
LAYER_2
 62
7
 10
0.384276
 20
-1.465997
  0
VERTEX
  8
LAYER_2
 62
7
 10
0.376402
 20
-1.470918
  0
VERTEX
  8
LAYER_2
 62
7
 10
0.369512
 20
-1.477808
  0
VERTEX
  8
LAYER_2
 62
7
 10
0.366076
 20
-1.483306
  0
VERTEX
  8
LAYER_2
 62
7
 10
0.346874
 20
-1.485152
  0
VERTEX
  8
LAYER_2
 62
7
 10
0.346874
 20
-1.148100
  0
VERTEX
  8
LAYER_2
 62
7
 10
0.640165
 20
-0.855767
  0
VERTEX
  8
LAYER_2
 62
7
 10
0.640181
 20
-0.855761
  0
VERTEX
  8
LAYER_2
 62
7
 10
0.643134
 20
-0.852808
  0
VERTEX
  8
LAYER_2
 62
7
 10
0.643671
 20
-0.851466
  0
VERTEX
  8
LAYER_2
 62
7
 10
0.649039
 20
-0.847887
  0
VERTEX
  8
LAYER_2
 62
7
 10
0.653961
 20
-0.842965
  0
VERTEX
  8
LAYER_2
 62
7
 10
0.657898
 20
-0.837060
  0
VERTEX
  8
LAYER_2
 62
7
 10
0.659866
 20
-0.830170
  0
VERTEX
  8
LAYER_2
 62
7
 10
0.659866
 20
-0.772099
  0
VERTEX
  8
LAYER_2
 62
7
 10
0.657898
 20
-0.765209
  0
VERTEX
  8
LAYER_2
 62
7
 10
0.653961
 20
-0.759304
  0
VERTEX
  8
LAYER_2
 62
7
 10
0.649039
 20
-0.754383
  0
VERTEX
  8
LAYER_2
 62
7
 10
0.643134
 20
-0.750446
  0
VERTEX
  8
LAYER_2
 62
7
 10
0.636244
 20
-0.748477
  0
VERTEX
  8
LAYER_2
 62
7
 10
0.630339
 20
-0.748477
  0
VERTEX
  8
LAYER_2
 62
7
 10
0.623449
 20
-0.750446
  0
VERTEX
  8
LAYER_2
 62
7
 10
0.617543
 20
-0.754383
  0
VERTEX
  8
LAYER_2
 62
7
 10
0.612622
 20
-0.759304
  0
VERTEX
  8
LAYER_2
 62
7
 10
0.608685
 20
-0.765209
  0
VERTEX
  8
LAYER_2
 62
7
 10
0.606717
 20
-0.772099
  0
VERTEX
  8
LAYER_2
 62
7
 10
0.606717
 20
-0.830170
  0
VERTEX
  8
LAYER_2
 62
7
 10
0.608685
 20
-0.837060
  0
VERTEX
  8
LAYER_2
 62
7
 10
0.612622
 20
-0.842965
  0
VERTEX
  8
LAYER_2
 62
7
 10
0.616050
 20
-0.846393
  0
VERTEX
  8
LAYER_2
 62
7
 10
0.328189
 20
-1.133313
  0
VERTEX
  8
LAYER_2
 62
7
 10
0.328173
 20
-1.133320
  0
VERTEX
  8
LAYER_2
 62
7
 10
0.325221
 20
-1.136272
  0
VERTEX
  8
LAYER_2
 62
7
 10
0.323252
 20
-1.141194
  0
VERTEX
  8
LAYER_2
 62
7
 10
0.323252
 20
-1.145131
  0
VERTEX
  8
LAYER_2
 62
7
 10
0.323252
 20
-1.497493
  0
VERTEX
  8
LAYER_2
 62
7
 10
0.323252
 20
-1.500446
  0
VERTEX
  8
LAYER_2
 62
7
 10
0.323252
 20
-1.502414
  0
VERTEX
  8
LAYER_2
 62
7
 10
0.324939
 20
-1.504664
  0
VERTEX
  8
LAYER_2
 62
7
 10
0.325221
 20
-1.505367
  0
VERTEX
  8
LAYER_2
 62
7
 10
0.326205
 20
-1.506351
  0
VERTEX
  8
LAYER_2
 62
7
 10
0.328173
 20
-1.508320
  0
VERTEX
  8
LAYER_2
 62
7
 10
0.329158
 20
-1.509304
  0
VERTEX
  8
LAYER_2
 62
7
 10
0.332110
 20
-1.509895
  0
VERTEX
  8
LAYER_2
 62
7
 10
0.333095
 20
-1.510288
  0
VERTEX
  8
LAYER_2
 62
7
 10
0.334079
 20
-1.510288
  0
VERTEX
  8
LAYER_2
 62
7
 10
0.337032
 20
-1.510288
  0
VERTEX
  8
LAYER_2
 62
7
 10
0.337966
 20
-1.509914
  0
VERTEX
  8
LAYER_2
 62
7
 10
0.363310
 20
-1.507478
  0
SEQEND
  0
POLYLINE
  8
LAYER_2
 62
4
 70
1
 66
1
  0
VERTEX
  8
LAYER_2
 62
7
 10
0.420693
 20
-1.267178
  0
VERTEX
  8
LAYER_2
 62
7
 10
0.393134
 20
-1.267178
  0
VERTEX
  8
LAYER_2
 62
7
 10
0.384276
 20
-1.269147
  0
VERTEX
  8
LAYER_2
 62
7
 10
0.376402
 20
-1.274068
  0
VERTEX
  8
LAYER_2
 62
7
 10
0.369512
 20
-1.280958
  0
VERTEX
  8
LAYER_2
 62
7
 10
0.364591
 20
-1.288832
  0
VERTEX
  8
LAYER_2
 62
7
 10
0.362622
 20
-1.297690
  0
VERTEX
  8
LAYER_2
 62
7
 10
0.362622
 20
-1.307532
  0
VERTEX
  8
LAYER_2
 62
7
 10
0.364591
 20
-1.316391
  0
VERTEX
  8
LAYER_2
 62
7
 10
0.369512
 20
-1.324265
  0
VERTEX
  8
LAYER_2
 62
7
 10
0.376402
 20
-1.331154
  0
VERTEX
  8
LAYER_2
 62
7
 10
0.384276
 20
-1.336076
  0
VERTEX
  8
LAYER_2
 62
7
 10
0.393134
 20
-1.338044
  0
VERTEX
  8
LAYER_2
 62
7
 10
0.472858
 20
-1.338044
  0
VERTEX
  8
LAYER_2
 62
7
 10
0.481717
 20
-1.336076
  0
VERTEX
  8
LAYER_2
 62
7
 10
0.489591
 20
-1.331154
  0
VERTEX
  8
LAYER_2
 62
7
 10
0.496480
 20
-1.324265
  0
VERTEX
  8
LAYER_2
 62
7
 10
0.501402
 20
-1.316391
  0
VERTEX
  8
LAYER_2
 62
7
 10
0.503370
 20
-1.307532
  0
VERTEX
  8
LAYER_2
 62
7
 10
0.503370
 20
-1.297690
  0
VERTEX
  8
LAYER_2
 62
7
 10
0.501402
 20
-1.288832
  0
VERTEX
  8
LAYER_2
 62
7
 10
0.496480
 20
-1.280958
  0
VERTEX
  8
LAYER_2
 62
7
 10
0.489591
 20
-1.274068
  0
VERTEX
  8
LAYER_2
 62
7
 10
0.481717
 20
-1.269147
  0
VERTEX
  8
LAYER_2
 62
7
 10
0.472858
 20
-1.267178
  0
VERTEX
  8
LAYER_2
 62
7
 10
0.444315
 20
-1.267178
  0
VERTEX
  8
LAYER_2
 62
7
 10
0.444315
 20
-1.178788
  0
VERTEX
  8
LAYER_2
 62
7
 10
0.685256
 20
-0.947296
  0
VERTEX
  8
LAYER_2
 62
7
 10
0.785850
 20
-0.947296
  0
VERTEX
  8
LAYER_2
 62
7
 10
0.789787
 20
-0.947296
  0
VERTEX
  8
LAYER_2
 62
7
 10
0.790772
 20
-0.947296
  0
VERTEX
  8
LAYER_2
 62
7
 10
0.794709
 20
-0.945328
  0
VERTEX
  8
LAYER_2
 62
7
 10
0.797661
 20
-0.942375
  0
VERTEX
  8
LAYER_2
 62
7
 10
0.797861
 20
-0.941876
  0
VERTEX
  8
LAYER_2
 62
7
 10
1.006835
 20
-0.713044
  0
VERTEX
  8
LAYER_2
 62
7
 10
1.198252
 20
-0.713044
  0
VERTEX
  8
LAYER_2
 62
7
 10
1.230732
 20
-0.745524
  0
VERTEX
  8
LAYER_2
 62
7
 10
1.230732
 20
-0.748477
  0
VERTEX
  8
LAYER_2
 62
7
 10
1.229748
 20
-0.748477
  0
VERTEX
  8
LAYER_2
 62
7
 10
1.222858
 20
-0.750446
  0
VERTEX
  8
LAYER_2
 62
7
 10
1.216953
 20
-0.754383
  0
VERTEX
  8
LAYER_2
 62
7
 10
1.212032
 20
-0.759304
  0
VERTEX
  8
LAYER_2
 62
7
 10
1.208095
 20
-0.765209
  0
VERTEX
  8
LAYER_2
 62
7
 10
1.206126
 20
-0.772099
  0
VERTEX
  8
LAYER_2
 62
7
 10
1.206126
 20
-0.830170
  0
VERTEX
  8
LAYER_2
 62
7
 10
1.208095
 20
-0.837060
  0
VERTEX
  8
LAYER_2
 62
7
 10
1.212032
 20
-0.842965
  0
VERTEX
  8
LAYER_2
 62
7
 10
1.216953
 20
-0.847887
  0
VERTEX
  8
LAYER_2
 62
7
 10
1.222858
 20
-0.851824
  0
VERTEX
  8
LAYER_2
 62
7
 10
1.229748
 20
-0.853792
  0
VERTEX
  8
LAYER_2
 62
7
 10
1.235654
 20
-0.853792
  0
VERTEX
  8
LAYER_2
 62
7
 10
1.242543
 20
-0.851824
  0
VERTEX
  8
LAYER_2
 62
7
 10
1.248449
 20
-0.847887
  0
VERTEX
  8
LAYER_2
 62
7
 10
1.253370
 20
-0.842965
  0
VERTEX
  8
LAYER_2
 62
7
 10
1.257307
 20
-0.837060
  0
VERTEX
  8
LAYER_2
 62
7
 10
1.259276
 20
-0.830170
  0
VERTEX
  8
LAYER_2
 62
7
 10
1.259276
 20
-0.772099
  0
VERTEX
  8
LAYER_2
 62
7
 10
1.257307
 20
-0.765209
  0
VERTEX
  8
LAYER_2
 62
7
 10
1.254354
 20
-0.760780
  0
VERTEX
  8
LAYER_2
 62
7
 10
1.254354
 20
-0.742572
  0
VERTEX
  8
LAYER_2
 62
7
 10
1.254354
 20
-0.738635
  0
VERTEX
  8
LAYER_2
 62
7
 10
1.252386
 20
-0.733713
  0
VERTEX
  8
LAYER_2
 62
7
 10
1.249433
 20
-0.730761
  0
VERTEX
  8
LAYER_2
 62
7
 10
1.213016
 20
-0.694343
  0
VERTEX
  8
LAYER_2
 62
7
 10
1.210063
 20
-0.691391
  0
VERTEX
  8
LAYER_2
 62
7
 10
1.205142
 20
-0.689422
  0
VERTEX
  8
LAYER_2
 62
7
 10
1.201205
 20
-0.689422
  0
VERTEX
  8
LAYER_2
 62
7
 10
1.004354
 20
-0.689422
  0
VERTEX
  8
LAYER_2
 62
7
 10
1.000417
 20
-0.689422
  0
VERTEX
  8
LAYER_2
 62
7
 10
0.999433
 20
-0.689422
  0
VERTEX
  8
LAYER_2
 62
7
 10
0.995496
 20
-0.691391
  0
VERTEX
  8
LAYER_2
 62
7
 10
0.992543
 20
-0.694343
  0
VERTEX
  8
LAYER_2
 62
7
 10
0.992344
 20
-0.694843
  0
VERTEX
  8
LAYER_2
 62
7
 10
0.783369
 20
-0.923674
  0
VERTEX
  8
LAYER_2
 62
7
 10
0.683488
 20
-0.923674
  0
VERTEX
  8
LAYER_2
 62
7
 10
0.678567
 20
-0.923674
  0
VERTEX
  8
LAYER_2
 62
7
 10
0.673646
 20
-0.925643
  0
VERTEX
  8
LAYER_2
 62
7
 10
0.425821
 20
-1.163749
  0
VERTEX
  8
LAYER_2
 62
7
 10
0.425614
 20
-1.163832
  0
VERTEX
  8
LAYER_2
 62
7
 10
0.422661
 20
-1.166784
  0
VERTEX
  8
LAYER_2
 62
7
 10
0.420693
 20
-1.170721
  0
VERTEX
  8
LAYER_2
 62
7
 10
0.420693
 20
-1.171706
  0
VERTEX
  8
LAYER_2
 62
7
 10
0.420693
 20
-1.175643
  0
VERTEX
  8
LAYER_2
 62
7
 10
0.420693
 20
-1.267178
  0
SEQEND
  0
POLYLINE
  8
LAYER_2
 62
4
 70
1
 66
1
  0
VERTEX
  8
LAYER_2
 62
7
 10
2.109669
 20
-1.812454
  0
VERTEX
  8
LAYER_2
 62
7
 10
2.123449
 20
-1.826233
  0
VERTEX
  8
LAYER_2
 62
7
 10
2.143134
 20
-1.826233
  0
VERTEX
  8
LAYER_2
 62
7
 10
2.158882
 20
-1.810485
  0
VERTEX
  8
LAYER_2
 62
7
 10
2.158882
 20
-1.790800
  0
VERTEX
  8
LAYER_2
 62
7
 10
2.143134
 20
-1.775052
  0
VERTEX
  8
LAYER_2
 62
7
 10
2.123449
 20
-1.775052
  0
VERTEX
  8
LAYER_2
 62
7
 10
2.109669
 20
-1.788832
  0
VERTEX
  8
LAYER_2
 62
7
 10
1.790886
 20
-1.788832
  0
VERTEX
  8
LAYER_2
 62
7
 10
1.732701
 20
-1.653989
  0
VERTEX
  8
LAYER_2
 62
7
 10
1.729748
 20
-1.651036
  0
VERTEX
  8
LAYER_2
 62
7
 10
1.722858
 20
-1.644147
  0
VERTEX
  8
LAYER_2
 62
7
 10
1.719906
 20
-1.641194
  0
VERTEX
  8
LAYER_2
 62
7
 10
1.714984
 20
-1.639225
  0
VERTEX
  8
LAYER_2
 62
7
 10
1.711047
 20
-1.639225
  0
VERTEX
  8
LAYER_2
 62
7
 10
1.682176
 20
-1.639225
  0
VERTEX
  8
LAYER_2
 62
7
 10
1.679551
 20
-1.635288
  0
VERTEX
  8
LAYER_2
 62
7
 10
1.674630
 20
-1.630367
  0
VERTEX
  8
LAYER_2
 62
7
 10
1.668724
 20
-1.626430
  0
VERTEX
  8
LAYER_2
 62
7
 10
1.661835
 20
-1.624461
  0
VERTEX
  8
LAYER_2
 62
7
 10
1.603764
 20
-1.624461
  0
VERTEX
  8
LAYER_2
 62
7
 10
1.596874
 20
-1.626430
  0
VERTEX
  8
LAYER_2
 62
7
 10
1.590969
 20
-1.630367
  0
VERTEX
  8
LAYER_2
 62
7
 10
1.586047
 20
-1.635288
  0
VERTEX
  8
LAYER_2
 62
7
 10
1.582110
 20
-1.641194
  0
VERTEX
  8
LAYER_2
 62
7
 10
1.580142
 20
-1.648084
  0
VERTEX
  8
LAYER_2
 62
7
 10
1.580142
 20
-1.653989
  0
VERTEX
  8
LAYER_2
 62
7
 10
1.582110
 20
-1.660879
  0
VERTEX
  8
LAYER_2
 62
7
 10
1.586047
 20
-1.666784
  0
VERTEX
  8
LAYER_2
 62
7
 10
1.590969
 20
-1.671706
  0
VERTEX
  8
LAYER_2
 62
7
 10
1.596874
 20
-1.675643
  0
VERTEX
  8
LAYER_2
 62
7
 10
1.603764
 20
-1.677611
  0
VERTEX
  8
LAYER_2
 62
7
 10
1.661835
 20
-1.677611
  0
VERTEX
  8
LAYER_2
 62
7
 10
1.668724
 20
-1.675643
  0
VERTEX
  8
LAYER_2
 62
7
 10
1.674630
 20
-1.671706
  0
VERTEX
  8
LAYER_2
 62
7
 10
1.679551
 20
-1.666784
  0
VERTEX
  8
LAYER_2
 62
7
 10
1.682176
 20
-1.662847
  0
VERTEX
  8
LAYER_2
 62
7
 10
1.708095
 20
-1.662847
  0
VERTEX
  8
LAYER_2
 62
7
 10
1.712541
 20
-1.667294
  0
VERTEX
  8
LAYER_2
 62
7
 10
1.773055
 20
-1.807532
  0
VERTEX
  8
LAYER_2
 62
7
 10
1.776008
 20
-1.810485
  0
VERTEX
  8
LAYER_2
 62
7
 10
1.780929
 20
-1.812454
  0
VERTEX
  8
LAYER_2
 62
7
 10
1.785850
 20
-1.812454
  0
VERTEX
  8
LAYER_2
 62
7
 10
2.109669
 20
-1.812454
  0
SEQEND
  0
POLYLINE
  8
LAYER_2
 62
4
 70
1
 66
1
  0
VERTEX
  8
LAYER_2
 62
7
 10
2.139403
 20
-1.675643
  0
VERTEX
  8
LAYER_2
 62
7
 10
2.123449
 20
-1.675643
  0
VERTEX
  8
LAYER_2
 62
7
 10
2.107701
 20
-1.691391
  0
VERTEX
  8
LAYER_2
 62
7
 10
2.107701
 20
-1.711076
  0
VERTEX
  8
LAYER_2
 62
7
 10
2.123449
 20
-1.726824
  0
VERTEX
  8
LAYER_2
 62
7
 10
2.143134
 20
-1.726824
  0
VERTEX
  8
LAYER_2
 62
7
 10
2.158882
 20
-1.711076
  0
VERTEX
  8
LAYER_2
 62
7
 10
2.158882
 20
-1.691391
  0
VERTEX
  8
LAYER_2
 62
7
 10
2.158464
 20
-1.690972
  0
VERTEX
  8
LAYER_2
 62
7
 10
2.197062
 20
-1.646115
  0
VERTEX
  8
LAYER_2
 62
7
 10
2.213016
 20
-1.646115
  0
VERTEX
  8
LAYER_2
 62
7
 10
2.228764
 20
-1.630367
  0
VERTEX
  8
LAYER_2
 62
7
 10
2.228764
 20
-1.610682
  0
VERTEX
  8
LAYER_2
 62
7
 10
2.213016
 20
-1.594934
  0
VERTEX
  8
LAYER_2
 62
7
 10
2.193331
 20
-1.594934
  0
VERTEX
  8
LAYER_2
 62
7
 10
2.177583
 20
-1.610682
  0
VERTEX
  8
LAYER_2
 62
7
 10
2.177583
 20
-1.630367
  0
VERTEX
  8
LAYER_2
 62
7
 10
2.178001
 20
-1.630785
  0
VERTEX
  8
LAYER_2
 62
7
 10
2.139403
 20
-1.675643
  0
SEQEND
  0
POLYLINE
  8
LAYER_2
 62
4
 70
1
 66
1
  0
VERTEX
  8
LAYER_2
 62
7
 10
1.142769
 20
-2.374461
  0
VERTEX
  8
LAYER_2
 62
7
 10
1.103764
 20
-2.374461
  0
VERTEX
  8
LAYER_2
 62
7
 10
1.096874
 20
-2.376430
  0
VERTEX
  8
LAYER_2
 62
7
 10
1.090969
 20
-2.380367
  0
VERTEX
  8
LAYER_2
 62
7
 10
1.086047
 20
-2.385288
  0
VERTEX
  8
LAYER_2
 62
7
 10
1.082110
 20
-2.391194
  0
VERTEX
  8
LAYER_2
 62
7
 10
1.080142
 20
-2.398084
  0
VERTEX
  8
LAYER_2
 62
7
 10
1.080142
 20
-2.403989
  0
VERTEX
  8
LAYER_2
 62
7
 10
1.082110
 20
-2.410879
  0
VERTEX
  8
LAYER_2
 62
7
 10
1.086047
 20
-2.416784
  0
VERTEX
  8
LAYER_2
 62
7
 10
1.090969
 20
-2.421706
  0
VERTEX
  8
LAYER_2
 62
7
 10
1.096874
 20
-2.425643
  0
VERTEX
  8
LAYER_2
 62
7
 10
1.103764
 20
-2.427611
  0
VERTEX
  8
LAYER_2
 62
7
 10
1.161835
 20
-2.427611
  0
VERTEX
  8
LAYER_2
 62
7
 10
1.168724
 20
-2.425643
  0
VERTEX
  8
LAYER_2
 62
7
 10
1.174630
 20
-2.421706
  0
VERTEX
  8
LAYER_2
 62
7
 10
1.179551
 20
-2.416784
  0
VERTEX
  8
LAYER_2
 62
7
 10
1.183488
 20
-2.410879
  0
VERTEX
  8
LAYER_2
 62
7
 10
1.185457
 20
-2.403989
  0
VERTEX
  8
LAYER_2
 62
7
 10
1.185457
 20
-2.398084
  0
VERTEX
  8
LAYER_2
 62
7
 10
1.183488
 20
-2.391194
  0
VERTEX
  8
LAYER_2
 62
7
 10
1.179551
 20
-2.385288
  0
VERTEX
  8
LAYER_2
 62
7
 10
1.174630
 20
-2.380367
  0
VERTEX
  8
LAYER_2
 62
7
 10
1.171909
 20
-2.378553
  0
VERTEX
  8
LAYER_2
 62
7
 10
1.187516
 20
-2.362650
  0
VERTEX
  8
LAYER_2
 62
7
 10
2.109669
 20
-2.362650
  0
VERTEX
  8
LAYER_2
 62
7
 10
2.123449
 20
-2.376430
  0
VERTEX
  8
LAYER_2
 62
7
 10
2.143134
 20
-2.376430
  0
VERTEX
  8
LAYER_2
 62
7
 10
2.158882
 20
-2.360682
  0
VERTEX
  8
LAYER_2
 62
7
 10
2.158882
 20
-2.340997
  0
VERTEX
  8
LAYER_2
 62
7
 10
2.143134
 20
-2.325249
  0
VERTEX
  8
LAYER_2
 62
7
 10
2.123449
 20
-2.325249
  0
VERTEX
  8
LAYER_2
 62
7
 10
2.109669
 20
-2.339028
  0
VERTEX
  8
LAYER_2
 62
7
 10
1.184473
 20
-2.339028
  0
VERTEX
  8
LAYER_2
 62
7
 10
1.180536
 20
-2.339028
  0
VERTEX
  8
LAYER_2
 62
7
 10
1.179551
 20
-2.339028
  0
VERTEX
  8
LAYER_2
 62
7
 10
1.175614
 20
-2.340997
  0
VERTEX
  8
LAYER_2
 62
7
 10
1.172661
 20
-2.343950
  0
VERTEX
  8
LAYER_2
 62
7
 10
1.172624
 20
-2.344044
  0
VERTEX
  8
LAYER_2
 62
7
 10
1.142769
 20
-2.374461
  0
SEQEND
  0
POLYLINE
  8
LAYER_2
 62
4
 70
1
 66
1
  0
VERTEX
  8
LAYER_2
 62
7
 10
2.778961
 20
-2.672690
  0
VERTEX
  8
LAYER_2
 62
7
 10
2.792740
 20
-2.686469
  0
VERTEX
  8
LAYER_2
 62
7
 10
2.812425
 20
-2.686469
  0
VERTEX
  8
LAYER_2
 62
7
 10
2.828173
 20
-2.670721
  0
VERTEX
  8
LAYER_2
 62
7
 10
2.828173
 20
-2.651036
  0
VERTEX
  8
LAYER_2
 62
7
 10
2.812425
 20
-2.635288
  0
VERTEX
  8
LAYER_2
 62
7
 10
2.792740
 20
-2.635288
  0
VERTEX
  8
LAYER_2
 62
7
 10
2.778961
 20
-2.649068
  0
VERTEX
  8
LAYER_2
 62
7
 10
2.306520
 20
-2.649068
  0
VERTEX
  8
LAYER_2
 62
7
 10
2.301598
 20
-2.649068
  0
VERTEX
  8
LAYER_2
 62
7
 10
2.300614
 20
-2.649068
  0
VERTEX
  8
LAYER_2
 62
7
 10
2.299630
 20
-2.649461
  0
VERTEX
  8
LAYER_2
 62
7
 10
2.296677
 20
-2.650052
  0
VERTEX
  8
LAYER_2
 62
7
 10
2.144349
 20
-2.776267
  0
VERTEX
  8
LAYER_2
 62
7
 10
2.143134
 20
-2.775052
  0
VERTEX
  8
LAYER_2
 62
7
 10
2.123449
 20
-2.775052
  0
VERTEX
  8
LAYER_2
 62
7
 10
2.107701
 20
-2.790800
  0
VERTEX
  8
LAYER_2
 62
7
 10
2.107701
 20
-2.810485
  0
VERTEX
  8
LAYER_2
 62
7
 10
2.123449
 20
-2.826233
  0
VERTEX
  8
LAYER_2
 62
7
 10
2.143134
 20
-2.826233
  0
VERTEX
  8
LAYER_2
 62
7
 10
2.158882
 20
-2.810485
  0
VERTEX
  8
LAYER_2
 62
7
 10
2.158882
 20
-2.795159
  0
VERTEX
  8
LAYER_2
 62
7
 10
2.306689
 20
-2.672690
  0
VERTEX
  8
LAYER_2
 62
7
 10
2.778961
 20
-2.672690
  0
SEQEND
  0
POLYLINE
  8
LAYER_2
 62
4
 70
1
 66
1
  0
VERTEX
  8
LAYER_2
 62
7
 10
1.682176
 20
-2.589028
  0
VERTEX
  8
LAYER_2
 62
7
 10
1.679551
 20
-2.585091
  0
VERTEX
  8
LAYER_2
 62
7
 10
1.674630
 20
-2.580170
  0
VERTEX
  8
LAYER_2
 62
7
 10
1.668724
 20
-2.576233
  0
VERTEX
  8
LAYER_2
 62
7
 10
1.661835
 20
-2.574265
  0
VERTEX
  8
LAYER_2
 62
7
 10
1.603764
 20
-2.574265
  0
VERTEX
  8
LAYER_2
 62
7
 10
1.596874
 20
-2.576233
  0
VERTEX
  8
LAYER_2
 62
7
 10
1.590969
 20
-2.580170
  0
VERTEX
  8
LAYER_2
 62
7
 10
1.586047
 20
-2.585091
  0
VERTEX
  8
LAYER_2
 62
7
 10
1.582110
 20
-2.590997
  0
VERTEX
  8
LAYER_2
 62
7
 10
1.580142
 20
-2.597887
  0
VERTEX
  8
LAYER_2
 62
7
 10
1.580142
 20
-2.603792
  0
VERTEX
  8
LAYER_2
 62
7
 10
1.582110
 20
-2.610682
  0
VERTEX
  8
LAYER_2
 62
7
 10
1.586047
 20
-2.616587
  0
VERTEX
  8
LAYER_2
 62
7
 10
1.590969
 20
-2.621509
  0
VERTEX
  8
LAYER_2
 62
7
 10
1.596874
 20
-2.625446
  0
VERTEX
  8
LAYER_2
 62
7
 10
1.603764
 20
-2.627414
  0
VERTEX
  8
LAYER_2
 62
7
 10
1.661835
 20
-2.627414
  0
VERTEX
  8
LAYER_2
 62
7
 10
1.668724
 20
-2.625446
  0
VERTEX
  8
LAYER_2
 62
7
 10
1.674630
 20
-2.621509
  0
VERTEX
  8
LAYER_2
 62
7
 10
1.679551
 20
-2.616587
  0
VERTEX
  8
LAYER_2
 62
7
 10
1.682176
 20
-2.612650
  0
VERTEX
  8
LAYER_2
 62
7
 10
1.734669
 20
-2.612650
  0
VERTEX
  8
LAYER_2
 62
7
 10
1.790772
 20
-2.668753
  0
VERTEX
  8
LAYER_2
 62
7
 10
1.790772
 20
-2.690406
  0
VERTEX
  8
LAYER_2
 62
7
 10
1.790772
 20
-2.692375
  0
VERTEX
  8
LAYER_2
 62
7
 10
1.792740
 20
-2.697296
  0
VERTEX
  8
LAYER_2
 62
7
 10
1.794896
 20
-2.699452
  0
VERTEX
  8
LAYER_2
 62
7
 10
1.921955
 20
-2.906159
  0
VERTEX
  8
LAYER_2
 62
7
 10
1.922661
 20
-2.907926
  0
VERTEX
  8
LAYER_2
 62
7
 10
1.923646
 20
-2.908910
  0
VERTEX
  8
LAYER_2
 62
7
 10
1.925614
 20
-2.910879
  0
VERTEX
  8
LAYER_2
 62
7
 10
1.927020
 20
-2.911441
  0
VERTEX
  8
LAYER_2
 62
7
 10
1.927583
 20
-2.911863
  0
VERTEX
  8
LAYER_2
 62
7
 10
1.928567
 20
-2.912060
  0
VERTEX
  8
LAYER_2
 62
7
 10
1.930536
 20
-2.912847
  0
VERTEX
  8
LAYER_2
 62
7
 10
1.932504
 20
-2.912847
  0
VERTEX
  8
LAYER_2
 62
7
 10
2.135260
 20
-2.912847
  0
VERTEX
  8
LAYER_2
 62
7
 10
2.140181
 20
-2.910879
  0
VERTEX
  8
LAYER_2
 62
7
 10
2.143134
 20
-2.907926
  0
VERTEX
  8
LAYER_2
 62
7
 10
2.145102
 20
-2.903005
  0
VERTEX
  8
LAYER_2
 62
7
 10
2.145102
 20
-2.899068
  0
VERTEX
  8
LAYER_2
 62
7
 10
2.143134
 20
-2.894147
  0
VERTEX
  8
LAYER_2
 62
7
 10
2.140181
 20
-2.891194
  0
VERTEX
  8
LAYER_2
 62
7
 10
2.135260
 20
-2.889225
  0
VERTEX
  8
LAYER_2
 62
7
 10
1.938491
 20
-2.889225
  0
VERTEX
  8
LAYER_2
 62
7
 10
1.814394
 20
-2.687336
  0
VERTEX
  8
LAYER_2
 62
7
 10
1.814394
 20
-2.665800
  0
VERTEX
  8
LAYER_2
 62
7
 10
1.814394
 20
-2.661863
  0
VERTEX
  8
LAYER_2
 62
7
 10
1.812425
 20
-2.656942
  0
VERTEX
  8
LAYER_2
 62
7
 10
1.809473
 20
-2.653989
  0
VERTEX
  8
LAYER_2
 62
7
 10
1.749433
 20
-2.593950
  0
VERTEX
  8
LAYER_2
 62
7
 10
1.746480
 20
-2.590997
  0
VERTEX
  8
LAYER_2
 62
7
 10
1.741559
 20
-2.589028
  0
VERTEX
  8
LAYER_2
 62
7
 10
1.737622
 20
-2.589028
  0
VERTEX
  8
LAYER_2
 62
7
 10
1.682176
 20
-2.589028
  0
SEQEND
  0
POLYLINE
  8
LAYER_2
 62
4
 70
1
 66
1
  0
VERTEX
  8
LAYER_2
 62
7
 10
3.672268
 20
-2.644147
  0
VERTEX
  8
LAYER_2
 62
7
 10
3.686441
 20
-2.644147
  0
VERTEX
  8
LAYER_2
 62
7
 10
3.686441
 20
-2.632335
  0
VERTEX
  8
LAYER_2
 62
7
 10
3.668724
 20
-2.632335
  0
VERTEX
  8
LAYER_2
 62
7
 10
3.667740
 20
-2.631351
  0
VERTEX
  8
LAYER_2
 62
7
 10
3.662819
 20
-2.629383
  0
VERTEX
  8
LAYER_2
 62
7
 10
3.036835
 20
-2.629383
  0
VERTEX
  8
LAYER_2
 62
7
 10
3.023055
 20
-2.615603
  0
VERTEX
  8
LAYER_2
 62
7
 10
3.003370
 20
-2.615603
  0
VERTEX
  8
LAYER_2
 62
7
 10
2.987622
 20
-2.631351
  0
VERTEX
  8
LAYER_2
 62
7
 10
2.987622
 20
-2.651036
  0
VERTEX
  8
LAYER_2
 62
7
 10
3.003370
 20
-2.666784
  0
VERTEX
  8
LAYER_2
 62
7
 10
3.023055
 20
-2.666784
  0
VERTEX
  8
LAYER_2
 62
7
 10
3.036835
 20
-2.653005
  0
VERTEX
  8
LAYER_2
 62
7
 10
3.662819
 20
-2.653005
  0
VERTEX
  8
LAYER_2
 62
7
 10
3.667740
 20
-2.651036
  0
VERTEX
  8
LAYER_2
 62
7
 10
3.670693
 20
-2.648084
  0
VERTEX
  8
LAYER_2
 62
7
 10
3.672268
 20
-2.644147
  0
SEQEND
  0
POLYLINE
  8
LAYER_2
 62
4
 70
1
 66
1
  0
VERTEX
  8
LAYER_2
 62
7
 10
3.708095
 20
-2.612650
  0
VERTEX
  8
LAYER_2
 62
7
 10
3.715969
 20
-2.620524
  0
VERTEX
  8
LAYER_2
 62
7
 10
3.715969
 20
-2.747493
  0
VERTEX
  8
LAYER_2
 62
7
 10
3.624433
 20
-2.839028
  0
VERTEX
  8
LAYER_2
 62
7
 10
2.231717
 20
-2.839028
  0
VERTEX
  8
LAYER_2
 62
7
 10
2.217937
 20
-2.825249
  0
VERTEX
  8
LAYER_2
 62
7
 10
2.198252
 20
-2.825249
  0
VERTEX
  8
LAYER_2
 62
7
 10
2.182504
 20
-2.840997
  0
VERTEX
  8
LAYER_2
 62
7
 10
2.182504
 20
-2.860682
  0
VERTEX
  8
LAYER_2
 62
7
 10
2.198252
 20
-2.876430
  0
VERTEX
  8
LAYER_2
 62
7
 10
2.217937
 20
-2.876430
  0
VERTEX
  8
LAYER_2
 62
7
 10
2.231717
 20
-2.862650
  0
VERTEX
  8
LAYER_2
 62
7
 10
3.627386
 20
-2.862650
  0
VERTEX
  8
LAYER_2
 62
7
 10
3.631323
 20
-2.862650
  0
VERTEX
  8
LAYER_2
 62
7
 10
3.636244
 20
-2.860682
  0
VERTEX
  8
LAYER_2
 62
7
 10
3.639197
 20
-2.857729
  0
VERTEX
  8
LAYER_2
 62
7
 10
3.734669
 20
-2.762257
  0
VERTEX
  8
LAYER_2
 62
7
 10
3.737622
 20
-2.759304
  0
VERTEX
  8
LAYER_2
 62
7
 10
3.739591
 20
-2.754383
  0
VERTEX
  8
LAYER_2
 62
7
 10
3.739591
 20
-2.750446
  0
VERTEX
  8
LAYER_2
 62
7
 10
3.739591
 20
-2.617572
  0
VERTEX
  8
LAYER_2
 62
7
 10
3.739591
 20
-2.613635
  0
VERTEX
  8
LAYER_2
 62
7
 10
3.737622
 20
-2.608713
  0
VERTEX
  8
LAYER_2
 62
7
 10
3.734669
 20
-2.605761
  0
VERTEX
  8
LAYER_2
 62
7
 10
3.722858
 20
-2.593950
  0
VERTEX
  8
LAYER_2
 62
7
 10
3.719906
 20
-2.590997
  0
VERTEX
  8
LAYER_2
 62
7
 10
3.714984
 20
-2.589028
  0
VERTEX
  8
LAYER_2
 62
7
 10
3.711047
 20
-2.589028
  0
VERTEX
  8
LAYER_2
 62
7
 10
3.668724
 20
-2.589028
  0
VERTEX
  8
LAYER_2
 62
7
 10
3.666264
 20
-2.590013
  0
VERTEX
  8
LAYER_2
 62
7
 10
3.651992
 20
-2.590013
  0
VERTEX
  8
LAYER_2
 62
7
 10
3.650516
 20
-2.592965
  0
VERTEX
  8
LAYER_2
 62
7
 10
3.635260
 20
-2.592965
  0
VERTEX
  8
LAYER_2
 62
7
 10
3.635260
 20
-2.604776
  0
VERTEX
  8
LAYER_2
 62
7
 10
3.650516
 20
-2.604776
  0
VERTEX
  8
LAYER_2
 62
7
 10
3.651992
 20
-2.607729
  0
VERTEX
  8
LAYER_2
 62
7
 10
3.655929
 20
-2.609698
  0
VERTEX
  8
LAYER_2
 62
7
 10
3.666756
 20
-2.611863
  0
VERTEX
  8
LAYER_2
 62
7
 10
3.668724
 20
-2.612650
  0
VERTEX
  8
LAYER_2
 62
7
 10
3.670693
 20
-2.612650
  0
VERTEX
  8
LAYER_2
 62
7
 10
3.708095
 20
-2.612650
  0
SEQEND
  0
POLYLINE
  8
LAYER_2
 62
4
 70
1
 66
1
  0
VERTEX
  8
LAYER_2
 62
7
 10
3.476795
 20
-1.072296
  0
VERTEX
  8
LAYER_2
 62
7
 10
3.388213
 20
-1.072296
  0
VERTEX
  8
LAYER_2
 62
7
 10
3.378370
 20
-1.075249
  0
VERTEX
  8
LAYER_2
 62
7
 10
3.368528
 20
-1.080170
  0
VERTEX
  8
LAYER_2
 62
7
 10
3.361638
 20
-1.087060
  0
VERTEX
  8
LAYER_2
 62
7
 10
3.356717
 20
-1.096902
  0
VERTEX
  8
LAYER_2
 62
7
 10
3.353764
 20
-1.106745
  0
VERTEX
  8
LAYER_2
 62
7
 10
3.353764
 20
-1.116587
  0
VERTEX
  8
LAYER_2
 62
7
 10
3.356717
 20
-1.126430
  0
VERTEX
  8
LAYER_2
 62
7
 10
3.361638
 20
-1.136272
  0
VERTEX
  8
LAYER_2
 62
7
 10
3.368528
 20
-1.143162
  0
VERTEX
  8
LAYER_2
 62
7
 10
3.378370
 20
-1.148084
  0
VERTEX
  8
LAYER_2
 62
7
 10
3.388213
 20
-1.151036
  0
VERTEX
  8
LAYER_2
 62
7
 10
3.476795
 20
-1.151036
  0
VERTEX
  8
LAYER_2
 62
7
 10
3.486638
 20
-1.148084
  0
VERTEX
  8
LAYER_2
 62
7
 10
3.496480
 20
-1.143162
  0
VERTEX
  8
LAYER_2
 62
7
 10
3.503370
 20
-1.136272
  0
VERTEX
  8
LAYER_2
 62
7
 10
3.508291
 20
-1.126430
  0
VERTEX
  8
LAYER_2
 62
7
 10
3.511244
 20
-1.116587
  0
VERTEX
  8
LAYER_2
 62
7
 10
3.511244
 20
-1.106745
  0
VERTEX
  8
LAYER_2
 62
7
 10
3.508291
 20
-1.096902
  0
VERTEX
  8
LAYER_2
 62
7
 10
3.503370
 20
-1.087060
  0
VERTEX
  8
LAYER_2
 62
7
 10
3.496480
 20
-1.080170
  0
VERTEX
  8
LAYER_2
 62
7
 10
3.486638
 20
-1.075249
  0
VERTEX
  8
LAYER_2
 62
7
 10
3.476795
 20
-1.072296
  0
SEQEND
  0
POLYLINE
  8
LAYER_2
 62
4
 70
1
 66
1
  0
VERTEX
  8
LAYER_2
 62
7
 10
2.143393
 20
-1.075508
  0
VERTEX
  8
LAYER_2
 62
7
 10
2.143134
 20
-1.075249
  0
VERTEX
  8
LAYER_2
 62
7
 10
2.123449
 20
-1.075249
  0
VERTEX
  8
LAYER_2
 62
7
 10
2.107701
 20
-1.090997
  0
VERTEX
  8
LAYER_2
 62
7
 10
2.107701
 20
-1.110682
  0
VERTEX
  8
LAYER_2
 62
7
 10
2.123449
 20
-1.126430
  0
VERTEX
  8
LAYER_2
 62
7
 10
2.143134
 20
-1.126430
  0
VERTEX
  8
LAYER_2
 62
7
 10
2.158882
 20
-1.110682
  0
VERTEX
  8
LAYER_2
 62
7
 10
2.158882
 20
-1.092480
  0
VERTEX
  8
LAYER_2
 62
7
 10
2.262953
 20
-0.996250
  0
VERTEX
  8
LAYER_2
 62
7
 10
2.263213
 20
-0.996509
  0
VERTEX
  8
LAYER_2
 62
7
 10
2.282898
 20
-0.996509
  0
VERTEX
  8
LAYER_2
 62
7
 10
2.298646
 20
-0.980761
  0
VERTEX
  8
LAYER_2
 62
7
 10
2.298646
 20
-0.961076
  0
VERTEX
  8
LAYER_2
 62
7
 10
2.282898
 20
-0.945328
  0
VERTEX
  8
LAYER_2
 62
7
 10
2.263213
 20
-0.945328
  0
VERTEX
  8
LAYER_2
 62
7
 10
2.247465
 20
-0.961076
  0
VERTEX
  8
LAYER_2
 62
7
 10
2.247465
 20
-0.979278
  0
VERTEX
  8
LAYER_2
 62
7
 10
2.143393
 20
-1.075508
  0
SEQEND
  0
POLYLINE
  8
LAYER_2
 62
4
 70
1
 66
1
  0
VERTEX
  8
LAYER_2
 62
7
 10
2.107701
 20
-1.197296
  0
VERTEX
  8
LAYER_2
 62
7
 10
2.107701
 20
-1.211076
  0
VERTEX
  8
LAYER_2
 62
7
 10
2.123449
 20
-1.226824
  0
VERTEX
  8
LAYER_2
 62
7
 10
2.143134
 20
-1.226824
  0
VERTEX
  8
LAYER_2
 62
7
 10
2.158882
 20
-1.211076
  0
VERTEX
  8
LAYER_2
 62
7
 10
2.158882
 20
-1.191391
  0
VERTEX
  8
LAYER_2
 62
7
 10
2.143134
 20
-1.175643
  0
VERTEX
  8
LAYER_2
 62
7
 10
2.123449
 20
-1.175643
  0
VERTEX
  8
LAYER_2
 62
7
 10
2.120906
 20
-1.178185
  0
VERTEX
  8
LAYER_2
 62
7
 10
2.000202
 20
-1.091968
  0
VERTEX
  8
LAYER_2
 62
7
 10
1.953562
 20
-1.049647
  0
VERTEX
  8
LAYER_2
 62
7
 10
1.953173
 20
-1.048674
  0
VERTEX
  8
LAYER_2
 62
7
 10
1.869512
 20
-0.965013
  0
VERTEX
  8
LAYER_2
 62
7
 10
1.866559
 20
-0.962060
  0
VERTEX
  8
LAYER_2
 62
7
 10
1.866281
 20
-0.961948
  0
VERTEX
  8
LAYER_2
 62
7
 10
1.812425
 20
-0.910879
  0
VERTEX
  8
LAYER_2
 62
7
 10
1.807504
 20
-0.908910
  0
VERTEX
  8
LAYER_2
 62
7
 10
1.802583
 20
-0.908910
  0
VERTEX
  8
LAYER_2
 62
7
 10
0.972858
 20
-0.908910
  0
VERTEX
  8
LAYER_2
 62
7
 10
0.967937
 20
-0.908910
  0
VERTEX
  8
LAYER_2
 62
7
 10
0.966953
 20
-0.908910
  0
VERTEX
  8
LAYER_2
 62
7
 10
0.965312
 20
-0.909566
  0
VERTEX
  8
LAYER_2
 62
7
 10
0.964000
 20
-0.909895
  0
VERTEX
  8
LAYER_2
 62
7
 10
0.963436
 20
-0.910317
  0
VERTEX
  8
LAYER_2
 62
7
 10
0.962032
 20
-0.910879
  0
VERTEX
  8
LAYER_2
 62
7
 10
0.960079
 20
-0.912831
  0
VERTEX
  8
LAYER_2
 62
7
 10
0.756992
 20
-1.064934
  0
VERTEX
  8
LAYER_2
 62
7
 10
0.753370
 20
-1.059501
  0
VERTEX
  8
LAYER_2
 62
7
 10
0.748449
 20
-1.054580
  0
VERTEX
  8
LAYER_2
 62
7
 10
0.742543
 20
-1.050643
  0
VERTEX
  8
LAYER_2
 62
7
 10
0.735654
 20
-1.048674
  0
VERTEX
  8
LAYER_2
 62
7
 10
0.729748
 20
-1.048674
  0
VERTEX
  8
LAYER_2
 62
7
 10
0.722858
 20
-1.050643
  0
VERTEX
  8
LAYER_2
 62
7
 10
0.716953
 20
-1.054580
  0
VERTEX
  8
LAYER_2
 62
7
 10
0.712032
 20
-1.059501
  0
VERTEX
  8
LAYER_2
 62
7
 10
0.708095
 20
-1.065406
  0
VERTEX
  8
LAYER_2
 62
7
 10
0.706126
 20
-1.072296
  0
VERTEX
  8
LAYER_2
 62
7
 10
0.706126
 20
-1.129383
  0
VERTEX
  8
LAYER_2
 62
7
 10
0.708095
 20
-1.136272
  0
VERTEX
  8
LAYER_2
 62
7
 10
0.712032
 20
-1.142178
  0
VERTEX
  8
LAYER_2
 62
7
 10
0.716953
 20
-1.147099
  0
VERTEX
  8
LAYER_2
 62
7
 10
0.722858
 20
-1.151036
  0
VERTEX
  8
LAYER_2
 62
7
 10
0.729748
 20
-1.153005
  0
VERTEX
  8
LAYER_2
 62
7
 10
0.735654
 20
-1.153005
  0
VERTEX
  8
LAYER_2
 62
7
 10
0.742543
 20
-1.151036
  0
VERTEX
  8
LAYER_2
 62
7
 10
0.748449
 20
-1.147099
  0
VERTEX
  8
LAYER_2
 62
7
 10
0.753370
 20
-1.142178
  0
VERTEX
  8
LAYER_2
 62
7
 10
0.757307
 20
-1.136272
  0
VERTEX
  8
LAYER_2
 62
7
 10
0.759276
 20
-1.129383
  0
VERTEX
  8
LAYER_2
 62
7
 10
0.759276
 20
-1.092245
  0
VERTEX
  8
LAYER_2
 62
7
 10
0.972523
 20
-0.932532
  0
VERTEX
  8
LAYER_2
 62
7
 10
1.800883
 20
-0.932532
  0
VERTEX
  8
LAYER_2
 62
7
 10
1.852780
 20
-0.981745
  0
VERTEX
  8
LAYER_2
 62
7
 10
1.933488
 20
-1.062454
  0
VERTEX
  8
LAYER_2
 62
7
 10
1.936441
 20
-1.065406
  0
VERTEX
  8
LAYER_2
 62
7
 10
1.936980
 20
-1.065622
  0
VERTEX
  8
LAYER_2
 62
7
 10
1.983035
 20
-1.107412
  0
VERTEX
  8
LAYER_2
 62
7
 10
1.983685
 20
-1.108713
  0
VERTEX
  8
LAYER_2
 62
7
 10
2.107701
 20
-1.197296
  0
SEQEND
  0
POLYLINE
  8
LAYER_2
 62
4
 70
1
 66
1
  0
VERTEX
  8
LAYER_2
 62
7
 10
1.259276
 20
-1.129383
  0
VERTEX
  8
LAYER_2
 62
7
 10
1.259276
 20
-1.072296
  0
VERTEX
  8
LAYER_2
 62
7
 10
1.257307
 20
-1.065406
  0
VERTEX
  8
LAYER_2
 62
7
 10
1.253370
 20
-1.059501
  0
VERTEX
  8
LAYER_2
 62
7
 10
1.248449
 20
-1.054580
  0
VERTEX
  8
LAYER_2
 62
7
 10
1.242543
 20
-1.050643
  0
VERTEX
  8
LAYER_2
 62
7
 10
1.235654
 20
-1.048674
  0
VERTEX
  8
LAYER_2
 62
7
 10
1.229748
 20
-1.048674
  0
VERTEX
  8
LAYER_2
 62
7
 10
1.222858
 20
-1.050643
  0
VERTEX
  8
LAYER_2
 62
7
 10
1.216953
 20
-1.054580
  0
VERTEX
  8
LAYER_2
 62
7
 10
1.212032
 20
-1.059501
  0
VERTEX
  8
LAYER_2
 62
7
 10
1.208095
 20
-1.065406
  0
VERTEX
  8
LAYER_2
 62
7
 10
1.206126
 20
-1.072296
  0
VERTEX
  8
LAYER_2
 62
7
 10
1.206126
 20
-1.129383
  0
VERTEX
  8
LAYER_2
 62
7
 10
1.208095
 20
-1.136272
  0
VERTEX
  8
LAYER_2
 62
7
 10
1.212032
 20
-1.142178
  0
VERTEX
  8
LAYER_2
 62
7
 10
1.216953
 20
-1.147099
  0
VERTEX
  8
LAYER_2
 62
7
 10
1.222858
 20
-1.151036
  0
VERTEX
  8
LAYER_2
 62
7
 10
1.229748
 20
-1.153005
  0
VERTEX
  8
LAYER_2
 62
7
 10
1.235654
 20
-1.153005
  0
VERTEX
  8
LAYER_2
 62
7
 10
1.242543
 20
-1.151036
  0
VERTEX
  8
LAYER_2
 62
7
 10
1.248449
 20
-1.147099
  0
VERTEX
  8
LAYER_2
 62
7
 10
1.253370
 20
-1.142178
  0
VERTEX
  8
LAYER_2
 62
7
 10
1.257307
 20
-1.136272
  0
VERTEX
  8
LAYER_2
 62
7
 10
1.259276
 20
-1.129383
  0
SEQEND
  0
POLYLINE
  8
LAYER_2
 62
4
 70
1
 66
1
  0
VERTEX
  8
LAYER_2
 62
7
 10
0.659866
 20
-1.129383
  0
VERTEX
  8
LAYER_2
 62
7
 10
0.659866
 20
-1.072296
  0
VERTEX
  8
LAYER_2
 62
7
 10
0.657898
 20
-1.065406
  0
VERTEX
  8
LAYER_2
 62
7
 10
0.653961
 20
-1.059501
  0
VERTEX
  8
LAYER_2
 62
7
 10
0.649039
 20
-1.054580
  0
VERTEX
  8
LAYER_2
 62
7
 10
0.643134
 20
-1.050643
  0
VERTEX
  8
LAYER_2
 62
7
 10
0.636244
 20
-1.048674
  0
VERTEX
  8
LAYER_2
 62
7
 10
0.630339
 20
-1.048674
  0
VERTEX
  8
LAYER_2
 62
7
 10
0.623449
 20
-1.050643
  0
VERTEX
  8
LAYER_2
 62
7
 10
0.617543
 20
-1.054580
  0
VERTEX
  8
LAYER_2
 62
7
 10
0.612622
 20
-1.059501
  0
VERTEX
  8
LAYER_2
 62
7
 10
0.608685
 20
-1.065406
  0
VERTEX
  8
LAYER_2
 62
7
 10
0.606717
 20
-1.072296
  0
VERTEX
  8
LAYER_2
 62
7
 10
0.606717
 20
-1.129383
  0
VERTEX
  8
LAYER_2
 62
7
 10
0.608685
 20
-1.136272
  0
VERTEX
  8
LAYER_2
 62
7
 10
0.612622
 20
-1.142178
  0
VERTEX
  8
LAYER_2
 62
7
 10
0.617543
 20
-1.147099
  0
VERTEX
  8
LAYER_2
 62
7
 10
0.623449
 20
-1.151036
  0
VERTEX
  8
LAYER_2
 62
7
 10
0.630339
 20
-1.153005
  0
VERTEX
  8
LAYER_2
 62
7
 10
0.636244
 20
-1.153005
  0
VERTEX
  8
LAYER_2
 62
7
 10
0.643134
 20
-1.151036
  0
VERTEX
  8
LAYER_2
 62
7
 10
0.649039
 20
-1.147099
  0
VERTEX
  8
LAYER_2
 62
7
 10
0.653961
 20
-1.142178
  0
VERTEX
  8
LAYER_2
 62
7
 10
0.657898
 20
-1.136272
  0
VERTEX
  8
LAYER_2
 62
7
 10
0.659866
 20
-1.129383
  0
SEQEND
  0
POLYLINE
  8
LAYER_2
 62
4
 70
1
 66
1
  0
VERTEX
  8
LAYER_2
 62
7
 10
0.781117
 20
-2.493391
  0
VERTEX
  8
LAYER_2
 62
7
 10
0.779945
 20
-2.497493
  0
VERTEX
  8
LAYER_2
 62
7
 10
0.779945
 20
-2.503398
  0
VERTEX
  8
LAYER_2
 62
7
 10
0.781913
 20
-2.510288
  0
VERTEX
  8
LAYER_2
 62
7
 10
0.785850
 20
-2.516194
  0
VERTEX
  8
LAYER_2
 62
7
 10
0.790772
 20
-2.521115
  0
VERTEX
  8
LAYER_2
 62
7
 10
0.796677
 20
-2.525052
  0
VERTEX
  8
LAYER_2
 62
7
 10
0.803567
 20
-2.527021
  0
VERTEX
  8
LAYER_2
 62
7
 10
0.861638
 20
-2.527021
  0
VERTEX
  8
LAYER_2
 62
7
 10
0.868528
 20
-2.525052
  0
VERTEX
  8
LAYER_2
 62
7
 10
0.874433
 20
-2.521115
  0
VERTEX
  8
LAYER_2
 62
7
 10
0.879354
 20
-2.516194
  0
VERTEX
  8
LAYER_2
 62
7
 10
0.883291
 20
-2.510288
  0
VERTEX
  8
LAYER_2
 62
7
 10
0.885260
 20
-2.503398
  0
VERTEX
  8
LAYER_2
 62
7
 10
0.885260
 20
-2.497493
  0
VERTEX
  8
LAYER_2
 62
7
 10
0.883291
 20
-2.490603
  0
VERTEX
  8
LAYER_2
 62
7
 10
0.879354
 20
-2.484698
  0
VERTEX
  8
LAYER_2
 62
7
 10
0.874433
 20
-2.479776
  0
VERTEX
  8
LAYER_2
 62
7
 10
0.868528
 20
-2.475839
  0
VERTEX
  8
LAYER_2
 62
7
 10
0.861638
 20
-2.473871
  0
VERTEX
  8
LAYER_2
 62
7
 10
0.803567
 20
-2.473871
  0
VERTEX
  8
LAYER_2
 62
7
 10
0.798491
 20
-2.475321
  0
VERTEX
  8
LAYER_2
 62
7
 10
0.684473
 20
-2.432308
  0
VERTEX
  8
LAYER_2
 62
7
 10
0.684473
 20
-2.343950
  0
VERTEX
  8
LAYER_2
 62
7
 10
0.684473
 20
-2.339028
  0
VERTEX
  8
LAYER_2
 62
7
 10
0.682504
 20
-2.334107
  0
VERTEX
  8
LAYER_2
 62
7
 10
0.643180
 20
-2.293869
  0
VERTEX
  8
LAYER_2
 62
7
 10
0.643134
 20
-2.293753
  0
VERTEX
  8
LAYER_2
 62
7
 10
0.640181
 20
-2.290800
  0
VERTEX
  8
LAYER_2
 62
7
 10
0.636244
 20
-2.288832
  0
VERTEX
  8
LAYER_2
 62
7
 10
0.635260
 20
-2.288832
  0
VERTEX
  8
LAYER_2
 62
7
 10
0.631323
 20
-2.288832
  0
VERTEX
  8
LAYER_2
 62
7
 10
0.502058
 20
-2.288832
  0
VERTEX
  8
LAYER_2
 62
7
 10
0.501402
 20
-2.285879
  0
VERTEX
  8
LAYER_2
 62
7
 10
0.496480
 20
-2.278005
  0
VERTEX
  8
LAYER_2
 62
7
 10
0.489591
 20
-2.271115
  0
VERTEX
  8
LAYER_2
 62
7
 10
0.481717
 20
-2.266194
  0
VERTEX
  8
LAYER_2
 62
7
 10
0.472858
 20
-2.264225
  0
VERTEX
  8
LAYER_2
 62
7
 10
0.393134
 20
-2.264225
  0
VERTEX
  8
LAYER_2
 62
7
 10
0.384276
 20
-2.266194
  0
VERTEX
  8
LAYER_2
 62
7
 10
0.376402
 20
-2.271115
  0
VERTEX
  8
LAYER_2
 62
7
 10
0.369512
 20
-2.278005
  0
VERTEX
  8
LAYER_2
 62
7
 10
0.364591
 20
-2.285879
  0
VERTEX
  8
LAYER_2
 62
7
 10
0.362622
 20
-2.294737
  0
VERTEX
  8
LAYER_2
 62
7
 10
0.362622
 20
-2.304580
  0
VERTEX
  8
LAYER_2
 62
7
 10
0.364591
 20
-2.313438
  0
VERTEX
  8
LAYER_2
 62
7
 10
0.369512
 20
-2.321312
  0
VERTEX
  8
LAYER_2
 62
7
 10
0.376402
 20
-2.328202
  0
VERTEX
  8
LAYER_2
 62
7
 10
0.384276
 20
-2.333123
  0
VERTEX
  8
LAYER_2
 62
7
 10
0.393134
 20
-2.335091
  0
VERTEX
  8
LAYER_2
 62
7
 10
0.472858
 20
-2.335091
  0
VERTEX
  8
LAYER_2
 62
7
 10
0.481717
 20
-2.333123
  0
VERTEX
  8
LAYER_2
 62
7
 10
0.489591
 20
-2.328202
  0
VERTEX
  8
LAYER_2
 62
7
 10
0.496480
 20
-2.321312
  0
VERTEX
  8
LAYER_2
 62
7
 10
0.501402
 20
-2.313438
  0
VERTEX
  8
LAYER_2
 62
7
 10
0.501620
 20
-2.312454
  0
VERTEX
  8
LAYER_2
 62
7
 10
0.628258
 20
-2.312454
  0
VERTEX
  8
LAYER_2
 62
7
 10
0.660850
 20
-2.345804
  0
VERTEX
  8
LAYER_2
 62
7
 10
0.660850
 20
-2.438438
  0
VERTEX
  8
LAYER_2
 62
7
 10
0.660850
 20
-2.442375
  0
VERTEX
  8
LAYER_2
 62
7
 10
0.660850
 20
-2.443359
  0
VERTEX
  8
LAYER_2
 62
7
 10
0.662819
 20
-2.447296
  0
VERTEX
  8
LAYER_2
 62
7
 10
0.665772
 20
-2.450249
  0
VERTEX
  8
LAYER_2
 62
7
 10
0.670693
 20
-2.452217
  0
VERTEX
  8
LAYER_2
 62
7
 10
0.671974
 20
-2.452217
  0
VERTEX
  8
LAYER_2
 62
7
 10
0.781117
 20
-2.493391
  0
SEQEND
  0
POLYLINE
  8
LAYER_2
 62
4
 70
1
 66
1
  0
VERTEX
  8
LAYER_2
 62
7
 10
0.473664
 20
-2.537668
  0
VERTEX
  8
LAYER_2
 62
7
 10
0.481717
 20
-2.535879
  0
VERTEX
  8
LAYER_2
 62
7
 10
0.489591
 20
-2.530958
  0
VERTEX
  8
LAYER_2
 62
7
 10
0.496480
 20
-2.524068
  0
VERTEX
  8
LAYER_2
 62
7
 10
0.501402
 20
-2.516194
  0
VERTEX
  8
LAYER_2
 62
7
 10
0.503370
 20
-2.507335
  0
VERTEX
  8
LAYER_2
 62
7
 10
0.503370
 20
-2.497493
  0
VERTEX
  8
LAYER_2
 62
7
 10
0.501402
 20
-2.488635
  0
VERTEX
  8
LAYER_2
 62
7
 10
0.496480
 20
-2.480761
  0
VERTEX
  8
LAYER_2
 62
7
 10
0.489591
 20
-2.473871
  0
VERTEX
  8
LAYER_2
 62
7
 10
0.481717
 20
-2.468950
  0
VERTEX
  8
LAYER_2
 62
7
 10
0.472858
 20
-2.466981
  0
VERTEX
  8
LAYER_2
 62
7
 10
0.393134
 20
-2.466981
  0
VERTEX
  8
LAYER_2
 62
7
 10
0.384276
 20
-2.468950
  0
VERTEX
  8
LAYER_2
 62
7
 10
0.376402
 20
-2.473871
  0
VERTEX
  8
LAYER_2
 62
7
 10
0.369512
 20
-2.480761
  0
VERTEX
  8
LAYER_2
 62
7
 10
0.364591
 20
-2.488635
  0
VERTEX
  8
LAYER_2
 62
7
 10
0.362622
 20
-2.497493
  0
VERTEX
  8
LAYER_2
 62
7
 10
0.362622
 20
-2.507335
  0
VERTEX
  8
LAYER_2
 62
7
 10
0.364591
 20
-2.516194
  0
VERTEX
  8
LAYER_2
 62
7
 10
0.369512
 20
-2.524068
  0
VERTEX
  8
LAYER_2
 62
7
 10
0.376402
 20
-2.530958
  0
VERTEX
  8
LAYER_2
 62
7
 10
0.384276
 20
-2.535879
  0
VERTEX
  8
LAYER_2
 62
7
 10
0.393134
 20
-2.537847
  0
VERTEX
  8
LAYER_2
 62
7
 10
0.440378
 20
-2.537847
  0
VERTEX
  8
LAYER_2
 62
7
 10
0.460063
 20
-2.557532
  0
VERTEX
  8
LAYER_2
 62
7
 10
0.463016
 20
-2.560485
  0
VERTEX
  8
LAYER_2
 62
7
 10
0.467937
 20
-2.562454
  0
VERTEX
  8
LAYER_2
 62
7
 10
0.471874
 20
-2.562454
  0
VERTEX
  8
LAYER_2
 62
7
 10
0.708095
 20
-2.562454
  0
VERTEX
  8
LAYER_2
 62
7
 10
0.773055
 20
-2.627414
  0
VERTEX
  8
LAYER_2
 62
7
 10
0.776008
 20
-2.630367
  0
VERTEX
  8
LAYER_2
 62
7
 10
0.780929
 20
-2.632335
  0
VERTEX
  8
LAYER_2
 62
7
 10
0.784866
 20
-2.632335
  0
VERTEX
  8
LAYER_2
 62
7
 10
0.890181
 20
-2.632335
  0
VERTEX
  8
LAYER_2
 62
7
 10
0.894118
 20
-2.632335
  0
VERTEX
  8
LAYER_2
 62
7
 10
0.895102
 20
-2.632335
  0
VERTEX
  8
LAYER_2
 62
7
 10
0.896087
 20
-2.631942
  0
VERTEX
  8
LAYER_2
 62
7
 10
0.899039
 20
-2.631351
  0
VERTEX
  8
LAYER_2
 62
7
 10
0.902976
 20
-2.628398
  0
VERTEX
  8
LAYER_2
 62
7
 10
1.062324
 20
-2.317476
  0
VERTEX
  8
LAYER_2
 62
7
 10
1.062425
 20
-2.317375
  0
VERTEX
  8
LAYER_2
 62
7
 10
1.062600
 20
-2.316937
  0
VERTEX
  8
LAYER_2
 62
7
 10
1.064394
 20
-2.313438
  0
VERTEX
  8
LAYER_2
 62
7
 10
1.064394
 20
-2.312454
  0
VERTEX
  8
LAYER_2
 62
7
 10
1.064394
 20
-2.309501
  0
VERTEX
  8
LAYER_2
 62
7
 10
1.064394
 20
-2.183576
  0
VERTEX
  8
LAYER_2
 62
7
 10
1.136184
 20
-2.112650
  0
VERTEX
  8
LAYER_2
 62
7
 10
1.283226
 20
-2.112650
  0
VERTEX
  8
LAYER_2
 62
7
 10
1.285850
 20
-2.116587
  0
VERTEX
  8
LAYER_2
 62
7
 10
1.290772
 20
-2.121509
  0
VERTEX
  8
LAYER_2
 62
7
 10
1.296677
 20
-2.125446
  0
VERTEX
  8
LAYER_2
 62
7
 10
1.303567
 20
-2.127414
  0
VERTEX
  8
LAYER_2
 62
7
 10
1.361638
 20
-2.127414
  0
VERTEX
  8
LAYER_2
 62
7
 10
1.368528
 20
-2.125446
  0
VERTEX
  8
LAYER_2
 62
7
 10
1.374433
 20
-2.121509
  0
VERTEX
  8
LAYER_2
 62
7
 10
1.379354
 20
-2.116587
  0
VERTEX
  8
LAYER_2
 62
7
 10
1.383291
 20
-2.110682
  0
VERTEX
  8
LAYER_2
 62
7
 10
1.385260
 20
-2.103792
  0
VERTEX
  8
LAYER_2
 62
7
 10
1.385260
 20
-2.097887
  0
VERTEX
  8
LAYER_2
 62
7
 10
1.383291
 20
-2.090997
  0
VERTEX
  8
LAYER_2
 62
7
 10
1.379354
 20
-2.085091
  0
VERTEX
  8
LAYER_2
 62
7
 10
1.374433
 20
-2.080170
  0
VERTEX
  8
LAYER_2
 62
7
 10
1.368528
 20
-2.076233
  0
VERTEX
  8
LAYER_2
 62
7
 10
1.361638
 20
-2.074265
  0
VERTEX
  8
LAYER_2
 62
7
 10
1.303567
 20
-2.074265
  0
VERTEX
  8
LAYER_2
 62
7
 10
1.296677
 20
-2.076233
  0
VERTEX
  8
LAYER_2
 62
7
 10
1.290772
 20
-2.080170
  0
VERTEX
  8
LAYER_2
 62
7
 10
1.285850
 20
-2.085091
  0
VERTEX
  8
LAYER_2
 62
7
 10
1.283226
 20
-2.089028
  0
VERTEX
  8
LAYER_2
 62
7
 10
1.133291
 20
-2.089028
  0
VERTEX
  8
LAYER_2
 62
7
 10
1.129354
 20
-2.089028
  0
VERTEX
  8
LAYER_2
 62
7
 10
1.124433
 20
-2.090997
  0
VERTEX
  8
LAYER_2
 62
7
 10
1.045753
 20
-2.168729
  0
VERTEX
  8
LAYER_2
 62
7
 10
1.045693
 20
-2.168753
  0
VERTEX
  8
LAYER_2
 62
7
 10
1.042740
 20
-2.171706
  0
VERTEX
  8
LAYER_2
 62
7
 10
1.040772
 20
-2.176627
  0
VERTEX
  8
LAYER_2
 62
7
 10
1.040772
 20
-2.180564
  0
VERTEX
  8
LAYER_2
 62
7
 10
1.040772
 20
-2.306452
  0
VERTEX
  8
LAYER_2
 62
7
 10
0.885863
 20
-2.608713
  0
VERTEX
  8
LAYER_2
 62
7
 10
0.787819
 20
-2.608713
  0
VERTEX
  8
LAYER_2
 62
7
 10
0.722858
 20
-2.543753
  0
VERTEX
  8
LAYER_2
 62
7
 10
0.719906
 20
-2.540800
  0
VERTEX
  8
LAYER_2
 62
7
 10
0.714984
 20
-2.538832
  0
VERTEX
  8
LAYER_2
 62
7
 10
0.711047
 20
-2.538832
  0
VERTEX
  8
LAYER_2
 62
7
 10
0.474827
 20
-2.538832
  0
VERTEX
  8
LAYER_2
 62
7
 10
0.473664
 20
-2.537668
  0
SEQEND
  0
POLYLINE
  8
LAYER_2
 62
4
 70
1
 66
1
  0
VERTEX
  8
LAYER_2
 62
7
 10
0.861638
 20
-2.374461
  0
VERTEX
  8
LAYER_2
 62
7
 10
0.803567
 20
-2.374461
  0
VERTEX
  8
LAYER_2
 62
7
 10
0.796677
 20
-2.376430
  0
VERTEX
  8
LAYER_2
 62
7
 10
0.790772
 20
-2.380367
  0
VERTEX
  8
LAYER_2
 62
7
 10
0.785850
 20
-2.385288
  0
VERTEX
  8
LAYER_2
 62
7
 10
0.781913
 20
-2.391194
  0
VERTEX
  8
LAYER_2
 62
7
 10
0.779945
 20
-2.398084
  0
VERTEX
  8
LAYER_2
 62
7
 10
0.779945
 20
-2.403989
  0
VERTEX
  8
LAYER_2
 62
7
 10
0.781913
 20
-2.410879
  0
VERTEX
  8
LAYER_2
 62
7
 10
0.785850
 20
-2.416784
  0
VERTEX
  8
LAYER_2
 62
7
 10
0.790772
 20
-2.421706
  0
VERTEX
  8
LAYER_2
 62
7
 10
0.796677
 20
-2.425643
  0
VERTEX
  8
LAYER_2
 62
7
 10
0.803567
 20
-2.427611
  0
VERTEX
  8
LAYER_2
 62
7
 10
0.861638
 20
-2.427611
  0
VERTEX
  8
LAYER_2
 62
7
 10
0.868528
 20
-2.425643
  0
VERTEX
  8
LAYER_2
 62
7
 10
0.874433
 20
-2.421706
  0
VERTEX
  8
LAYER_2
 62
7
 10
0.879354
 20
-2.416784
  0
VERTEX
  8
LAYER_2
 62
7
 10
0.883291
 20
-2.410879
  0
VERTEX
  8
LAYER_2
 62
7
 10
0.885260
 20
-2.403989
  0
VERTEX
  8
LAYER_2
 62
7
 10
0.885260
 20
-2.398084
  0
VERTEX
  8
LAYER_2
 62
7
 10
0.883291
 20
-2.391194
  0
VERTEX
  8
LAYER_2
 62
7
 10
0.879354
 20
-2.385288
  0
VERTEX
  8
LAYER_2
 62
7
 10
0.874433
 20
-2.380367
  0
VERTEX
  8
LAYER_2
 62
7
 10
0.868528
 20
-2.376430
  0
VERTEX
  8
LAYER_2
 62
7
 10
0.861638
 20
-2.374461
  0
SEQEND
  0
POLYLINE
  8
LAYER_2
 62
4
 70
1
 66
1
  0
VERTEX
  8
LAYER_2
 62
7
 10
0.861638
 20
-1.973871
  0
VERTEX
  8
LAYER_2
 62
7
 10
0.803567
 20
-1.973871
  0
VERTEX
  8
LAYER_2
 62
7
 10
0.796677
 20
-1.975839
  0
VERTEX
  8
LAYER_2
 62
7
 10
0.790772
 20
-1.979776
  0
VERTEX
  8
LAYER_2
 62
7
 10
0.785850
 20
-1.984698
  0
VERTEX
  8
LAYER_2
 62
7
 10
0.781913
 20
-1.990603
  0
VERTEX
  8
LAYER_2
 62
7
 10
0.779945
 20
-1.997493
  0
VERTEX
  8
LAYER_2
 62
7
 10
0.779945
 20
-2.003398
  0
VERTEX
  8
LAYER_2
 62
7
 10
0.781913
 20
-2.010288
  0
VERTEX
  8
LAYER_2
 62
7
 10
0.785850
 20
-2.016194
  0
VERTEX
  8
LAYER_2
 62
7
 10
0.790772
 20
-2.021115
  0
VERTEX
  8
LAYER_2
 62
7
 10
0.796677
 20
-2.025052
  0
VERTEX
  8
LAYER_2
 62
7
 10
0.803567
 20
-2.027021
  0
VERTEX
  8
LAYER_2
 62
7
 10
0.861638
 20
-2.027021
  0
VERTEX
  8
LAYER_2
 62
7
 10
0.868528
 20
-2.025052
  0
VERTEX
  8
LAYER_2
 62
7
 10
0.874433
 20
-2.021115
  0
VERTEX
  8
LAYER_2
 62
7
 10
0.879354
 20
-2.016194
  0
VERTEX
  8
LAYER_2
 62
7
 10
0.883291
 20
-2.010288
  0
VERTEX
  8
LAYER_2
 62
7
 10
0.885260
 20
-2.003398
  0
VERTEX
  8
LAYER_2
 62
7
 10
0.885260
 20
-1.997493
  0
VERTEX
  8
LAYER_2
 62
7
 10
0.883291
 20
-1.990603
  0
VERTEX
  8
LAYER_2
 62
7
 10
0.879354
 20
-1.984698
  0
VERTEX
  8
LAYER_2
 62
7
 10
0.874433
 20
-1.979776
  0
VERTEX
  8
LAYER_2
 62
7
 10
0.868528
 20
-1.975839
  0
VERTEX
  8
LAYER_2
 62
7
 10
0.861638
 20
-1.973871
  0
SEQEND
  0
POLYLINE
  8
LAYER_2
 62
4
 70
1
 66
1
  0
VERTEX
  8
LAYER_2
 62
7
 10
0.440378
 20
-1.863635
  0
VERTEX
  8
LAYER_2
 62
7
 10
0.393134
 20
-1.863635
  0
VERTEX
  8
LAYER_2
 62
7
 10
0.384276
 20
-1.865603
  0
VERTEX
  8
LAYER_2
 62
7
 10
0.376402
 20
-1.870524
  0
VERTEX
  8
LAYER_2
 62
7
 10
0.369512
 20
-1.877414
  0
VERTEX
  8
LAYER_2
 62
7
 10
0.364591
 20
-1.885288
  0
VERTEX
  8
LAYER_2
 62
7
 10
0.362622
 20
-1.894147
  0
VERTEX
  8
LAYER_2
 62
7
 10
0.362622
 20
-1.903989
  0
VERTEX
  8
LAYER_2
 62
7
 10
0.364591
 20
-1.912847
  0
VERTEX
  8
LAYER_2
 62
7
 10
0.369512
 20
-1.920721
  0
VERTEX
  8
LAYER_2
 62
7
 10
0.376402
 20
-1.927611
  0
VERTEX
  8
LAYER_2
 62
7
 10
0.384276
 20
-1.932532
  0
VERTEX
  8
LAYER_2
 62
7
 10
0.393134
 20
-1.934501
  0
VERTEX
  8
LAYER_2
 62
7
 10
0.472858
 20
-1.934501
  0
VERTEX
  8
LAYER_2
 62
7
 10
0.481717
 20
-1.932532
  0
VERTEX
  8
LAYER_2
 62
7
 10
0.489591
 20
-1.927611
  0
VERTEX
  8
LAYER_2
 62
7
 10
0.496480
 20
-1.920721
  0
VERTEX
  8
LAYER_2
 62
7
 10
0.501402
 20
-1.912847
  0
VERTEX
  8
LAYER_2
 62
7
 10
0.503370
 20
-1.903989
  0
VERTEX
  8
LAYER_2
 62
7
 10
0.503370
 20
-1.894147
  0
VERTEX
  8
LAYER_2
 62
7
 10
0.501402
 20
-1.885288
  0
VERTEX
  8
LAYER_2
 62
7
 10
0.496480
 20
-1.877414
  0
VERTEX
  8
LAYER_2
 62
7
 10
0.489591
 20
-1.870524
  0
VERTEX
  8
LAYER_2
 62
7
 10
0.481717
 20
-1.865603
  0
VERTEX
  8
LAYER_2
 62
7
 10
0.473664
 20
-1.863814
  0
VERTEX
  8
LAYER_2
 62
7
 10
0.575221
 20
-1.762257
  0
VERTEX
  8
LAYER_2
 62
7
 10
1.283226
 20
-1.762257
  0
VERTEX
  8
LAYER_2
 62
7
 10
1.285850
 20
-1.766194
  0
VERTEX
  8
LAYER_2
 62
7
 10
1.290772
 20
-1.771115
  0
VERTEX
  8
LAYER_2
 62
7
 10
1.296677
 20
-1.775052
  0
VERTEX
  8
LAYER_2
 62
7
 10
1.303567
 20
-1.777021
  0
VERTEX
  8
LAYER_2
 62
7
 10
1.361638
 20
-1.777021
  0
VERTEX
  8
LAYER_2
 62
7
 10
1.368528
 20
-1.775052
  0
VERTEX
  8
LAYER_2
 62
7
 10
1.374433
 20
-1.771115
  0
VERTEX
  8
LAYER_2
 62
7
 10
1.379354
 20
-1.766194
  0
VERTEX
  8
LAYER_2
 62
7
 10
1.383291
 20
-1.760288
  0
VERTEX
  8
LAYER_2
 62
7
 10
1.385260
 20
-1.753398
  0
VERTEX
  8
LAYER_2
 62
7
 10
1.385260
 20
-1.747493
  0
VERTEX
  8
LAYER_2
 62
7
 10
1.383291
 20
-1.740603
  0
VERTEX
  8
LAYER_2
 62
7
 10
1.379354
 20
-1.734698
  0
VERTEX
  8
LAYER_2
 62
7
 10
1.374433
 20
-1.729776
  0
VERTEX
  8
LAYER_2
 62
7
 10
1.368528
 20
-1.725839
  0
VERTEX
  8
LAYER_2
 62
7
 10
1.361638
 20
-1.723871
  0
VERTEX
  8
LAYER_2
 62
7
 10
1.303567
 20
-1.723871
  0
VERTEX
  8
LAYER_2
 62
7
 10
1.296677
 20
-1.725839
  0
VERTEX
  8
LAYER_2
 62
7
 10
1.290772
 20
-1.729776
  0
VERTEX
  8
LAYER_2
 62
7
 10
1.285850
 20
-1.734698
  0
VERTEX
  8
LAYER_2
 62
7
 10
1.283226
 20
-1.738635
  0
VERTEX
  8
LAYER_2
 62
7
 10
0.572268
 20
-1.738635
  0
VERTEX
  8
LAYER_2
 62
7
 10
0.568331
 20
-1.738635
  0
VERTEX
  8
LAYER_2
 62
7
 10
0.563410
 20
-1.740603
  0
VERTEX
  8
LAYER_2
 62
7
 10
0.560457
 20
-1.743556
  0
VERTEX
  8
LAYER_2
 62
7
 10
0.440378
 20
-1.863635
  0
SEQEND
  0
POLYLINE
  8
LAYER_2
 62
4
 70
1
 66
1
  0
VERTEX
  8
LAYER_2
 62
7
 10
2.138565
 20
-2.224855
  0
VERTEX
  8
LAYER_2
 62
7
 10
2.123449
 20
-2.224855
  0
VERTEX
  8
LAYER_2
 62
7
 10
2.107701
 20
-2.240603
  0
VERTEX
  8
LAYER_2
 62
7
 10
2.107701
 20
-2.260288
  0
VERTEX
  8
LAYER_2
 62
7
 10
2.123449
 20
-2.276036
  0
VERTEX
  8
LAYER_2
 62
7
 10
2.143134
 20
-2.276036
  0
VERTEX
  8
LAYER_2
 62
7
 10
2.158882
 20
-2.260288
  0
VERTEX
  8
LAYER_2
 62
7
 10
2.158882
 20
-2.240603
  0
VERTEX
  8
LAYER_2
 62
7
 10
2.157111
 20
-2.238833
  0
VERTEX
  8
LAYER_2
 62
7
 10
2.197900
 20
-2.186469
  0
VERTEX
  8
LAYER_2
 62
7
 10
2.213016
 20
-2.186469
  0
VERTEX
  8
LAYER_2
 62
7
 10
2.228764
 20
-2.170721
  0
VERTEX
  8
LAYER_2
 62
7
 10
2.228764
 20
-2.151036
  0
VERTEX
  8
LAYER_2
 62
7
 10
2.213016
 20
-2.135288
  0
VERTEX
  8
LAYER_2
 62
7
 10
2.193331
 20
-2.135288
  0
VERTEX
  8
LAYER_2
 62
7
 10
2.177583
 20
-2.151036
  0
VERTEX
  8
LAYER_2
 62
7
 10
2.177583
 20
-2.170721
  0
VERTEX
  8
LAYER_2
 62
7
 10
2.179353
 20
-2.172492
  0
VERTEX
  8
LAYER_2
 62
7
 10
2.138565
 20
-2.224855
  0
SEQEND
  0
POLYLINE
  8
LAYER_2
 62
4
 70
1
 66
1
  0
VERTEX
  8
LAYER_2
 62
7
 10
3.271087
 20
-1.312454
  0
VERTEX
  8
LAYER_2
 62
7
 10
3.271087
 20
-1.344934
  0
VERTEX
  8
LAYER_2
 62
7
 10
3.274039
 20
-1.354776
  0
VERTEX
  8
LAYER_2
 62
7
 10
3.278961
 20
-1.364619
  0
VERTEX
  8
LAYER_2
 62
7
 10
3.285850
 20
-1.371509
  0
VERTEX
  8
LAYER_2
 62
7
 10
3.295693
 20
-1.376430
  0
VERTEX
  8
LAYER_2
 62
7
 10
3.305536
 20
-1.379383
  0
VERTEX
  8
LAYER_2
 62
7
 10
3.315378
 20
-1.379383
  0
VERTEX
  8
LAYER_2
 62
7
 10
3.325221
 20
-1.376430
  0
VERTEX
  8
LAYER_2
 62
7
 10
3.335063
 20
-1.371509
  0
VERTEX
  8
LAYER_2
 62
7
 10
3.341953
 20
-1.364619
  0
VERTEX
  8
LAYER_2
 62
7
 10
3.346874
 20
-1.354776
  0
VERTEX
  8
LAYER_2
 62
7
 10
3.349827
 20
-1.344934
  0
VERTEX
  8
LAYER_2
 62
7
 10
3.349827
 20
-1.256351
  0
VERTEX
  8
LAYER_2
 62
7
 10
3.346874
 20
-1.246509
  0
VERTEX
  8
LAYER_2
 62
7
 10
3.341953
 20
-1.236666
  0
VERTEX
  8
LAYER_2
 62
7
 10
3.335063
 20
-1.229776
  0
VERTEX
  8
LAYER_2
 62
7
 10
3.325221
 20
-1.224855
  0
VERTEX
  8
LAYER_2
 62
7
 10
3.315378
 20
-1.221902
  0
VERTEX
  8
LAYER_2
 62
7
 10
3.305536
 20
-1.221902
  0
VERTEX
  8
LAYER_2
 62
7
 10
3.295693
 20
-1.224855
  0
VERTEX
  8
LAYER_2
 62
7
 10
3.285850
 20
-1.229776
  0
VERTEX
  8
LAYER_2
 62
7
 10
3.278961
 20
-1.236666
  0
VERTEX
  8
LAYER_2
 62
7
 10
3.274039
 20
-1.246509
  0
VERTEX
  8
LAYER_2
 62
7
 10
3.271087
 20
-1.256351
  0
VERTEX
  8
LAYER_2
 62
7
 10
3.271087
 20
-1.288832
  0
VERTEX
  8
LAYER_2
 62
7
 10
3.174630
 20
-1.288832
  0
VERTEX
  8
LAYER_2
 62
7
 10
3.170693
 20
-1.288832
  0
VERTEX
  8
LAYER_2
 62
7
 10
1.749897
 20
-1.288832
  0
VERTEX
  8
LAYER_2
 62
7
 10
1.683688
 20
-1.259589
  0
VERTEX
  8
LAYER_2
 62
7
 10
1.685457
 20
-1.253398
  0
VERTEX
  8
LAYER_2
 62
7
 10
1.685457
 20
-1.247493
  0
VERTEX
  8
LAYER_2
 62
7
 10
1.683488
 20
-1.240603
  0
VERTEX
  8
LAYER_2
 62
7
 10
1.679551
 20
-1.234698
  0
VERTEX
  8
LAYER_2
 62
7
 10
1.674630
 20
-1.229776
  0
VERTEX
  8
LAYER_2
 62
7
 10
1.668724
 20
-1.225839
  0
VERTEX
  8
LAYER_2
 62
7
 10
1.661835
 20
-1.223871
  0
VERTEX
  8
LAYER_2
 62
7
 10
1.603764
 20
-1.223871
  0
VERTEX
  8
LAYER_2
 62
7
 10
1.596874
 20
-1.225839
  0
VERTEX
  8
LAYER_2
 62
7
 10
1.590969
 20
-1.229776
  0
VERTEX
  8
LAYER_2
 62
7
 10
1.586047
 20
-1.234698
  0
VERTEX
  8
LAYER_2
 62
7
 10
1.582110
 20
-1.240603
  0
VERTEX
  8
LAYER_2
 62
7
 10
1.580142
 20
-1.247493
  0
VERTEX
  8
LAYER_2
 62
7
 10
1.580142
 20
-1.253398
  0
VERTEX
  8
LAYER_2
 62
7
 10
1.582110
 20
-1.260288
  0
VERTEX
  8
LAYER_2
 62
7
 10
1.586047
 20
-1.266194
  0
VERTEX
  8
LAYER_2
 62
7
 10
1.586904
 20
-1.267050
  0
VERTEX
  8
LAYER_2
 62
7
 10
1.564394
 20
-1.281942
  0
VERTEX
  8
LAYER_2
 62
7
 10
1.563677
 20
-1.283374
  0
VERTEX
  8
LAYER_2
 62
7
 10
1.455115
 20
-1.348871
  0
VERTEX
  8
LAYER_2
 62
7
 10
1.270611
 20
-1.348871
  0
VERTEX
  8
LAYER_2
 62
7
 10
1.159866
 20
-1.126555
  0
VERTEX
  8
LAYER_2
 62
7
 10
1.159866
 20
-1.072296
  0
VERTEX
  8
LAYER_2
 62
7
 10
1.157898
 20
-1.065406
  0
VERTEX
  8
LAYER_2
 62
7
 10
1.153961
 20
-1.059501
  0
VERTEX
  8
LAYER_2
 62
7
 10
1.149039
 20
-1.054580
  0
VERTEX
  8
LAYER_2
 62
7
 10
1.143134
 20
-1.050643
  0
VERTEX
  8
LAYER_2
 62
7
 10
1.136244
 20
-1.048674
  0
VERTEX
  8
LAYER_2
 62
7
 10
1.130339
 20
-1.048674
  0
VERTEX
  8
LAYER_2
 62
7
 10
1.123449
 20
-1.050643
  0
VERTEX
  8
LAYER_2
 62
7
 10
1.117543
 20
-1.054580
  0
VERTEX
  8
LAYER_2
 62
7
 10
1.112622
 20
-1.059501
  0
VERTEX
  8
LAYER_2
 62
7
 10
1.108685
 20
-1.065406
  0
VERTEX
  8
LAYER_2
 62
7
 10
1.106717
 20
-1.072296
  0
VERTEX
  8
LAYER_2
 62
7
 10
1.106717
 20
-1.129383
  0
VERTEX
  8
LAYER_2
 62
7
 10
1.108685
 20
-1.136272
  0
VERTEX
  8
LAYER_2
 62
7
 10
1.112622
 20
-1.142178
  0
VERTEX
  8
LAYER_2
 62
7
 10
1.117543
 20
-1.147099
  0
VERTEX
  8
LAYER_2
 62
7
 10
1.123449
 20
-1.151036
  0
VERTEX
  8
LAYER_2
 62
7
 10
1.130339
 20
-1.153005
  0
VERTEX
  8
LAYER_2
 62
7
 10
1.136244
 20
-1.153005
  0
VERTEX
  8
LAYER_2
 62
7
 10
1.143134
 20
-1.151036
  0
VERTEX
  8
LAYER_2
 62
7
 10
1.144546
 20
-1.150095
  0
VERTEX
  8
LAYER_2
 62
7
 10
1.253370
 20
-1.368556
  0
VERTEX
  8
LAYER_2
 62
7
 10
1.257307
 20
-1.371509
  0
VERTEX
  8
LAYER_2
 62
7
 10
1.261244
 20
-1.372493
  0
VERTEX
  8
LAYER_2
 62
7
 10
1.266165
 20
-1.372493
  0
VERTEX
  8
LAYER_2
 62
7
 10
1.446284
 20
-1.372493
  0
VERTEX
  8
LAYER_2
 62
7
 10
1.446284
 20
-1.988635
  0
VERTEX
  8
LAYER_2
 62
7
 10
1.182176
 20
-1.988635
  0
VERTEX
  8
LAYER_2
 62
7
 10
1.179551
 20
-1.984698
  0
VERTEX
  8
LAYER_2
 62
7
 10
1.174630
 20
-1.979776
  0
VERTEX
  8
LAYER_2
 62
7
 10
1.168724
 20
-1.975839
  0
VERTEX
  8
LAYER_2
 62
7
 10
1.161835
 20
-1.973871
  0
VERTEX
  8
LAYER_2
 62
7
 10
1.103764
 20
-1.973871
  0
VERTEX
  8
LAYER_2
 62
7
 10
1.096874
 20
-1.975839
  0
VERTEX
  8
LAYER_2
 62
7
 10
1.090969
 20
-1.979776
  0
VERTEX
  8
LAYER_2
 62
7
 10
1.086047
 20
-1.984698
  0
VERTEX
  8
LAYER_2
 62
7
 10
1.082110
 20
-1.990603
  0
VERTEX
  8
LAYER_2
 62
7
 10
1.080142
 20
-1.997493
  0
VERTEX
  8
LAYER_2
 62
7
 10
1.080142
 20
-2.003398
  0
VERTEX
  8
LAYER_2
 62
7
 10
1.082110
 20
-2.010288
  0
VERTEX
  8
LAYER_2
 62
7
 10
1.086047
 20
-2.016194
  0
VERTEX
  8
LAYER_2
 62
7
 10
1.090969
 20
-2.021115
  0
VERTEX
  8
LAYER_2
 62
7
 10
1.096874
 20
-2.025052
  0
VERTEX
  8
LAYER_2
 62
7
 10
1.103764
 20
-2.027021
  0
VERTEX
  8
LAYER_2
 62
7
 10
1.161835
 20
-2.027021
  0
VERTEX
  8
LAYER_2
 62
7
 10
1.168724
 20
-2.025052
  0
VERTEX
  8
LAYER_2
 62
7
 10
1.174630
 20
-2.021115
  0
VERTEX
  8
LAYER_2
 62
7
 10
1.179551
 20
-2.016194
  0
VERTEX
  8
LAYER_2
 62
7
 10
1.182176
 20
-2.012257
  0
VERTEX
  8
LAYER_2
 62
7
 10
1.450632
 20
-2.012257
  0
VERTEX
  8
LAYER_2
 62
7
 10
1.470890
 20
-2.053522
  0
VERTEX
  8
LAYER_2
 62
7
 10
1.470890
 20
-2.139225
  0
VERTEX
  8
LAYER_2
 62
7
 10
1.470890
 20
-2.143162
  0
VERTEX
  8
LAYER_2
 62
7
 10
1.472858
 20
-2.148084
  0
VERTEX
  8
LAYER_2
 62
7
 10
1.475811
 20
-2.151036
  0
VERTEX
  8
LAYER_2
 62
7
 10
1.532898
 20
-2.208123
  0
VERTEX
  8
LAYER_2
 62
7
 10
1.535850
 20
-2.211076
  0
VERTEX
  8
LAYER_2
 62
7
 10
1.540772
 20
-2.213044
  0
VERTEX
  8
LAYER_2
 62
7
 10
1.544709
 20
-2.213044
  0
VERTEX
  8
LAYER_2
 62
7
 10
1.583423
 20
-2.213044
  0
VERTEX
  8
LAYER_2
 62
7
 10
1.586047
 20
-2.216981
  0
VERTEX
  8
LAYER_2
 62
7
 10
1.590969
 20
-2.221902
  0
VERTEX
  8
LAYER_2
 62
7
 10
1.596874
 20
-2.225839
  0
VERTEX
  8
LAYER_2
 62
7
 10
1.603764
 20
-2.227808
  0
VERTEX
  8
LAYER_2
 62
7
 10
1.661835
 20
-2.227808
  0
VERTEX
  8
LAYER_2
 62
7
 10
1.668724
 20
-2.225839
  0
VERTEX
  8
LAYER_2
 62
7
 10
1.674630
 20
-2.221902
  0
VERTEX
  8
LAYER_2
 62
7
 10
1.679551
 20
-2.216981
  0
VERTEX
  8
LAYER_2
 62
7
 10
1.683488
 20
-2.211076
  0
VERTEX
  8
LAYER_2
 62
7
 10
1.685457
 20
-2.204186
  0
VERTEX
  8
LAYER_2
 62
7
 10
1.685457
 20
-2.198280
  0
VERTEX
  8
LAYER_2
 62
7
 10
1.683488
 20
-2.191391
  0
VERTEX
  8
LAYER_2
 62
7
 10
1.679551
 20
-2.185485
  0
VERTEX
  8
LAYER_2
 62
7
 10
1.674630
 20
-2.180564
  0
VERTEX
  8
LAYER_2
 62
7
 10
1.668724
 20
-2.176627
  0
VERTEX
  8
LAYER_2
 62
7
 10
1.661835
 20
-2.174658
  0
VERTEX
  8
LAYER_2
 62
7
 10
1.603764
 20
-2.174658
  0
VERTEX
  8
LAYER_2
 62
7
 10
1.596874
 20
-2.176627
  0
VERTEX
  8
LAYER_2
 62
7
 10
1.590969
 20
-2.180564
  0
VERTEX
  8
LAYER_2
 62
7
 10
1.586047
 20
-2.185485
  0
VERTEX
  8
LAYER_2
 62
7
 10
1.583423
 20
-2.189422
  0
VERTEX
  8
LAYER_2
 62
7
 10
1.547661
 20
-2.189422
  0
VERTEX
  8
LAYER_2
 62
7
 10
1.494512
 20
-2.136272
  0
VERTEX
  8
LAYER_2
 62
7
 10
1.494512
 20
-2.052611
  0
VERTEX
  8
LAYER_2
 62
7
 10
1.494512
 20
-2.048674
  0
VERTEX
  8
LAYER_2
 62
7
 10
1.494512
 20
-2.047690
  0
VERTEX
  8
LAYER_2
 62
7
 10
1.469906
 20
-1.997566
  0
VERTEX
  8
LAYER_2
 62
7
 10
1.469906
 20
-1.366758
  0
VERTEX
  8
LAYER_2
 62
7
 10
1.577709
 20
-1.301720
  0
VERTEX
  8
LAYER_2
 62
7
 10
1.578173
 20
-1.301627
  0
VERTEX
  8
LAYER_2
 62
7
 10
1.615369
 20
-1.277021
  0
VERTEX
  8
LAYER_2
 62
7
 10
1.661835
 20
-1.277021
  0
VERTEX
  8
LAYER_2
 62
7
 10
1.663323
 20
-1.276595
  0
VERTEX
  8
LAYER_2
 62
7
 10
1.744512
 20
-1.312454
  0
VERTEX
  8
LAYER_2
 62
7
 10
1.745496
 20
-1.312454
  0
VERTEX
  8
LAYER_2
 62
7
 10
1.749433
 20
-1.312454
  0
VERTEX
  8
LAYER_2
 62
7
 10
3.160850
 20
-1.312454
  0
VERTEX
  8
LAYER_2
 62
7
 10
3.160850
 20
-2.059562
  0
VERTEX
  8
LAYER_2
 62
7
 10
3.091892
 20
-2.129383
  0
VERTEX
  8
LAYER_2
 62
7
 10
3.036835
 20
-2.129383
  0
VERTEX
  8
LAYER_2
 62
7
 10
3.023055
 20
-2.115603
  0
VERTEX
  8
LAYER_2
 62
7
 10
3.003370
 20
-2.115603
  0
VERTEX
  8
LAYER_2
 62
7
 10
2.987622
 20
-2.131351
  0
VERTEX
  8
LAYER_2
 62
7
 10
2.987622
 20
-2.151036
  0
VERTEX
  8
LAYER_2
 62
7
 10
3.003370
 20
-2.166784
  0
VERTEX
  8
LAYER_2
 62
7
 10
3.023055
 20
-2.166784
  0
VERTEX
  8
LAYER_2
 62
7
 10
3.036835
 20
-2.153005
  0
VERTEX
  8
LAYER_2
 62
7
 10
3.094906
 20
-2.153005
  0
VERTEX
  8
LAYER_2
 62
7
 10
3.098843
 20
-2.153005
  0
VERTEX
  8
LAYER_2
 62
7
 10
3.103764
 20
-2.151036
  0
VERTEX
  8
LAYER_2
 62
7
 10
3.106717
 20
-2.148084
  0
VERTEX
  8
LAYER_2
 62
7
 10
3.106741
 20
-2.148021
  0
VERTEX
  8
LAYER_2
 62
7
 10
3.182504
 20
-2.071312
  0
VERTEX
  8
LAYER_2
 62
7
 10
3.184473
 20
-2.066391
  0
VERTEX
  8
LAYER_2
 62
7
 10
3.184473
 20
-2.062454
  0
VERTEX
  8
LAYER_2
 62
7
 10
3.184473
 20
-1.312454
  0
VERTEX
  8
LAYER_2
 62
7
 10
3.271087
 20
-1.312454
  0
SEQEND
  0
POLYLINE
  8
LAYER_2
 62
4
 70
1
 66
1
  0
VERTEX
  8
LAYER_2
 62
7
 10
2.216953
 20
-1.125446
  0
VERTEX
  8
LAYER_2
 62
7
 10
2.198252
 20
-1.125446
  0
VERTEX
  8
LAYER_2
 62
7
 10
2.182504
 20
-1.141194
  0
VERTEX
  8
LAYER_2
 62
7
 10
2.182504
 20
-1.160879
  0
VERTEX
  8
LAYER_2
 62
7
 10
2.198252
 20
-1.176627
  0
VERTEX
  8
LAYER_2
 62
7
 10
2.217937
 20
-1.176627
  0
VERTEX
  8
LAYER_2
 62
7
 10
2.233685
 20
-1.160879
  0
VERTEX
  8
LAYER_2
 62
7
 10
2.233685
 20
-1.142178
  0
VERTEX
  8
LAYER_2
 62
7
 10
2.463016
 20
-0.912847
  0
VERTEX
  8
LAYER_2
 62
7
 10
3.439409
 20
-0.912847
  0
VERTEX
  8
LAYER_2
 62
7
 10
3.746480
 20
-1.218965
  0
VERTEX
  8
LAYER_2
 62
7
 10
3.746480
 20
-2.457092
  0
VERTEX
  8
LAYER_2
 62
7
 10
3.736903
 20
-2.468950
  0
VERTEX
  8
LAYER_2
 62
7
 10
3.658882
 20
-2.468950
  0
VERTEX
  8
LAYER_2
 62
7
 10
3.653961
 20
-2.470918
  0
VERTEX
  8
LAYER_2
 62
7
 10
3.651008
 20
-2.473871
  0
VERTEX
  8
LAYER_2
 62
7
 10
3.650614
 20
-2.474855
  0
VERTEX
  8
LAYER_2
 62
7
 10
3.635260
 20
-2.474855
  0
VERTEX
  8
LAYER_2
 62
7
 10
3.635260
 20
-2.486666
  0
VERTEX
  8
LAYER_2
 62
7
 10
3.650614
 20
-2.486666
  0
VERTEX
  8
LAYER_2
 62
7
 10
3.651008
 20
-2.487650
  0
VERTEX
  8
LAYER_2
 62
7
 10
3.653961
 20
-2.490603
  0
VERTEX
  8
LAYER_2
 62
7
 10
3.658882
 20
-2.492572
  0
VERTEX
  8
LAYER_2
 62
7
 10
3.704614
 20
-2.492572
  0
VERTEX
  8
LAYER_2
 62
7
 10
3.730704
 20
-2.490237
  0
VERTEX
  8
LAYER_2
 62
7
 10
3.731717
 20
-2.491587
  0
VERTEX
  8
LAYER_2
 62
7
 10
3.748449
 20
-2.492572
  0
VERTEX
  8
LAYER_2
 62
7
 10
3.769118
 20
-2.466981
  0
VERTEX
  8
LAYER_2
 62
7
 10
3.769709
 20
-2.464028
  0
VERTEX
  8
LAYER_2
 62
7
 10
3.770102
 20
-2.463044
  0
VERTEX
  8
LAYER_2
 62
7
 10
3.770102
 20
-2.462060
  0
VERTEX
  8
LAYER_2
 62
7
 10
3.770102
 20
-2.457139
  0
VERTEX
  8
LAYER_2
 62
7
 10
3.770102
 20
-1.215997
  0
VERTEX
  8
LAYER_2
 62
7
 10
3.770102
 20
-1.212060
  0
VERTEX
  8
LAYER_2
 62
7
 10
3.768134
 20
-1.207139
  0
VERTEX
  8
LAYER_2
 62
7
 10
3.765181
 20
-1.204186
  0
VERTEX
  8
LAYER_2
 62
7
 10
3.765166
 20
-1.204180
  0
VERTEX
  8
LAYER_2
 62
7
 10
3.451205
 20
-0.891194
  0
VERTEX
  8
LAYER_2
 62
7
 10
3.446284
 20
-0.889225
  0
VERTEX
  8
LAYER_2
 62
7
 10
3.442347
 20
-0.889225
  0
VERTEX
  8
LAYER_2
 62
7
 10
2.460063
 20
-0.889225
  0
VERTEX
  8
LAYER_2
 62
7
 10
2.456126
 20
-0.889225
  0
VERTEX
  8
LAYER_2
 62
7
 10
2.451205
 20
-0.891194
  0
VERTEX
  8
LAYER_2
 62
7
 10
2.448252
 20
-0.894147
  0
VERTEX
  8
LAYER_2
 62
7
 10
2.216953
 20
-1.125446
  0
SEQEND
  0
POLYLINE
  8
LAYER_2
 62
4
 70
1
 66
1
  0
VERTEX
  8
LAYER_2
 62
7
 10
2.233685
 20
-1.759879
  0
VERTEX
  8
LAYER_2
 62
7
 10
2.233685
 20
-1.740603
  0
VERTEX
  8
LAYER_2
 62
7
 10
2.217937
 20
-1.724855
  0
VERTEX
  8
LAYER_2
 62
7
 10
2.198252
 20
-1.724855
  0
VERTEX
  8
LAYER_2
 62
7
 10
2.182504
 20
-1.740603
  0
VERTEX
  8
LAYER_2
 62
7
 10
2.182504
 20
-1.760288
  0
VERTEX
  8
LAYER_2
 62
7
 10
2.198252
 20
-1.776036
  0
VERTEX
  8
LAYER_2
 62
7
 10
2.216395
 20
-1.776036
  0
VERTEX
  8
LAYER_2
 62
7
 10
2.545693
 20
-2.115452
  0
VERTEX
  8
LAYER_2
 62
7
 10
2.545693
 20
-2.153989
  0
VERTEX
  8
LAYER_2
 62
7
 10
2.545693
 20
-2.157926
  0
VERTEX
  8
LAYER_2
 62
7
 10
2.545693
 20
-2.158910
  0
VERTEX
  8
LAYER_2
 62
7
 10
2.547661
 20
-2.162847
  0
VERTEX
  8
LAYER_2
 62
7
 10
2.550614
 20
-2.165800
  0
VERTEX
  8
LAYER_2
 62
7
 10
2.550819
 20
-2.165882
  0
VERTEX
  8
LAYER_2
 62
7
 10
2.826205
 20
-2.430564
  0
VERTEX
  8
LAYER_2
 62
7
 10
2.831126
 20
-2.432532
  0
VERTEX
  8
LAYER_2
 62
7
 10
2.836047
 20
-2.432532
  0
VERTEX
  8
LAYER_2
 62
7
 10
3.477780
 20
-2.432532
  0
VERTEX
  8
LAYER_2
 62
7
 10
3.573252
 20
-2.528005
  0
VERTEX
  8
LAYER_2
 62
7
 10
3.576205
 20
-2.530958
  0
VERTEX
  8
LAYER_2
 62
7
 10
3.581126
 20
-2.532926
  0
VERTEX
  8
LAYER_2
 62
7
 10
3.585063
 20
-2.532926
  0
VERTEX
  8
LAYER_2
 62
7
 10
3.641801
 20
-2.532926
  0
VERTEX
  8
LAYER_2
 62
7
 10
3.660960
 20
-2.530958
  0
VERTEX
  8
LAYER_2
 62
7
 10
3.667740
 20
-2.530958
  0
VERTEX
  8
LAYER_2
 62
7
 10
3.668517
 20
-2.530181
  0
VERTEX
  8
LAYER_2
 62
7
 10
3.670693
 20
-2.528005
  0
VERTEX
  8
LAYER_2
 62
7
 10
3.671480
 20
-2.526036
  0
VERTEX
  8
LAYER_2
 62
7
 10
3.686441
 20
-2.526036
  0
VERTEX
  8
LAYER_2
 62
7
 10
3.686441
 20
-2.514225
  0
VERTEX
  8
LAYER_2
 62
7
 10
3.671087
 20
-2.514225
  0
VERTEX
  8
LAYER_2
 62
7
 10
3.670693
 20
-2.513241
  0
VERTEX
  8
LAYER_2
 62
7
 10
3.667740
 20
-2.510288
  0
VERTEX
  8
LAYER_2
 62
7
 10
3.662819
 20
-2.508320
  0
VERTEX
  8
LAYER_2
 62
7
 10
3.658882
 20
-2.508320
  0
VERTEX
  8
LAYER_2
 62
7
 10
3.656421
 20
-2.509304
  0
VERTEX
  8
LAYER_2
 62
7
 10
3.588016
 20
-2.509304
  0
VERTEX
  8
LAYER_2
 62
7
 10
3.492543
 20
-2.413832
  0
VERTEX
  8
LAYER_2
 62
7
 10
3.489591
 20
-2.410879
  0
VERTEX
  8
LAYER_2
 62
7
 10
3.484669
 20
-2.408910
  0
VERTEX
  8
LAYER_2
 62
7
 10
3.480732
 20
-2.408910
  0
VERTEX
  8
LAYER_2
 62
7
 10
2.837817
 20
-2.408910
  0
VERTEX
  8
LAYER_2
 62
7
 10
2.569315
 20
-2.150845
  0
VERTEX
  8
LAYER_2
 62
7
 10
2.569315
 20
-2.113635
  0
VERTEX
  8
LAYER_2
 62
7
 10
2.569315
 20
-2.108713
  0
VERTEX
  8
LAYER_2
 62
7
 10
2.567347
 20
-2.103792
  0
VERTEX
  8
LAYER_2
 62
7
 10
2.233685
 20
-1.759879
  0
SEQEND
  0
POLYLINE
  8
LAYER_2
 62
4
 70
1
 66
1
  0
VERTEX
  8
LAYER_2
 62
7
 10
3.489591
 20
-2.232729
  0
VERTEX
  8
LAYER_2
 62
7
 10
3.489591
 20
-2.303595
  0
VERTEX
  8
LAYER_2
 62
7
 10
3.576205
 20
-2.303595
  0
VERTEX
  8
LAYER_2
 62
7
 10
3.576205
 20
-2.232729
  0
VERTEX
  8
LAYER_2
 62
7
 10
3.489591
 20
-2.232729
  0
SEQEND
  0
POLYLINE
  8
LAYER_2
 62
4
 70
1
 66
1
  0
VERTEX
  8
LAYER_2
 62
7
 10
3.635260
 20
-2.356745
  0
VERTEX
  8
LAYER_2
 62
7
 10
3.635260
 20
-2.368556
  0
VERTEX
  8
LAYER_2
 62
7
 10
3.686441
 20
-2.368556
  0
VERTEX
  8
LAYER_2
 62
7
 10
3.686441
 20
-2.356745
  0
VERTEX
  8
LAYER_2
 62
7
 10
3.635260
 20
-2.356745
  0
SEQEND
  0
POLYLINE
  8
LAYER_2
 62
4
 70
1
 66
1
  0
VERTEX
  8
LAYER_2
 62
7
 10
3.635260
 20
-2.396115
  0
VERTEX
  8
LAYER_2
 62
7
 10
3.635260
 20
-2.407926
  0
VERTEX
  8
LAYER_2
 62
7
 10
3.686441
 20
-2.407926
  0
VERTEX
  8
LAYER_2
 62
7
 10
3.686441
 20
-2.396115
  0
VERTEX
  8
LAYER_2
 62
7
 10
3.635260
 20
-2.396115
  0
SEQEND
  0
POLYLINE
  8
LAYER_2
 62
4
 70
1
 66
1
  0
VERTEX
  8
LAYER_2
 62
7
 10
3.635260
 20
-2.435485
  0
VERTEX
  8
LAYER_2
 62
7
 10
3.635260
 20
-2.447296
  0
VERTEX
  8
LAYER_2
 62
7
 10
3.686441
 20
-2.447296
  0
VERTEX
  8
LAYER_2
 62
7
 10
3.686441
 20
-2.435485
  0
VERTEX
  8
LAYER_2
 62
7
 10
3.635260
 20
-2.435485
  0
SEQEND
  0
POLYLINE
  8
LAYER_2
 62
4
 70
1
 66
1
  0
VERTEX
  8
LAYER_2
 62
7
 10
3.489591
 20
-2.697296
  0
VERTEX
  8
LAYER_2
 62
7
 10
3.489591
 20
-2.768162
  0
VERTEX
  8
LAYER_2
 62
7
 10
3.576205
 20
-2.768162
  0
VERTEX
  8
LAYER_2
 62
7
 10
3.576205
 20
-2.697296
  0
VERTEX
  8
LAYER_2
 62
7
 10
3.489591
 20
-2.697296
  0
SEQEND
  0
POLYLINE
  8
LAYER_2
 62
4
 70
1
 66
1
  0
VERTEX
  8
LAYER_2
 62
7
 10
1.661835
 20
-2.674658
  0
VERTEX
  8
LAYER_2
 62
7
 10
1.603764
 20
-2.674658
  0
VERTEX
  8
LAYER_2
 62
7
 10
1.596874
 20
-2.676627
  0
VERTEX
  8
LAYER_2
 62
7
 10
1.590969
 20
-2.680564
  0
VERTEX
  8
LAYER_2
 62
7
 10
1.586047
 20
-2.685485
  0
VERTEX
  8
LAYER_2
 62
7
 10
1.582110
 20
-2.691391
  0
VERTEX
  8
LAYER_2
 62
7
 10
1.580142
 20
-2.698280
  0
VERTEX
  8
LAYER_2
 62
7
 10
1.580142
 20
-2.704186
  0
VERTEX
  8
LAYER_2
 62
7
 10
1.582110
 20
-2.711076
  0
VERTEX
  8
LAYER_2
 62
7
 10
1.586047
 20
-2.716981
  0
VERTEX
  8
LAYER_2
 62
7
 10
1.590969
 20
-2.721902
  0
VERTEX
  8
LAYER_2
 62
7
 10
1.596874
 20
-2.725839
  0
VERTEX
  8
LAYER_2
 62
7
 10
1.603764
 20
-2.727808
  0
VERTEX
  8
LAYER_2
 62
7
 10
1.661835
 20
-2.727808
  0
VERTEX
  8
LAYER_2
 62
7
 10
1.668724
 20
-2.725839
  0
VERTEX
  8
LAYER_2
 62
7
 10
1.674630
 20
-2.721902
  0
VERTEX
  8
LAYER_2
 62
7
 10
1.679551
 20
-2.716981
  0
VERTEX
  8
LAYER_2
 62
7
 10
1.683488
 20
-2.711076
  0
VERTEX
  8
LAYER_2
 62
7
 10
1.685457
 20
-2.704186
  0
VERTEX
  8
LAYER_2
 62
7
 10
1.685457
 20
-2.698280
  0
VERTEX
  8
LAYER_2
 62
7
 10
1.683488
 20
-2.691391
  0
VERTEX
  8
LAYER_2
 62
7
 10
1.679551
 20
-2.685485
  0
VERTEX
  8
LAYER_2
 62
7
 10
1.674630
 20
-2.680564
  0
VERTEX
  8
LAYER_2
 62
7
 10
1.668724
 20
-2.676627
  0
VERTEX
  8
LAYER_2
 62
7
 10
1.661835
 20
-2.674658
  0
SEQEND
  0
POLYLINE
  8
LAYER_2
 62
4
 70
1
 66
1
  0
VERTEX
  8
LAYER_2
 62
7
 10
1.361638
 20
-2.574265
  0
VERTEX
  8
LAYER_2
 62
7
 10
1.303567
 20
-2.574265
  0
VERTEX
  8
LAYER_2
 62
7
 10
1.296677
 20
-2.576233
  0
VERTEX
  8
LAYER_2
 62
7
 10
1.290772
 20
-2.580170
  0
VERTEX
  8
LAYER_2
 62
7
 10
1.285850
 20
-2.585091
  0
VERTEX
  8
LAYER_2
 62
7
 10
1.281913
 20
-2.590997
  0
VERTEX
  8
LAYER_2
 62
7
 10
1.279945
 20
-2.597887
  0
VERTEX
  8
LAYER_2
 62
7
 10
1.279945
 20
-2.603792
  0
VERTEX
  8
LAYER_2
 62
7
 10
1.281913
 20
-2.610682
  0
VERTEX
  8
LAYER_2
 62
7
 10
1.285850
 20
-2.616587
  0
VERTEX
  8
LAYER_2
 62
7
 10
1.290772
 20
-2.621509
  0
VERTEX
  8
LAYER_2
 62
7
 10
1.296677
 20
-2.625446
  0
VERTEX
  8
LAYER_2
 62
7
 10
1.303567
 20
-2.627414
  0
VERTEX
  8
LAYER_2
 62
7
 10
1.361638
 20
-2.627414
  0
VERTEX
  8
LAYER_2
 62
7
 10
1.368528
 20
-2.625446
  0
VERTEX
  8
LAYER_2
 62
7
 10
1.374433
 20
-2.621509
  0
VERTEX
  8
LAYER_2
 62
7
 10
1.379354
 20
-2.616587
  0
VERTEX
  8
LAYER_2
 62
7
 10
1.383291
 20
-2.610682
  0
VERTEX
  8
LAYER_2
 62
7
 10
1.385260
 20
-2.603792
  0
VERTEX
  8
LAYER_2
 62
7
 10
1.385260
 20
-2.597887
  0
VERTEX
  8
LAYER_2
 62
7
 10
1.383291
 20
-2.590997
  0
VERTEX
  8
LAYER_2
 62
7
 10
1.379354
 20
-2.585091
  0
VERTEX
  8
LAYER_2
 62
7
 10
1.374433
 20
-2.580170
  0
VERTEX
  8
LAYER_2
 62
7
 10
1.368528
 20
-2.576233
  0
VERTEX
  8
LAYER_2
 62
7
 10
1.361638
 20
-2.574265
  0
SEQEND
  0
POLYLINE
  8
LAYER_2
 62
4
 70
1
 66
1
  0
VERTEX
  8
LAYER_2
 62
7
 10
1.161835
 20
-2.473871
  0
VERTEX
  8
LAYER_2
 62
7
 10
1.103764
 20
-2.473871
  0
VERTEX
  8
LAYER_2
 62
7
 10
1.096874
 20
-2.475839
  0
VERTEX
  8
LAYER_2
 62
7
 10
1.090969
 20
-2.479776
  0
VERTEX
  8
LAYER_2
 62
7
 10
1.086047
 20
-2.484698
  0
VERTEX
  8
LAYER_2
 62
7
 10
1.082110
 20
-2.490603
  0
VERTEX
  8
LAYER_2
 62
7
 10
1.080142
 20
-2.497493
  0
VERTEX
  8
LAYER_2
 62
7
 10
1.080142
 20
-2.503398
  0
VERTEX
  8
LAYER_2
 62
7
 10
1.082110
 20
-2.510288
  0
VERTEX
  8
LAYER_2
 62
7
 10
1.086047
 20
-2.516194
  0
VERTEX
  8
LAYER_2
 62
7
 10
1.090969
 20
-2.521115
  0
VERTEX
  8
LAYER_2
 62
7
 10
1.096874
 20
-2.525052
  0
VERTEX
  8
LAYER_2
 62
7
 10
1.103764
 20
-2.527021
  0
VERTEX
  8
LAYER_2
 62
7
 10
1.161835
 20
-2.527021
  0
VERTEX
  8
LAYER_2
 62
7
 10
1.168724
 20
-2.525052
  0
VERTEX
  8
LAYER_2
 62
7
 10
1.174630
 20
-2.521115
  0
VERTEX
  8
LAYER_2
 62
7
 10
1.179551
 20
-2.516194
  0
VERTEX
  8
LAYER_2
 62
7
 10
1.183488
 20
-2.510288
  0
VERTEX
  8
LAYER_2
 62
7
 10
1.185457
 20
-2.503398
  0
VERTEX
  8
LAYER_2
 62
7
 10
1.185457
 20
-2.497493
  0
VERTEX
  8
LAYER_2
 62
7
 10
1.183488
 20
-2.490603
  0
VERTEX
  8
LAYER_2
 62
7
 10
1.179551
 20
-2.484698
  0
VERTEX
  8
LAYER_2
 62
7
 10
1.174630
 20
-2.479776
  0
VERTEX
  8
LAYER_2
 62
7
 10
1.168724
 20
-2.475839
  0
VERTEX
  8
LAYER_2
 62
7
 10
1.161835
 20
-2.473871
  0
SEQEND
  0
POLYLINE
  8
LAYER_2
 62
4
 70
1
 66
1
  0
VERTEX
  8
LAYER_2
 62
7
 10
1.361638
 20
-2.174658
  0
VERTEX
  8
LAYER_2
 62
7
 10
1.303567
 20
-2.174658
  0
VERTEX
  8
LAYER_2
 62
7
 10
1.296677
 20
-2.176627
  0
VERTEX
  8
LAYER_2
 62
7
 10
1.290772
 20
-2.180564
  0
VERTEX
  8
LAYER_2
 62
7
 10
1.285850
 20
-2.185485
  0
VERTEX
  8
LAYER_2
 62
7
 10
1.281913
 20
-2.191391
  0
VERTEX
  8
LAYER_2
 62
7
 10
1.279945
 20
-2.198280
  0
VERTEX
  8
LAYER_2
 62
7
 10
1.279945
 20
-2.204186
  0
VERTEX
  8
LAYER_2
 62
7
 10
1.281913
 20
-2.211076
  0
VERTEX
  8
LAYER_2
 62
7
 10
1.285850
 20
-2.216981
  0
VERTEX
  8
LAYER_2
 62
7
 10
1.290772
 20
-2.221902
  0
VERTEX
  8
LAYER_2
 62
7
 10
1.296677
 20
-2.225839
  0
VERTEX
  8
LAYER_2
 62
7
 10
1.303567
 20
-2.227808
  0
VERTEX
  8
LAYER_2
 62
7
 10
1.361638
 20
-2.227808
  0
VERTEX
  8
LAYER_2
 62
7
 10
1.368528
 20
-2.225839
  0
VERTEX
  8
LAYER_2
 62
7
 10
1.374433
 20
-2.221902
  0
VERTEX
  8
LAYER_2
 62
7
 10
1.379354
 20
-2.216981
  0
VERTEX
  8
LAYER_2
 62
7
 10
1.383291
 20
-2.211076
  0
VERTEX
  8
LAYER_2
 62
7
 10
1.385260
 20
-2.204186
  0
VERTEX
  8
LAYER_2
 62
7
 10
1.385260
 20
-2.198280
  0
VERTEX
  8
LAYER_2
 62
7
 10
1.383291
 20
-2.191391
  0
VERTEX
  8
LAYER_2
 62
7
 10
1.379354
 20
-2.185485
  0
VERTEX
  8
LAYER_2
 62
7
 10
1.374433
 20
-2.180564
  0
VERTEX
  8
LAYER_2
 62
7
 10
1.368528
 20
-2.176627
  0
VERTEX
  8
LAYER_2
 62
7
 10
1.361638
 20
-2.174658
  0
SEQEND
  0
POLYLINE
  8
LAYER_2
 62
4
 70
1
 66
1
  0
VERTEX
  8
LAYER_2
 62
7
 10
1.161835
 20
-1.874461
  0
VERTEX
  8
LAYER_2
 62
7
 10
1.103764
 20
-1.874461
  0
VERTEX
  8
LAYER_2
 62
7
 10
1.096874
 20
-1.876430
  0
VERTEX
  8
LAYER_2
 62
7
 10
1.090969
 20
-1.880367
  0
VERTEX
  8
LAYER_2
 62
7
 10
1.086047
 20
-1.885288
  0
VERTEX
  8
LAYER_2
 62
7
 10
1.082110
 20
-1.891194
  0
VERTEX
  8
LAYER_2
 62
7
 10
1.080142
 20
-1.898084
  0
VERTEX
  8
LAYER_2
 62
7
 10
1.080142
 20
-1.903989
  0
VERTEX
  8
LAYER_2
 62
7
 10
1.082110
 20
-1.910879
  0
VERTEX
  8
LAYER_2
 62
7
 10
1.086047
 20
-1.916784
  0
VERTEX
  8
LAYER_2
 62
7
 10
1.090969
 20
-1.921706
  0
VERTEX
  8
LAYER_2
 62
7
 10
1.096874
 20
-1.925643
  0
VERTEX
  8
LAYER_2
 62
7
 10
1.103764
 20
-1.927611
  0
VERTEX
  8
LAYER_2
 62
7
 10
1.161835
 20
-1.927611
  0
VERTEX
  8
LAYER_2
 62
7
 10
1.168724
 20
-1.925643
  0
VERTEX
  8
LAYER_2
 62
7
 10
1.174630
 20
-1.921706
  0
VERTEX
  8
LAYER_2
 62
7
 10
1.179551
 20
-1.916784
  0
VERTEX
  8
LAYER_2
 62
7
 10
1.183488
 20
-1.910879
  0
VERTEX
  8
LAYER_2
 62
7
 10
1.185457
 20
-1.903989
  0
VERTEX
  8
LAYER_2
 62
7
 10
1.185457
 20
-1.898084
  0
VERTEX
  8
LAYER_2
 62
7
 10
1.183488
 20
-1.891194
  0
VERTEX
  8
LAYER_2
 62
7
 10
1.179551
 20
-1.885288
  0
VERTEX
  8
LAYER_2
 62
7
 10
1.174630
 20
-1.880367
  0
VERTEX
  8
LAYER_2
 62
7
 10
1.168724
 20
-1.876430
  0
VERTEX
  8
LAYER_2
 62
7
 10
1.161835
 20
-1.874461
  0
SEQEND
  0
POLYLINE
  8
LAYER_2
 62
4
 70
1
 66
1
  0
VERTEX
  8
LAYER_2
 62
7
 10
1.361638
 20
-1.624461
  0
VERTEX
  8
LAYER_2
 62
7
 10
1.303567
 20
-1.624461
  0
VERTEX
  8
LAYER_2
 62
7
 10
1.296677
 20
-1.626430
  0
VERTEX
  8
LAYER_2
 62
7
 10
1.290772
 20
-1.630367
  0
VERTEX
  8
LAYER_2
 62
7
 10
1.285850
 20
-1.635288
  0
VERTEX
  8
LAYER_2
 62
7
 10
1.281913
 20
-1.641194
  0
VERTEX
  8
LAYER_2
 62
7
 10
1.279945
 20
-1.648084
  0
VERTEX
  8
LAYER_2
 62
7
 10
1.279945
 20
-1.653989
  0
VERTEX
  8
LAYER_2
 62
7
 10
1.281913
 20
-1.660879
  0
VERTEX
  8
LAYER_2
 62
7
 10
1.285850
 20
-1.666784
  0
VERTEX
  8
LAYER_2
 62
7
 10
1.290772
 20
-1.671706
  0
VERTEX
  8
LAYER_2
 62
7
 10
1.296677
 20
-1.675643
  0
VERTEX
  8
LAYER_2
 62
7
 10
1.303567
 20
-1.677611
  0
VERTEX
  8
LAYER_2
 62
7
 10
1.361638
 20
-1.677611
  0
VERTEX
  8
LAYER_2
 62
7
 10
1.368528
 20
-1.675643
  0
VERTEX
  8
LAYER_2
 62
7
 10
1.374433
 20
-1.671706
  0
VERTEX
  8
LAYER_2
 62
7
 10
1.379354
 20
-1.666784
  0
VERTEX
  8
LAYER_2
 62
7
 10
1.383291
 20
-1.660879
  0
VERTEX
  8
LAYER_2
 62
7
 10
1.385260
 20
-1.653989
  0
VERTEX
  8
LAYER_2
 62
7
 10
1.385260
 20
-1.648084
  0
VERTEX
  8
LAYER_2
 62
7
 10
1.383291
 20
-1.641194
  0
VERTEX
  8
LAYER_2
 62
7
 10
1.379354
 20
-1.635288
  0
VERTEX
  8
LAYER_2
 62
7
 10
1.374433
 20
-1.630367
  0
VERTEX
  8
LAYER_2
 62
7
 10
1.368528
 20
-1.626430
  0
VERTEX
  8
LAYER_2
 62
7
 10
1.361638
 20
-1.624461
  0
SEQEND
  0
POLYLINE
  8
LAYER_2
 62
4
 70
1
 66
1
  0
VERTEX
  8
LAYER_2
 62
7
 10
1.661835
 20
-1.723871
  0
VERTEX
  8
LAYER_2
 62
7
 10
1.603764
 20
-1.723871
  0
VERTEX
  8
LAYER_2
 62
7
 10
1.596874
 20
-1.725839
  0
VERTEX
  8
LAYER_2
 62
7
 10
1.590969
 20
-1.729776
  0
VERTEX
  8
LAYER_2
 62
7
 10
1.586047
 20
-1.734698
  0
VERTEX
  8
LAYER_2
 62
7
 10
1.582110
 20
-1.740603
  0
VERTEX
  8
LAYER_2
 62
7
 10
1.580142
 20
-1.747493
  0
VERTEX
  8
LAYER_2
 62
7
 10
1.580142
 20
-1.753398
  0
VERTEX
  8
LAYER_2
 62
7
 10
1.582110
 20
-1.760288
  0
VERTEX
  8
LAYER_2
 62
7
 10
1.586047
 20
-1.766194
  0
VERTEX
  8
LAYER_2
 62
7
 10
1.590969
 20
-1.771115
  0
VERTEX
  8
LAYER_2
 62
7
 10
1.596874
 20
-1.775052
  0
VERTEX
  8
LAYER_2
 62
7
 10
1.603764
 20
-1.777021
  0
VERTEX
  8
LAYER_2
 62
7
 10
1.661835
 20
-1.777021
  0
VERTEX
  8
LAYER_2
 62
7
 10
1.668724
 20
-1.775052
  0
VERTEX
  8
LAYER_2
 62
7
 10
1.674630
 20
-1.771115
  0
VERTEX
  8
LAYER_2
 62
7
 10
1.679551
 20
-1.766194
  0
VERTEX
  8
LAYER_2
 62
7
 10
1.683488
 20
-1.760288
  0
VERTEX
  8
LAYER_2
 62
7
 10
1.685457
 20
-1.753398
  0
VERTEX
  8
LAYER_2
 62
7
 10
1.685457
 20
-1.747493
  0
VERTEX
  8
LAYER_2
 62
7
 10
1.683488
 20
-1.740603
  0
VERTEX
  8
LAYER_2
 62
7
 10
1.679551
 20
-1.734698
  0
VERTEX
  8
LAYER_2
 62
7
 10
1.674630
 20
-1.729776
  0
VERTEX
  8
LAYER_2
 62
7
 10
1.668724
 20
-1.725839
  0
VERTEX
  8
LAYER_2
 62
7
 10
1.661835
 20
-1.723871
  0
SEQEND
  0
POLYLINE
  8
LAYER_2
 62
4
 70
1
 66
1
  0
VERTEX
  8
LAYER_2
 62
7
 10
1.661835
 20
-1.124461
  0
VERTEX
  8
LAYER_2
 62
7
 10
1.603764
 20
-1.124461
  0
VERTEX
  8
LAYER_2
 62
7
 10
1.596874
 20
-1.126430
  0
VERTEX
  8
LAYER_2
 62
7
 10
1.590969
 20
-1.130367
  0
VERTEX
  8
LAYER_2
 62
7
 10
1.586047
 20
-1.135288
  0
VERTEX
  8
LAYER_2
 62
7
 10
1.582110
 20
-1.141194
  0
VERTEX
  8
LAYER_2
 62
7
 10
1.580142
 20
-1.148084
  0
VERTEX
  8
LAYER_2
 62
7
 10
1.580142
 20
-1.153989
  0
VERTEX
  8
LAYER_2
 62
7
 10
1.582110
 20
-1.160879
  0
VERTEX
  8
LAYER_2
 62
7
 10
1.586047
 20
-1.166784
  0
VERTEX
  8
LAYER_2
 62
7
 10
1.590969
 20
-1.171706
  0
VERTEX
  8
LAYER_2
 62
7
 10
1.596874
 20
-1.175643
  0
VERTEX
  8
LAYER_2
 62
7
 10
1.603764
 20
-1.177611
  0
VERTEX
  8
LAYER_2
 62
7
 10
1.661835
 20
-1.177611
  0
VERTEX
  8
LAYER_2
 62
7
 10
1.668724
 20
-1.175643
  0
VERTEX
  8
LAYER_2
 62
7
 10
1.674630
 20
-1.171706
  0
VERTEX
  8
LAYER_2
 62
7
 10
1.679551
 20
-1.166784
  0
VERTEX
  8
LAYER_2
 62
7
 10
1.683488
 20
-1.160879
  0
VERTEX
  8
LAYER_2
 62
7
 10
1.685457
 20
-1.153989
  0
VERTEX
  8
LAYER_2
 62
7
 10
1.685457
 20
-1.148084
  0
VERTEX
  8
LAYER_2
 62
7
 10
1.683488
 20
-1.141194
  0
VERTEX
  8
LAYER_2
 62
7
 10
1.679551
 20
-1.135288
  0
VERTEX
  8
LAYER_2
 62
7
 10
1.674630
 20
-1.130367
  0
VERTEX
  8
LAYER_2
 62
7
 10
1.668724
 20
-1.126430
  0
VERTEX
  8
LAYER_2
 62
7
 10
1.661835
 20
-1.124461
  0
SEQEND
  0
POLYLINE
  8
LAYER_2
 62
4
 70
1
 66
1
  0
VERTEX
  8
LAYER_2
 62
7
 10
1.361638
 20
-1.223871
  0
VERTEX
  8
LAYER_2
 62
7
 10
1.303567
 20
-1.223871
  0
VERTEX
  8
LAYER_2
 62
7
 10
1.296677
 20
-1.225839
  0
VERTEX
  8
LAYER_2
 62
7
 10
1.290772
 20
-1.229776
  0
VERTEX
  8
LAYER_2
 62
7
 10
1.285850
 20
-1.234698
  0
VERTEX
  8
LAYER_2
 62
7
 10
1.281913
 20
-1.240603
  0
VERTEX
  8
LAYER_2
 62
7
 10
1.279945
 20
-1.247493
  0
VERTEX
  8
LAYER_2
 62
7
 10
1.279945
 20
-1.253398
  0
VERTEX
  8
LAYER_2
 62
7
 10
1.281913
 20
-1.260288
  0
VERTEX
  8
LAYER_2
 62
7
 10
1.285850
 20
-1.266194
  0
VERTEX
  8
LAYER_2
 62
7
 10
1.290772
 20
-1.271115
  0
VERTEX
  8
LAYER_2
 62
7
 10
1.296677
 20
-1.275052
  0
VERTEX
  8
LAYER_2
 62
7
 10
1.303567
 20
-1.277021
  0
VERTEX
  8
LAYER_2
 62
7
 10
1.361638
 20
-1.277021
  0
VERTEX
  8
LAYER_2
 62
7
 10
1.368528
 20
-1.275052
  0
VERTEX
  8
LAYER_2
 62
7
 10
1.374433
 20
-1.271115
  0
VERTEX
  8
LAYER_2
 62
7
 10
1.379354
 20
-1.266194
  0
VERTEX
  8
LAYER_2
 62
7
 10
1.383291
 20
-1.260288
  0
VERTEX
  8
LAYER_2
 62
7
 10
1.385260
 20
-1.253398
  0
VERTEX
  8
LAYER_2
 62
7
 10
1.385260
 20
-1.247493
  0
VERTEX
  8
LAYER_2
 62
7
 10
1.383291
 20
-1.240603
  0
VERTEX
  8
LAYER_2
 62
7
 10
1.379354
 20
-1.234698
  0
VERTEX
  8
LAYER_2
 62
7
 10
1.374433
 20
-1.229776
  0
VERTEX
  8
LAYER_2
 62
7
 10
1.368528
 20
-1.225839
  0
VERTEX
  8
LAYER_2
 62
7
 10
1.361638
 20
-1.223871
  0
SEQEND
  0
POLYLINE
  8
LAYER_2
 62
4
 70
1
 66
1
  0
VERTEX
  8
LAYER_2
 62
7
 10
1.159866
 20
-0.830170
  0
VERTEX
  8
LAYER_2
 62
7
 10
1.159866
 20
-0.772099
  0
VERTEX
  8
LAYER_2
 62
7
 10
1.157898
 20
-0.765209
  0
VERTEX
  8
LAYER_2
 62
7
 10
1.153961
 20
-0.759304
  0
VERTEX
  8
LAYER_2
 62
7
 10
1.149039
 20
-0.754383
  0
VERTEX
  8
LAYER_2
 62
7
 10
1.143134
 20
-0.750446
  0
VERTEX
  8
LAYER_2
 62
7
 10
1.136244
 20
-0.748477
  0
VERTEX
  8
LAYER_2
 62
7
 10
1.130339
 20
-0.748477
  0
VERTEX
  8
LAYER_2
 62
7
 10
1.123449
 20
-0.750446
  0
VERTEX
  8
LAYER_2
 62
7
 10
1.117543
 20
-0.754383
  0
VERTEX
  8
LAYER_2
 62
7
 10
1.112622
 20
-0.759304
  0
VERTEX
  8
LAYER_2
 62
7
 10
1.108685
 20
-0.765209
  0
VERTEX
  8
LAYER_2
 62
7
 10
1.106717
 20
-0.772099
  0
VERTEX
  8
LAYER_2
 62
7
 10
1.106717
 20
-0.830170
  0
VERTEX
  8
LAYER_2
 62
7
 10
1.108685
 20
-0.837060
  0
VERTEX
  8
LAYER_2
 62
7
 10
1.112622
 20
-0.842965
  0
VERTEX
  8
LAYER_2
 62
7
 10
1.117543
 20
-0.847887
  0
VERTEX
  8
LAYER_2
 62
7
 10
1.123449
 20
-0.851824
  0
VERTEX
  8
LAYER_2
 62
7
 10
1.130339
 20
-0.853792
  0
VERTEX
  8
LAYER_2
 62
7
 10
1.136244
 20
-0.853792
  0
VERTEX
  8
LAYER_2
 62
7
 10
1.143134
 20
-0.851824
  0
VERTEX
  8
LAYER_2
 62
7
 10
1.149039
 20
-0.847887
  0
VERTEX
  8
LAYER_2
 62
7
 10
1.153961
 20
-0.842965
  0
VERTEX
  8
LAYER_2
 62
7
 10
1.157898
 20
-0.837060
  0
VERTEX
  8
LAYER_2
 62
7
 10
1.159866
 20
-0.830170
  0
SEQEND
  0
POLYLINE
  8
LAYER_2
 62
4
 70
1
 66
1
  0
VERTEX
  8
LAYER_2
 62
7
 10
0.759276
 20
-0.830170
  0
VERTEX
  8
LAYER_2
 62
7
 10
0.759276
 20
-0.772099
  0
VERTEX
  8
LAYER_2
 62
7
 10
0.757307
 20
-0.765209
  0
VERTEX
  8
LAYER_2
 62
7
 10
0.753370
 20
-0.759304
  0
VERTEX
  8
LAYER_2
 62
7
 10
0.748449
 20
-0.754383
  0
VERTEX
  8
LAYER_2
 62
7
 10
0.742543
 20
-0.750446
  0
VERTEX
  8
LAYER_2
 62
7
 10
0.735654
 20
-0.748477
  0
VERTEX
  8
LAYER_2
 62
7
 10
0.729748
 20
-0.748477
  0
VERTEX
  8
LAYER_2
 62
7
 10
0.722858
 20
-0.750446
  0
VERTEX
  8
LAYER_2
 62
7
 10
0.716953
 20
-0.754383
  0
VERTEX
  8
LAYER_2
 62
7
 10
0.712032
 20
-0.759304
  0
VERTEX
  8
LAYER_2
 62
7
 10
0.708095
 20
-0.765209
  0
VERTEX
  8
LAYER_2
 62
7
 10
0.706126
 20
-0.772099
  0
VERTEX
  8
LAYER_2
 62
7
 10
0.706126
 20
-0.830170
  0
VERTEX
  8
LAYER_2
 62
7
 10
0.708095
 20
-0.837060
  0
VERTEX
  8
LAYER_2
 62
7
 10
0.712032
 20
-0.842965
  0
VERTEX
  8
LAYER_2
 62
7
 10
0.716953
 20
-0.847887
  0
VERTEX
  8
LAYER_2
 62
7
 10
0.722858
 20
-0.851824
  0
VERTEX
  8
LAYER_2
 62
7
 10
0.729748
 20
-0.853792
  0
VERTEX
  8
LAYER_2
 62
7
 10
0.735654
 20
-0.853792
  0
VERTEX
  8
LAYER_2
 62
7
 10
0.742543
 20
-0.851824
  0
VERTEX
  8
LAYER_2
 62
7
 10
0.748449
 20
-0.847887
  0
VERTEX
  8
LAYER_2
 62
7
 10
0.753370
 20
-0.842965
  0
VERTEX
  8
LAYER_2
 62
7
 10
0.757307
 20
-0.837060
  0
VERTEX
  8
LAYER_2
 62
7
 10
0.759276
 20
-0.830170
  0
SEQEND
  0
POLYLINE
  8
LAYER_2
 62
4
 70
1
 66
1
  0
VERTEX
  8
LAYER_2
 62
7
 10
1.661835
 20
-2.074265
  0
VERTEX
  8
LAYER_2
 62
7
 10
1.603764
 20
-2.074265
  0
VERTEX
  8
LAYER_2
 62
7
 10
1.596874
 20
-2.076233
  0
VERTEX
  8
LAYER_2
 62
7
 10
1.590969
 20
-2.080170
  0
VERTEX
  8
LAYER_2
 62
7
 10
1.586047
 20
-2.085091
  0
VERTEX
  8
LAYER_2
 62
7
 10
1.582110
 20
-2.090997
  0
VERTEX
  8
LAYER_2
 62
7
 10
1.580142
 20
-2.097887
  0
VERTEX
  8
LAYER_2
 62
7
 10
1.580142
 20
-2.103792
  0
VERTEX
  8
LAYER_2
 62
7
 10
1.582110
 20
-2.110682
  0
VERTEX
  8
LAYER_2
 62
7
 10
1.586047
 20
-2.116587
  0
VERTEX
  8
LAYER_2
 62
7
 10
1.590969
 20
-2.121509
  0
VERTEX
  8
LAYER_2
 62
7
 10
1.596874
 20
-2.125446
  0
VERTEX
  8
LAYER_2
 62
7
 10
1.603764
 20
-2.127414
  0
VERTEX
  8
LAYER_2
 62
7
 10
1.661835
 20
-2.127414
  0
VERTEX
  8
LAYER_2
 62
7
 10
1.668724
 20
-2.125446
  0
VERTEX
  8
LAYER_2
 62
7
 10
1.674630
 20
-2.121509
  0
VERTEX
  8
LAYER_2
 62
7
 10
1.679551
 20
-2.116587
  0
VERTEX
  8
LAYER_2
 62
7
 10
1.683488
 20
-2.110682
  0
VERTEX
  8
LAYER_2
 62
7
 10
1.685457
 20
-2.103792
  0
VERTEX
  8
LAYER_2
 62
7
 10
1.685457
 20
-2.097887
  0
VERTEX
  8
LAYER_2
 62
7
 10
1.683488
 20
-2.090997
  0
VERTEX
  8
LAYER_2
 62
7
 10
1.679551
 20
-2.085091
  0
VERTEX
  8
LAYER_2
 62
7
 10
1.674630
 20
-2.080170
  0
VERTEX
  8
LAYER_2
 62
7
 10
1.668724
 20
-2.076233
  0
VERTEX
  8
LAYER_2
 62
7
 10
1.661835
 20
-2.074265
  0
SEQEND
  0
POLYLINE
  8
LAYER_1
 62
7
 66
1
  0
VERTEX
  8
LAYER_1
 62
7
 10
0.434427
 20
-2.700424
  0
VERTEX
  8
LAYER_1
 62
7
 10
0.434427
 20
-2.698758
  0
SEQEND
  0
POLYLINE
  8
LAYER_1
 62
7
 66
1
  0
VERTEX
  8
LAYER_1
 62
7
 10
0.434427
 20
-2.301258
  0
VERTEX
  8
LAYER_1
 62
7
 10
0.434427
 20
-2.299591
  0
SEQEND
  0
POLYLINE
  8
LAYER_1
 62
7
 66
1
  0
VERTEX
  8
LAYER_1
 62
7
 10
0.434427
 20
-2.101258
  0
VERTEX
  8
LAYER_1
 62
7
 10
0.434427
 20
-2.102924
  0
SEQEND
  0
POLYLINE
  8
LAYER_1
 62
7
 66
1
  0
VERTEX
  8
LAYER_1
 62
7
 10
3.331094
 20
-1.301258
 42
-0.199589
  0
VERTEX
  8
LAYER_1
 62
7
 10
3.325236
 20
-1.315400
 42
-0.199589
  0
VERTEX
  8
LAYER_1
 62
7
 10
3.311094
 20
-1.321258
  0
SEQEND
  0
POLYLINE
  8
LAYER_1
 62
7
 66
1
  0
VERTEX
  8
LAYER_1
 62
7
 10
3.311094
 20
-1.321258
 42
-0.199589
  0
VERTEX
  8
LAYER_1
 62
7
 10
3.296952
 20
-1.315400
 42
-0.199589
  0
VERTEX
  8
LAYER_1
 62
7
 10
3.291094
 20
-1.301258
  0
SEQEND
  0
POLYLINE
  8
LAYER_1
 62
7
 66
1
  0
VERTEX
  8
LAYER_1
 62
7
 10
3.291094
 20
-1.301258
 42
-0.199589
  0
VERTEX
  8
LAYER_1
 62
7
 10
3.296952
 20
-1.287115
 42
-0.199589
  0
VERTEX
  8
LAYER_1
 62
7
 10
3.311094
 20
-1.281258
  0
SEQEND
  0
POLYLINE
  8
LAYER_1
 62
7
 66
1
  0
VERTEX
  8
LAYER_1
 62
7
 10
3.311094
 20
-1.281258
 42
-0.199589
  0
VERTEX
  8
LAYER_1
 62
7
 10
3.325236
 20
-1.287115
 42
-0.199589
  0
VERTEX
  8
LAYER_1
 62
7
 10
3.331094
 20
-1.301258
  0
SEQEND
  0
POLYLINE
  8
LAYER_1
 62
7
 66
1
  0
VERTEX
  8
LAYER_1
 62
7
 10
3.571094
 20
-1.301258
 42
-0.199589
  0
VERTEX
  8
LAYER_1
 62
7
 10
3.565236
 20
-1.315400
 42
-0.199589
  0
VERTEX
  8
LAYER_1
 62
7
 10
3.551094
 20
-1.321258
  0
SEQEND
  0
POLYLINE
  8
LAYER_1
 62
7
 66
1
  0
VERTEX
  8
LAYER_1
 62
7
 10
3.551094
 20
-1.321258
 42
-0.199589
  0
VERTEX
  8
LAYER_1
 62
7
 10
3.536952
 20
-1.315400
 42
-0.199589
  0
VERTEX
  8
LAYER_1
 62
7
 10
3.531094
 20
-1.301258
  0
SEQEND
  0
POLYLINE
  8
LAYER_1
 62
7
 66
1
  0
VERTEX
  8
LAYER_1
 62
7
 10
3.531094
 20
-1.301258
 42
-0.199589
  0
VERTEX
  8
LAYER_1
 62
7
 10
3.536952
 20
-1.287115
 42
-0.199589
  0
VERTEX
  8
LAYER_1
 62
7
 10
3.551094
 20
-1.281258
  0
SEQEND
  0
POLYLINE
  8
LAYER_1
 62
7
 66
1
  0
VERTEX
  8
LAYER_1
 62
7
 10
3.551094
 20
-1.281258
 42
-0.199589
  0
VERTEX
  8
LAYER_1
 62
7
 10
3.565236
 20
-1.287115
 42
-0.199589
  0
VERTEX
  8
LAYER_1
 62
7
 10
3.571094
 20
-1.301258
  0
SEQEND
  0
POLYLINE
  8
LAYER_1
 62
7
 66
1
  0
VERTEX
  8
LAYER_1
 62
7
 10
3.452761
 20
-1.112924
 42
-0.199589
  0
VERTEX
  8
LAYER_1
 62
7
 10
3.446903
 20
-1.127066
 42
-0.199589
  0
VERTEX
  8
LAYER_1
 62
7
 10
3.432761
 20
-1.132924
  0
SEQEND
  0
POLYLINE
  8
LAYER_1
 62
7
 66
1
  0
VERTEX
  8
LAYER_1
 62
7
 10
3.432761
 20
-1.132924
 42
-0.199589
  0
VERTEX
  8
LAYER_1
 62
7
 10
3.418618
 20
-1.127066
 42
-0.199589
  0
VERTEX
  8
LAYER_1
 62
7
 10
3.412761
 20
-1.112924
  0
SEQEND
  0
POLYLINE
  8
LAYER_1
 62
7
 66
1
  0
VERTEX
  8
LAYER_1
 62
7
 10
3.412761
 20
-1.112924
 42
-0.199589
  0
VERTEX
  8
LAYER_1
 62
7
 10
3.418618
 20
-1.098782
 42
-0.199589
  0
VERTEX
  8
LAYER_1
 62
7
 10
3.432761
 20
-1.092924
  0
SEQEND
  0
POLYLINE
  8
LAYER_1
 62
7
 66
1
  0
VERTEX
  8
LAYER_1
 62
7
 10
3.432761
 20
-1.092924
 42
-0.199589
  0
VERTEX
  8
LAYER_1
 62
7
 10
3.446903
 20
-1.098782
 42
-0.199589
  0
VERTEX
  8
LAYER_1
 62
7
 10
3.452761
 20
-1.112924
  0
SEQEND
  0
POLYLINE
  8
LAYER_1
 62
7
 66
1
  0
VERTEX
  8
LAYER_1
 62
7
 10
1.649427
 20
-2.700424
 42
-0.199588
  0
VERTEX
  8
LAYER_1
 62
7
 10
1.644790
 20
-2.711620
 42
-0.199589
  0
VERTEX
  8
LAYER_1
 62
7
 10
1.633594
 20
-2.716258
  0
SEQEND
  0
POLYLINE
  8
LAYER_1
 62
7
 66
1
  0
VERTEX
  8
LAYER_1
 62
7
 10
1.633594
 20
-2.716258
 42
-0.199589
  0
VERTEX
  8
LAYER_1
 62
7
 10
1.622398
 20
-2.711620
 42
-0.199589
  0
VERTEX
  8
LAYER_1
 62
7
 10
1.617761
 20
-2.700424
  0
SEQEND
  0
POLYLINE
  8
LAYER_1
 62
7
 66
1
  0
VERTEX
  8
LAYER_1
 62
7
 10
1.617761
 20
-2.700424
 42
-0.199589
  0
VERTEX
  8
LAYER_1
 62
7
 10
1.622398
 20
-2.689228
 42
-0.199588
  0
VERTEX
  8
LAYER_1
 62
7
 10
1.633594
 20
-2.684591
  0
SEQEND
  0
POLYLINE
  8
LAYER_1
 62
7
 66
1
  0
VERTEX
  8
LAYER_1
 62
7
 10
1.633594
 20
-2.684591
 42
-0.199589
  0
VERTEX
  8
LAYER_1
 62
7
 10
1.644790
 20
-2.689228
 42
-0.199589
  0
VERTEX
  8
LAYER_1
 62
7
 10
1.649427
 20
-2.700424
  0
SEQEND
  0
POLYLINE
  8
LAYER_1
 62
7
 66
1
  0
VERTEX
  8
LAYER_1
 62
7
 10
1.649427
 20
-2.600424
 42
-0.199588
  0
VERTEX
  8
LAYER_1
 62
7
 10
1.644790
 20
-2.611620
 42
-0.199589
  0
VERTEX
  8
LAYER_1
 62
7
 10
1.633594
 20
-2.616258
  0
SEQEND
  0
POLYLINE
  8
LAYER_1
 62
7
 66
1
  0
VERTEX
  8
LAYER_1
 62
7
 10
1.633594
 20
-2.616258
 42
-0.199589
  0
VERTEX
  8
LAYER_1
 62
7
 10
1.622398
 20
-2.611620
 42
-0.199589
  0
VERTEX
  8
LAYER_1
 62
7
 10
1.617761
 20
-2.600424
  0
SEQEND
  0
POLYLINE
  8
LAYER_1
 62
7
 66
1
  0
VERTEX
  8
LAYER_1
 62
7
 10
1.617761
 20
-2.600424
 42
-0.199589
  0
VERTEX
  8
LAYER_1
 62
7
 10
1.622398
 20
-2.589228
 42
-0.199588
  0
VERTEX
  8
LAYER_1
 62
7
 10
1.633594
 20
-2.584591
  0
SEQEND
  0
POLYLINE
  8
LAYER_1
 62
7
 66
1
  0
VERTEX
  8
LAYER_1
 62
7
 10
1.633594
 20
-2.584591
 42
-0.199589
  0
VERTEX
  8
LAYER_1
 62
7
 10
1.644790
 20
-2.589228
 42
-0.199589
  0
VERTEX
  8
LAYER_1
 62
7
 10
1.649427
 20
-2.600424
  0
SEQEND
  0
POLYLINE
  8
LAYER_1
 62
7
 66
1
  0
VERTEX
  8
LAYER_1
 62
7
 10
1.649427
 20
-2.201258
 42
-0.199588
  0
VERTEX
  8
LAYER_1
 62
7
 10
1.644790
 20
-2.212453
 42
-0.199589
  0
VERTEX
  8
LAYER_1
 62
7
 10
1.633594
 20
-2.217091
  0
SEQEND
  0
POLYLINE
  8
LAYER_1
 62
7
 66
1
  0
VERTEX
  8
LAYER_1
 62
7
 10
1.633594
 20
-2.217091
 42
-0.199589
  0
VERTEX
  8
LAYER_1
 62
7
 10
1.622398
 20
-2.212453
 42
-0.199588
  0
VERTEX
  8
LAYER_1
 62
7
 10
1.617761
 20
-2.201258
  0
SEQEND
  0
POLYLINE
  8
LAYER_1
 62
7
 66
1
  0
VERTEX
  8
LAYER_1
 62
7
 10
1.617761
 20
-2.201258
 42
-0.199588
  0
VERTEX
  8
LAYER_1
 62
7
 10
1.622398
 20
-2.190062
 42
-0.199589
  0
VERTEX
  8
LAYER_1
 62
7
 10
1.633594
 20
-2.185424
  0
SEQEND
  0
POLYLINE
  8
LAYER_1
 62
7
 66
1
  0
VERTEX
  8
LAYER_1
 62
7
 10
1.633594
 20
-2.185424
 42
-0.199589
  0
VERTEX
  8
LAYER_1
 62
7
 10
1.644790
 20
-2.190062
 42
-0.199588
  0
VERTEX
  8
LAYER_1
 62
7
 10
1.649427
 20
-2.201258
  0
SEQEND
  0
POLYLINE
  8
LAYER_1
 62
7
 66
1
  0
VERTEX
  8
LAYER_1
 62
7
 10
1.649427
 20
-2.101258
 42
-0.199588
  0
VERTEX
  8
LAYER_1
 62
7
 10
1.644790
 20
-2.112453
 42
-0.199589
  0
VERTEX
  8
LAYER_1
 62
7
 10
1.633594
 20
-2.117091
  0
SEQEND
  0
POLYLINE
  8
LAYER_1
 62
7
 66
1
  0
VERTEX
  8
LAYER_1
 62
7
 10
1.633594
 20
-2.117091
 42
-0.199589
  0
VERTEX
  8
LAYER_1
 62
7
 10
1.622398
 20
-2.112453
 42
-0.199588
  0
VERTEX
  8
LAYER_1
 62
7
 10
1.617761
 20
-2.101258
  0
SEQEND
  0
POLYLINE
  8
LAYER_1
 62
7
 66
1
  0
VERTEX
  8
LAYER_1
 62
7
 10
1.617761
 20
-2.101258
 42
-0.199588
  0
VERTEX
  8
LAYER_1
 62
7
 10
1.622398
 20
-2.090062
 42
-0.199589
  0
VERTEX
  8
LAYER_1
 62
7
 10
1.633594
 20
-2.085424
  0
SEQEND
  0
POLYLINE
  8
LAYER_1
 62
7
 66
1
  0
VERTEX
  8
LAYER_1
 62
7
 10
1.633594
 20
-2.085424
 42
-0.199589
  0
VERTEX
  8
LAYER_1
 62
7
 10
1.644790
 20
-2.090062
 42
-0.199588
  0
VERTEX
  8
LAYER_1
 62
7
 10
1.649427
 20
-2.101258
  0
SEQEND
  0
POLYLINE
  8
LAYER_1
 62
7
 66
1
  0
VERTEX
  8
LAYER_1
 62
7
 10
1.349427
 20
-2.101258
 42
-0.199588
  0
VERTEX
  8
LAYER_1
 62
7
 10
1.344790
 20
-2.112453
 42
-0.199589
  0
VERTEX
  8
LAYER_1
 62
7
 10
1.333594
 20
-2.117091
  0
SEQEND
  0
POLYLINE
  8
LAYER_1
 62
7
 66
1
  0
VERTEX
  8
LAYER_1
 62
7
 10
1.333594
 20
-2.117091
 42
-0.199589
  0
VERTEX
  8
LAYER_1
 62
7
 10
1.322398
 20
-2.112453
 42
-0.199588
  0
VERTEX
  8
LAYER_1
 62
7
 10
1.317761
 20
-2.101258
  0
SEQEND
  0
POLYLINE
  8
LAYER_1
 62
7
 66
1
  0
VERTEX
  8
LAYER_1
 62
7
 10
1.317761
 20
-2.101258
 42
-0.199588
  0
VERTEX
  8
LAYER_1
 62
7
 10
1.322398
 20
-2.090062
 42
-0.199589
  0
VERTEX
  8
LAYER_1
 62
7
 10
1.333594
 20
-2.085424
  0
SEQEND
  0
POLYLINE
  8
LAYER_1
 62
7
 66
1
  0
VERTEX
  8
LAYER_1
 62
7
 10
1.333594
 20
-2.085424
 42
-0.199589
  0
VERTEX
  8
LAYER_1
 62
7
 10
1.344790
 20
-2.090062
 42
-0.199588
  0
VERTEX
  8
LAYER_1
 62
7
 10
1.349427
 20
-2.101258
  0
SEQEND
  0
POLYLINE
  8
LAYER_1
 62
7
 66
1
  0
VERTEX
  8
LAYER_1
 62
7
 10
1.349427
 20
-2.201258
 42
-0.199588
  0
VERTEX
  8
LAYER_1
 62
7
 10
1.344790
 20
-2.212453
 42
-0.199589
  0
VERTEX
  8
LAYER_1
 62
7
 10
1.333594
 20
-2.217091
  0
SEQEND
  0
POLYLINE
  8
LAYER_1
 62
7
 66
1
  0
VERTEX
  8
LAYER_1
 62
7
 10
1.333594
 20
-2.217091
 42
-0.199589
  0
VERTEX
  8
LAYER_1
 62
7
 10
1.322398
 20
-2.212453
 42
-0.199588
  0
VERTEX
  8
LAYER_1
 62
7
 10
1.317761
 20
-2.201258
  0
SEQEND
  0
POLYLINE
  8
LAYER_1
 62
7
 66
1
  0
VERTEX
  8
LAYER_1
 62
7
 10
1.317761
 20
-2.201258
 42
-0.199588
  0
VERTEX
  8
LAYER_1
 62
7
 10
1.322398
 20
-2.190062
 42
-0.199589
  0
VERTEX
  8
LAYER_1
 62
7
 10
1.333594
 20
-2.185424
  0
SEQEND
  0
POLYLINE
  8
LAYER_1
 62
7
 66
1
  0
VERTEX
  8
LAYER_1
 62
7
 10
1.333594
 20
-2.185424
 42
-0.199589
  0
VERTEX
  8
LAYER_1
 62
7
 10
1.344790
 20
-2.190062
 42
-0.199588
  0
VERTEX
  8
LAYER_1
 62
7
 10
1.349427
 20
-2.201258
  0
SEQEND
  0
POLYLINE
  8
LAYER_1
 62
7
 66
1
  0
VERTEX
  8
LAYER_1
 62
7
 10
1.349427
 20
-2.600424
 42
-0.199588
  0
VERTEX
  8
LAYER_1
 62
7
 10
1.344790
 20
-2.611620
 42
-0.199589
  0
VERTEX
  8
LAYER_1
 62
7
 10
1.333594
 20
-2.616258
  0
SEQEND
  0
POLYLINE
  8
LAYER_1
 62
7
 66
1
  0
VERTEX
  8
LAYER_1
 62
7
 10
1.333594
 20
-2.616258
 42
-0.199589
  0
VERTEX
  8
LAYER_1
 62
7
 10
1.322398
 20
-2.611620
 42
-0.199589
  0
VERTEX
  8
LAYER_1
 62
7
 10
1.317761
 20
-2.600424
  0
SEQEND
  0
POLYLINE
  8
LAYER_1
 62
7
 66
1
  0
VERTEX
  8
LAYER_1
 62
7
 10
1.317761
 20
-2.600424
 42
-0.199589
  0
VERTEX
  8
LAYER_1
 62
7
 10
1.322398
 20
-2.589228
 42
-0.199588
  0
VERTEX
  8
LAYER_1
 62
7
 10
1.333594
 20
-2.584591
  0
SEQEND
  0
POLYLINE
  8
LAYER_1
 62
7
 66
1
  0
VERTEX
  8
LAYER_1
 62
7
 10
1.333594
 20
-2.584591
 42
-0.199589
  0
VERTEX
  8
LAYER_1
 62
7
 10
1.344790
 20
-2.589228
 42
-0.199589
  0
VERTEX
  8
LAYER_1
 62
7
 10
1.349427
 20
-2.600424
  0
SEQEND
  0
POLYLINE
  8
LAYER_1
 62
7
 66
1
  0
VERTEX
  8
LAYER_1
 62
7
 10
1.349427
 20
-2.700424
 42
-0.199588
  0
VERTEX
  8
LAYER_1
 62
7
 10
1.344790
 20
-2.711620
 42
-0.199589
  0
VERTEX
  8
LAYER_1
 62
7
 10
1.333594
 20
-2.716258
  0
SEQEND
  0
POLYLINE
  8
LAYER_1
 62
7
 66
1
  0
VERTEX
  8
LAYER_1
 62
7
 10
1.333594
 20
-2.716258
 42
-0.199589
  0
VERTEX
  8
LAYER_1
 62
7
 10
1.322398
 20
-2.711620
 42
-0.199589
  0
VERTEX
  8
LAYER_1
 62
7
 10
1.317761
 20
-2.700424
  0
SEQEND
  0
POLYLINE
  8
LAYER_1
 62
7
 66
1
  0
VERTEX
  8
LAYER_1
 62
7
 10
1.317761
 20
-2.700424
 42
-0.199589
  0
VERTEX
  8
LAYER_1
 62
7
 10
1.322398
 20
-2.689228
 42
-0.199588
  0
VERTEX
  8
LAYER_1
 62
7
 10
1.333594
 20
-2.684591
  0
SEQEND
  0
POLYLINE
  8
LAYER_1
 62
7
 66
1
  0
VERTEX
  8
LAYER_1
 62
7
 10
1.333594
 20
-2.684591
 42
-0.199589
  0
VERTEX
  8
LAYER_1
 62
7
 10
1.344790
 20
-2.689228
 42
-0.199589
  0
VERTEX
  8
LAYER_1
 62
7
 10
1.349427
 20
-2.700424
  0
SEQEND
  0
POLYLINE
  8
LAYER_1
 62
7
 66
1
  0
VERTEX
  8
LAYER_1
 62
7
 10
1.149427
 20
-2.500424
 42
-0.199588
  0
VERTEX
  8
LAYER_1
 62
7
 10
1.144790
 20
-2.511620
 42
-0.199589
  0
VERTEX
  8
LAYER_1
 62
7
 10
1.133594
 20
-2.516258
  0
SEQEND
  0
POLYLINE
  8
LAYER_1
 62
7
 66
1
  0
VERTEX
  8
LAYER_1
 62
7
 10
1.133594
 20
-2.516258
 42
-0.199589
  0
VERTEX
  8
LAYER_1
 62
7
 10
1.122398
 20
-2.511620
 42
-0.199589
  0
VERTEX
  8
LAYER_1
 62
7
 10
1.117761
 20
-2.500424
  0
SEQEND
  0
POLYLINE
  8
LAYER_1
 62
7
 66
1
  0
VERTEX
  8
LAYER_1
 62
7
 10
1.117761
 20
-2.500424
 42
-0.199589
  0
VERTEX
  8
LAYER_1
 62
7
 10
1.122398
 20
-2.489228
 42
-0.199588
  0
VERTEX
  8
LAYER_1
 62
7
 10
1.133594
 20
-2.484591
  0
SEQEND
  0
POLYLINE
  8
LAYER_1
 62
7
 66
1
  0
VERTEX
  8
LAYER_1
 62
7
 10
1.133594
 20
-2.484591
 42
-0.199589
  0
VERTEX
  8
LAYER_1
 62
7
 10
1.144790
 20
-2.489228
 42
-0.199589
  0
VERTEX
  8
LAYER_1
 62
7
 10
1.149427
 20
-2.500424
  0
SEQEND
  0
POLYLINE
  8
LAYER_1
 62
7
 66
1
  0
VERTEX
  8
LAYER_1
 62
7
 10
1.149427
 20
-2.401258
 42
-0.199588
  0
VERTEX
  8
LAYER_1
 62
7
 10
1.144790
 20
-2.412453
 42
-0.199589
  0
VERTEX
  8
LAYER_1
 62
7
 10
1.133594
 20
-2.417091
  0
SEQEND
  0
POLYLINE
  8
LAYER_1
 62
7
 66
1
  0
VERTEX
  8
LAYER_1
 62
7
 10
1.133594
 20
-2.417091
 42
-0.199589
  0
VERTEX
  8
LAYER_1
 62
7
 10
1.122398
 20
-2.412453
 42
-0.199588
  0
VERTEX
  8
LAYER_1
 62
7
 10
1.117761
 20
-2.401258
  0
SEQEND
  0
POLYLINE
  8
LAYER_1
 62
7
 66
1
  0
VERTEX
  8
LAYER_1
 62
7
 10
1.117761
 20
-2.401258
 42
-0.199588
  0
VERTEX
  8
LAYER_1
 62
7
 10
1.122398
 20
-2.390062
 42
-0.199589
  0
VERTEX
  8
LAYER_1
 62
7
 10
1.133594
 20
-2.385424
  0
SEQEND
  0
POLYLINE
  8
LAYER_1
 62
7
 66
1
  0
VERTEX
  8
LAYER_1
 62
7
 10
1.133594
 20
-2.385424
 42
-0.199589
  0
VERTEX
  8
LAYER_1
 62
7
 10
1.144790
 20
-2.390062
 42
-0.199588
  0
VERTEX
  8
LAYER_1
 62
7
 10
1.149427
 20
-2.401258
  0
SEQEND
  0
POLYLINE
  8
LAYER_1
 62
7
 66
1
  0
VERTEX
  8
LAYER_1
 62
7
 10
1.149427
 20
-2.001258
 42
-0.199588
  0
VERTEX
  8
LAYER_1
 62
7
 10
1.144790
 20
-2.012453
 42
-0.199589
  0
VERTEX
  8
LAYER_1
 62
7
 10
1.133594
 20
-2.017091
  0
SEQEND
  0
POLYLINE
  8
LAYER_1
 62
7
 66
1
  0
VERTEX
  8
LAYER_1
 62
7
 10
1.133594
 20
-2.017091
 42
-0.199589
  0
VERTEX
  8
LAYER_1
 62
7
 10
1.122398
 20
-2.012453
 42
-0.199588
  0
VERTEX
  8
LAYER_1
 62
7
 10
1.117761
 20
-2.001258
  0
SEQEND
  0
POLYLINE
  8
LAYER_1
 62
7
 66
1
  0
VERTEX
  8
LAYER_1
 62
7
 10
1.117761
 20
-2.001258
 42
-0.199588
  0
VERTEX
  8
LAYER_1
 62
7
 10
1.122398
 20
-1.990062
 42
-0.199589
  0
VERTEX
  8
LAYER_1
 62
7
 10
1.133594
 20
-1.985424
  0
SEQEND
  0
POLYLINE
  8
LAYER_1
 62
7
 66
1
  0
VERTEX
  8
LAYER_1
 62
7
 10
1.133594
 20
-1.985424
 42
-0.199589
  0
VERTEX
  8
LAYER_1
 62
7
 10
1.144790
 20
-1.990062
 42
-0.199588
  0
VERTEX
  8
LAYER_1
 62
7
 10
1.149427
 20
-2.001258
  0
SEQEND
  0
POLYLINE
  8
LAYER_1
 62
7
 66
1
  0
VERTEX
  8
LAYER_1
 62
7
 10
1.149427
 20
-1.901258
 42
-0.199588
  0
VERTEX
  8
LAYER_1
 62
7
 10
1.144790
 20
-1.912453
 42
-0.199589
  0
VERTEX
  8
LAYER_1
 62
7
 10
1.133594
 20
-1.917091
  0
SEQEND
  0
POLYLINE
  8
LAYER_1
 62
7
 66
1
  0
VERTEX
  8
LAYER_1
 62
7
 10
1.133594
 20
-1.917091
 42
-0.199589
  0
VERTEX
  8
LAYER_1
 62
7
 10
1.122398
 20
-1.912453
 42
-0.199588
  0
VERTEX
  8
LAYER_1
 62
7
 10
1.117761
 20
-1.901258
  0
SEQEND
  0
POLYLINE
  8
LAYER_1
 62
7
 66
1
  0
VERTEX
  8
LAYER_1
 62
7
 10
1.117761
 20
-1.901258
 42
-0.199588
  0
VERTEX
  8
LAYER_1
 62
7
 10
1.122398
 20
-1.890062
 42
-0.199589
  0
VERTEX
  8
LAYER_1
 62
7
 10
1.133594
 20
-1.885424
  0
SEQEND
  0
POLYLINE
  8
LAYER_1
 62
7
 66
1
  0
VERTEX
  8
LAYER_1
 62
7
 10
1.133594
 20
-1.885424
 42
-0.199589
  0
VERTEX
  8
LAYER_1
 62
7
 10
1.144790
 20
-1.890062
 42
-0.199588
  0
VERTEX
  8
LAYER_1
 62
7
 10
1.149427
 20
-1.901258
  0
SEQEND
  0
POLYLINE
  8
LAYER_1
 62
7
 66
1
  0
VERTEX
  8
LAYER_1
 62
7
 10
0.850261
 20
-1.901258
 42
-0.199588
  0
VERTEX
  8
LAYER_1
 62
7
 10
0.845623
 20
-1.912453
 42
-0.199589
  0
VERTEX
  8
LAYER_1
 62
7
 10
0.834427
 20
-1.917091
  0
SEQEND
  0
POLYLINE
  8
LAYER_1
 62
7
 66
1
  0
VERTEX
  8
LAYER_1
 62
7
 10
0.834427
 20
-1.917091
 42
-0.199589
  0
VERTEX
  8
LAYER_1
 62
7
 10
0.823231
 20
-1.912453
 42
-0.199588
  0
VERTEX
  8
LAYER_1
 62
7
 10
0.818594
 20
-1.901258
  0
SEQEND
  0
POLYLINE
  8
LAYER_1
 62
7
 66
1
  0
VERTEX
  8
LAYER_1
 62
7
 10
0.818594
 20
-1.901258
 42
-0.199588
  0
VERTEX
  8
LAYER_1
 62
7
 10
0.823231
 20
-1.890062
 42
-0.199589
  0
VERTEX
  8
LAYER_1
 62
7
 10
0.834427
 20
-1.885424
  0
SEQEND
  0
POLYLINE
  8
LAYER_1
 62
7
 66
1
  0
VERTEX
  8
LAYER_1
 62
7
 10
0.834427
 20
-1.885424
 42
-0.199589
  0
VERTEX
  8
LAYER_1
 62
7
 10
0.845623
 20
-1.890062
 42
-0.199588
  0
VERTEX
  8
LAYER_1
 62
7
 10
0.850261
 20
-1.901258
  0
SEQEND
  0
POLYLINE
  8
LAYER_1
 62
7
 66
1
  0
VERTEX
  8
LAYER_1
 62
7
 10
0.850261
 20
-2.001258
 42
-0.199588
  0
VERTEX
  8
LAYER_1
 62
7
 10
0.845623
 20
-2.012453
 42
-0.199589
  0
VERTEX
  8
LAYER_1
 62
7
 10
0.834427
 20
-2.017091
  0
SEQEND
  0
POLYLINE
  8
LAYER_1
 62
7
 66
1
  0
VERTEX
  8
LAYER_1
 62
7
 10
0.834427
 20
-2.017091
 42
-0.199589
  0
VERTEX
  8
LAYER_1
 62
7
 10
0.823231
 20
-2.012453
 42
-0.199588
  0
VERTEX
  8
LAYER_1
 62
7
 10
0.818594
 20
-2.001258
  0
SEQEND
  0
POLYLINE
  8
LAYER_1
 62
7
 66
1
  0
VERTEX
  8
LAYER_1
 62
7
 10
0.818594
 20
-2.001258
 42
-0.199588
  0
VERTEX
  8
LAYER_1
 62
7
 10
0.823231
 20
-1.990062
 42
-0.199589
  0
VERTEX
  8
LAYER_1
 62
7
 10
0.834427
 20
-1.985424
  0
SEQEND
  0
POLYLINE
  8
LAYER_1
 62
7
 66
1
  0
VERTEX
  8
LAYER_1
 62
7
 10
0.834427
 20
-1.985424
 42
-0.199589
  0
VERTEX
  8
LAYER_1
 62
7
 10
0.845623
 20
-1.990062
 42
-0.199588
  0
VERTEX
  8
LAYER_1
 62
7
 10
0.850261
 20
-2.001258
  0
SEQEND
  0
POLYLINE
  8
LAYER_1
 62
7
 66
1
  0
VERTEX
  8
LAYER_1
 62
7
 10
0.850261
 20
-2.401258
 42
-0.199588
  0
VERTEX
  8
LAYER_1
 62
7
 10
0.845623
 20
-2.412453
 42
-0.199589
  0
VERTEX
  8
LAYER_1
 62
7
 10
0.834427
 20
-2.417091
  0
SEQEND
  0
POLYLINE
  8
LAYER_1
 62
7
 66
1
  0
VERTEX
  8
LAYER_1
 62
7
 10
0.834427
 20
-2.417091
 42
-0.199589
  0
VERTEX
  8
LAYER_1
 62
7
 10
0.823231
 20
-2.412453
 42
-0.199588
  0
VERTEX
  8
LAYER_1
 62
7
 10
0.818594
 20
-2.401258
  0
SEQEND
  0
POLYLINE
  8
LAYER_1
 62
7
 66
1
  0
VERTEX
  8
LAYER_1
 62
7
 10
0.818594
 20
-2.401258
 42
-0.199588
  0
VERTEX
  8
LAYER_1
 62
7
 10
0.823231
 20
-2.390062
 42
-0.199589
  0
VERTEX
  8
LAYER_1
 62
7
 10
0.834427
 20
-2.385424
  0
SEQEND
  0
POLYLINE
  8
LAYER_1
 62
7
 66
1
  0
VERTEX
  8
LAYER_1
 62
7
 10
0.834427
 20
-2.385424
 42
-0.199589
  0
VERTEX
  8
LAYER_1
 62
7
 10
0.845623
 20
-2.390062
 42
-0.199588
  0
VERTEX
  8
LAYER_1
 62
7
 10
0.850261
 20
-2.401258
  0
SEQEND
  0
POLYLINE
  8
LAYER_1
 62
7
 66
1
  0
VERTEX
  8
LAYER_1
 62
7
 10
0.850261
 20
-2.500424
 42
-0.199589
  0
VERTEX
  8
LAYER_1
 62
7
 10
0.845623
 20
-2.511620
 42
-0.199589
  0
VERTEX
  8
LAYER_1
 62
7
 10
0.834427
 20
-2.516258
  0
SEQEND
  0
POLYLINE
  8
LAYER_1
 62
7
 66
1
  0
VERTEX
  8
LAYER_1
 62
7
 10
0.834427
 20
-2.516258
 42
-0.199589
  0
VERTEX
  8
LAYER_1
 62
7
 10
0.823231
 20
-2.511620
 42
-0.199588
  0
VERTEX
  8
LAYER_1
 62
7
 10
0.818594
 20
-2.500424
  0
SEQEND
  0
POLYLINE
  8
LAYER_1
 62
7
 66
1
  0
VERTEX
  8
LAYER_1
 62
7
 10
0.818594
 20
-2.500424
 42
-0.199589
  0
VERTEX
  8
LAYER_1
 62
7
 10
0.823231
 20
-2.489228
 42
-0.199589
  0
VERTEX
  8
LAYER_1
 62
7
 10
0.834427
 20
-2.484591
  0
SEQEND
  0
POLYLINE
  8
LAYER_1
 62
7
 66
1
  0
VERTEX
  8
LAYER_1
 62
7
 10
0.834427
 20
-2.484591
 42
-0.199588
  0
VERTEX
  8
LAYER_1
 62
7
 10
0.845623
 20
-2.489228
 42
-0.199589
  0
VERTEX
  8
LAYER_1
 62
7
 10
0.850261
 20
-2.500424
  0
SEQEND
  0
POLYLINE
  8
LAYER_1
 62
7
 66
1
  0
VERTEX
  8
LAYER_1
 62
7
 10
1.649427
 20
-1.751258
 42
-0.199588
  0
VERTEX
  8
LAYER_1
 62
7
 10
1.644790
 20
-1.762453
 42
-0.199589
  0
VERTEX
  8
LAYER_1
 62
7
 10
1.633594
 20
-1.767091
  0
SEQEND
  0
POLYLINE
  8
LAYER_1
 62
7
 66
1
  0
VERTEX
  8
LAYER_1
 62
7
 10
1.633594
 20
-1.767091
 42
-0.199589
  0
VERTEX
  8
LAYER_1
 62
7
 10
1.622398
 20
-1.762453
 42
-0.199588
  0
VERTEX
  8
LAYER_1
 62
7
 10
1.617761
 20
-1.751258
  0
SEQEND
  0
POLYLINE
  8
LAYER_1
 62
7
 66
1
  0
VERTEX
  8
LAYER_1
 62
7
 10
1.617761
 20
-1.751258
 42
-0.199588
  0
VERTEX
  8
LAYER_1
 62
7
 10
1.622398
 20
-1.740062
 42
-0.199589
  0
VERTEX
  8
LAYER_1
 62
7
 10
1.633594
 20
-1.735424
  0
SEQEND
  0
POLYLINE
  8
LAYER_1
 62
7
 66
1
  0
VERTEX
  8
LAYER_1
 62
7
 10
1.633594
 20
-1.735424
 42
-0.199589
  0
VERTEX
  8
LAYER_1
 62
7
 10
1.644790
 20
-1.740062
 42
-0.199588
  0
VERTEX
  8
LAYER_1
 62
7
 10
1.649427
 20
-1.751258
  0
SEQEND
  0
POLYLINE
  8
LAYER_1
 62
7
 66
1
  0
VERTEX
  8
LAYER_1
 62
7
 10
1.649427
 20
-1.651258
 42
-0.199588
  0
VERTEX
  8
LAYER_1
 62
7
 10
1.644790
 20
-1.662453
 42
-0.199589
  0
VERTEX
  8
LAYER_1
 62
7
 10
1.633594
 20
-1.667091
  0
SEQEND
  0
POLYLINE
  8
LAYER_1
 62
7
 66
1
  0
VERTEX
  8
LAYER_1
 62
7
 10
1.633594
 20
-1.667091
 42
-0.199589
  0
VERTEX
  8
LAYER_1
 62
7
 10
1.622398
 20
-1.662453
 42
-0.199588
  0
VERTEX
  8
LAYER_1
 62
7
 10
1.617761
 20
-1.651258
  0
SEQEND
  0
POLYLINE
  8
LAYER_1
 62
7
 66
1
  0
VERTEX
  8
LAYER_1
 62
7
 10
1.617761
 20
-1.651258
 42
-0.199588
  0
VERTEX
  8
LAYER_1
 62
7
 10
1.622398
 20
-1.640062
 42
-0.199589
  0
VERTEX
  8
LAYER_1
 62
7
 10
1.633594
 20
-1.635424
  0
SEQEND
  0
POLYLINE
  8
LAYER_1
 62
7
 66
1
  0
VERTEX
  8
LAYER_1
 62
7
 10
1.633594
 20
-1.635424
 42
-0.199589
  0
VERTEX
  8
LAYER_1
 62
7
 10
1.644790
 20
-1.640062
 42
-0.199588
  0
VERTEX
  8
LAYER_1
 62
7
 10
1.649427
 20
-1.651258
  0
SEQEND
  0
POLYLINE
  8
LAYER_1
 62
7
 66
1
  0
VERTEX
  8
LAYER_1
 62
7
 10
1.649427
 20
-1.252091
 42
-0.199589
  0
VERTEX
  8
LAYER_1
 62
7
 10
1.644790
 20
-1.263287
 42
-0.199589
  0
VERTEX
  8
LAYER_1
 62
7
 10
1.633594
 20
-1.267924
  0
SEQEND
  0
POLYLINE
  8
LAYER_1
 62
7
 66
1
  0
VERTEX
  8
LAYER_1
 62
7
 10
1.633594
 20
-1.267924
 42
-0.199588
  0
VERTEX
  8
LAYER_1
 62
7
 10
1.622398
 20
-1.263287
 42
-0.199589
  0
VERTEX
  8
LAYER_1
 62
7
 10
1.617761
 20
-1.252091
  0
SEQEND
  0
POLYLINE
  8
LAYER_1
 62
7
 66
1
  0
VERTEX
  8
LAYER_1
 62
7
 10
1.617761
 20
-1.252091
 42
-0.199589
  0
VERTEX
  8
LAYER_1
 62
7
 10
1.622398
 20
-1.240895
 42
-0.199589
  0
VERTEX
  8
LAYER_1
 62
7
 10
1.633594
 20
-1.236258
  0
SEQEND
  0
POLYLINE
  8
LAYER_1
 62
7
 66
1
  0
VERTEX
  8
LAYER_1
 62
7
 10
1.633594
 20
-1.236258
 42
-0.199589
  0
VERTEX
  8
LAYER_1
 62
7
 10
1.644790
 20
-1.240895
 42
-0.199588
  0
VERTEX
  8
LAYER_1
 62
7
 10
1.649427
 20
-1.252091
  0
SEQEND
  0
POLYLINE
  8
LAYER_1
 62
7
 66
1
  0
VERTEX
  8
LAYER_1
 62
7
 10
1.649427
 20
-1.152091
 42
-0.199589
  0
VERTEX
  8
LAYER_1
 62
7
 10
1.644790
 20
-1.163287
 42
-0.199589
  0
VERTEX
  8
LAYER_1
 62
7
 10
1.633594
 20
-1.167924
  0
SEQEND
  0
POLYLINE
  8
LAYER_1
 62
7
 66
1
  0
VERTEX
  8
LAYER_1
 62
7
 10
1.633594
 20
-1.167924
 42
-0.199588
  0
VERTEX
  8
LAYER_1
 62
7
 10
1.622398
 20
-1.163287
 42
-0.199589
  0
VERTEX
  8
LAYER_1
 62
7
 10
1.617761
 20
-1.152091
  0
SEQEND
  0
POLYLINE
  8
LAYER_1
 62
7
 66
1
  0
VERTEX
  8
LAYER_1
 62
7
 10
1.617761
 20
-1.152091
 42
-0.199589
  0
VERTEX
  8
LAYER_1
 62
7
 10
1.622398
 20
-1.140895
 42
-0.199589
  0
VERTEX
  8
LAYER_1
 62
7
 10
1.633594
 20
-1.136258
  0
SEQEND
  0
POLYLINE
  8
LAYER_1
 62
7
 66
1
  0
VERTEX
  8
LAYER_1
 62
7
 10
1.633594
 20
-1.136258
 42
-0.199589
  0
VERTEX
  8
LAYER_1
 62
7
 10
1.644790
 20
-1.140895
 42
-0.199588
  0
VERTEX
  8
LAYER_1
 62
7
 10
1.649427
 20
-1.152091
  0
SEQEND
  0
POLYLINE
  8
LAYER_1
 62
7
 66
1
  0
VERTEX
  8
LAYER_1
 62
7
 10
1.349427
 20
-1.152091
 42
-0.199589
  0
VERTEX
  8
LAYER_1
 62
7
 10
1.344790
 20
-1.163287
 42
-0.199589
  0
VERTEX
  8
LAYER_1
 62
7
 10
1.333594
 20
-1.167924
  0
SEQEND
  0
POLYLINE
  8
LAYER_1
 62
7
 66
1
  0
VERTEX
  8
LAYER_1
 62
7
 10
1.333594
 20
-1.167924
 42
-0.199588
  0
VERTEX
  8
LAYER_1
 62
7
 10
1.322398
 20
-1.163287
 42
-0.199589
  0
VERTEX
  8
LAYER_1
 62
7
 10
1.317761
 20
-1.152091
  0
SEQEND
  0
POLYLINE
  8
LAYER_1
 62
7
 66
1
  0
VERTEX
  8
LAYER_1
 62
7
 10
1.317761
 20
-1.152091
 42
-0.199589
  0
VERTEX
  8
LAYER_1
 62
7
 10
1.322398
 20
-1.140895
 42
-0.199589
  0
VERTEX
  8
LAYER_1
 62
7
 10
1.333594
 20
-1.136258
  0
SEQEND
  0
POLYLINE
  8
LAYER_1
 62
7
 66
1
  0
VERTEX
  8
LAYER_1
 62
7
 10
1.333594
 20
-1.136258
 42
-0.199589
  0
VERTEX
  8
LAYER_1
 62
7
 10
1.344790
 20
-1.140895
 42
-0.199588
  0
VERTEX
  8
LAYER_1
 62
7
 10
1.349427
 20
-1.152091
  0
SEQEND
  0
POLYLINE
  8
LAYER_1
 62
7
 66
1
  0
VERTEX
  8
LAYER_1
 62
7
 10
1.349427
 20
-1.252091
 42
-0.199589
  0
VERTEX
  8
LAYER_1
 62
7
 10
1.344790
 20
-1.263287
 42
-0.199589
  0
VERTEX
  8
LAYER_1
 62
7
 10
1.333594
 20
-1.267924
  0
SEQEND
  0
POLYLINE
  8
LAYER_1
 62
7
 66
1
  0
VERTEX
  8
LAYER_1
 62
7
 10
1.333594
 20
-1.267924
 42
-0.199588
  0
VERTEX
  8
LAYER_1
 62
7
 10
1.322398
 20
-1.263287
 42
-0.199589
  0
VERTEX
  8
LAYER_1
 62
7
 10
1.317761
 20
-1.252091
  0
SEQEND
  0
POLYLINE
  8
LAYER_1
 62
7
 66
1
  0
VERTEX
  8
LAYER_1
 62
7
 10
1.317761
 20
-1.252091
 42
-0.199589
  0
VERTEX
  8
LAYER_1
 62
7
 10
1.322398
 20
-1.240895
 42
-0.199589
  0
VERTEX
  8
LAYER_1
 62
7
 10
1.333594
 20
-1.236258
  0
SEQEND
  0
POLYLINE
  8
LAYER_1
 62
7
 66
1
  0
VERTEX
  8
LAYER_1
 62
7
 10
1.333594
 20
-1.236258
 42
-0.199589
  0
VERTEX
  8
LAYER_1
 62
7
 10
1.344790
 20
-1.240895
 42
-0.199588
  0
VERTEX
  8
LAYER_1
 62
7
 10
1.349427
 20
-1.252091
  0
SEQEND
  0
POLYLINE
  8
LAYER_1
 62
7
 66
1
  0
VERTEX
  8
LAYER_1
 62
7
 10
1.349427
 20
-1.651258
 42
-0.199588
  0
VERTEX
  8
LAYER_1
 62
7
 10
1.344790
 20
-1.662453
 42
-0.199589
  0
VERTEX
  8
LAYER_1
 62
7
 10
1.333594
 20
-1.667091
  0
SEQEND
  0
POLYLINE
  8
LAYER_1
 62
7
 66
1
  0
VERTEX
  8
LAYER_1
 62
7
 10
1.333594
 20
-1.667091
 42
-0.199589
  0
VERTEX
  8
LAYER_1
 62
7
 10
1.322398
 20
-1.662453
 42
-0.199588
  0
VERTEX
  8
LAYER_1
 62
7
 10
1.317761
 20
-1.651258
  0
SEQEND
  0
POLYLINE
  8
LAYER_1
 62
7
 66
1
  0
VERTEX
  8
LAYER_1
 62
7
 10
1.317761
 20
-1.651258
 42
-0.199588
  0
VERTEX
  8
LAYER_1
 62
7
 10
1.322398
 20
-1.640062
 42
-0.199589
  0
VERTEX
  8
LAYER_1
 62
7
 10
1.333594
 20
-1.635424
  0
SEQEND
  0
POLYLINE
  8
LAYER_1
 62
7
 66
1
  0
VERTEX
  8
LAYER_1
 62
7
 10
1.333594
 20
-1.635424
 42
-0.199589
  0
VERTEX
  8
LAYER_1
 62
7
 10
1.344790
 20
-1.640062
 42
-0.199588
  0
VERTEX
  8
LAYER_1
 62
7
 10
1.349427
 20
-1.651258
  0
SEQEND
  0
POLYLINE
  8
LAYER_1
 62
7
 66
1
  0
VERTEX
  8
LAYER_1
 62
7
 10
1.349427
 20
-1.751258
 42
-0.199588
  0
VERTEX
  8
LAYER_1
 62
7
 10
1.344790
 20
-1.762453
 42
-0.199589
  0
VERTEX
  8
LAYER_1
 62
7
 10
1.333594
 20
-1.767091
  0
SEQEND
  0
POLYLINE
  8
LAYER_1
 62
7
 66
1
  0
VERTEX
  8
LAYER_1
 62
7
 10
1.333594
 20
-1.767091
 42
-0.199589
  0
VERTEX
  8
LAYER_1
 62
7
 10
1.322398
 20
-1.762453
 42
-0.199588
  0
VERTEX
  8
LAYER_1
 62
7
 10
1.317761
 20
-1.751258
  0
SEQEND
  0
POLYLINE
  8
LAYER_1
 62
7
 66
1
  0
VERTEX
  8
LAYER_1
 62
7
 10
1.317761
 20
-1.751258
 42
-0.199588
  0
VERTEX
  8
LAYER_1
 62
7
 10
1.322398
 20
-1.740062
 42
-0.199589
  0
VERTEX
  8
LAYER_1
 62
7
 10
1.333594
 20
-1.735424
  0
SEQEND
  0
POLYLINE
  8
LAYER_1
 62
7
 66
1
  0
VERTEX
  8
LAYER_1
 62
7
 10
1.333594
 20
-1.735424
 42
-0.199589
  0
VERTEX
  8
LAYER_1
 62
7
 10
1.344790
 20
-1.740062
 42
-0.199588
  0
VERTEX
  8
LAYER_1
 62
7
 10
1.349427
 20
-1.751258
  0
SEQEND
  0
POLYLINE
  8
LAYER_1
 62
7
 66
1
  0
VERTEX
  8
LAYER_1
 62
7
 10
0.650261
 20
-1.102091
 42
-0.199589
  0
VERTEX
  8
LAYER_1
 62
7
 10
0.645623
 20
-1.113287
 42
-0.199588
  0
VERTEX
  8
LAYER_1
 62
7
 10
0.634427
 20
-1.117924
  0
SEQEND
  0
POLYLINE
  8
LAYER_1
 62
7
 66
1
  0
VERTEX
  8
LAYER_1
 62
7
 10
0.634427
 20
-1.117924
 42
-0.199589
  0
VERTEX
  8
LAYER_1
 62
7
 10
0.623231
 20
-1.113287
 42
-0.199589
  0
VERTEX
  8
LAYER_1
 62
7
 10
0.618594
 20
-1.102091
  0
SEQEND
  0
POLYLINE
  8
LAYER_1
 62
7
 66
1
  0
VERTEX
  8
LAYER_1
 62
7
 10
0.618594
 20
-1.102091
 42
-0.199588
  0
VERTEX
  8
LAYER_1
 62
7
 10
0.623231
 20
-1.090895
 42
-0.199589
  0
VERTEX
  8
LAYER_1
 62
7
 10
0.634427
 20
-1.086258
  0
SEQEND
  0
POLYLINE
  8
LAYER_1
 62
7
 66
1
  0
VERTEX
  8
LAYER_1
 62
7
 10
0.634427
 20
-1.086258
 42
-0.199589
  0
VERTEX
  8
LAYER_1
 62
7
 10
0.645623
 20
-1.090895
 42
-0.199589
  0
VERTEX
  8
LAYER_1
 62
7
 10
0.650261
 20
-1.102091
  0
SEQEND
  0
POLYLINE
  8
LAYER_1
 62
7
 66
1
  0
VERTEX
  8
LAYER_1
 62
7
 10
0.750261
 20
-1.102091
 42
-0.199589
  0
VERTEX
  8
LAYER_1
 62
7
 10
0.745623
 20
-1.113287
 42
-0.199588
  0
VERTEX
  8
LAYER_1
 62
7
 10
0.734427
 20
-1.117924
  0
SEQEND
  0
POLYLINE
  8
LAYER_1
 62
7
 66
1
  0
VERTEX
  8
LAYER_1
 62
7
 10
0.734427
 20
-1.117924
 42
-0.199589
  0
VERTEX
  8
LAYER_1
 62
7
 10
0.723231
 20
-1.113287
 42
-0.199589
  0
VERTEX
  8
LAYER_1
 62
7
 10
0.718594
 20
-1.102091
  0
SEQEND
  0
POLYLINE
  8
LAYER_1
 62
7
 66
1
  0
VERTEX
  8
LAYER_1
 62
7
 10
0.718594
 20
-1.102091
 42
-0.199588
  0
VERTEX
  8
LAYER_1
 62
7
 10
0.723231
 20
-1.090895
 42
-0.199589
  0
VERTEX
  8
LAYER_1
 62
7
 10
0.734427
 20
-1.086258
  0
SEQEND
  0
POLYLINE
  8
LAYER_1
 62
7
 66
1
  0
VERTEX
  8
LAYER_1
 62
7
 10
0.734427
 20
-1.086258
 42
-0.199589
  0
VERTEX
  8
LAYER_1
 62
7
 10
0.745623
 20
-1.090895
 42
-0.199589
  0
VERTEX
  8
LAYER_1
 62
7
 10
0.750261
 20
-1.102091
  0
SEQEND
  0
POLYLINE
  8
LAYER_1
 62
7
 66
1
  0
VERTEX
  8
LAYER_1
 62
7
 10
1.149427
 20
-1.102091
 42
-0.199589
  0
VERTEX
  8
LAYER_1
 62
7
 10
1.144790
 20
-1.113287
 42
-0.199589
  0
VERTEX
  8
LAYER_1
 62
7
 10
1.133594
 20
-1.117924
  0
SEQEND
  0
POLYLINE
  8
LAYER_1
 62
7
 66
1
  0
VERTEX
  8
LAYER_1
 62
7
 10
1.133594
 20
-1.117924
 42
-0.199588
  0
VERTEX
  8
LAYER_1
 62
7
 10
1.122398
 20
-1.113287
 42
-0.199589
  0
VERTEX
  8
LAYER_1
 62
7
 10
1.117761
 20
-1.102091
  0
SEQEND
  0
POLYLINE
  8
LAYER_1
 62
7
 66
1
  0
VERTEX
  8
LAYER_1
 62
7
 10
1.117761
 20
-1.102091
 42
-0.199589
  0
VERTEX
  8
LAYER_1
 62
7
 10
1.122398
 20
-1.090895
 42
-0.199589
  0
VERTEX
  8
LAYER_1
 62
7
 10
1.133594
 20
-1.086258
  0
SEQEND
  0
POLYLINE
  8
LAYER_1
 62
7
 66
1
  0
VERTEX
  8
LAYER_1
 62
7
 10
1.133594
 20
-1.086258
 42
-0.199589
  0
VERTEX
  8
LAYER_1
 62
7
 10
1.144790
 20
-1.090895
 42
-0.199588
  0
VERTEX
  8
LAYER_1
 62
7
 10
1.149427
 20
-1.102091
  0
SEQEND
  0
POLYLINE
  8
LAYER_1
 62
7
 66
1
  0
VERTEX
  8
LAYER_1
 62
7
 10
1.249427
 20
-1.102091
 42
-0.199589
  0
VERTEX
  8
LAYER_1
 62
7
 10
1.244790
 20
-1.113287
 42
-0.199589
  0
VERTEX
  8
LAYER_1
 62
7
 10
1.233594
 20
-1.117924
  0
SEQEND
  0
POLYLINE
  8
LAYER_1
 62
7
 66
1
  0
VERTEX
  8
LAYER_1
 62
7
 10
1.233594
 20
-1.117924
 42
-0.199588
  0
VERTEX
  8
LAYER_1
 62
7
 10
1.222398
 20
-1.113287
 42
-0.199589
  0
VERTEX
  8
LAYER_1
 62
7
 10
1.217761
 20
-1.102091
  0
SEQEND
  0
POLYLINE
  8
LAYER_1
 62
7
 66
1
  0
VERTEX
  8
LAYER_1
 62
7
 10
1.217761
 20
-1.102091
 42
-0.199589
  0
VERTEX
  8
LAYER_1
 62
7
 10
1.222398
 20
-1.090895
 42
-0.199589
  0
VERTEX
  8
LAYER_1
 62
7
 10
1.233594
 20
-1.086258
  0
SEQEND
  0
POLYLINE
  8
LAYER_1
 62
7
 66
1
  0
VERTEX
  8
LAYER_1
 62
7
 10
1.233594
 20
-1.086258
 42
-0.199589
  0
VERTEX
  8
LAYER_1
 62
7
 10
1.244790
 20
-1.090895
 42
-0.199588
  0
VERTEX
  8
LAYER_1
 62
7
 10
1.249427
 20
-1.102091
  0
SEQEND
  0
POLYLINE
  8
LAYER_1
 62
7
 66
1
  0
VERTEX
  8
LAYER_1
 62
7
 10
1.249427
 20
-0.802091
 42
-0.199589
  0
VERTEX
  8
LAYER_1
 62
7
 10
1.244790
 20
-0.813287
 42
-0.199589
  0
VERTEX
  8
LAYER_1
 62
7
 10
1.233594
 20
-0.817924
  0
SEQEND
  0
POLYLINE
  8
LAYER_1
 62
7
 66
1
  0
VERTEX
  8
LAYER_1
 62
7
 10
1.233594
 20
-0.817924
 42
-0.199588
  0
VERTEX
  8
LAYER_1
 62
7
 10
1.222398
 20
-0.813287
 42
-0.199589
  0
VERTEX
  8
LAYER_1
 62
7
 10
1.217761
 20
-0.802091
  0
SEQEND
  0
POLYLINE
  8
LAYER_1
 62
7
 66
1
  0
VERTEX
  8
LAYER_1
 62
7
 10
1.217761
 20
-0.802091
 42
-0.199589
  0
VERTEX
  8
LAYER_1
 62
7
 10
1.222398
 20
-0.790895
 42
-0.199589
  0
VERTEX
  8
LAYER_1
 62
7
 10
1.233594
 20
-0.786258
  0
SEQEND
  0
POLYLINE
  8
LAYER_1
 62
7
 66
1
  0
VERTEX
  8
LAYER_1
 62
7
 10
1.233594
 20
-0.786258
 42
-0.199589
  0
VERTEX
  8
LAYER_1
 62
7
 10
1.244790
 20
-0.790895
 42
-0.199588
  0
VERTEX
  8
LAYER_1
 62
7
 10
1.249427
 20
-0.802091
  0
SEQEND
  0
POLYLINE
  8
LAYER_1
 62
7
 66
1
  0
VERTEX
  8
LAYER_1
 62
7
 10
1.149427
 20
-0.802091
 42
-0.199589
  0
VERTEX
  8
LAYER_1
 62
7
 10
1.144790
 20
-0.813287
 42
-0.199589
  0
VERTEX
  8
LAYER_1
 62
7
 10
1.133594
 20
-0.817924
  0
SEQEND
  0
POLYLINE
  8
LAYER_1
 62
7
 66
1
  0
VERTEX
  8
LAYER_1
 62
7
 10
1.133594
 20
-0.817924
 42
-0.199588
  0
VERTEX
  8
LAYER_1
 62
7
 10
1.122398
 20
-0.813287
 42
-0.199589
  0
VERTEX
  8
LAYER_1
 62
7
 10
1.117761
 20
-0.802091
  0
SEQEND
  0
POLYLINE
  8
LAYER_1
 62
7
 66
1
  0
VERTEX
  8
LAYER_1
 62
7
 10
1.117761
 20
-0.802091
 42
-0.199589
  0
VERTEX
  8
LAYER_1
 62
7
 10
1.122398
 20
-0.790895
 42
-0.199589
  0
VERTEX
  8
LAYER_1
 62
7
 10
1.133594
 20
-0.786258
  0
SEQEND
  0
POLYLINE
  8
LAYER_1
 62
7
 66
1
  0
VERTEX
  8
LAYER_1
 62
7
 10
1.133594
 20
-0.786258
 42
-0.199589
  0
VERTEX
  8
LAYER_1
 62
7
 10
1.144790
 20
-0.790895
 42
-0.199588
  0
VERTEX
  8
LAYER_1
 62
7
 10
1.149427
 20
-0.802091
  0
SEQEND
  0
POLYLINE
  8
LAYER_1
 62
7
 66
1
  0
VERTEX
  8
LAYER_1
 62
7
 10
0.750261
 20
-0.802091
 42
-0.199589
  0
VERTEX
  8
LAYER_1
 62
7
 10
0.745623
 20
-0.813287
 42
-0.199588
  0
VERTEX
  8
LAYER_1
 62
7
 10
0.734427
 20
-0.817924
  0
SEQEND
  0
POLYLINE
  8
LAYER_1
 62
7
 66
1
  0
VERTEX
  8
LAYER_1
 62
7
 10
0.734427
 20
-0.817924
 42
-0.199589
  0
VERTEX
  8
LAYER_1
 62
7
 10
0.723231
 20
-0.813287
 42
-0.199589
  0
VERTEX
  8
LAYER_1
 62
7
 10
0.718594
 20
-0.802091
  0
SEQEND
  0
POLYLINE
  8
LAYER_1
 62
7
 66
1
  0
VERTEX
  8
LAYER_1
 62
7
 10
0.718594
 20
-0.802091
 42
-0.199588
  0
VERTEX
  8
LAYER_1
 62
7
 10
0.723231
 20
-0.790895
 42
-0.199589
  0
VERTEX
  8
LAYER_1
 62
7
 10
0.734427
 20
-0.786258
  0
SEQEND
  0
POLYLINE
  8
LAYER_1
 62
7
 66
1
  0
VERTEX
  8
LAYER_1
 62
7
 10
0.734427
 20
-0.786258
 42
-0.199589
  0
VERTEX
  8
LAYER_1
 62
7
 10
0.745623
 20
-0.790895
 42
-0.199589
  0
VERTEX
  8
LAYER_1
 62
7
 10
0.750261
 20
-0.802091
  0
SEQEND
  0
POLYLINE
  8
LAYER_1
 62
7
 66
1
  0
VERTEX
  8
LAYER_1
 62
7
 10
0.650261
 20
-0.802091
 42
-0.199589
  0
VERTEX
  8
LAYER_1
 62
7
 10
0.645623
 20
-0.813287
 42
-0.199588
  0
VERTEX
  8
LAYER_1
 62
7
 10
0.634427
 20
-0.817924
  0
SEQEND
  0
POLYLINE
  8
LAYER_1
 62
7
 66
1
  0
VERTEX
  8
LAYER_1
 62
7
 10
0.634427
 20
-0.817924
 42
-0.199589
  0
VERTEX
  8
LAYER_1
 62
7
 10
0.623231
 20
-0.813287
 42
-0.199589
  0
VERTEX
  8
LAYER_1
 62
7
 10
0.618594
 20
-0.802091
  0
SEQEND
  0
POLYLINE
  8
LAYER_1
 62
7
 66
1
  0
VERTEX
  8
LAYER_1
 62
7
 10
0.618594
 20
-0.802091
 42
-0.199588
  0
VERTEX
  8
LAYER_1
 62
7
 10
0.623231
 20
-0.790895
 42
-0.199589
  0
VERTEX
  8
LAYER_1
 62
7
 10
0.634427
 20
-0.786258
  0
SEQEND
  0
POLYLINE
  8
LAYER_1
 62
7
 66
1
  0
VERTEX
  8
LAYER_1
 62
7
 10
0.634427
 20
-0.786258
 42
-0.199589
  0
VERTEX
  8
LAYER_1
 62
7
 10
0.645623
 20
-0.790895
 42
-0.199589
  0
VERTEX
  8
LAYER_1
 62
7
 10
0.650261
 20
-0.802091
  0
SEQEND
  0
POLYLINE
  8
LAYER_1
 62
7
 66
1
  0
VERTEX
  8
LAYER_1
 62
7
 10
2.819427
 20
-2.660424
 42
-0.199588
  0
VERTEX
  8
LAYER_1
 62
7
 10
2.814790
 20
-2.671620
 42
-0.199589
  0
VERTEX
  8
LAYER_1
 62
7
 10
2.803594
 20
-2.676258
  0
SEQEND
  0
POLYLINE
  8
LAYER_1
 62
7
 66
1
  0
VERTEX
  8
LAYER_1
 62
7
 10
2.803594
 20
-2.676258
 42
-0.199589
  0
VERTEX
  8
LAYER_1
 62
7
 10
2.792398
 20
-2.671620
 42
-0.199589
  0
VERTEX
  8
LAYER_1
 62
7
 10
2.787761
 20
-2.660424
  0
SEQEND
  0
POLYLINE
  8
LAYER_1
 62
7
 66
1
  0
VERTEX
  8
LAYER_1
 62
7
 10
2.787761
 20
-2.660424
 42
-0.199589
  0
VERTEX
  8
LAYER_1
 62
7
 10
2.792398
 20
-2.649228
 42
-0.199588
  0
VERTEX
  8
LAYER_1
 62
7
 10
2.803594
 20
-2.644591
  0
SEQEND
  0
POLYLINE
  8
LAYER_1
 62
7
 66
1
  0
VERTEX
  8
LAYER_1
 62
7
 10
2.803594
 20
-2.644591
 42
-0.199589
  0
VERTEX
  8
LAYER_1
 62
7
 10
2.814790
 20
-2.649228
 42
-0.199589
  0
VERTEX
  8
LAYER_1
 62
7
 10
2.819427
 20
-2.660424
  0
SEQEND
  0
POLYLINE
  8
LAYER_1
 62
7
 66
1
  0
VERTEX
  8
LAYER_1
 62
7
 10
2.819427
 20
-2.161258
 42
-0.199588
  0
VERTEX
  8
LAYER_1
 62
7
 10
2.814790
 20
-2.172453
 42
-0.199589
  0
VERTEX
  8
LAYER_1
 62
7
 10
2.803594
 20
-2.177091
  0
SEQEND
  0
POLYLINE
  8
LAYER_1
 62
7
 66
1
  0
VERTEX
  8
LAYER_1
 62
7
 10
2.803594
 20
-2.177091
 42
-0.199589
  0
VERTEX
  8
LAYER_1
 62
7
 10
2.792398
 20
-2.172453
 42
-0.199588
  0
VERTEX
  8
LAYER_1
 62
7
 10
2.787761
 20
-2.161258
  0
SEQEND
  0
POLYLINE
  8
LAYER_1
 62
7
 66
1
  0
VERTEX
  8
LAYER_1
 62
7
 10
2.787761
 20
-2.161258
 42
-0.199588
  0
VERTEX
  8
LAYER_1
 62
7
 10
2.792398
 20
-2.150062
 42
-0.199589
  0
VERTEX
  8
LAYER_1
 62
7
 10
2.803594
 20
-2.145424
  0
SEQEND
  0
POLYLINE
  8
LAYER_1
 62
7
 66
1
  0
VERTEX
  8
LAYER_1
 62
7
 10
2.803594
 20
-2.145424
 42
-0.199589
  0
VERTEX
  8
LAYER_1
 62
7
 10
2.814790
 20
-2.150062
 42
-0.199588
  0
VERTEX
  8
LAYER_1
 62
7
 10
2.819427
 20
-2.161258
  0
SEQEND
  0
POLYLINE
  8
LAYER_1
 62
7
 66
1
  0
VERTEX
  8
LAYER_1
 62
7
 10
2.219427
 20
-2.161258
 42
-0.199588
  0
VERTEX
  8
LAYER_1
 62
7
 10
2.214790
 20
-2.172453
 42
-0.199589
  0
VERTEX
  8
LAYER_1
 62
7
 10
2.203594
 20
-2.177091
  0
SEQEND
  0
POLYLINE
  8
LAYER_1
 62
7
 66
1
  0
VERTEX
  8
LAYER_1
 62
7
 10
2.203594
 20
-2.177091
 42
-0.199589
  0
VERTEX
  8
LAYER_1
 62
7
 10
2.192398
 20
-2.172453
 42
-0.199588
  0
VERTEX
  8
LAYER_1
 62
7
 10
2.187761
 20
-2.161258
  0
SEQEND
  0
POLYLINE
  8
LAYER_1
 62
7
 66
1
  0
VERTEX
  8
LAYER_1
 62
7
 10
2.187761
 20
-2.161258
 42
-0.199588
  0
VERTEX
  8
LAYER_1
 62
7
 10
2.192398
 20
-2.150062
 42
-0.199589
  0
VERTEX
  8
LAYER_1
 62
7
 10
2.203594
 20
-2.145424
  0
SEQEND
  0
POLYLINE
  8
LAYER_1
 62
7
 66
1
  0
VERTEX
  8
LAYER_1
 62
7
 10
2.203594
 20
-2.145424
 42
-0.199589
  0
VERTEX
  8
LAYER_1
 62
7
 10
2.214790
 20
-2.150062
 42
-0.199588
  0
VERTEX
  8
LAYER_1
 62
7
 10
2.219427
 20
-2.161258
  0
SEQEND
  0
POLYLINE
  8
LAYER_1
 62
7
 66
1
  0
VERTEX
  8
LAYER_1
 62
7
 10
2.719427
 20
-2.161258
 42
-0.199588
  0
VERTEX
  8
LAYER_1
 62
7
 10
2.714790
 20
-2.172453
 42
-0.199589
  0
VERTEX
  8
LAYER_1
 62
7
 10
2.703594
 20
-2.177091
  0
SEQEND
  0
POLYLINE
  8
LAYER_1
 62
7
 66
1
  0
VERTEX
  8
LAYER_1
 62
7
 10
2.703594
 20
-2.177091
 42
-0.199589
  0
VERTEX
  8
LAYER_1
 62
7
 10
2.692398
 20
-2.172453
 42
-0.199588
  0
VERTEX
  8
LAYER_1
 62
7
 10
2.687761
 20
-2.161258
  0
SEQEND
  0
POLYLINE
  8
LAYER_1
 62
7
 66
1
  0
VERTEX
  8
LAYER_1
 62
7
 10
2.687761
 20
-2.161258
 42
-0.199588
  0
VERTEX
  8
LAYER_1
 62
7
 10
2.692398
 20
-2.150062
 42
-0.199589
  0
VERTEX
  8
LAYER_1
 62
7
 10
2.703594
 20
-2.145424
  0
SEQEND
  0
POLYLINE
  8
LAYER_1
 62
7
 66
1
  0
VERTEX
  8
LAYER_1
 62
7
 10
2.703594
 20
-2.145424
 42
-0.199589
  0
VERTEX
  8
LAYER_1
 62
7
 10
2.714790
 20
-2.150062
 42
-0.199588
  0
VERTEX
  8
LAYER_1
 62
7
 10
2.719427
 20
-2.161258
  0
SEQEND
  0
POLYLINE
  8
LAYER_1
 62
7
 66
1
  0
VERTEX
  8
LAYER_1
 62
7
 10
2.219427
 20
-1.621258
 42
-0.199588
  0
VERTEX
  8
LAYER_1
 62
7
 10
2.214790
 20
-1.632453
 42
-0.199589
  0
VERTEX
  8
LAYER_1
 62
7
 10
2.203594
 20
-1.637091
  0
SEQEND
  0
POLYLINE
  8
LAYER_1
 62
7
 66
1
  0
VERTEX
  8
LAYER_1
 62
7
 10
2.203594
 20
-1.637091
 42
-0.199589
  0
VERTEX
  8
LAYER_1
 62
7
 10
2.192398
 20
-1.632453
 42
-0.199588
  0
VERTEX
  8
LAYER_1
 62
7
 10
2.187761
 20
-1.621258
  0
SEQEND
  0
POLYLINE
  8
LAYER_1
 62
7
 66
1
  0
VERTEX
  8
LAYER_1
 62
7
 10
2.187761
 20
-1.621258
 42
-0.199588
  0
VERTEX
  8
LAYER_1
 62
7
 10
2.192398
 20
-1.610062
 42
-0.199589
  0
VERTEX
  8
LAYER_1
 62
7
 10
2.203594
 20
-1.605424
  0
SEQEND
  0
POLYLINE
  8
LAYER_1
 62
7
 66
1
  0
VERTEX
  8
LAYER_1
 62
7
 10
2.203594
 20
-1.605424
 42
-0.199589
  0
VERTEX
  8
LAYER_1
 62
7
 10
2.214790
 20
-1.610062
 42
-0.199588
  0
VERTEX
  8
LAYER_1
 62
7
 10
2.219427
 20
-1.621258
  0
SEQEND
  0
POLYLINE
  8
LAYER_1
 62
7
 66
1
  0
VERTEX
  8
LAYER_1
 62
7
 10
2.719427
 20
-1.621258
 42
-0.199588
  0
VERTEX
  8
LAYER_1
 62
7
 10
2.714790
 20
-1.632453
 42
-0.199589
  0
VERTEX
  8
LAYER_1
 62
7
 10
2.703594
 20
-1.637091
  0
SEQEND
  0
POLYLINE
  8
LAYER_1
 62
7
 66
1
  0
VERTEX
  8
LAYER_1
 62
7
 10
2.703594
 20
-1.637091
 42
-0.199589
  0
VERTEX
  8
LAYER_1
 62
7
 10
2.692398
 20
-1.632453
 42
-0.199588
  0
VERTEX
  8
LAYER_1
 62
7
 10
2.687761
 20
-1.621258
  0
SEQEND
  0
POLYLINE
  8
LAYER_1
 62
7
 66
1
  0
VERTEX
  8
LAYER_1
 62
7
 10
2.687761
 20
-1.621258
 42
-0.199588
  0
VERTEX
  8
LAYER_1
 62
7
 10
2.692398
 20
-1.610062
 42
-0.199589
  0
VERTEX
  8
LAYER_1
 62
7
 10
2.703594
 20
-1.605424
  0
SEQEND
  0
POLYLINE
  8
LAYER_1
 62
7
 66
1
  0
VERTEX
  8
LAYER_1
 62
7
 10
2.703594
 20
-1.605424
 42
-0.199589
  0
VERTEX
  8
LAYER_1
 62
7
 10
2.714790
 20
-1.610062
 42
-0.199588
  0
VERTEX
  8
LAYER_1
 62
7
 10
2.719427
 20
-1.621258
  0
SEQEND
  0
POLYLINE
  8
LAYER_1
 62
7
 66
1
  0
VERTEX
  8
LAYER_1
 62
7
 10
2.289427
 20
-0.972091
 42
-0.199589
  0
VERTEX
  8
LAYER_1
 62
7
 10
2.284790
 20
-0.983287
 42
-0.199589
  0
VERTEX
  8
LAYER_1
 62
7
 10
2.273594
 20
-0.987924
  0
SEQEND
  0
POLYLINE
  8
LAYER_1
 62
7
 66
1
  0
VERTEX
  8
LAYER_1
 62
7
 10
2.273594
 20
-0.987924
 42
-0.199588
  0
VERTEX
  8
LAYER_1
 62
7
 10
2.262398
 20
-0.983287
 42
-0.199589
  0
VERTEX
  8
LAYER_1
 62
7
 10
2.257761
 20
-0.972091
  0
SEQEND
  0
POLYLINE
  8
LAYER_1
 62
7
 66
1
  0
VERTEX
  8
LAYER_1
 62
7
 10
2.257761
 20
-0.972091
 42
-0.199589
  0
VERTEX
  8
LAYER_1
 62
7
 10
2.262398
 20
-0.960895
 42
-0.199589
  0
VERTEX
  8
LAYER_1
 62
7
 10
2.273594
 20
-0.956258
  0
SEQEND
  0
POLYLINE
  8
LAYER_1
 62
7
 66
1
  0
VERTEX
  8
LAYER_1
 62
7
 10
2.273594
 20
-0.956258
 42
-0.199589
  0
VERTEX
  8
LAYER_1
 62
7
 10
2.284790
 20
-0.960895
 42
-0.199588
  0
VERTEX
  8
LAYER_1
 62
7
 10
2.289427
 20
-0.972091
  0
SEQEND
  0
POLYLINE
  8
LAYER_1
 62
7
 66
1
  0
VERTEX
  8
LAYER_1
 62
7
 10
2.789427
 20
-0.972091
 42
-0.199589
  0
VERTEX
  8
LAYER_1
 62
7
 10
2.784790
 20
-0.983287
 42
-0.199589
  0
VERTEX
  8
LAYER_1
 62
7
 10
2.773594
 20
-0.987924
  0
SEQEND
  0
POLYLINE
  8
LAYER_1
 62
7
 66
1
  0
VERTEX
  8
LAYER_1
 62
7
 10
2.773594
 20
-0.987924
 42
-0.199588
  0
VERTEX
  8
LAYER_1
 62
7
 10
2.762398
 20
-0.983287
 42
-0.199589
  0
VERTEX
  8
LAYER_1
 62
7
 10
2.757761
 20
-0.972091
  0
SEQEND
  0
POLYLINE
  8
LAYER_1
 62
7
 66
1
  0
VERTEX
  8
LAYER_1
 62
7
 10
2.757761
 20
-0.972091
 42
-0.199589
  0
VERTEX
  8
LAYER_1
 62
7
 10
2.762398
 20
-0.960895
 42
-0.199589
  0
VERTEX
  8
LAYER_1
 62
7
 10
2.773594
 20
-0.956258
  0
SEQEND
  0
POLYLINE
  8
LAYER_1
 62
7
 66
1
  0
VERTEX
  8
LAYER_1
 62
7
 10
2.773594
 20
-0.956258
 42
-0.199589
  0
VERTEX
  8
LAYER_1
 62
7
 10
2.784790
 20
-0.960895
 42
-0.199588
  0
VERTEX
  8
LAYER_1
 62
7
 10
2.789427
 20
-0.972091
  0
SEQEND
  0
POLYLINE
  8
LAYER_1
 62
7
 66
1
  0
VERTEX
  8
LAYER_1
 62
7
 10
2.149427
 20
-2.900424
 42
-0.199588
  0
VERTEX
  8
LAYER_1
 62
7
 10
2.144790
 20
-2.911620
 42
-0.199589
  0
VERTEX
  8
LAYER_1
 62
7
 10
2.133594
 20
-2.916258
  0
SEQEND
  0
POLYLINE
  8
LAYER_1
 62
7
 66
1
  0
VERTEX
  8
LAYER_1
 62
7
 10
2.133594
 20
-2.916258
 42
-0.199589
  0
VERTEX
  8
LAYER_1
 62
7
 10
2.122398
 20
-2.911620
 42
-0.199589
  0
VERTEX
  8
LAYER_1
 62
7
 10
2.117761
 20
-2.900424
  0
SEQEND
  0
POLYLINE
  8
LAYER_1
 62
7
 66
1
  0
VERTEX
  8
LAYER_1
 62
7
 10
2.117761
 20
-2.900424
 42
-0.199589
  0
VERTEX
  8
LAYER_1
 62
7
 10
2.122398
 20
-2.889228
 42
-0.199588
  0
VERTEX
  8
LAYER_1
 62
7
 10
2.133594
 20
-2.884591
  0
SEQEND
  0
POLYLINE
  8
LAYER_1
 62
7
 66
1
  0
VERTEX
  8
LAYER_1
 62
7
 10
2.133594
 20
-2.884591
 42
-0.199589
  0
VERTEX
  8
LAYER_1
 62
7
 10
2.144790
 20
-2.889228
 42
-0.199589
  0
VERTEX
  8
LAYER_1
 62
7
 10
2.149427
 20
-2.900424
  0
SEQEND
  0
POLYLINE
  8
LAYER_1
 62
7
 66
1
  0
VERTEX
  8
LAYER_1
 62
7
 10
2.224427
 20
-2.850424
 42
-0.199588
  0
VERTEX
  8
LAYER_1
 62
7
 10
2.219790
 20
-2.861620
 42
-0.199589
  0
VERTEX
  8
LAYER_1
 62
7
 10
2.208594
 20
-2.866258
  0
SEQEND
  0
POLYLINE
  8
LAYER_1
 62
7
 66
1
  0
VERTEX
  8
LAYER_1
 62
7
 10
2.208594
 20
-2.866258
 42
-0.199589
  0
VERTEX
  8
LAYER_1
 62
7
 10
2.197398
 20
-2.861620
 42
-0.199589
  0
VERTEX
  8
LAYER_1
 62
7
 10
2.192761
 20
-2.850424
  0
SEQEND
  0
POLYLINE
  8
LAYER_1
 62
7
 66
1
  0
VERTEX
  8
LAYER_1
 62
7
 10
2.192761
 20
-2.850424
 42
-0.199589
  0
VERTEX
  8
LAYER_1
 62
7
 10
2.197398
 20
-2.839228
 42
-0.199588
  0
VERTEX
  8
LAYER_1
 62
7
 10
2.208594
 20
-2.834591
  0
SEQEND
  0
POLYLINE
  8
LAYER_1
 62
7
 66
1
  0
VERTEX
  8
LAYER_1
 62
7
 10
2.208594
 20
-2.834591
 42
-0.199589
  0
VERTEX
  8
LAYER_1
 62
7
 10
2.219790
 20
-2.839228
 42
-0.199589
  0
VERTEX
  8
LAYER_1
 62
7
 10
2.224427
 20
-2.850424
  0
SEQEND
  0
POLYLINE
  8
LAYER_1
 62
7
 66
1
  0
VERTEX
  8
LAYER_1
 62
7
 10
2.149427
 20
-2.800424
 42
-0.199588
  0
VERTEX
  8
LAYER_1
 62
7
 10
2.144790
 20
-2.811620
 42
-0.199589
  0
VERTEX
  8
LAYER_1
 62
7
 10
2.133594
 20
-2.816258
  0
SEQEND
  0
POLYLINE
  8
LAYER_1
 62
7
 66
1
  0
VERTEX
  8
LAYER_1
 62
7
 10
2.133594
 20
-2.816258
 42
-0.199589
  0
VERTEX
  8
LAYER_1
 62
7
 10
2.122398
 20
-2.811620
 42
-0.199589
  0
VERTEX
  8
LAYER_1
 62
7
 10
2.117761
 20
-2.800424
  0
SEQEND
  0
POLYLINE
  8
LAYER_1
 62
7
 66
1
  0
VERTEX
  8
LAYER_1
 62
7
 10
2.117761
 20
-2.800424
 42
-0.199589
  0
VERTEX
  8
LAYER_1
 62
7
 10
2.122398
 20
-2.789228
 42
-0.199588
  0
VERTEX
  8
LAYER_1
 62
7
 10
2.133594
 20
-2.784591
  0
SEQEND
  0
POLYLINE
  8
LAYER_1
 62
7
 66
1
  0
VERTEX
  8
LAYER_1
 62
7
 10
2.133594
 20
-2.784591
 42
-0.199589
  0
VERTEX
  8
LAYER_1
 62
7
 10
2.144790
 20
-2.789228
 42
-0.199589
  0
VERTEX
  8
LAYER_1
 62
7
 10
2.149427
 20
-2.800424
  0
SEQEND
  0
POLYLINE
  8
LAYER_1
 62
7
 66
1
  0
VERTEX
  8
LAYER_1
 62
7
 10
2.149427
 20
-2.351258
 42
-0.199588
  0
VERTEX
  8
LAYER_1
 62
7
 10
2.144790
 20
-2.362453
 42
-0.199589
  0
VERTEX
  8
LAYER_1
 62
7
 10
2.133594
 20
-2.367091
  0
SEQEND
  0
POLYLINE
  8
LAYER_1
 62
7
 66
1
  0
VERTEX
  8
LAYER_1
 62
7
 10
2.133594
 20
-2.367091
 42
-0.199589
  0
VERTEX
  8
LAYER_1
 62
7
 10
2.122398
 20
-2.362453
 42
-0.199588
  0
VERTEX
  8
LAYER_1
 62
7
 10
2.117761
 20
-2.351258
  0
SEQEND
  0
POLYLINE
  8
LAYER_1
 62
7
 66
1
  0
VERTEX
  8
LAYER_1
 62
7
 10
2.117761
 20
-2.351258
 42
-0.199588
  0
VERTEX
  8
LAYER_1
 62
7
 10
2.122398
 20
-2.340062
 42
-0.199589
  0
VERTEX
  8
LAYER_1
 62
7
 10
2.133594
 20
-2.335424
  0
SEQEND
  0
POLYLINE
  8
LAYER_1
 62
7
 66
1
  0
VERTEX
  8
LAYER_1
 62
7
 10
2.133594
 20
-2.335424
 42
-0.199589
  0
VERTEX
  8
LAYER_1
 62
7
 10
2.144790
 20
-2.340062
 42
-0.199588
  0
VERTEX
  8
LAYER_1
 62
7
 10
2.149427
 20
-2.351258
  0
SEQEND
  0
POLYLINE
  8
LAYER_1
 62
7
 66
1
  0
VERTEX
  8
LAYER_1
 62
7
 10
2.224427
 20
-2.301258
 42
-0.199588
  0
VERTEX
  8
LAYER_1
 62
7
 10
2.219790
 20
-2.312453
 42
-0.199589
  0
VERTEX
  8
LAYER_1
 62
7
 10
2.208594
 20
-2.317091
  0
SEQEND
  0
POLYLINE
  8
LAYER_1
 62
7
 66
1
  0
VERTEX
  8
LAYER_1
 62
7
 10
2.208594
 20
-2.317091
 42
-0.199589
  0
VERTEX
  8
LAYER_1
 62
7
 10
2.197398
 20
-2.312453
 42
-0.199588
  0
VERTEX
  8
LAYER_1
 62
7
 10
2.192761
 20
-2.301258
  0
SEQEND
  0
POLYLINE
  8
LAYER_1
 62
7
 66
1
  0
VERTEX
  8
LAYER_1
 62
7
 10
2.192761
 20
-2.301258
 42
-0.199588
  0
VERTEX
  8
LAYER_1
 62
7
 10
2.197398
 20
-2.290062
 42
-0.199589
  0
VERTEX
  8
LAYER_1
 62
7
 10
2.208594
 20
-2.285424
  0
SEQEND
  0
POLYLINE
  8
LAYER_1
 62
7
 66
1
  0
VERTEX
  8
LAYER_1
 62
7
 10
2.208594
 20
-2.285424
 42
-0.199589
  0
VERTEX
  8
LAYER_1
 62
7
 10
2.219790
 20
-2.290062
 42
-0.199588
  0
VERTEX
  8
LAYER_1
 62
7
 10
2.224427
 20
-2.301258
  0
SEQEND
  0
POLYLINE
  8
LAYER_1
 62
7
 66
1
  0
VERTEX
  8
LAYER_1
 62
7
 10
2.149427
 20
-2.251258
 42
-0.199588
  0
VERTEX
  8
LAYER_1
 62
7
 10
2.144790
 20
-2.262453
 42
-0.199589
  0
VERTEX
  8
LAYER_1
 62
7
 10
2.133594
 20
-2.267091
  0
SEQEND
  0
POLYLINE
  8
LAYER_1
 62
7
 66
1
  0
VERTEX
  8
LAYER_1
 62
7
 10
2.133594
 20
-2.267091
 42
-0.199589
  0
VERTEX
  8
LAYER_1
 62
7
 10
2.122398
 20
-2.262453
 42
-0.199588
  0
VERTEX
  8
LAYER_1
 62
7
 10
2.117761
 20
-2.251258
  0
SEQEND
  0
POLYLINE
  8
LAYER_1
 62
7
 66
1
  0
VERTEX
  8
LAYER_1
 62
7
 10
2.117761
 20
-2.251258
 42
-0.199588
  0
VERTEX
  8
LAYER_1
 62
7
 10
2.122398
 20
-2.240062
 42
-0.199589
  0
VERTEX
  8
LAYER_1
 62
7
 10
2.133594
 20
-2.235424
  0
SEQEND
  0
POLYLINE
  8
LAYER_1
 62
7
 66
1
  0
VERTEX
  8
LAYER_1
 62
7
 10
2.133594
 20
-2.235424
 42
-0.199589
  0
VERTEX
  8
LAYER_1
 62
7
 10
2.144790
 20
-2.240062
 42
-0.199588
  0
VERTEX
  8
LAYER_1
 62
7
 10
2.149427
 20
-2.251258
  0
SEQEND
  0
POLYLINE
  8
LAYER_1
 62
7
 66
1
  0
VERTEX
  8
LAYER_1
 62
7
 10
2.149427
 20
-1.801258
 42
-0.199588
  0
VERTEX
  8
LAYER_1
 62
7
 10
2.144790
 20
-1.812453
 42
-0.199589
  0
VERTEX
  8
LAYER_1
 62
7
 10
2.133594
 20
-1.817091
  0
SEQEND
  0
POLYLINE
  8
LAYER_1
 62
7
 66
1
  0
VERTEX
  8
LAYER_1
 62
7
 10
2.133594
 20
-1.817091
 42
-0.199589
  0
VERTEX
  8
LAYER_1
 62
7
 10
2.122398
 20
-1.812453
 42
-0.199588
  0
VERTEX
  8
LAYER_1
 62
7
 10
2.117761
 20
-1.801258
  0
SEQEND
  0
POLYLINE
  8
LAYER_1
 62
7
 66
1
  0
VERTEX
  8
LAYER_1
 62
7
 10
2.117761
 20
-1.801258
 42
-0.199588
  0
VERTEX
  8
LAYER_1
 62
7
 10
2.122398
 20
-1.790062
 42
-0.199589
  0
VERTEX
  8
LAYER_1
 62
7
 10
2.133594
 20
-1.785424
  0
SEQEND
  0
POLYLINE
  8
LAYER_1
 62
7
 66
1
  0
VERTEX
  8
LAYER_1
 62
7
 10
2.133594
 20
-1.785424
 42
-0.199589
  0
VERTEX
  8
LAYER_1
 62
7
 10
2.144790
 20
-1.790062
 42
-0.199588
  0
VERTEX
  8
LAYER_1
 62
7
 10
2.149427
 20
-1.801258
  0
SEQEND
  0
POLYLINE
  8
LAYER_1
 62
7
 66
1
  0
VERTEX
  8
LAYER_1
 62
7
 10
2.224427
 20
-1.751258
 42
-0.199588
  0
VERTEX
  8
LAYER_1
 62
7
 10
2.219790
 20
-1.762453
 42
-0.199589
  0
VERTEX
  8
LAYER_1
 62
7
 10
2.208594
 20
-1.767091
  0
SEQEND
  0
POLYLINE
  8
LAYER_1
 62
7
 66
1
  0
VERTEX
  8
LAYER_1
 62
7
 10
2.208594
 20
-1.767091
 42
-0.199589
  0
VERTEX
  8
LAYER_1
 62
7
 10
2.197398
 20
-1.762453
 42
-0.199588
  0
VERTEX
  8
LAYER_1
 62
7
 10
2.192761
 20
-1.751258
  0
SEQEND
  0
POLYLINE
  8
LAYER_1
 62
7
 66
1
  0
VERTEX
  8
LAYER_1
 62
7
 10
2.192761
 20
-1.751258
 42
-0.199588
  0
VERTEX
  8
LAYER_1
 62
7
 10
2.197398
 20
-1.740062
 42
-0.199589
  0
VERTEX
  8
LAYER_1
 62
7
 10
2.208594
 20
-1.735424
  0
SEQEND
  0
POLYLINE
  8
LAYER_1
 62
7
 66
1
  0
VERTEX
  8
LAYER_1
 62
7
 10
2.208594
 20
-1.735424
 42
-0.199589
  0
VERTEX
  8
LAYER_1
 62
7
 10
2.219790
 20
-1.740062
 42
-0.199588
  0
VERTEX
  8
LAYER_1
 62
7
 10
2.224427
 20
-1.751258
  0
SEQEND
  0
POLYLINE
  8
LAYER_1
 62
7
 66
1
  0
VERTEX
  8
LAYER_1
 62
7
 10
2.149427
 20
-1.701258
 42
-0.199588
  0
VERTEX
  8
LAYER_1
 62
7
 10
2.144790
 20
-1.712453
 42
-0.199589
  0
VERTEX
  8
LAYER_1
 62
7
 10
2.133594
 20
-1.717091
  0
SEQEND
  0
POLYLINE
  8
LAYER_1
 62
7
 66
1
  0
VERTEX
  8
LAYER_1
 62
7
 10
2.133594
 20
-1.717091
 42
-0.199589
  0
VERTEX
  8
LAYER_1
 62
7
 10
2.122398
 20
-1.712453
 42
-0.199588
  0
VERTEX
  8
LAYER_1
 62
7
 10
2.117761
 20
-1.701258
  0
SEQEND
  0
POLYLINE
  8
LAYER_1
 62
7
 66
1
  0
VERTEX
  8
LAYER_1
 62
7
 10
2.117761
 20
-1.701258
 42
-0.199588
  0
VERTEX
  8
LAYER_1
 62
7
 10
2.122398
 20
-1.690062
 42
-0.199589
  0
VERTEX
  8
LAYER_1
 62
7
 10
2.133594
 20
-1.685424
  0
SEQEND
  0
POLYLINE
  8
LAYER_1
 62
7
 66
1
  0
VERTEX
  8
LAYER_1
 62
7
 10
2.133594
 20
-1.685424
 42
-0.199589
  0
VERTEX
  8
LAYER_1
 62
7
 10
2.144790
 20
-1.690062
 42
-0.199588
  0
VERTEX
  8
LAYER_1
 62
7
 10
2.149427
 20
-1.701258
  0
SEQEND
  0
POLYLINE
  8
LAYER_1
 62
7
 66
1
  0
VERTEX
  8
LAYER_1
 62
7
 10
2.149427
 20
-1.202091
 42
-0.199589
  0
VERTEX
  8
LAYER_1
 62
7
 10
2.144790
 20
-1.213287
 42
-0.199589
  0
VERTEX
  8
LAYER_1
 62
7
 10
2.133594
 20
-1.217924
  0
SEQEND
  0
POLYLINE
  8
LAYER_1
 62
7
 66
1
  0
VERTEX
  8
LAYER_1
 62
7
 10
2.133594
 20
-1.217924
 42
-0.199588
  0
VERTEX
  8
LAYER_1
 62
7
 10
2.122398
 20
-1.213287
 42
-0.199589
  0
VERTEX
  8
LAYER_1
 62
7
 10
2.117761
 20
-1.202091
  0
SEQEND
  0
POLYLINE
  8
LAYER_1
 62
7
 66
1
  0
VERTEX
  8
LAYER_1
 62
7
 10
2.117761
 20
-1.202091
 42
-0.199589
  0
VERTEX
  8
LAYER_1
 62
7
 10
2.122398
 20
-1.190895
 42
-0.199589
  0
VERTEX
  8
LAYER_1
 62
7
 10
2.133594
 20
-1.186258
  0
SEQEND
  0
POLYLINE
  8
LAYER_1
 62
7
 66
1
  0
VERTEX
  8
LAYER_1
 62
7
 10
2.133594
 20
-1.186258
 42
-0.199589
  0
VERTEX
  8
LAYER_1
 62
7
 10
2.144790
 20
-1.190895
 42
-0.199588
  0
VERTEX
  8
LAYER_1
 62
7
 10
2.149427
 20
-1.202091
  0
SEQEND
  0
POLYLINE
  8
LAYER_1
 62
7
 66
1
  0
VERTEX
  8
LAYER_1
 62
7
 10
2.224427
 20
-1.152091
 42
-0.199589
  0
VERTEX
  8
LAYER_1
 62
7
 10
2.219790
 20
-1.163287
 42
-0.199589
  0
VERTEX
  8
LAYER_1
 62
7
 10
2.208594
 20
-1.167924
  0
SEQEND
  0
POLYLINE
  8
LAYER_1
 62
7
 66
1
  0
VERTEX
  8
LAYER_1
 62
7
 10
2.208594
 20
-1.167924
 42
-0.199588
  0
VERTEX
  8
LAYER_1
 62
7
 10
2.197398
 20
-1.163287
 42
-0.199589
  0
VERTEX
  8
LAYER_1
 62
7
 10
2.192761
 20
-1.152091
  0
SEQEND
  0
POLYLINE
  8
LAYER_1
 62
7
 66
1
  0
VERTEX
  8
LAYER_1
 62
7
 10
2.192761
 20
-1.152091
 42
-0.199589
  0
VERTEX
  8
LAYER_1
 62
7
 10
2.197398
 20
-1.140895
 42
-0.199589
  0
VERTEX
  8
LAYER_1
 62
7
 10
2.208594
 20
-1.136258
  0
SEQEND
  0
POLYLINE
  8
LAYER_1
 62
7
 66
1
  0
VERTEX
  8
LAYER_1
 62
7
 10
2.208594
 20
-1.136258
 42
-0.199589
  0
VERTEX
  8
LAYER_1
 62
7
 10
2.219790
 20
-1.140895
 42
-0.199588
  0
VERTEX
  8
LAYER_1
 62
7
 10
2.224427
 20
-1.152091
  0
SEQEND
  0
POLYLINE
  8
LAYER_1
 62
7
 66
1
  0
VERTEX
  8
LAYER_1
 62
7
 10
2.149427
 20
-1.102091
 42
-0.199589
  0
VERTEX
  8
LAYER_1
 62
7
 10
2.144790
 20
-1.113287
 42
-0.199589
  0
VERTEX
  8
LAYER_1
 62
7
 10
2.133594
 20
-1.117924
  0
SEQEND
  0
POLYLINE
  8
LAYER_1
 62
7
 66
1
  0
VERTEX
  8
LAYER_1
 62
7
 10
2.133594
 20
-1.117924
 42
-0.199588
  0
VERTEX
  8
LAYER_1
 62
7
 10
2.122398
 20
-1.113287
 42
-0.199589
  0
VERTEX
  8
LAYER_1
 62
7
 10
2.117761
 20
-1.102091
  0
SEQEND
  0
POLYLINE
  8
LAYER_1
 62
7
 66
1
  0
VERTEX
  8
LAYER_1
 62
7
 10
2.117761
 20
-1.102091
 42
-0.199589
  0
VERTEX
  8
LAYER_1
 62
7
 10
2.122398
 20
-1.090895
 42
-0.199589
  0
VERTEX
  8
LAYER_1
 62
7
 10
2.133594
 20
-1.086258
  0
SEQEND
  0
POLYLINE
  8
LAYER_1
 62
7
 66
1
  0
VERTEX
  8
LAYER_1
 62
7
 10
2.133594
 20
-1.086258
 42
-0.199589
  0
VERTEX
  8
LAYER_1
 62
7
 10
2.144790
 20
-1.090895
 42
-0.199588
  0
VERTEX
  8
LAYER_1
 62
7
 10
2.149427
 20
-1.102091
  0
SEQEND
  0
POLYLINE
  8
LAYER_1
 62
7
 66
1
  0
VERTEX
  8
LAYER_1
 62
7
 10
0.457761
 20
-2.698758
 42
-0.199588
  0
VERTEX
  8
LAYER_1
 62
7
 10
0.450926
 20
-2.715257
 42
-0.199589
  0
VERTEX
  8
LAYER_1
 62
7
 10
0.434427
 20
-2.722091
  0
SEQEND
  0
POLYLINE
  8
LAYER_1
 62
7
 66
1
  0
VERTEX
  8
LAYER_1
 62
7
 10
0.434427
 20
-2.722091
 42
-0.199589
  0
VERTEX
  8
LAYER_1
 62
7
 10
0.417928
 20
-2.715257
 42
-0.199588
  0
VERTEX
  8
LAYER_1
 62
7
 10
0.411094
 20
-2.698758
  0
SEQEND
  0
POLYLINE
  8
LAYER_1
 62
7
 66
1
  0
VERTEX
  8
LAYER_1
 62
7
 10
0.411094
 20
-2.698758
 42
-0.199588
  0
VERTEX
  8
LAYER_1
 62
7
 10
0.417928
 20
-2.682258
 42
-0.199589
  0
VERTEX
  8
LAYER_1
 62
7
 10
0.434427
 20
-2.675424
  0
SEQEND
  0
POLYLINE
  8
LAYER_1
 62
7
 66
1
  0
VERTEX
  8
LAYER_1
 62
7
 10
0.434427
 20
-2.675424
 42
-0.199589
  0
VERTEX
  8
LAYER_1
 62
7
 10
0.450926
 20
-2.682258
 42
-0.199588
  0
VERTEX
  8
LAYER_1
 62
7
 10
0.457761
 20
-2.698758
  0
SEQEND
  0
POLYLINE
  8
LAYER_1
 62
7
 66
1
  0
VERTEX
  8
LAYER_1
 62
7
 10
0.457761
 20
-2.502091
 42
-0.199589
  0
VERTEX
  8
LAYER_1
 62
7
 10
0.450926
 20
-2.518590
 42
-0.199589
  0
VERTEX
  8
LAYER_1
 62
7
 10
0.434427
 20
-2.525424
  0
SEQEND
  0
POLYLINE
  8
LAYER_1
 62
7
 66
1
  0
VERTEX
  8
LAYER_1
 62
7
 10
0.434427
 20
-2.525424
 42
-0.199589
  0
VERTEX
  8
LAYER_1
 62
7
 10
0.417928
 20
-2.518590
 42
-0.199589
  0
VERTEX
  8
LAYER_1
 62
7
 10
0.411094
 20
-2.502091
  0
SEQEND
  0
POLYLINE
  8
LAYER_1
 62
7
 66
1
  0
VERTEX
  8
LAYER_1
 62
7
 10
0.411094
 20
-2.502091
 42
-0.199589
  0
VERTEX
  8
LAYER_1
 62
7
 10
0.417928
 20
-2.485592
 42
-0.199589
  0
VERTEX
  8
LAYER_1
 62
7
 10
0.434427
 20
-2.478758
  0
SEQEND
  0
POLYLINE
  8
LAYER_1
 62
7
 66
1
  0
VERTEX
  8
LAYER_1
 62
7
 10
0.434427
 20
-2.478758
 42
-0.199589
  0
VERTEX
  8
LAYER_1
 62
7
 10
0.450926
 20
-2.485592
 42
-0.199589
  0
VERTEX
  8
LAYER_1
 62
7
 10
0.457761
 20
-2.502091
  0
SEQEND
  0
POLYLINE
  8
LAYER_1
 62
7
 66
1
  0
VERTEX
  8
LAYER_1
 62
7
 10
0.457761
 20
-2.299591
 42
-0.199589
  0
VERTEX
  8
LAYER_1
 62
7
 10
0.450926
 20
-2.316090
 42
-0.199589
  0
VERTEX
  8
LAYER_1
 62
7
 10
0.434427
 20
-2.322924
  0
SEQEND
  0
POLYLINE
  8
LAYER_1
 62
7
 66
1
  0
VERTEX
  8
LAYER_1
 62
7
 10
0.434427
 20
-2.322924
 42
-0.199589
  0
VERTEX
  8
LAYER_1
 62
7
 10
0.417928
 20
-2.316090
 42
-0.199589
  0
VERTEX
  8
LAYER_1
 62
7
 10
0.411094
 20
-2.299591
  0
SEQEND
  0
POLYLINE
  8
LAYER_1
 62
7
 66
1
  0
VERTEX
  8
LAYER_1
 62
7
 10
0.411094
 20
-2.299591
 42
-0.199589
  0
VERTEX
  8
LAYER_1
 62
7
 10
0.417928
 20
-2.283092
 42
-0.199589
  0
VERTEX
  8
LAYER_1
 62
7
 10
0.434427
 20
-2.276258
  0
SEQEND
  0
POLYLINE
  8
LAYER_1
 62
7
 66
1
  0
VERTEX
  8
LAYER_1
 62
7
 10
0.434427
 20
-2.276258
 42
-0.199589
  0
VERTEX
  8
LAYER_1
 62
7
 10
0.450926
 20
-2.283092
 42
-0.199589
  0
VERTEX
  8
LAYER_1
 62
7
 10
0.457761
 20
-2.299591
  0
SEQEND
  0
POLYLINE
  8
LAYER_1
 62
7
 66
1
  0
VERTEX
  8
LAYER_1
 62
7
 10
0.457761
 20
-2.102924
 42
-0.199589
  0
VERTEX
  8
LAYER_1
 62
7
 10
0.450926
 20
-2.119423
 42
-0.199589
  0
VERTEX
  8
LAYER_1
 62
7
 10
0.434427
 20
-2.126258
  0
SEQEND
  0
POLYLINE
  8
LAYER_1
 62
7
 66
1
  0
VERTEX
  8
LAYER_1
 62
7
 10
0.434427
 20
-2.126258
 42
-0.199589
  0
VERTEX
  8
LAYER_1
 62
7
 10
0.417928
 20
-2.119423
 42
-0.199589
  0
VERTEX
  8
LAYER_1
 62
7
 10
0.411094
 20
-2.102924
  0
SEQEND
  0
POLYLINE
  8
LAYER_1
 62
7
 66
1
  0
VERTEX
  8
LAYER_1
 62
7
 10
0.411094
 20
-2.102924
 42
-0.199589
  0
VERTEX
  8
LAYER_1
 62
7
 10
0.417928
 20
-2.086425
 42
-0.199589
  0
VERTEX
  8
LAYER_1
 62
7
 10
0.434427
 20
-2.079591
  0
SEQEND
  0
POLYLINE
  8
LAYER_1
 62
7
 66
1
  0
VERTEX
  8
LAYER_1
 62
7
 10
0.434427
 20
-2.079591
 42
-0.199589
  0
VERTEX
  8
LAYER_1
 62
7
 10
0.450926
 20
-2.086425
 42
-0.199589
  0
VERTEX
  8
LAYER_1
 62
7
 10
0.457761
 20
-2.102924
  0
SEQEND
  0
POLYLINE
  8
LAYER_1
 62
7
 66
1
  0
VERTEX
  8
LAYER_1
 62
7
 10
0.457761
 20
-1.899591
 42
-0.199589
  0
VERTEX
  8
LAYER_1
 62
7
 10
0.450926
 20
-1.916090
 42
-0.199589
  0
VERTEX
  8
LAYER_1
 62
7
 10
0.434427
 20
-1.922924
  0
SEQEND
  0
POLYLINE
  8
LAYER_1
 62
7
 66
1
  0
VERTEX
  8
LAYER_1
 62
7
 10
0.434427
 20
-1.922924
 42
-0.199589
  0
VERTEX
  8
LAYER_1
 62
7
 10
0.417928
 20
-1.916090
 42
-0.199589
  0
VERTEX
  8
LAYER_1
 62
7
 10
0.411094
 20
-1.899591
  0
SEQEND
  0
POLYLINE
  8
LAYER_1
 62
7
 66
1
  0
VERTEX
  8
LAYER_1
 62
7
 10
0.411094
 20
-1.899591
 42
-0.199589
  0
VERTEX
  8
LAYER_1
 62
7
 10
0.417928
 20
-1.883092
 42
-0.199589
  0
VERTEX
  8
LAYER_1
 62
7
 10
0.434427
 20
-1.876258
  0
SEQEND
  0
POLYLINE
  8
LAYER_1
 62
7
 66
1
  0
VERTEX
  8
LAYER_1
 62
7
 10
0.434427
 20
-1.876258
 42
-0.199589
  0
VERTEX
  8
LAYER_1
 62
7
 10
0.450926
 20
-1.883092
 42
-0.199589
  0
VERTEX
  8
LAYER_1
 62
7
 10
0.457761
 20
-1.899591
  0
SEQEND
  0
POLYLINE
  8
LAYER_1
 62
7
 66
1
  0
VERTEX
  8
LAYER_1
 62
7
 10
0.457761
 20
-1.702924
 42
-0.199589
  0
VERTEX
  8
LAYER_1
 62
7
 10
0.450926
 20
-1.719423
 42
-0.199589
  0
VERTEX
  8
LAYER_1
 62
7
 10
0.434427
 20
-1.726258
  0
SEQEND
  0
POLYLINE
  8
LAYER_1
 62
7
 66
1
  0
VERTEX
  8
LAYER_1
 62
7
 10
0.434427
 20
-1.726258
 42
-0.199589
  0
VERTEX
  8
LAYER_1
 62
7
 10
0.417928
 20
-1.719423
 42
-0.199589
  0
VERTEX
  8
LAYER_1
 62
7
 10
0.411094
 20
-1.702924
  0
SEQEND
  0
POLYLINE
  8
LAYER_1
 62
7
 66
1
  0
VERTEX
  8
LAYER_1
 62
7
 10
0.411094
 20
-1.702924
 42
-0.199589
  0
VERTEX
  8
LAYER_1
 62
7
 10
0.417928
 20
-1.686425
 42
-0.199589
  0
VERTEX
  8
LAYER_1
 62
7
 10
0.434427
 20
-1.679591
  0
SEQEND
  0
POLYLINE
  8
LAYER_1
 62
7
 66
1
  0
VERTEX
  8
LAYER_1
 62
7
 10
0.434427
 20
-1.679591
 42
-0.199589
  0
VERTEX
  8
LAYER_1
 62
7
 10
0.450926
 20
-1.686425
 42
-0.199589
  0
VERTEX
  8
LAYER_1
 62
7
 10
0.457761
 20
-1.702924
  0
SEQEND
  0
POLYLINE
  8
LAYER_1
 62
7
 66
1
  0
VERTEX
  8
LAYER_1
 62
7
 10
0.457761
 20
-1.499591
 42
-0.199589
  0
VERTEX
  8
LAYER_1
 62
7
 10
0.450926
 20
-1.516090
 42
-0.199589
  0
VERTEX
  8
LAYER_1
 62
7
 10
0.434427
 20
-1.522924
  0
SEQEND
  0
POLYLINE
  8
LAYER_1
 62
7
 66
1
  0
VERTEX
  8
LAYER_1
 62
7
 10
0.434427
 20
-1.522924
 42
-0.199589
  0
VERTEX
  8
LAYER_1
 62
7
 10
0.417928
 20
-1.516090
 42
-0.199589
  0
VERTEX
  8
LAYER_1
 62
7
 10
0.411094
 20
-1.499591
  0
SEQEND
  0
POLYLINE
  8
LAYER_1
 62
7
 66
1
  0
VERTEX
  8
LAYER_1
 62
7
 10
0.411094
 20
-1.499591
 42
-0.199589
  0
VERTEX
  8
LAYER_1
 62
7
 10
0.417928
 20
-1.483092
 42
-0.199589
  0
VERTEX
  8
LAYER_1
 62
7
 10
0.434427
 20
-1.476258
  0
SEQEND
  0
POLYLINE
  8
LAYER_1
 62
7
 66
1
  0
VERTEX
  8
LAYER_1
 62
7
 10
0.434427
 20
-1.476258
 42
-0.199589
  0
VERTEX
  8
LAYER_1
 62
7
 10
0.450926
 20
-1.483092
 42
-0.199589
  0
VERTEX
  8
LAYER_1
 62
7
 10
0.457761
 20
-1.499591
  0
SEQEND
  0
POLYLINE
  8
LAYER_1
 62
7
 66
1
  0
VERTEX
  8
LAYER_1
 62
7
 10
0.457761
 20
-1.302924
 42
-0.199589
  0
VERTEX
  8
LAYER_1
 62
7
 10
0.450926
 20
-1.319423
 42
-0.199589
  0
VERTEX
  8
LAYER_1
 62
7
 10
0.434427
 20
-1.326258
  0
SEQEND
  0
POLYLINE
  8
LAYER_1
 62
7
 66
1
  0
VERTEX
  8
LAYER_1
 62
7
 10
0.434427
 20
-1.326258
 42
-0.199589
  0
VERTEX
  8
LAYER_1
 62
7
 10
0.417928
 20
-1.319423
 42
-0.199589
  0
VERTEX
  8
LAYER_1
 62
7
 10
0.411094
 20
-1.302924
  0
SEQEND
  0
POLYLINE
  8
LAYER_1
 62
7
 66
1
  0
VERTEX
  8
LAYER_1
 62
7
 10
0.411094
 20
-1.302924
 42
-0.199589
  0
VERTEX
  8
LAYER_1
 62
7
 10
0.417928
 20
-1.286425
 42
-0.199589
  0
VERTEX
  8
LAYER_1
 62
7
 10
0.434427
 20
-1.279591
  0
SEQEND
  0
POLYLINE
  8
LAYER_1
 62
7
 66
1
  0
VERTEX
  8
LAYER_1
 62
7
 10
0.434427
 20
-1.279591
 42
-0.199589
  0
VERTEX
  8
LAYER_1
 62
7
 10
0.450926
 20
-1.286425
 42
-0.199589
  0
VERTEX
  8
LAYER_1
 62
7
 10
0.457761
 20
-1.302924
  0
SEQEND
  0
POLYLINE
  8
LAYER_1
 62
7
 66
1
  0
VERTEX
  8
LAYER_1
 62
7
 10
3.028594
 20
-2.141258
 42
-0.199588
  0
VERTEX
  8
LAYER_1
 62
7
 10
3.023956
 20
-2.152453
 42
-0.199588
  0
VERTEX
  8
LAYER_1
 62
7
 10
3.012761
 20
-2.157091
  0
SEQEND
  0
POLYLINE
  8
LAYER_1
 62
7
 66
1
  0
VERTEX
  8
LAYER_1
 62
7
 10
3.012761
 20
-2.157091
 42
-0.199588
  0
VERTEX
  8
LAYER_1
 62
7
 10
3.001565
 20
-2.152453
 42
-0.199588
  0
VERTEX
  8
LAYER_1
 62
7
 10
2.996927
 20
-2.141258
  0
SEQEND
  0
POLYLINE
  8
LAYER_1
 62
7
 66
1
  0
VERTEX
  8
LAYER_1
 62
7
 10
2.996927
 20
-2.141258
 42
-0.199588
  0
VERTEX
  8
LAYER_1
 62
7
 10
3.001565
 20
-2.130062
 42
-0.199588
  0
VERTEX
  8
LAYER_1
 62
7
 10
3.012761
 20
-2.125424
  0
SEQEND
  0
POLYLINE
  8
LAYER_1
 62
7
 66
1
  0
VERTEX
  8
LAYER_1
 62
7
 10
3.012761
 20
-2.125424
 42
-0.199588
  0
VERTEX
  8
LAYER_1
 62
7
 10
3.023956
 20
-2.130062
 42
-0.199588
  0
VERTEX
  8
LAYER_1
 62
7
 10
3.028594
 20
-2.141258
  0
SEQEND
  0
POLYLINE
  8
LAYER_1
 62
7
 66
1
  0
VERTEX
  8
LAYER_1
 62
7
 10
3.028594
 20
-2.640424
 42
-0.199589
  0
VERTEX
  8
LAYER_1
 62
7
 10
3.023956
 20
-2.651620
 42
-0.199588
  0
VERTEX
  8
LAYER_1
 62
7
 10
3.012761
 20
-2.656258
  0
SEQEND
  0
POLYLINE
  8
LAYER_1
 62
7
 66
1
  0
VERTEX
  8
LAYER_1
 62
7
 10
3.012761
 20
-2.656258
 42
-0.199588
  0
VERTEX
  8
LAYER_1
 62
7
 10
3.001565
 20
-2.651620
 42
-0.199589
  0
VERTEX
  8
LAYER_1
 62
7
 10
2.996927
 20
-2.640424
  0
SEQEND
  0
POLYLINE
  8
LAYER_1
 62
7
 66
1
  0
VERTEX
  8
LAYER_1
 62
7
 10
2.996927
 20
-2.640424
 42
-0.199589
  0
VERTEX
  8
LAYER_1
 62
7
 10
3.001565
 20
-2.629228
 42
-0.199588
  0
VERTEX
  8
LAYER_1
 62
7
 10
3.012761
 20
-2.624591
  0
SEQEND
  0
POLYLINE
  8
LAYER_1
 62
7
 66
1
  0
VERTEX
  8
LAYER_1
 62
7
 10
3.012761
 20
-2.624591
 42
-0.199588
  0
VERTEX
  8
LAYER_1
 62
7
 10
3.023956
 20
-2.629228
 42
-0.199589
  0
VERTEX
  8
LAYER_1
 62
7
 10
3.028594
 20
-2.640424
  0
SEQEND
  0
POLYLINE
  8
LAYER_1
 62
7
 66
1
  0
VERTEX
  8
LAYER_1
 62
7
 10
0.324427
 20
-0.612924
 42
-0.199589
  0
VERTEX
  8
LAYER_1
 62
7
 10
0.352122
 20
-0.624396
 42
-0.199589
  0
VERTEX
  8
LAYER_1
 62
7
 10
0.363594
 20
-0.652091
  0
SEQEND
  0
POLYLINE
  8
LAYER_1
 62
7
 66
1
  0
VERTEX
  8
LAYER_1
 62
7
 10
0.285261
 20
-0.652091
 42
-0.199588
  0
VERTEX
  8
LAYER_1
 62
7
 10
0.296732
 20
-0.624396
 42
-0.199589
  0
VERTEX
  8
LAYER_1
 62
7
 10
0.324427
 20
-0.612924
  0
SEQEND
  0
POLYLINE
  8
LAYER_1
 62
7
 66
1
  0
VERTEX
  8
LAYER_1
 62
7
 10
0.324427
 20
-0.646258
 42
-0.199589
  0
VERTEX
  8
LAYER_1
 62
7
 10
0.328552
 20
-0.647966
 42
-0.199589
  0
VERTEX
  8
LAYER_1
 62
7
 10
0.330261
 20
-0.652091
  0
SEQEND
  0
POLYLINE
  8
LAYER_1
 62
7
 66
1
  0
VERTEX
  8
LAYER_1
 62
7
 10
0.318594
 20
-0.652091
 42
-0.199588
  0
VERTEX
  8
LAYER_1
 62
7
 10
0.320302
 20
-0.647966
 42
-0.199589
  0
VERTEX
  8
LAYER_1
 62
7
 10
0.324427
 20
-0.646258
  0
SEQEND
  0
POLYLINE
  8
LAYER_1
 62
7
 70
1
 66
1
  0
VERTEX
  8
LAYER_1
 62
7
 10
0.234427
 20
-3.000424
  0
VERTEX
  8
LAYER_1
 62
7
 10
3.819427
 20
-3.000424
  0
VERTEX
  8
LAYER_1
 62
7
 10
3.829427
 20
-0.542924
  0
VERTEX
  8
LAYER_1
 62
7
 10
0.244427
 20
-0.542924
  0
VERTEX
  8
LAYER_1
 62
7
 10
0.234427
 20
-3.000424
  0
SEQEND
  0
POLYLINE
  8
LAYER_1
 62
7
 66
1
  0
VERTEX
  8
LAYER_1
 62
7
 10
0.324427
 20
-0.657924
 42
-0.199589
  0
VERTEX
  8
LAYER_1
 62
7
 10
0.320302
 20
-0.656216
 42
-0.199589
  0
VERTEX
  8
LAYER_1
 62
7
 10
0.318594
 20
-0.652091
  0
SEQEND
  0
POLYLINE
  8
LAYER_1
 62
7
 66
1
  0
VERTEX
  8
LAYER_1
 62
7
 10
0.330261
 20
-0.652091
 42
-0.199589
  0
VERTEX
  8
LAYER_1
 62
7
 10
0.328552
 20
-0.656216
 42
-0.199588
  0
VERTEX
  8
LAYER_1
 62
7
 10
0.324427
 20
-0.657924
  0
SEQEND
  0
POLYLINE
  8
LAYER_1
 62
7
 66
1
  0
VERTEX
  8
LAYER_1
 62
7
 10
0.324427
 20
-0.646258
 42
-0.199589
  0
VERTEX
  8
LAYER_1
 62
7
 10
0.328552
 20
-0.647966
 42
-0.199589
  0
VERTEX
  8
LAYER_1
 62
7
 10
0.330261
 20
-0.652091
  0
SEQEND
  0
POLYLINE
  8
LAYER_1
 62
7
 66
1
  0
VERTEX
  8
LAYER_1
 62
7
 10
0.318594
 20
-0.652091
 42
-0.199588
  0
VERTEX
  8
LAYER_1
 62
7
 10
0.320302
 20
-0.647966
 42
-0.199589
  0
VERTEX
  8
LAYER_1
 62
7
 10
0.324427
 20
-0.646258
  0
SEQEND
  0
POLYLINE
  8
LAYER_1
 62
7
 66
1
  0
VERTEX
  8
LAYER_1
 62
7
 10
0.310261
 20
-2.920424
 42
-0.199589
  0
VERTEX
  8
LAYER_1
 62
7
 10
0.308552
 20
-2.924549
 42
-0.199589
  0
VERTEX
  8
LAYER_1
 62
7
 10
0.304427
 20
-2.926258
  0
SEQEND
  0
POLYLINE
  8
LAYER_1
 62
7
 66
1
  0
VERTEX
  8
LAYER_1
 62
7
 10
0.304427
 20
-2.926258
 42
-0.199589
  0
VERTEX
  8
LAYER_1
 62
7
 10
0.300302
 20
-2.924549
 42
-0.199588
  0
VERTEX
  8
LAYER_1
 62
7
 10
0.298594
 20
-2.920424
  0
SEQEND
  0
POLYLINE
  8
LAYER_1
 62
7
 66
1
  0
VERTEX
  8
LAYER_1
 62
7
 10
0.298594
 20
-2.920424
 42
-0.199589
  0
VERTEX
  8
LAYER_1
 62
7
 10
0.300302
 20
-2.916299
 42
-0.199589
  0
VERTEX
  8
LAYER_1
 62
7
 10
0.304427
 20
-2.914591
  0
SEQEND
  0
POLYLINE
  8
LAYER_1
 62
7
 66
1
  0
VERTEX
  8
LAYER_1
 62
7
 10
0.304427
 20
-2.914591
 42
-0.199588
  0
VERTEX
  8
LAYER_1
 62
7
 10
0.308552
 20
-2.916299
 42
-0.199589
  0
VERTEX
  8
LAYER_1
 62
7
 10
0.310261
 20
-2.920424
  0
SEQEND
  0
POLYLINE
  8
LAYER_1
 62
7
 66
1
  0
VERTEX
  8
LAYER_1
 62
7
 10
0.310261
 20
-2.920424
 42
-0.199589
  0
VERTEX
  8
LAYER_1
 62
7
 10
0.308552
 20
-2.924549
 42
-0.199589
  0
VERTEX
  8
LAYER_1
 62
7
 10
0.304427
 20
-2.926258
  0
SEQEND
  0
POLYLINE
  8
LAYER_1
 62
7
 66
1
  0
VERTEX
  8
LAYER_1
 62
7
 10
0.304427
 20
-2.926258
 42
-0.199589
  0
VERTEX
  8
LAYER_1
 62
7
 10
0.300302
 20
-2.924549
 42
-0.199588
  0
VERTEX
  8
LAYER_1
 62
7
 10
0.298594
 20
-2.920424
  0
SEQEND
  0
POLYLINE
  8
LAYER_1
 62
7
 66
1
  0
VERTEX
  8
LAYER_1
 62
7
 10
0.298594
 20
-2.920424
 42
-0.199589
  0
VERTEX
  8
LAYER_1
 62
7
 10
0.300302
 20
-2.916299
 42
-0.199589
  0
VERTEX
  8
LAYER_1
 62
7
 10
0.304427
 20
-2.914591
  0
SEQEND
  0
POLYLINE
  8
LAYER_1
 62
7
 66
1
  0
VERTEX
  8
LAYER_1
 62
7
 10
0.304427
 20
-2.914591
 42
-0.199588
  0
VERTEX
  8
LAYER_1
 62
7
 10
0.308552
 20
-2.916299
 42
-0.199589
  0
VERTEX
  8
LAYER_1
 62
7
 10
0.310261
 20
-2.920424
  0
SEQEND
  0
POLYLINE
  8
LAYER_1
 62
7
 66
1
  0
VERTEX
  8
LAYER_1
 62
7
 10
3.728594
 20
-0.642091
 42
-0.199590
  0
VERTEX
  8
LAYER_1
 62
7
 10
3.726885
 20
-0.646216
 42
-0.199587
  0
VERTEX
  8
LAYER_1
 62
7
 10
3.722761
 20
-0.647924
  0
SEQEND
  0
POLYLINE
  8
LAYER_1
 62
7
 66
1
  0
VERTEX
  8
LAYER_1
 62
7
 10
3.722761
 20
-0.647924
 42
-0.199587
  0
VERTEX
  8
LAYER_1
 62
7
 10
3.718636
 20
-0.646216
 42
-0.199590
  0
VERTEX
  8
LAYER_1
 62
7
 10
3.716927
 20
-0.642091
  0
SEQEND
  0
POLYLINE
  8
LAYER_1
 62
7
 66
1
  0
VERTEX
  8
LAYER_1
 62
7
 10
3.716927
 20
-0.642091
 42
-0.199589
  0
VERTEX
  8
LAYER_1
 62
7
 10
3.718636
 20
-0.637966
 42
-0.199588
  0
VERTEX
  8
LAYER_1
 62
7
 10
3.722761
 20
-0.636258
  0
SEQEND
  0
POLYLINE
  8
LAYER_1
 62
7
 66
1
  0
VERTEX
  8
LAYER_1
 62
7
 10
3.722761
 20
-0.636258
 42
-0.199588
  0
VERTEX
  8
LAYER_1
 62
7
 10
3.726885
 20
-0.637966
 42
-0.199589
  0
VERTEX
  8
LAYER_1
 62
7
 10
3.728594
 20
-0.642091
  0
SEQEND
  0
POLYLINE
  8
LAYER_1
 62
7
 66
1
  0
VERTEX
  8
LAYER_1
 62
7
 10
3.728594
 20
-0.642091
 42
-0.199590
  0
VERTEX
  8
LAYER_1
 62
7
 10
3.726885
 20
-0.646216
 42
-0.199587
  0
VERTEX
  8
LAYER_1
 62
7
 10
3.722761
 20
-0.647924
  0
SEQEND
  0
POLYLINE
  8
LAYER_1
 62
7
 66
1
  0
VERTEX
  8
LAYER_1
 62
7
 10
3.722761
 20
-0.647924
 42
-0.199587
  0
VERTEX
  8
LAYER_1
 62
7
 10
3.718636
 20
-0.646216
 42
-0.199590
  0
VERTEX
  8
LAYER_1
 62
7
 10
3.716927
 20
-0.642091
  0
SEQEND
  0
POLYLINE
  8
LAYER_1
 62
7
 66
1
  0
VERTEX
  8
LAYER_1
 62
7
 10
3.716927
 20
-0.642091
 42
-0.199589
  0
VERTEX
  8
LAYER_1
 62
7
 10
3.718636
 20
-0.637966
 42
-0.199588
  0
VERTEX
  8
LAYER_1
 62
7
 10
3.722761
 20
-0.636258
  0
SEQEND
  0
POLYLINE
  8
LAYER_1
 62
7
 66
1
  0
VERTEX
  8
LAYER_1
 62
7
 10
3.722761
 20
-0.636258
 42
-0.199588
  0
VERTEX
  8
LAYER_1
 62
7
 10
3.726885
 20
-0.637966
 42
-0.199589
  0
VERTEX
  8
LAYER_1
 62
7
 10
3.728594
 20
-0.642091
  0
SEQEND
  0
POLYLINE
  8
LAYER_1
 62
7
 66
1
  0
VERTEX
  8
LAYER_1
 62
7
 10
3.728594
 20
-2.940424
 42
-0.199589
  0
VERTEX
  8
LAYER_1
 62
7
 10
3.726885
 20
-2.944549
 42
-0.199588
  0
VERTEX
  8
LAYER_1
 62
7
 10
3.722761
 20
-2.946258
  0
SEQEND
  0
POLYLINE
  8
LAYER_1
 62
7
 66
1
  0
VERTEX
  8
LAYER_1
 62
7
 10
3.722761
 20
-2.946258
 42
-0.199588
  0
VERTEX
  8
LAYER_1
 62
7
 10
3.718636
 20
-2.944549
 42
-0.199589
  0
VERTEX
  8
LAYER_1
 62
7
 10
3.716927
 20
-2.940424
  0
SEQEND
  0
POLYLINE
  8
LAYER_1
 62
7
 66
1
  0
VERTEX
  8
LAYER_1
 62
7
 10
3.716927
 20
-2.940424
 42
-0.199590
  0
VERTEX
  8
LAYER_1
 62
7
 10
3.718636
 20
-2.936299
 42
-0.199587
  0
VERTEX
  8
LAYER_1
 62
7
 10
3.722761
 20
-2.934591
  0
SEQEND
  0
POLYLINE
  8
LAYER_1
 62
7
 66
1
  0
VERTEX
  8
LAYER_1
 62
7
 10
3.722761
 20
-2.934591
 42
-0.199587
  0
VERTEX
  8
LAYER_1
 62
7
 10
3.726885
 20
-2.936299
 42
-0.199590
  0
VERTEX
  8
LAYER_1
 62
7
 10
3.728594
 20
-2.940424
  0
SEQEND
  0
POLYLINE
  8
LAYER_1
 62
7
 66
1
  0
VERTEX
  8
LAYER_1
 62
7
 10
3.728594
 20
-2.940424
 42
-0.199589
  0
VERTEX
  8
LAYER_1
 62
7
 10
3.726885
 20
-2.944549
 42
-0.199588
  0
VERTEX
  8
LAYER_1
 62
7
 10
3.722761
 20
-2.946258
  0
SEQEND
  0
POLYLINE
  8
LAYER_1
 62
7
 66
1
  0
VERTEX
  8
LAYER_1
 62
7
 10
3.722761
 20
-2.946258
 42
-0.199588
  0
VERTEX
  8
LAYER_1
 62
7
 10
3.718636
 20
-2.944549
 42
-0.199589
  0
VERTEX
  8
LAYER_1
 62
7
 10
3.716927
 20
-2.940424
  0
SEQEND
  0
POLYLINE
  8
LAYER_1
 62
7
 66
1
  0
VERTEX
  8
LAYER_1
 62
7
 10
3.716927
 20
-2.940424
 42
-0.199590
  0
VERTEX
  8
LAYER_1
 62
7
 10
3.718636
 20
-2.936299
 42
-0.199587
  0
VERTEX
  8
LAYER_1
 62
7
 10
3.722761
 20
-2.934591
  0
SEQEND
  0
POLYLINE
  8
LAYER_1
 62
7
 66
1
  0
VERTEX
  8
LAYER_1
 62
7
 10
3.722761
 20
-2.934591
 42
-0.199587
  0
VERTEX
  8
LAYER_1
 62
7
 10
3.726885
 20
-2.936299
 42
-0.199590
  0
VERTEX
  8
LAYER_1
 62
7
 10
3.728594
 20
-2.940424
  0
SEQEND
  0
POLYLINE
  8
LAYER_1
 62
7
 66
1
  0
VERTEX
  8
LAYER_1
 62
7
 10
0.363594
 20
-0.652091
 42
-0.199589
  0
VERTEX
  8
LAYER_1
 62
7
 10
0.352122
 20
-0.679786
 42
-0.199588
  0
VERTEX
  8
LAYER_1
 62
7
 10
0.324427
 20
-0.691258
  0
SEQEND
  0
POLYLINE
  8
LAYER_1
 62
7
 66
1
  0
VERTEX
  8
LAYER_1
 62
7
 10
0.324427
 20
-0.691258
 42
-0.199589
  0
VERTEX
  8
LAYER_1
 62
7
 10
0.296732
 20
-0.679786
 42
-0.199589
  0
VERTEX
  8
LAYER_1
 62
7
 10
0.285261
 20
-0.652091
  0
SEQEND
  0
POLYLINE
  8
LAYER_1
 62
7
 66
1
  0
VERTEX
  8
LAYER_1
 62
7
 10
0.324427
 20
-0.657924
 42
-0.199589
  0
VERTEX
  8
LAYER_1
 62
7
 10
0.320302
 20
-0.656216
 42
-0.199589
  0
VERTEX
  8
LAYER_1
 62
7
 10
0.318594
 20
-0.652091
  0
SEQEND
  0
POLYLINE
  8
LAYER_1
 62
7
 66
1
  0
VERTEX
  8
LAYER_1
 62
7
 10
0.330261
 20
-0.652091
 42
-0.199589
  0
VERTEX
  8
LAYER_1
 62
7
 10
0.328552
 20
-0.656216
 42
-0.199588
  0
VERTEX
  8
LAYER_1
 62
7
 10
0.324427
 20
-0.657924
  0
SEQEND
  0
POLYLINE
  8
LAYER_1
 62
7
 66
1
  0
VERTEX
  8
LAYER_1
 62
7
 10
0.343594
 20
-2.920424
 42
-0.199589
  0
VERTEX
  8
LAYER_1
 62
7
 10
0.332122
 20
-2.948119
 42
-0.199589
  0
VERTEX
  8
LAYER_1
 62
7
 10
0.304427
 20
-2.959591
  0
SEQEND
  0
POLYLINE
  8
LAYER_1
 62
7
 66
1
  0
VERTEX
  8
LAYER_1
 62
7
 10
0.304427
 20
-2.959591
 42
-0.199589
  0
VERTEX
  8
LAYER_1
 62
7
 10
0.276732
 20
-2.948119
 42
-0.199588
  0
VERTEX
  8
LAYER_1
 62
7
 10
0.265261
 20
-2.920424
  0
SEQEND
  0
POLYLINE
  8
LAYER_1
 62
7
 66
1
  0
VERTEX
  8
LAYER_1
 62
7
 10
0.265261
 20
-2.920424
 42
-0.199589
  0
VERTEX
  8
LAYER_1
 62
7
 10
0.276732
 20
-2.892729
 42
-0.199589
  0
VERTEX
  8
LAYER_1
 62
7
 10
0.304427
 20
-2.881258
  0
SEQEND
  0
POLYLINE
  8
LAYER_1
 62
7
 66
1
  0
VERTEX
  8
LAYER_1
 62
7
 10
0.304427
 20
-2.881258
 42
-0.199588
  0
VERTEX
  8
LAYER_1
 62
7
 10
0.332122
 20
-2.892729
 42
-0.199589
  0
VERTEX
  8
LAYER_1
 62
7
 10
0.343594
 20
-2.920424
  0
SEQEND
  0
POLYLINE
  8
LAYER_1
 62
7
 66
1
  0
VERTEX
  8
LAYER_1
 62
7
 10
3.761927
 20
-0.642091
 42
-0.199588
  0
VERTEX
  8
LAYER_1
 62
7
 10
3.750456
 20
-0.669786
 42
-0.199589
  0
VERTEX
  8
LAYER_1
 62
7
 10
3.722761
 20
-0.681258
  0
SEQEND
  0
POLYLINE
  8
LAYER_1
 62
7
 66
1
  0
VERTEX
  8
LAYER_1
 62
7
 10
3.722761
 20
-0.681258
 42
-0.199589
  0
VERTEX
  8
LAYER_1
 62
7
 10
3.695066
 20
-0.669786
 42
-0.199588
  0
VERTEX
  8
LAYER_1
 62
7
 10
3.683594
 20
-0.642091
  0
SEQEND
  0
POLYLINE
  8
LAYER_1
 62
7
 66
1
  0
VERTEX
  8
LAYER_1
 62
7
 10
3.683594
 20
-0.642091
 42
-0.199588
  0
VERTEX
  8
LAYER_1
 62
7
 10
3.695066
 20
-0.614396
 42
-0.199589
  0
VERTEX
  8
LAYER_1
 62
7
 10
3.722761
 20
-0.602924
  0
SEQEND
  0
POLYLINE
  8
LAYER_1
 62
7
 66
1
  0
VERTEX
  8
LAYER_1
 62
7
 10
3.722761
 20
-0.602924
 42
-0.199589
  0
VERTEX
  8
LAYER_1
 62
7
 10
3.750456
 20
-0.614396
 42
-0.199588
  0
VERTEX
  8
LAYER_1
 62
7
 10
3.761927
 20
-0.642091
  0
SEQEND
  0
POLYLINE
  8
LAYER_1
 62
7
 66
1
  0
VERTEX
  8
LAYER_1
 62
7
 10
3.761927
 20
-2.940424
 42
-0.199588
  0
VERTEX
  8
LAYER_1
 62
7
 10
3.750456
 20
-2.968119
 42
-0.199589
  0
VERTEX
  8
LAYER_1
 62
7
 10
3.722761
 20
-2.979591
  0
SEQEND
  0
POLYLINE
  8
LAYER_1
 62
7
 66
1
  0
VERTEX
  8
LAYER_1
 62
7
 10
3.722761
 20
-2.979591
 42
-0.199589
  0
VERTEX
  8
LAYER_1
 62
7
 10
3.695066
 20
-2.968119
 42
-0.199588
  0
VERTEX
  8
LAYER_1
 62
7
 10
3.683594
 20
-2.940424
  0
SEQEND
  0
POLYLINE
  8
LAYER_1
 62
7
 66
1
  0
VERTEX
  8
LAYER_1
 62
7
 10
3.683594
 20
-2.940424
 42
-0.199588
  0
VERTEX
  8
LAYER_1
 62
7
 10
3.695066
 20
-2.912729
 42
-0.199589
  0
VERTEX
  8
LAYER_1
 62
7
 10
3.722761
 20
-2.901258
  0
SEQEND
  0
POLYLINE
  8
LAYER_1
 62
7
 66
1
  0
VERTEX
  8
LAYER_1
 62
7
 10
3.722761
 20
-2.901258
 42
-0.199589
  0
VERTEX
  8
LAYER_1
 62
7
 10
3.750456
 20
-2.912729
 42
-0.199588
  0
VERTEX
  8
LAYER_1
 62
7
 10
3.761927
 20
-2.940424
  0
SEQEND
  0
ENDSEC
  0
EOF
