G75*
%MOIN*%
%OFA0B0*%
%FSLAX26Y26*%
%IPPOS*%
%LPD*%
%AMOC8*
5,1,8,0,0,1.08239X$1,22.5*
%
%ADD10C,0.019811*%
%ADD11C,0.086740*%
%ADD12C,0.060000*%
%ADD13OC8,0.060000*%
%ADD14C,0.078500*%
%ADD15R,0.055118X0.015748*%
%ADD16R,0.092520X0.074803*%
D10*
X00070000Y00080000D03*
X00090000Y02210000D03*
X03480000Y02230000D03*
X03490000Y00060000D03*
D11*
X03318110Y01660630D02*
X03318110Y01739370D01*
X03239370Y01888976D02*
X03160630Y01888976D01*
X03077953Y01739370D02*
X03077953Y01660630D01*
D12*
X01426000Y01750000D02*
X01374000Y01750000D01*
X01374000Y01850000D02*
X01426000Y01850000D01*
X01126000Y01850000D02*
X01074000Y01850000D01*
X01000000Y01874000D02*
X01000000Y01926000D01*
X00900000Y01926000D02*
X00900000Y01874000D01*
X01074000Y01750000D02*
X01126000Y01750000D01*
X01126000Y01350000D02*
X01074000Y01350000D01*
X01074000Y01250000D02*
X01126000Y01250000D01*
X00926000Y01100000D02*
X00874000Y01100000D01*
X00874000Y01000000D02*
X00926000Y01000000D01*
X01074000Y00900000D02*
X01126000Y00900000D01*
X01126000Y00800000D02*
X01074000Y00800000D01*
X00926000Y00600000D02*
X00874000Y00600000D01*
X00874000Y00500000D02*
X00926000Y00500000D01*
X01074000Y00400000D02*
X01126000Y00400000D01*
X01126000Y00300000D02*
X01074000Y00300000D01*
X01374000Y00300000D02*
X01426000Y00300000D01*
X01426000Y00400000D02*
X01374000Y00400000D01*
X01374000Y00800000D02*
X01426000Y00800000D01*
X01426000Y00900000D02*
X01374000Y00900000D01*
X01374000Y01250000D02*
X01426000Y01250000D01*
X01426000Y01350000D02*
X01374000Y01350000D01*
X00626000Y01100000D02*
X00574000Y01100000D01*
X00574000Y01000000D02*
X00626000Y01000000D01*
X00626000Y00600000D02*
X00574000Y00600000D01*
X00574000Y00500000D02*
X00626000Y00500000D01*
X00500000Y01874000D02*
X00500000Y01926000D01*
X00400000Y01926000D02*
X00400000Y01874000D01*
X00400000Y02174000D02*
X00400000Y02226000D01*
X00500000Y02226000D02*
X00500000Y02174000D01*
X00900000Y02174000D02*
X00900000Y02226000D01*
X01000000Y02226000D02*
X01000000Y02174000D01*
D13*
X01900000Y01900000D03*
X01975000Y01850000D03*
X01900000Y01800000D03*
X02040000Y02030000D03*
X02540000Y02030000D03*
X02470000Y01380000D03*
X01970000Y01380000D03*
X01900000Y01300000D03*
X01975000Y01250000D03*
X01900000Y01200000D03*
X01970000Y00840000D03*
X01900000Y00750000D03*
X01975000Y00700000D03*
X01900000Y00650000D03*
X02470000Y00840000D03*
X02570000Y00840000D03*
X02780000Y00860000D03*
X02780000Y00360000D03*
X02570000Y00340000D03*
X01975000Y00150000D03*
X01900000Y00100000D03*
X01900000Y00200000D03*
D14*
X00235250Y00301575D02*
X00164750Y00301575D01*
X00164750Y00498425D02*
X00235250Y00498425D01*
X00235250Y00701575D02*
X00164750Y00701575D01*
X00164750Y00898425D02*
X00235250Y00898425D01*
X00235250Y01101575D02*
X00164750Y01101575D01*
X00164750Y01298425D02*
X00235250Y01298425D01*
X00235250Y01501575D02*
X00164750Y01501575D01*
X00164750Y01698425D02*
X00235250Y01698425D01*
D15*
X03427953Y00637795D03*
X03427953Y00598425D03*
X03427953Y00559055D03*
X03427953Y00519685D03*
X03427953Y00480315D03*
X03427953Y00440945D03*
X03427953Y00401575D03*
X03427953Y00362205D03*
D16*
X03300000Y00267717D03*
X03300000Y00732283D03*
M02*
