G75*
%MOIN*%
%OFA0B0*%
%FSLAX25Y25*%
%IPPOS*%
%LPD*%
%AMOC8*
5,1,8,0,0,1.08239X$1,22.5*
%
%ADD10C,0.13398*%
%ADD11C,0.15800*%
%ADD12C,0.06000*%
%ADD13C,0.07850*%
%ADD14OC8,0.06000*%
%ADD15C,0.05162*%
%ADD16C,0.04800*%
D10*
X0037790Y0014000D03*
X0339790Y0012000D03*
X0340790Y0256000D03*
X0035790Y0257000D03*
D11*
X0298586Y0161000D03*
X0310790Y0179898D03*
X0322601Y0161000D03*
D12*
X0173390Y0166000D02*
X0168190Y0166000D01*
X0168190Y0176000D02*
X0173390Y0176000D01*
X0143390Y0176000D02*
X0138190Y0176000D01*
X0138190Y0166000D02*
X0143390Y0166000D01*
X0113390Y0181000D02*
X0108190Y0181000D01*
X0108190Y0191000D02*
X0113390Y0191000D01*
X0083390Y0191000D02*
X0078190Y0191000D01*
X0078190Y0181000D02*
X0083390Y0181000D01*
X0064790Y0204400D02*
X0064790Y0209600D01*
X0054790Y0209600D02*
X0054790Y0204400D01*
X0049790Y0191600D02*
X0049790Y0186400D01*
X0039790Y0186400D02*
X0039790Y0191600D01*
X0039790Y0227400D02*
X0039790Y0232600D01*
X0049790Y0232600D02*
X0049790Y0227400D01*
X0054790Y0250400D02*
X0054790Y0255600D01*
X0064790Y0255600D02*
X0064790Y0250400D01*
X0078190Y0141000D02*
X0083390Y0141000D01*
X0083390Y0131000D02*
X0078190Y0131000D01*
X0108190Y0131000D02*
X0113390Y0131000D01*
X0113390Y0141000D02*
X0108190Y0141000D01*
X0138190Y0126000D02*
X0143390Y0126000D01*
X0143390Y0116000D02*
X0138190Y0116000D01*
X0113390Y0101000D02*
X0108190Y0101000D01*
X0108190Y0091000D02*
X0113390Y0091000D01*
X0138190Y0081000D02*
X0143390Y0081000D01*
X0143390Y0071000D02*
X0138190Y0071000D01*
X0113390Y0051000D02*
X0108190Y0051000D01*
X0108190Y0041000D02*
X0113390Y0041000D01*
X0138190Y0031000D02*
X0143390Y0031000D01*
X0143390Y0021000D02*
X0138190Y0021000D01*
X0168190Y0021000D02*
X0173390Y0021000D01*
X0173390Y0031000D02*
X0168190Y0031000D01*
X0168190Y0071000D02*
X0173390Y0071000D01*
X0173390Y0081000D02*
X0168190Y0081000D01*
X0168190Y0116000D02*
X0173390Y0116000D01*
X0173390Y0126000D02*
X0168190Y0126000D01*
X0083390Y0101000D02*
X0078190Y0101000D01*
X0078190Y0091000D02*
X0083390Y0091000D01*
X0083390Y0051000D02*
X0078190Y0051000D01*
X0078190Y0041000D02*
X0083390Y0041000D01*
D13*
X0054315Y0031157D02*
X0047265Y0031157D01*
X0047265Y0050843D02*
X0054315Y0050843D01*
X0054315Y0071157D02*
X0047265Y0071157D01*
X0047265Y0090843D02*
X0054315Y0090843D01*
X0054315Y0111157D02*
X0047265Y0111157D01*
X0047265Y0130843D02*
X0054315Y0130843D01*
X0054315Y0151157D02*
X0047265Y0151157D01*
X0047265Y0170843D02*
X0054315Y0170843D01*
X0312265Y0125843D02*
X0319315Y0125843D01*
X0319315Y0106157D02*
X0312265Y0106157D01*
X0312265Y0085843D02*
X0319315Y0085843D01*
X0319315Y0066157D02*
X0312265Y0066157D01*
X0312265Y0045843D02*
X0319315Y0045843D01*
X0319315Y0026157D02*
X0312265Y0026157D01*
D14*
X0183790Y0217000D03*
X0178790Y0232000D03*
X0133790Y0217000D03*
X0125790Y0221000D03*
X0128790Y0232000D03*
X0124790Y0243000D03*
X0075790Y0221000D03*
X0074790Y0243000D03*
D15*
X0225790Y0164740D03*
X0225790Y0157260D03*
D16*
X0203290Y0189125D03*
X0198212Y0199425D03*
M02*
