%
M48
M72
T01C0.01181
T02C0.02400
T03C0.03200
T04C0.03937
T05C0.04700
%
T01
X37790Y26186
X339790Y24186
X340790Y263186
X35790Y269186
T02
X168241Y194043
T03
X170790Y188186
X170790Y178186
X140790Y178186
X140790Y188186
X110790Y193186
X110790Y203186
X100790Y222186
X80790Y203186
X80790Y193186
X49790Y201186
X39790Y201186
X39790Y219186
X49790Y219186
X49790Y237186
X39790Y237186
X39790Y255186
X49790Y255186
X74790Y255186
X124790Y255186
X142790Y242186
X150790Y222186
X168790Y224186
X192790Y242186
X218790Y224186
X215790Y206186
X209290Y198186
X201790Y193186
X201790Y203186
X218790Y161186
X209290Y148186
X201790Y143186
X201790Y153186
X170790Y138186
X170790Y128186
X140790Y128186
X140790Y138186
X110790Y143186
X110790Y153186
X80790Y153186
X80790Y143186
X80790Y113186
X80790Y103186
X110790Y103186
X110790Y113186
X140790Y93186
X140790Y83186
X170790Y83186
X170790Y93186
X201790Y88186
X209290Y93186
X201790Y98186
X218790Y107186
X268790Y107186
X279790Y89186
X264790Y55186
X279790Y39186
X214790Y55186
X201790Y43186
X209290Y38186
X201790Y33186
X170790Y33186
X170790Y43186
X140790Y43186
X140790Y33186
X110790Y53186
X110790Y63186
X80790Y63186
X80790Y53186
X268790Y161186
X265790Y206186
T04
X278586Y193186
X290790Y212084
X302601Y193186
T05
X50790Y183029
X50790Y163344
X50790Y143029
X50790Y123344
X50790Y103029
X50790Y83344
X50790Y63029
X50790Y43344
M30
