G75*
%MOIN*%
%OFA0B0*%
%FSLAX25Y25*%
%IPPOS*%
%LPD*%
%AMOC8*
5,1,8,0,0,1.08239X$1,22.5*
%
%ADD10C,0.00800*%
%ADD11C,0.00400*%
%ADD12C,0.00600*%
%ADD13C,0.01000*%
%ADD14C,0.00500*%
%ADD15C,0.02400*%
%ADD16R,0.03400X0.02400*%
%ADD17R,0.02400X0.03400*%
D10*
X0275436Y0176257D02*
X0275436Y0182556D01*
X0275436Y0176257D02*
X0331735Y0176257D01*
X0331735Y0210115D01*
X0300436Y0210115D01*
X0281735Y0210115D02*
X0275436Y0210115D01*
X0275436Y0203816D01*
X0310948Y0095627D02*
X0310948Y0088934D01*
X0310948Y0095627D02*
X0314885Y0095627D01*
X0326696Y0095627D02*
X0328271Y0095627D01*
X0328271Y0094446D01*
X0328271Y0051926D01*
X0329452Y0051926D01*
X0329452Y0050745D01*
X0332208Y0050745D01*
X0332208Y0095627D01*
X0329452Y0095627D01*
X0329452Y0094446D01*
X0328271Y0094446D01*
X0329452Y0060194D02*
X0329452Y0058619D01*
X0331026Y0059407D01*
X0329452Y0060194D01*
X0329452Y0059500D02*
X0330840Y0059500D01*
X0329616Y0058701D02*
X0329452Y0058701D01*
X0328271Y0051926D02*
X0328271Y0050745D01*
X0326696Y0050745D01*
X0314885Y0050745D02*
X0310948Y0050745D01*
X0310948Y0057438D01*
D11*
X0317269Y0057648D02*
X0317269Y0060717D01*
X0317269Y0062252D02*
X0321873Y0062252D01*
X0319571Y0062252D02*
X0319571Y0065321D01*
X0318804Y0066856D02*
X0317269Y0068390D01*
X0321873Y0068390D01*
X0321873Y0066856D02*
X0321873Y0069925D01*
X0321873Y0071460D02*
X0318804Y0074529D01*
X0318036Y0074529D01*
X0317269Y0073761D01*
X0317269Y0072227D01*
X0318036Y0071460D01*
X0321873Y0071460D02*
X0321873Y0074529D01*
X0319571Y0076063D02*
X0319571Y0079133D01*
X0321106Y0080667D02*
X0318036Y0080667D01*
X0317269Y0081435D01*
X0317269Y0082969D01*
X0318036Y0083737D01*
X0321106Y0080667D01*
X0321873Y0081435D01*
X0321873Y0082969D01*
X0321106Y0083737D01*
X0318036Y0083737D01*
X0318036Y0085271D02*
X0318804Y0085271D01*
X0319571Y0086039D01*
X0319571Y0087573D01*
X0320338Y0088341D01*
X0321106Y0088341D01*
X0321873Y0087573D01*
X0321873Y0086039D01*
X0321106Y0085271D01*
X0320338Y0085271D01*
X0319571Y0086039D01*
X0319571Y0087573D02*
X0318804Y0088341D01*
X0318036Y0088341D01*
X0317269Y0087573D01*
X0317269Y0086039D01*
X0318036Y0085271D01*
X0318036Y0089875D02*
X0318804Y0089875D01*
X0319571Y0090643D01*
X0319571Y0092177D01*
X0320338Y0092945D01*
X0321106Y0092945D01*
X0321873Y0092177D01*
X0321873Y0090643D01*
X0321106Y0089875D01*
X0318036Y0089875D02*
X0317269Y0090643D01*
X0317269Y0092177D01*
X0318036Y0092945D01*
X0319571Y0094479D02*
X0319571Y0097548D01*
X0318804Y0099083D02*
X0317269Y0100618D01*
X0321873Y0100618D01*
X0321873Y0102152D02*
X0321873Y0099083D01*
X0321106Y0103687D02*
X0321873Y0104454D01*
X0321873Y0105989D01*
X0321106Y0106756D01*
X0320338Y0106756D01*
X0319571Y0105989D01*
X0319571Y0104454D01*
X0318804Y0103687D01*
X0318036Y0103687D01*
X0317269Y0104454D01*
X0317269Y0105989D01*
X0318036Y0106756D01*
X0317269Y0108291D02*
X0321873Y0108291D01*
X0319571Y0108291D02*
X0319571Y0111360D01*
X0317269Y0111360D02*
X0321873Y0111360D01*
X0321873Y0065321D02*
X0317269Y0065321D01*
X0319571Y0059182D02*
X0319571Y0057648D01*
X0321873Y0057648D02*
X0317269Y0057648D01*
X0304468Y0058295D02*
X0303701Y0057527D01*
X0304468Y0058295D02*
X0304468Y0059829D01*
X0303701Y0060597D01*
X0302166Y0060597D01*
X0301399Y0059829D01*
X0301399Y0059062D01*
X0302166Y0057527D01*
X0299864Y0057527D01*
X0299864Y0060597D01*
X0299864Y0055993D02*
X0304468Y0052923D01*
X0304468Y0055993D02*
X0299864Y0052923D01*
X0298763Y0168386D02*
X0301065Y0168386D01*
X0301832Y0169154D01*
X0301832Y0172223D01*
X0301065Y0172990D01*
X0298763Y0172990D01*
X0298763Y0168386D01*
X0303367Y0169154D02*
X0304134Y0168386D01*
X0305669Y0168386D01*
X0306436Y0169154D01*
X0307971Y0169154D02*
X0308738Y0168386D01*
X0309505Y0168386D01*
X0310273Y0169154D01*
X0310273Y0172990D01*
X0311040Y0172990D02*
X0309505Y0172990D01*
X0306436Y0172223D02*
X0305669Y0172990D01*
X0304134Y0172990D01*
X0303367Y0172223D01*
X0303367Y0169154D01*
X0312575Y0169154D02*
X0315644Y0172223D01*
X0315644Y0169154D01*
X0314876Y0168386D01*
X0313342Y0168386D01*
X0312575Y0169154D01*
X0312575Y0172223D01*
X0313342Y0172990D01*
X0314876Y0172990D01*
X0315644Y0172223D01*
X0317178Y0172223D02*
X0317946Y0172990D01*
X0319480Y0172990D01*
X0320248Y0172223D01*
X0320248Y0171456D01*
X0317178Y0168386D01*
X0320248Y0168386D01*
X0321782Y0169154D02*
X0324852Y0172223D01*
X0324852Y0169154D01*
X0324084Y0168386D01*
X0322550Y0168386D01*
X0321782Y0169154D01*
X0321782Y0172223D01*
X0322550Y0172990D01*
X0324084Y0172990D01*
X0324852Y0172223D01*
X0326386Y0172223D02*
X0327154Y0172990D01*
X0328688Y0172990D01*
X0329456Y0172223D01*
X0329456Y0171456D01*
X0326386Y0168386D01*
X0329456Y0168386D01*
X0270590Y0179154D02*
X0269823Y0178386D01*
X0270590Y0179154D02*
X0270590Y0179921D01*
X0269823Y0180688D01*
X0265986Y0180688D01*
X0265986Y0179921D02*
X0265986Y0181456D01*
X0267521Y0182990D02*
X0265986Y0184525D01*
X0270590Y0184525D01*
X0270590Y0182990D02*
X0270590Y0186060D01*
D12*
X0031889Y0033545D02*
X0031089Y0033545D01*
X0031089Y0072844D01*
X0031889Y0072844D01*
X0057889Y0072844D01*
X0067290Y0072844D01*
X0067290Y0033545D01*
X0057889Y0033545D01*
X0031889Y0033545D01*
X0031889Y0072844D01*
X0031889Y0073545D02*
X0031089Y0073545D01*
X0031089Y0112844D01*
X0031889Y0112844D01*
X0057889Y0112844D01*
X0067290Y0112844D01*
X0067290Y0073545D01*
X0057889Y0073545D01*
X0031889Y0073545D01*
X0031889Y0112844D01*
X0031889Y0113545D02*
X0031089Y0113545D01*
X0031089Y0152844D01*
X0031889Y0152844D01*
X0057889Y0152844D01*
X0067290Y0152844D01*
X0067290Y0113545D01*
X0057889Y0113545D01*
X0031889Y0113545D01*
X0031889Y0152844D01*
X0031889Y0153545D02*
X0031089Y0153545D01*
X0031089Y0192844D01*
X0031889Y0192844D01*
X0057889Y0192844D01*
X0067290Y0192844D01*
X0067290Y0153545D01*
X0057889Y0153545D01*
X0031889Y0153545D01*
X0031889Y0192844D01*
X0032290Y0193686D02*
X0032290Y0208686D01*
X0057290Y0208686D01*
X0057290Y0193686D01*
X0032290Y0193686D01*
X0034290Y0195686D02*
X0034290Y0206686D01*
X0055290Y0206686D01*
X0055290Y0195686D01*
X0034290Y0195686D01*
X0035090Y0183044D02*
X0035092Y0183133D01*
X0035098Y0183222D01*
X0035108Y0183311D01*
X0035122Y0183399D01*
X0035139Y0183486D01*
X0035161Y0183572D01*
X0035187Y0183658D01*
X0035216Y0183742D01*
X0035249Y0183825D01*
X0035285Y0183906D01*
X0035326Y0183986D01*
X0035369Y0184063D01*
X0035416Y0184139D01*
X0035467Y0184212D01*
X0035520Y0184283D01*
X0035577Y0184352D01*
X0035637Y0184418D01*
X0035700Y0184482D01*
X0035765Y0184542D01*
X0035833Y0184600D01*
X0035904Y0184654D01*
X0035977Y0184705D01*
X0036052Y0184753D01*
X0036129Y0184798D01*
X0036208Y0184839D01*
X0036289Y0184876D01*
X0036371Y0184910D01*
X0036455Y0184941D01*
X0036540Y0184967D01*
X0036626Y0184990D01*
X0036713Y0185008D01*
X0036801Y0185023D01*
X0036890Y0185034D01*
X0036979Y0185041D01*
X0037068Y0185044D01*
X0037157Y0185043D01*
X0037246Y0185038D01*
X0037334Y0185029D01*
X0037423Y0185016D01*
X0037510Y0184999D01*
X0037597Y0184979D01*
X0037683Y0184954D01*
X0037767Y0184926D01*
X0037850Y0184894D01*
X0037932Y0184858D01*
X0038012Y0184819D01*
X0038090Y0184776D01*
X0038166Y0184730D01*
X0038240Y0184680D01*
X0038312Y0184627D01*
X0038381Y0184571D01*
X0038448Y0184512D01*
X0038512Y0184450D01*
X0038573Y0184386D01*
X0038632Y0184318D01*
X0038687Y0184248D01*
X0038739Y0184176D01*
X0038788Y0184101D01*
X0038833Y0184025D01*
X0038875Y0183946D01*
X0038913Y0183866D01*
X0038948Y0183784D01*
X0038979Y0183700D01*
X0039007Y0183615D01*
X0039030Y0183529D01*
X0039050Y0183442D01*
X0039066Y0183355D01*
X0039078Y0183266D01*
X0039086Y0183178D01*
X0039090Y0183089D01*
X0039090Y0182999D01*
X0039086Y0182910D01*
X0039078Y0182822D01*
X0039066Y0182733D01*
X0039050Y0182646D01*
X0039030Y0182559D01*
X0039007Y0182473D01*
X0038979Y0182388D01*
X0038948Y0182304D01*
X0038913Y0182222D01*
X0038875Y0182142D01*
X0038833Y0182063D01*
X0038788Y0181987D01*
X0038739Y0181912D01*
X0038687Y0181840D01*
X0038632Y0181770D01*
X0038573Y0181702D01*
X0038512Y0181638D01*
X0038448Y0181576D01*
X0038381Y0181517D01*
X0038312Y0181461D01*
X0038240Y0181408D01*
X0038166Y0181358D01*
X0038090Y0181312D01*
X0038012Y0181269D01*
X0037932Y0181230D01*
X0037850Y0181194D01*
X0037767Y0181162D01*
X0037683Y0181134D01*
X0037597Y0181109D01*
X0037510Y0181089D01*
X0037423Y0181072D01*
X0037334Y0181059D01*
X0037246Y0181050D01*
X0037157Y0181045D01*
X0037068Y0181044D01*
X0036979Y0181047D01*
X0036890Y0181054D01*
X0036801Y0181065D01*
X0036713Y0181080D01*
X0036626Y0181098D01*
X0036540Y0181121D01*
X0036455Y0181147D01*
X0036371Y0181178D01*
X0036289Y0181212D01*
X0036208Y0181249D01*
X0036129Y0181290D01*
X0036052Y0181335D01*
X0035977Y0181383D01*
X0035904Y0181434D01*
X0035833Y0181488D01*
X0035765Y0181546D01*
X0035700Y0181606D01*
X0035637Y0181670D01*
X0035577Y0181736D01*
X0035520Y0181805D01*
X0035467Y0181876D01*
X0035416Y0181949D01*
X0035369Y0182025D01*
X0035326Y0182102D01*
X0035285Y0182182D01*
X0035249Y0182263D01*
X0035216Y0182346D01*
X0035187Y0182430D01*
X0035161Y0182516D01*
X0035139Y0182602D01*
X0035122Y0182689D01*
X0035108Y0182777D01*
X0035098Y0182866D01*
X0035092Y0182955D01*
X0035090Y0183044D01*
X0035090Y0163344D02*
X0035092Y0163433D01*
X0035098Y0163522D01*
X0035108Y0163611D01*
X0035122Y0163699D01*
X0035139Y0163786D01*
X0035161Y0163872D01*
X0035187Y0163958D01*
X0035216Y0164042D01*
X0035249Y0164125D01*
X0035285Y0164206D01*
X0035326Y0164286D01*
X0035369Y0164363D01*
X0035416Y0164439D01*
X0035467Y0164512D01*
X0035520Y0164583D01*
X0035577Y0164652D01*
X0035637Y0164718D01*
X0035700Y0164782D01*
X0035765Y0164842D01*
X0035833Y0164900D01*
X0035904Y0164954D01*
X0035977Y0165005D01*
X0036052Y0165053D01*
X0036129Y0165098D01*
X0036208Y0165139D01*
X0036289Y0165176D01*
X0036371Y0165210D01*
X0036455Y0165241D01*
X0036540Y0165267D01*
X0036626Y0165290D01*
X0036713Y0165308D01*
X0036801Y0165323D01*
X0036890Y0165334D01*
X0036979Y0165341D01*
X0037068Y0165344D01*
X0037157Y0165343D01*
X0037246Y0165338D01*
X0037334Y0165329D01*
X0037423Y0165316D01*
X0037510Y0165299D01*
X0037597Y0165279D01*
X0037683Y0165254D01*
X0037767Y0165226D01*
X0037850Y0165194D01*
X0037932Y0165158D01*
X0038012Y0165119D01*
X0038090Y0165076D01*
X0038166Y0165030D01*
X0038240Y0164980D01*
X0038312Y0164927D01*
X0038381Y0164871D01*
X0038448Y0164812D01*
X0038512Y0164750D01*
X0038573Y0164686D01*
X0038632Y0164618D01*
X0038687Y0164548D01*
X0038739Y0164476D01*
X0038788Y0164401D01*
X0038833Y0164325D01*
X0038875Y0164246D01*
X0038913Y0164166D01*
X0038948Y0164084D01*
X0038979Y0164000D01*
X0039007Y0163915D01*
X0039030Y0163829D01*
X0039050Y0163742D01*
X0039066Y0163655D01*
X0039078Y0163566D01*
X0039086Y0163478D01*
X0039090Y0163389D01*
X0039090Y0163299D01*
X0039086Y0163210D01*
X0039078Y0163122D01*
X0039066Y0163033D01*
X0039050Y0162946D01*
X0039030Y0162859D01*
X0039007Y0162773D01*
X0038979Y0162688D01*
X0038948Y0162604D01*
X0038913Y0162522D01*
X0038875Y0162442D01*
X0038833Y0162363D01*
X0038788Y0162287D01*
X0038739Y0162212D01*
X0038687Y0162140D01*
X0038632Y0162070D01*
X0038573Y0162002D01*
X0038512Y0161938D01*
X0038448Y0161876D01*
X0038381Y0161817D01*
X0038312Y0161761D01*
X0038240Y0161708D01*
X0038166Y0161658D01*
X0038090Y0161612D01*
X0038012Y0161569D01*
X0037932Y0161530D01*
X0037850Y0161494D01*
X0037767Y0161462D01*
X0037683Y0161434D01*
X0037597Y0161409D01*
X0037510Y0161389D01*
X0037423Y0161372D01*
X0037334Y0161359D01*
X0037246Y0161350D01*
X0037157Y0161345D01*
X0037068Y0161344D01*
X0036979Y0161347D01*
X0036890Y0161354D01*
X0036801Y0161365D01*
X0036713Y0161380D01*
X0036626Y0161398D01*
X0036540Y0161421D01*
X0036455Y0161447D01*
X0036371Y0161478D01*
X0036289Y0161512D01*
X0036208Y0161549D01*
X0036129Y0161590D01*
X0036052Y0161635D01*
X0035977Y0161683D01*
X0035904Y0161734D01*
X0035833Y0161788D01*
X0035765Y0161846D01*
X0035700Y0161906D01*
X0035637Y0161970D01*
X0035577Y0162036D01*
X0035520Y0162105D01*
X0035467Y0162176D01*
X0035416Y0162249D01*
X0035369Y0162325D01*
X0035326Y0162402D01*
X0035285Y0162482D01*
X0035249Y0162563D01*
X0035216Y0162646D01*
X0035187Y0162730D01*
X0035161Y0162816D01*
X0035139Y0162902D01*
X0035122Y0162989D01*
X0035108Y0163077D01*
X0035098Y0163166D01*
X0035092Y0163255D01*
X0035090Y0163344D01*
X0035090Y0143044D02*
X0035092Y0143133D01*
X0035098Y0143222D01*
X0035108Y0143311D01*
X0035122Y0143399D01*
X0035139Y0143486D01*
X0035161Y0143572D01*
X0035187Y0143658D01*
X0035216Y0143742D01*
X0035249Y0143825D01*
X0035285Y0143906D01*
X0035326Y0143986D01*
X0035369Y0144063D01*
X0035416Y0144139D01*
X0035467Y0144212D01*
X0035520Y0144283D01*
X0035577Y0144352D01*
X0035637Y0144418D01*
X0035700Y0144482D01*
X0035765Y0144542D01*
X0035833Y0144600D01*
X0035904Y0144654D01*
X0035977Y0144705D01*
X0036052Y0144753D01*
X0036129Y0144798D01*
X0036208Y0144839D01*
X0036289Y0144876D01*
X0036371Y0144910D01*
X0036455Y0144941D01*
X0036540Y0144967D01*
X0036626Y0144990D01*
X0036713Y0145008D01*
X0036801Y0145023D01*
X0036890Y0145034D01*
X0036979Y0145041D01*
X0037068Y0145044D01*
X0037157Y0145043D01*
X0037246Y0145038D01*
X0037334Y0145029D01*
X0037423Y0145016D01*
X0037510Y0144999D01*
X0037597Y0144979D01*
X0037683Y0144954D01*
X0037767Y0144926D01*
X0037850Y0144894D01*
X0037932Y0144858D01*
X0038012Y0144819D01*
X0038090Y0144776D01*
X0038166Y0144730D01*
X0038240Y0144680D01*
X0038312Y0144627D01*
X0038381Y0144571D01*
X0038448Y0144512D01*
X0038512Y0144450D01*
X0038573Y0144386D01*
X0038632Y0144318D01*
X0038687Y0144248D01*
X0038739Y0144176D01*
X0038788Y0144101D01*
X0038833Y0144025D01*
X0038875Y0143946D01*
X0038913Y0143866D01*
X0038948Y0143784D01*
X0038979Y0143700D01*
X0039007Y0143615D01*
X0039030Y0143529D01*
X0039050Y0143442D01*
X0039066Y0143355D01*
X0039078Y0143266D01*
X0039086Y0143178D01*
X0039090Y0143089D01*
X0039090Y0142999D01*
X0039086Y0142910D01*
X0039078Y0142822D01*
X0039066Y0142733D01*
X0039050Y0142646D01*
X0039030Y0142559D01*
X0039007Y0142473D01*
X0038979Y0142388D01*
X0038948Y0142304D01*
X0038913Y0142222D01*
X0038875Y0142142D01*
X0038833Y0142063D01*
X0038788Y0141987D01*
X0038739Y0141912D01*
X0038687Y0141840D01*
X0038632Y0141770D01*
X0038573Y0141702D01*
X0038512Y0141638D01*
X0038448Y0141576D01*
X0038381Y0141517D01*
X0038312Y0141461D01*
X0038240Y0141408D01*
X0038166Y0141358D01*
X0038090Y0141312D01*
X0038012Y0141269D01*
X0037932Y0141230D01*
X0037850Y0141194D01*
X0037767Y0141162D01*
X0037683Y0141134D01*
X0037597Y0141109D01*
X0037510Y0141089D01*
X0037423Y0141072D01*
X0037334Y0141059D01*
X0037246Y0141050D01*
X0037157Y0141045D01*
X0037068Y0141044D01*
X0036979Y0141047D01*
X0036890Y0141054D01*
X0036801Y0141065D01*
X0036713Y0141080D01*
X0036626Y0141098D01*
X0036540Y0141121D01*
X0036455Y0141147D01*
X0036371Y0141178D01*
X0036289Y0141212D01*
X0036208Y0141249D01*
X0036129Y0141290D01*
X0036052Y0141335D01*
X0035977Y0141383D01*
X0035904Y0141434D01*
X0035833Y0141488D01*
X0035765Y0141546D01*
X0035700Y0141606D01*
X0035637Y0141670D01*
X0035577Y0141736D01*
X0035520Y0141805D01*
X0035467Y0141876D01*
X0035416Y0141949D01*
X0035369Y0142025D01*
X0035326Y0142102D01*
X0035285Y0142182D01*
X0035249Y0142263D01*
X0035216Y0142346D01*
X0035187Y0142430D01*
X0035161Y0142516D01*
X0035139Y0142602D01*
X0035122Y0142689D01*
X0035108Y0142777D01*
X0035098Y0142866D01*
X0035092Y0142955D01*
X0035090Y0143044D01*
X0035090Y0123344D02*
X0035092Y0123433D01*
X0035098Y0123522D01*
X0035108Y0123611D01*
X0035122Y0123699D01*
X0035139Y0123786D01*
X0035161Y0123872D01*
X0035187Y0123958D01*
X0035216Y0124042D01*
X0035249Y0124125D01*
X0035285Y0124206D01*
X0035326Y0124286D01*
X0035369Y0124363D01*
X0035416Y0124439D01*
X0035467Y0124512D01*
X0035520Y0124583D01*
X0035577Y0124652D01*
X0035637Y0124718D01*
X0035700Y0124782D01*
X0035765Y0124842D01*
X0035833Y0124900D01*
X0035904Y0124954D01*
X0035977Y0125005D01*
X0036052Y0125053D01*
X0036129Y0125098D01*
X0036208Y0125139D01*
X0036289Y0125176D01*
X0036371Y0125210D01*
X0036455Y0125241D01*
X0036540Y0125267D01*
X0036626Y0125290D01*
X0036713Y0125308D01*
X0036801Y0125323D01*
X0036890Y0125334D01*
X0036979Y0125341D01*
X0037068Y0125344D01*
X0037157Y0125343D01*
X0037246Y0125338D01*
X0037334Y0125329D01*
X0037423Y0125316D01*
X0037510Y0125299D01*
X0037597Y0125279D01*
X0037683Y0125254D01*
X0037767Y0125226D01*
X0037850Y0125194D01*
X0037932Y0125158D01*
X0038012Y0125119D01*
X0038090Y0125076D01*
X0038166Y0125030D01*
X0038240Y0124980D01*
X0038312Y0124927D01*
X0038381Y0124871D01*
X0038448Y0124812D01*
X0038512Y0124750D01*
X0038573Y0124686D01*
X0038632Y0124618D01*
X0038687Y0124548D01*
X0038739Y0124476D01*
X0038788Y0124401D01*
X0038833Y0124325D01*
X0038875Y0124246D01*
X0038913Y0124166D01*
X0038948Y0124084D01*
X0038979Y0124000D01*
X0039007Y0123915D01*
X0039030Y0123829D01*
X0039050Y0123742D01*
X0039066Y0123655D01*
X0039078Y0123566D01*
X0039086Y0123478D01*
X0039090Y0123389D01*
X0039090Y0123299D01*
X0039086Y0123210D01*
X0039078Y0123122D01*
X0039066Y0123033D01*
X0039050Y0122946D01*
X0039030Y0122859D01*
X0039007Y0122773D01*
X0038979Y0122688D01*
X0038948Y0122604D01*
X0038913Y0122522D01*
X0038875Y0122442D01*
X0038833Y0122363D01*
X0038788Y0122287D01*
X0038739Y0122212D01*
X0038687Y0122140D01*
X0038632Y0122070D01*
X0038573Y0122002D01*
X0038512Y0121938D01*
X0038448Y0121876D01*
X0038381Y0121817D01*
X0038312Y0121761D01*
X0038240Y0121708D01*
X0038166Y0121658D01*
X0038090Y0121612D01*
X0038012Y0121569D01*
X0037932Y0121530D01*
X0037850Y0121494D01*
X0037767Y0121462D01*
X0037683Y0121434D01*
X0037597Y0121409D01*
X0037510Y0121389D01*
X0037423Y0121372D01*
X0037334Y0121359D01*
X0037246Y0121350D01*
X0037157Y0121345D01*
X0037068Y0121344D01*
X0036979Y0121347D01*
X0036890Y0121354D01*
X0036801Y0121365D01*
X0036713Y0121380D01*
X0036626Y0121398D01*
X0036540Y0121421D01*
X0036455Y0121447D01*
X0036371Y0121478D01*
X0036289Y0121512D01*
X0036208Y0121549D01*
X0036129Y0121590D01*
X0036052Y0121635D01*
X0035977Y0121683D01*
X0035904Y0121734D01*
X0035833Y0121788D01*
X0035765Y0121846D01*
X0035700Y0121906D01*
X0035637Y0121970D01*
X0035577Y0122036D01*
X0035520Y0122105D01*
X0035467Y0122176D01*
X0035416Y0122249D01*
X0035369Y0122325D01*
X0035326Y0122402D01*
X0035285Y0122482D01*
X0035249Y0122563D01*
X0035216Y0122646D01*
X0035187Y0122730D01*
X0035161Y0122816D01*
X0035139Y0122902D01*
X0035122Y0122989D01*
X0035108Y0123077D01*
X0035098Y0123166D01*
X0035092Y0123255D01*
X0035090Y0123344D01*
X0057889Y0126844D02*
X0057889Y0139545D01*
X0057889Y0146545D02*
X0057889Y0152844D01*
X0057889Y0153545D02*
X0057889Y0159844D01*
X0057889Y0166844D02*
X0057889Y0179545D01*
X0057889Y0186545D02*
X0057889Y0192844D01*
X0057290Y0211686D02*
X0057290Y0226686D01*
X0032290Y0226686D01*
X0032290Y0211686D01*
X0057290Y0211686D01*
X0055290Y0213686D02*
X0055290Y0224686D01*
X0034290Y0224686D01*
X0034290Y0213686D01*
X0055290Y0213686D01*
X0057290Y0229686D02*
X0032290Y0229686D01*
X0032290Y0244686D01*
X0057290Y0244686D01*
X0057290Y0229686D01*
X0055290Y0231686D02*
X0055290Y0242686D01*
X0034290Y0242686D01*
X0034290Y0231686D01*
X0055290Y0231686D01*
X0057290Y0247686D02*
X0032290Y0247686D01*
X0032290Y0262686D01*
X0057290Y0262686D01*
X0057290Y0247686D01*
X0055290Y0249686D02*
X0055290Y0260686D01*
X0034290Y0260686D01*
X0034290Y0249686D01*
X0055290Y0249686D01*
X0087290Y0251686D02*
X0087290Y0258686D01*
X0087292Y0258746D01*
X0087297Y0258807D01*
X0087306Y0258866D01*
X0087319Y0258925D01*
X0087335Y0258984D01*
X0087355Y0259041D01*
X0087378Y0259096D01*
X0087405Y0259151D01*
X0087434Y0259203D01*
X0087467Y0259254D01*
X0087503Y0259303D01*
X0087541Y0259349D01*
X0087583Y0259393D01*
X0087627Y0259435D01*
X0087673Y0259473D01*
X0087722Y0259509D01*
X0087773Y0259542D01*
X0087825Y0259571D01*
X0087880Y0259598D01*
X0087935Y0259621D01*
X0087992Y0259641D01*
X0088051Y0259657D01*
X0088110Y0259670D01*
X0088169Y0259679D01*
X0088230Y0259684D01*
X0088290Y0259686D01*
X0089790Y0259686D01*
X0090290Y0259186D01*
X0109290Y0259186D01*
X0109790Y0259686D01*
X0111290Y0259686D01*
X0111350Y0259684D01*
X0111411Y0259679D01*
X0111470Y0259670D01*
X0111529Y0259657D01*
X0111588Y0259641D01*
X0111645Y0259621D01*
X0111700Y0259598D01*
X0111755Y0259571D01*
X0111807Y0259542D01*
X0111858Y0259509D01*
X0111907Y0259473D01*
X0111953Y0259435D01*
X0111997Y0259393D01*
X0112039Y0259349D01*
X0112077Y0259303D01*
X0112113Y0259254D01*
X0112146Y0259203D01*
X0112175Y0259151D01*
X0112202Y0259096D01*
X0112225Y0259041D01*
X0112245Y0258984D01*
X0112261Y0258925D01*
X0112274Y0258866D01*
X0112283Y0258807D01*
X0112288Y0258746D01*
X0112290Y0258686D01*
X0112290Y0251686D01*
X0112288Y0251626D01*
X0112283Y0251565D01*
X0112274Y0251506D01*
X0112261Y0251447D01*
X0112245Y0251388D01*
X0112225Y0251331D01*
X0112202Y0251276D01*
X0112175Y0251221D01*
X0112146Y0251169D01*
X0112113Y0251118D01*
X0112077Y0251069D01*
X0112039Y0251023D01*
X0111997Y0250979D01*
X0111953Y0250937D01*
X0111907Y0250899D01*
X0111858Y0250863D01*
X0111807Y0250830D01*
X0111755Y0250801D01*
X0111700Y0250774D01*
X0111645Y0250751D01*
X0111588Y0250731D01*
X0111529Y0250715D01*
X0111470Y0250702D01*
X0111411Y0250693D01*
X0111350Y0250688D01*
X0111290Y0250686D01*
X0109790Y0250686D01*
X0109290Y0251186D01*
X0090290Y0251186D01*
X0089790Y0250686D01*
X0088290Y0250686D01*
X0088230Y0250688D01*
X0088169Y0250693D01*
X0088110Y0250702D01*
X0088051Y0250715D01*
X0087992Y0250731D01*
X0087935Y0250751D01*
X0087880Y0250774D01*
X0087825Y0250801D01*
X0087773Y0250830D01*
X0087722Y0250863D01*
X0087673Y0250899D01*
X0087627Y0250937D01*
X0087583Y0250979D01*
X0087541Y0251023D01*
X0087503Y0251069D01*
X0087467Y0251118D01*
X0087434Y0251169D01*
X0087405Y0251221D01*
X0087378Y0251276D01*
X0087355Y0251331D01*
X0087335Y0251388D01*
X0087319Y0251447D01*
X0087306Y0251506D01*
X0087297Y0251565D01*
X0087292Y0251626D01*
X0087290Y0251686D01*
X0114290Y0226686D02*
X0115790Y0226686D01*
X0116290Y0226186D01*
X0135290Y0226186D01*
X0135790Y0226686D01*
X0137290Y0226686D01*
X0137350Y0226684D01*
X0137411Y0226679D01*
X0137470Y0226670D01*
X0137529Y0226657D01*
X0137588Y0226641D01*
X0137645Y0226621D01*
X0137700Y0226598D01*
X0137755Y0226571D01*
X0137807Y0226542D01*
X0137858Y0226509D01*
X0137907Y0226473D01*
X0137953Y0226435D01*
X0137997Y0226393D01*
X0138039Y0226349D01*
X0138077Y0226303D01*
X0138113Y0226254D01*
X0138146Y0226203D01*
X0138175Y0226151D01*
X0138202Y0226096D01*
X0138225Y0226041D01*
X0138245Y0225984D01*
X0138261Y0225925D01*
X0138274Y0225866D01*
X0138283Y0225807D01*
X0138288Y0225746D01*
X0138290Y0225686D01*
X0138290Y0218686D01*
X0138288Y0218626D01*
X0138283Y0218565D01*
X0138274Y0218506D01*
X0138261Y0218447D01*
X0138245Y0218388D01*
X0138225Y0218331D01*
X0138202Y0218276D01*
X0138175Y0218221D01*
X0138146Y0218169D01*
X0138113Y0218118D01*
X0138077Y0218069D01*
X0138039Y0218023D01*
X0137997Y0217979D01*
X0137953Y0217937D01*
X0137907Y0217899D01*
X0137858Y0217863D01*
X0137807Y0217830D01*
X0137755Y0217801D01*
X0137700Y0217774D01*
X0137645Y0217751D01*
X0137588Y0217731D01*
X0137529Y0217715D01*
X0137470Y0217702D01*
X0137411Y0217693D01*
X0137350Y0217688D01*
X0137290Y0217686D01*
X0135790Y0217686D01*
X0135290Y0218186D01*
X0116290Y0218186D01*
X0115790Y0217686D01*
X0114290Y0217686D01*
X0114230Y0217688D01*
X0114169Y0217693D01*
X0114110Y0217702D01*
X0114051Y0217715D01*
X0113992Y0217731D01*
X0113935Y0217751D01*
X0113880Y0217774D01*
X0113825Y0217801D01*
X0113773Y0217830D01*
X0113722Y0217863D01*
X0113673Y0217899D01*
X0113627Y0217937D01*
X0113583Y0217979D01*
X0113541Y0218023D01*
X0113503Y0218069D01*
X0113467Y0218118D01*
X0113434Y0218169D01*
X0113405Y0218221D01*
X0113378Y0218276D01*
X0113355Y0218331D01*
X0113335Y0218388D01*
X0113319Y0218447D01*
X0113306Y0218506D01*
X0113297Y0218565D01*
X0113292Y0218626D01*
X0113290Y0218686D01*
X0113290Y0225686D01*
X0113292Y0225746D01*
X0113297Y0225807D01*
X0113306Y0225866D01*
X0113319Y0225925D01*
X0113335Y0225984D01*
X0113355Y0226041D01*
X0113378Y0226096D01*
X0113405Y0226151D01*
X0113434Y0226203D01*
X0113467Y0226254D01*
X0113503Y0226303D01*
X0113541Y0226349D01*
X0113583Y0226393D01*
X0113627Y0226435D01*
X0113673Y0226473D01*
X0113722Y0226509D01*
X0113773Y0226542D01*
X0113825Y0226571D01*
X0113880Y0226598D01*
X0113935Y0226621D01*
X0113992Y0226641D01*
X0114051Y0226657D01*
X0114110Y0226670D01*
X0114169Y0226679D01*
X0114230Y0226684D01*
X0114290Y0226686D01*
X0106790Y0211186D02*
X0084790Y0211186D01*
X0084790Y0135186D01*
X0093290Y0135186D01*
X0098290Y0135186D01*
X0106790Y0135186D01*
X0106790Y0211186D01*
X0090790Y0203186D02*
X0090790Y0179186D01*
X0089790Y0178186D01*
X0090790Y0177186D01*
X0090790Y0179186D01*
X0100790Y0175686D02*
X0100790Y0193186D01*
X0105790Y0193186D01*
X0090790Y0203186D02*
X0085790Y0203186D01*
X0103290Y0175686D02*
X0098290Y0170686D01*
X0100790Y0170686D02*
X0100790Y0153186D01*
X0105790Y0153186D01*
X0090790Y0143186D02*
X0090790Y0168186D01*
X0090790Y0143186D02*
X0085790Y0143186D01*
X0093290Y0136686D02*
X0093290Y0135186D01*
X0093290Y0136686D02*
X0093292Y0136784D01*
X0093298Y0136882D01*
X0093307Y0136980D01*
X0093321Y0137077D01*
X0093338Y0137174D01*
X0093359Y0137270D01*
X0093384Y0137365D01*
X0093412Y0137459D01*
X0093445Y0137551D01*
X0093480Y0137643D01*
X0093520Y0137733D01*
X0093562Y0137821D01*
X0093609Y0137908D01*
X0093658Y0137992D01*
X0093711Y0138075D01*
X0093767Y0138155D01*
X0093827Y0138234D01*
X0093889Y0138310D01*
X0093954Y0138383D01*
X0094022Y0138454D01*
X0094093Y0138522D01*
X0094166Y0138587D01*
X0094242Y0138649D01*
X0094321Y0138709D01*
X0094401Y0138765D01*
X0094484Y0138818D01*
X0094568Y0138867D01*
X0094655Y0138914D01*
X0094743Y0138956D01*
X0094833Y0138996D01*
X0094925Y0139031D01*
X0095017Y0139064D01*
X0095111Y0139092D01*
X0095206Y0139117D01*
X0095302Y0139138D01*
X0095399Y0139155D01*
X0095496Y0139169D01*
X0095594Y0139178D01*
X0095692Y0139184D01*
X0095790Y0139186D01*
X0095888Y0139184D01*
X0095986Y0139178D01*
X0096084Y0139169D01*
X0096181Y0139155D01*
X0096278Y0139138D01*
X0096374Y0139117D01*
X0096469Y0139092D01*
X0096563Y0139064D01*
X0096655Y0139031D01*
X0096747Y0138996D01*
X0096837Y0138956D01*
X0096925Y0138914D01*
X0097012Y0138867D01*
X0097096Y0138818D01*
X0097179Y0138765D01*
X0097259Y0138709D01*
X0097338Y0138649D01*
X0097414Y0138587D01*
X0097487Y0138522D01*
X0097558Y0138454D01*
X0097626Y0138383D01*
X0097691Y0138310D01*
X0097753Y0138234D01*
X0097813Y0138155D01*
X0097869Y0138075D01*
X0097922Y0137992D01*
X0097971Y0137908D01*
X0098018Y0137821D01*
X0098060Y0137733D01*
X0098100Y0137643D01*
X0098135Y0137551D01*
X0098168Y0137459D01*
X0098196Y0137365D01*
X0098221Y0137270D01*
X0098242Y0137174D01*
X0098259Y0137077D01*
X0098273Y0136980D01*
X0098282Y0136882D01*
X0098288Y0136784D01*
X0098290Y0136686D01*
X0098290Y0135186D01*
X0106790Y0121186D02*
X0084790Y0121186D01*
X0084790Y0045186D01*
X0093290Y0045186D01*
X0098290Y0045186D01*
X0106790Y0045186D01*
X0106790Y0121186D01*
X0090790Y0113186D02*
X0090790Y0089186D01*
X0089790Y0088186D01*
X0090790Y0087186D01*
X0090790Y0089186D01*
X0100790Y0085686D02*
X0100790Y0103186D01*
X0105790Y0103186D01*
X0090790Y0113186D02*
X0085790Y0113186D01*
X0057889Y0112844D02*
X0057889Y0106545D01*
X0057889Y0113545D02*
X0057889Y0119844D01*
X0035090Y0103044D02*
X0035092Y0103133D01*
X0035098Y0103222D01*
X0035108Y0103311D01*
X0035122Y0103399D01*
X0035139Y0103486D01*
X0035161Y0103572D01*
X0035187Y0103658D01*
X0035216Y0103742D01*
X0035249Y0103825D01*
X0035285Y0103906D01*
X0035326Y0103986D01*
X0035369Y0104063D01*
X0035416Y0104139D01*
X0035467Y0104212D01*
X0035520Y0104283D01*
X0035577Y0104352D01*
X0035637Y0104418D01*
X0035700Y0104482D01*
X0035765Y0104542D01*
X0035833Y0104600D01*
X0035904Y0104654D01*
X0035977Y0104705D01*
X0036052Y0104753D01*
X0036129Y0104798D01*
X0036208Y0104839D01*
X0036289Y0104876D01*
X0036371Y0104910D01*
X0036455Y0104941D01*
X0036540Y0104967D01*
X0036626Y0104990D01*
X0036713Y0105008D01*
X0036801Y0105023D01*
X0036890Y0105034D01*
X0036979Y0105041D01*
X0037068Y0105044D01*
X0037157Y0105043D01*
X0037246Y0105038D01*
X0037334Y0105029D01*
X0037423Y0105016D01*
X0037510Y0104999D01*
X0037597Y0104979D01*
X0037683Y0104954D01*
X0037767Y0104926D01*
X0037850Y0104894D01*
X0037932Y0104858D01*
X0038012Y0104819D01*
X0038090Y0104776D01*
X0038166Y0104730D01*
X0038240Y0104680D01*
X0038312Y0104627D01*
X0038381Y0104571D01*
X0038448Y0104512D01*
X0038512Y0104450D01*
X0038573Y0104386D01*
X0038632Y0104318D01*
X0038687Y0104248D01*
X0038739Y0104176D01*
X0038788Y0104101D01*
X0038833Y0104025D01*
X0038875Y0103946D01*
X0038913Y0103866D01*
X0038948Y0103784D01*
X0038979Y0103700D01*
X0039007Y0103615D01*
X0039030Y0103529D01*
X0039050Y0103442D01*
X0039066Y0103355D01*
X0039078Y0103266D01*
X0039086Y0103178D01*
X0039090Y0103089D01*
X0039090Y0102999D01*
X0039086Y0102910D01*
X0039078Y0102822D01*
X0039066Y0102733D01*
X0039050Y0102646D01*
X0039030Y0102559D01*
X0039007Y0102473D01*
X0038979Y0102388D01*
X0038948Y0102304D01*
X0038913Y0102222D01*
X0038875Y0102142D01*
X0038833Y0102063D01*
X0038788Y0101987D01*
X0038739Y0101912D01*
X0038687Y0101840D01*
X0038632Y0101770D01*
X0038573Y0101702D01*
X0038512Y0101638D01*
X0038448Y0101576D01*
X0038381Y0101517D01*
X0038312Y0101461D01*
X0038240Y0101408D01*
X0038166Y0101358D01*
X0038090Y0101312D01*
X0038012Y0101269D01*
X0037932Y0101230D01*
X0037850Y0101194D01*
X0037767Y0101162D01*
X0037683Y0101134D01*
X0037597Y0101109D01*
X0037510Y0101089D01*
X0037423Y0101072D01*
X0037334Y0101059D01*
X0037246Y0101050D01*
X0037157Y0101045D01*
X0037068Y0101044D01*
X0036979Y0101047D01*
X0036890Y0101054D01*
X0036801Y0101065D01*
X0036713Y0101080D01*
X0036626Y0101098D01*
X0036540Y0101121D01*
X0036455Y0101147D01*
X0036371Y0101178D01*
X0036289Y0101212D01*
X0036208Y0101249D01*
X0036129Y0101290D01*
X0036052Y0101335D01*
X0035977Y0101383D01*
X0035904Y0101434D01*
X0035833Y0101488D01*
X0035765Y0101546D01*
X0035700Y0101606D01*
X0035637Y0101670D01*
X0035577Y0101736D01*
X0035520Y0101805D01*
X0035467Y0101876D01*
X0035416Y0101949D01*
X0035369Y0102025D01*
X0035326Y0102102D01*
X0035285Y0102182D01*
X0035249Y0102263D01*
X0035216Y0102346D01*
X0035187Y0102430D01*
X0035161Y0102516D01*
X0035139Y0102602D01*
X0035122Y0102689D01*
X0035108Y0102777D01*
X0035098Y0102866D01*
X0035092Y0102955D01*
X0035090Y0103044D01*
X0035090Y0083344D02*
X0035092Y0083433D01*
X0035098Y0083522D01*
X0035108Y0083611D01*
X0035122Y0083699D01*
X0035139Y0083786D01*
X0035161Y0083872D01*
X0035187Y0083958D01*
X0035216Y0084042D01*
X0035249Y0084125D01*
X0035285Y0084206D01*
X0035326Y0084286D01*
X0035369Y0084363D01*
X0035416Y0084439D01*
X0035467Y0084512D01*
X0035520Y0084583D01*
X0035577Y0084652D01*
X0035637Y0084718D01*
X0035700Y0084782D01*
X0035765Y0084842D01*
X0035833Y0084900D01*
X0035904Y0084954D01*
X0035977Y0085005D01*
X0036052Y0085053D01*
X0036129Y0085098D01*
X0036208Y0085139D01*
X0036289Y0085176D01*
X0036371Y0085210D01*
X0036455Y0085241D01*
X0036540Y0085267D01*
X0036626Y0085290D01*
X0036713Y0085308D01*
X0036801Y0085323D01*
X0036890Y0085334D01*
X0036979Y0085341D01*
X0037068Y0085344D01*
X0037157Y0085343D01*
X0037246Y0085338D01*
X0037334Y0085329D01*
X0037423Y0085316D01*
X0037510Y0085299D01*
X0037597Y0085279D01*
X0037683Y0085254D01*
X0037767Y0085226D01*
X0037850Y0085194D01*
X0037932Y0085158D01*
X0038012Y0085119D01*
X0038090Y0085076D01*
X0038166Y0085030D01*
X0038240Y0084980D01*
X0038312Y0084927D01*
X0038381Y0084871D01*
X0038448Y0084812D01*
X0038512Y0084750D01*
X0038573Y0084686D01*
X0038632Y0084618D01*
X0038687Y0084548D01*
X0038739Y0084476D01*
X0038788Y0084401D01*
X0038833Y0084325D01*
X0038875Y0084246D01*
X0038913Y0084166D01*
X0038948Y0084084D01*
X0038979Y0084000D01*
X0039007Y0083915D01*
X0039030Y0083829D01*
X0039050Y0083742D01*
X0039066Y0083655D01*
X0039078Y0083566D01*
X0039086Y0083478D01*
X0039090Y0083389D01*
X0039090Y0083299D01*
X0039086Y0083210D01*
X0039078Y0083122D01*
X0039066Y0083033D01*
X0039050Y0082946D01*
X0039030Y0082859D01*
X0039007Y0082773D01*
X0038979Y0082688D01*
X0038948Y0082604D01*
X0038913Y0082522D01*
X0038875Y0082442D01*
X0038833Y0082363D01*
X0038788Y0082287D01*
X0038739Y0082212D01*
X0038687Y0082140D01*
X0038632Y0082070D01*
X0038573Y0082002D01*
X0038512Y0081938D01*
X0038448Y0081876D01*
X0038381Y0081817D01*
X0038312Y0081761D01*
X0038240Y0081708D01*
X0038166Y0081658D01*
X0038090Y0081612D01*
X0038012Y0081569D01*
X0037932Y0081530D01*
X0037850Y0081494D01*
X0037767Y0081462D01*
X0037683Y0081434D01*
X0037597Y0081409D01*
X0037510Y0081389D01*
X0037423Y0081372D01*
X0037334Y0081359D01*
X0037246Y0081350D01*
X0037157Y0081345D01*
X0037068Y0081344D01*
X0036979Y0081347D01*
X0036890Y0081354D01*
X0036801Y0081365D01*
X0036713Y0081380D01*
X0036626Y0081398D01*
X0036540Y0081421D01*
X0036455Y0081447D01*
X0036371Y0081478D01*
X0036289Y0081512D01*
X0036208Y0081549D01*
X0036129Y0081590D01*
X0036052Y0081635D01*
X0035977Y0081683D01*
X0035904Y0081734D01*
X0035833Y0081788D01*
X0035765Y0081846D01*
X0035700Y0081906D01*
X0035637Y0081970D01*
X0035577Y0082036D01*
X0035520Y0082105D01*
X0035467Y0082176D01*
X0035416Y0082249D01*
X0035369Y0082325D01*
X0035326Y0082402D01*
X0035285Y0082482D01*
X0035249Y0082563D01*
X0035216Y0082646D01*
X0035187Y0082730D01*
X0035161Y0082816D01*
X0035139Y0082902D01*
X0035122Y0082989D01*
X0035108Y0083077D01*
X0035098Y0083166D01*
X0035092Y0083255D01*
X0035090Y0083344D01*
X0035090Y0063044D02*
X0035092Y0063133D01*
X0035098Y0063222D01*
X0035108Y0063311D01*
X0035122Y0063399D01*
X0035139Y0063486D01*
X0035161Y0063572D01*
X0035187Y0063658D01*
X0035216Y0063742D01*
X0035249Y0063825D01*
X0035285Y0063906D01*
X0035326Y0063986D01*
X0035369Y0064063D01*
X0035416Y0064139D01*
X0035467Y0064212D01*
X0035520Y0064283D01*
X0035577Y0064352D01*
X0035637Y0064418D01*
X0035700Y0064482D01*
X0035765Y0064542D01*
X0035833Y0064600D01*
X0035904Y0064654D01*
X0035977Y0064705D01*
X0036052Y0064753D01*
X0036129Y0064798D01*
X0036208Y0064839D01*
X0036289Y0064876D01*
X0036371Y0064910D01*
X0036455Y0064941D01*
X0036540Y0064967D01*
X0036626Y0064990D01*
X0036713Y0065008D01*
X0036801Y0065023D01*
X0036890Y0065034D01*
X0036979Y0065041D01*
X0037068Y0065044D01*
X0037157Y0065043D01*
X0037246Y0065038D01*
X0037334Y0065029D01*
X0037423Y0065016D01*
X0037510Y0064999D01*
X0037597Y0064979D01*
X0037683Y0064954D01*
X0037767Y0064926D01*
X0037850Y0064894D01*
X0037932Y0064858D01*
X0038012Y0064819D01*
X0038090Y0064776D01*
X0038166Y0064730D01*
X0038240Y0064680D01*
X0038312Y0064627D01*
X0038381Y0064571D01*
X0038448Y0064512D01*
X0038512Y0064450D01*
X0038573Y0064386D01*
X0038632Y0064318D01*
X0038687Y0064248D01*
X0038739Y0064176D01*
X0038788Y0064101D01*
X0038833Y0064025D01*
X0038875Y0063946D01*
X0038913Y0063866D01*
X0038948Y0063784D01*
X0038979Y0063700D01*
X0039007Y0063615D01*
X0039030Y0063529D01*
X0039050Y0063442D01*
X0039066Y0063355D01*
X0039078Y0063266D01*
X0039086Y0063178D01*
X0039090Y0063089D01*
X0039090Y0062999D01*
X0039086Y0062910D01*
X0039078Y0062822D01*
X0039066Y0062733D01*
X0039050Y0062646D01*
X0039030Y0062559D01*
X0039007Y0062473D01*
X0038979Y0062388D01*
X0038948Y0062304D01*
X0038913Y0062222D01*
X0038875Y0062142D01*
X0038833Y0062063D01*
X0038788Y0061987D01*
X0038739Y0061912D01*
X0038687Y0061840D01*
X0038632Y0061770D01*
X0038573Y0061702D01*
X0038512Y0061638D01*
X0038448Y0061576D01*
X0038381Y0061517D01*
X0038312Y0061461D01*
X0038240Y0061408D01*
X0038166Y0061358D01*
X0038090Y0061312D01*
X0038012Y0061269D01*
X0037932Y0061230D01*
X0037850Y0061194D01*
X0037767Y0061162D01*
X0037683Y0061134D01*
X0037597Y0061109D01*
X0037510Y0061089D01*
X0037423Y0061072D01*
X0037334Y0061059D01*
X0037246Y0061050D01*
X0037157Y0061045D01*
X0037068Y0061044D01*
X0036979Y0061047D01*
X0036890Y0061054D01*
X0036801Y0061065D01*
X0036713Y0061080D01*
X0036626Y0061098D01*
X0036540Y0061121D01*
X0036455Y0061147D01*
X0036371Y0061178D01*
X0036289Y0061212D01*
X0036208Y0061249D01*
X0036129Y0061290D01*
X0036052Y0061335D01*
X0035977Y0061383D01*
X0035904Y0061434D01*
X0035833Y0061488D01*
X0035765Y0061546D01*
X0035700Y0061606D01*
X0035637Y0061670D01*
X0035577Y0061736D01*
X0035520Y0061805D01*
X0035467Y0061876D01*
X0035416Y0061949D01*
X0035369Y0062025D01*
X0035326Y0062102D01*
X0035285Y0062182D01*
X0035249Y0062263D01*
X0035216Y0062346D01*
X0035187Y0062430D01*
X0035161Y0062516D01*
X0035139Y0062602D01*
X0035122Y0062689D01*
X0035108Y0062777D01*
X0035098Y0062866D01*
X0035092Y0062955D01*
X0035090Y0063044D01*
X0035090Y0043344D02*
X0035092Y0043433D01*
X0035098Y0043522D01*
X0035108Y0043611D01*
X0035122Y0043699D01*
X0035139Y0043786D01*
X0035161Y0043872D01*
X0035187Y0043958D01*
X0035216Y0044042D01*
X0035249Y0044125D01*
X0035285Y0044206D01*
X0035326Y0044286D01*
X0035369Y0044363D01*
X0035416Y0044439D01*
X0035467Y0044512D01*
X0035520Y0044583D01*
X0035577Y0044652D01*
X0035637Y0044718D01*
X0035700Y0044782D01*
X0035765Y0044842D01*
X0035833Y0044900D01*
X0035904Y0044954D01*
X0035977Y0045005D01*
X0036052Y0045053D01*
X0036129Y0045098D01*
X0036208Y0045139D01*
X0036289Y0045176D01*
X0036371Y0045210D01*
X0036455Y0045241D01*
X0036540Y0045267D01*
X0036626Y0045290D01*
X0036713Y0045308D01*
X0036801Y0045323D01*
X0036890Y0045334D01*
X0036979Y0045341D01*
X0037068Y0045344D01*
X0037157Y0045343D01*
X0037246Y0045338D01*
X0037334Y0045329D01*
X0037423Y0045316D01*
X0037510Y0045299D01*
X0037597Y0045279D01*
X0037683Y0045254D01*
X0037767Y0045226D01*
X0037850Y0045194D01*
X0037932Y0045158D01*
X0038012Y0045119D01*
X0038090Y0045076D01*
X0038166Y0045030D01*
X0038240Y0044980D01*
X0038312Y0044927D01*
X0038381Y0044871D01*
X0038448Y0044812D01*
X0038512Y0044750D01*
X0038573Y0044686D01*
X0038632Y0044618D01*
X0038687Y0044548D01*
X0038739Y0044476D01*
X0038788Y0044401D01*
X0038833Y0044325D01*
X0038875Y0044246D01*
X0038913Y0044166D01*
X0038948Y0044084D01*
X0038979Y0044000D01*
X0039007Y0043915D01*
X0039030Y0043829D01*
X0039050Y0043742D01*
X0039066Y0043655D01*
X0039078Y0043566D01*
X0039086Y0043478D01*
X0039090Y0043389D01*
X0039090Y0043299D01*
X0039086Y0043210D01*
X0039078Y0043122D01*
X0039066Y0043033D01*
X0039050Y0042946D01*
X0039030Y0042859D01*
X0039007Y0042773D01*
X0038979Y0042688D01*
X0038948Y0042604D01*
X0038913Y0042522D01*
X0038875Y0042442D01*
X0038833Y0042363D01*
X0038788Y0042287D01*
X0038739Y0042212D01*
X0038687Y0042140D01*
X0038632Y0042070D01*
X0038573Y0042002D01*
X0038512Y0041938D01*
X0038448Y0041876D01*
X0038381Y0041817D01*
X0038312Y0041761D01*
X0038240Y0041708D01*
X0038166Y0041658D01*
X0038090Y0041612D01*
X0038012Y0041569D01*
X0037932Y0041530D01*
X0037850Y0041494D01*
X0037767Y0041462D01*
X0037683Y0041434D01*
X0037597Y0041409D01*
X0037510Y0041389D01*
X0037423Y0041372D01*
X0037334Y0041359D01*
X0037246Y0041350D01*
X0037157Y0041345D01*
X0037068Y0041344D01*
X0036979Y0041347D01*
X0036890Y0041354D01*
X0036801Y0041365D01*
X0036713Y0041380D01*
X0036626Y0041398D01*
X0036540Y0041421D01*
X0036455Y0041447D01*
X0036371Y0041478D01*
X0036289Y0041512D01*
X0036208Y0041549D01*
X0036129Y0041590D01*
X0036052Y0041635D01*
X0035977Y0041683D01*
X0035904Y0041734D01*
X0035833Y0041788D01*
X0035765Y0041846D01*
X0035700Y0041906D01*
X0035637Y0041970D01*
X0035577Y0042036D01*
X0035520Y0042105D01*
X0035467Y0042176D01*
X0035416Y0042249D01*
X0035369Y0042325D01*
X0035326Y0042402D01*
X0035285Y0042482D01*
X0035249Y0042563D01*
X0035216Y0042646D01*
X0035187Y0042730D01*
X0035161Y0042816D01*
X0035139Y0042902D01*
X0035122Y0042989D01*
X0035108Y0043077D01*
X0035098Y0043166D01*
X0035092Y0043255D01*
X0035090Y0043344D01*
X0057889Y0046844D02*
X0057889Y0059545D01*
X0057889Y0066545D02*
X0057889Y0072844D01*
X0057889Y0073545D02*
X0057889Y0079844D01*
X0057889Y0086844D02*
X0057889Y0099545D01*
X0090790Y0078186D02*
X0090790Y0053186D01*
X0085790Y0053186D01*
X0093290Y0046686D02*
X0093290Y0045186D01*
X0093290Y0046686D02*
X0093292Y0046784D01*
X0093298Y0046882D01*
X0093307Y0046980D01*
X0093321Y0047077D01*
X0093338Y0047174D01*
X0093359Y0047270D01*
X0093384Y0047365D01*
X0093412Y0047459D01*
X0093445Y0047551D01*
X0093480Y0047643D01*
X0093520Y0047733D01*
X0093562Y0047821D01*
X0093609Y0047908D01*
X0093658Y0047992D01*
X0093711Y0048075D01*
X0093767Y0048155D01*
X0093827Y0048234D01*
X0093889Y0048310D01*
X0093954Y0048383D01*
X0094022Y0048454D01*
X0094093Y0048522D01*
X0094166Y0048587D01*
X0094242Y0048649D01*
X0094321Y0048709D01*
X0094401Y0048765D01*
X0094484Y0048818D01*
X0094568Y0048867D01*
X0094655Y0048914D01*
X0094743Y0048956D01*
X0094833Y0048996D01*
X0094925Y0049031D01*
X0095017Y0049064D01*
X0095111Y0049092D01*
X0095206Y0049117D01*
X0095302Y0049138D01*
X0095399Y0049155D01*
X0095496Y0049169D01*
X0095594Y0049178D01*
X0095692Y0049184D01*
X0095790Y0049186D01*
X0095888Y0049184D01*
X0095986Y0049178D01*
X0096084Y0049169D01*
X0096181Y0049155D01*
X0096278Y0049138D01*
X0096374Y0049117D01*
X0096469Y0049092D01*
X0096563Y0049064D01*
X0096655Y0049031D01*
X0096747Y0048996D01*
X0096837Y0048956D01*
X0096925Y0048914D01*
X0097012Y0048867D01*
X0097096Y0048818D01*
X0097179Y0048765D01*
X0097259Y0048709D01*
X0097338Y0048649D01*
X0097414Y0048587D01*
X0097487Y0048522D01*
X0097558Y0048454D01*
X0097626Y0048383D01*
X0097691Y0048310D01*
X0097753Y0048234D01*
X0097813Y0048155D01*
X0097869Y0048075D01*
X0097922Y0047992D01*
X0097971Y0047908D01*
X0098018Y0047821D01*
X0098060Y0047733D01*
X0098100Y0047643D01*
X0098135Y0047551D01*
X0098168Y0047459D01*
X0098196Y0047365D01*
X0098221Y0047270D01*
X0098242Y0047174D01*
X0098259Y0047077D01*
X0098273Y0046980D01*
X0098282Y0046882D01*
X0098288Y0046784D01*
X0098290Y0046686D01*
X0098290Y0045186D01*
X0100790Y0063186D02*
X0105790Y0063186D01*
X0100790Y0063186D02*
X0100790Y0080686D01*
X0098290Y0080686D02*
X0103290Y0085686D01*
X0145790Y0093186D02*
X0150790Y0093186D01*
X0150790Y0069186D01*
X0149790Y0068186D01*
X0150790Y0067186D01*
X0150790Y0069186D01*
X0160790Y0065686D02*
X0160790Y0083186D01*
X0165790Y0083186D01*
X0163290Y0065686D02*
X0158290Y0060686D01*
X0160790Y0060686D02*
X0160790Y0043186D01*
X0165790Y0043186D01*
X0150790Y0033186D02*
X0150790Y0058186D01*
X0150790Y0033186D02*
X0145790Y0033186D01*
X0144790Y0025186D02*
X0153290Y0025186D01*
X0158290Y0025186D01*
X0166790Y0025186D01*
X0166790Y0101186D01*
X0144790Y0101186D01*
X0144790Y0025186D01*
X0153290Y0025186D02*
X0153290Y0026686D01*
X0153292Y0026784D01*
X0153298Y0026882D01*
X0153307Y0026980D01*
X0153321Y0027077D01*
X0153338Y0027174D01*
X0153359Y0027270D01*
X0153384Y0027365D01*
X0153412Y0027459D01*
X0153445Y0027551D01*
X0153480Y0027643D01*
X0153520Y0027733D01*
X0153562Y0027821D01*
X0153609Y0027908D01*
X0153658Y0027992D01*
X0153711Y0028075D01*
X0153767Y0028155D01*
X0153827Y0028234D01*
X0153889Y0028310D01*
X0153954Y0028383D01*
X0154022Y0028454D01*
X0154093Y0028522D01*
X0154166Y0028587D01*
X0154242Y0028649D01*
X0154321Y0028709D01*
X0154401Y0028765D01*
X0154484Y0028818D01*
X0154568Y0028867D01*
X0154655Y0028914D01*
X0154743Y0028956D01*
X0154833Y0028996D01*
X0154925Y0029031D01*
X0155017Y0029064D01*
X0155111Y0029092D01*
X0155206Y0029117D01*
X0155302Y0029138D01*
X0155399Y0029155D01*
X0155496Y0029169D01*
X0155594Y0029178D01*
X0155692Y0029184D01*
X0155790Y0029186D01*
X0155888Y0029184D01*
X0155986Y0029178D01*
X0156084Y0029169D01*
X0156181Y0029155D01*
X0156278Y0029138D01*
X0156374Y0029117D01*
X0156469Y0029092D01*
X0156563Y0029064D01*
X0156655Y0029031D01*
X0156747Y0028996D01*
X0156837Y0028956D01*
X0156925Y0028914D01*
X0157012Y0028867D01*
X0157096Y0028818D01*
X0157179Y0028765D01*
X0157259Y0028709D01*
X0157338Y0028649D01*
X0157414Y0028587D01*
X0157487Y0028522D01*
X0157558Y0028454D01*
X0157626Y0028383D01*
X0157691Y0028310D01*
X0157753Y0028234D01*
X0157813Y0028155D01*
X0157869Y0028075D01*
X0157922Y0027992D01*
X0157971Y0027908D01*
X0158018Y0027821D01*
X0158060Y0027733D01*
X0158100Y0027643D01*
X0158135Y0027551D01*
X0158168Y0027459D01*
X0158196Y0027365D01*
X0158221Y0027270D01*
X0158242Y0027174D01*
X0158259Y0027077D01*
X0158273Y0026980D01*
X0158282Y0026882D01*
X0158288Y0026784D01*
X0158290Y0026686D01*
X0158290Y0025186D01*
X0227290Y0051686D02*
X0227290Y0058686D01*
X0227292Y0058746D01*
X0227297Y0058807D01*
X0227306Y0058866D01*
X0227319Y0058925D01*
X0227335Y0058984D01*
X0227355Y0059041D01*
X0227378Y0059096D01*
X0227405Y0059151D01*
X0227434Y0059203D01*
X0227467Y0059254D01*
X0227503Y0059303D01*
X0227541Y0059349D01*
X0227583Y0059393D01*
X0227627Y0059435D01*
X0227673Y0059473D01*
X0227722Y0059509D01*
X0227773Y0059542D01*
X0227825Y0059571D01*
X0227880Y0059598D01*
X0227935Y0059621D01*
X0227992Y0059641D01*
X0228051Y0059657D01*
X0228110Y0059670D01*
X0228169Y0059679D01*
X0228230Y0059684D01*
X0228290Y0059686D01*
X0229790Y0059686D01*
X0230290Y0059186D01*
X0249290Y0059186D01*
X0249790Y0059686D01*
X0251290Y0059686D01*
X0251350Y0059684D01*
X0251411Y0059679D01*
X0251470Y0059670D01*
X0251529Y0059657D01*
X0251588Y0059641D01*
X0251645Y0059621D01*
X0251700Y0059598D01*
X0251755Y0059571D01*
X0251807Y0059542D01*
X0251858Y0059509D01*
X0251907Y0059473D01*
X0251953Y0059435D01*
X0251997Y0059393D01*
X0252039Y0059349D01*
X0252077Y0059303D01*
X0252113Y0059254D01*
X0252146Y0059203D01*
X0252175Y0059151D01*
X0252202Y0059096D01*
X0252225Y0059041D01*
X0252245Y0058984D01*
X0252261Y0058925D01*
X0252274Y0058866D01*
X0252283Y0058807D01*
X0252288Y0058746D01*
X0252290Y0058686D01*
X0252290Y0051686D01*
X0252288Y0051626D01*
X0252283Y0051565D01*
X0252274Y0051506D01*
X0252261Y0051447D01*
X0252245Y0051388D01*
X0252225Y0051331D01*
X0252202Y0051276D01*
X0252175Y0051221D01*
X0252146Y0051169D01*
X0252113Y0051118D01*
X0252077Y0051069D01*
X0252039Y0051023D01*
X0251997Y0050979D01*
X0251953Y0050937D01*
X0251907Y0050899D01*
X0251858Y0050863D01*
X0251807Y0050830D01*
X0251755Y0050801D01*
X0251700Y0050774D01*
X0251645Y0050751D01*
X0251588Y0050731D01*
X0251529Y0050715D01*
X0251470Y0050702D01*
X0251411Y0050693D01*
X0251350Y0050688D01*
X0251290Y0050686D01*
X0249790Y0050686D01*
X0249290Y0051186D01*
X0230290Y0051186D01*
X0229790Y0050686D01*
X0228290Y0050686D01*
X0228230Y0050688D01*
X0228169Y0050693D01*
X0228110Y0050702D01*
X0228051Y0050715D01*
X0227992Y0050731D01*
X0227935Y0050751D01*
X0227880Y0050774D01*
X0227825Y0050801D01*
X0227773Y0050830D01*
X0227722Y0050863D01*
X0227673Y0050899D01*
X0227627Y0050937D01*
X0227583Y0050979D01*
X0227541Y0051023D01*
X0227503Y0051069D01*
X0227467Y0051118D01*
X0227434Y0051169D01*
X0227405Y0051221D01*
X0227378Y0051276D01*
X0227355Y0051331D01*
X0227335Y0051388D01*
X0227319Y0051447D01*
X0227306Y0051506D01*
X0227297Y0051565D01*
X0227292Y0051626D01*
X0227290Y0051686D01*
X0275290Y0052686D02*
X0275290Y0054186D01*
X0275790Y0054686D01*
X0275790Y0073686D01*
X0275290Y0074186D01*
X0275290Y0075686D01*
X0275292Y0075746D01*
X0275297Y0075807D01*
X0275306Y0075866D01*
X0275319Y0075925D01*
X0275335Y0075984D01*
X0275355Y0076041D01*
X0275378Y0076096D01*
X0275405Y0076151D01*
X0275434Y0076203D01*
X0275467Y0076254D01*
X0275503Y0076303D01*
X0275541Y0076349D01*
X0275583Y0076393D01*
X0275627Y0076435D01*
X0275673Y0076473D01*
X0275722Y0076509D01*
X0275773Y0076542D01*
X0275825Y0076571D01*
X0275880Y0076598D01*
X0275935Y0076621D01*
X0275992Y0076641D01*
X0276051Y0076657D01*
X0276110Y0076670D01*
X0276169Y0076679D01*
X0276230Y0076684D01*
X0276290Y0076686D01*
X0283290Y0076686D01*
X0283350Y0076684D01*
X0283411Y0076679D01*
X0283470Y0076670D01*
X0283529Y0076657D01*
X0283588Y0076641D01*
X0283645Y0076621D01*
X0283700Y0076598D01*
X0283755Y0076571D01*
X0283807Y0076542D01*
X0283858Y0076509D01*
X0283907Y0076473D01*
X0283953Y0076435D01*
X0283997Y0076393D01*
X0284039Y0076349D01*
X0284077Y0076303D01*
X0284113Y0076254D01*
X0284146Y0076203D01*
X0284175Y0076151D01*
X0284202Y0076096D01*
X0284225Y0076041D01*
X0284245Y0075984D01*
X0284261Y0075925D01*
X0284274Y0075866D01*
X0284283Y0075807D01*
X0284288Y0075746D01*
X0284290Y0075686D01*
X0284290Y0074186D01*
X0283790Y0073686D01*
X0283790Y0054686D01*
X0284290Y0054186D01*
X0284290Y0052686D01*
X0284288Y0052626D01*
X0284283Y0052565D01*
X0284274Y0052506D01*
X0284261Y0052447D01*
X0284245Y0052388D01*
X0284225Y0052331D01*
X0284202Y0052276D01*
X0284175Y0052221D01*
X0284146Y0052169D01*
X0284113Y0052118D01*
X0284077Y0052069D01*
X0284039Y0052023D01*
X0283997Y0051979D01*
X0283953Y0051937D01*
X0283907Y0051899D01*
X0283858Y0051863D01*
X0283807Y0051830D01*
X0283755Y0051801D01*
X0283700Y0051774D01*
X0283645Y0051751D01*
X0283588Y0051731D01*
X0283529Y0051715D01*
X0283470Y0051702D01*
X0283411Y0051693D01*
X0283350Y0051688D01*
X0283290Y0051686D01*
X0276290Y0051686D01*
X0276230Y0051688D01*
X0276169Y0051693D01*
X0276110Y0051702D01*
X0276051Y0051715D01*
X0275992Y0051731D01*
X0275935Y0051751D01*
X0275880Y0051774D01*
X0275825Y0051801D01*
X0275773Y0051830D01*
X0275722Y0051863D01*
X0275673Y0051899D01*
X0275627Y0051937D01*
X0275583Y0051979D01*
X0275541Y0052023D01*
X0275503Y0052069D01*
X0275467Y0052118D01*
X0275434Y0052169D01*
X0275405Y0052221D01*
X0275378Y0052276D01*
X0275355Y0052331D01*
X0275335Y0052388D01*
X0275319Y0052447D01*
X0275306Y0052506D01*
X0275297Y0052565D01*
X0275292Y0052626D01*
X0275290Y0052686D01*
X0255290Y0102686D02*
X0253790Y0102686D01*
X0253290Y0103186D01*
X0234290Y0103186D01*
X0233790Y0102686D01*
X0232290Y0102686D01*
X0232230Y0102688D01*
X0232169Y0102693D01*
X0232110Y0102702D01*
X0232051Y0102715D01*
X0231992Y0102731D01*
X0231935Y0102751D01*
X0231880Y0102774D01*
X0231825Y0102801D01*
X0231773Y0102830D01*
X0231722Y0102863D01*
X0231673Y0102899D01*
X0231627Y0102937D01*
X0231583Y0102979D01*
X0231541Y0103023D01*
X0231503Y0103069D01*
X0231467Y0103118D01*
X0231434Y0103169D01*
X0231405Y0103221D01*
X0231378Y0103276D01*
X0231355Y0103331D01*
X0231335Y0103388D01*
X0231319Y0103447D01*
X0231306Y0103506D01*
X0231297Y0103565D01*
X0231292Y0103626D01*
X0231290Y0103686D01*
X0231290Y0110686D01*
X0231292Y0110746D01*
X0231297Y0110807D01*
X0231306Y0110866D01*
X0231319Y0110925D01*
X0231335Y0110984D01*
X0231355Y0111041D01*
X0231378Y0111096D01*
X0231405Y0111151D01*
X0231434Y0111203D01*
X0231467Y0111254D01*
X0231503Y0111303D01*
X0231541Y0111349D01*
X0231583Y0111393D01*
X0231627Y0111435D01*
X0231673Y0111473D01*
X0231722Y0111509D01*
X0231773Y0111542D01*
X0231825Y0111571D01*
X0231880Y0111598D01*
X0231935Y0111621D01*
X0231992Y0111641D01*
X0232051Y0111657D01*
X0232110Y0111670D01*
X0232169Y0111679D01*
X0232230Y0111684D01*
X0232290Y0111686D01*
X0233790Y0111686D01*
X0234290Y0111186D01*
X0253290Y0111186D01*
X0253790Y0111686D01*
X0255290Y0111686D01*
X0255350Y0111684D01*
X0255411Y0111679D01*
X0255470Y0111670D01*
X0255529Y0111657D01*
X0255588Y0111641D01*
X0255645Y0111621D01*
X0255700Y0111598D01*
X0255755Y0111571D01*
X0255807Y0111542D01*
X0255858Y0111509D01*
X0255907Y0111473D01*
X0255953Y0111435D01*
X0255997Y0111393D01*
X0256039Y0111349D01*
X0256077Y0111303D01*
X0256113Y0111254D01*
X0256146Y0111203D01*
X0256175Y0111151D01*
X0256202Y0111096D01*
X0256225Y0111041D01*
X0256245Y0110984D01*
X0256261Y0110925D01*
X0256274Y0110866D01*
X0256283Y0110807D01*
X0256288Y0110746D01*
X0256290Y0110686D01*
X0256290Y0103686D01*
X0256288Y0103626D01*
X0256283Y0103565D01*
X0256274Y0103506D01*
X0256261Y0103447D01*
X0256245Y0103388D01*
X0256225Y0103331D01*
X0256202Y0103276D01*
X0256175Y0103221D01*
X0256146Y0103169D01*
X0256113Y0103118D01*
X0256077Y0103069D01*
X0256039Y0103023D01*
X0255997Y0102979D01*
X0255953Y0102937D01*
X0255907Y0102899D01*
X0255858Y0102863D01*
X0255807Y0102830D01*
X0255755Y0102801D01*
X0255700Y0102774D01*
X0255645Y0102751D01*
X0255588Y0102731D01*
X0255529Y0102715D01*
X0255470Y0102702D01*
X0255411Y0102693D01*
X0255350Y0102688D01*
X0255290Y0102686D01*
X0255290Y0156686D02*
X0253790Y0156686D01*
X0253290Y0157186D01*
X0234290Y0157186D01*
X0233790Y0156686D01*
X0232290Y0156686D01*
X0232230Y0156688D01*
X0232169Y0156693D01*
X0232110Y0156702D01*
X0232051Y0156715D01*
X0231992Y0156731D01*
X0231935Y0156751D01*
X0231880Y0156774D01*
X0231825Y0156801D01*
X0231773Y0156830D01*
X0231722Y0156863D01*
X0231673Y0156899D01*
X0231627Y0156937D01*
X0231583Y0156979D01*
X0231541Y0157023D01*
X0231503Y0157069D01*
X0231467Y0157118D01*
X0231434Y0157169D01*
X0231405Y0157221D01*
X0231378Y0157276D01*
X0231355Y0157331D01*
X0231335Y0157388D01*
X0231319Y0157447D01*
X0231306Y0157506D01*
X0231297Y0157565D01*
X0231292Y0157626D01*
X0231290Y0157686D01*
X0231290Y0164686D01*
X0231292Y0164746D01*
X0231297Y0164807D01*
X0231306Y0164866D01*
X0231319Y0164925D01*
X0231335Y0164984D01*
X0231355Y0165041D01*
X0231378Y0165096D01*
X0231405Y0165151D01*
X0231434Y0165203D01*
X0231467Y0165254D01*
X0231503Y0165303D01*
X0231541Y0165349D01*
X0231583Y0165393D01*
X0231627Y0165435D01*
X0231673Y0165473D01*
X0231722Y0165509D01*
X0231773Y0165542D01*
X0231825Y0165571D01*
X0231880Y0165598D01*
X0231935Y0165621D01*
X0231992Y0165641D01*
X0232051Y0165657D01*
X0232110Y0165670D01*
X0232169Y0165679D01*
X0232230Y0165684D01*
X0232290Y0165686D01*
X0233790Y0165686D01*
X0234290Y0165186D01*
X0253290Y0165186D01*
X0253790Y0165686D01*
X0255290Y0165686D01*
X0255350Y0165684D01*
X0255411Y0165679D01*
X0255470Y0165670D01*
X0255529Y0165657D01*
X0255588Y0165641D01*
X0255645Y0165621D01*
X0255700Y0165598D01*
X0255755Y0165571D01*
X0255807Y0165542D01*
X0255858Y0165509D01*
X0255907Y0165473D01*
X0255953Y0165435D01*
X0255997Y0165393D01*
X0256039Y0165349D01*
X0256077Y0165303D01*
X0256113Y0165254D01*
X0256146Y0165203D01*
X0256175Y0165151D01*
X0256202Y0165096D01*
X0256225Y0165041D01*
X0256245Y0164984D01*
X0256261Y0164925D01*
X0256274Y0164866D01*
X0256283Y0164807D01*
X0256288Y0164746D01*
X0256290Y0164686D01*
X0256290Y0157686D01*
X0256288Y0157626D01*
X0256283Y0157565D01*
X0256274Y0157506D01*
X0256261Y0157447D01*
X0256245Y0157388D01*
X0256225Y0157331D01*
X0256202Y0157276D01*
X0256175Y0157221D01*
X0256146Y0157169D01*
X0256113Y0157118D01*
X0256077Y0157069D01*
X0256039Y0157023D01*
X0255997Y0156979D01*
X0255953Y0156937D01*
X0255907Y0156899D01*
X0255858Y0156863D01*
X0255807Y0156830D01*
X0255755Y0156801D01*
X0255700Y0156774D01*
X0255645Y0156751D01*
X0255588Y0156731D01*
X0255529Y0156715D01*
X0255470Y0156702D01*
X0255411Y0156693D01*
X0255350Y0156688D01*
X0255290Y0156686D01*
X0252290Y0201686D02*
X0250790Y0201686D01*
X0250290Y0202186D01*
X0231290Y0202186D01*
X0230790Y0201686D01*
X0229290Y0201686D01*
X0229230Y0201688D01*
X0229169Y0201693D01*
X0229110Y0201702D01*
X0229051Y0201715D01*
X0228992Y0201731D01*
X0228935Y0201751D01*
X0228880Y0201774D01*
X0228825Y0201801D01*
X0228773Y0201830D01*
X0228722Y0201863D01*
X0228673Y0201899D01*
X0228627Y0201937D01*
X0228583Y0201979D01*
X0228541Y0202023D01*
X0228503Y0202069D01*
X0228467Y0202118D01*
X0228434Y0202169D01*
X0228405Y0202221D01*
X0228378Y0202276D01*
X0228355Y0202331D01*
X0228335Y0202388D01*
X0228319Y0202447D01*
X0228306Y0202506D01*
X0228297Y0202565D01*
X0228292Y0202626D01*
X0228290Y0202686D01*
X0228290Y0209686D01*
X0228292Y0209746D01*
X0228297Y0209807D01*
X0228306Y0209866D01*
X0228319Y0209925D01*
X0228335Y0209984D01*
X0228355Y0210041D01*
X0228378Y0210096D01*
X0228405Y0210151D01*
X0228434Y0210203D01*
X0228467Y0210254D01*
X0228503Y0210303D01*
X0228541Y0210349D01*
X0228583Y0210393D01*
X0228627Y0210435D01*
X0228673Y0210473D01*
X0228722Y0210509D01*
X0228773Y0210542D01*
X0228825Y0210571D01*
X0228880Y0210598D01*
X0228935Y0210621D01*
X0228992Y0210641D01*
X0229051Y0210657D01*
X0229110Y0210670D01*
X0229169Y0210679D01*
X0229230Y0210684D01*
X0229290Y0210686D01*
X0230790Y0210686D01*
X0231290Y0210186D01*
X0250290Y0210186D01*
X0250790Y0210686D01*
X0252290Y0210686D01*
X0252350Y0210684D01*
X0252411Y0210679D01*
X0252470Y0210670D01*
X0252529Y0210657D01*
X0252588Y0210641D01*
X0252645Y0210621D01*
X0252700Y0210598D01*
X0252755Y0210571D01*
X0252807Y0210542D01*
X0252858Y0210509D01*
X0252907Y0210473D01*
X0252953Y0210435D01*
X0252997Y0210393D01*
X0253039Y0210349D01*
X0253077Y0210303D01*
X0253113Y0210254D01*
X0253146Y0210203D01*
X0253175Y0210151D01*
X0253202Y0210096D01*
X0253225Y0210041D01*
X0253245Y0209984D01*
X0253261Y0209925D01*
X0253274Y0209866D01*
X0253283Y0209807D01*
X0253288Y0209746D01*
X0253290Y0209686D01*
X0253290Y0202686D01*
X0253288Y0202626D01*
X0253283Y0202565D01*
X0253274Y0202506D01*
X0253261Y0202447D01*
X0253245Y0202388D01*
X0253225Y0202331D01*
X0253202Y0202276D01*
X0253175Y0202221D01*
X0253146Y0202169D01*
X0253113Y0202118D01*
X0253077Y0202069D01*
X0253039Y0202023D01*
X0252997Y0201979D01*
X0252953Y0201937D01*
X0252907Y0201899D01*
X0252858Y0201863D01*
X0252807Y0201830D01*
X0252755Y0201801D01*
X0252700Y0201774D01*
X0252645Y0201751D01*
X0252588Y0201731D01*
X0252529Y0201715D01*
X0252470Y0201702D01*
X0252411Y0201693D01*
X0252350Y0201688D01*
X0252290Y0201686D01*
X0206290Y0220686D02*
X0206290Y0227686D01*
X0206288Y0227746D01*
X0206283Y0227807D01*
X0206274Y0227866D01*
X0206261Y0227925D01*
X0206245Y0227984D01*
X0206225Y0228041D01*
X0206202Y0228096D01*
X0206175Y0228151D01*
X0206146Y0228203D01*
X0206113Y0228254D01*
X0206077Y0228303D01*
X0206039Y0228349D01*
X0205997Y0228393D01*
X0205953Y0228435D01*
X0205907Y0228473D01*
X0205858Y0228509D01*
X0205807Y0228542D01*
X0205755Y0228571D01*
X0205700Y0228598D01*
X0205645Y0228621D01*
X0205588Y0228641D01*
X0205529Y0228657D01*
X0205470Y0228670D01*
X0205411Y0228679D01*
X0205350Y0228684D01*
X0205290Y0228686D01*
X0203790Y0228686D01*
X0203290Y0228186D01*
X0184290Y0228186D01*
X0183790Y0228686D01*
X0182290Y0228686D01*
X0182230Y0228684D01*
X0182169Y0228679D01*
X0182110Y0228670D01*
X0182051Y0228657D01*
X0181992Y0228641D01*
X0181935Y0228621D01*
X0181880Y0228598D01*
X0181825Y0228571D01*
X0181773Y0228542D01*
X0181722Y0228509D01*
X0181673Y0228473D01*
X0181627Y0228435D01*
X0181583Y0228393D01*
X0181541Y0228349D01*
X0181503Y0228303D01*
X0181467Y0228254D01*
X0181434Y0228203D01*
X0181405Y0228151D01*
X0181378Y0228096D01*
X0181355Y0228041D01*
X0181335Y0227984D01*
X0181319Y0227925D01*
X0181306Y0227866D01*
X0181297Y0227807D01*
X0181292Y0227746D01*
X0181290Y0227686D01*
X0181290Y0220686D01*
X0181292Y0220626D01*
X0181297Y0220565D01*
X0181306Y0220506D01*
X0181319Y0220447D01*
X0181335Y0220388D01*
X0181355Y0220331D01*
X0181378Y0220276D01*
X0181405Y0220221D01*
X0181434Y0220169D01*
X0181467Y0220118D01*
X0181503Y0220069D01*
X0181541Y0220023D01*
X0181583Y0219979D01*
X0181627Y0219937D01*
X0181673Y0219899D01*
X0181722Y0219863D01*
X0181773Y0219830D01*
X0181825Y0219801D01*
X0181880Y0219774D01*
X0181935Y0219751D01*
X0181992Y0219731D01*
X0182051Y0219715D01*
X0182110Y0219702D01*
X0182169Y0219693D01*
X0182230Y0219688D01*
X0182290Y0219686D01*
X0183790Y0219686D01*
X0184290Y0220186D01*
X0203290Y0220186D01*
X0203790Y0219686D01*
X0205290Y0219686D01*
X0205350Y0219688D01*
X0205411Y0219693D01*
X0205470Y0219702D01*
X0205529Y0219715D01*
X0205588Y0219731D01*
X0205645Y0219751D01*
X0205700Y0219774D01*
X0205755Y0219801D01*
X0205807Y0219830D01*
X0205858Y0219863D01*
X0205907Y0219899D01*
X0205953Y0219937D01*
X0205997Y0219979D01*
X0206039Y0220023D01*
X0206077Y0220069D01*
X0206113Y0220118D01*
X0206146Y0220169D01*
X0206175Y0220221D01*
X0206202Y0220276D01*
X0206225Y0220331D01*
X0206245Y0220388D01*
X0206261Y0220447D01*
X0206274Y0220506D01*
X0206283Y0220565D01*
X0206288Y0220626D01*
X0206290Y0220686D01*
X0180290Y0238686D02*
X0180290Y0245686D01*
X0180288Y0245746D01*
X0180283Y0245807D01*
X0180274Y0245866D01*
X0180261Y0245925D01*
X0180245Y0245984D01*
X0180225Y0246041D01*
X0180202Y0246096D01*
X0180175Y0246151D01*
X0180146Y0246203D01*
X0180113Y0246254D01*
X0180077Y0246303D01*
X0180039Y0246349D01*
X0179997Y0246393D01*
X0179953Y0246435D01*
X0179907Y0246473D01*
X0179858Y0246509D01*
X0179807Y0246542D01*
X0179755Y0246571D01*
X0179700Y0246598D01*
X0179645Y0246621D01*
X0179588Y0246641D01*
X0179529Y0246657D01*
X0179470Y0246670D01*
X0179411Y0246679D01*
X0179350Y0246684D01*
X0179290Y0246686D01*
X0177790Y0246686D01*
X0177290Y0246186D01*
X0158290Y0246186D01*
X0157790Y0246686D01*
X0156290Y0246686D01*
X0156230Y0246684D01*
X0156169Y0246679D01*
X0156110Y0246670D01*
X0156051Y0246657D01*
X0155992Y0246641D01*
X0155935Y0246621D01*
X0155880Y0246598D01*
X0155825Y0246571D01*
X0155773Y0246542D01*
X0155722Y0246509D01*
X0155673Y0246473D01*
X0155627Y0246435D01*
X0155583Y0246393D01*
X0155541Y0246349D01*
X0155503Y0246303D01*
X0155467Y0246254D01*
X0155434Y0246203D01*
X0155405Y0246151D01*
X0155378Y0246096D01*
X0155355Y0246041D01*
X0155335Y0245984D01*
X0155319Y0245925D01*
X0155306Y0245866D01*
X0155297Y0245807D01*
X0155292Y0245746D01*
X0155290Y0245686D01*
X0155290Y0238686D01*
X0155292Y0238626D01*
X0155297Y0238565D01*
X0155306Y0238506D01*
X0155319Y0238447D01*
X0155335Y0238388D01*
X0155355Y0238331D01*
X0155378Y0238276D01*
X0155405Y0238221D01*
X0155434Y0238169D01*
X0155467Y0238118D01*
X0155503Y0238069D01*
X0155541Y0238023D01*
X0155583Y0237979D01*
X0155627Y0237937D01*
X0155673Y0237899D01*
X0155722Y0237863D01*
X0155773Y0237830D01*
X0155825Y0237801D01*
X0155880Y0237774D01*
X0155935Y0237751D01*
X0155992Y0237731D01*
X0156051Y0237715D01*
X0156110Y0237702D01*
X0156169Y0237693D01*
X0156230Y0237688D01*
X0156290Y0237686D01*
X0157790Y0237686D01*
X0158290Y0238186D01*
X0177290Y0238186D01*
X0177790Y0237686D01*
X0179290Y0237686D01*
X0179350Y0237688D01*
X0179411Y0237693D01*
X0179470Y0237702D01*
X0179529Y0237715D01*
X0179588Y0237731D01*
X0179645Y0237751D01*
X0179700Y0237774D01*
X0179755Y0237801D01*
X0179807Y0237830D01*
X0179858Y0237863D01*
X0179907Y0237899D01*
X0179953Y0237937D01*
X0179997Y0237979D01*
X0180039Y0238023D01*
X0180077Y0238069D01*
X0180113Y0238118D01*
X0180146Y0238169D01*
X0180175Y0238221D01*
X0180202Y0238276D01*
X0180225Y0238331D01*
X0180245Y0238388D01*
X0180261Y0238447D01*
X0180274Y0238506D01*
X0180283Y0238565D01*
X0180288Y0238626D01*
X0180290Y0238686D01*
X0166790Y0196186D02*
X0144790Y0196186D01*
X0144790Y0120186D01*
X0153290Y0120186D01*
X0158290Y0120186D01*
X0166790Y0120186D01*
X0166790Y0196186D01*
X0150790Y0188186D02*
X0150790Y0164186D01*
X0149790Y0163186D01*
X0150790Y0162186D01*
X0150790Y0164186D01*
X0160790Y0160686D02*
X0160790Y0178186D01*
X0165790Y0178186D01*
X0150790Y0188186D02*
X0145790Y0188186D01*
X0163290Y0160686D02*
X0158290Y0155686D01*
X0160790Y0155686D02*
X0160790Y0138186D01*
X0165790Y0138186D01*
X0150790Y0128186D02*
X0150790Y0153186D01*
X0150790Y0128186D02*
X0145790Y0128186D01*
X0153290Y0121686D02*
X0153290Y0120186D01*
X0153290Y0121686D02*
X0153292Y0121784D01*
X0153298Y0121882D01*
X0153307Y0121980D01*
X0153321Y0122077D01*
X0153338Y0122174D01*
X0153359Y0122270D01*
X0153384Y0122365D01*
X0153412Y0122459D01*
X0153445Y0122551D01*
X0153480Y0122643D01*
X0153520Y0122733D01*
X0153562Y0122821D01*
X0153609Y0122908D01*
X0153658Y0122992D01*
X0153711Y0123075D01*
X0153767Y0123155D01*
X0153827Y0123234D01*
X0153889Y0123310D01*
X0153954Y0123383D01*
X0154022Y0123454D01*
X0154093Y0123522D01*
X0154166Y0123587D01*
X0154242Y0123649D01*
X0154321Y0123709D01*
X0154401Y0123765D01*
X0154484Y0123818D01*
X0154568Y0123867D01*
X0154655Y0123914D01*
X0154743Y0123956D01*
X0154833Y0123996D01*
X0154925Y0124031D01*
X0155017Y0124064D01*
X0155111Y0124092D01*
X0155206Y0124117D01*
X0155302Y0124138D01*
X0155399Y0124155D01*
X0155496Y0124169D01*
X0155594Y0124178D01*
X0155692Y0124184D01*
X0155790Y0124186D01*
X0155888Y0124184D01*
X0155986Y0124178D01*
X0156084Y0124169D01*
X0156181Y0124155D01*
X0156278Y0124138D01*
X0156374Y0124117D01*
X0156469Y0124092D01*
X0156563Y0124064D01*
X0156655Y0124031D01*
X0156747Y0123996D01*
X0156837Y0123956D01*
X0156925Y0123914D01*
X0157012Y0123867D01*
X0157096Y0123818D01*
X0157179Y0123765D01*
X0157259Y0123709D01*
X0157338Y0123649D01*
X0157414Y0123587D01*
X0157487Y0123522D01*
X0157558Y0123454D01*
X0157626Y0123383D01*
X0157691Y0123310D01*
X0157753Y0123234D01*
X0157813Y0123155D01*
X0157869Y0123075D01*
X0157922Y0122992D01*
X0157971Y0122908D01*
X0158018Y0122821D01*
X0158060Y0122733D01*
X0158100Y0122643D01*
X0158135Y0122551D01*
X0158168Y0122459D01*
X0158196Y0122365D01*
X0158221Y0122270D01*
X0158242Y0122174D01*
X0158259Y0122077D01*
X0158273Y0121980D01*
X0158282Y0121882D01*
X0158288Y0121784D01*
X0158290Y0121686D01*
X0158290Y0120186D01*
X0057889Y0039844D02*
X0057889Y0033545D01*
D13*
X0090790Y0078186D02*
X0088290Y0088186D01*
X0095790Y0085686D02*
X0100790Y0085686D01*
X0103290Y0085686D01*
X0105790Y0085686D01*
X0105790Y0080686D01*
X0100790Y0080686D01*
X0098290Y0080686D01*
X0095790Y0080686D01*
X0095790Y0085686D01*
X0148290Y0068186D02*
X0150790Y0058186D01*
X0155790Y0060686D02*
X0158290Y0060686D01*
X0160790Y0060686D01*
X0165790Y0060686D01*
X0165790Y0065686D01*
X0163290Y0065686D01*
X0160790Y0065686D01*
X0155790Y0065686D01*
X0155790Y0060686D01*
X0150790Y0153186D02*
X0148290Y0163186D01*
X0155790Y0160686D02*
X0160790Y0160686D01*
X0163290Y0160686D01*
X0165790Y0160686D01*
X0165790Y0155686D01*
X0160790Y0155686D01*
X0158290Y0155686D01*
X0155790Y0155686D01*
X0155790Y0160686D01*
X0105790Y0170686D02*
X0100790Y0170686D01*
X0098290Y0170686D01*
X0095790Y0170686D01*
X0095790Y0175686D01*
X0100790Y0175686D01*
X0103290Y0175686D01*
X0105790Y0175686D01*
X0105790Y0170686D01*
X0090790Y0168186D02*
X0088290Y0178186D01*
D14*
X0083040Y0170292D02*
X0078536Y0170292D01*
X0080788Y0168040D01*
X0080788Y0171043D01*
X0078536Y0166439D02*
X0081539Y0163436D01*
X0080788Y0164187D02*
X0083040Y0166439D01*
X0083040Y0163436D02*
X0078536Y0163436D01*
X0065240Y0165150D02*
X0060736Y0165150D01*
X0062988Y0162898D01*
X0062988Y0165900D01*
X0060736Y0161296D02*
X0065240Y0158294D01*
X0065240Y0161296D02*
X0060736Y0158294D01*
X0043040Y0158596D02*
X0043040Y0155594D01*
X0043040Y0157095D02*
X0038536Y0157095D01*
X0040038Y0155594D01*
X0040038Y0138096D02*
X0039287Y0138096D01*
X0038536Y0137346D01*
X0038536Y0135844D01*
X0039287Y0135094D01*
X0040038Y0138096D02*
X0043040Y0135094D01*
X0043040Y0138096D01*
X0060736Y0125150D02*
X0061487Y0125900D01*
X0062238Y0125900D01*
X0062988Y0125150D01*
X0063739Y0125900D01*
X0064490Y0125900D01*
X0065240Y0125150D01*
X0065240Y0123648D01*
X0064490Y0122898D01*
X0065240Y0121296D02*
X0060736Y0118294D01*
X0060736Y0121296D02*
X0065240Y0118294D01*
X0061487Y0122898D02*
X0060736Y0123648D01*
X0060736Y0125150D01*
X0062988Y0125150D02*
X0062988Y0124399D01*
X0043040Y0118596D02*
X0043040Y0115594D01*
X0043040Y0117095D02*
X0038536Y0117095D01*
X0040038Y0115594D01*
X0040038Y0098096D02*
X0039287Y0098096D01*
X0038536Y0097346D01*
X0038536Y0095844D01*
X0039287Y0095094D01*
X0040038Y0098096D02*
X0043040Y0095094D01*
X0043040Y0098096D01*
X0060736Y0085150D02*
X0060736Y0083648D01*
X0061487Y0082898D01*
X0060736Y0081296D02*
X0065240Y0078294D01*
X0065240Y0081296D02*
X0060736Y0078294D01*
X0065240Y0082898D02*
X0062238Y0085900D01*
X0061487Y0085900D01*
X0060736Y0085150D01*
X0065240Y0085900D02*
X0065240Y0082898D01*
X0078536Y0080292D02*
X0078536Y0078791D01*
X0079287Y0078040D01*
X0078536Y0076439D02*
X0081539Y0073436D01*
X0080788Y0074187D02*
X0083040Y0076439D01*
X0083040Y0078040D02*
X0080038Y0081043D01*
X0079287Y0081043D01*
X0078536Y0080292D01*
X0083040Y0081043D02*
X0083040Y0078040D01*
X0083040Y0073436D02*
X0078536Y0073436D01*
X0108536Y0073040D02*
X0113040Y0073040D01*
X0113040Y0076043D01*
X0113040Y0077644D02*
X0112290Y0077644D01*
X0109287Y0080647D01*
X0108536Y0080647D01*
X0108536Y0077644D01*
X0108536Y0076043D02*
X0108536Y0073040D01*
X0108536Y0071439D02*
X0113040Y0071439D01*
X0110788Y0071439D02*
X0110788Y0068436D01*
X0113040Y0068436D02*
X0108536Y0068436D01*
X0110788Y0073040D02*
X0110788Y0074542D01*
X0110788Y0082248D02*
X0108536Y0082248D01*
X0108536Y0085251D01*
X0110038Y0084500D02*
X0110038Y0083749D01*
X0110788Y0082248D01*
X0112290Y0082248D02*
X0113040Y0082999D01*
X0113040Y0084500D01*
X0112290Y0085251D01*
X0110788Y0085251D01*
X0110038Y0084500D01*
X0110038Y0086852D02*
X0108536Y0088353D01*
X0113040Y0088353D01*
X0113040Y0086852D02*
X0113040Y0089855D01*
X0138536Y0059542D02*
X0143040Y0059542D01*
X0143040Y0061043D02*
X0143040Y0058040D01*
X0143040Y0056439D02*
X0140788Y0054187D01*
X0141539Y0053436D02*
X0138536Y0056439D01*
X0140038Y0058040D02*
X0138536Y0059542D01*
X0138536Y0053436D02*
X0143040Y0053436D01*
X0168536Y0053040D02*
X0173040Y0053040D01*
X0173040Y0056043D01*
X0173040Y0057644D02*
X0172290Y0057644D01*
X0169287Y0060647D01*
X0168536Y0060647D01*
X0168536Y0057644D01*
X0168536Y0056043D02*
X0168536Y0053040D01*
X0168536Y0051439D02*
X0173040Y0051439D01*
X0170788Y0051439D02*
X0170788Y0048436D01*
X0173040Y0048436D02*
X0168536Y0048436D01*
X0170788Y0053040D02*
X0170788Y0054542D01*
X0170788Y0062248D02*
X0168536Y0062248D01*
X0168536Y0065251D01*
X0170038Y0064500D02*
X0170038Y0063749D01*
X0170788Y0062248D01*
X0172290Y0062248D02*
X0173040Y0062999D01*
X0173040Y0064500D01*
X0172290Y0065251D01*
X0170788Y0065251D01*
X0170038Y0064500D01*
X0170038Y0066852D02*
X0168536Y0068353D01*
X0173040Y0068353D01*
X0173040Y0066852D02*
X0173040Y0069855D01*
X0195290Y0084940D02*
X0195290Y0101432D01*
X0200790Y0102059D02*
X0200790Y0103639D01*
X0201540Y0112917D02*
X0197036Y0112917D01*
X0197036Y0115169D01*
X0197787Y0115919D01*
X0198538Y0115919D01*
X0199288Y0115169D01*
X0199288Y0112917D01*
X0199288Y0115169D02*
X0200039Y0115919D01*
X0200790Y0115919D01*
X0201540Y0115169D01*
X0201540Y0112917D01*
X0200790Y0117521D02*
X0197787Y0117521D01*
X0197036Y0118271D01*
X0197036Y0119773D01*
X0197787Y0120523D01*
X0197787Y0122125D02*
X0197036Y0122875D01*
X0197036Y0124376D01*
X0197787Y0125127D01*
X0198538Y0125127D01*
X0199288Y0124376D01*
X0200039Y0125127D01*
X0200790Y0125127D01*
X0201540Y0124376D01*
X0201540Y0122875D01*
X0200790Y0122125D01*
X0200790Y0120523D02*
X0201540Y0119773D01*
X0201540Y0118271D01*
X0200790Y0117521D01*
X0199288Y0123626D02*
X0199288Y0124376D01*
X0197787Y0126728D02*
X0197036Y0127479D01*
X0197036Y0128980D01*
X0197787Y0129731D01*
X0198538Y0129731D01*
X0199288Y0128980D01*
X0200039Y0129731D01*
X0200790Y0129731D01*
X0201540Y0128980D01*
X0201540Y0127479D01*
X0200790Y0126728D01*
X0199288Y0128230D02*
X0199288Y0128980D01*
X0200790Y0131332D02*
X0201540Y0131332D01*
X0200790Y0131332D02*
X0197787Y0134335D01*
X0197036Y0134335D01*
X0197036Y0131332D01*
X0200790Y0137734D02*
X0200790Y0139313D01*
X0205287Y0134335D02*
X0206038Y0134335D01*
X0206788Y0133584D01*
X0207539Y0134335D01*
X0208290Y0134335D01*
X0209040Y0133584D01*
X0209040Y0132083D01*
X0208290Y0131332D01*
X0206788Y0132834D02*
X0206788Y0133584D01*
X0205287Y0134335D02*
X0204536Y0133584D01*
X0204536Y0132083D01*
X0205287Y0131332D01*
X0204536Y0129731D02*
X0204536Y0126728D01*
X0204536Y0128230D02*
X0209040Y0128230D01*
X0195290Y0139940D02*
X0195290Y0156432D01*
X0200790Y0157059D02*
X0200790Y0158639D01*
X0201540Y0162917D02*
X0197036Y0162917D01*
X0197036Y0165169D01*
X0197787Y0165919D01*
X0198538Y0165919D01*
X0199288Y0165169D01*
X0199288Y0162917D01*
X0199288Y0165169D02*
X0200039Y0165919D01*
X0200790Y0165919D01*
X0201540Y0165169D01*
X0201540Y0162917D01*
X0200790Y0167521D02*
X0197787Y0167521D01*
X0197036Y0168271D01*
X0197036Y0169773D01*
X0197787Y0170523D01*
X0197787Y0172125D02*
X0197036Y0172875D01*
X0197036Y0174376D01*
X0197787Y0175127D01*
X0198538Y0175127D01*
X0199288Y0174376D01*
X0200039Y0175127D01*
X0200790Y0175127D01*
X0201540Y0174376D01*
X0201540Y0172875D01*
X0200790Y0172125D01*
X0200790Y0170523D02*
X0201540Y0169773D01*
X0201540Y0168271D01*
X0200790Y0167521D01*
X0199288Y0173626D02*
X0199288Y0174376D01*
X0197787Y0176728D02*
X0197036Y0177479D01*
X0197036Y0178980D01*
X0197787Y0179731D01*
X0198538Y0179731D01*
X0199288Y0178980D01*
X0200039Y0179731D01*
X0200790Y0179731D01*
X0201540Y0178980D01*
X0201540Y0177479D01*
X0200790Y0176728D01*
X0199288Y0178230D02*
X0199288Y0178980D01*
X0200790Y0181332D02*
X0201540Y0181332D01*
X0200790Y0181332D02*
X0197787Y0184335D01*
X0197036Y0184335D01*
X0197036Y0181332D01*
X0204536Y0179731D02*
X0204536Y0176728D01*
X0204536Y0178230D02*
X0209040Y0178230D01*
X0206788Y0181332D02*
X0206788Y0184335D01*
X0204536Y0183584D02*
X0206788Y0181332D01*
X0209040Y0183584D02*
X0204536Y0183584D01*
X0200790Y0187734D02*
X0200790Y0189313D01*
X0195290Y0189940D02*
X0195290Y0206432D01*
X0200790Y0207059D02*
X0200790Y0208639D01*
X0200790Y0199313D02*
X0200790Y0197059D01*
X0195290Y0206432D02*
X0195489Y0206585D01*
X0195691Y0206733D01*
X0195896Y0206876D01*
X0196105Y0207014D01*
X0196317Y0207147D01*
X0196532Y0207275D01*
X0196750Y0207397D01*
X0196971Y0207515D01*
X0197195Y0207627D01*
X0197421Y0207734D01*
X0197650Y0207835D01*
X0197881Y0207931D01*
X0198115Y0208022D01*
X0198350Y0208107D01*
X0198588Y0208186D01*
X0198827Y0208259D01*
X0199068Y0208327D01*
X0199310Y0208389D01*
X0199554Y0208445D01*
X0199800Y0208496D01*
X0200046Y0208540D01*
X0200293Y0208579D01*
X0200541Y0208611D01*
X0200790Y0208638D01*
X0201045Y0208660D01*
X0201301Y0208675D01*
X0201557Y0208683D01*
X0201814Y0208686D01*
X0202070Y0208682D01*
X0202326Y0208672D01*
X0202582Y0208656D01*
X0202837Y0208634D01*
X0203092Y0208605D01*
X0203346Y0208570D01*
X0203599Y0208529D01*
X0203851Y0208482D01*
X0204101Y0208428D01*
X0204350Y0208369D01*
X0204598Y0208303D01*
X0204844Y0208232D01*
X0205089Y0208154D01*
X0205331Y0208071D01*
X0205571Y0207982D01*
X0205809Y0207886D01*
X0206045Y0207785D01*
X0206278Y0207679D01*
X0206508Y0207566D01*
X0206736Y0207448D01*
X0206960Y0207325D01*
X0207182Y0207196D01*
X0207400Y0207062D01*
X0207615Y0206922D01*
X0207826Y0206777D01*
X0208034Y0206627D01*
X0208238Y0206473D01*
X0208439Y0206313D01*
X0208635Y0206148D01*
X0208827Y0205979D01*
X0209016Y0205804D01*
X0209199Y0205626D01*
X0209379Y0205443D01*
X0209554Y0205255D01*
X0209724Y0205064D01*
X0209889Y0204868D01*
X0210050Y0204668D01*
X0210206Y0204465D01*
X0210356Y0204258D01*
X0210502Y0204047D01*
X0210643Y0203832D01*
X0210778Y0203615D01*
X0210908Y0203394D01*
X0211032Y0203170D01*
X0211151Y0202943D01*
X0211264Y0202713D01*
X0211372Y0202480D01*
X0211474Y0202245D01*
X0211570Y0202007D01*
X0211660Y0201768D01*
X0211745Y0201526D01*
X0211823Y0201282D01*
X0211823Y0195090D02*
X0211745Y0194848D01*
X0211661Y0194608D01*
X0211572Y0194370D01*
X0211477Y0194134D01*
X0211375Y0193900D01*
X0211269Y0193669D01*
X0211156Y0193441D01*
X0211039Y0193215D01*
X0210916Y0192992D01*
X0210787Y0192773D01*
X0210653Y0192556D01*
X0210514Y0192343D01*
X0210370Y0192133D01*
X0210221Y0191927D01*
X0210067Y0191725D01*
X0209908Y0191526D01*
X0209744Y0191331D01*
X0209575Y0191140D01*
X0209402Y0190954D01*
X0209225Y0190771D01*
X0209043Y0190593D01*
X0208857Y0190420D01*
X0208666Y0190251D01*
X0208472Y0190087D01*
X0208274Y0189927D01*
X0208072Y0189772D01*
X0207866Y0189623D01*
X0207657Y0189478D01*
X0207444Y0189338D01*
X0207228Y0189204D01*
X0207008Y0189075D01*
X0206786Y0188951D01*
X0206561Y0188832D01*
X0206333Y0188720D01*
X0206102Y0188612D01*
X0205869Y0188511D01*
X0205633Y0188415D01*
X0205395Y0188324D01*
X0205155Y0188240D01*
X0204913Y0188161D01*
X0204669Y0188088D01*
X0204423Y0188022D01*
X0204176Y0187961D01*
X0203928Y0187906D01*
X0203678Y0187857D01*
X0203427Y0187814D01*
X0203175Y0187778D01*
X0202923Y0187747D01*
X0202669Y0187723D01*
X0202416Y0187705D01*
X0202161Y0187693D01*
X0201907Y0187687D01*
X0201652Y0187687D01*
X0201398Y0187693D01*
X0201144Y0187706D01*
X0200890Y0187725D01*
X0200637Y0187750D01*
X0200384Y0187781D01*
X0200132Y0187818D01*
X0199882Y0187861D01*
X0199632Y0187910D01*
X0199383Y0187966D01*
X0199136Y0188027D01*
X0198891Y0188094D01*
X0198647Y0188167D01*
X0198405Y0188246D01*
X0198166Y0188331D01*
X0197928Y0188422D01*
X0197692Y0188519D01*
X0197459Y0188621D01*
X0197229Y0188729D01*
X0197001Y0188842D01*
X0196776Y0188961D01*
X0196554Y0189085D01*
X0196335Y0189215D01*
X0196119Y0189349D01*
X0195906Y0189489D01*
X0195697Y0189635D01*
X0195492Y0189785D01*
X0195290Y0189940D01*
X0173040Y0164855D02*
X0173040Y0161852D01*
X0173040Y0163353D02*
X0168536Y0163353D01*
X0170038Y0161852D01*
X0170788Y0160251D02*
X0172290Y0160251D01*
X0173040Y0159500D01*
X0173040Y0157999D01*
X0172290Y0157248D01*
X0170788Y0157248D02*
X0170038Y0158749D01*
X0170038Y0159500D01*
X0170788Y0160251D01*
X0168536Y0160251D02*
X0168536Y0157248D01*
X0170788Y0157248D01*
X0169287Y0155647D02*
X0168536Y0155647D01*
X0168536Y0152644D01*
X0168536Y0151043D02*
X0168536Y0148040D01*
X0173040Y0148040D01*
X0173040Y0151043D01*
X0173040Y0152644D02*
X0172290Y0152644D01*
X0169287Y0155647D01*
X0170788Y0149542D02*
X0170788Y0148040D01*
X0170788Y0146439D02*
X0170788Y0143436D01*
X0173040Y0143436D02*
X0168536Y0143436D01*
X0168536Y0146439D02*
X0173040Y0146439D01*
X0161938Y0126440D02*
X0161938Y0121936D01*
X0163439Y0121936D02*
X0160436Y0121936D01*
X0160436Y0124939D02*
X0161938Y0126440D01*
X0143040Y0148436D02*
X0138536Y0148436D01*
X0140788Y0149187D02*
X0143040Y0151439D01*
X0142290Y0153040D02*
X0143040Y0153791D01*
X0143040Y0155292D01*
X0142290Y0156043D01*
X0141539Y0156043D01*
X0140788Y0155292D01*
X0140788Y0154542D01*
X0140788Y0155292D02*
X0140038Y0156043D01*
X0139287Y0156043D01*
X0138536Y0155292D01*
X0138536Y0153791D01*
X0139287Y0153040D01*
X0138536Y0151439D02*
X0141539Y0148436D01*
X0113040Y0158436D02*
X0108536Y0158436D01*
X0110788Y0158436D02*
X0110788Y0161439D01*
X0110788Y0163040D02*
X0110788Y0164542D01*
X0108536Y0166043D02*
X0108536Y0163040D01*
X0113040Y0163040D01*
X0113040Y0166043D01*
X0113040Y0167644D02*
X0112290Y0167644D01*
X0109287Y0170647D01*
X0108536Y0170647D01*
X0108536Y0167644D01*
X0108536Y0172248D02*
X0110788Y0172248D01*
X0110038Y0173749D01*
X0110038Y0174500D01*
X0110788Y0175251D01*
X0112290Y0175251D01*
X0113040Y0174500D01*
X0113040Y0172999D01*
X0112290Y0172248D01*
X0108536Y0172248D02*
X0108536Y0175251D01*
X0110038Y0176852D02*
X0108536Y0178353D01*
X0113040Y0178353D01*
X0113040Y0176852D02*
X0113040Y0179855D01*
X0113040Y0161439D02*
X0108536Y0161439D01*
X0101938Y0141440D02*
X0101938Y0136936D01*
X0103439Y0136936D02*
X0100436Y0136936D01*
X0100436Y0139939D02*
X0101938Y0141440D01*
X0043040Y0175094D02*
X0040038Y0178096D01*
X0039287Y0178096D01*
X0038536Y0177346D01*
X0038536Y0175844D01*
X0039287Y0175094D01*
X0043040Y0175094D02*
X0043040Y0178096D01*
X0028939Y0195436D02*
X0025936Y0195436D01*
X0027438Y0195436D02*
X0027438Y0199940D01*
X0025936Y0198439D01*
X0024335Y0199190D02*
X0024335Y0196187D01*
X0023584Y0195436D01*
X0021332Y0195436D01*
X0021332Y0199940D01*
X0023584Y0199940D01*
X0024335Y0199190D01*
X0023584Y0202436D02*
X0022083Y0202436D01*
X0021332Y0203187D01*
X0019731Y0202436D02*
X0016728Y0206940D01*
X0015127Y0206940D02*
X0015127Y0206190D01*
X0012125Y0203187D01*
X0012125Y0202436D01*
X0010523Y0203187D02*
X0010523Y0204688D01*
X0009773Y0205439D01*
X0009022Y0205439D01*
X0007521Y0204688D01*
X0007521Y0206940D01*
X0010523Y0206940D01*
X0012125Y0206940D02*
X0015127Y0206940D01*
X0019731Y0206940D02*
X0016728Y0202436D01*
X0021332Y0206190D02*
X0022083Y0206940D01*
X0023584Y0206940D01*
X0024335Y0206190D01*
X0024335Y0205439D01*
X0023584Y0204688D01*
X0024335Y0203938D01*
X0024335Y0203187D01*
X0023584Y0202436D01*
X0023584Y0204688D02*
X0022834Y0204688D01*
X0025936Y0206190D02*
X0026687Y0206940D01*
X0028188Y0206940D01*
X0028939Y0206190D01*
X0028939Y0205439D01*
X0025936Y0202436D01*
X0028939Y0202436D01*
X0028939Y0213436D02*
X0025936Y0213436D01*
X0028939Y0216439D01*
X0028939Y0217190D01*
X0028188Y0217940D01*
X0026687Y0217940D01*
X0025936Y0217190D01*
X0024335Y0217190D02*
X0024335Y0214187D01*
X0023584Y0213436D01*
X0021332Y0213436D01*
X0021332Y0217940D01*
X0023584Y0217940D01*
X0024335Y0217190D01*
X0023584Y0220436D02*
X0022083Y0220436D01*
X0021332Y0221187D01*
X0019731Y0220436D02*
X0016728Y0224940D01*
X0015127Y0224940D02*
X0015127Y0224190D01*
X0012125Y0221187D01*
X0012125Y0220436D01*
X0010523Y0221187D02*
X0009773Y0220436D01*
X0008271Y0220436D01*
X0007521Y0221187D01*
X0007521Y0222688D02*
X0009022Y0223439D01*
X0009773Y0223439D01*
X0010523Y0222688D01*
X0010523Y0221187D01*
X0007521Y0222688D02*
X0007521Y0224940D01*
X0010523Y0224940D01*
X0012125Y0224940D02*
X0015127Y0224940D01*
X0019731Y0224940D02*
X0016728Y0220436D01*
X0021332Y0224190D02*
X0022083Y0224940D01*
X0023584Y0224940D01*
X0024335Y0224190D01*
X0024335Y0223439D01*
X0023584Y0222688D01*
X0024335Y0221938D01*
X0024335Y0221187D01*
X0023584Y0220436D01*
X0023584Y0222688D02*
X0022834Y0222688D01*
X0025936Y0224190D02*
X0026687Y0224940D01*
X0028188Y0224940D01*
X0028939Y0224190D01*
X0028939Y0223439D01*
X0025936Y0220436D01*
X0028939Y0220436D01*
X0028188Y0231436D02*
X0026687Y0231436D01*
X0025936Y0232187D01*
X0024335Y0232187D02*
X0023584Y0231436D01*
X0021332Y0231436D01*
X0021332Y0235940D01*
X0023584Y0235940D01*
X0024335Y0235190D01*
X0024335Y0232187D01*
X0025936Y0235190D02*
X0026687Y0235940D01*
X0028188Y0235940D01*
X0028939Y0235190D01*
X0028939Y0234439D01*
X0028188Y0233688D01*
X0028939Y0232938D01*
X0028939Y0232187D01*
X0028188Y0231436D01*
X0028188Y0233688D02*
X0027438Y0233688D01*
X0028939Y0238436D02*
X0025936Y0238436D01*
X0028939Y0241439D01*
X0028939Y0242190D01*
X0028188Y0242940D01*
X0026687Y0242940D01*
X0025936Y0242190D01*
X0024335Y0242190D02*
X0023584Y0242940D01*
X0022083Y0242940D01*
X0021332Y0242190D01*
X0019731Y0242940D02*
X0016728Y0238436D01*
X0019731Y0238436D02*
X0016728Y0242940D01*
X0015127Y0242940D02*
X0015127Y0242190D01*
X0012125Y0239187D01*
X0012125Y0238436D01*
X0010523Y0239187D02*
X0010523Y0240688D01*
X0009773Y0241439D01*
X0009022Y0241439D01*
X0007521Y0240688D01*
X0007521Y0242940D01*
X0010523Y0242940D01*
X0012125Y0242940D02*
X0015127Y0242940D01*
X0010523Y0239187D02*
X0009773Y0238436D01*
X0008271Y0238436D01*
X0007521Y0239187D01*
X0005919Y0239187D02*
X0005919Y0242940D01*
X0002917Y0242940D02*
X0002917Y0239187D01*
X0003667Y0238436D01*
X0005169Y0238436D01*
X0005919Y0239187D01*
X0005919Y0224940D02*
X0005919Y0221187D01*
X0005169Y0220436D01*
X0003667Y0220436D01*
X0002917Y0221187D01*
X0002917Y0224940D01*
X0002917Y0206940D02*
X0002917Y0203187D01*
X0003667Y0202436D01*
X0005169Y0202436D01*
X0005919Y0203187D01*
X0005919Y0206940D01*
X0007521Y0203187D02*
X0008271Y0202436D01*
X0009773Y0202436D01*
X0010523Y0203187D01*
X0022083Y0238436D02*
X0021332Y0239187D01*
X0022083Y0238436D02*
X0023584Y0238436D01*
X0024335Y0239187D01*
X0024335Y0239938D01*
X0023584Y0240688D01*
X0022834Y0240688D01*
X0023584Y0240688D02*
X0024335Y0241439D01*
X0024335Y0242190D01*
X0023584Y0249436D02*
X0024335Y0250187D01*
X0024335Y0253190D01*
X0023584Y0253940D01*
X0021332Y0253940D01*
X0021332Y0249436D01*
X0023584Y0249436D01*
X0025936Y0251688D02*
X0028939Y0251688D01*
X0028188Y0249436D02*
X0028188Y0253940D01*
X0025936Y0251688D01*
X0025936Y0256436D02*
X0028939Y0259439D01*
X0028939Y0260190D01*
X0028188Y0260940D01*
X0026687Y0260940D01*
X0025936Y0260190D01*
X0024335Y0260190D02*
X0024335Y0259439D01*
X0023584Y0258688D01*
X0024335Y0257938D01*
X0024335Y0257187D01*
X0023584Y0256436D01*
X0022083Y0256436D01*
X0021332Y0257187D01*
X0019731Y0256436D02*
X0016728Y0260940D01*
X0015127Y0260940D02*
X0015127Y0260190D01*
X0012125Y0257187D01*
X0012125Y0256436D01*
X0010523Y0257187D02*
X0009773Y0256436D01*
X0008271Y0256436D01*
X0007521Y0257187D01*
X0007521Y0258688D02*
X0009022Y0259439D01*
X0009773Y0259439D01*
X0010523Y0258688D01*
X0010523Y0257187D01*
X0007521Y0258688D02*
X0007521Y0260940D01*
X0010523Y0260940D01*
X0012125Y0260940D02*
X0015127Y0260940D01*
X0019731Y0260940D02*
X0016728Y0256436D01*
X0021332Y0260190D02*
X0022083Y0260940D01*
X0023584Y0260940D01*
X0024335Y0260190D01*
X0023584Y0258688D02*
X0022834Y0258688D01*
X0025936Y0256436D02*
X0028939Y0256436D01*
X0005919Y0257187D02*
X0005169Y0256436D01*
X0003667Y0256436D01*
X0002917Y0257187D01*
X0002917Y0260940D01*
X0005919Y0260940D02*
X0005919Y0257187D01*
X0091392Y0256890D02*
X0092142Y0257640D01*
X0093644Y0257640D01*
X0094394Y0256890D01*
X0094394Y0256139D01*
X0093644Y0255388D01*
X0094394Y0254638D01*
X0094394Y0253887D01*
X0093644Y0253136D01*
X0092142Y0253136D01*
X0091392Y0253887D01*
X0092893Y0255388D02*
X0093644Y0255388D01*
X0095996Y0253887D02*
X0096746Y0253136D01*
X0098248Y0253136D01*
X0098998Y0253887D01*
X0098998Y0254638D01*
X0098248Y0255388D01*
X0097497Y0255388D01*
X0098248Y0255388D02*
X0098998Y0256139D01*
X0098998Y0256890D01*
X0098248Y0257640D01*
X0096746Y0257640D01*
X0095996Y0256890D01*
X0100600Y0256890D02*
X0101350Y0257640D01*
X0102852Y0257640D01*
X0103602Y0256890D01*
X0100600Y0253887D01*
X0101350Y0253136D01*
X0102852Y0253136D01*
X0103602Y0253887D01*
X0103602Y0256890D01*
X0105204Y0257640D02*
X0105204Y0253136D01*
X0105204Y0254638D02*
X0107456Y0256139D01*
X0105204Y0254638D02*
X0107456Y0253136D01*
X0108687Y0249440D02*
X0107936Y0248690D01*
X0107936Y0247939D01*
X0108687Y0247188D01*
X0110939Y0247188D01*
X0110939Y0245687D02*
X0110939Y0248690D01*
X0110188Y0249440D01*
X0108687Y0249440D01*
X0106335Y0248690D02*
X0106335Y0247188D01*
X0105584Y0246438D01*
X0103332Y0246438D01*
X0103332Y0244936D02*
X0103332Y0249440D01*
X0105584Y0249440D01*
X0106335Y0248690D01*
X0104834Y0246438D02*
X0106335Y0244936D01*
X0107936Y0245687D02*
X0108687Y0244936D01*
X0110188Y0244936D01*
X0110939Y0245687D01*
X0100600Y0253887D02*
X0100600Y0256890D01*
X0118142Y0224640D02*
X0119644Y0224640D01*
X0120394Y0223890D01*
X0120394Y0223139D01*
X0119644Y0222388D01*
X0120394Y0221638D01*
X0120394Y0220887D01*
X0119644Y0220136D01*
X0118142Y0220136D01*
X0117392Y0220887D01*
X0118893Y0222388D02*
X0119644Y0222388D01*
X0117392Y0223890D02*
X0118142Y0224640D01*
X0121996Y0223890D02*
X0122746Y0224640D01*
X0124248Y0224640D01*
X0124998Y0223890D01*
X0124998Y0223139D01*
X0124248Y0222388D01*
X0124998Y0221638D01*
X0124998Y0220887D01*
X0124248Y0220136D01*
X0122746Y0220136D01*
X0121996Y0220887D01*
X0123497Y0222388D02*
X0124248Y0222388D01*
X0126600Y0220887D02*
X0129602Y0223890D01*
X0129602Y0220887D01*
X0128852Y0220136D01*
X0127350Y0220136D01*
X0126600Y0220887D01*
X0126600Y0223890D01*
X0127350Y0224640D01*
X0128852Y0224640D01*
X0129602Y0223890D01*
X0131204Y0224640D02*
X0131204Y0220136D01*
X0131204Y0221638D02*
X0133456Y0220136D01*
X0131204Y0221638D02*
X0133456Y0223139D01*
X0134687Y0216440D02*
X0136188Y0216440D01*
X0136939Y0215690D01*
X0136939Y0214939D01*
X0136188Y0214188D01*
X0134687Y0214188D01*
X0133936Y0214939D01*
X0133936Y0215690D01*
X0134687Y0216440D01*
X0134687Y0214188D02*
X0133936Y0213438D01*
X0133936Y0212687D01*
X0134687Y0211936D01*
X0136188Y0211936D01*
X0136939Y0212687D01*
X0136939Y0213438D01*
X0136188Y0214188D01*
X0132335Y0214188D02*
X0132335Y0215690D01*
X0131584Y0216440D01*
X0129332Y0216440D01*
X0129332Y0211936D01*
X0129332Y0213438D02*
X0131584Y0213438D01*
X0132335Y0214188D01*
X0130834Y0213438D02*
X0132335Y0211936D01*
X0159791Y0239736D02*
X0159040Y0240487D01*
X0159791Y0239736D02*
X0161292Y0239736D01*
X0162043Y0240487D01*
X0162043Y0241238D01*
X0161292Y0241988D01*
X0160542Y0241988D01*
X0161292Y0241988D02*
X0162043Y0242739D01*
X0162043Y0243490D01*
X0161292Y0244240D01*
X0159791Y0244240D01*
X0159040Y0243490D01*
X0158543Y0247936D02*
X0157042Y0249438D01*
X0157792Y0249438D02*
X0155540Y0249438D01*
X0155540Y0247936D02*
X0155540Y0252440D01*
X0157792Y0252440D01*
X0158543Y0251690D01*
X0158543Y0250188D01*
X0157792Y0249438D01*
X0160144Y0248687D02*
X0160144Y0247936D01*
X0160144Y0248687D02*
X0163147Y0251690D01*
X0163147Y0252440D01*
X0160144Y0252440D01*
X0164395Y0244240D02*
X0165896Y0244240D01*
X0166647Y0243490D01*
X0166647Y0242739D01*
X0165896Y0241988D01*
X0166647Y0241238D01*
X0166647Y0240487D01*
X0165896Y0239736D01*
X0164395Y0239736D01*
X0163644Y0240487D01*
X0165145Y0241988D02*
X0165896Y0241988D01*
X0163644Y0243490D02*
X0164395Y0244240D01*
X0168248Y0243490D02*
X0168248Y0240487D01*
X0171251Y0243490D01*
X0171251Y0240487D01*
X0170500Y0239736D01*
X0168999Y0239736D01*
X0168248Y0240487D01*
X0168248Y0243490D02*
X0168999Y0244240D01*
X0170500Y0244240D01*
X0171251Y0243490D01*
X0172852Y0244240D02*
X0172852Y0239736D01*
X0172852Y0241238D02*
X0175104Y0239736D01*
X0172852Y0241238D02*
X0175104Y0242739D01*
X0181540Y0234440D02*
X0183792Y0234440D01*
X0184543Y0233690D01*
X0184543Y0232188D01*
X0183792Y0231438D01*
X0181540Y0231438D01*
X0183042Y0231438D02*
X0184543Y0229936D01*
X0186144Y0230687D02*
X0186895Y0229936D01*
X0188396Y0229936D01*
X0189147Y0230687D01*
X0189147Y0231438D01*
X0188396Y0232188D01*
X0186144Y0232188D01*
X0186144Y0230687D01*
X0186144Y0232188D02*
X0187645Y0233690D01*
X0189147Y0234440D01*
X0181540Y0234440D02*
X0181540Y0229936D01*
X0185791Y0226240D02*
X0187292Y0226240D01*
X0188043Y0225490D01*
X0188043Y0224739D01*
X0187292Y0223988D01*
X0188043Y0223238D01*
X0188043Y0222487D01*
X0187292Y0221736D01*
X0185791Y0221736D01*
X0185040Y0222487D01*
X0186542Y0223988D02*
X0187292Y0223988D01*
X0185040Y0225490D02*
X0185791Y0226240D01*
X0189644Y0225490D02*
X0190395Y0226240D01*
X0191896Y0226240D01*
X0192647Y0225490D01*
X0192647Y0224739D01*
X0191896Y0223988D01*
X0192647Y0223238D01*
X0192647Y0222487D01*
X0191896Y0221736D01*
X0190395Y0221736D01*
X0189644Y0222487D01*
X0191145Y0223988D02*
X0191896Y0223988D01*
X0194248Y0222487D02*
X0197251Y0225490D01*
X0197251Y0222487D01*
X0196500Y0221736D01*
X0194999Y0221736D01*
X0194248Y0222487D01*
X0194248Y0225490D01*
X0194999Y0226240D01*
X0196500Y0226240D01*
X0197251Y0225490D01*
X0198852Y0226240D02*
X0198852Y0221736D01*
X0198852Y0223238D02*
X0201104Y0224739D01*
X0198852Y0223238D02*
X0201104Y0221736D01*
X0228540Y0216440D02*
X0228540Y0211936D01*
X0228540Y0213438D02*
X0230792Y0213438D01*
X0231543Y0214188D01*
X0231543Y0215690D01*
X0230792Y0216440D01*
X0228540Y0216440D01*
X0230042Y0213438D02*
X0231543Y0211936D01*
X0233144Y0214188D02*
X0236147Y0214188D01*
X0235396Y0211936D02*
X0235396Y0216440D01*
X0233144Y0214188D01*
X0233792Y0171440D02*
X0231540Y0171440D01*
X0231540Y0166936D01*
X0231540Y0168438D02*
X0233792Y0168438D01*
X0234543Y0169188D01*
X0234543Y0170690D01*
X0233792Y0171440D01*
X0236144Y0170690D02*
X0236895Y0171440D01*
X0238396Y0171440D01*
X0239147Y0170690D01*
X0239147Y0169939D01*
X0238396Y0169188D01*
X0239147Y0168438D01*
X0239147Y0167687D01*
X0238396Y0166936D01*
X0236895Y0166936D01*
X0236144Y0167687D01*
X0234543Y0166936D02*
X0233042Y0168438D01*
X0237645Y0169188D02*
X0238396Y0169188D01*
X0211823Y0151282D02*
X0211745Y0151526D01*
X0211660Y0151768D01*
X0211570Y0152007D01*
X0211474Y0152245D01*
X0211372Y0152480D01*
X0211264Y0152713D01*
X0211151Y0152943D01*
X0211032Y0153170D01*
X0210908Y0153394D01*
X0210778Y0153615D01*
X0210643Y0153832D01*
X0210502Y0154047D01*
X0210356Y0154258D01*
X0210206Y0154465D01*
X0210050Y0154668D01*
X0209889Y0154868D01*
X0209724Y0155064D01*
X0209554Y0155255D01*
X0209379Y0155443D01*
X0209199Y0155626D01*
X0209016Y0155804D01*
X0208827Y0155979D01*
X0208635Y0156148D01*
X0208439Y0156313D01*
X0208238Y0156473D01*
X0208034Y0156627D01*
X0207826Y0156777D01*
X0207615Y0156922D01*
X0207400Y0157062D01*
X0207182Y0157196D01*
X0206960Y0157325D01*
X0206736Y0157448D01*
X0206508Y0157566D01*
X0206278Y0157679D01*
X0206045Y0157785D01*
X0205809Y0157886D01*
X0205571Y0157982D01*
X0205331Y0158071D01*
X0205089Y0158154D01*
X0204844Y0158232D01*
X0204598Y0158303D01*
X0204350Y0158369D01*
X0204101Y0158428D01*
X0203851Y0158482D01*
X0203599Y0158529D01*
X0203346Y0158570D01*
X0203092Y0158605D01*
X0202837Y0158634D01*
X0202582Y0158656D01*
X0202326Y0158672D01*
X0202070Y0158682D01*
X0201814Y0158686D01*
X0201557Y0158683D01*
X0201301Y0158675D01*
X0201045Y0158660D01*
X0200790Y0158638D01*
X0200790Y0149313D02*
X0200790Y0147059D01*
X0195290Y0156432D02*
X0195489Y0156585D01*
X0195691Y0156733D01*
X0195896Y0156876D01*
X0196105Y0157014D01*
X0196317Y0157147D01*
X0196532Y0157275D01*
X0196750Y0157397D01*
X0196971Y0157515D01*
X0197195Y0157627D01*
X0197421Y0157734D01*
X0197650Y0157835D01*
X0197881Y0157931D01*
X0198115Y0158022D01*
X0198350Y0158107D01*
X0198588Y0158186D01*
X0198827Y0158259D01*
X0199068Y0158327D01*
X0199310Y0158389D01*
X0199554Y0158445D01*
X0199800Y0158496D01*
X0200046Y0158540D01*
X0200293Y0158579D01*
X0200541Y0158611D01*
X0200790Y0158638D01*
X0211823Y0145090D02*
X0211745Y0144848D01*
X0211661Y0144608D01*
X0211572Y0144370D01*
X0211477Y0144134D01*
X0211375Y0143900D01*
X0211269Y0143669D01*
X0211156Y0143441D01*
X0211039Y0143215D01*
X0210916Y0142992D01*
X0210787Y0142773D01*
X0210653Y0142556D01*
X0210514Y0142343D01*
X0210370Y0142133D01*
X0210221Y0141927D01*
X0210067Y0141725D01*
X0209908Y0141526D01*
X0209744Y0141331D01*
X0209575Y0141140D01*
X0209402Y0140954D01*
X0209225Y0140771D01*
X0209043Y0140593D01*
X0208857Y0140420D01*
X0208666Y0140251D01*
X0208472Y0140087D01*
X0208274Y0139927D01*
X0208072Y0139772D01*
X0207866Y0139623D01*
X0207657Y0139478D01*
X0207444Y0139338D01*
X0207228Y0139204D01*
X0207008Y0139075D01*
X0206786Y0138951D01*
X0206561Y0138832D01*
X0206333Y0138720D01*
X0206102Y0138612D01*
X0205869Y0138511D01*
X0205633Y0138415D01*
X0205395Y0138324D01*
X0205155Y0138240D01*
X0204913Y0138161D01*
X0204669Y0138088D01*
X0204423Y0138022D01*
X0204176Y0137961D01*
X0203928Y0137906D01*
X0203678Y0137857D01*
X0203427Y0137814D01*
X0203175Y0137778D01*
X0202923Y0137747D01*
X0202669Y0137723D01*
X0202416Y0137705D01*
X0202161Y0137693D01*
X0201907Y0137687D01*
X0201652Y0137687D01*
X0201398Y0137693D01*
X0201144Y0137706D01*
X0200890Y0137725D01*
X0200637Y0137750D01*
X0200384Y0137781D01*
X0200132Y0137818D01*
X0199882Y0137861D01*
X0199632Y0137910D01*
X0199383Y0137966D01*
X0199136Y0138027D01*
X0198891Y0138094D01*
X0198647Y0138167D01*
X0198405Y0138246D01*
X0198166Y0138331D01*
X0197928Y0138422D01*
X0197692Y0138519D01*
X0197459Y0138621D01*
X0197229Y0138729D01*
X0197001Y0138842D01*
X0196776Y0138961D01*
X0196554Y0139085D01*
X0196335Y0139215D01*
X0196119Y0139349D01*
X0195906Y0139489D01*
X0195697Y0139635D01*
X0195492Y0139785D01*
X0195290Y0139940D01*
X0231540Y0117440D02*
X0231540Y0112936D01*
X0231540Y0114438D02*
X0233792Y0114438D01*
X0234543Y0115188D01*
X0234543Y0116690D01*
X0233792Y0117440D01*
X0231540Y0117440D01*
X0233042Y0114438D02*
X0234543Y0112936D01*
X0236144Y0112936D02*
X0239147Y0115939D01*
X0239147Y0116690D01*
X0238396Y0117440D01*
X0236895Y0117440D01*
X0236144Y0116690D01*
X0236144Y0112936D02*
X0239147Y0112936D01*
X0211823Y0096282D02*
X0211745Y0096526D01*
X0211660Y0096768D01*
X0211570Y0097007D01*
X0211474Y0097245D01*
X0211372Y0097480D01*
X0211264Y0097713D01*
X0211151Y0097943D01*
X0211032Y0098170D01*
X0210908Y0098394D01*
X0210778Y0098615D01*
X0210643Y0098832D01*
X0210502Y0099047D01*
X0210356Y0099258D01*
X0210206Y0099465D01*
X0210050Y0099668D01*
X0209889Y0099868D01*
X0209724Y0100064D01*
X0209554Y0100255D01*
X0209379Y0100443D01*
X0209199Y0100626D01*
X0209016Y0100804D01*
X0208827Y0100979D01*
X0208635Y0101148D01*
X0208439Y0101313D01*
X0208238Y0101473D01*
X0208034Y0101627D01*
X0207826Y0101777D01*
X0207615Y0101922D01*
X0207400Y0102062D01*
X0207182Y0102196D01*
X0206960Y0102325D01*
X0206736Y0102448D01*
X0206508Y0102566D01*
X0206278Y0102679D01*
X0206045Y0102785D01*
X0205809Y0102886D01*
X0205571Y0102982D01*
X0205331Y0103071D01*
X0205089Y0103154D01*
X0204844Y0103232D01*
X0204598Y0103303D01*
X0204350Y0103369D01*
X0204101Y0103428D01*
X0203851Y0103482D01*
X0203599Y0103529D01*
X0203346Y0103570D01*
X0203092Y0103605D01*
X0202837Y0103634D01*
X0202582Y0103656D01*
X0202326Y0103672D01*
X0202070Y0103682D01*
X0201814Y0103686D01*
X0201557Y0103683D01*
X0201301Y0103675D01*
X0201045Y0103660D01*
X0200790Y0103638D01*
X0200790Y0094313D02*
X0200790Y0092059D01*
X0195290Y0101432D02*
X0195489Y0101585D01*
X0195691Y0101733D01*
X0195896Y0101876D01*
X0196105Y0102014D01*
X0196317Y0102147D01*
X0196532Y0102275D01*
X0196750Y0102397D01*
X0196971Y0102515D01*
X0197195Y0102627D01*
X0197421Y0102734D01*
X0197650Y0102835D01*
X0197881Y0102931D01*
X0198115Y0103022D01*
X0198350Y0103107D01*
X0198588Y0103186D01*
X0198827Y0103259D01*
X0199068Y0103327D01*
X0199310Y0103389D01*
X0199554Y0103445D01*
X0199800Y0103496D01*
X0200046Y0103540D01*
X0200293Y0103579D01*
X0200541Y0103611D01*
X0200790Y0103638D01*
X0211823Y0090090D02*
X0211745Y0089848D01*
X0211661Y0089608D01*
X0211572Y0089370D01*
X0211477Y0089134D01*
X0211375Y0088900D01*
X0211269Y0088669D01*
X0211156Y0088441D01*
X0211039Y0088215D01*
X0210916Y0087992D01*
X0210787Y0087773D01*
X0210653Y0087556D01*
X0210514Y0087343D01*
X0210370Y0087133D01*
X0210221Y0086927D01*
X0210067Y0086725D01*
X0209908Y0086526D01*
X0209744Y0086331D01*
X0209575Y0086140D01*
X0209402Y0085954D01*
X0209225Y0085771D01*
X0209043Y0085593D01*
X0208857Y0085420D01*
X0208666Y0085251D01*
X0208472Y0085087D01*
X0208274Y0084927D01*
X0208072Y0084772D01*
X0207866Y0084623D01*
X0207657Y0084478D01*
X0207444Y0084338D01*
X0207228Y0084204D01*
X0207008Y0084075D01*
X0206786Y0083951D01*
X0206561Y0083832D01*
X0206333Y0083720D01*
X0206102Y0083612D01*
X0205869Y0083511D01*
X0205633Y0083415D01*
X0205395Y0083324D01*
X0205155Y0083240D01*
X0204913Y0083161D01*
X0204669Y0083088D01*
X0204423Y0083022D01*
X0204176Y0082961D01*
X0203928Y0082906D01*
X0203678Y0082857D01*
X0203427Y0082814D01*
X0203175Y0082778D01*
X0202923Y0082747D01*
X0202669Y0082723D01*
X0202416Y0082705D01*
X0202161Y0082693D01*
X0201907Y0082687D01*
X0201652Y0082687D01*
X0201398Y0082693D01*
X0201144Y0082706D01*
X0200890Y0082725D01*
X0200637Y0082750D01*
X0200384Y0082781D01*
X0200132Y0082818D01*
X0199882Y0082861D01*
X0199632Y0082910D01*
X0199383Y0082966D01*
X0199136Y0083027D01*
X0198891Y0083094D01*
X0198647Y0083167D01*
X0198405Y0083246D01*
X0198166Y0083331D01*
X0197928Y0083422D01*
X0197692Y0083519D01*
X0197459Y0083621D01*
X0197229Y0083729D01*
X0197001Y0083842D01*
X0196776Y0083961D01*
X0196554Y0084085D01*
X0196335Y0084215D01*
X0196119Y0084349D01*
X0195906Y0084489D01*
X0195697Y0084635D01*
X0195492Y0084785D01*
X0195290Y0084940D01*
X0200790Y0084313D02*
X0200790Y0082734D01*
X0197787Y0079335D02*
X0200790Y0076332D01*
X0201540Y0076332D01*
X0200790Y0074731D02*
X0200039Y0074731D01*
X0199288Y0073980D01*
X0199288Y0073230D01*
X0199288Y0073980D02*
X0198538Y0074731D01*
X0197787Y0074731D01*
X0197036Y0073980D01*
X0197036Y0072479D01*
X0197787Y0071728D01*
X0197787Y0070127D02*
X0198538Y0070127D01*
X0199288Y0069376D01*
X0200039Y0070127D01*
X0200790Y0070127D01*
X0201540Y0069376D01*
X0201540Y0067875D01*
X0200790Y0067125D01*
X0200790Y0065523D02*
X0201540Y0064773D01*
X0201540Y0063271D01*
X0200790Y0062521D01*
X0197787Y0062521D01*
X0197036Y0063271D01*
X0197036Y0064773D01*
X0197787Y0065523D01*
X0197787Y0067125D02*
X0197036Y0067875D01*
X0197036Y0069376D01*
X0197787Y0070127D01*
X0199288Y0069376D02*
X0199288Y0068626D01*
X0200790Y0071728D02*
X0201540Y0072479D01*
X0201540Y0073980D01*
X0200790Y0074731D01*
X0204536Y0074731D02*
X0204536Y0071728D01*
X0204536Y0073230D02*
X0209040Y0073230D01*
X0209040Y0076332D02*
X0206038Y0079335D01*
X0205287Y0079335D01*
X0204536Y0078584D01*
X0204536Y0077083D01*
X0205287Y0076332D01*
X0209040Y0076332D02*
X0209040Y0079335D01*
X0197787Y0079335D02*
X0197036Y0079335D01*
X0197036Y0076332D01*
X0197787Y0060919D02*
X0198538Y0060919D01*
X0199288Y0060169D01*
X0199288Y0057917D01*
X0197036Y0057917D02*
X0197036Y0060169D01*
X0197787Y0060919D01*
X0199288Y0060169D02*
X0200039Y0060919D01*
X0200790Y0060919D01*
X0201540Y0060169D01*
X0201540Y0057917D01*
X0197036Y0057917D01*
X0200790Y0048639D02*
X0200790Y0047059D01*
X0195290Y0046432D02*
X0195290Y0029940D01*
X0200790Y0029313D02*
X0200790Y0027734D01*
X0197787Y0024335D02*
X0200790Y0021332D01*
X0201540Y0021332D01*
X0200790Y0019731D02*
X0201540Y0018980D01*
X0201540Y0017479D01*
X0200790Y0016728D01*
X0200790Y0015127D02*
X0201540Y0014376D01*
X0201540Y0012875D01*
X0200790Y0012125D01*
X0200790Y0010523D02*
X0201540Y0009773D01*
X0201540Y0008271D01*
X0200790Y0007521D01*
X0197787Y0007521D01*
X0197036Y0008271D01*
X0197036Y0009773D01*
X0197787Y0010523D01*
X0197787Y0012125D02*
X0197036Y0012875D01*
X0197036Y0014376D01*
X0197787Y0015127D01*
X0198538Y0015127D01*
X0199288Y0014376D01*
X0200039Y0015127D01*
X0200790Y0015127D01*
X0199288Y0014376D02*
X0199288Y0013626D01*
X0197787Y0016728D02*
X0197036Y0017479D01*
X0197036Y0018980D01*
X0197787Y0019731D01*
X0198538Y0019731D01*
X0199288Y0018980D01*
X0200039Y0019731D01*
X0200790Y0019731D01*
X0199288Y0018980D02*
X0199288Y0018230D01*
X0197036Y0021332D02*
X0197036Y0024335D01*
X0197787Y0024335D01*
X0204536Y0022834D02*
X0206038Y0021332D01*
X0204536Y0022834D02*
X0209040Y0022834D01*
X0209040Y0024335D02*
X0209040Y0021332D01*
X0209040Y0018230D02*
X0204536Y0018230D01*
X0204536Y0019731D02*
X0204536Y0016728D01*
X0200790Y0005919D02*
X0200039Y0005919D01*
X0199288Y0005169D01*
X0199288Y0002917D01*
X0199288Y0005169D02*
X0198538Y0005919D01*
X0197787Y0005919D01*
X0197036Y0005169D01*
X0197036Y0002917D01*
X0201540Y0002917D01*
X0201540Y0005169D01*
X0200790Y0005919D01*
X0200790Y0037059D02*
X0200790Y0039313D01*
X0195290Y0046432D02*
X0195489Y0046585D01*
X0195691Y0046733D01*
X0195896Y0046876D01*
X0196105Y0047014D01*
X0196317Y0047147D01*
X0196532Y0047275D01*
X0196750Y0047397D01*
X0196971Y0047515D01*
X0197195Y0047627D01*
X0197421Y0047734D01*
X0197650Y0047835D01*
X0197881Y0047931D01*
X0198115Y0048022D01*
X0198350Y0048107D01*
X0198588Y0048186D01*
X0198827Y0048259D01*
X0199068Y0048327D01*
X0199310Y0048389D01*
X0199554Y0048445D01*
X0199800Y0048496D01*
X0200046Y0048540D01*
X0200293Y0048579D01*
X0200541Y0048611D01*
X0200790Y0048638D01*
X0201045Y0048660D01*
X0201301Y0048675D01*
X0201557Y0048683D01*
X0201814Y0048686D01*
X0202070Y0048682D01*
X0202326Y0048672D01*
X0202582Y0048656D01*
X0202837Y0048634D01*
X0203092Y0048605D01*
X0203346Y0048570D01*
X0203599Y0048529D01*
X0203851Y0048482D01*
X0204101Y0048428D01*
X0204350Y0048369D01*
X0204598Y0048303D01*
X0204844Y0048232D01*
X0205089Y0048154D01*
X0205331Y0048071D01*
X0205571Y0047982D01*
X0205809Y0047886D01*
X0206045Y0047785D01*
X0206278Y0047679D01*
X0206508Y0047566D01*
X0206736Y0047448D01*
X0206960Y0047325D01*
X0207182Y0047196D01*
X0207400Y0047062D01*
X0207615Y0046922D01*
X0207826Y0046777D01*
X0208034Y0046627D01*
X0208238Y0046473D01*
X0208439Y0046313D01*
X0208635Y0046148D01*
X0208827Y0045979D01*
X0209016Y0045804D01*
X0209199Y0045626D01*
X0209379Y0045443D01*
X0209554Y0045255D01*
X0209724Y0045064D01*
X0209889Y0044868D01*
X0210050Y0044668D01*
X0210206Y0044465D01*
X0210356Y0044258D01*
X0210502Y0044047D01*
X0210643Y0043832D01*
X0210778Y0043615D01*
X0210908Y0043394D01*
X0211032Y0043170D01*
X0211151Y0042943D01*
X0211264Y0042713D01*
X0211372Y0042480D01*
X0211474Y0042245D01*
X0211570Y0042007D01*
X0211660Y0041768D01*
X0211745Y0041526D01*
X0211823Y0041282D01*
X0211823Y0035090D02*
X0211745Y0034848D01*
X0211661Y0034608D01*
X0211572Y0034370D01*
X0211477Y0034134D01*
X0211375Y0033900D01*
X0211269Y0033669D01*
X0211156Y0033441D01*
X0211039Y0033215D01*
X0210916Y0032992D01*
X0210787Y0032773D01*
X0210653Y0032556D01*
X0210514Y0032343D01*
X0210370Y0032133D01*
X0210221Y0031927D01*
X0210067Y0031725D01*
X0209908Y0031526D01*
X0209744Y0031331D01*
X0209575Y0031140D01*
X0209402Y0030954D01*
X0209225Y0030771D01*
X0209043Y0030593D01*
X0208857Y0030420D01*
X0208666Y0030251D01*
X0208472Y0030087D01*
X0208274Y0029927D01*
X0208072Y0029772D01*
X0207866Y0029623D01*
X0207657Y0029478D01*
X0207444Y0029338D01*
X0207228Y0029204D01*
X0207008Y0029075D01*
X0206786Y0028951D01*
X0206561Y0028832D01*
X0206333Y0028720D01*
X0206102Y0028612D01*
X0205869Y0028511D01*
X0205633Y0028415D01*
X0205395Y0028324D01*
X0205155Y0028240D01*
X0204913Y0028161D01*
X0204669Y0028088D01*
X0204423Y0028022D01*
X0204176Y0027961D01*
X0203928Y0027906D01*
X0203678Y0027857D01*
X0203427Y0027814D01*
X0203175Y0027778D01*
X0202923Y0027747D01*
X0202669Y0027723D01*
X0202416Y0027705D01*
X0202161Y0027693D01*
X0201907Y0027687D01*
X0201652Y0027687D01*
X0201398Y0027693D01*
X0201144Y0027706D01*
X0200890Y0027725D01*
X0200637Y0027750D01*
X0200384Y0027781D01*
X0200132Y0027818D01*
X0199882Y0027861D01*
X0199632Y0027910D01*
X0199383Y0027966D01*
X0199136Y0028027D01*
X0198891Y0028094D01*
X0198647Y0028167D01*
X0198405Y0028246D01*
X0198166Y0028331D01*
X0197928Y0028422D01*
X0197692Y0028519D01*
X0197459Y0028621D01*
X0197229Y0028729D01*
X0197001Y0028842D01*
X0196776Y0028961D01*
X0196554Y0029085D01*
X0196335Y0029215D01*
X0196119Y0029349D01*
X0195906Y0029489D01*
X0195697Y0029635D01*
X0195492Y0029785D01*
X0195290Y0029940D01*
X0163439Y0026936D02*
X0160436Y0026936D01*
X0161938Y0026936D02*
X0161938Y0031440D01*
X0160436Y0029939D01*
X0103439Y0046936D02*
X0100436Y0046936D01*
X0101938Y0046936D02*
X0101938Y0051440D01*
X0100436Y0049939D01*
X0065240Y0045900D02*
X0065240Y0042898D01*
X0065240Y0044399D02*
X0060736Y0044399D01*
X0062238Y0042898D01*
X0060736Y0041296D02*
X0065240Y0038294D01*
X0065240Y0041296D02*
X0060736Y0038294D01*
X0043040Y0038596D02*
X0043040Y0035594D01*
X0043040Y0037095D02*
X0038536Y0037095D01*
X0040038Y0035594D01*
X0039287Y0055094D02*
X0038536Y0055844D01*
X0038536Y0057346D01*
X0039287Y0058096D01*
X0040038Y0058096D01*
X0043040Y0055094D01*
X0043040Y0058096D01*
X0043040Y0075594D02*
X0043040Y0078596D01*
X0043040Y0077095D02*
X0038536Y0077095D01*
X0040038Y0075594D01*
X0227540Y0065440D02*
X0227540Y0060936D01*
X0227540Y0062438D02*
X0229792Y0062438D01*
X0230543Y0063188D01*
X0230543Y0064690D01*
X0229792Y0065440D01*
X0227540Y0065440D01*
X0229042Y0062438D02*
X0230543Y0060936D01*
X0232144Y0060936D02*
X0235147Y0060936D01*
X0233645Y0060936D02*
X0233645Y0065440D01*
X0232144Y0063939D01*
X0285536Y0067728D02*
X0285536Y0069980D01*
X0286287Y0070731D01*
X0287788Y0070731D01*
X0288539Y0069980D01*
X0288539Y0067728D01*
X0290040Y0067728D02*
X0285536Y0067728D01*
X0288539Y0069230D02*
X0290040Y0070731D01*
X0289290Y0072332D02*
X0290040Y0073083D01*
X0290040Y0074584D01*
X0289290Y0075335D01*
X0287788Y0075335D01*
X0287038Y0074584D01*
X0287038Y0073834D01*
X0287788Y0072332D01*
X0285536Y0072332D01*
X0285536Y0075335D01*
D15*
X0279790Y0080186D02*
X0279790Y0081686D01*
X0261290Y0107186D02*
X0259790Y0107186D01*
X0227790Y0107186D02*
X0226290Y0107186D01*
X0223790Y0055186D02*
X0222290Y0055186D01*
X0255790Y0055186D02*
X0257290Y0055186D01*
X0279790Y0048186D02*
X0279790Y0046686D01*
X0261290Y0161186D02*
X0259790Y0161186D01*
X0227790Y0161186D02*
X0226290Y0161186D01*
X0224790Y0206186D02*
X0223290Y0206186D01*
X0211290Y0224186D02*
X0209790Y0224186D01*
X0185290Y0242186D02*
X0183790Y0242186D01*
X0177790Y0224186D02*
X0176290Y0224186D01*
X0151790Y0242186D02*
X0150290Y0242186D01*
X0143290Y0222186D02*
X0141790Y0222186D01*
X0109790Y0222186D02*
X0108290Y0222186D01*
X0115790Y0255186D02*
X0117290Y0255186D01*
X0083790Y0255186D02*
X0082290Y0255186D01*
X0256790Y0206186D02*
X0258290Y0206186D01*
D16*
X0259990Y0206186D03*
X0254990Y0206186D03*
X0226590Y0206186D03*
X0221590Y0206186D03*
X0212990Y0224186D03*
X0207990Y0224186D03*
X0186990Y0242186D03*
X0181990Y0242186D03*
X0179590Y0224186D03*
X0174590Y0224186D03*
X0153590Y0242186D03*
X0148590Y0242186D03*
X0144990Y0222186D03*
X0139990Y0222186D03*
X0111590Y0222186D03*
X0106590Y0222186D03*
X0113990Y0255186D03*
X0118990Y0255186D03*
X0085590Y0255186D03*
X0080590Y0255186D03*
X0224590Y0161186D03*
X0229590Y0161186D03*
X0257990Y0161186D03*
X0262990Y0161186D03*
X0262990Y0107186D03*
X0257990Y0107186D03*
X0229590Y0107186D03*
X0224590Y0107186D03*
X0225590Y0055186D03*
X0220590Y0055186D03*
X0253990Y0055186D03*
X0258990Y0055186D03*
D17*
X0279790Y0049986D03*
X0279790Y0044986D03*
X0279790Y0078386D03*
X0279790Y0083386D03*
M02*
