%
M48
M72
T01C0.03200
T02C0.04700
T03C0.07874
T04C0.12598
%
T01
X80790Y53186
X80790Y63186
X110790Y63186
X110790Y53186
X140790Y43186
X140790Y33186
X170790Y33186
X170790Y43186
X201790Y43186
X209290Y38186
X201790Y33186
X214790Y55186
X201790Y88186
X209290Y93186
X201790Y98186
X218790Y107186
X201790Y143186
X209290Y148186
X201790Y153186
X218790Y161186
X201790Y193186
X209290Y198186
X201790Y203186
X215790Y206186
X218790Y224186
X192790Y242186
X168790Y224186
X155790Y223186
X142790Y242186
X124790Y255186
X105790Y223186
X110790Y203186
X110790Y193186
X80790Y193186
X80790Y203186
X64790Y219186
X54790Y219186
X49790Y201186
X39790Y201186
X39790Y242186
X49790Y242186
X74790Y255186
X64790Y265186
X54790Y265186
X140790Y188186
X140790Y178186
X170790Y178186
X170790Y188186
X110790Y153186
X110790Y143186
X80790Y143186
X80790Y153186
X80790Y113186
X80790Y103186
X110790Y103186
X110790Y113186
X140790Y128186
X140790Y138186
X170790Y138186
X170790Y128186
X170790Y93186
X170790Y83186
X140790Y83186
X140790Y93186
X264790Y55186
X268790Y107186
X268790Y161186
X265790Y206186
T02
X275790Y238344
X275790Y258029
X50790Y183029
X50790Y163344
X50790Y143029
X50790Y123344
X50790Y103029
X50790Y83344
X50790Y63029
X50790Y43344
T03
X278586Y193186
X290790Y212084
X302601Y193186
T04
X37790Y26186
X339790Y24186
X340790Y268186
X35790Y269186
M30
