G75*
%MOIN*%
%OFA0B0*%
%FSLAX25Y25*%
%IPPOS*%
%LPD*%
%AMOC8*
5,1,8,0,0,1.08239X$1,22.5*
%
%ADD10C,0.00000*%
%ADD11C,0.00600*%
%ADD12C,0.15000*%
%ADD13C,0.05200*%
%ADD14C,0.07050*%
%ADD15R,0.05118X0.01181*%
%ADD16R,0.08661X0.07087*%
%ADD17OC8,0.05200*%
%ADD18R,0.08000X0.02600*%
%ADD19C,0.04362*%
%ADD20R,0.08661X0.05512*%
%ADD21C,0.01260*%
%ADD22C,0.04000*%
D10*
X0025790Y0001000D02*
X0360790Y0001000D01*
X0360790Y0266000D01*
X0025790Y0266000D01*
X0025790Y0001000D01*
X0031491Y0014000D02*
X0031493Y0014158D01*
X0031499Y0014316D01*
X0031509Y0014474D01*
X0031523Y0014632D01*
X0031541Y0014789D01*
X0031562Y0014946D01*
X0031588Y0015102D01*
X0031618Y0015258D01*
X0031651Y0015413D01*
X0031689Y0015566D01*
X0031730Y0015719D01*
X0031775Y0015871D01*
X0031824Y0016022D01*
X0031877Y0016171D01*
X0031933Y0016319D01*
X0031993Y0016465D01*
X0032057Y0016610D01*
X0032125Y0016753D01*
X0032196Y0016895D01*
X0032270Y0017035D01*
X0032348Y0017172D01*
X0032430Y0017308D01*
X0032514Y0017442D01*
X0032603Y0017573D01*
X0032694Y0017702D01*
X0032789Y0017829D01*
X0032886Y0017954D01*
X0032987Y0018076D01*
X0033091Y0018195D01*
X0033198Y0018312D01*
X0033308Y0018426D01*
X0033421Y0018537D01*
X0033536Y0018646D01*
X0033654Y0018751D01*
X0033775Y0018853D01*
X0033898Y0018953D01*
X0034024Y0019049D01*
X0034152Y0019142D01*
X0034282Y0019232D01*
X0034415Y0019318D01*
X0034550Y0019402D01*
X0034686Y0019481D01*
X0034825Y0019558D01*
X0034966Y0019630D01*
X0035108Y0019700D01*
X0035252Y0019765D01*
X0035398Y0019827D01*
X0035545Y0019885D01*
X0035694Y0019940D01*
X0035844Y0019991D01*
X0035995Y0020038D01*
X0036147Y0020081D01*
X0036300Y0020120D01*
X0036455Y0020156D01*
X0036610Y0020187D01*
X0036766Y0020215D01*
X0036922Y0020239D01*
X0037079Y0020259D01*
X0037237Y0020275D01*
X0037394Y0020287D01*
X0037553Y0020295D01*
X0037711Y0020299D01*
X0037869Y0020299D01*
X0038027Y0020295D01*
X0038186Y0020287D01*
X0038343Y0020275D01*
X0038501Y0020259D01*
X0038658Y0020239D01*
X0038814Y0020215D01*
X0038970Y0020187D01*
X0039125Y0020156D01*
X0039280Y0020120D01*
X0039433Y0020081D01*
X0039585Y0020038D01*
X0039736Y0019991D01*
X0039886Y0019940D01*
X0040035Y0019885D01*
X0040182Y0019827D01*
X0040328Y0019765D01*
X0040472Y0019700D01*
X0040614Y0019630D01*
X0040755Y0019558D01*
X0040894Y0019481D01*
X0041030Y0019402D01*
X0041165Y0019318D01*
X0041298Y0019232D01*
X0041428Y0019142D01*
X0041556Y0019049D01*
X0041682Y0018953D01*
X0041805Y0018853D01*
X0041926Y0018751D01*
X0042044Y0018646D01*
X0042159Y0018537D01*
X0042272Y0018426D01*
X0042382Y0018312D01*
X0042489Y0018195D01*
X0042593Y0018076D01*
X0042694Y0017954D01*
X0042791Y0017829D01*
X0042886Y0017702D01*
X0042977Y0017573D01*
X0043066Y0017442D01*
X0043150Y0017308D01*
X0043232Y0017172D01*
X0043310Y0017035D01*
X0043384Y0016895D01*
X0043455Y0016753D01*
X0043523Y0016610D01*
X0043587Y0016465D01*
X0043647Y0016319D01*
X0043703Y0016171D01*
X0043756Y0016022D01*
X0043805Y0015871D01*
X0043850Y0015719D01*
X0043891Y0015566D01*
X0043929Y0015413D01*
X0043962Y0015258D01*
X0043992Y0015102D01*
X0044018Y0014946D01*
X0044039Y0014789D01*
X0044057Y0014632D01*
X0044071Y0014474D01*
X0044081Y0014316D01*
X0044087Y0014158D01*
X0044089Y0014000D01*
X0044087Y0013842D01*
X0044081Y0013684D01*
X0044071Y0013526D01*
X0044057Y0013368D01*
X0044039Y0013211D01*
X0044018Y0013054D01*
X0043992Y0012898D01*
X0043962Y0012742D01*
X0043929Y0012587D01*
X0043891Y0012434D01*
X0043850Y0012281D01*
X0043805Y0012129D01*
X0043756Y0011978D01*
X0043703Y0011829D01*
X0043647Y0011681D01*
X0043587Y0011535D01*
X0043523Y0011390D01*
X0043455Y0011247D01*
X0043384Y0011105D01*
X0043310Y0010965D01*
X0043232Y0010828D01*
X0043150Y0010692D01*
X0043066Y0010558D01*
X0042977Y0010427D01*
X0042886Y0010298D01*
X0042791Y0010171D01*
X0042694Y0010046D01*
X0042593Y0009924D01*
X0042489Y0009805D01*
X0042382Y0009688D01*
X0042272Y0009574D01*
X0042159Y0009463D01*
X0042044Y0009354D01*
X0041926Y0009249D01*
X0041805Y0009147D01*
X0041682Y0009047D01*
X0041556Y0008951D01*
X0041428Y0008858D01*
X0041298Y0008768D01*
X0041165Y0008682D01*
X0041030Y0008598D01*
X0040894Y0008519D01*
X0040755Y0008442D01*
X0040614Y0008370D01*
X0040472Y0008300D01*
X0040328Y0008235D01*
X0040182Y0008173D01*
X0040035Y0008115D01*
X0039886Y0008060D01*
X0039736Y0008009D01*
X0039585Y0007962D01*
X0039433Y0007919D01*
X0039280Y0007880D01*
X0039125Y0007844D01*
X0038970Y0007813D01*
X0038814Y0007785D01*
X0038658Y0007761D01*
X0038501Y0007741D01*
X0038343Y0007725D01*
X0038186Y0007713D01*
X0038027Y0007705D01*
X0037869Y0007701D01*
X0037711Y0007701D01*
X0037553Y0007705D01*
X0037394Y0007713D01*
X0037237Y0007725D01*
X0037079Y0007741D01*
X0036922Y0007761D01*
X0036766Y0007785D01*
X0036610Y0007813D01*
X0036455Y0007844D01*
X0036300Y0007880D01*
X0036147Y0007919D01*
X0035995Y0007962D01*
X0035844Y0008009D01*
X0035694Y0008060D01*
X0035545Y0008115D01*
X0035398Y0008173D01*
X0035252Y0008235D01*
X0035108Y0008300D01*
X0034966Y0008370D01*
X0034825Y0008442D01*
X0034686Y0008519D01*
X0034550Y0008598D01*
X0034415Y0008682D01*
X0034282Y0008768D01*
X0034152Y0008858D01*
X0034024Y0008951D01*
X0033898Y0009047D01*
X0033775Y0009147D01*
X0033654Y0009249D01*
X0033536Y0009354D01*
X0033421Y0009463D01*
X0033308Y0009574D01*
X0033198Y0009688D01*
X0033091Y0009805D01*
X0032987Y0009924D01*
X0032886Y0010046D01*
X0032789Y0010171D01*
X0032694Y0010298D01*
X0032603Y0010427D01*
X0032514Y0010558D01*
X0032430Y0010692D01*
X0032348Y0010828D01*
X0032270Y0010965D01*
X0032196Y0011105D01*
X0032125Y0011247D01*
X0032057Y0011390D01*
X0031993Y0011535D01*
X0031933Y0011681D01*
X0031877Y0011829D01*
X0031824Y0011978D01*
X0031775Y0012129D01*
X0031730Y0012281D01*
X0031689Y0012434D01*
X0031651Y0012587D01*
X0031618Y0012742D01*
X0031588Y0012898D01*
X0031562Y0013054D01*
X0031541Y0013211D01*
X0031523Y0013368D01*
X0031509Y0013526D01*
X0031499Y0013684D01*
X0031493Y0013842D01*
X0031491Y0014000D01*
X0333491Y0012000D02*
X0333493Y0012158D01*
X0333499Y0012316D01*
X0333509Y0012474D01*
X0333523Y0012632D01*
X0333541Y0012789D01*
X0333562Y0012946D01*
X0333588Y0013102D01*
X0333618Y0013258D01*
X0333651Y0013413D01*
X0333689Y0013566D01*
X0333730Y0013719D01*
X0333775Y0013871D01*
X0333824Y0014022D01*
X0333877Y0014171D01*
X0333933Y0014319D01*
X0333993Y0014465D01*
X0334057Y0014610D01*
X0334125Y0014753D01*
X0334196Y0014895D01*
X0334270Y0015035D01*
X0334348Y0015172D01*
X0334430Y0015308D01*
X0334514Y0015442D01*
X0334603Y0015573D01*
X0334694Y0015702D01*
X0334789Y0015829D01*
X0334886Y0015954D01*
X0334987Y0016076D01*
X0335091Y0016195D01*
X0335198Y0016312D01*
X0335308Y0016426D01*
X0335421Y0016537D01*
X0335536Y0016646D01*
X0335654Y0016751D01*
X0335775Y0016853D01*
X0335898Y0016953D01*
X0336024Y0017049D01*
X0336152Y0017142D01*
X0336282Y0017232D01*
X0336415Y0017318D01*
X0336550Y0017402D01*
X0336686Y0017481D01*
X0336825Y0017558D01*
X0336966Y0017630D01*
X0337108Y0017700D01*
X0337252Y0017765D01*
X0337398Y0017827D01*
X0337545Y0017885D01*
X0337694Y0017940D01*
X0337844Y0017991D01*
X0337995Y0018038D01*
X0338147Y0018081D01*
X0338300Y0018120D01*
X0338455Y0018156D01*
X0338610Y0018187D01*
X0338766Y0018215D01*
X0338922Y0018239D01*
X0339079Y0018259D01*
X0339237Y0018275D01*
X0339394Y0018287D01*
X0339553Y0018295D01*
X0339711Y0018299D01*
X0339869Y0018299D01*
X0340027Y0018295D01*
X0340186Y0018287D01*
X0340343Y0018275D01*
X0340501Y0018259D01*
X0340658Y0018239D01*
X0340814Y0018215D01*
X0340970Y0018187D01*
X0341125Y0018156D01*
X0341280Y0018120D01*
X0341433Y0018081D01*
X0341585Y0018038D01*
X0341736Y0017991D01*
X0341886Y0017940D01*
X0342035Y0017885D01*
X0342182Y0017827D01*
X0342328Y0017765D01*
X0342472Y0017700D01*
X0342614Y0017630D01*
X0342755Y0017558D01*
X0342894Y0017481D01*
X0343030Y0017402D01*
X0343165Y0017318D01*
X0343298Y0017232D01*
X0343428Y0017142D01*
X0343556Y0017049D01*
X0343682Y0016953D01*
X0343805Y0016853D01*
X0343926Y0016751D01*
X0344044Y0016646D01*
X0344159Y0016537D01*
X0344272Y0016426D01*
X0344382Y0016312D01*
X0344489Y0016195D01*
X0344593Y0016076D01*
X0344694Y0015954D01*
X0344791Y0015829D01*
X0344886Y0015702D01*
X0344977Y0015573D01*
X0345066Y0015442D01*
X0345150Y0015308D01*
X0345232Y0015172D01*
X0345310Y0015035D01*
X0345384Y0014895D01*
X0345455Y0014753D01*
X0345523Y0014610D01*
X0345587Y0014465D01*
X0345647Y0014319D01*
X0345703Y0014171D01*
X0345756Y0014022D01*
X0345805Y0013871D01*
X0345850Y0013719D01*
X0345891Y0013566D01*
X0345929Y0013413D01*
X0345962Y0013258D01*
X0345992Y0013102D01*
X0346018Y0012946D01*
X0346039Y0012789D01*
X0346057Y0012632D01*
X0346071Y0012474D01*
X0346081Y0012316D01*
X0346087Y0012158D01*
X0346089Y0012000D01*
X0346087Y0011842D01*
X0346081Y0011684D01*
X0346071Y0011526D01*
X0346057Y0011368D01*
X0346039Y0011211D01*
X0346018Y0011054D01*
X0345992Y0010898D01*
X0345962Y0010742D01*
X0345929Y0010587D01*
X0345891Y0010434D01*
X0345850Y0010281D01*
X0345805Y0010129D01*
X0345756Y0009978D01*
X0345703Y0009829D01*
X0345647Y0009681D01*
X0345587Y0009535D01*
X0345523Y0009390D01*
X0345455Y0009247D01*
X0345384Y0009105D01*
X0345310Y0008965D01*
X0345232Y0008828D01*
X0345150Y0008692D01*
X0345066Y0008558D01*
X0344977Y0008427D01*
X0344886Y0008298D01*
X0344791Y0008171D01*
X0344694Y0008046D01*
X0344593Y0007924D01*
X0344489Y0007805D01*
X0344382Y0007688D01*
X0344272Y0007574D01*
X0344159Y0007463D01*
X0344044Y0007354D01*
X0343926Y0007249D01*
X0343805Y0007147D01*
X0343682Y0007047D01*
X0343556Y0006951D01*
X0343428Y0006858D01*
X0343298Y0006768D01*
X0343165Y0006682D01*
X0343030Y0006598D01*
X0342894Y0006519D01*
X0342755Y0006442D01*
X0342614Y0006370D01*
X0342472Y0006300D01*
X0342328Y0006235D01*
X0342182Y0006173D01*
X0342035Y0006115D01*
X0341886Y0006060D01*
X0341736Y0006009D01*
X0341585Y0005962D01*
X0341433Y0005919D01*
X0341280Y0005880D01*
X0341125Y0005844D01*
X0340970Y0005813D01*
X0340814Y0005785D01*
X0340658Y0005761D01*
X0340501Y0005741D01*
X0340343Y0005725D01*
X0340186Y0005713D01*
X0340027Y0005705D01*
X0339869Y0005701D01*
X0339711Y0005701D01*
X0339553Y0005705D01*
X0339394Y0005713D01*
X0339237Y0005725D01*
X0339079Y0005741D01*
X0338922Y0005761D01*
X0338766Y0005785D01*
X0338610Y0005813D01*
X0338455Y0005844D01*
X0338300Y0005880D01*
X0338147Y0005919D01*
X0337995Y0005962D01*
X0337844Y0006009D01*
X0337694Y0006060D01*
X0337545Y0006115D01*
X0337398Y0006173D01*
X0337252Y0006235D01*
X0337108Y0006300D01*
X0336966Y0006370D01*
X0336825Y0006442D01*
X0336686Y0006519D01*
X0336550Y0006598D01*
X0336415Y0006682D01*
X0336282Y0006768D01*
X0336152Y0006858D01*
X0336024Y0006951D01*
X0335898Y0007047D01*
X0335775Y0007147D01*
X0335654Y0007249D01*
X0335536Y0007354D01*
X0335421Y0007463D01*
X0335308Y0007574D01*
X0335198Y0007688D01*
X0335091Y0007805D01*
X0334987Y0007924D01*
X0334886Y0008046D01*
X0334789Y0008171D01*
X0334694Y0008298D01*
X0334603Y0008427D01*
X0334514Y0008558D01*
X0334430Y0008692D01*
X0334348Y0008828D01*
X0334270Y0008965D01*
X0334196Y0009105D01*
X0334125Y0009247D01*
X0334057Y0009390D01*
X0333993Y0009535D01*
X0333933Y0009681D01*
X0333877Y0009829D01*
X0333824Y0009978D01*
X0333775Y0010129D01*
X0333730Y0010281D01*
X0333689Y0010434D01*
X0333651Y0010587D01*
X0333618Y0010742D01*
X0333588Y0010898D01*
X0333562Y0011054D01*
X0333541Y0011211D01*
X0333523Y0011368D01*
X0333509Y0011526D01*
X0333499Y0011684D01*
X0333493Y0011842D01*
X0333491Y0012000D01*
X0334491Y0256000D02*
X0334493Y0256158D01*
X0334499Y0256316D01*
X0334509Y0256474D01*
X0334523Y0256632D01*
X0334541Y0256789D01*
X0334562Y0256946D01*
X0334588Y0257102D01*
X0334618Y0257258D01*
X0334651Y0257413D01*
X0334689Y0257566D01*
X0334730Y0257719D01*
X0334775Y0257871D01*
X0334824Y0258022D01*
X0334877Y0258171D01*
X0334933Y0258319D01*
X0334993Y0258465D01*
X0335057Y0258610D01*
X0335125Y0258753D01*
X0335196Y0258895D01*
X0335270Y0259035D01*
X0335348Y0259172D01*
X0335430Y0259308D01*
X0335514Y0259442D01*
X0335603Y0259573D01*
X0335694Y0259702D01*
X0335789Y0259829D01*
X0335886Y0259954D01*
X0335987Y0260076D01*
X0336091Y0260195D01*
X0336198Y0260312D01*
X0336308Y0260426D01*
X0336421Y0260537D01*
X0336536Y0260646D01*
X0336654Y0260751D01*
X0336775Y0260853D01*
X0336898Y0260953D01*
X0337024Y0261049D01*
X0337152Y0261142D01*
X0337282Y0261232D01*
X0337415Y0261318D01*
X0337550Y0261402D01*
X0337686Y0261481D01*
X0337825Y0261558D01*
X0337966Y0261630D01*
X0338108Y0261700D01*
X0338252Y0261765D01*
X0338398Y0261827D01*
X0338545Y0261885D01*
X0338694Y0261940D01*
X0338844Y0261991D01*
X0338995Y0262038D01*
X0339147Y0262081D01*
X0339300Y0262120D01*
X0339455Y0262156D01*
X0339610Y0262187D01*
X0339766Y0262215D01*
X0339922Y0262239D01*
X0340079Y0262259D01*
X0340237Y0262275D01*
X0340394Y0262287D01*
X0340553Y0262295D01*
X0340711Y0262299D01*
X0340869Y0262299D01*
X0341027Y0262295D01*
X0341186Y0262287D01*
X0341343Y0262275D01*
X0341501Y0262259D01*
X0341658Y0262239D01*
X0341814Y0262215D01*
X0341970Y0262187D01*
X0342125Y0262156D01*
X0342280Y0262120D01*
X0342433Y0262081D01*
X0342585Y0262038D01*
X0342736Y0261991D01*
X0342886Y0261940D01*
X0343035Y0261885D01*
X0343182Y0261827D01*
X0343328Y0261765D01*
X0343472Y0261700D01*
X0343614Y0261630D01*
X0343755Y0261558D01*
X0343894Y0261481D01*
X0344030Y0261402D01*
X0344165Y0261318D01*
X0344298Y0261232D01*
X0344428Y0261142D01*
X0344556Y0261049D01*
X0344682Y0260953D01*
X0344805Y0260853D01*
X0344926Y0260751D01*
X0345044Y0260646D01*
X0345159Y0260537D01*
X0345272Y0260426D01*
X0345382Y0260312D01*
X0345489Y0260195D01*
X0345593Y0260076D01*
X0345694Y0259954D01*
X0345791Y0259829D01*
X0345886Y0259702D01*
X0345977Y0259573D01*
X0346066Y0259442D01*
X0346150Y0259308D01*
X0346232Y0259172D01*
X0346310Y0259035D01*
X0346384Y0258895D01*
X0346455Y0258753D01*
X0346523Y0258610D01*
X0346587Y0258465D01*
X0346647Y0258319D01*
X0346703Y0258171D01*
X0346756Y0258022D01*
X0346805Y0257871D01*
X0346850Y0257719D01*
X0346891Y0257566D01*
X0346929Y0257413D01*
X0346962Y0257258D01*
X0346992Y0257102D01*
X0347018Y0256946D01*
X0347039Y0256789D01*
X0347057Y0256632D01*
X0347071Y0256474D01*
X0347081Y0256316D01*
X0347087Y0256158D01*
X0347089Y0256000D01*
X0347087Y0255842D01*
X0347081Y0255684D01*
X0347071Y0255526D01*
X0347057Y0255368D01*
X0347039Y0255211D01*
X0347018Y0255054D01*
X0346992Y0254898D01*
X0346962Y0254742D01*
X0346929Y0254587D01*
X0346891Y0254434D01*
X0346850Y0254281D01*
X0346805Y0254129D01*
X0346756Y0253978D01*
X0346703Y0253829D01*
X0346647Y0253681D01*
X0346587Y0253535D01*
X0346523Y0253390D01*
X0346455Y0253247D01*
X0346384Y0253105D01*
X0346310Y0252965D01*
X0346232Y0252828D01*
X0346150Y0252692D01*
X0346066Y0252558D01*
X0345977Y0252427D01*
X0345886Y0252298D01*
X0345791Y0252171D01*
X0345694Y0252046D01*
X0345593Y0251924D01*
X0345489Y0251805D01*
X0345382Y0251688D01*
X0345272Y0251574D01*
X0345159Y0251463D01*
X0345044Y0251354D01*
X0344926Y0251249D01*
X0344805Y0251147D01*
X0344682Y0251047D01*
X0344556Y0250951D01*
X0344428Y0250858D01*
X0344298Y0250768D01*
X0344165Y0250682D01*
X0344030Y0250598D01*
X0343894Y0250519D01*
X0343755Y0250442D01*
X0343614Y0250370D01*
X0343472Y0250300D01*
X0343328Y0250235D01*
X0343182Y0250173D01*
X0343035Y0250115D01*
X0342886Y0250060D01*
X0342736Y0250009D01*
X0342585Y0249962D01*
X0342433Y0249919D01*
X0342280Y0249880D01*
X0342125Y0249844D01*
X0341970Y0249813D01*
X0341814Y0249785D01*
X0341658Y0249761D01*
X0341501Y0249741D01*
X0341343Y0249725D01*
X0341186Y0249713D01*
X0341027Y0249705D01*
X0340869Y0249701D01*
X0340711Y0249701D01*
X0340553Y0249705D01*
X0340394Y0249713D01*
X0340237Y0249725D01*
X0340079Y0249741D01*
X0339922Y0249761D01*
X0339766Y0249785D01*
X0339610Y0249813D01*
X0339455Y0249844D01*
X0339300Y0249880D01*
X0339147Y0249919D01*
X0338995Y0249962D01*
X0338844Y0250009D01*
X0338694Y0250060D01*
X0338545Y0250115D01*
X0338398Y0250173D01*
X0338252Y0250235D01*
X0338108Y0250300D01*
X0337966Y0250370D01*
X0337825Y0250442D01*
X0337686Y0250519D01*
X0337550Y0250598D01*
X0337415Y0250682D01*
X0337282Y0250768D01*
X0337152Y0250858D01*
X0337024Y0250951D01*
X0336898Y0251047D01*
X0336775Y0251147D01*
X0336654Y0251249D01*
X0336536Y0251354D01*
X0336421Y0251463D01*
X0336308Y0251574D01*
X0336198Y0251688D01*
X0336091Y0251805D01*
X0335987Y0251924D01*
X0335886Y0252046D01*
X0335789Y0252171D01*
X0335694Y0252298D01*
X0335603Y0252427D01*
X0335514Y0252558D01*
X0335430Y0252692D01*
X0335348Y0252828D01*
X0335270Y0252965D01*
X0335196Y0253105D01*
X0335125Y0253247D01*
X0335057Y0253390D01*
X0334993Y0253535D01*
X0334933Y0253681D01*
X0334877Y0253829D01*
X0334824Y0253978D01*
X0334775Y0254129D01*
X0334730Y0254281D01*
X0334689Y0254434D01*
X0334651Y0254587D01*
X0334618Y0254742D01*
X0334588Y0254898D01*
X0334562Y0255054D01*
X0334541Y0255211D01*
X0334523Y0255368D01*
X0334509Y0255526D01*
X0334499Y0255684D01*
X0334493Y0255842D01*
X0334491Y0256000D01*
X0029491Y0257000D02*
X0029493Y0257158D01*
X0029499Y0257316D01*
X0029509Y0257474D01*
X0029523Y0257632D01*
X0029541Y0257789D01*
X0029562Y0257946D01*
X0029588Y0258102D01*
X0029618Y0258258D01*
X0029651Y0258413D01*
X0029689Y0258566D01*
X0029730Y0258719D01*
X0029775Y0258871D01*
X0029824Y0259022D01*
X0029877Y0259171D01*
X0029933Y0259319D01*
X0029993Y0259465D01*
X0030057Y0259610D01*
X0030125Y0259753D01*
X0030196Y0259895D01*
X0030270Y0260035D01*
X0030348Y0260172D01*
X0030430Y0260308D01*
X0030514Y0260442D01*
X0030603Y0260573D01*
X0030694Y0260702D01*
X0030789Y0260829D01*
X0030886Y0260954D01*
X0030987Y0261076D01*
X0031091Y0261195D01*
X0031198Y0261312D01*
X0031308Y0261426D01*
X0031421Y0261537D01*
X0031536Y0261646D01*
X0031654Y0261751D01*
X0031775Y0261853D01*
X0031898Y0261953D01*
X0032024Y0262049D01*
X0032152Y0262142D01*
X0032282Y0262232D01*
X0032415Y0262318D01*
X0032550Y0262402D01*
X0032686Y0262481D01*
X0032825Y0262558D01*
X0032966Y0262630D01*
X0033108Y0262700D01*
X0033252Y0262765D01*
X0033398Y0262827D01*
X0033545Y0262885D01*
X0033694Y0262940D01*
X0033844Y0262991D01*
X0033995Y0263038D01*
X0034147Y0263081D01*
X0034300Y0263120D01*
X0034455Y0263156D01*
X0034610Y0263187D01*
X0034766Y0263215D01*
X0034922Y0263239D01*
X0035079Y0263259D01*
X0035237Y0263275D01*
X0035394Y0263287D01*
X0035553Y0263295D01*
X0035711Y0263299D01*
X0035869Y0263299D01*
X0036027Y0263295D01*
X0036186Y0263287D01*
X0036343Y0263275D01*
X0036501Y0263259D01*
X0036658Y0263239D01*
X0036814Y0263215D01*
X0036970Y0263187D01*
X0037125Y0263156D01*
X0037280Y0263120D01*
X0037433Y0263081D01*
X0037585Y0263038D01*
X0037736Y0262991D01*
X0037886Y0262940D01*
X0038035Y0262885D01*
X0038182Y0262827D01*
X0038328Y0262765D01*
X0038472Y0262700D01*
X0038614Y0262630D01*
X0038755Y0262558D01*
X0038894Y0262481D01*
X0039030Y0262402D01*
X0039165Y0262318D01*
X0039298Y0262232D01*
X0039428Y0262142D01*
X0039556Y0262049D01*
X0039682Y0261953D01*
X0039805Y0261853D01*
X0039926Y0261751D01*
X0040044Y0261646D01*
X0040159Y0261537D01*
X0040272Y0261426D01*
X0040382Y0261312D01*
X0040489Y0261195D01*
X0040593Y0261076D01*
X0040694Y0260954D01*
X0040791Y0260829D01*
X0040886Y0260702D01*
X0040977Y0260573D01*
X0041066Y0260442D01*
X0041150Y0260308D01*
X0041232Y0260172D01*
X0041310Y0260035D01*
X0041384Y0259895D01*
X0041455Y0259753D01*
X0041523Y0259610D01*
X0041587Y0259465D01*
X0041647Y0259319D01*
X0041703Y0259171D01*
X0041756Y0259022D01*
X0041805Y0258871D01*
X0041850Y0258719D01*
X0041891Y0258566D01*
X0041929Y0258413D01*
X0041962Y0258258D01*
X0041992Y0258102D01*
X0042018Y0257946D01*
X0042039Y0257789D01*
X0042057Y0257632D01*
X0042071Y0257474D01*
X0042081Y0257316D01*
X0042087Y0257158D01*
X0042089Y0257000D01*
X0042087Y0256842D01*
X0042081Y0256684D01*
X0042071Y0256526D01*
X0042057Y0256368D01*
X0042039Y0256211D01*
X0042018Y0256054D01*
X0041992Y0255898D01*
X0041962Y0255742D01*
X0041929Y0255587D01*
X0041891Y0255434D01*
X0041850Y0255281D01*
X0041805Y0255129D01*
X0041756Y0254978D01*
X0041703Y0254829D01*
X0041647Y0254681D01*
X0041587Y0254535D01*
X0041523Y0254390D01*
X0041455Y0254247D01*
X0041384Y0254105D01*
X0041310Y0253965D01*
X0041232Y0253828D01*
X0041150Y0253692D01*
X0041066Y0253558D01*
X0040977Y0253427D01*
X0040886Y0253298D01*
X0040791Y0253171D01*
X0040694Y0253046D01*
X0040593Y0252924D01*
X0040489Y0252805D01*
X0040382Y0252688D01*
X0040272Y0252574D01*
X0040159Y0252463D01*
X0040044Y0252354D01*
X0039926Y0252249D01*
X0039805Y0252147D01*
X0039682Y0252047D01*
X0039556Y0251951D01*
X0039428Y0251858D01*
X0039298Y0251768D01*
X0039165Y0251682D01*
X0039030Y0251598D01*
X0038894Y0251519D01*
X0038755Y0251442D01*
X0038614Y0251370D01*
X0038472Y0251300D01*
X0038328Y0251235D01*
X0038182Y0251173D01*
X0038035Y0251115D01*
X0037886Y0251060D01*
X0037736Y0251009D01*
X0037585Y0250962D01*
X0037433Y0250919D01*
X0037280Y0250880D01*
X0037125Y0250844D01*
X0036970Y0250813D01*
X0036814Y0250785D01*
X0036658Y0250761D01*
X0036501Y0250741D01*
X0036343Y0250725D01*
X0036186Y0250713D01*
X0036027Y0250705D01*
X0035869Y0250701D01*
X0035711Y0250701D01*
X0035553Y0250705D01*
X0035394Y0250713D01*
X0035237Y0250725D01*
X0035079Y0250741D01*
X0034922Y0250761D01*
X0034766Y0250785D01*
X0034610Y0250813D01*
X0034455Y0250844D01*
X0034300Y0250880D01*
X0034147Y0250919D01*
X0033995Y0250962D01*
X0033844Y0251009D01*
X0033694Y0251060D01*
X0033545Y0251115D01*
X0033398Y0251173D01*
X0033252Y0251235D01*
X0033108Y0251300D01*
X0032966Y0251370D01*
X0032825Y0251442D01*
X0032686Y0251519D01*
X0032550Y0251598D01*
X0032415Y0251682D01*
X0032282Y0251768D01*
X0032152Y0251858D01*
X0032024Y0251951D01*
X0031898Y0252047D01*
X0031775Y0252147D01*
X0031654Y0252249D01*
X0031536Y0252354D01*
X0031421Y0252463D01*
X0031308Y0252574D01*
X0031198Y0252688D01*
X0031091Y0252805D01*
X0030987Y0252924D01*
X0030886Y0253046D01*
X0030789Y0253171D01*
X0030694Y0253298D01*
X0030603Y0253427D01*
X0030514Y0253558D01*
X0030430Y0253692D01*
X0030348Y0253828D01*
X0030270Y0253965D01*
X0030196Y0254105D01*
X0030125Y0254247D01*
X0030057Y0254390D01*
X0029993Y0254535D01*
X0029933Y0254681D01*
X0029877Y0254829D01*
X0029824Y0254978D01*
X0029775Y0255129D01*
X0029730Y0255281D01*
X0029689Y0255434D01*
X0029651Y0255587D01*
X0029618Y0255742D01*
X0029588Y0255898D01*
X0029562Y0256054D01*
X0029541Y0256211D01*
X0029523Y0256368D01*
X0029509Y0256526D01*
X0029499Y0256684D01*
X0029493Y0256842D01*
X0029491Y0257000D01*
D11*
X0281090Y0162705D02*
X0281090Y0159503D01*
X0283225Y0160570D01*
X0284293Y0160570D01*
X0285361Y0159503D01*
X0285361Y0157368D01*
X0284293Y0156300D01*
X0282158Y0156300D01*
X0281090Y0157368D01*
X0287536Y0158435D02*
X0289671Y0156300D01*
X0291806Y0158435D01*
X0291806Y0162705D01*
X0287536Y0162705D02*
X0287536Y0158435D01*
X0285361Y0162705D02*
X0281090Y0162705D01*
X0336090Y0131638D02*
X0336090Y0127368D01*
X0337158Y0126300D01*
X0339293Y0126300D01*
X0340361Y0127368D01*
X0340361Y0129503D01*
X0338225Y0129503D01*
X0336090Y0131638D02*
X0337158Y0132705D01*
X0339293Y0132705D01*
X0340361Y0131638D01*
X0342536Y0132705D02*
X0346806Y0126300D01*
X0346806Y0132705D01*
X0348981Y0132705D02*
X0352184Y0132705D01*
X0353252Y0131638D01*
X0353252Y0127368D01*
X0352184Y0126300D01*
X0348981Y0126300D01*
X0348981Y0132705D01*
X0342536Y0132705D02*
X0342536Y0126300D01*
X0343603Y0107705D02*
X0342536Y0106638D01*
X0342536Y0102368D01*
X0343603Y0101300D01*
X0345738Y0101300D01*
X0346806Y0102368D01*
X0348981Y0102368D02*
X0350049Y0101300D01*
X0352184Y0101300D01*
X0353252Y0102368D01*
X0348981Y0102368D02*
X0348981Y0106638D01*
X0350049Y0107705D01*
X0352184Y0107705D01*
X0353252Y0106638D01*
X0346806Y0106638D02*
X0345738Y0107705D01*
X0343603Y0107705D01*
X0340361Y0107705D02*
X0340361Y0103435D01*
X0338225Y0101300D01*
X0336090Y0103435D01*
X0336090Y0107705D01*
X0347615Y0234165D02*
X0347615Y0240570D01*
X0350817Y0240570D01*
X0351885Y0239503D01*
X0351885Y0237368D01*
X0350817Y0236300D01*
X0347615Y0236300D01*
X0345440Y0237368D02*
X0344372Y0238435D01*
X0342237Y0238435D01*
X0341169Y0239503D01*
X0342237Y0240570D01*
X0345440Y0240570D01*
X0345440Y0237368D02*
X0344372Y0236300D01*
X0341169Y0236300D01*
X0339007Y0236300D02*
X0336872Y0236300D01*
X0337940Y0236300D02*
X0337940Y0240570D01*
X0336872Y0240570D01*
X0334697Y0240570D02*
X0331494Y0240570D01*
X0330427Y0239503D01*
X0330427Y0237368D01*
X0331494Y0236300D01*
X0334697Y0236300D01*
X0334697Y0242705D01*
X0337940Y0242705D02*
X0337940Y0243773D01*
X0354060Y0242705D02*
X0355128Y0242705D01*
X0355128Y0236300D01*
X0356195Y0236300D02*
X0354060Y0236300D01*
X0358357Y0237368D02*
X0359425Y0238435D01*
X0362628Y0238435D01*
X0362628Y0239503D02*
X0362628Y0236300D01*
X0359425Y0236300D01*
X0358357Y0237368D01*
X0359425Y0240570D02*
X0361560Y0240570D01*
X0362628Y0239503D01*
X0364803Y0240570D02*
X0364803Y0237368D01*
X0365870Y0236300D01*
X0369073Y0236300D01*
X0369073Y0235232D02*
X0368005Y0234165D01*
X0366938Y0234165D01*
X0369073Y0235232D02*
X0369073Y0240570D01*
X0321806Y0239503D02*
X0317536Y0236300D01*
X0315361Y0239503D02*
X0311090Y0239503D01*
X0317536Y0242705D02*
X0321806Y0239503D01*
D12*
X0310790Y0179898D03*
X0322601Y0161000D03*
X0298586Y0161000D03*
D13*
X0173390Y0166000D02*
X0168190Y0166000D01*
X0168190Y0176000D02*
X0173390Y0176000D01*
X0143390Y0176000D02*
X0138190Y0176000D01*
X0138190Y0166000D02*
X0143390Y0166000D01*
X0113390Y0181000D02*
X0108190Y0181000D01*
X0108190Y0191000D02*
X0113390Y0191000D01*
X0083390Y0191000D02*
X0078190Y0191000D01*
X0078190Y0181000D02*
X0083390Y0181000D01*
X0064790Y0204400D02*
X0064790Y0209600D01*
X0054790Y0209600D02*
X0054790Y0204400D01*
X0049790Y0191600D02*
X0049790Y0186400D01*
X0039790Y0186400D02*
X0039790Y0191600D01*
X0039790Y0227400D02*
X0039790Y0232600D01*
X0049790Y0232600D02*
X0049790Y0227400D01*
X0054790Y0250400D02*
X0054790Y0255600D01*
X0064790Y0255600D02*
X0064790Y0250400D01*
X0078190Y0141000D02*
X0083390Y0141000D01*
X0083390Y0131000D02*
X0078190Y0131000D01*
X0108190Y0131000D02*
X0113390Y0131000D01*
X0113390Y0141000D02*
X0108190Y0141000D01*
X0138190Y0126000D02*
X0143390Y0126000D01*
X0143390Y0116000D02*
X0138190Y0116000D01*
X0113390Y0101000D02*
X0108190Y0101000D01*
X0108190Y0091000D02*
X0113390Y0091000D01*
X0138190Y0081000D02*
X0143390Y0081000D01*
X0143390Y0071000D02*
X0138190Y0071000D01*
X0113390Y0051000D02*
X0108190Y0051000D01*
X0108190Y0041000D02*
X0113390Y0041000D01*
X0138190Y0031000D02*
X0143390Y0031000D01*
X0143390Y0021000D02*
X0138190Y0021000D01*
X0168190Y0021000D02*
X0173390Y0021000D01*
X0173390Y0031000D02*
X0168190Y0031000D01*
X0168190Y0071000D02*
X0173390Y0071000D01*
X0173390Y0081000D02*
X0168190Y0081000D01*
X0168190Y0116000D02*
X0173390Y0116000D01*
X0173390Y0126000D02*
X0168190Y0126000D01*
X0083390Y0101000D02*
X0078190Y0101000D01*
X0078190Y0091000D02*
X0083390Y0091000D01*
X0083390Y0051000D02*
X0078190Y0051000D01*
X0078190Y0041000D02*
X0083390Y0041000D01*
D14*
X0054315Y0031157D02*
X0047265Y0031157D01*
X0047265Y0050843D02*
X0054315Y0050843D01*
X0054315Y0071157D02*
X0047265Y0071157D01*
X0047265Y0090843D02*
X0054315Y0090843D01*
X0054315Y0111157D02*
X0047265Y0111157D01*
X0047265Y0130843D02*
X0054315Y0130843D01*
X0054315Y0151157D02*
X0047265Y0151157D01*
X0047265Y0170843D02*
X0054315Y0170843D01*
X0312265Y0125843D02*
X0319315Y0125843D01*
X0319315Y0106157D02*
X0312265Y0106157D01*
X0312265Y0085843D02*
X0319315Y0085843D01*
X0319315Y0066157D02*
X0312265Y0066157D01*
X0312265Y0045843D02*
X0319315Y0045843D01*
X0319315Y0026157D02*
X0312265Y0026157D01*
D15*
X0302995Y0202220D03*
X0302995Y0206157D03*
X0302995Y0210094D03*
X0302995Y0214031D03*
X0302995Y0217969D03*
X0302995Y0221906D03*
X0302995Y0225843D03*
X0302995Y0229780D03*
D16*
X0315790Y0239228D03*
X0315790Y0192772D03*
D17*
X0183790Y0217000D03*
X0178790Y0232000D03*
X0133790Y0217000D03*
X0125790Y0221000D03*
X0128790Y0232000D03*
X0124790Y0243000D03*
X0075790Y0221000D03*
X0074790Y0243000D03*
D18*
X0205990Y0238500D03*
X0205990Y0233500D03*
X0205990Y0228500D03*
X0205990Y0223500D03*
X0205990Y0218500D03*
X0205990Y0213500D03*
X0205990Y0208500D03*
X0205990Y0203500D03*
X0205990Y0198500D03*
X0205990Y0193500D03*
X0245590Y0193500D03*
X0245590Y0198500D03*
X0245590Y0203500D03*
X0245590Y0208500D03*
X0245590Y0213500D03*
X0245590Y0218500D03*
X0245590Y0223500D03*
X0245590Y0228500D03*
X0245590Y0233500D03*
X0245590Y0238500D03*
D19*
X0225790Y0164740D03*
X0225790Y0157260D03*
D20*
X0218664Y0082161D03*
X0252916Y0082161D03*
X0252916Y0039839D03*
X0218664Y0039839D03*
D21*
X0252916Y0039839D02*
X0252985Y0039238D01*
X0302591Y0039238D01*
X0314993Y0026837D01*
X0315790Y0026157D01*
X0315790Y0045843D02*
X0314993Y0046472D01*
X0279855Y0081610D01*
X0252985Y0081610D01*
X0252916Y0082161D01*
X0205446Y0097112D02*
X0205446Y0189125D01*
X0203290Y0189125D01*
X0205446Y0189125D02*
X0205446Y0193224D01*
X0205990Y0193500D01*
X0205990Y0198500D02*
X0205446Y0199425D01*
X0198212Y0199425D01*
X0198212Y0144652D01*
X0175475Y0121915D01*
X0168241Y0121915D01*
X0111401Y0065075D01*
X0111401Y0051640D01*
X0110790Y0051000D01*
X0080790Y0041000D02*
X0080397Y0041305D01*
X0051460Y0070242D01*
X0050790Y0071157D01*
X0050790Y0090843D02*
X0051460Y0090911D01*
X0060761Y0100213D01*
X0080397Y0100213D01*
X0080790Y0101000D01*
X0055593Y0115715D02*
X0051460Y0111581D01*
X0050790Y0111157D01*
X0055593Y0115715D02*
X0140338Y0115715D01*
X0140790Y0116000D01*
X0170790Y0126000D02*
X0171341Y0126049D01*
X0171341Y0158087D01*
X0177542Y0164287D01*
X0177542Y0203500D01*
X0141415Y0203500D01*
X0129540Y0215375D01*
X0129540Y0216000D01*
X0125790Y0219750D01*
X0125790Y0221000D01*
X0125869Y0220094D01*
X0117601Y0213894D02*
X0054560Y0213894D01*
X0054560Y0207693D01*
X0054790Y0207000D01*
X0054560Y0206659D01*
X0040091Y0192191D01*
X0040091Y0189091D01*
X0039790Y0189000D01*
X0051460Y0171522D02*
X0050790Y0170843D01*
X0051460Y0171522D02*
X0070062Y0190124D01*
X0080397Y0190124D01*
X0080790Y0191000D01*
X0110790Y0181000D02*
X0111401Y0181856D01*
X0117601Y0188057D01*
X0117601Y0213894D01*
X0117601Y0241797D01*
X0123802Y0247998D01*
X0125869Y0247998D01*
X0126415Y0247875D01*
X0173915Y0247875D01*
X0188915Y0232875D01*
X0202040Y0232875D01*
X0205990Y0233500D01*
X0205446Y0232496D01*
X0202345Y0232496D01*
X0205990Y0208500D02*
X0205446Y0207693D01*
X0188910Y0207693D01*
X0186843Y0210626D01*
X0162040Y0210626D01*
X0128969Y0238697D01*
X0121735Y0231463D01*
X0121735Y0182890D01*
X0111401Y0172555D01*
X0111401Y0141551D01*
X0110790Y0141000D01*
X0080790Y0131000D02*
X0080397Y0131217D01*
X0071095Y0131217D01*
X0051460Y0150852D01*
X0050790Y0151157D01*
X0054560Y0213894D02*
X0054560Y0214927D01*
X0040091Y0229396D01*
X0039790Y0230000D01*
X0040091Y0230429D01*
X0040091Y0237663D01*
X0054560Y0252132D01*
X0054790Y0253000D01*
X0064790Y0253000D02*
X0064895Y0252132D01*
X0074196Y0242831D01*
X0074790Y0243000D01*
X0058694Y0221128D02*
X0050426Y0229396D01*
X0049790Y0230000D01*
X0058694Y0221128D02*
X0075229Y0221128D01*
X0075790Y0221000D01*
X0124836Y0242831D02*
X0124790Y0243000D01*
X0124836Y0242831D02*
X0128969Y0238697D01*
X0177542Y0203559D02*
X0177542Y0203500D01*
X0177542Y0203559D02*
X0205446Y0203559D01*
X0205990Y0203500D01*
X0234550Y0192191D02*
X0264353Y0167388D01*
X0295357Y0167388D01*
X0298458Y0164287D01*
X0298458Y0161187D01*
X0298586Y0161000D01*
X0299491Y0160154D01*
X0299491Y0131217D01*
X0314993Y0115715D01*
X0314993Y0106413D01*
X0315790Y0106157D01*
X0315790Y0125843D02*
X0316026Y0126049D01*
X0316026Y0153953D01*
X0322227Y0160154D01*
X0322601Y0161000D01*
X0322227Y0161187D01*
X0322227Y0196325D01*
X0316026Y0202526D01*
X0303625Y0202526D01*
X0302995Y0202220D01*
X0302591Y0205626D02*
X0302995Y0206157D01*
X0302591Y0205626D02*
X0260219Y0205626D01*
X0248851Y0194258D01*
X0245751Y0194258D01*
X0245590Y0193500D01*
X0245590Y0198500D02*
X0245751Y0199425D01*
X0248851Y0199425D01*
X0259186Y0209760D01*
X0302591Y0209760D01*
X0302995Y0210094D01*
X0302591Y0213894D02*
X0302995Y0214031D01*
X0302591Y0213894D02*
X0259186Y0213894D01*
X0248851Y0203559D01*
X0245751Y0203559D01*
X0245590Y0203500D01*
X0245590Y0208500D02*
X0245751Y0208726D01*
X0248851Y0208726D01*
X0258152Y0218028D01*
X0302591Y0218028D01*
X0302995Y0217969D01*
X0245590Y0233500D02*
X0244717Y0232496D01*
X0241617Y0232496D01*
X0234550Y0230429D01*
X0234550Y0192191D01*
X0205446Y0097112D02*
X0171341Y0063008D01*
X0171341Y0032004D01*
X0170790Y0031000D01*
X0140790Y0021000D02*
X0140338Y0021669D01*
X0060761Y0021669D01*
X0051460Y0030970D01*
X0050790Y0031157D01*
D22*
X0203290Y0189125D03*
X0198212Y0199425D03*
M02*
