G75*
%MOIN*%
%OFA0B0*%
%FSLAX26Y26*%
%IPPOS*%
%LPD*%
%AMOC8*
5,1,8,0,0,1.08239X$1,22.5*
%
%ADD10C,0.000000*%
%ADD11C,0.008000*%
%ADD12C,0.004000*%
%ADD13C,0.006000*%
%ADD14C,0.010000*%
%ADD15C,0.005000*%
%ADD16C,0.024000*%
%ADD17R,0.024000X0.034000*%
%ADD18R,0.034000X0.024000*%
D10*
X00000000Y00000000D02*
X00000000Y02299606D01*
X03587008Y02299606D01*
X03587008Y00000000D01*
X00000000Y00000000D01*
X00064094Y00080000D02*
X00064096Y00080153D01*
X00064102Y00080307D01*
X00064112Y00080460D01*
X00064126Y00080612D01*
X00064144Y00080765D01*
X00064166Y00080916D01*
X00064191Y00081067D01*
X00064221Y00081218D01*
X00064255Y00081368D01*
X00064292Y00081516D01*
X00064333Y00081664D01*
X00064378Y00081810D01*
X00064427Y00081956D01*
X00064480Y00082100D01*
X00064536Y00082242D01*
X00064596Y00082383D01*
X00064660Y00082523D01*
X00064727Y00082661D01*
X00064798Y00082797D01*
X00064873Y00082931D01*
X00064950Y00083063D01*
X00065032Y00083193D01*
X00065116Y00083321D01*
X00065204Y00083447D01*
X00065295Y00083570D01*
X00065389Y00083691D01*
X00065487Y00083809D01*
X00065587Y00083925D01*
X00065691Y00084038D01*
X00065797Y00084149D01*
X00065906Y00084257D01*
X00066018Y00084362D01*
X00066132Y00084463D01*
X00066250Y00084562D01*
X00066369Y00084658D01*
X00066491Y00084751D01*
X00066616Y00084840D01*
X00066743Y00084927D01*
X00066872Y00085009D01*
X00067003Y00085089D01*
X00067136Y00085165D01*
X00067271Y00085238D01*
X00067408Y00085307D01*
X00067547Y00085372D01*
X00067687Y00085434D01*
X00067829Y00085492D01*
X00067972Y00085547D01*
X00068117Y00085598D01*
X00068263Y00085645D01*
X00068410Y00085688D01*
X00068558Y00085727D01*
X00068707Y00085763D01*
X00068857Y00085794D01*
X00069008Y00085822D01*
X00069159Y00085846D01*
X00069312Y00085866D01*
X00069464Y00085882D01*
X00069617Y00085894D01*
X00069770Y00085902D01*
X00069923Y00085906D01*
X00070077Y00085906D01*
X00070230Y00085902D01*
X00070383Y00085894D01*
X00070536Y00085882D01*
X00070688Y00085866D01*
X00070841Y00085846D01*
X00070992Y00085822D01*
X00071143Y00085794D01*
X00071293Y00085763D01*
X00071442Y00085727D01*
X00071590Y00085688D01*
X00071737Y00085645D01*
X00071883Y00085598D01*
X00072028Y00085547D01*
X00072171Y00085492D01*
X00072313Y00085434D01*
X00072453Y00085372D01*
X00072592Y00085307D01*
X00072729Y00085238D01*
X00072864Y00085165D01*
X00072997Y00085089D01*
X00073128Y00085009D01*
X00073257Y00084927D01*
X00073384Y00084840D01*
X00073509Y00084751D01*
X00073631Y00084658D01*
X00073750Y00084562D01*
X00073868Y00084463D01*
X00073982Y00084362D01*
X00074094Y00084257D01*
X00074203Y00084149D01*
X00074309Y00084038D01*
X00074413Y00083925D01*
X00074513Y00083809D01*
X00074611Y00083691D01*
X00074705Y00083570D01*
X00074796Y00083447D01*
X00074884Y00083321D01*
X00074968Y00083193D01*
X00075050Y00083063D01*
X00075127Y00082931D01*
X00075202Y00082797D01*
X00075273Y00082661D01*
X00075340Y00082523D01*
X00075404Y00082383D01*
X00075464Y00082242D01*
X00075520Y00082100D01*
X00075573Y00081956D01*
X00075622Y00081810D01*
X00075667Y00081664D01*
X00075708Y00081516D01*
X00075745Y00081368D01*
X00075779Y00081218D01*
X00075809Y00081067D01*
X00075834Y00080916D01*
X00075856Y00080765D01*
X00075874Y00080612D01*
X00075888Y00080460D01*
X00075898Y00080307D01*
X00075904Y00080153D01*
X00075906Y00080000D01*
X00075904Y00079847D01*
X00075898Y00079693D01*
X00075888Y00079540D01*
X00075874Y00079388D01*
X00075856Y00079235D01*
X00075834Y00079084D01*
X00075809Y00078933D01*
X00075779Y00078782D01*
X00075745Y00078632D01*
X00075708Y00078484D01*
X00075667Y00078336D01*
X00075622Y00078190D01*
X00075573Y00078044D01*
X00075520Y00077900D01*
X00075464Y00077758D01*
X00075404Y00077617D01*
X00075340Y00077477D01*
X00075273Y00077339D01*
X00075202Y00077203D01*
X00075127Y00077069D01*
X00075050Y00076937D01*
X00074968Y00076807D01*
X00074884Y00076679D01*
X00074796Y00076553D01*
X00074705Y00076430D01*
X00074611Y00076309D01*
X00074513Y00076191D01*
X00074413Y00076075D01*
X00074309Y00075962D01*
X00074203Y00075851D01*
X00074094Y00075743D01*
X00073982Y00075638D01*
X00073868Y00075537D01*
X00073750Y00075438D01*
X00073631Y00075342D01*
X00073509Y00075249D01*
X00073384Y00075160D01*
X00073257Y00075073D01*
X00073128Y00074991D01*
X00072997Y00074911D01*
X00072864Y00074835D01*
X00072729Y00074762D01*
X00072592Y00074693D01*
X00072453Y00074628D01*
X00072313Y00074566D01*
X00072171Y00074508D01*
X00072028Y00074453D01*
X00071883Y00074402D01*
X00071737Y00074355D01*
X00071590Y00074312D01*
X00071442Y00074273D01*
X00071293Y00074237D01*
X00071143Y00074206D01*
X00070992Y00074178D01*
X00070841Y00074154D01*
X00070688Y00074134D01*
X00070536Y00074118D01*
X00070383Y00074106D01*
X00070230Y00074098D01*
X00070077Y00074094D01*
X00069923Y00074094D01*
X00069770Y00074098D01*
X00069617Y00074106D01*
X00069464Y00074118D01*
X00069312Y00074134D01*
X00069159Y00074154D01*
X00069008Y00074178D01*
X00068857Y00074206D01*
X00068707Y00074237D01*
X00068558Y00074273D01*
X00068410Y00074312D01*
X00068263Y00074355D01*
X00068117Y00074402D01*
X00067972Y00074453D01*
X00067829Y00074508D01*
X00067687Y00074566D01*
X00067547Y00074628D01*
X00067408Y00074693D01*
X00067271Y00074762D01*
X00067136Y00074835D01*
X00067003Y00074911D01*
X00066872Y00074991D01*
X00066743Y00075073D01*
X00066616Y00075160D01*
X00066491Y00075249D01*
X00066369Y00075342D01*
X00066250Y00075438D01*
X00066132Y00075537D01*
X00066018Y00075638D01*
X00065906Y00075743D01*
X00065797Y00075851D01*
X00065691Y00075962D01*
X00065587Y00076075D01*
X00065487Y00076191D01*
X00065389Y00076309D01*
X00065295Y00076430D01*
X00065204Y00076553D01*
X00065116Y00076679D01*
X00065032Y00076807D01*
X00064950Y00076937D01*
X00064873Y00077069D01*
X00064798Y00077203D01*
X00064727Y00077339D01*
X00064660Y00077477D01*
X00064596Y00077617D01*
X00064536Y00077758D01*
X00064480Y00077900D01*
X00064427Y00078044D01*
X00064378Y00078190D01*
X00064333Y00078336D01*
X00064292Y00078484D01*
X00064255Y00078632D01*
X00064221Y00078782D01*
X00064191Y00078933D01*
X00064166Y00079084D01*
X00064144Y00079235D01*
X00064126Y00079388D01*
X00064112Y00079540D01*
X00064102Y00079693D01*
X00064096Y00079847D01*
X00064094Y00080000D01*
X00084094Y02210000D02*
X00084096Y02210153D01*
X00084102Y02210307D01*
X00084112Y02210460D01*
X00084126Y02210612D01*
X00084144Y02210765D01*
X00084166Y02210916D01*
X00084191Y02211067D01*
X00084221Y02211218D01*
X00084255Y02211368D01*
X00084292Y02211516D01*
X00084333Y02211664D01*
X00084378Y02211810D01*
X00084427Y02211956D01*
X00084480Y02212100D01*
X00084536Y02212242D01*
X00084596Y02212383D01*
X00084660Y02212523D01*
X00084727Y02212661D01*
X00084798Y02212797D01*
X00084873Y02212931D01*
X00084950Y02213063D01*
X00085032Y02213193D01*
X00085116Y02213321D01*
X00085204Y02213447D01*
X00085295Y02213570D01*
X00085389Y02213691D01*
X00085487Y02213809D01*
X00085587Y02213925D01*
X00085691Y02214038D01*
X00085797Y02214149D01*
X00085906Y02214257D01*
X00086018Y02214362D01*
X00086132Y02214463D01*
X00086250Y02214562D01*
X00086369Y02214658D01*
X00086491Y02214751D01*
X00086616Y02214840D01*
X00086743Y02214927D01*
X00086872Y02215009D01*
X00087003Y02215089D01*
X00087136Y02215165D01*
X00087271Y02215238D01*
X00087408Y02215307D01*
X00087547Y02215372D01*
X00087687Y02215434D01*
X00087829Y02215492D01*
X00087972Y02215547D01*
X00088117Y02215598D01*
X00088263Y02215645D01*
X00088410Y02215688D01*
X00088558Y02215727D01*
X00088707Y02215763D01*
X00088857Y02215794D01*
X00089008Y02215822D01*
X00089159Y02215846D01*
X00089312Y02215866D01*
X00089464Y02215882D01*
X00089617Y02215894D01*
X00089770Y02215902D01*
X00089923Y02215906D01*
X00090077Y02215906D01*
X00090230Y02215902D01*
X00090383Y02215894D01*
X00090536Y02215882D01*
X00090688Y02215866D01*
X00090841Y02215846D01*
X00090992Y02215822D01*
X00091143Y02215794D01*
X00091293Y02215763D01*
X00091442Y02215727D01*
X00091590Y02215688D01*
X00091737Y02215645D01*
X00091883Y02215598D01*
X00092028Y02215547D01*
X00092171Y02215492D01*
X00092313Y02215434D01*
X00092453Y02215372D01*
X00092592Y02215307D01*
X00092729Y02215238D01*
X00092864Y02215165D01*
X00092997Y02215089D01*
X00093128Y02215009D01*
X00093257Y02214927D01*
X00093384Y02214840D01*
X00093509Y02214751D01*
X00093631Y02214658D01*
X00093750Y02214562D01*
X00093868Y02214463D01*
X00093982Y02214362D01*
X00094094Y02214257D01*
X00094203Y02214149D01*
X00094309Y02214038D01*
X00094413Y02213925D01*
X00094513Y02213809D01*
X00094611Y02213691D01*
X00094705Y02213570D01*
X00094796Y02213447D01*
X00094884Y02213321D01*
X00094968Y02213193D01*
X00095050Y02213063D01*
X00095127Y02212931D01*
X00095202Y02212797D01*
X00095273Y02212661D01*
X00095340Y02212523D01*
X00095404Y02212383D01*
X00095464Y02212242D01*
X00095520Y02212100D01*
X00095573Y02211956D01*
X00095622Y02211810D01*
X00095667Y02211664D01*
X00095708Y02211516D01*
X00095745Y02211368D01*
X00095779Y02211218D01*
X00095809Y02211067D01*
X00095834Y02210916D01*
X00095856Y02210765D01*
X00095874Y02210612D01*
X00095888Y02210460D01*
X00095898Y02210307D01*
X00095904Y02210153D01*
X00095906Y02210000D01*
X00095904Y02209847D01*
X00095898Y02209693D01*
X00095888Y02209540D01*
X00095874Y02209388D01*
X00095856Y02209235D01*
X00095834Y02209084D01*
X00095809Y02208933D01*
X00095779Y02208782D01*
X00095745Y02208632D01*
X00095708Y02208484D01*
X00095667Y02208336D01*
X00095622Y02208190D01*
X00095573Y02208044D01*
X00095520Y02207900D01*
X00095464Y02207758D01*
X00095404Y02207617D01*
X00095340Y02207477D01*
X00095273Y02207339D01*
X00095202Y02207203D01*
X00095127Y02207069D01*
X00095050Y02206937D01*
X00094968Y02206807D01*
X00094884Y02206679D01*
X00094796Y02206553D01*
X00094705Y02206430D01*
X00094611Y02206309D01*
X00094513Y02206191D01*
X00094413Y02206075D01*
X00094309Y02205962D01*
X00094203Y02205851D01*
X00094094Y02205743D01*
X00093982Y02205638D01*
X00093868Y02205537D01*
X00093750Y02205438D01*
X00093631Y02205342D01*
X00093509Y02205249D01*
X00093384Y02205160D01*
X00093257Y02205073D01*
X00093128Y02204991D01*
X00092997Y02204911D01*
X00092864Y02204835D01*
X00092729Y02204762D01*
X00092592Y02204693D01*
X00092453Y02204628D01*
X00092313Y02204566D01*
X00092171Y02204508D01*
X00092028Y02204453D01*
X00091883Y02204402D01*
X00091737Y02204355D01*
X00091590Y02204312D01*
X00091442Y02204273D01*
X00091293Y02204237D01*
X00091143Y02204206D01*
X00090992Y02204178D01*
X00090841Y02204154D01*
X00090688Y02204134D01*
X00090536Y02204118D01*
X00090383Y02204106D01*
X00090230Y02204098D01*
X00090077Y02204094D01*
X00089923Y02204094D01*
X00089770Y02204098D01*
X00089617Y02204106D01*
X00089464Y02204118D01*
X00089312Y02204134D01*
X00089159Y02204154D01*
X00089008Y02204178D01*
X00088857Y02204206D01*
X00088707Y02204237D01*
X00088558Y02204273D01*
X00088410Y02204312D01*
X00088263Y02204355D01*
X00088117Y02204402D01*
X00087972Y02204453D01*
X00087829Y02204508D01*
X00087687Y02204566D01*
X00087547Y02204628D01*
X00087408Y02204693D01*
X00087271Y02204762D01*
X00087136Y02204835D01*
X00087003Y02204911D01*
X00086872Y02204991D01*
X00086743Y02205073D01*
X00086616Y02205160D01*
X00086491Y02205249D01*
X00086369Y02205342D01*
X00086250Y02205438D01*
X00086132Y02205537D01*
X00086018Y02205638D01*
X00085906Y02205743D01*
X00085797Y02205851D01*
X00085691Y02205962D01*
X00085587Y02206075D01*
X00085487Y02206191D01*
X00085389Y02206309D01*
X00085295Y02206430D01*
X00085204Y02206553D01*
X00085116Y02206679D01*
X00085032Y02206807D01*
X00084950Y02206937D01*
X00084873Y02207069D01*
X00084798Y02207203D01*
X00084727Y02207339D01*
X00084660Y02207477D01*
X00084596Y02207617D01*
X00084536Y02207758D01*
X00084480Y02207900D01*
X00084427Y02208044D01*
X00084378Y02208190D01*
X00084333Y02208336D01*
X00084292Y02208484D01*
X00084255Y02208632D01*
X00084221Y02208782D01*
X00084191Y02208933D01*
X00084166Y02209084D01*
X00084144Y02209235D01*
X00084126Y02209388D01*
X00084112Y02209540D01*
X00084102Y02209693D01*
X00084096Y02209847D01*
X00084094Y02210000D01*
X03474094Y02230000D02*
X03474096Y02230153D01*
X03474102Y02230307D01*
X03474112Y02230460D01*
X03474126Y02230612D01*
X03474144Y02230765D01*
X03474166Y02230916D01*
X03474191Y02231067D01*
X03474221Y02231218D01*
X03474255Y02231368D01*
X03474292Y02231516D01*
X03474333Y02231664D01*
X03474378Y02231810D01*
X03474427Y02231956D01*
X03474480Y02232100D01*
X03474536Y02232242D01*
X03474596Y02232383D01*
X03474660Y02232523D01*
X03474727Y02232661D01*
X03474798Y02232797D01*
X03474873Y02232931D01*
X03474950Y02233063D01*
X03475032Y02233193D01*
X03475116Y02233321D01*
X03475204Y02233447D01*
X03475295Y02233570D01*
X03475389Y02233691D01*
X03475487Y02233809D01*
X03475587Y02233925D01*
X03475691Y02234038D01*
X03475797Y02234149D01*
X03475906Y02234257D01*
X03476018Y02234362D01*
X03476132Y02234463D01*
X03476250Y02234562D01*
X03476369Y02234658D01*
X03476491Y02234751D01*
X03476616Y02234840D01*
X03476743Y02234927D01*
X03476872Y02235009D01*
X03477003Y02235089D01*
X03477136Y02235165D01*
X03477271Y02235238D01*
X03477408Y02235307D01*
X03477547Y02235372D01*
X03477687Y02235434D01*
X03477829Y02235492D01*
X03477972Y02235547D01*
X03478117Y02235598D01*
X03478263Y02235645D01*
X03478410Y02235688D01*
X03478558Y02235727D01*
X03478707Y02235763D01*
X03478857Y02235794D01*
X03479008Y02235822D01*
X03479159Y02235846D01*
X03479312Y02235866D01*
X03479464Y02235882D01*
X03479617Y02235894D01*
X03479770Y02235902D01*
X03479923Y02235906D01*
X03480077Y02235906D01*
X03480230Y02235902D01*
X03480383Y02235894D01*
X03480536Y02235882D01*
X03480688Y02235866D01*
X03480841Y02235846D01*
X03480992Y02235822D01*
X03481143Y02235794D01*
X03481293Y02235763D01*
X03481442Y02235727D01*
X03481590Y02235688D01*
X03481737Y02235645D01*
X03481883Y02235598D01*
X03482028Y02235547D01*
X03482171Y02235492D01*
X03482313Y02235434D01*
X03482453Y02235372D01*
X03482592Y02235307D01*
X03482729Y02235238D01*
X03482864Y02235165D01*
X03482997Y02235089D01*
X03483128Y02235009D01*
X03483257Y02234927D01*
X03483384Y02234840D01*
X03483509Y02234751D01*
X03483631Y02234658D01*
X03483750Y02234562D01*
X03483868Y02234463D01*
X03483982Y02234362D01*
X03484094Y02234257D01*
X03484203Y02234149D01*
X03484309Y02234038D01*
X03484413Y02233925D01*
X03484513Y02233809D01*
X03484611Y02233691D01*
X03484705Y02233570D01*
X03484796Y02233447D01*
X03484884Y02233321D01*
X03484968Y02233193D01*
X03485050Y02233063D01*
X03485127Y02232931D01*
X03485202Y02232797D01*
X03485273Y02232661D01*
X03485340Y02232523D01*
X03485404Y02232383D01*
X03485464Y02232242D01*
X03485520Y02232100D01*
X03485573Y02231956D01*
X03485622Y02231810D01*
X03485667Y02231664D01*
X03485708Y02231516D01*
X03485745Y02231368D01*
X03485779Y02231218D01*
X03485809Y02231067D01*
X03485834Y02230916D01*
X03485856Y02230765D01*
X03485874Y02230612D01*
X03485888Y02230460D01*
X03485898Y02230307D01*
X03485904Y02230153D01*
X03485906Y02230000D01*
X03485904Y02229847D01*
X03485898Y02229693D01*
X03485888Y02229540D01*
X03485874Y02229388D01*
X03485856Y02229235D01*
X03485834Y02229084D01*
X03485809Y02228933D01*
X03485779Y02228782D01*
X03485745Y02228632D01*
X03485708Y02228484D01*
X03485667Y02228336D01*
X03485622Y02228190D01*
X03485573Y02228044D01*
X03485520Y02227900D01*
X03485464Y02227758D01*
X03485404Y02227617D01*
X03485340Y02227477D01*
X03485273Y02227339D01*
X03485202Y02227203D01*
X03485127Y02227069D01*
X03485050Y02226937D01*
X03484968Y02226807D01*
X03484884Y02226679D01*
X03484796Y02226553D01*
X03484705Y02226430D01*
X03484611Y02226309D01*
X03484513Y02226191D01*
X03484413Y02226075D01*
X03484309Y02225962D01*
X03484203Y02225851D01*
X03484094Y02225743D01*
X03483982Y02225638D01*
X03483868Y02225537D01*
X03483750Y02225438D01*
X03483631Y02225342D01*
X03483509Y02225249D01*
X03483384Y02225160D01*
X03483257Y02225073D01*
X03483128Y02224991D01*
X03482997Y02224911D01*
X03482864Y02224835D01*
X03482729Y02224762D01*
X03482592Y02224693D01*
X03482453Y02224628D01*
X03482313Y02224566D01*
X03482171Y02224508D01*
X03482028Y02224453D01*
X03481883Y02224402D01*
X03481737Y02224355D01*
X03481590Y02224312D01*
X03481442Y02224273D01*
X03481293Y02224237D01*
X03481143Y02224206D01*
X03480992Y02224178D01*
X03480841Y02224154D01*
X03480688Y02224134D01*
X03480536Y02224118D01*
X03480383Y02224106D01*
X03480230Y02224098D01*
X03480077Y02224094D01*
X03479923Y02224094D01*
X03479770Y02224098D01*
X03479617Y02224106D01*
X03479464Y02224118D01*
X03479312Y02224134D01*
X03479159Y02224154D01*
X03479008Y02224178D01*
X03478857Y02224206D01*
X03478707Y02224237D01*
X03478558Y02224273D01*
X03478410Y02224312D01*
X03478263Y02224355D01*
X03478117Y02224402D01*
X03477972Y02224453D01*
X03477829Y02224508D01*
X03477687Y02224566D01*
X03477547Y02224628D01*
X03477408Y02224693D01*
X03477271Y02224762D01*
X03477136Y02224835D01*
X03477003Y02224911D01*
X03476872Y02224991D01*
X03476743Y02225073D01*
X03476616Y02225160D01*
X03476491Y02225249D01*
X03476369Y02225342D01*
X03476250Y02225438D01*
X03476132Y02225537D01*
X03476018Y02225638D01*
X03475906Y02225743D01*
X03475797Y02225851D01*
X03475691Y02225962D01*
X03475587Y02226075D01*
X03475487Y02226191D01*
X03475389Y02226309D01*
X03475295Y02226430D01*
X03475204Y02226553D01*
X03475116Y02226679D01*
X03475032Y02226807D01*
X03474950Y02226937D01*
X03474873Y02227069D01*
X03474798Y02227203D01*
X03474727Y02227339D01*
X03474660Y02227477D01*
X03474596Y02227617D01*
X03474536Y02227758D01*
X03474480Y02227900D01*
X03474427Y02228044D01*
X03474378Y02228190D01*
X03474333Y02228336D01*
X03474292Y02228484D01*
X03474255Y02228632D01*
X03474221Y02228782D01*
X03474191Y02228933D01*
X03474166Y02229084D01*
X03474144Y02229235D01*
X03474126Y02229388D01*
X03474112Y02229540D01*
X03474102Y02229693D01*
X03474096Y02229847D01*
X03474094Y02230000D01*
X03484094Y00060000D02*
X03484096Y00060153D01*
X03484102Y00060307D01*
X03484112Y00060460D01*
X03484126Y00060612D01*
X03484144Y00060765D01*
X03484166Y00060916D01*
X03484191Y00061067D01*
X03484221Y00061218D01*
X03484255Y00061368D01*
X03484292Y00061516D01*
X03484333Y00061664D01*
X03484378Y00061810D01*
X03484427Y00061956D01*
X03484480Y00062100D01*
X03484536Y00062242D01*
X03484596Y00062383D01*
X03484660Y00062523D01*
X03484727Y00062661D01*
X03484798Y00062797D01*
X03484873Y00062931D01*
X03484950Y00063063D01*
X03485032Y00063193D01*
X03485116Y00063321D01*
X03485204Y00063447D01*
X03485295Y00063570D01*
X03485389Y00063691D01*
X03485487Y00063809D01*
X03485587Y00063925D01*
X03485691Y00064038D01*
X03485797Y00064149D01*
X03485906Y00064257D01*
X03486018Y00064362D01*
X03486132Y00064463D01*
X03486250Y00064562D01*
X03486369Y00064658D01*
X03486491Y00064751D01*
X03486616Y00064840D01*
X03486743Y00064927D01*
X03486872Y00065009D01*
X03487003Y00065089D01*
X03487136Y00065165D01*
X03487271Y00065238D01*
X03487408Y00065307D01*
X03487547Y00065372D01*
X03487687Y00065434D01*
X03487829Y00065492D01*
X03487972Y00065547D01*
X03488117Y00065598D01*
X03488263Y00065645D01*
X03488410Y00065688D01*
X03488558Y00065727D01*
X03488707Y00065763D01*
X03488857Y00065794D01*
X03489008Y00065822D01*
X03489159Y00065846D01*
X03489312Y00065866D01*
X03489464Y00065882D01*
X03489617Y00065894D01*
X03489770Y00065902D01*
X03489923Y00065906D01*
X03490077Y00065906D01*
X03490230Y00065902D01*
X03490383Y00065894D01*
X03490536Y00065882D01*
X03490688Y00065866D01*
X03490841Y00065846D01*
X03490992Y00065822D01*
X03491143Y00065794D01*
X03491293Y00065763D01*
X03491442Y00065727D01*
X03491590Y00065688D01*
X03491737Y00065645D01*
X03491883Y00065598D01*
X03492028Y00065547D01*
X03492171Y00065492D01*
X03492313Y00065434D01*
X03492453Y00065372D01*
X03492592Y00065307D01*
X03492729Y00065238D01*
X03492864Y00065165D01*
X03492997Y00065089D01*
X03493128Y00065009D01*
X03493257Y00064927D01*
X03493384Y00064840D01*
X03493509Y00064751D01*
X03493631Y00064658D01*
X03493750Y00064562D01*
X03493868Y00064463D01*
X03493982Y00064362D01*
X03494094Y00064257D01*
X03494203Y00064149D01*
X03494309Y00064038D01*
X03494413Y00063925D01*
X03494513Y00063809D01*
X03494611Y00063691D01*
X03494705Y00063570D01*
X03494796Y00063447D01*
X03494884Y00063321D01*
X03494968Y00063193D01*
X03495050Y00063063D01*
X03495127Y00062931D01*
X03495202Y00062797D01*
X03495273Y00062661D01*
X03495340Y00062523D01*
X03495404Y00062383D01*
X03495464Y00062242D01*
X03495520Y00062100D01*
X03495573Y00061956D01*
X03495622Y00061810D01*
X03495667Y00061664D01*
X03495708Y00061516D01*
X03495745Y00061368D01*
X03495779Y00061218D01*
X03495809Y00061067D01*
X03495834Y00060916D01*
X03495856Y00060765D01*
X03495874Y00060612D01*
X03495888Y00060460D01*
X03495898Y00060307D01*
X03495904Y00060153D01*
X03495906Y00060000D01*
X03495904Y00059847D01*
X03495898Y00059693D01*
X03495888Y00059540D01*
X03495874Y00059388D01*
X03495856Y00059235D01*
X03495834Y00059084D01*
X03495809Y00058933D01*
X03495779Y00058782D01*
X03495745Y00058632D01*
X03495708Y00058484D01*
X03495667Y00058336D01*
X03495622Y00058190D01*
X03495573Y00058044D01*
X03495520Y00057900D01*
X03495464Y00057758D01*
X03495404Y00057617D01*
X03495340Y00057477D01*
X03495273Y00057339D01*
X03495202Y00057203D01*
X03495127Y00057069D01*
X03495050Y00056937D01*
X03494968Y00056807D01*
X03494884Y00056679D01*
X03494796Y00056553D01*
X03494705Y00056430D01*
X03494611Y00056309D01*
X03494513Y00056191D01*
X03494413Y00056075D01*
X03494309Y00055962D01*
X03494203Y00055851D01*
X03494094Y00055743D01*
X03493982Y00055638D01*
X03493868Y00055537D01*
X03493750Y00055438D01*
X03493631Y00055342D01*
X03493509Y00055249D01*
X03493384Y00055160D01*
X03493257Y00055073D01*
X03493128Y00054991D01*
X03492997Y00054911D01*
X03492864Y00054835D01*
X03492729Y00054762D01*
X03492592Y00054693D01*
X03492453Y00054628D01*
X03492313Y00054566D01*
X03492171Y00054508D01*
X03492028Y00054453D01*
X03491883Y00054402D01*
X03491737Y00054355D01*
X03491590Y00054312D01*
X03491442Y00054273D01*
X03491293Y00054237D01*
X03491143Y00054206D01*
X03490992Y00054178D01*
X03490841Y00054154D01*
X03490688Y00054134D01*
X03490536Y00054118D01*
X03490383Y00054106D01*
X03490230Y00054098D01*
X03490077Y00054094D01*
X03489923Y00054094D01*
X03489770Y00054098D01*
X03489617Y00054106D01*
X03489464Y00054118D01*
X03489312Y00054134D01*
X03489159Y00054154D01*
X03489008Y00054178D01*
X03488857Y00054206D01*
X03488707Y00054237D01*
X03488558Y00054273D01*
X03488410Y00054312D01*
X03488263Y00054355D01*
X03488117Y00054402D01*
X03487972Y00054453D01*
X03487829Y00054508D01*
X03487687Y00054566D01*
X03487547Y00054628D01*
X03487408Y00054693D01*
X03487271Y00054762D01*
X03487136Y00054835D01*
X03487003Y00054911D01*
X03486872Y00054991D01*
X03486743Y00055073D01*
X03486616Y00055160D01*
X03486491Y00055249D01*
X03486369Y00055342D01*
X03486250Y00055438D01*
X03486132Y00055537D01*
X03486018Y00055638D01*
X03485906Y00055743D01*
X03485797Y00055851D01*
X03485691Y00055962D01*
X03485587Y00056075D01*
X03485487Y00056191D01*
X03485389Y00056309D01*
X03485295Y00056430D01*
X03485204Y00056553D01*
X03485116Y00056679D01*
X03485032Y00056807D01*
X03484950Y00056937D01*
X03484873Y00057069D01*
X03484798Y00057203D01*
X03484727Y00057339D01*
X03484660Y00057477D01*
X03484596Y00057617D01*
X03484536Y00057758D01*
X03484480Y00057900D01*
X03484427Y00058044D01*
X03484378Y00058190D01*
X03484333Y00058336D01*
X03484292Y00058484D01*
X03484255Y00058632D01*
X03484221Y00058782D01*
X03484191Y00058933D01*
X03484166Y00059084D01*
X03484144Y00059235D01*
X03484126Y00059388D01*
X03484112Y00059540D01*
X03484102Y00059693D01*
X03484096Y00059847D01*
X03484094Y00060000D01*
D11*
X03609449Y01530709D02*
X03046457Y01530709D01*
X03046457Y01593701D01*
X03046457Y01806299D02*
X03046457Y01869291D01*
X03109449Y01869291D01*
X03296457Y01869291D02*
X03609449Y01869291D01*
X03609449Y01530709D01*
D12*
X02998000Y01559673D02*
X02998000Y01567346D01*
X02990327Y01575020D01*
X02951961Y01575020D01*
X02951961Y01582693D02*
X02951961Y01567346D01*
X02990327Y01552000D02*
X02998000Y01559673D01*
X02998000Y01598039D02*
X02998000Y01628732D01*
X02998000Y01613386D02*
X02951961Y01613386D01*
X02967307Y01598039D01*
D13*
X02415000Y01995000D02*
X02415000Y02065000D01*
X02414997Y02065242D01*
X02414988Y02065483D01*
X02414974Y02065724D01*
X02414953Y02065965D01*
X02414927Y02066205D01*
X02414895Y02066445D01*
X02414857Y02066684D01*
X02414814Y02066921D01*
X02414764Y02067158D01*
X02414709Y02067393D01*
X02414649Y02067627D01*
X02414582Y02067859D01*
X02414511Y02068090D01*
X02414433Y02068319D01*
X02414350Y02068546D01*
X02414262Y02068771D01*
X02414168Y02068994D01*
X02414069Y02069214D01*
X02413964Y02069432D01*
X02413855Y02069647D01*
X02413740Y02069860D01*
X02413620Y02070070D01*
X02413495Y02070276D01*
X02413365Y02070480D01*
X02413230Y02070681D01*
X02413090Y02070878D01*
X02412946Y02071072D01*
X02412797Y02071262D01*
X02412643Y02071448D01*
X02412485Y02071631D01*
X02412323Y02071810D01*
X02412156Y02071985D01*
X02411985Y02072156D01*
X02411810Y02072323D01*
X02411631Y02072485D01*
X02411448Y02072643D01*
X02411262Y02072797D01*
X02411072Y02072946D01*
X02410878Y02073090D01*
X02410681Y02073230D01*
X02410480Y02073365D01*
X02410276Y02073495D01*
X02410070Y02073620D01*
X02409860Y02073740D01*
X02409647Y02073855D01*
X02409432Y02073964D01*
X02409214Y02074069D01*
X02408994Y02074168D01*
X02408771Y02074262D01*
X02408546Y02074350D01*
X02408319Y02074433D01*
X02408090Y02074511D01*
X02407859Y02074582D01*
X02407627Y02074649D01*
X02407393Y02074709D01*
X02407158Y02074764D01*
X02406921Y02074814D01*
X02406684Y02074857D01*
X02406445Y02074895D01*
X02406205Y02074927D01*
X02405965Y02074953D01*
X02405724Y02074974D01*
X02405483Y02074988D01*
X02405242Y02074997D01*
X02405000Y02075000D01*
X02390000Y02075000D01*
X02385000Y02070000D01*
X02195000Y02070000D01*
X02190000Y02075000D01*
X02175000Y02075000D01*
X02174758Y02074997D01*
X02174517Y02074988D01*
X02174276Y02074974D01*
X02174035Y02074953D01*
X02173795Y02074927D01*
X02173555Y02074895D01*
X02173316Y02074857D01*
X02173079Y02074814D01*
X02172842Y02074764D01*
X02172607Y02074709D01*
X02172373Y02074649D01*
X02172141Y02074582D01*
X02171910Y02074511D01*
X02171681Y02074433D01*
X02171454Y02074350D01*
X02171229Y02074262D01*
X02171006Y02074168D01*
X02170786Y02074069D01*
X02170568Y02073964D01*
X02170353Y02073855D01*
X02170140Y02073740D01*
X02169930Y02073620D01*
X02169724Y02073495D01*
X02169520Y02073365D01*
X02169319Y02073230D01*
X02169122Y02073090D01*
X02168928Y02072946D01*
X02168738Y02072797D01*
X02168552Y02072643D01*
X02168369Y02072485D01*
X02168190Y02072323D01*
X02168015Y02072156D01*
X02167844Y02071985D01*
X02167677Y02071810D01*
X02167515Y02071631D01*
X02167357Y02071448D01*
X02167203Y02071262D01*
X02167054Y02071072D01*
X02166910Y02070878D01*
X02166770Y02070681D01*
X02166635Y02070480D01*
X02166505Y02070276D01*
X02166380Y02070070D01*
X02166260Y02069860D01*
X02166145Y02069647D01*
X02166036Y02069432D01*
X02165931Y02069214D01*
X02165832Y02068994D01*
X02165738Y02068771D01*
X02165650Y02068546D01*
X02165567Y02068319D01*
X02165489Y02068090D01*
X02165418Y02067859D01*
X02165351Y02067627D01*
X02165291Y02067393D01*
X02165236Y02067158D01*
X02165186Y02066921D01*
X02165143Y02066684D01*
X02165105Y02066445D01*
X02165073Y02066205D01*
X02165047Y02065965D01*
X02165026Y02065724D01*
X02165012Y02065483D01*
X02165003Y02065242D01*
X02165000Y02065000D01*
X02165000Y01995000D01*
X02165003Y01994758D01*
X02165012Y01994517D01*
X02165026Y01994276D01*
X02165047Y01994035D01*
X02165073Y01993795D01*
X02165105Y01993555D01*
X02165143Y01993316D01*
X02165186Y01993079D01*
X02165236Y01992842D01*
X02165291Y01992607D01*
X02165351Y01992373D01*
X02165418Y01992141D01*
X02165489Y01991910D01*
X02165567Y01991681D01*
X02165650Y01991454D01*
X02165738Y01991229D01*
X02165832Y01991006D01*
X02165931Y01990786D01*
X02166036Y01990568D01*
X02166145Y01990353D01*
X02166260Y01990140D01*
X02166380Y01989930D01*
X02166505Y01989724D01*
X02166635Y01989520D01*
X02166770Y01989319D01*
X02166910Y01989122D01*
X02167054Y01988928D01*
X02167203Y01988738D01*
X02167357Y01988552D01*
X02167515Y01988369D01*
X02167677Y01988190D01*
X02167844Y01988015D01*
X02168015Y01987844D01*
X02168190Y01987677D01*
X02168369Y01987515D01*
X02168552Y01987357D01*
X02168738Y01987203D01*
X02168928Y01987054D01*
X02169122Y01986910D01*
X02169319Y01986770D01*
X02169520Y01986635D01*
X02169724Y01986505D01*
X02169930Y01986380D01*
X02170140Y01986260D01*
X02170353Y01986145D01*
X02170568Y01986036D01*
X02170786Y01985931D01*
X02171006Y01985832D01*
X02171229Y01985738D01*
X02171454Y01985650D01*
X02171681Y01985567D01*
X02171910Y01985489D01*
X02172141Y01985418D01*
X02172373Y01985351D01*
X02172607Y01985291D01*
X02172842Y01985236D01*
X02173079Y01985186D01*
X02173316Y01985143D01*
X02173555Y01985105D01*
X02173795Y01985073D01*
X02174035Y01985047D01*
X02174276Y01985026D01*
X02174517Y01985012D01*
X02174758Y01985003D01*
X02175000Y01985000D01*
X02190000Y01985000D01*
X02195000Y01990000D01*
X02385000Y01990000D01*
X02390000Y01985000D01*
X02405000Y01985000D01*
X02405242Y01985003D01*
X02405483Y01985012D01*
X02405724Y01985026D01*
X02405965Y01985047D01*
X02406205Y01985073D01*
X02406445Y01985105D01*
X02406684Y01985143D01*
X02406921Y01985186D01*
X02407158Y01985236D01*
X02407393Y01985291D01*
X02407627Y01985351D01*
X02407859Y01985418D01*
X02408090Y01985489D01*
X02408319Y01985567D01*
X02408546Y01985650D01*
X02408771Y01985738D01*
X02408994Y01985832D01*
X02409214Y01985931D01*
X02409432Y01986036D01*
X02409647Y01986145D01*
X02409860Y01986260D01*
X02410070Y01986380D01*
X02410276Y01986505D01*
X02410480Y01986635D01*
X02410681Y01986770D01*
X02410878Y01986910D01*
X02411072Y01987054D01*
X02411262Y01987203D01*
X02411448Y01987357D01*
X02411631Y01987515D01*
X02411810Y01987677D01*
X02411985Y01987844D01*
X02412156Y01988015D01*
X02412323Y01988190D01*
X02412485Y01988369D01*
X02412643Y01988552D01*
X02412797Y01988738D01*
X02412946Y01988928D01*
X02413090Y01989122D01*
X02413230Y01989319D01*
X02413365Y01989520D01*
X02413495Y01989724D01*
X02413620Y01989930D01*
X02413740Y01990140D01*
X02413855Y01990353D01*
X02413964Y01990568D01*
X02414069Y01990786D01*
X02414168Y01991006D01*
X02414262Y01991229D01*
X02414350Y01991454D01*
X02414433Y01991681D01*
X02414511Y01991910D01*
X02414582Y01992141D01*
X02414649Y01992373D01*
X02414709Y01992607D01*
X02414764Y01992842D01*
X02414814Y01993079D01*
X02414857Y01993316D01*
X02414895Y01993555D01*
X02414927Y01993795D01*
X02414953Y01994035D01*
X02414974Y01994276D01*
X02414988Y01994517D01*
X02414997Y01994758D01*
X02415000Y01995000D01*
X02335000Y01425000D02*
X02320000Y01425000D01*
X02315000Y01420000D01*
X02125000Y01420000D01*
X02120000Y01425000D01*
X02105000Y01425000D01*
X02104758Y01424997D01*
X02104517Y01424988D01*
X02104276Y01424974D01*
X02104035Y01424953D01*
X02103795Y01424927D01*
X02103555Y01424895D01*
X02103316Y01424857D01*
X02103079Y01424814D01*
X02102842Y01424764D01*
X02102607Y01424709D01*
X02102373Y01424649D01*
X02102141Y01424582D01*
X02101910Y01424511D01*
X02101681Y01424433D01*
X02101454Y01424350D01*
X02101229Y01424262D01*
X02101006Y01424168D01*
X02100786Y01424069D01*
X02100568Y01423964D01*
X02100353Y01423855D01*
X02100140Y01423740D01*
X02099930Y01423620D01*
X02099724Y01423495D01*
X02099520Y01423365D01*
X02099319Y01423230D01*
X02099122Y01423090D01*
X02098928Y01422946D01*
X02098738Y01422797D01*
X02098552Y01422643D01*
X02098369Y01422485D01*
X02098190Y01422323D01*
X02098015Y01422156D01*
X02097844Y01421985D01*
X02097677Y01421810D01*
X02097515Y01421631D01*
X02097357Y01421448D01*
X02097203Y01421262D01*
X02097054Y01421072D01*
X02096910Y01420878D01*
X02096770Y01420681D01*
X02096635Y01420480D01*
X02096505Y01420276D01*
X02096380Y01420070D01*
X02096260Y01419860D01*
X02096145Y01419647D01*
X02096036Y01419432D01*
X02095931Y01419214D01*
X02095832Y01418994D01*
X02095738Y01418771D01*
X02095650Y01418546D01*
X02095567Y01418319D01*
X02095489Y01418090D01*
X02095418Y01417859D01*
X02095351Y01417627D01*
X02095291Y01417393D01*
X02095236Y01417158D01*
X02095186Y01416921D01*
X02095143Y01416684D01*
X02095105Y01416445D01*
X02095073Y01416205D01*
X02095047Y01415965D01*
X02095026Y01415724D01*
X02095012Y01415483D01*
X02095003Y01415242D01*
X02095000Y01415000D01*
X02095000Y01345000D01*
X02095003Y01344758D01*
X02095012Y01344517D01*
X02095026Y01344276D01*
X02095047Y01344035D01*
X02095073Y01343795D01*
X02095105Y01343555D01*
X02095143Y01343316D01*
X02095186Y01343079D01*
X02095236Y01342842D01*
X02095291Y01342607D01*
X02095351Y01342373D01*
X02095418Y01342141D01*
X02095489Y01341910D01*
X02095567Y01341681D01*
X02095650Y01341454D01*
X02095738Y01341229D01*
X02095832Y01341006D01*
X02095931Y01340786D01*
X02096036Y01340568D01*
X02096145Y01340353D01*
X02096260Y01340140D01*
X02096380Y01339930D01*
X02096505Y01339724D01*
X02096635Y01339520D01*
X02096770Y01339319D01*
X02096910Y01339122D01*
X02097054Y01338928D01*
X02097203Y01338738D01*
X02097357Y01338552D01*
X02097515Y01338369D01*
X02097677Y01338190D01*
X02097844Y01338015D01*
X02098015Y01337844D01*
X02098190Y01337677D01*
X02098369Y01337515D01*
X02098552Y01337357D01*
X02098738Y01337203D01*
X02098928Y01337054D01*
X02099122Y01336910D01*
X02099319Y01336770D01*
X02099520Y01336635D01*
X02099724Y01336505D01*
X02099930Y01336380D01*
X02100140Y01336260D01*
X02100353Y01336145D01*
X02100568Y01336036D01*
X02100786Y01335931D01*
X02101006Y01335832D01*
X02101229Y01335738D01*
X02101454Y01335650D01*
X02101681Y01335567D01*
X02101910Y01335489D01*
X02102141Y01335418D01*
X02102373Y01335351D01*
X02102607Y01335291D01*
X02102842Y01335236D01*
X02103079Y01335186D01*
X02103316Y01335143D01*
X02103555Y01335105D01*
X02103795Y01335073D01*
X02104035Y01335047D01*
X02104276Y01335026D01*
X02104517Y01335012D01*
X02104758Y01335003D01*
X02105000Y01335000D01*
X02120000Y01335000D01*
X02125000Y01340000D01*
X02315000Y01340000D01*
X02320000Y01335000D01*
X02335000Y01335000D01*
X02335242Y01335003D01*
X02335483Y01335012D01*
X02335724Y01335026D01*
X02335965Y01335047D01*
X02336205Y01335073D01*
X02336445Y01335105D01*
X02336684Y01335143D01*
X02336921Y01335186D01*
X02337158Y01335236D01*
X02337393Y01335291D01*
X02337627Y01335351D01*
X02337859Y01335418D01*
X02338090Y01335489D01*
X02338319Y01335567D01*
X02338546Y01335650D01*
X02338771Y01335738D01*
X02338994Y01335832D01*
X02339214Y01335931D01*
X02339432Y01336036D01*
X02339647Y01336145D01*
X02339860Y01336260D01*
X02340070Y01336380D01*
X02340276Y01336505D01*
X02340480Y01336635D01*
X02340681Y01336770D01*
X02340878Y01336910D01*
X02341072Y01337054D01*
X02341262Y01337203D01*
X02341448Y01337357D01*
X02341631Y01337515D01*
X02341810Y01337677D01*
X02341985Y01337844D01*
X02342156Y01338015D01*
X02342323Y01338190D01*
X02342485Y01338369D01*
X02342643Y01338552D01*
X02342797Y01338738D01*
X02342946Y01338928D01*
X02343090Y01339122D01*
X02343230Y01339319D01*
X02343365Y01339520D01*
X02343495Y01339724D01*
X02343620Y01339930D01*
X02343740Y01340140D01*
X02343855Y01340353D01*
X02343964Y01340568D01*
X02344069Y01340786D01*
X02344168Y01341006D01*
X02344262Y01341229D01*
X02344350Y01341454D01*
X02344433Y01341681D01*
X02344511Y01341910D01*
X02344582Y01342141D01*
X02344649Y01342373D01*
X02344709Y01342607D01*
X02344764Y01342842D01*
X02344814Y01343079D01*
X02344857Y01343316D01*
X02344895Y01343555D01*
X02344927Y01343795D01*
X02344953Y01344035D01*
X02344974Y01344276D01*
X02344988Y01344517D01*
X02344997Y01344758D01*
X02345000Y01345000D01*
X02345000Y01415000D01*
X02344997Y01415242D01*
X02344988Y01415483D01*
X02344974Y01415724D01*
X02344953Y01415965D01*
X02344927Y01416205D01*
X02344895Y01416445D01*
X02344857Y01416684D01*
X02344814Y01416921D01*
X02344764Y01417158D01*
X02344709Y01417393D01*
X02344649Y01417627D01*
X02344582Y01417859D01*
X02344511Y01418090D01*
X02344433Y01418319D01*
X02344350Y01418546D01*
X02344262Y01418771D01*
X02344168Y01418994D01*
X02344069Y01419214D01*
X02343964Y01419432D01*
X02343855Y01419647D01*
X02343740Y01419860D01*
X02343620Y01420070D01*
X02343495Y01420276D01*
X02343365Y01420480D01*
X02343230Y01420681D01*
X02343090Y01420878D01*
X02342946Y01421072D01*
X02342797Y01421262D01*
X02342643Y01421448D01*
X02342485Y01421631D01*
X02342323Y01421810D01*
X02342156Y01421985D01*
X02341985Y01422156D01*
X02341810Y01422323D01*
X02341631Y01422485D01*
X02341448Y01422643D01*
X02341262Y01422797D01*
X02341072Y01422946D01*
X02340878Y01423090D01*
X02340681Y01423230D01*
X02340480Y01423365D01*
X02340276Y01423495D01*
X02340070Y01423620D01*
X02339860Y01423740D01*
X02339647Y01423855D01*
X02339432Y01423964D01*
X02339214Y01424069D01*
X02338994Y01424168D01*
X02338771Y01424262D01*
X02338546Y01424350D01*
X02338319Y01424433D01*
X02338090Y01424511D01*
X02337859Y01424582D01*
X02337627Y01424649D01*
X02337393Y01424709D01*
X02337158Y01424764D01*
X02336921Y01424814D01*
X02336684Y01424857D01*
X02336445Y01424895D01*
X02336205Y01424927D01*
X02335965Y01424953D01*
X02335724Y01424974D01*
X02335483Y01424988D01*
X02335242Y01424997D01*
X02335000Y01425000D01*
X02335000Y00885000D02*
X02320000Y00885000D01*
X02315000Y00880000D01*
X02125000Y00880000D01*
X02120000Y00885000D01*
X02105000Y00885000D01*
X02104758Y00884997D01*
X02104517Y00884988D01*
X02104276Y00884974D01*
X02104035Y00884953D01*
X02103795Y00884927D01*
X02103555Y00884895D01*
X02103316Y00884857D01*
X02103079Y00884814D01*
X02102842Y00884764D01*
X02102607Y00884709D01*
X02102373Y00884649D01*
X02102141Y00884582D01*
X02101910Y00884511D01*
X02101681Y00884433D01*
X02101454Y00884350D01*
X02101229Y00884262D01*
X02101006Y00884168D01*
X02100786Y00884069D01*
X02100568Y00883964D01*
X02100353Y00883855D01*
X02100140Y00883740D01*
X02099930Y00883620D01*
X02099724Y00883495D01*
X02099520Y00883365D01*
X02099319Y00883230D01*
X02099122Y00883090D01*
X02098928Y00882946D01*
X02098738Y00882797D01*
X02098552Y00882643D01*
X02098369Y00882485D01*
X02098190Y00882323D01*
X02098015Y00882156D01*
X02097844Y00881985D01*
X02097677Y00881810D01*
X02097515Y00881631D01*
X02097357Y00881448D01*
X02097203Y00881262D01*
X02097054Y00881072D01*
X02096910Y00880878D01*
X02096770Y00880681D01*
X02096635Y00880480D01*
X02096505Y00880276D01*
X02096380Y00880070D01*
X02096260Y00879860D01*
X02096145Y00879647D01*
X02096036Y00879432D01*
X02095931Y00879214D01*
X02095832Y00878994D01*
X02095738Y00878771D01*
X02095650Y00878546D01*
X02095567Y00878319D01*
X02095489Y00878090D01*
X02095418Y00877859D01*
X02095351Y00877627D01*
X02095291Y00877393D01*
X02095236Y00877158D01*
X02095186Y00876921D01*
X02095143Y00876684D01*
X02095105Y00876445D01*
X02095073Y00876205D01*
X02095047Y00875965D01*
X02095026Y00875724D01*
X02095012Y00875483D01*
X02095003Y00875242D01*
X02095000Y00875000D01*
X02095000Y00805000D01*
X02095003Y00804758D01*
X02095012Y00804517D01*
X02095026Y00804276D01*
X02095047Y00804035D01*
X02095073Y00803795D01*
X02095105Y00803555D01*
X02095143Y00803316D01*
X02095186Y00803079D01*
X02095236Y00802842D01*
X02095291Y00802607D01*
X02095351Y00802373D01*
X02095418Y00802141D01*
X02095489Y00801910D01*
X02095567Y00801681D01*
X02095650Y00801454D01*
X02095738Y00801229D01*
X02095832Y00801006D01*
X02095931Y00800786D01*
X02096036Y00800568D01*
X02096145Y00800353D01*
X02096260Y00800140D01*
X02096380Y00799930D01*
X02096505Y00799724D01*
X02096635Y00799520D01*
X02096770Y00799319D01*
X02096910Y00799122D01*
X02097054Y00798928D01*
X02097203Y00798738D01*
X02097357Y00798552D01*
X02097515Y00798369D01*
X02097677Y00798190D01*
X02097844Y00798015D01*
X02098015Y00797844D01*
X02098190Y00797677D01*
X02098369Y00797515D01*
X02098552Y00797357D01*
X02098738Y00797203D01*
X02098928Y00797054D01*
X02099122Y00796910D01*
X02099319Y00796770D01*
X02099520Y00796635D01*
X02099724Y00796505D01*
X02099930Y00796380D01*
X02100140Y00796260D01*
X02100353Y00796145D01*
X02100568Y00796036D01*
X02100786Y00795931D01*
X02101006Y00795832D01*
X02101229Y00795738D01*
X02101454Y00795650D01*
X02101681Y00795567D01*
X02101910Y00795489D01*
X02102141Y00795418D01*
X02102373Y00795351D01*
X02102607Y00795291D01*
X02102842Y00795236D01*
X02103079Y00795186D01*
X02103316Y00795143D01*
X02103555Y00795105D01*
X02103795Y00795073D01*
X02104035Y00795047D01*
X02104276Y00795026D01*
X02104517Y00795012D01*
X02104758Y00795003D01*
X02105000Y00795000D01*
X02120000Y00795000D01*
X02125000Y00800000D01*
X02315000Y00800000D01*
X02320000Y00795000D01*
X02335000Y00795000D01*
X02335242Y00795003D01*
X02335483Y00795012D01*
X02335724Y00795026D01*
X02335965Y00795047D01*
X02336205Y00795073D01*
X02336445Y00795105D01*
X02336684Y00795143D01*
X02336921Y00795186D01*
X02337158Y00795236D01*
X02337393Y00795291D01*
X02337627Y00795351D01*
X02337859Y00795418D01*
X02338090Y00795489D01*
X02338319Y00795567D01*
X02338546Y00795650D01*
X02338771Y00795738D01*
X02338994Y00795832D01*
X02339214Y00795931D01*
X02339432Y00796036D01*
X02339647Y00796145D01*
X02339860Y00796260D01*
X02340070Y00796380D01*
X02340276Y00796505D01*
X02340480Y00796635D01*
X02340681Y00796770D01*
X02340878Y00796910D01*
X02341072Y00797054D01*
X02341262Y00797203D01*
X02341448Y00797357D01*
X02341631Y00797515D01*
X02341810Y00797677D01*
X02341985Y00797844D01*
X02342156Y00798015D01*
X02342323Y00798190D01*
X02342485Y00798369D01*
X02342643Y00798552D01*
X02342797Y00798738D01*
X02342946Y00798928D01*
X02343090Y00799122D01*
X02343230Y00799319D01*
X02343365Y00799520D01*
X02343495Y00799724D01*
X02343620Y00799930D01*
X02343740Y00800140D01*
X02343855Y00800353D01*
X02343964Y00800568D01*
X02344069Y00800786D01*
X02344168Y00801006D01*
X02344262Y00801229D01*
X02344350Y00801454D01*
X02344433Y00801681D01*
X02344511Y00801910D01*
X02344582Y00802141D01*
X02344649Y00802373D01*
X02344709Y00802607D01*
X02344764Y00802842D01*
X02344814Y00803079D01*
X02344857Y00803316D01*
X02344895Y00803555D01*
X02344927Y00803795D01*
X02344953Y00804035D01*
X02344974Y00804276D01*
X02344988Y00804517D01*
X02344997Y00804758D01*
X02345000Y00805000D01*
X02345000Y00875000D01*
X02344997Y00875242D01*
X02344988Y00875483D01*
X02344974Y00875724D01*
X02344953Y00875965D01*
X02344927Y00876205D01*
X02344895Y00876445D01*
X02344857Y00876684D01*
X02344814Y00876921D01*
X02344764Y00877158D01*
X02344709Y00877393D01*
X02344649Y00877627D01*
X02344582Y00877859D01*
X02344511Y00878090D01*
X02344433Y00878319D01*
X02344350Y00878546D01*
X02344262Y00878771D01*
X02344168Y00878994D01*
X02344069Y00879214D01*
X02343964Y00879432D01*
X02343855Y00879647D01*
X02343740Y00879860D01*
X02343620Y00880070D01*
X02343495Y00880276D01*
X02343365Y00880480D01*
X02343230Y00880681D01*
X02343090Y00880878D01*
X02342946Y00881072D01*
X02342797Y00881262D01*
X02342643Y00881448D01*
X02342485Y00881631D01*
X02342323Y00881810D01*
X02342156Y00881985D01*
X02341985Y00882156D01*
X02341810Y00882323D01*
X02341631Y00882485D01*
X02341448Y00882643D01*
X02341262Y00882797D01*
X02341072Y00882946D01*
X02340878Y00883090D01*
X02340681Y00883230D01*
X02340480Y00883365D01*
X02340276Y00883495D01*
X02340070Y00883620D01*
X02339860Y00883740D01*
X02339647Y00883855D01*
X02339432Y00883964D01*
X02339214Y00884069D01*
X02338994Y00884168D01*
X02338771Y00884262D01*
X02338546Y00884350D01*
X02338319Y00884433D01*
X02338090Y00884511D01*
X02337859Y00884582D01*
X02337627Y00884649D01*
X02337393Y00884709D01*
X02337158Y00884764D01*
X02336921Y00884814D01*
X02336684Y00884857D01*
X02336445Y00884895D01*
X02336205Y00884927D01*
X02335965Y00884953D01*
X02335724Y00884974D01*
X02335483Y00884988D01*
X02335242Y00884997D01*
X02335000Y00885000D01*
X02535000Y00715000D02*
X02605000Y00715000D01*
X02605242Y00714997D01*
X02605483Y00714988D01*
X02605724Y00714974D01*
X02605965Y00714953D01*
X02606205Y00714927D01*
X02606445Y00714895D01*
X02606684Y00714857D01*
X02606921Y00714814D01*
X02607158Y00714764D01*
X02607393Y00714709D01*
X02607627Y00714649D01*
X02607859Y00714582D01*
X02608090Y00714511D01*
X02608319Y00714433D01*
X02608546Y00714350D01*
X02608771Y00714262D01*
X02608994Y00714168D01*
X02609214Y00714069D01*
X02609432Y00713964D01*
X02609647Y00713855D01*
X02609860Y00713740D01*
X02610070Y00713620D01*
X02610276Y00713495D01*
X02610480Y00713365D01*
X02610681Y00713230D01*
X02610878Y00713090D01*
X02611072Y00712946D01*
X02611262Y00712797D01*
X02611448Y00712643D01*
X02611631Y00712485D01*
X02611810Y00712323D01*
X02611985Y00712156D01*
X02612156Y00711985D01*
X02612323Y00711810D01*
X02612485Y00711631D01*
X02612643Y00711448D01*
X02612797Y00711262D01*
X02612946Y00711072D01*
X02613090Y00710878D01*
X02613230Y00710681D01*
X02613365Y00710480D01*
X02613495Y00710276D01*
X02613620Y00710070D01*
X02613740Y00709860D01*
X02613855Y00709647D01*
X02613964Y00709432D01*
X02614069Y00709214D01*
X02614168Y00708994D01*
X02614262Y00708771D01*
X02614350Y00708546D01*
X02614433Y00708319D01*
X02614511Y00708090D01*
X02614582Y00707859D01*
X02614649Y00707627D01*
X02614709Y00707393D01*
X02614764Y00707158D01*
X02614814Y00706921D01*
X02614857Y00706684D01*
X02614895Y00706445D01*
X02614927Y00706205D01*
X02614953Y00705965D01*
X02614974Y00705724D01*
X02614988Y00705483D01*
X02614997Y00705242D01*
X02615000Y00705000D01*
X02615000Y00690000D01*
X02610000Y00685000D01*
X02610000Y00495000D01*
X02615000Y00490000D01*
X02615000Y00475000D01*
X02614997Y00474758D01*
X02614988Y00474517D01*
X02614974Y00474276D01*
X02614953Y00474035D01*
X02614927Y00473795D01*
X02614895Y00473555D01*
X02614857Y00473316D01*
X02614814Y00473079D01*
X02614764Y00472842D01*
X02614709Y00472607D01*
X02614649Y00472373D01*
X02614582Y00472141D01*
X02614511Y00471910D01*
X02614433Y00471681D01*
X02614350Y00471454D01*
X02614262Y00471229D01*
X02614168Y00471006D01*
X02614069Y00470786D01*
X02613964Y00470568D01*
X02613855Y00470353D01*
X02613740Y00470140D01*
X02613620Y00469930D01*
X02613495Y00469724D01*
X02613365Y00469520D01*
X02613230Y00469319D01*
X02613090Y00469122D01*
X02612946Y00468928D01*
X02612797Y00468738D01*
X02612643Y00468552D01*
X02612485Y00468369D01*
X02612323Y00468190D01*
X02612156Y00468015D01*
X02611985Y00467844D01*
X02611810Y00467677D01*
X02611631Y00467515D01*
X02611448Y00467357D01*
X02611262Y00467203D01*
X02611072Y00467054D01*
X02610878Y00466910D01*
X02610681Y00466770D01*
X02610480Y00466635D01*
X02610276Y00466505D01*
X02610070Y00466380D01*
X02609860Y00466260D01*
X02609647Y00466145D01*
X02609432Y00466036D01*
X02609214Y00465931D01*
X02608994Y00465832D01*
X02608771Y00465738D01*
X02608546Y00465650D01*
X02608319Y00465567D01*
X02608090Y00465489D01*
X02607859Y00465418D01*
X02607627Y00465351D01*
X02607393Y00465291D01*
X02607158Y00465236D01*
X02606921Y00465186D01*
X02606684Y00465143D01*
X02606445Y00465105D01*
X02606205Y00465073D01*
X02605965Y00465047D01*
X02605724Y00465026D01*
X02605483Y00465012D01*
X02605242Y00465003D01*
X02605000Y00465000D01*
X02535000Y00465000D01*
X02534758Y00465003D01*
X02534517Y00465012D01*
X02534276Y00465026D01*
X02534035Y00465047D01*
X02533795Y00465073D01*
X02533555Y00465105D01*
X02533316Y00465143D01*
X02533079Y00465186D01*
X02532842Y00465236D01*
X02532607Y00465291D01*
X02532373Y00465351D01*
X02532141Y00465418D01*
X02531910Y00465489D01*
X02531681Y00465567D01*
X02531454Y00465650D01*
X02531229Y00465738D01*
X02531006Y00465832D01*
X02530786Y00465931D01*
X02530568Y00466036D01*
X02530353Y00466145D01*
X02530140Y00466260D01*
X02529930Y00466380D01*
X02529724Y00466505D01*
X02529520Y00466635D01*
X02529319Y00466770D01*
X02529122Y00466910D01*
X02528928Y00467054D01*
X02528738Y00467203D01*
X02528552Y00467357D01*
X02528369Y00467515D01*
X02528190Y00467677D01*
X02528015Y00467844D01*
X02527844Y00468015D01*
X02527677Y00468190D01*
X02527515Y00468369D01*
X02527357Y00468552D01*
X02527203Y00468738D01*
X02527054Y00468928D01*
X02526910Y00469122D01*
X02526770Y00469319D01*
X02526635Y00469520D01*
X02526505Y00469724D01*
X02526380Y00469930D01*
X02526260Y00470140D01*
X02526145Y00470353D01*
X02526036Y00470568D01*
X02525931Y00470786D01*
X02525832Y00471006D01*
X02525738Y00471229D01*
X02525650Y00471454D01*
X02525567Y00471681D01*
X02525489Y00471910D01*
X02525418Y00472141D01*
X02525351Y00472373D01*
X02525291Y00472607D01*
X02525236Y00472842D01*
X02525186Y00473079D01*
X02525143Y00473316D01*
X02525105Y00473555D01*
X02525073Y00473795D01*
X02525047Y00474035D01*
X02525026Y00474276D01*
X02525012Y00474517D01*
X02525003Y00474758D01*
X02525000Y00475000D01*
X02525000Y00490000D01*
X02530000Y00495000D01*
X02530000Y00685000D01*
X02525000Y00690000D01*
X02525000Y00705000D01*
X02525003Y00705242D01*
X02525012Y00705483D01*
X02525026Y00705724D01*
X02525047Y00705965D01*
X02525073Y00706205D01*
X02525105Y00706445D01*
X02525143Y00706684D01*
X02525186Y00706921D01*
X02525236Y00707158D01*
X02525291Y00707393D01*
X02525351Y00707627D01*
X02525418Y00707859D01*
X02525489Y00708090D01*
X02525567Y00708319D01*
X02525650Y00708546D01*
X02525738Y00708771D01*
X02525832Y00708994D01*
X02525931Y00709214D01*
X02526036Y00709432D01*
X02526145Y00709647D01*
X02526260Y00709860D01*
X02526380Y00710070D01*
X02526505Y00710276D01*
X02526635Y00710480D01*
X02526770Y00710681D01*
X02526910Y00710878D01*
X02527054Y00711072D01*
X02527203Y00711262D01*
X02527357Y00711448D01*
X02527515Y00711631D01*
X02527677Y00711810D01*
X02527844Y00711985D01*
X02528015Y00712156D01*
X02528190Y00712323D01*
X02528369Y00712485D01*
X02528552Y00712643D01*
X02528738Y00712797D01*
X02528928Y00712946D01*
X02529122Y00713090D01*
X02529319Y00713230D01*
X02529520Y00713365D01*
X02529724Y00713495D01*
X02529930Y00713620D01*
X02530140Y00713740D01*
X02530353Y00713855D01*
X02530568Y00713964D01*
X02530786Y00714069D01*
X02531006Y00714168D01*
X02531229Y00714262D01*
X02531454Y00714350D01*
X02531681Y00714433D01*
X02531910Y00714511D01*
X02532141Y00714582D01*
X02532373Y00714649D01*
X02532607Y00714709D01*
X02532842Y00714764D01*
X02533079Y00714814D01*
X02533316Y00714857D01*
X02533555Y00714895D01*
X02533795Y00714927D01*
X02534035Y00714953D01*
X02534276Y00714974D01*
X02534517Y00714988D01*
X02534758Y00714997D01*
X02535000Y00715000D01*
X02735000Y00710000D02*
X02740000Y00705000D01*
X02740000Y00515000D01*
X02735000Y00510000D01*
X02735000Y00495000D01*
X02735003Y00494758D01*
X02735012Y00494517D01*
X02735026Y00494276D01*
X02735047Y00494035D01*
X02735073Y00493795D01*
X02735105Y00493555D01*
X02735143Y00493316D01*
X02735186Y00493079D01*
X02735236Y00492842D01*
X02735291Y00492607D01*
X02735351Y00492373D01*
X02735418Y00492141D01*
X02735489Y00491910D01*
X02735567Y00491681D01*
X02735650Y00491454D01*
X02735738Y00491229D01*
X02735832Y00491006D01*
X02735931Y00490786D01*
X02736036Y00490568D01*
X02736145Y00490353D01*
X02736260Y00490140D01*
X02736380Y00489930D01*
X02736505Y00489724D01*
X02736635Y00489520D01*
X02736770Y00489319D01*
X02736910Y00489122D01*
X02737054Y00488928D01*
X02737203Y00488738D01*
X02737357Y00488552D01*
X02737515Y00488369D01*
X02737677Y00488190D01*
X02737844Y00488015D01*
X02738015Y00487844D01*
X02738190Y00487677D01*
X02738369Y00487515D01*
X02738552Y00487357D01*
X02738738Y00487203D01*
X02738928Y00487054D01*
X02739122Y00486910D01*
X02739319Y00486770D01*
X02739520Y00486635D01*
X02739724Y00486505D01*
X02739930Y00486380D01*
X02740140Y00486260D01*
X02740353Y00486145D01*
X02740568Y00486036D01*
X02740786Y00485931D01*
X02741006Y00485832D01*
X02741229Y00485738D01*
X02741454Y00485650D01*
X02741681Y00485567D01*
X02741910Y00485489D01*
X02742141Y00485418D01*
X02742373Y00485351D01*
X02742607Y00485291D01*
X02742842Y00485236D01*
X02743079Y00485186D01*
X02743316Y00485143D01*
X02743555Y00485105D01*
X02743795Y00485073D01*
X02744035Y00485047D01*
X02744276Y00485026D01*
X02744517Y00485012D01*
X02744758Y00485003D01*
X02745000Y00485000D01*
X02815000Y00485000D01*
X02815242Y00485003D01*
X02815483Y00485012D01*
X02815724Y00485026D01*
X02815965Y00485047D01*
X02816205Y00485073D01*
X02816445Y00485105D01*
X02816684Y00485143D01*
X02816921Y00485186D01*
X02817158Y00485236D01*
X02817393Y00485291D01*
X02817627Y00485351D01*
X02817859Y00485418D01*
X02818090Y00485489D01*
X02818319Y00485567D01*
X02818546Y00485650D01*
X02818771Y00485738D01*
X02818994Y00485832D01*
X02819214Y00485931D01*
X02819432Y00486036D01*
X02819647Y00486145D01*
X02819860Y00486260D01*
X02820070Y00486380D01*
X02820276Y00486505D01*
X02820480Y00486635D01*
X02820681Y00486770D01*
X02820878Y00486910D01*
X02821072Y00487054D01*
X02821262Y00487203D01*
X02821448Y00487357D01*
X02821631Y00487515D01*
X02821810Y00487677D01*
X02821985Y00487844D01*
X02822156Y00488015D01*
X02822323Y00488190D01*
X02822485Y00488369D01*
X02822643Y00488552D01*
X02822797Y00488738D01*
X02822946Y00488928D01*
X02823090Y00489122D01*
X02823230Y00489319D01*
X02823365Y00489520D01*
X02823495Y00489724D01*
X02823620Y00489930D01*
X02823740Y00490140D01*
X02823855Y00490353D01*
X02823964Y00490568D01*
X02824069Y00490786D01*
X02824168Y00491006D01*
X02824262Y00491229D01*
X02824350Y00491454D01*
X02824433Y00491681D01*
X02824511Y00491910D01*
X02824582Y00492141D01*
X02824649Y00492373D01*
X02824709Y00492607D01*
X02824764Y00492842D01*
X02824814Y00493079D01*
X02824857Y00493316D01*
X02824895Y00493555D01*
X02824927Y00493795D01*
X02824953Y00494035D01*
X02824974Y00494276D01*
X02824988Y00494517D01*
X02824997Y00494758D01*
X02825000Y00495000D01*
X02825000Y00510000D01*
X02820000Y00515000D01*
X02820000Y00705000D01*
X02825000Y00710000D01*
X02825000Y00725000D01*
X02824997Y00725242D01*
X02824988Y00725483D01*
X02824974Y00725724D01*
X02824953Y00725965D01*
X02824927Y00726205D01*
X02824895Y00726445D01*
X02824857Y00726684D01*
X02824814Y00726921D01*
X02824764Y00727158D01*
X02824709Y00727393D01*
X02824649Y00727627D01*
X02824582Y00727859D01*
X02824511Y00728090D01*
X02824433Y00728319D01*
X02824350Y00728546D01*
X02824262Y00728771D01*
X02824168Y00728994D01*
X02824069Y00729214D01*
X02823964Y00729432D01*
X02823855Y00729647D01*
X02823740Y00729860D01*
X02823620Y00730070D01*
X02823495Y00730276D01*
X02823365Y00730480D01*
X02823230Y00730681D01*
X02823090Y00730878D01*
X02822946Y00731072D01*
X02822797Y00731262D01*
X02822643Y00731448D01*
X02822485Y00731631D01*
X02822323Y00731810D01*
X02822156Y00731985D01*
X02821985Y00732156D01*
X02821810Y00732323D01*
X02821631Y00732485D01*
X02821448Y00732643D01*
X02821262Y00732797D01*
X02821072Y00732946D01*
X02820878Y00733090D01*
X02820681Y00733230D01*
X02820480Y00733365D01*
X02820276Y00733495D01*
X02820070Y00733620D01*
X02819860Y00733740D01*
X02819647Y00733855D01*
X02819432Y00733964D01*
X02819214Y00734069D01*
X02818994Y00734168D01*
X02818771Y00734262D01*
X02818546Y00734350D01*
X02818319Y00734433D01*
X02818090Y00734511D01*
X02817859Y00734582D01*
X02817627Y00734649D01*
X02817393Y00734709D01*
X02817158Y00734764D01*
X02816921Y00734814D01*
X02816684Y00734857D01*
X02816445Y00734895D01*
X02816205Y00734927D01*
X02815965Y00734953D01*
X02815724Y00734974D01*
X02815483Y00734988D01*
X02815242Y00734997D01*
X02815000Y00735000D01*
X02745000Y00735000D01*
X02744758Y00734997D01*
X02744517Y00734988D01*
X02744276Y00734974D01*
X02744035Y00734953D01*
X02743795Y00734927D01*
X02743555Y00734895D01*
X02743316Y00734857D01*
X02743079Y00734814D01*
X02742842Y00734764D01*
X02742607Y00734709D01*
X02742373Y00734649D01*
X02742141Y00734582D01*
X02741910Y00734511D01*
X02741681Y00734433D01*
X02741454Y00734350D01*
X02741229Y00734262D01*
X02741006Y00734168D01*
X02740786Y00734069D01*
X02740568Y00733964D01*
X02740353Y00733855D01*
X02740140Y00733740D01*
X02739930Y00733620D01*
X02739724Y00733495D01*
X02739520Y00733365D01*
X02739319Y00733230D01*
X02739122Y00733090D01*
X02738928Y00732946D01*
X02738738Y00732797D01*
X02738552Y00732643D01*
X02738369Y00732485D01*
X02738190Y00732323D01*
X02738015Y00732156D01*
X02737844Y00731985D01*
X02737677Y00731810D01*
X02737515Y00731631D01*
X02737357Y00731448D01*
X02737203Y00731262D01*
X02737054Y00731072D01*
X02736910Y00730878D01*
X02736770Y00730681D01*
X02736635Y00730480D01*
X02736505Y00730276D01*
X02736380Y00730070D01*
X02736260Y00729860D01*
X02736145Y00729647D01*
X02736036Y00729432D01*
X02735931Y00729214D01*
X02735832Y00728994D01*
X02735738Y00728771D01*
X02735650Y00728546D01*
X02735567Y00728319D01*
X02735489Y00728090D01*
X02735418Y00727859D01*
X02735351Y00727627D01*
X02735291Y00727393D01*
X02735236Y00727158D01*
X02735186Y00726921D01*
X02735143Y00726684D01*
X02735105Y00726445D01*
X02735073Y00726205D01*
X02735047Y00725965D01*
X02735026Y00725724D01*
X02735012Y00725483D01*
X02735003Y00725242D01*
X02735000Y00725000D01*
X02735000Y00710000D01*
X01350000Y00800000D02*
X01300000Y00800000D01*
X01300000Y00625000D01*
X01325000Y00625000D02*
X01275000Y00575000D01*
X01300000Y00575000D02*
X01300000Y00400000D01*
X01350000Y00400000D01*
X01200000Y00300000D02*
X01200000Y00550000D01*
X01200000Y00640000D02*
X01190000Y00650000D01*
X01200000Y00660000D01*
X01200000Y00900000D01*
X01150000Y00900000D01*
X01140000Y00980000D02*
X01360000Y00980000D01*
X01360000Y00220000D01*
X01275000Y00220000D01*
X01225000Y00220000D01*
X01140000Y00220000D01*
X01140000Y00980000D01*
X01140000Y01170000D02*
X01225000Y01170000D01*
X01275000Y01170000D01*
X01360000Y01170000D01*
X01360000Y01930000D01*
X01140000Y01930000D01*
X01140000Y01170000D01*
X01225000Y01170000D02*
X01225000Y01185000D01*
X01225007Y01185609D01*
X01225030Y01186217D01*
X01225067Y01186825D01*
X01225119Y01187431D01*
X01225185Y01188037D01*
X01225266Y01188640D01*
X01225362Y01189241D01*
X01225473Y01189840D01*
X01225598Y01190436D01*
X01225738Y01191028D01*
X01225892Y01191617D01*
X01226060Y01192202D01*
X01226242Y01192783D01*
X01226439Y01193360D01*
X01226650Y01193931D01*
X01226874Y01194497D01*
X01227112Y01195057D01*
X01227364Y01195611D01*
X01227629Y01196159D01*
X01227907Y01196701D01*
X01228199Y01197235D01*
X01228503Y01197763D01*
X01228820Y01198282D01*
X01229150Y01198794D01*
X01229492Y01199298D01*
X01229846Y01199793D01*
X01230213Y01200279D01*
X01230591Y01200757D01*
X01230980Y01201225D01*
X01231381Y01201683D01*
X01231792Y01202131D01*
X01232215Y01202570D01*
X01232648Y01202998D01*
X01233092Y01203415D01*
X01233545Y01203821D01*
X01234008Y01204216D01*
X01234481Y01204600D01*
X01234963Y01204972D01*
X01235454Y01205332D01*
X01235953Y01205680D01*
X01236461Y01206016D01*
X01236976Y01206340D01*
X01237500Y01206651D01*
X01238031Y01206949D01*
X01238569Y01207234D01*
X01239114Y01207505D01*
X01239665Y01207764D01*
X01240222Y01208009D01*
X01240786Y01208240D01*
X01241354Y01208457D01*
X01241928Y01208661D01*
X01242507Y01208851D01*
X01243090Y01209026D01*
X01243677Y01209187D01*
X01244268Y01209334D01*
X01244862Y01209466D01*
X01245459Y01209584D01*
X01246059Y01209687D01*
X01246661Y01209776D01*
X01247266Y01209850D01*
X01247872Y01209909D01*
X01248479Y01209954D01*
X01249087Y01209983D01*
X01249696Y01209998D01*
X01250304Y01209998D01*
X01250913Y01209983D01*
X01251521Y01209954D01*
X01252128Y01209909D01*
X01252734Y01209850D01*
X01253339Y01209776D01*
X01253941Y01209687D01*
X01254541Y01209584D01*
X01255138Y01209466D01*
X01255732Y01209334D01*
X01256323Y01209187D01*
X01256910Y01209026D01*
X01257493Y01208851D01*
X01258072Y01208661D01*
X01258646Y01208457D01*
X01259214Y01208240D01*
X01259778Y01208009D01*
X01260335Y01207764D01*
X01260886Y01207505D01*
X01261431Y01207234D01*
X01261969Y01206949D01*
X01262500Y01206651D01*
X01263024Y01206340D01*
X01263539Y01206016D01*
X01264047Y01205680D01*
X01264546Y01205332D01*
X01265037Y01204972D01*
X01265519Y01204600D01*
X01265992Y01204216D01*
X01266455Y01203821D01*
X01266908Y01203415D01*
X01267352Y01202998D01*
X01267785Y01202570D01*
X01268208Y01202131D01*
X01268619Y01201683D01*
X01269020Y01201225D01*
X01269409Y01200757D01*
X01269787Y01200279D01*
X01270154Y01199793D01*
X01270508Y01199298D01*
X01270850Y01198794D01*
X01271180Y01198282D01*
X01271497Y01197763D01*
X01271801Y01197235D01*
X01272093Y01196701D01*
X01272371Y01196159D01*
X01272636Y01195611D01*
X01272888Y01195057D01*
X01273126Y01194497D01*
X01273350Y01193931D01*
X01273561Y01193360D01*
X01273758Y01192783D01*
X01273940Y01192202D01*
X01274108Y01191617D01*
X01274262Y01191028D01*
X01274402Y01190436D01*
X01274527Y01189840D01*
X01274638Y01189241D01*
X01274734Y01188640D01*
X01274815Y01188037D01*
X01274881Y01187431D01*
X01274933Y01186825D01*
X01274970Y01186217D01*
X01274993Y01185609D01*
X01275000Y01185000D01*
X01275000Y01170000D01*
X01200000Y01250000D02*
X01200000Y01500000D01*
X01275000Y01525000D02*
X01325000Y01575000D01*
X01300000Y01575000D02*
X01300000Y01750000D01*
X01350000Y01750000D01*
X01200000Y01850000D02*
X01200000Y01610000D01*
X01190000Y01600000D01*
X01200000Y01590000D01*
X01200000Y01610000D01*
X01300000Y01525000D02*
X01300000Y01350000D01*
X01350000Y01350000D01*
X01200000Y01250000D02*
X01150000Y01250000D01*
X00860000Y01180000D02*
X00640000Y01180000D01*
X00640000Y00420000D01*
X00725000Y00420000D01*
X00775000Y00420000D01*
X00860000Y00420000D01*
X00860000Y01180000D01*
X00700000Y01100000D02*
X00700000Y00860000D01*
X00690000Y00850000D01*
X00700000Y00840000D01*
X00700000Y00860000D01*
X00800000Y00825000D02*
X00800000Y01000000D01*
X00850000Y01000000D01*
X00700000Y01100000D02*
X00650000Y01100000D01*
X00365000Y01003583D02*
X00270984Y01003583D01*
X00010984Y01003583D01*
X00002992Y01003583D01*
X00002992Y01396575D01*
X00010984Y01396575D01*
X00270984Y01396575D01*
X00365000Y01396575D01*
X00365000Y01003583D01*
X00365000Y00996575D02*
X00270984Y00996575D01*
X00010984Y00996575D01*
X00010984Y00603583D01*
X00002992Y00603583D01*
X00002992Y00996575D01*
X00010984Y00996575D01*
X00010984Y01003583D02*
X00010984Y01396575D01*
X00010984Y01403583D02*
X00002992Y01403583D01*
X00002992Y01796575D01*
X00010984Y01796575D01*
X00270984Y01796575D01*
X00365000Y01796575D01*
X00365000Y01403583D01*
X00270984Y01403583D01*
X00010984Y01403583D01*
X00010984Y01796575D01*
X00043000Y01698575D02*
X00043006Y01699066D01*
X00043024Y01699556D01*
X00043054Y01700046D01*
X00043096Y01700535D01*
X00043150Y01701023D01*
X00043216Y01701510D01*
X00043294Y01701994D01*
X00043384Y01702477D01*
X00043486Y01702957D01*
X00043599Y01703435D01*
X00043724Y01703909D01*
X00043861Y01704381D01*
X00044009Y01704849D01*
X00044169Y01705313D01*
X00044340Y01705773D01*
X00044522Y01706229D01*
X00044716Y01706680D01*
X00044920Y01707126D01*
X00045136Y01707567D01*
X00045362Y01708003D01*
X00045598Y01708433D01*
X00045845Y01708857D01*
X00046103Y01709275D01*
X00046371Y01709686D01*
X00046648Y01710091D01*
X00046936Y01710489D01*
X00047233Y01710880D01*
X00047540Y01711263D01*
X00047856Y01711638D01*
X00048181Y01712006D01*
X00048515Y01712366D01*
X00048858Y01712717D01*
X00049209Y01713060D01*
X00049569Y01713394D01*
X00049937Y01713719D01*
X00050312Y01714035D01*
X00050695Y01714342D01*
X00051086Y01714639D01*
X00051484Y01714927D01*
X00051889Y01715204D01*
X00052300Y01715472D01*
X00052718Y01715730D01*
X00053142Y01715977D01*
X00053572Y01716213D01*
X00054008Y01716439D01*
X00054449Y01716655D01*
X00054895Y01716859D01*
X00055346Y01717053D01*
X00055802Y01717235D01*
X00056262Y01717406D01*
X00056726Y01717566D01*
X00057194Y01717714D01*
X00057666Y01717851D01*
X00058140Y01717976D01*
X00058618Y01718089D01*
X00059098Y01718191D01*
X00059581Y01718281D01*
X00060065Y01718359D01*
X00060552Y01718425D01*
X00061040Y01718479D01*
X00061529Y01718521D01*
X00062019Y01718551D01*
X00062509Y01718569D01*
X00063000Y01718575D01*
X00063491Y01718569D01*
X00063981Y01718551D01*
X00064471Y01718521D01*
X00064960Y01718479D01*
X00065448Y01718425D01*
X00065935Y01718359D01*
X00066419Y01718281D01*
X00066902Y01718191D01*
X00067382Y01718089D01*
X00067860Y01717976D01*
X00068334Y01717851D01*
X00068806Y01717714D01*
X00069274Y01717566D01*
X00069738Y01717406D01*
X00070198Y01717235D01*
X00070654Y01717053D01*
X00071105Y01716859D01*
X00071551Y01716655D01*
X00071992Y01716439D01*
X00072428Y01716213D01*
X00072858Y01715977D01*
X00073282Y01715730D01*
X00073700Y01715472D01*
X00074111Y01715204D01*
X00074516Y01714927D01*
X00074914Y01714639D01*
X00075305Y01714342D01*
X00075688Y01714035D01*
X00076063Y01713719D01*
X00076431Y01713394D01*
X00076791Y01713060D01*
X00077142Y01712717D01*
X00077485Y01712366D01*
X00077819Y01712006D01*
X00078144Y01711638D01*
X00078460Y01711263D01*
X00078767Y01710880D01*
X00079064Y01710489D01*
X00079352Y01710091D01*
X00079629Y01709686D01*
X00079897Y01709275D01*
X00080155Y01708857D01*
X00080402Y01708433D01*
X00080638Y01708003D01*
X00080864Y01707567D01*
X00081080Y01707126D01*
X00081284Y01706680D01*
X00081478Y01706229D01*
X00081660Y01705773D01*
X00081831Y01705313D01*
X00081991Y01704849D01*
X00082139Y01704381D01*
X00082276Y01703909D01*
X00082401Y01703435D01*
X00082514Y01702957D01*
X00082616Y01702477D01*
X00082706Y01701994D01*
X00082784Y01701510D01*
X00082850Y01701023D01*
X00082904Y01700535D01*
X00082946Y01700046D01*
X00082976Y01699556D01*
X00082994Y01699066D01*
X00083000Y01698575D01*
X00082994Y01698084D01*
X00082976Y01697594D01*
X00082946Y01697104D01*
X00082904Y01696615D01*
X00082850Y01696127D01*
X00082784Y01695640D01*
X00082706Y01695156D01*
X00082616Y01694673D01*
X00082514Y01694193D01*
X00082401Y01693715D01*
X00082276Y01693241D01*
X00082139Y01692769D01*
X00081991Y01692301D01*
X00081831Y01691837D01*
X00081660Y01691377D01*
X00081478Y01690921D01*
X00081284Y01690470D01*
X00081080Y01690024D01*
X00080864Y01689583D01*
X00080638Y01689147D01*
X00080402Y01688717D01*
X00080155Y01688293D01*
X00079897Y01687875D01*
X00079629Y01687464D01*
X00079352Y01687059D01*
X00079064Y01686661D01*
X00078767Y01686270D01*
X00078460Y01685887D01*
X00078144Y01685512D01*
X00077819Y01685144D01*
X00077485Y01684784D01*
X00077142Y01684433D01*
X00076791Y01684090D01*
X00076431Y01683756D01*
X00076063Y01683431D01*
X00075688Y01683115D01*
X00075305Y01682808D01*
X00074914Y01682511D01*
X00074516Y01682223D01*
X00074111Y01681946D01*
X00073700Y01681678D01*
X00073282Y01681420D01*
X00072858Y01681173D01*
X00072428Y01680937D01*
X00071992Y01680711D01*
X00071551Y01680495D01*
X00071105Y01680291D01*
X00070654Y01680097D01*
X00070198Y01679915D01*
X00069738Y01679744D01*
X00069274Y01679584D01*
X00068806Y01679436D01*
X00068334Y01679299D01*
X00067860Y01679174D01*
X00067382Y01679061D01*
X00066902Y01678959D01*
X00066419Y01678869D01*
X00065935Y01678791D01*
X00065448Y01678725D01*
X00064960Y01678671D01*
X00064471Y01678629D01*
X00063981Y01678599D01*
X00063491Y01678581D01*
X00063000Y01678575D01*
X00062509Y01678581D01*
X00062019Y01678599D01*
X00061529Y01678629D01*
X00061040Y01678671D01*
X00060552Y01678725D01*
X00060065Y01678791D01*
X00059581Y01678869D01*
X00059098Y01678959D01*
X00058618Y01679061D01*
X00058140Y01679174D01*
X00057666Y01679299D01*
X00057194Y01679436D01*
X00056726Y01679584D01*
X00056262Y01679744D01*
X00055802Y01679915D01*
X00055346Y01680097D01*
X00054895Y01680291D01*
X00054449Y01680495D01*
X00054008Y01680711D01*
X00053572Y01680937D01*
X00053142Y01681173D01*
X00052718Y01681420D01*
X00052300Y01681678D01*
X00051889Y01681946D01*
X00051484Y01682223D01*
X00051086Y01682511D01*
X00050695Y01682808D01*
X00050312Y01683115D01*
X00049937Y01683431D01*
X00049569Y01683756D01*
X00049209Y01684090D01*
X00048858Y01684433D01*
X00048515Y01684784D01*
X00048181Y01685144D01*
X00047856Y01685512D01*
X00047540Y01685887D01*
X00047233Y01686270D01*
X00046936Y01686661D01*
X00046648Y01687059D01*
X00046371Y01687464D01*
X00046103Y01687875D01*
X00045845Y01688293D01*
X00045598Y01688717D01*
X00045362Y01689147D01*
X00045136Y01689583D01*
X00044920Y01690024D01*
X00044716Y01690470D01*
X00044522Y01690921D01*
X00044340Y01691377D01*
X00044169Y01691837D01*
X00044009Y01692301D01*
X00043861Y01692769D01*
X00043724Y01693241D01*
X00043599Y01693715D01*
X00043486Y01694193D01*
X00043384Y01694673D01*
X00043294Y01695156D01*
X00043216Y01695640D01*
X00043150Y01696127D01*
X00043096Y01696615D01*
X00043054Y01697104D01*
X00043024Y01697594D01*
X00043006Y01698084D01*
X00043000Y01698575D01*
X00270984Y01663583D02*
X00270984Y01536575D01*
X00270984Y01466575D02*
X00270984Y01403583D01*
X00270984Y01396575D02*
X00270984Y01333583D01*
X00270984Y01263583D02*
X00270984Y01136575D01*
X00270984Y01066575D02*
X00270984Y01003583D01*
X00270984Y00996575D02*
X00270984Y00933583D01*
X00270984Y00863583D02*
X00270984Y00736575D01*
X00270984Y00666575D02*
X00270984Y00603583D01*
X00010984Y00603583D01*
X00010984Y00596575D02*
X00270984Y00596575D01*
X00365000Y00596575D01*
X00365000Y00203583D01*
X00270984Y00203583D01*
X00010984Y00203583D01*
X00002992Y00203583D01*
X00002992Y00596575D01*
X00010984Y00596575D01*
X00010984Y00203583D01*
X00043000Y00301575D02*
X00043006Y00302066D01*
X00043024Y00302556D01*
X00043054Y00303046D01*
X00043096Y00303535D01*
X00043150Y00304023D01*
X00043216Y00304510D01*
X00043294Y00304994D01*
X00043384Y00305477D01*
X00043486Y00305957D01*
X00043599Y00306435D01*
X00043724Y00306909D01*
X00043861Y00307381D01*
X00044009Y00307849D01*
X00044169Y00308313D01*
X00044340Y00308773D01*
X00044522Y00309229D01*
X00044716Y00309680D01*
X00044920Y00310126D01*
X00045136Y00310567D01*
X00045362Y00311003D01*
X00045598Y00311433D01*
X00045845Y00311857D01*
X00046103Y00312275D01*
X00046371Y00312686D01*
X00046648Y00313091D01*
X00046936Y00313489D01*
X00047233Y00313880D01*
X00047540Y00314263D01*
X00047856Y00314638D01*
X00048181Y00315006D01*
X00048515Y00315366D01*
X00048858Y00315717D01*
X00049209Y00316060D01*
X00049569Y00316394D01*
X00049937Y00316719D01*
X00050312Y00317035D01*
X00050695Y00317342D01*
X00051086Y00317639D01*
X00051484Y00317927D01*
X00051889Y00318204D01*
X00052300Y00318472D01*
X00052718Y00318730D01*
X00053142Y00318977D01*
X00053572Y00319213D01*
X00054008Y00319439D01*
X00054449Y00319655D01*
X00054895Y00319859D01*
X00055346Y00320053D01*
X00055802Y00320235D01*
X00056262Y00320406D01*
X00056726Y00320566D01*
X00057194Y00320714D01*
X00057666Y00320851D01*
X00058140Y00320976D01*
X00058618Y00321089D01*
X00059098Y00321191D01*
X00059581Y00321281D01*
X00060065Y00321359D01*
X00060552Y00321425D01*
X00061040Y00321479D01*
X00061529Y00321521D01*
X00062019Y00321551D01*
X00062509Y00321569D01*
X00063000Y00321575D01*
X00063491Y00321569D01*
X00063981Y00321551D01*
X00064471Y00321521D01*
X00064960Y00321479D01*
X00065448Y00321425D01*
X00065935Y00321359D01*
X00066419Y00321281D01*
X00066902Y00321191D01*
X00067382Y00321089D01*
X00067860Y00320976D01*
X00068334Y00320851D01*
X00068806Y00320714D01*
X00069274Y00320566D01*
X00069738Y00320406D01*
X00070198Y00320235D01*
X00070654Y00320053D01*
X00071105Y00319859D01*
X00071551Y00319655D01*
X00071992Y00319439D01*
X00072428Y00319213D01*
X00072858Y00318977D01*
X00073282Y00318730D01*
X00073700Y00318472D01*
X00074111Y00318204D01*
X00074516Y00317927D01*
X00074914Y00317639D01*
X00075305Y00317342D01*
X00075688Y00317035D01*
X00076063Y00316719D01*
X00076431Y00316394D01*
X00076791Y00316060D01*
X00077142Y00315717D01*
X00077485Y00315366D01*
X00077819Y00315006D01*
X00078144Y00314638D01*
X00078460Y00314263D01*
X00078767Y00313880D01*
X00079064Y00313489D01*
X00079352Y00313091D01*
X00079629Y00312686D01*
X00079897Y00312275D01*
X00080155Y00311857D01*
X00080402Y00311433D01*
X00080638Y00311003D01*
X00080864Y00310567D01*
X00081080Y00310126D01*
X00081284Y00309680D01*
X00081478Y00309229D01*
X00081660Y00308773D01*
X00081831Y00308313D01*
X00081991Y00307849D01*
X00082139Y00307381D01*
X00082276Y00306909D01*
X00082401Y00306435D01*
X00082514Y00305957D01*
X00082616Y00305477D01*
X00082706Y00304994D01*
X00082784Y00304510D01*
X00082850Y00304023D01*
X00082904Y00303535D01*
X00082946Y00303046D01*
X00082976Y00302556D01*
X00082994Y00302066D01*
X00083000Y00301575D01*
X00082994Y00301084D01*
X00082976Y00300594D01*
X00082946Y00300104D01*
X00082904Y00299615D01*
X00082850Y00299127D01*
X00082784Y00298640D01*
X00082706Y00298156D01*
X00082616Y00297673D01*
X00082514Y00297193D01*
X00082401Y00296715D01*
X00082276Y00296241D01*
X00082139Y00295769D01*
X00081991Y00295301D01*
X00081831Y00294837D01*
X00081660Y00294377D01*
X00081478Y00293921D01*
X00081284Y00293470D01*
X00081080Y00293024D01*
X00080864Y00292583D01*
X00080638Y00292147D01*
X00080402Y00291717D01*
X00080155Y00291293D01*
X00079897Y00290875D01*
X00079629Y00290464D01*
X00079352Y00290059D01*
X00079064Y00289661D01*
X00078767Y00289270D01*
X00078460Y00288887D01*
X00078144Y00288512D01*
X00077819Y00288144D01*
X00077485Y00287784D01*
X00077142Y00287433D01*
X00076791Y00287090D01*
X00076431Y00286756D01*
X00076063Y00286431D01*
X00075688Y00286115D01*
X00075305Y00285808D01*
X00074914Y00285511D01*
X00074516Y00285223D01*
X00074111Y00284946D01*
X00073700Y00284678D01*
X00073282Y00284420D01*
X00072858Y00284173D01*
X00072428Y00283937D01*
X00071992Y00283711D01*
X00071551Y00283495D01*
X00071105Y00283291D01*
X00070654Y00283097D01*
X00070198Y00282915D01*
X00069738Y00282744D01*
X00069274Y00282584D01*
X00068806Y00282436D01*
X00068334Y00282299D01*
X00067860Y00282174D01*
X00067382Y00282061D01*
X00066902Y00281959D01*
X00066419Y00281869D01*
X00065935Y00281791D01*
X00065448Y00281725D01*
X00064960Y00281671D01*
X00064471Y00281629D01*
X00063981Y00281599D01*
X00063491Y00281581D01*
X00063000Y00281575D01*
X00062509Y00281581D01*
X00062019Y00281599D01*
X00061529Y00281629D01*
X00061040Y00281671D01*
X00060552Y00281725D01*
X00060065Y00281791D01*
X00059581Y00281869D01*
X00059098Y00281959D01*
X00058618Y00282061D01*
X00058140Y00282174D01*
X00057666Y00282299D01*
X00057194Y00282436D01*
X00056726Y00282584D01*
X00056262Y00282744D01*
X00055802Y00282915D01*
X00055346Y00283097D01*
X00054895Y00283291D01*
X00054449Y00283495D01*
X00054008Y00283711D01*
X00053572Y00283937D01*
X00053142Y00284173D01*
X00052718Y00284420D01*
X00052300Y00284678D01*
X00051889Y00284946D01*
X00051484Y00285223D01*
X00051086Y00285511D01*
X00050695Y00285808D01*
X00050312Y00286115D01*
X00049937Y00286431D01*
X00049569Y00286756D01*
X00049209Y00287090D01*
X00048858Y00287433D01*
X00048515Y00287784D01*
X00048181Y00288144D01*
X00047856Y00288512D01*
X00047540Y00288887D01*
X00047233Y00289270D01*
X00046936Y00289661D01*
X00046648Y00290059D01*
X00046371Y00290464D01*
X00046103Y00290875D01*
X00045845Y00291293D01*
X00045598Y00291717D01*
X00045362Y00292147D01*
X00045136Y00292583D01*
X00044920Y00293024D01*
X00044716Y00293470D01*
X00044522Y00293921D01*
X00044340Y00294377D01*
X00044169Y00294837D01*
X00044009Y00295301D01*
X00043861Y00295769D01*
X00043724Y00296241D01*
X00043599Y00296715D01*
X00043486Y00297193D01*
X00043384Y00297673D01*
X00043294Y00298156D01*
X00043216Y00298640D01*
X00043150Y00299127D01*
X00043096Y00299615D01*
X00043054Y00300104D01*
X00043024Y00300594D01*
X00043006Y00301084D01*
X00043000Y00301575D01*
X00270984Y00266575D02*
X00270984Y00203583D01*
X00270984Y00336575D02*
X00270984Y00463583D01*
X00270984Y00533583D02*
X00270984Y00596575D01*
X00270984Y00603583D02*
X00365000Y00603583D01*
X00365000Y00996575D01*
X00043000Y00898575D02*
X00043006Y00899066D01*
X00043024Y00899556D01*
X00043054Y00900046D01*
X00043096Y00900535D01*
X00043150Y00901023D01*
X00043216Y00901510D01*
X00043294Y00901994D01*
X00043384Y00902477D01*
X00043486Y00902957D01*
X00043599Y00903435D01*
X00043724Y00903909D01*
X00043861Y00904381D01*
X00044009Y00904849D01*
X00044169Y00905313D01*
X00044340Y00905773D01*
X00044522Y00906229D01*
X00044716Y00906680D01*
X00044920Y00907126D01*
X00045136Y00907567D01*
X00045362Y00908003D01*
X00045598Y00908433D01*
X00045845Y00908857D01*
X00046103Y00909275D01*
X00046371Y00909686D01*
X00046648Y00910091D01*
X00046936Y00910489D01*
X00047233Y00910880D01*
X00047540Y00911263D01*
X00047856Y00911638D01*
X00048181Y00912006D01*
X00048515Y00912366D01*
X00048858Y00912717D01*
X00049209Y00913060D01*
X00049569Y00913394D01*
X00049937Y00913719D01*
X00050312Y00914035D01*
X00050695Y00914342D01*
X00051086Y00914639D01*
X00051484Y00914927D01*
X00051889Y00915204D01*
X00052300Y00915472D01*
X00052718Y00915730D01*
X00053142Y00915977D01*
X00053572Y00916213D01*
X00054008Y00916439D01*
X00054449Y00916655D01*
X00054895Y00916859D01*
X00055346Y00917053D01*
X00055802Y00917235D01*
X00056262Y00917406D01*
X00056726Y00917566D01*
X00057194Y00917714D01*
X00057666Y00917851D01*
X00058140Y00917976D01*
X00058618Y00918089D01*
X00059098Y00918191D01*
X00059581Y00918281D01*
X00060065Y00918359D01*
X00060552Y00918425D01*
X00061040Y00918479D01*
X00061529Y00918521D01*
X00062019Y00918551D01*
X00062509Y00918569D01*
X00063000Y00918575D01*
X00063491Y00918569D01*
X00063981Y00918551D01*
X00064471Y00918521D01*
X00064960Y00918479D01*
X00065448Y00918425D01*
X00065935Y00918359D01*
X00066419Y00918281D01*
X00066902Y00918191D01*
X00067382Y00918089D01*
X00067860Y00917976D01*
X00068334Y00917851D01*
X00068806Y00917714D01*
X00069274Y00917566D01*
X00069738Y00917406D01*
X00070198Y00917235D01*
X00070654Y00917053D01*
X00071105Y00916859D01*
X00071551Y00916655D01*
X00071992Y00916439D01*
X00072428Y00916213D01*
X00072858Y00915977D01*
X00073282Y00915730D01*
X00073700Y00915472D01*
X00074111Y00915204D01*
X00074516Y00914927D01*
X00074914Y00914639D01*
X00075305Y00914342D01*
X00075688Y00914035D01*
X00076063Y00913719D01*
X00076431Y00913394D01*
X00076791Y00913060D01*
X00077142Y00912717D01*
X00077485Y00912366D01*
X00077819Y00912006D01*
X00078144Y00911638D01*
X00078460Y00911263D01*
X00078767Y00910880D01*
X00079064Y00910489D01*
X00079352Y00910091D01*
X00079629Y00909686D01*
X00079897Y00909275D01*
X00080155Y00908857D01*
X00080402Y00908433D01*
X00080638Y00908003D01*
X00080864Y00907567D01*
X00081080Y00907126D01*
X00081284Y00906680D01*
X00081478Y00906229D01*
X00081660Y00905773D01*
X00081831Y00905313D01*
X00081991Y00904849D01*
X00082139Y00904381D01*
X00082276Y00903909D01*
X00082401Y00903435D01*
X00082514Y00902957D01*
X00082616Y00902477D01*
X00082706Y00901994D01*
X00082784Y00901510D01*
X00082850Y00901023D01*
X00082904Y00900535D01*
X00082946Y00900046D01*
X00082976Y00899556D01*
X00082994Y00899066D01*
X00083000Y00898575D01*
X00082994Y00898084D01*
X00082976Y00897594D01*
X00082946Y00897104D01*
X00082904Y00896615D01*
X00082850Y00896127D01*
X00082784Y00895640D01*
X00082706Y00895156D01*
X00082616Y00894673D01*
X00082514Y00894193D01*
X00082401Y00893715D01*
X00082276Y00893241D01*
X00082139Y00892769D01*
X00081991Y00892301D01*
X00081831Y00891837D01*
X00081660Y00891377D01*
X00081478Y00890921D01*
X00081284Y00890470D01*
X00081080Y00890024D01*
X00080864Y00889583D01*
X00080638Y00889147D01*
X00080402Y00888717D01*
X00080155Y00888293D01*
X00079897Y00887875D01*
X00079629Y00887464D01*
X00079352Y00887059D01*
X00079064Y00886661D01*
X00078767Y00886270D01*
X00078460Y00885887D01*
X00078144Y00885512D01*
X00077819Y00885144D01*
X00077485Y00884784D01*
X00077142Y00884433D01*
X00076791Y00884090D01*
X00076431Y00883756D01*
X00076063Y00883431D01*
X00075688Y00883115D01*
X00075305Y00882808D01*
X00074914Y00882511D01*
X00074516Y00882223D01*
X00074111Y00881946D01*
X00073700Y00881678D01*
X00073282Y00881420D01*
X00072858Y00881173D01*
X00072428Y00880937D01*
X00071992Y00880711D01*
X00071551Y00880495D01*
X00071105Y00880291D01*
X00070654Y00880097D01*
X00070198Y00879915D01*
X00069738Y00879744D01*
X00069274Y00879584D01*
X00068806Y00879436D01*
X00068334Y00879299D01*
X00067860Y00879174D01*
X00067382Y00879061D01*
X00066902Y00878959D01*
X00066419Y00878869D01*
X00065935Y00878791D01*
X00065448Y00878725D01*
X00064960Y00878671D01*
X00064471Y00878629D01*
X00063981Y00878599D01*
X00063491Y00878581D01*
X00063000Y00878575D01*
X00062509Y00878581D01*
X00062019Y00878599D01*
X00061529Y00878629D01*
X00061040Y00878671D01*
X00060552Y00878725D01*
X00060065Y00878791D01*
X00059581Y00878869D01*
X00059098Y00878959D01*
X00058618Y00879061D01*
X00058140Y00879174D01*
X00057666Y00879299D01*
X00057194Y00879436D01*
X00056726Y00879584D01*
X00056262Y00879744D01*
X00055802Y00879915D01*
X00055346Y00880097D01*
X00054895Y00880291D01*
X00054449Y00880495D01*
X00054008Y00880711D01*
X00053572Y00880937D01*
X00053142Y00881173D01*
X00052718Y00881420D01*
X00052300Y00881678D01*
X00051889Y00881946D01*
X00051484Y00882223D01*
X00051086Y00882511D01*
X00050695Y00882808D01*
X00050312Y00883115D01*
X00049937Y00883431D01*
X00049569Y00883756D01*
X00049209Y00884090D01*
X00048858Y00884433D01*
X00048515Y00884784D01*
X00048181Y00885144D01*
X00047856Y00885512D01*
X00047540Y00885887D01*
X00047233Y00886270D01*
X00046936Y00886661D01*
X00046648Y00887059D01*
X00046371Y00887464D01*
X00046103Y00887875D01*
X00045845Y00888293D01*
X00045598Y00888717D01*
X00045362Y00889147D01*
X00045136Y00889583D01*
X00044920Y00890024D01*
X00044716Y00890470D01*
X00044522Y00890921D01*
X00044340Y00891377D01*
X00044169Y00891837D01*
X00044009Y00892301D01*
X00043861Y00892769D01*
X00043724Y00893241D01*
X00043599Y00893715D01*
X00043486Y00894193D01*
X00043384Y00894673D01*
X00043294Y00895156D01*
X00043216Y00895640D01*
X00043150Y00896127D01*
X00043096Y00896615D01*
X00043054Y00897104D01*
X00043024Y00897594D01*
X00043006Y00898084D01*
X00043000Y00898575D01*
X00043000Y00701575D02*
X00043006Y00702066D01*
X00043024Y00702556D01*
X00043054Y00703046D01*
X00043096Y00703535D01*
X00043150Y00704023D01*
X00043216Y00704510D01*
X00043294Y00704994D01*
X00043384Y00705477D01*
X00043486Y00705957D01*
X00043599Y00706435D01*
X00043724Y00706909D01*
X00043861Y00707381D01*
X00044009Y00707849D01*
X00044169Y00708313D01*
X00044340Y00708773D01*
X00044522Y00709229D01*
X00044716Y00709680D01*
X00044920Y00710126D01*
X00045136Y00710567D01*
X00045362Y00711003D01*
X00045598Y00711433D01*
X00045845Y00711857D01*
X00046103Y00712275D01*
X00046371Y00712686D01*
X00046648Y00713091D01*
X00046936Y00713489D01*
X00047233Y00713880D01*
X00047540Y00714263D01*
X00047856Y00714638D01*
X00048181Y00715006D01*
X00048515Y00715366D01*
X00048858Y00715717D01*
X00049209Y00716060D01*
X00049569Y00716394D01*
X00049937Y00716719D01*
X00050312Y00717035D01*
X00050695Y00717342D01*
X00051086Y00717639D01*
X00051484Y00717927D01*
X00051889Y00718204D01*
X00052300Y00718472D01*
X00052718Y00718730D01*
X00053142Y00718977D01*
X00053572Y00719213D01*
X00054008Y00719439D01*
X00054449Y00719655D01*
X00054895Y00719859D01*
X00055346Y00720053D01*
X00055802Y00720235D01*
X00056262Y00720406D01*
X00056726Y00720566D01*
X00057194Y00720714D01*
X00057666Y00720851D01*
X00058140Y00720976D01*
X00058618Y00721089D01*
X00059098Y00721191D01*
X00059581Y00721281D01*
X00060065Y00721359D01*
X00060552Y00721425D01*
X00061040Y00721479D01*
X00061529Y00721521D01*
X00062019Y00721551D01*
X00062509Y00721569D01*
X00063000Y00721575D01*
X00063491Y00721569D01*
X00063981Y00721551D01*
X00064471Y00721521D01*
X00064960Y00721479D01*
X00065448Y00721425D01*
X00065935Y00721359D01*
X00066419Y00721281D01*
X00066902Y00721191D01*
X00067382Y00721089D01*
X00067860Y00720976D01*
X00068334Y00720851D01*
X00068806Y00720714D01*
X00069274Y00720566D01*
X00069738Y00720406D01*
X00070198Y00720235D01*
X00070654Y00720053D01*
X00071105Y00719859D01*
X00071551Y00719655D01*
X00071992Y00719439D01*
X00072428Y00719213D01*
X00072858Y00718977D01*
X00073282Y00718730D01*
X00073700Y00718472D01*
X00074111Y00718204D01*
X00074516Y00717927D01*
X00074914Y00717639D01*
X00075305Y00717342D01*
X00075688Y00717035D01*
X00076063Y00716719D01*
X00076431Y00716394D01*
X00076791Y00716060D01*
X00077142Y00715717D01*
X00077485Y00715366D01*
X00077819Y00715006D01*
X00078144Y00714638D01*
X00078460Y00714263D01*
X00078767Y00713880D01*
X00079064Y00713489D01*
X00079352Y00713091D01*
X00079629Y00712686D01*
X00079897Y00712275D01*
X00080155Y00711857D01*
X00080402Y00711433D01*
X00080638Y00711003D01*
X00080864Y00710567D01*
X00081080Y00710126D01*
X00081284Y00709680D01*
X00081478Y00709229D01*
X00081660Y00708773D01*
X00081831Y00708313D01*
X00081991Y00707849D01*
X00082139Y00707381D01*
X00082276Y00706909D01*
X00082401Y00706435D01*
X00082514Y00705957D01*
X00082616Y00705477D01*
X00082706Y00704994D01*
X00082784Y00704510D01*
X00082850Y00704023D01*
X00082904Y00703535D01*
X00082946Y00703046D01*
X00082976Y00702556D01*
X00082994Y00702066D01*
X00083000Y00701575D01*
X00082994Y00701084D01*
X00082976Y00700594D01*
X00082946Y00700104D01*
X00082904Y00699615D01*
X00082850Y00699127D01*
X00082784Y00698640D01*
X00082706Y00698156D01*
X00082616Y00697673D01*
X00082514Y00697193D01*
X00082401Y00696715D01*
X00082276Y00696241D01*
X00082139Y00695769D01*
X00081991Y00695301D01*
X00081831Y00694837D01*
X00081660Y00694377D01*
X00081478Y00693921D01*
X00081284Y00693470D01*
X00081080Y00693024D01*
X00080864Y00692583D01*
X00080638Y00692147D01*
X00080402Y00691717D01*
X00080155Y00691293D01*
X00079897Y00690875D01*
X00079629Y00690464D01*
X00079352Y00690059D01*
X00079064Y00689661D01*
X00078767Y00689270D01*
X00078460Y00688887D01*
X00078144Y00688512D01*
X00077819Y00688144D01*
X00077485Y00687784D01*
X00077142Y00687433D01*
X00076791Y00687090D01*
X00076431Y00686756D01*
X00076063Y00686431D01*
X00075688Y00686115D01*
X00075305Y00685808D01*
X00074914Y00685511D01*
X00074516Y00685223D01*
X00074111Y00684946D01*
X00073700Y00684678D01*
X00073282Y00684420D01*
X00072858Y00684173D01*
X00072428Y00683937D01*
X00071992Y00683711D01*
X00071551Y00683495D01*
X00071105Y00683291D01*
X00070654Y00683097D01*
X00070198Y00682915D01*
X00069738Y00682744D01*
X00069274Y00682584D01*
X00068806Y00682436D01*
X00068334Y00682299D01*
X00067860Y00682174D01*
X00067382Y00682061D01*
X00066902Y00681959D01*
X00066419Y00681869D01*
X00065935Y00681791D01*
X00065448Y00681725D01*
X00064960Y00681671D01*
X00064471Y00681629D01*
X00063981Y00681599D01*
X00063491Y00681581D01*
X00063000Y00681575D01*
X00062509Y00681581D01*
X00062019Y00681599D01*
X00061529Y00681629D01*
X00061040Y00681671D01*
X00060552Y00681725D01*
X00060065Y00681791D01*
X00059581Y00681869D01*
X00059098Y00681959D01*
X00058618Y00682061D01*
X00058140Y00682174D01*
X00057666Y00682299D01*
X00057194Y00682436D01*
X00056726Y00682584D01*
X00056262Y00682744D01*
X00055802Y00682915D01*
X00055346Y00683097D01*
X00054895Y00683291D01*
X00054449Y00683495D01*
X00054008Y00683711D01*
X00053572Y00683937D01*
X00053142Y00684173D01*
X00052718Y00684420D01*
X00052300Y00684678D01*
X00051889Y00684946D01*
X00051484Y00685223D01*
X00051086Y00685511D01*
X00050695Y00685808D01*
X00050312Y00686115D01*
X00049937Y00686431D01*
X00049569Y00686756D01*
X00049209Y00687090D01*
X00048858Y00687433D01*
X00048515Y00687784D01*
X00048181Y00688144D01*
X00047856Y00688512D01*
X00047540Y00688887D01*
X00047233Y00689270D01*
X00046936Y00689661D01*
X00046648Y00690059D01*
X00046371Y00690464D01*
X00046103Y00690875D01*
X00045845Y00691293D01*
X00045598Y00691717D01*
X00045362Y00692147D01*
X00045136Y00692583D01*
X00044920Y00693024D01*
X00044716Y00693470D01*
X00044522Y00693921D01*
X00044340Y00694377D01*
X00044169Y00694837D01*
X00044009Y00695301D01*
X00043861Y00695769D01*
X00043724Y00696241D01*
X00043599Y00696715D01*
X00043486Y00697193D01*
X00043384Y00697673D01*
X00043294Y00698156D01*
X00043216Y00698640D01*
X00043150Y00699127D01*
X00043096Y00699615D01*
X00043054Y00700104D01*
X00043024Y00700594D01*
X00043006Y00701084D01*
X00043000Y00701575D01*
X00043000Y00498575D02*
X00043006Y00499066D01*
X00043024Y00499556D01*
X00043054Y00500046D01*
X00043096Y00500535D01*
X00043150Y00501023D01*
X00043216Y00501510D01*
X00043294Y00501994D01*
X00043384Y00502477D01*
X00043486Y00502957D01*
X00043599Y00503435D01*
X00043724Y00503909D01*
X00043861Y00504381D01*
X00044009Y00504849D01*
X00044169Y00505313D01*
X00044340Y00505773D01*
X00044522Y00506229D01*
X00044716Y00506680D01*
X00044920Y00507126D01*
X00045136Y00507567D01*
X00045362Y00508003D01*
X00045598Y00508433D01*
X00045845Y00508857D01*
X00046103Y00509275D01*
X00046371Y00509686D01*
X00046648Y00510091D01*
X00046936Y00510489D01*
X00047233Y00510880D01*
X00047540Y00511263D01*
X00047856Y00511638D01*
X00048181Y00512006D01*
X00048515Y00512366D01*
X00048858Y00512717D01*
X00049209Y00513060D01*
X00049569Y00513394D01*
X00049937Y00513719D01*
X00050312Y00514035D01*
X00050695Y00514342D01*
X00051086Y00514639D01*
X00051484Y00514927D01*
X00051889Y00515204D01*
X00052300Y00515472D01*
X00052718Y00515730D01*
X00053142Y00515977D01*
X00053572Y00516213D01*
X00054008Y00516439D01*
X00054449Y00516655D01*
X00054895Y00516859D01*
X00055346Y00517053D01*
X00055802Y00517235D01*
X00056262Y00517406D01*
X00056726Y00517566D01*
X00057194Y00517714D01*
X00057666Y00517851D01*
X00058140Y00517976D01*
X00058618Y00518089D01*
X00059098Y00518191D01*
X00059581Y00518281D01*
X00060065Y00518359D01*
X00060552Y00518425D01*
X00061040Y00518479D01*
X00061529Y00518521D01*
X00062019Y00518551D01*
X00062509Y00518569D01*
X00063000Y00518575D01*
X00063491Y00518569D01*
X00063981Y00518551D01*
X00064471Y00518521D01*
X00064960Y00518479D01*
X00065448Y00518425D01*
X00065935Y00518359D01*
X00066419Y00518281D01*
X00066902Y00518191D01*
X00067382Y00518089D01*
X00067860Y00517976D01*
X00068334Y00517851D01*
X00068806Y00517714D01*
X00069274Y00517566D01*
X00069738Y00517406D01*
X00070198Y00517235D01*
X00070654Y00517053D01*
X00071105Y00516859D01*
X00071551Y00516655D01*
X00071992Y00516439D01*
X00072428Y00516213D01*
X00072858Y00515977D01*
X00073282Y00515730D01*
X00073700Y00515472D01*
X00074111Y00515204D01*
X00074516Y00514927D01*
X00074914Y00514639D01*
X00075305Y00514342D01*
X00075688Y00514035D01*
X00076063Y00513719D01*
X00076431Y00513394D01*
X00076791Y00513060D01*
X00077142Y00512717D01*
X00077485Y00512366D01*
X00077819Y00512006D01*
X00078144Y00511638D01*
X00078460Y00511263D01*
X00078767Y00510880D01*
X00079064Y00510489D01*
X00079352Y00510091D01*
X00079629Y00509686D01*
X00079897Y00509275D01*
X00080155Y00508857D01*
X00080402Y00508433D01*
X00080638Y00508003D01*
X00080864Y00507567D01*
X00081080Y00507126D01*
X00081284Y00506680D01*
X00081478Y00506229D01*
X00081660Y00505773D01*
X00081831Y00505313D01*
X00081991Y00504849D01*
X00082139Y00504381D01*
X00082276Y00503909D01*
X00082401Y00503435D01*
X00082514Y00502957D01*
X00082616Y00502477D01*
X00082706Y00501994D01*
X00082784Y00501510D01*
X00082850Y00501023D01*
X00082904Y00500535D01*
X00082946Y00500046D01*
X00082976Y00499556D01*
X00082994Y00499066D01*
X00083000Y00498575D01*
X00082994Y00498084D01*
X00082976Y00497594D01*
X00082946Y00497104D01*
X00082904Y00496615D01*
X00082850Y00496127D01*
X00082784Y00495640D01*
X00082706Y00495156D01*
X00082616Y00494673D01*
X00082514Y00494193D01*
X00082401Y00493715D01*
X00082276Y00493241D01*
X00082139Y00492769D01*
X00081991Y00492301D01*
X00081831Y00491837D01*
X00081660Y00491377D01*
X00081478Y00490921D01*
X00081284Y00490470D01*
X00081080Y00490024D01*
X00080864Y00489583D01*
X00080638Y00489147D01*
X00080402Y00488717D01*
X00080155Y00488293D01*
X00079897Y00487875D01*
X00079629Y00487464D01*
X00079352Y00487059D01*
X00079064Y00486661D01*
X00078767Y00486270D01*
X00078460Y00485887D01*
X00078144Y00485512D01*
X00077819Y00485144D01*
X00077485Y00484784D01*
X00077142Y00484433D01*
X00076791Y00484090D01*
X00076431Y00483756D01*
X00076063Y00483431D01*
X00075688Y00483115D01*
X00075305Y00482808D01*
X00074914Y00482511D01*
X00074516Y00482223D01*
X00074111Y00481946D01*
X00073700Y00481678D01*
X00073282Y00481420D01*
X00072858Y00481173D01*
X00072428Y00480937D01*
X00071992Y00480711D01*
X00071551Y00480495D01*
X00071105Y00480291D01*
X00070654Y00480097D01*
X00070198Y00479915D01*
X00069738Y00479744D01*
X00069274Y00479584D01*
X00068806Y00479436D01*
X00068334Y00479299D01*
X00067860Y00479174D01*
X00067382Y00479061D01*
X00066902Y00478959D01*
X00066419Y00478869D01*
X00065935Y00478791D01*
X00065448Y00478725D01*
X00064960Y00478671D01*
X00064471Y00478629D01*
X00063981Y00478599D01*
X00063491Y00478581D01*
X00063000Y00478575D01*
X00062509Y00478581D01*
X00062019Y00478599D01*
X00061529Y00478629D01*
X00061040Y00478671D01*
X00060552Y00478725D01*
X00060065Y00478791D01*
X00059581Y00478869D01*
X00059098Y00478959D01*
X00058618Y00479061D01*
X00058140Y00479174D01*
X00057666Y00479299D01*
X00057194Y00479436D01*
X00056726Y00479584D01*
X00056262Y00479744D01*
X00055802Y00479915D01*
X00055346Y00480097D01*
X00054895Y00480291D01*
X00054449Y00480495D01*
X00054008Y00480711D01*
X00053572Y00480937D01*
X00053142Y00481173D01*
X00052718Y00481420D01*
X00052300Y00481678D01*
X00051889Y00481946D01*
X00051484Y00482223D01*
X00051086Y00482511D01*
X00050695Y00482808D01*
X00050312Y00483115D01*
X00049937Y00483431D01*
X00049569Y00483756D01*
X00049209Y00484090D01*
X00048858Y00484433D01*
X00048515Y00484784D01*
X00048181Y00485144D01*
X00047856Y00485512D01*
X00047540Y00485887D01*
X00047233Y00486270D01*
X00046936Y00486661D01*
X00046648Y00487059D01*
X00046371Y00487464D01*
X00046103Y00487875D01*
X00045845Y00488293D01*
X00045598Y00488717D01*
X00045362Y00489147D01*
X00045136Y00489583D01*
X00044920Y00490024D01*
X00044716Y00490470D01*
X00044522Y00490921D01*
X00044340Y00491377D01*
X00044169Y00491837D01*
X00044009Y00492301D01*
X00043861Y00492769D01*
X00043724Y00493241D01*
X00043599Y00493715D01*
X00043486Y00494193D01*
X00043384Y00494673D01*
X00043294Y00495156D01*
X00043216Y00495640D01*
X00043150Y00496127D01*
X00043096Y00496615D01*
X00043054Y00497104D01*
X00043024Y00497594D01*
X00043006Y00498084D01*
X00043000Y00498575D01*
X00650000Y00500000D02*
X00700000Y00500000D01*
X00700000Y00750000D01*
X00775000Y00775000D02*
X00825000Y00825000D01*
X00800000Y00775000D02*
X00800000Y00600000D01*
X00850000Y00600000D01*
X00775000Y00435000D02*
X00775000Y00420000D01*
X00775000Y00435000D02*
X00774993Y00435609D01*
X00774970Y00436217D01*
X00774933Y00436825D01*
X00774881Y00437431D01*
X00774815Y00438037D01*
X00774734Y00438640D01*
X00774638Y00439241D01*
X00774527Y00439840D01*
X00774402Y00440436D01*
X00774262Y00441028D01*
X00774108Y00441617D01*
X00773940Y00442202D01*
X00773758Y00442783D01*
X00773561Y00443360D01*
X00773350Y00443931D01*
X00773126Y00444497D01*
X00772888Y00445057D01*
X00772636Y00445611D01*
X00772371Y00446159D01*
X00772093Y00446701D01*
X00771801Y00447235D01*
X00771497Y00447763D01*
X00771180Y00448282D01*
X00770850Y00448794D01*
X00770508Y00449298D01*
X00770154Y00449793D01*
X00769787Y00450279D01*
X00769409Y00450757D01*
X00769020Y00451225D01*
X00768619Y00451683D01*
X00768208Y00452131D01*
X00767785Y00452570D01*
X00767352Y00452998D01*
X00766908Y00453415D01*
X00766455Y00453821D01*
X00765992Y00454216D01*
X00765519Y00454600D01*
X00765037Y00454972D01*
X00764546Y00455332D01*
X00764047Y00455680D01*
X00763539Y00456016D01*
X00763024Y00456340D01*
X00762500Y00456651D01*
X00761969Y00456949D01*
X00761431Y00457234D01*
X00760886Y00457505D01*
X00760335Y00457764D01*
X00759778Y00458009D01*
X00759214Y00458240D01*
X00758646Y00458457D01*
X00758072Y00458661D01*
X00757493Y00458851D01*
X00756910Y00459026D01*
X00756323Y00459187D01*
X00755732Y00459334D01*
X00755138Y00459466D01*
X00754541Y00459584D01*
X00753941Y00459687D01*
X00753339Y00459776D01*
X00752734Y00459850D01*
X00752128Y00459909D01*
X00751521Y00459954D01*
X00750913Y00459983D01*
X00750304Y00459998D01*
X00749696Y00459998D01*
X00749087Y00459983D01*
X00748479Y00459954D01*
X00747872Y00459909D01*
X00747266Y00459850D01*
X00746661Y00459776D01*
X00746059Y00459687D01*
X00745459Y00459584D01*
X00744862Y00459466D01*
X00744268Y00459334D01*
X00743677Y00459187D01*
X00743090Y00459026D01*
X00742507Y00458851D01*
X00741928Y00458661D01*
X00741354Y00458457D01*
X00740786Y00458240D01*
X00740222Y00458009D01*
X00739665Y00457764D01*
X00739114Y00457505D01*
X00738569Y00457234D01*
X00738031Y00456949D01*
X00737500Y00456651D01*
X00736976Y00456340D01*
X00736461Y00456016D01*
X00735953Y00455680D01*
X00735454Y00455332D01*
X00734963Y00454972D01*
X00734481Y00454600D01*
X00734008Y00454216D01*
X00733545Y00453821D01*
X00733092Y00453415D01*
X00732648Y00452998D01*
X00732215Y00452570D01*
X00731792Y00452131D01*
X00731381Y00451683D01*
X00730980Y00451225D01*
X00730591Y00450757D01*
X00730213Y00450279D01*
X00729846Y00449793D01*
X00729492Y00449298D01*
X00729150Y00448794D01*
X00728820Y00448282D01*
X00728503Y00447763D01*
X00728199Y00447235D01*
X00727907Y00446701D01*
X00727629Y00446159D01*
X00727364Y00445611D01*
X00727112Y00445057D01*
X00726874Y00444497D01*
X00726650Y00443931D01*
X00726439Y00443360D01*
X00726242Y00442783D01*
X00726060Y00442202D01*
X00725892Y00441617D01*
X00725738Y00441028D01*
X00725598Y00440436D01*
X00725473Y00439840D01*
X00725362Y00439241D01*
X00725266Y00438640D01*
X00725185Y00438037D01*
X00725119Y00437431D01*
X00725067Y00436825D01*
X00725030Y00436217D01*
X00725007Y00435609D01*
X00725000Y00435000D01*
X00725000Y00420000D01*
X01150000Y00300000D02*
X01200000Y00300000D01*
X01225000Y00235000D02*
X01225000Y00220000D01*
X01225000Y00235000D02*
X01225007Y00235609D01*
X01225030Y00236217D01*
X01225067Y00236825D01*
X01225119Y00237431D01*
X01225185Y00238037D01*
X01225266Y00238640D01*
X01225362Y00239241D01*
X01225473Y00239840D01*
X01225598Y00240436D01*
X01225738Y00241028D01*
X01225892Y00241617D01*
X01226060Y00242202D01*
X01226242Y00242783D01*
X01226439Y00243360D01*
X01226650Y00243931D01*
X01226874Y00244497D01*
X01227112Y00245057D01*
X01227364Y00245611D01*
X01227629Y00246159D01*
X01227907Y00246701D01*
X01228199Y00247235D01*
X01228503Y00247763D01*
X01228820Y00248282D01*
X01229150Y00248794D01*
X01229492Y00249298D01*
X01229846Y00249793D01*
X01230213Y00250279D01*
X01230591Y00250757D01*
X01230980Y00251225D01*
X01231381Y00251683D01*
X01231792Y00252131D01*
X01232215Y00252570D01*
X01232648Y00252998D01*
X01233092Y00253415D01*
X01233545Y00253821D01*
X01234008Y00254216D01*
X01234481Y00254600D01*
X01234963Y00254972D01*
X01235454Y00255332D01*
X01235953Y00255680D01*
X01236461Y00256016D01*
X01236976Y00256340D01*
X01237500Y00256651D01*
X01238031Y00256949D01*
X01238569Y00257234D01*
X01239114Y00257505D01*
X01239665Y00257764D01*
X01240222Y00258009D01*
X01240786Y00258240D01*
X01241354Y00258457D01*
X01241928Y00258661D01*
X01242507Y00258851D01*
X01243090Y00259026D01*
X01243677Y00259187D01*
X01244268Y00259334D01*
X01244862Y00259466D01*
X01245459Y00259584D01*
X01246059Y00259687D01*
X01246661Y00259776D01*
X01247266Y00259850D01*
X01247872Y00259909D01*
X01248479Y00259954D01*
X01249087Y00259983D01*
X01249696Y00259998D01*
X01250304Y00259998D01*
X01250913Y00259983D01*
X01251521Y00259954D01*
X01252128Y00259909D01*
X01252734Y00259850D01*
X01253339Y00259776D01*
X01253941Y00259687D01*
X01254541Y00259584D01*
X01255138Y00259466D01*
X01255732Y00259334D01*
X01256323Y00259187D01*
X01256910Y00259026D01*
X01257493Y00258851D01*
X01258072Y00258661D01*
X01258646Y00258457D01*
X01259214Y00258240D01*
X01259778Y00258009D01*
X01260335Y00257764D01*
X01260886Y00257505D01*
X01261431Y00257234D01*
X01261969Y00256949D01*
X01262500Y00256651D01*
X01263024Y00256340D01*
X01263539Y00256016D01*
X01264047Y00255680D01*
X01264546Y00255332D01*
X01265037Y00254972D01*
X01265519Y00254600D01*
X01265992Y00254216D01*
X01266455Y00253821D01*
X01266908Y00253415D01*
X01267352Y00252998D01*
X01267785Y00252570D01*
X01268208Y00252131D01*
X01268619Y00251683D01*
X01269020Y00251225D01*
X01269409Y00250757D01*
X01269787Y00250279D01*
X01270154Y00249793D01*
X01270508Y00249298D01*
X01270850Y00248794D01*
X01271180Y00248282D01*
X01271497Y00247763D01*
X01271801Y00247235D01*
X01272093Y00246701D01*
X01272371Y00246159D01*
X01272636Y00245611D01*
X01272888Y00245057D01*
X01273126Y00244497D01*
X01273350Y00243931D01*
X01273561Y00243360D01*
X01273758Y00242783D01*
X01273940Y00242202D01*
X01274108Y00241617D01*
X01274262Y00241028D01*
X01274402Y00240436D01*
X01274527Y00239840D01*
X01274638Y00239241D01*
X01274734Y00238640D01*
X01274815Y00238037D01*
X01274881Y00237431D01*
X01274933Y00236825D01*
X01274970Y00236217D01*
X01274993Y00235609D01*
X01275000Y00235000D01*
X01275000Y00220000D01*
X01200000Y00640000D02*
X01200000Y00660000D01*
X00043000Y01101575D02*
X00043006Y01102066D01*
X00043024Y01102556D01*
X00043054Y01103046D01*
X00043096Y01103535D01*
X00043150Y01104023D01*
X00043216Y01104510D01*
X00043294Y01104994D01*
X00043384Y01105477D01*
X00043486Y01105957D01*
X00043599Y01106435D01*
X00043724Y01106909D01*
X00043861Y01107381D01*
X00044009Y01107849D01*
X00044169Y01108313D01*
X00044340Y01108773D01*
X00044522Y01109229D01*
X00044716Y01109680D01*
X00044920Y01110126D01*
X00045136Y01110567D01*
X00045362Y01111003D01*
X00045598Y01111433D01*
X00045845Y01111857D01*
X00046103Y01112275D01*
X00046371Y01112686D01*
X00046648Y01113091D01*
X00046936Y01113489D01*
X00047233Y01113880D01*
X00047540Y01114263D01*
X00047856Y01114638D01*
X00048181Y01115006D01*
X00048515Y01115366D01*
X00048858Y01115717D01*
X00049209Y01116060D01*
X00049569Y01116394D01*
X00049937Y01116719D01*
X00050312Y01117035D01*
X00050695Y01117342D01*
X00051086Y01117639D01*
X00051484Y01117927D01*
X00051889Y01118204D01*
X00052300Y01118472D01*
X00052718Y01118730D01*
X00053142Y01118977D01*
X00053572Y01119213D01*
X00054008Y01119439D01*
X00054449Y01119655D01*
X00054895Y01119859D01*
X00055346Y01120053D01*
X00055802Y01120235D01*
X00056262Y01120406D01*
X00056726Y01120566D01*
X00057194Y01120714D01*
X00057666Y01120851D01*
X00058140Y01120976D01*
X00058618Y01121089D01*
X00059098Y01121191D01*
X00059581Y01121281D01*
X00060065Y01121359D01*
X00060552Y01121425D01*
X00061040Y01121479D01*
X00061529Y01121521D01*
X00062019Y01121551D01*
X00062509Y01121569D01*
X00063000Y01121575D01*
X00063491Y01121569D01*
X00063981Y01121551D01*
X00064471Y01121521D01*
X00064960Y01121479D01*
X00065448Y01121425D01*
X00065935Y01121359D01*
X00066419Y01121281D01*
X00066902Y01121191D01*
X00067382Y01121089D01*
X00067860Y01120976D01*
X00068334Y01120851D01*
X00068806Y01120714D01*
X00069274Y01120566D01*
X00069738Y01120406D01*
X00070198Y01120235D01*
X00070654Y01120053D01*
X00071105Y01119859D01*
X00071551Y01119655D01*
X00071992Y01119439D01*
X00072428Y01119213D01*
X00072858Y01118977D01*
X00073282Y01118730D01*
X00073700Y01118472D01*
X00074111Y01118204D01*
X00074516Y01117927D01*
X00074914Y01117639D01*
X00075305Y01117342D01*
X00075688Y01117035D01*
X00076063Y01116719D01*
X00076431Y01116394D01*
X00076791Y01116060D01*
X00077142Y01115717D01*
X00077485Y01115366D01*
X00077819Y01115006D01*
X00078144Y01114638D01*
X00078460Y01114263D01*
X00078767Y01113880D01*
X00079064Y01113489D01*
X00079352Y01113091D01*
X00079629Y01112686D01*
X00079897Y01112275D01*
X00080155Y01111857D01*
X00080402Y01111433D01*
X00080638Y01111003D01*
X00080864Y01110567D01*
X00081080Y01110126D01*
X00081284Y01109680D01*
X00081478Y01109229D01*
X00081660Y01108773D01*
X00081831Y01108313D01*
X00081991Y01107849D01*
X00082139Y01107381D01*
X00082276Y01106909D01*
X00082401Y01106435D01*
X00082514Y01105957D01*
X00082616Y01105477D01*
X00082706Y01104994D01*
X00082784Y01104510D01*
X00082850Y01104023D01*
X00082904Y01103535D01*
X00082946Y01103046D01*
X00082976Y01102556D01*
X00082994Y01102066D01*
X00083000Y01101575D01*
X00082994Y01101084D01*
X00082976Y01100594D01*
X00082946Y01100104D01*
X00082904Y01099615D01*
X00082850Y01099127D01*
X00082784Y01098640D01*
X00082706Y01098156D01*
X00082616Y01097673D01*
X00082514Y01097193D01*
X00082401Y01096715D01*
X00082276Y01096241D01*
X00082139Y01095769D01*
X00081991Y01095301D01*
X00081831Y01094837D01*
X00081660Y01094377D01*
X00081478Y01093921D01*
X00081284Y01093470D01*
X00081080Y01093024D01*
X00080864Y01092583D01*
X00080638Y01092147D01*
X00080402Y01091717D01*
X00080155Y01091293D01*
X00079897Y01090875D01*
X00079629Y01090464D01*
X00079352Y01090059D01*
X00079064Y01089661D01*
X00078767Y01089270D01*
X00078460Y01088887D01*
X00078144Y01088512D01*
X00077819Y01088144D01*
X00077485Y01087784D01*
X00077142Y01087433D01*
X00076791Y01087090D01*
X00076431Y01086756D01*
X00076063Y01086431D01*
X00075688Y01086115D01*
X00075305Y01085808D01*
X00074914Y01085511D01*
X00074516Y01085223D01*
X00074111Y01084946D01*
X00073700Y01084678D01*
X00073282Y01084420D01*
X00072858Y01084173D01*
X00072428Y01083937D01*
X00071992Y01083711D01*
X00071551Y01083495D01*
X00071105Y01083291D01*
X00070654Y01083097D01*
X00070198Y01082915D01*
X00069738Y01082744D01*
X00069274Y01082584D01*
X00068806Y01082436D01*
X00068334Y01082299D01*
X00067860Y01082174D01*
X00067382Y01082061D01*
X00066902Y01081959D01*
X00066419Y01081869D01*
X00065935Y01081791D01*
X00065448Y01081725D01*
X00064960Y01081671D01*
X00064471Y01081629D01*
X00063981Y01081599D01*
X00063491Y01081581D01*
X00063000Y01081575D01*
X00062509Y01081581D01*
X00062019Y01081599D01*
X00061529Y01081629D01*
X00061040Y01081671D01*
X00060552Y01081725D01*
X00060065Y01081791D01*
X00059581Y01081869D01*
X00059098Y01081959D01*
X00058618Y01082061D01*
X00058140Y01082174D01*
X00057666Y01082299D01*
X00057194Y01082436D01*
X00056726Y01082584D01*
X00056262Y01082744D01*
X00055802Y01082915D01*
X00055346Y01083097D01*
X00054895Y01083291D01*
X00054449Y01083495D01*
X00054008Y01083711D01*
X00053572Y01083937D01*
X00053142Y01084173D01*
X00052718Y01084420D01*
X00052300Y01084678D01*
X00051889Y01084946D01*
X00051484Y01085223D01*
X00051086Y01085511D01*
X00050695Y01085808D01*
X00050312Y01086115D01*
X00049937Y01086431D01*
X00049569Y01086756D01*
X00049209Y01087090D01*
X00048858Y01087433D01*
X00048515Y01087784D01*
X00048181Y01088144D01*
X00047856Y01088512D01*
X00047540Y01088887D01*
X00047233Y01089270D01*
X00046936Y01089661D01*
X00046648Y01090059D01*
X00046371Y01090464D01*
X00046103Y01090875D01*
X00045845Y01091293D01*
X00045598Y01091717D01*
X00045362Y01092147D01*
X00045136Y01092583D01*
X00044920Y01093024D01*
X00044716Y01093470D01*
X00044522Y01093921D01*
X00044340Y01094377D01*
X00044169Y01094837D01*
X00044009Y01095301D01*
X00043861Y01095769D01*
X00043724Y01096241D01*
X00043599Y01096715D01*
X00043486Y01097193D01*
X00043384Y01097673D01*
X00043294Y01098156D01*
X00043216Y01098640D01*
X00043150Y01099127D01*
X00043096Y01099615D01*
X00043054Y01100104D01*
X00043024Y01100594D01*
X00043006Y01101084D01*
X00043000Y01101575D01*
X00043000Y01298575D02*
X00043006Y01299066D01*
X00043024Y01299556D01*
X00043054Y01300046D01*
X00043096Y01300535D01*
X00043150Y01301023D01*
X00043216Y01301510D01*
X00043294Y01301994D01*
X00043384Y01302477D01*
X00043486Y01302957D01*
X00043599Y01303435D01*
X00043724Y01303909D01*
X00043861Y01304381D01*
X00044009Y01304849D01*
X00044169Y01305313D01*
X00044340Y01305773D01*
X00044522Y01306229D01*
X00044716Y01306680D01*
X00044920Y01307126D01*
X00045136Y01307567D01*
X00045362Y01308003D01*
X00045598Y01308433D01*
X00045845Y01308857D01*
X00046103Y01309275D01*
X00046371Y01309686D01*
X00046648Y01310091D01*
X00046936Y01310489D01*
X00047233Y01310880D01*
X00047540Y01311263D01*
X00047856Y01311638D01*
X00048181Y01312006D01*
X00048515Y01312366D01*
X00048858Y01312717D01*
X00049209Y01313060D01*
X00049569Y01313394D01*
X00049937Y01313719D01*
X00050312Y01314035D01*
X00050695Y01314342D01*
X00051086Y01314639D01*
X00051484Y01314927D01*
X00051889Y01315204D01*
X00052300Y01315472D01*
X00052718Y01315730D01*
X00053142Y01315977D01*
X00053572Y01316213D01*
X00054008Y01316439D01*
X00054449Y01316655D01*
X00054895Y01316859D01*
X00055346Y01317053D01*
X00055802Y01317235D01*
X00056262Y01317406D01*
X00056726Y01317566D01*
X00057194Y01317714D01*
X00057666Y01317851D01*
X00058140Y01317976D01*
X00058618Y01318089D01*
X00059098Y01318191D01*
X00059581Y01318281D01*
X00060065Y01318359D01*
X00060552Y01318425D01*
X00061040Y01318479D01*
X00061529Y01318521D01*
X00062019Y01318551D01*
X00062509Y01318569D01*
X00063000Y01318575D01*
X00063491Y01318569D01*
X00063981Y01318551D01*
X00064471Y01318521D01*
X00064960Y01318479D01*
X00065448Y01318425D01*
X00065935Y01318359D01*
X00066419Y01318281D01*
X00066902Y01318191D01*
X00067382Y01318089D01*
X00067860Y01317976D01*
X00068334Y01317851D01*
X00068806Y01317714D01*
X00069274Y01317566D01*
X00069738Y01317406D01*
X00070198Y01317235D01*
X00070654Y01317053D01*
X00071105Y01316859D01*
X00071551Y01316655D01*
X00071992Y01316439D01*
X00072428Y01316213D01*
X00072858Y01315977D01*
X00073282Y01315730D01*
X00073700Y01315472D01*
X00074111Y01315204D01*
X00074516Y01314927D01*
X00074914Y01314639D01*
X00075305Y01314342D01*
X00075688Y01314035D01*
X00076063Y01313719D01*
X00076431Y01313394D01*
X00076791Y01313060D01*
X00077142Y01312717D01*
X00077485Y01312366D01*
X00077819Y01312006D01*
X00078144Y01311638D01*
X00078460Y01311263D01*
X00078767Y01310880D01*
X00079064Y01310489D01*
X00079352Y01310091D01*
X00079629Y01309686D01*
X00079897Y01309275D01*
X00080155Y01308857D01*
X00080402Y01308433D01*
X00080638Y01308003D01*
X00080864Y01307567D01*
X00081080Y01307126D01*
X00081284Y01306680D01*
X00081478Y01306229D01*
X00081660Y01305773D01*
X00081831Y01305313D01*
X00081991Y01304849D01*
X00082139Y01304381D01*
X00082276Y01303909D01*
X00082401Y01303435D01*
X00082514Y01302957D01*
X00082616Y01302477D01*
X00082706Y01301994D01*
X00082784Y01301510D01*
X00082850Y01301023D01*
X00082904Y01300535D01*
X00082946Y01300046D01*
X00082976Y01299556D01*
X00082994Y01299066D01*
X00083000Y01298575D01*
X00082994Y01298084D01*
X00082976Y01297594D01*
X00082946Y01297104D01*
X00082904Y01296615D01*
X00082850Y01296127D01*
X00082784Y01295640D01*
X00082706Y01295156D01*
X00082616Y01294673D01*
X00082514Y01294193D01*
X00082401Y01293715D01*
X00082276Y01293241D01*
X00082139Y01292769D01*
X00081991Y01292301D01*
X00081831Y01291837D01*
X00081660Y01291377D01*
X00081478Y01290921D01*
X00081284Y01290470D01*
X00081080Y01290024D01*
X00080864Y01289583D01*
X00080638Y01289147D01*
X00080402Y01288717D01*
X00080155Y01288293D01*
X00079897Y01287875D01*
X00079629Y01287464D01*
X00079352Y01287059D01*
X00079064Y01286661D01*
X00078767Y01286270D01*
X00078460Y01285887D01*
X00078144Y01285512D01*
X00077819Y01285144D01*
X00077485Y01284784D01*
X00077142Y01284433D01*
X00076791Y01284090D01*
X00076431Y01283756D01*
X00076063Y01283431D01*
X00075688Y01283115D01*
X00075305Y01282808D01*
X00074914Y01282511D01*
X00074516Y01282223D01*
X00074111Y01281946D01*
X00073700Y01281678D01*
X00073282Y01281420D01*
X00072858Y01281173D01*
X00072428Y01280937D01*
X00071992Y01280711D01*
X00071551Y01280495D01*
X00071105Y01280291D01*
X00070654Y01280097D01*
X00070198Y01279915D01*
X00069738Y01279744D01*
X00069274Y01279584D01*
X00068806Y01279436D01*
X00068334Y01279299D01*
X00067860Y01279174D01*
X00067382Y01279061D01*
X00066902Y01278959D01*
X00066419Y01278869D01*
X00065935Y01278791D01*
X00065448Y01278725D01*
X00064960Y01278671D01*
X00064471Y01278629D01*
X00063981Y01278599D01*
X00063491Y01278581D01*
X00063000Y01278575D01*
X00062509Y01278581D01*
X00062019Y01278599D01*
X00061529Y01278629D01*
X00061040Y01278671D01*
X00060552Y01278725D01*
X00060065Y01278791D01*
X00059581Y01278869D01*
X00059098Y01278959D01*
X00058618Y01279061D01*
X00058140Y01279174D01*
X00057666Y01279299D01*
X00057194Y01279436D01*
X00056726Y01279584D01*
X00056262Y01279744D01*
X00055802Y01279915D01*
X00055346Y01280097D01*
X00054895Y01280291D01*
X00054449Y01280495D01*
X00054008Y01280711D01*
X00053572Y01280937D01*
X00053142Y01281173D01*
X00052718Y01281420D01*
X00052300Y01281678D01*
X00051889Y01281946D01*
X00051484Y01282223D01*
X00051086Y01282511D01*
X00050695Y01282808D01*
X00050312Y01283115D01*
X00049937Y01283431D01*
X00049569Y01283756D01*
X00049209Y01284090D01*
X00048858Y01284433D01*
X00048515Y01284784D01*
X00048181Y01285144D01*
X00047856Y01285512D01*
X00047540Y01285887D01*
X00047233Y01286270D01*
X00046936Y01286661D01*
X00046648Y01287059D01*
X00046371Y01287464D01*
X00046103Y01287875D01*
X00045845Y01288293D01*
X00045598Y01288717D01*
X00045362Y01289147D01*
X00045136Y01289583D01*
X00044920Y01290024D01*
X00044716Y01290470D01*
X00044522Y01290921D01*
X00044340Y01291377D01*
X00044169Y01291837D01*
X00044009Y01292301D01*
X00043861Y01292769D01*
X00043724Y01293241D01*
X00043599Y01293715D01*
X00043486Y01294193D01*
X00043384Y01294673D01*
X00043294Y01295156D01*
X00043216Y01295640D01*
X00043150Y01296127D01*
X00043096Y01296615D01*
X00043054Y01297104D01*
X00043024Y01297594D01*
X00043006Y01298084D01*
X00043000Y01298575D01*
X00043000Y01501575D02*
X00043006Y01502066D01*
X00043024Y01502556D01*
X00043054Y01503046D01*
X00043096Y01503535D01*
X00043150Y01504023D01*
X00043216Y01504510D01*
X00043294Y01504994D01*
X00043384Y01505477D01*
X00043486Y01505957D01*
X00043599Y01506435D01*
X00043724Y01506909D01*
X00043861Y01507381D01*
X00044009Y01507849D01*
X00044169Y01508313D01*
X00044340Y01508773D01*
X00044522Y01509229D01*
X00044716Y01509680D01*
X00044920Y01510126D01*
X00045136Y01510567D01*
X00045362Y01511003D01*
X00045598Y01511433D01*
X00045845Y01511857D01*
X00046103Y01512275D01*
X00046371Y01512686D01*
X00046648Y01513091D01*
X00046936Y01513489D01*
X00047233Y01513880D01*
X00047540Y01514263D01*
X00047856Y01514638D01*
X00048181Y01515006D01*
X00048515Y01515366D01*
X00048858Y01515717D01*
X00049209Y01516060D01*
X00049569Y01516394D01*
X00049937Y01516719D01*
X00050312Y01517035D01*
X00050695Y01517342D01*
X00051086Y01517639D01*
X00051484Y01517927D01*
X00051889Y01518204D01*
X00052300Y01518472D01*
X00052718Y01518730D01*
X00053142Y01518977D01*
X00053572Y01519213D01*
X00054008Y01519439D01*
X00054449Y01519655D01*
X00054895Y01519859D01*
X00055346Y01520053D01*
X00055802Y01520235D01*
X00056262Y01520406D01*
X00056726Y01520566D01*
X00057194Y01520714D01*
X00057666Y01520851D01*
X00058140Y01520976D01*
X00058618Y01521089D01*
X00059098Y01521191D01*
X00059581Y01521281D01*
X00060065Y01521359D01*
X00060552Y01521425D01*
X00061040Y01521479D01*
X00061529Y01521521D01*
X00062019Y01521551D01*
X00062509Y01521569D01*
X00063000Y01521575D01*
X00063491Y01521569D01*
X00063981Y01521551D01*
X00064471Y01521521D01*
X00064960Y01521479D01*
X00065448Y01521425D01*
X00065935Y01521359D01*
X00066419Y01521281D01*
X00066902Y01521191D01*
X00067382Y01521089D01*
X00067860Y01520976D01*
X00068334Y01520851D01*
X00068806Y01520714D01*
X00069274Y01520566D01*
X00069738Y01520406D01*
X00070198Y01520235D01*
X00070654Y01520053D01*
X00071105Y01519859D01*
X00071551Y01519655D01*
X00071992Y01519439D01*
X00072428Y01519213D01*
X00072858Y01518977D01*
X00073282Y01518730D01*
X00073700Y01518472D01*
X00074111Y01518204D01*
X00074516Y01517927D01*
X00074914Y01517639D01*
X00075305Y01517342D01*
X00075688Y01517035D01*
X00076063Y01516719D01*
X00076431Y01516394D01*
X00076791Y01516060D01*
X00077142Y01515717D01*
X00077485Y01515366D01*
X00077819Y01515006D01*
X00078144Y01514638D01*
X00078460Y01514263D01*
X00078767Y01513880D01*
X00079064Y01513489D01*
X00079352Y01513091D01*
X00079629Y01512686D01*
X00079897Y01512275D01*
X00080155Y01511857D01*
X00080402Y01511433D01*
X00080638Y01511003D01*
X00080864Y01510567D01*
X00081080Y01510126D01*
X00081284Y01509680D01*
X00081478Y01509229D01*
X00081660Y01508773D01*
X00081831Y01508313D01*
X00081991Y01507849D01*
X00082139Y01507381D01*
X00082276Y01506909D01*
X00082401Y01506435D01*
X00082514Y01505957D01*
X00082616Y01505477D01*
X00082706Y01504994D01*
X00082784Y01504510D01*
X00082850Y01504023D01*
X00082904Y01503535D01*
X00082946Y01503046D01*
X00082976Y01502556D01*
X00082994Y01502066D01*
X00083000Y01501575D01*
X00082994Y01501084D01*
X00082976Y01500594D01*
X00082946Y01500104D01*
X00082904Y01499615D01*
X00082850Y01499127D01*
X00082784Y01498640D01*
X00082706Y01498156D01*
X00082616Y01497673D01*
X00082514Y01497193D01*
X00082401Y01496715D01*
X00082276Y01496241D01*
X00082139Y01495769D01*
X00081991Y01495301D01*
X00081831Y01494837D01*
X00081660Y01494377D01*
X00081478Y01493921D01*
X00081284Y01493470D01*
X00081080Y01493024D01*
X00080864Y01492583D01*
X00080638Y01492147D01*
X00080402Y01491717D01*
X00080155Y01491293D01*
X00079897Y01490875D01*
X00079629Y01490464D01*
X00079352Y01490059D01*
X00079064Y01489661D01*
X00078767Y01489270D01*
X00078460Y01488887D01*
X00078144Y01488512D01*
X00077819Y01488144D01*
X00077485Y01487784D01*
X00077142Y01487433D01*
X00076791Y01487090D01*
X00076431Y01486756D01*
X00076063Y01486431D01*
X00075688Y01486115D01*
X00075305Y01485808D01*
X00074914Y01485511D01*
X00074516Y01485223D01*
X00074111Y01484946D01*
X00073700Y01484678D01*
X00073282Y01484420D01*
X00072858Y01484173D01*
X00072428Y01483937D01*
X00071992Y01483711D01*
X00071551Y01483495D01*
X00071105Y01483291D01*
X00070654Y01483097D01*
X00070198Y01482915D01*
X00069738Y01482744D01*
X00069274Y01482584D01*
X00068806Y01482436D01*
X00068334Y01482299D01*
X00067860Y01482174D01*
X00067382Y01482061D01*
X00066902Y01481959D01*
X00066419Y01481869D01*
X00065935Y01481791D01*
X00065448Y01481725D01*
X00064960Y01481671D01*
X00064471Y01481629D01*
X00063981Y01481599D01*
X00063491Y01481581D01*
X00063000Y01481575D01*
X00062509Y01481581D01*
X00062019Y01481599D01*
X00061529Y01481629D01*
X00061040Y01481671D01*
X00060552Y01481725D01*
X00060065Y01481791D01*
X00059581Y01481869D01*
X00059098Y01481959D01*
X00058618Y01482061D01*
X00058140Y01482174D01*
X00057666Y01482299D01*
X00057194Y01482436D01*
X00056726Y01482584D01*
X00056262Y01482744D01*
X00055802Y01482915D01*
X00055346Y01483097D01*
X00054895Y01483291D01*
X00054449Y01483495D01*
X00054008Y01483711D01*
X00053572Y01483937D01*
X00053142Y01484173D01*
X00052718Y01484420D01*
X00052300Y01484678D01*
X00051889Y01484946D01*
X00051484Y01485223D01*
X00051086Y01485511D01*
X00050695Y01485808D01*
X00050312Y01486115D01*
X00049937Y01486431D01*
X00049569Y01486756D01*
X00049209Y01487090D01*
X00048858Y01487433D01*
X00048515Y01487784D01*
X00048181Y01488144D01*
X00047856Y01488512D01*
X00047540Y01488887D01*
X00047233Y01489270D01*
X00046936Y01489661D01*
X00046648Y01490059D01*
X00046371Y01490464D01*
X00046103Y01490875D01*
X00045845Y01491293D01*
X00045598Y01491717D01*
X00045362Y01492147D01*
X00045136Y01492583D01*
X00044920Y01493024D01*
X00044716Y01493470D01*
X00044522Y01493921D01*
X00044340Y01494377D01*
X00044169Y01494837D01*
X00044009Y01495301D01*
X00043861Y01495769D01*
X00043724Y01496241D01*
X00043599Y01496715D01*
X00043486Y01497193D01*
X00043384Y01497673D01*
X00043294Y01498156D01*
X00043216Y01498640D01*
X00043150Y01499127D01*
X00043096Y01499615D01*
X00043054Y01500104D01*
X00043024Y01500594D01*
X00043006Y01501084D01*
X00043000Y01501575D01*
X00270984Y01733583D02*
X00270984Y01796575D01*
X00320000Y01940000D02*
X00320000Y02025000D01*
X00320000Y02075000D01*
X00320000Y02160000D01*
X01080000Y02160000D01*
X01080000Y01940000D01*
X00320000Y01940000D01*
X00320000Y02025000D02*
X00335000Y02025000D01*
X00335609Y02025007D01*
X00336217Y02025030D01*
X00336825Y02025067D01*
X00337431Y02025119D01*
X00338037Y02025185D01*
X00338640Y02025266D01*
X00339241Y02025362D01*
X00339840Y02025473D01*
X00340436Y02025598D01*
X00341028Y02025738D01*
X00341617Y02025892D01*
X00342202Y02026060D01*
X00342783Y02026242D01*
X00343360Y02026439D01*
X00343931Y02026650D01*
X00344497Y02026874D01*
X00345057Y02027112D01*
X00345611Y02027364D01*
X00346159Y02027629D01*
X00346701Y02027907D01*
X00347235Y02028199D01*
X00347763Y02028503D01*
X00348282Y02028820D01*
X00348794Y02029150D01*
X00349298Y02029492D01*
X00349793Y02029846D01*
X00350279Y02030213D01*
X00350757Y02030591D01*
X00351225Y02030980D01*
X00351683Y02031381D01*
X00352131Y02031792D01*
X00352570Y02032215D01*
X00352998Y02032648D01*
X00353415Y02033092D01*
X00353821Y02033545D01*
X00354216Y02034008D01*
X00354600Y02034481D01*
X00354972Y02034963D01*
X00355332Y02035454D01*
X00355680Y02035953D01*
X00356016Y02036461D01*
X00356340Y02036976D01*
X00356651Y02037500D01*
X00356949Y02038031D01*
X00357234Y02038569D01*
X00357505Y02039114D01*
X00357764Y02039665D01*
X00358009Y02040222D01*
X00358240Y02040786D01*
X00358457Y02041354D01*
X00358661Y02041928D01*
X00358851Y02042507D01*
X00359026Y02043090D01*
X00359187Y02043677D01*
X00359334Y02044268D01*
X00359466Y02044862D01*
X00359584Y02045459D01*
X00359687Y02046059D01*
X00359776Y02046661D01*
X00359850Y02047266D01*
X00359909Y02047872D01*
X00359954Y02048479D01*
X00359983Y02049087D01*
X00359998Y02049696D01*
X00359998Y02050304D01*
X00359983Y02050913D01*
X00359954Y02051521D01*
X00359909Y02052128D01*
X00359850Y02052734D01*
X00359776Y02053339D01*
X00359687Y02053941D01*
X00359584Y02054541D01*
X00359466Y02055138D01*
X00359334Y02055732D01*
X00359187Y02056323D01*
X00359026Y02056910D01*
X00358851Y02057493D01*
X00358661Y02058072D01*
X00358457Y02058646D01*
X00358240Y02059214D01*
X00358009Y02059778D01*
X00357764Y02060335D01*
X00357505Y02060886D01*
X00357234Y02061431D01*
X00356949Y02061969D01*
X00356651Y02062500D01*
X00356340Y02063024D01*
X00356016Y02063539D01*
X00355680Y02064047D01*
X00355332Y02064546D01*
X00354972Y02065037D01*
X00354600Y02065519D01*
X00354216Y02065992D01*
X00353821Y02066455D01*
X00353415Y02066908D01*
X00352998Y02067352D01*
X00352570Y02067785D01*
X00352131Y02068208D01*
X00351683Y02068619D01*
X00351225Y02069020D01*
X00350757Y02069409D01*
X00350279Y02069787D01*
X00349793Y02070154D01*
X00349298Y02070508D01*
X00348794Y02070850D01*
X00348282Y02071180D01*
X00347763Y02071497D01*
X00347235Y02071801D01*
X00346701Y02072093D01*
X00346159Y02072371D01*
X00345611Y02072636D01*
X00345057Y02072888D01*
X00344497Y02073126D01*
X00343931Y02073350D01*
X00343360Y02073561D01*
X00342783Y02073758D01*
X00342202Y02073940D01*
X00341617Y02074108D01*
X00341028Y02074262D01*
X00340436Y02074402D01*
X00339840Y02074527D01*
X00339241Y02074638D01*
X00338640Y02074734D01*
X00338037Y02074815D01*
X00337431Y02074881D01*
X00336825Y02074933D01*
X00336217Y02074970D01*
X00335609Y02074993D01*
X00335000Y02075000D01*
X00320000Y02075000D01*
X00400000Y02100000D02*
X00650000Y02100000D01*
X00740000Y02100000D02*
X00750000Y02110000D01*
X00760000Y02100000D01*
X01000000Y02100000D01*
X01000000Y02150000D01*
X00900000Y02000000D02*
X00900000Y01950000D01*
X00900000Y02000000D02*
X00725000Y02000000D01*
X00725000Y01975000D02*
X00675000Y02025000D01*
X00675000Y02000000D02*
X00500000Y02000000D01*
X00500000Y01950000D01*
X00400000Y02100000D02*
X00400000Y02150000D01*
X00740000Y02100000D02*
X00760000Y02100000D01*
X01150000Y01850000D02*
X01200000Y01850000D01*
D14*
X01175000Y01600000D02*
X01200000Y01500000D01*
X01250000Y01525000D02*
X01275000Y01525000D01*
X01300000Y01525000D01*
X01350000Y01525000D01*
X01350000Y01575000D01*
X01325000Y01575000D01*
X01300000Y01575000D01*
X01250000Y01575000D01*
X01250000Y01525000D01*
X00725000Y01950000D02*
X00675000Y01950000D01*
X00675000Y02000000D01*
X00675000Y02025000D01*
X00675000Y02050000D01*
X00725000Y02050000D01*
X00725000Y02000000D01*
X00725000Y01975000D01*
X00725000Y01950000D01*
X00650000Y02100000D02*
X00750000Y02125000D01*
X00675000Y00850000D02*
X00700000Y00750000D01*
X00750000Y00775000D02*
X00775000Y00775000D01*
X00800000Y00775000D01*
X00850000Y00775000D01*
X00850000Y00825000D01*
X00825000Y00825000D01*
X00800000Y00825000D01*
X00750000Y00825000D01*
X00750000Y00775000D01*
X01175000Y00650000D02*
X01200000Y00550000D01*
X01250000Y00575000D02*
X01275000Y00575000D01*
X01300000Y00575000D01*
X01350000Y00575000D01*
X01350000Y00625000D01*
X01325000Y00625000D01*
X01300000Y00625000D01*
X01250000Y00625000D01*
X01250000Y00575000D01*
D15*
X01122500Y00578565D02*
X01122500Y00548539D01*
X01122500Y00563552D02*
X01077462Y00563552D01*
X01092474Y00548539D01*
X01077462Y00532526D02*
X01107487Y00502500D01*
X01099981Y00510006D02*
X01122500Y00532526D01*
X01122500Y00502500D02*
X01077462Y00502500D01*
X00826486Y00437500D02*
X00796461Y00437500D01*
X00811474Y00437500D02*
X00811474Y00482538D01*
X00796461Y00467526D01*
X00622500Y00702500D02*
X00577462Y00702500D01*
X00599981Y00710006D02*
X00622500Y00732526D01*
X00622500Y00748539D02*
X00592474Y00778565D01*
X00584968Y00778565D01*
X00577462Y00771058D01*
X00577462Y00756046D01*
X00584968Y00748539D01*
X00577462Y00732526D02*
X00607487Y00702500D01*
X00622500Y00748539D02*
X00622500Y00778565D01*
X00344500Y00727140D02*
X00344500Y00697114D01*
X00314474Y00727140D01*
X00306968Y00727140D01*
X00299462Y00719633D01*
X00299462Y00704620D01*
X00306968Y00697114D01*
X00299462Y00681100D02*
X00344500Y00651075D01*
X00344500Y00681100D02*
X00299462Y00651075D01*
X00122500Y00654100D02*
X00122500Y00624075D01*
X00122500Y00639088D02*
X00077462Y00639088D01*
X00092474Y00624075D01*
X00092474Y00449100D02*
X00084968Y00449100D01*
X00077462Y00441594D01*
X00077462Y00426581D01*
X00084968Y00419075D01*
X00092474Y00449100D02*
X00122500Y00419075D01*
X00122500Y00449100D01*
X00299462Y00312127D02*
X00344500Y00312127D01*
X00344500Y00297114D02*
X00344500Y00327140D01*
X00314474Y00297114D02*
X00299462Y00312127D01*
X00299462Y00281100D02*
X00344500Y00251075D01*
X00344500Y00281100D02*
X00299462Y00251075D01*
X00122500Y00254100D02*
X00122500Y00224075D01*
X00122500Y00239088D02*
X00077462Y00239088D01*
X00092474Y00224075D01*
X00084968Y00819075D02*
X00077462Y00826581D01*
X00077462Y00841594D01*
X00084968Y00849100D01*
X00092474Y00849100D01*
X00122500Y00819075D01*
X00122500Y00849100D01*
X00122500Y01024075D02*
X00122500Y01054100D01*
X00122500Y01039088D02*
X00077462Y01039088D01*
X00092474Y01024075D01*
X00299462Y01051075D02*
X00344500Y01081100D01*
X00336994Y01097114D02*
X00344500Y01104620D01*
X00344500Y01119633D01*
X00336994Y01127140D01*
X00329487Y01127140D01*
X00321981Y01119633D01*
X00321981Y01112127D01*
X00321981Y01119633D02*
X00314474Y01127140D01*
X00306968Y01127140D01*
X00299462Y01119633D01*
X00299462Y01104620D01*
X00306968Y01097114D01*
X00299462Y01081100D02*
X00344500Y01051075D01*
X00122500Y01219075D02*
X00092474Y01249100D01*
X00084968Y01249100D01*
X00077462Y01241594D01*
X00077462Y01226581D01*
X00084968Y01219075D01*
X00122500Y01219075D02*
X00122500Y01249100D01*
X00122500Y01424075D02*
X00122500Y01454100D01*
X00122500Y01439088D02*
X00077462Y01439088D01*
X00092474Y01424075D01*
X00299462Y01451075D02*
X00344500Y01481100D01*
X00321981Y01497114D02*
X00299462Y01519633D01*
X00344500Y01519633D01*
X00321981Y01527140D02*
X00321981Y01497114D01*
X00299462Y01481100D02*
X00344500Y01451075D01*
X00122500Y01619075D02*
X00092474Y01649100D01*
X00084968Y01649100D01*
X00077462Y01641594D01*
X00077462Y01626581D01*
X00084968Y01619075D01*
X00122500Y01619075D02*
X00122500Y01649100D01*
X00352474Y01962500D02*
X00337462Y01977513D01*
X00382500Y01977513D01*
X00382500Y01962500D02*
X00382500Y01992526D01*
X00602500Y02177500D02*
X00602500Y02222538D01*
X00610006Y02200019D02*
X00632526Y02177500D01*
X00648539Y02200019D02*
X00678565Y02200019D01*
X00671058Y02177500D02*
X00671058Y02222538D01*
X00648539Y02200019D01*
X00632526Y02222538D02*
X00602500Y02192513D01*
X01084968Y01528565D02*
X01092474Y01528565D01*
X01099981Y01521058D01*
X01107487Y01528565D01*
X01114994Y01528565D01*
X01122500Y01521058D01*
X01122500Y01506046D01*
X01114994Y01498539D01*
X01122500Y01482526D02*
X01099981Y01460006D01*
X01107487Y01452500D02*
X01077462Y01482526D01*
X01084968Y01498539D02*
X01077462Y01506046D01*
X01077462Y01521058D01*
X01084968Y01528565D01*
X01099981Y01521058D02*
X01099981Y01513552D01*
X01077462Y01452500D02*
X01122500Y01452500D01*
X01311474Y01232538D02*
X01296461Y01217526D01*
X01311474Y01232538D02*
X01311474Y01187500D01*
X01326486Y01187500D02*
X01296461Y01187500D01*
X01835000Y01167539D02*
X01835000Y01332461D01*
X01890000Y01338728D02*
X01890000Y01354524D01*
X01890000Y01261272D02*
X01890000Y01238728D01*
X01835000Y01332465D02*
X01836984Y01333991D01*
X01839004Y01335469D01*
X01841059Y01336899D01*
X01843147Y01338279D01*
X01845267Y01339609D01*
X01847419Y01340888D01*
X01849600Y01342115D01*
X01851810Y01343291D01*
X01854048Y01344413D01*
X01856311Y01345481D01*
X01858600Y01346495D01*
X01860911Y01347455D01*
X01863246Y01348359D01*
X01865601Y01349207D01*
X01867975Y01349999D01*
X01870368Y01350734D01*
X01872777Y01351411D01*
X01875202Y01352031D01*
X01877642Y01352593D01*
X01880093Y01353097D01*
X01882557Y01353542D01*
X01885030Y01353929D01*
X01887511Y01354256D01*
X01890000Y01354524D01*
X01892554Y01354737D01*
X01895113Y01354887D01*
X01897674Y01354975D01*
X01900237Y01355001D01*
X01902800Y01354964D01*
X01905361Y01354864D01*
X01907918Y01354702D01*
X01910472Y01354478D01*
X01913018Y01354191D01*
X01915557Y01353842D01*
X01918087Y01353432D01*
X01920606Y01352959D01*
X01923113Y01352426D01*
X01925606Y01351831D01*
X01928084Y01351176D01*
X01930545Y01350460D01*
X01932988Y01349685D01*
X01935411Y01348850D01*
X01937813Y01347956D01*
X01940192Y01347004D01*
X01942548Y01345995D01*
X01944878Y01344928D01*
X01947182Y01343804D01*
X01949457Y01342624D01*
X01951703Y01341390D01*
X01953918Y01340101D01*
X01956101Y01338758D01*
X01958251Y01337362D01*
X01960366Y01335915D01*
X01962445Y01334416D01*
X01964486Y01332866D01*
X01966490Y01331268D01*
X01968453Y01329621D01*
X01970376Y01327926D01*
X01972257Y01326186D01*
X01974095Y01324399D01*
X01975889Y01322569D01*
X01977637Y01320695D01*
X01979340Y01318779D01*
X01980995Y01316822D01*
X01982602Y01314826D01*
X01984159Y01312790D01*
X01985667Y01310717D01*
X01987123Y01308609D01*
X01988528Y01306465D01*
X01989879Y01304287D01*
X01991177Y01302077D01*
X01992421Y01299837D01*
X01993610Y01297566D01*
X01994743Y01295267D01*
X01995820Y01292941D01*
X01996839Y01290590D01*
X01997801Y01288214D01*
X01998705Y01285816D01*
X01999549Y01283396D01*
X02000335Y01280957D01*
X02000331Y01219044D02*
X01999551Y01216621D01*
X01998713Y01214218D01*
X01997817Y01211837D01*
X01996863Y01209477D01*
X01995853Y01207141D01*
X01994786Y01204831D01*
X01993663Y01202547D01*
X01992486Y01200291D01*
X01991254Y01198064D01*
X01989968Y01195868D01*
X01988630Y01193703D01*
X01987239Y01191572D01*
X01985798Y01189474D01*
X01984306Y01187413D01*
X01982764Y01185388D01*
X01981174Y01183401D01*
X01979536Y01181453D01*
X01977851Y01179546D01*
X01976121Y01177680D01*
X01974346Y01175856D01*
X01972527Y01174076D01*
X01970665Y01172341D01*
X01968763Y01170651D01*
X01966819Y01169008D01*
X01964837Y01167412D01*
X01962816Y01165865D01*
X01960759Y01164367D01*
X01958665Y01162920D01*
X01956538Y01161524D01*
X01954377Y01160179D01*
X01952184Y01158888D01*
X01949960Y01157650D01*
X01947708Y01156466D01*
X01945427Y01155337D01*
X01943119Y01154264D01*
X01940786Y01153247D01*
X01938429Y01152287D01*
X01936050Y01151385D01*
X01933649Y01150540D01*
X01931229Y01149754D01*
X01928790Y01149026D01*
X01926334Y01148358D01*
X01923863Y01147750D01*
X01921378Y01147201D01*
X01918881Y01146713D01*
X01916372Y01146286D01*
X01913853Y01145920D01*
X01911327Y01145615D01*
X01908794Y01145371D01*
X01906255Y01145188D01*
X01903713Y01145068D01*
X01901169Y01145009D01*
X01898624Y01145011D01*
X01896080Y01145075D01*
X01893538Y01145201D01*
X01891000Y01145388D01*
X01888467Y01145637D01*
X01885942Y01145947D01*
X01883424Y01146319D01*
X01880916Y01146751D01*
X01878419Y01147244D01*
X01875935Y01147797D01*
X01873465Y01148410D01*
X01871011Y01149083D01*
X01868574Y01149815D01*
X01866155Y01150606D01*
X01863756Y01151456D01*
X01861378Y01152363D01*
X01859023Y01153328D01*
X01856692Y01154349D01*
X01854387Y01155427D01*
X01852108Y01156560D01*
X01849858Y01157749D01*
X01847637Y01158991D01*
X01845446Y01160287D01*
X01843288Y01161635D01*
X01841163Y01163036D01*
X01839073Y01164487D01*
X01837018Y01165989D01*
X01835001Y01167540D01*
X01890000Y01161272D02*
X01890000Y01145476D01*
X01927462Y01103980D02*
X01934968Y01111486D01*
X01942474Y01111486D01*
X01949981Y01103980D01*
X01957487Y01111486D01*
X01964994Y01111486D01*
X01972500Y01103980D01*
X01972500Y01088967D01*
X01964994Y01081461D01*
X01949981Y01096473D02*
X01949981Y01103980D01*
X01927462Y01103980D02*
X01927462Y01088967D01*
X01934968Y01081461D01*
X01927462Y01065447D02*
X01927462Y01035421D01*
X01927462Y01050434D02*
X01972500Y01050434D01*
X02097500Y00942538D02*
X02120019Y00942538D01*
X02127526Y00935032D01*
X02127526Y00920019D01*
X02120019Y00912513D01*
X02097500Y00912513D01*
X02112513Y00912513D02*
X02127526Y00897500D01*
X02143539Y00897500D02*
X02173565Y00927526D01*
X02173565Y00935032D01*
X02166058Y00942538D01*
X02151046Y00942538D01*
X02143539Y00935032D01*
X02143539Y00897500D02*
X02173565Y00897500D01*
X02097500Y00897500D02*
X02097500Y00942538D01*
X01890000Y00804524D02*
X01890000Y00788728D01*
X01835000Y00782461D02*
X01835000Y00617539D01*
X01890000Y00611272D02*
X01890000Y00595476D01*
X01927462Y00553980D02*
X01934968Y00561486D01*
X01942474Y00561486D01*
X01972500Y00531461D01*
X01972500Y00561486D01*
X01927462Y00553980D02*
X01927462Y00538967D01*
X01934968Y00531461D01*
X01927462Y00515447D02*
X01927462Y00485421D01*
X01927462Y00500434D02*
X01972500Y00500434D01*
X01890000Y00688728D02*
X01890000Y00711272D01*
X01835000Y00782465D02*
X01836984Y00783991D01*
X01839004Y00785469D01*
X01841059Y00786899D01*
X01843147Y00788279D01*
X01845267Y00789609D01*
X01847419Y00790888D01*
X01849600Y00792115D01*
X01851810Y00793291D01*
X01854048Y00794413D01*
X01856311Y00795481D01*
X01858600Y00796495D01*
X01860911Y00797455D01*
X01863246Y00798359D01*
X01865601Y00799207D01*
X01867975Y00799999D01*
X01870368Y00800734D01*
X01872777Y00801411D01*
X01875202Y00802031D01*
X01877642Y00802593D01*
X01880093Y00803097D01*
X01882557Y00803542D01*
X01885030Y00803929D01*
X01887511Y00804256D01*
X01890000Y00804524D01*
X01892554Y00804737D01*
X01895113Y00804887D01*
X01897674Y00804975D01*
X01900237Y00805001D01*
X01902800Y00804964D01*
X01905361Y00804864D01*
X01907918Y00804702D01*
X01910472Y00804478D01*
X01913018Y00804191D01*
X01915557Y00803842D01*
X01918087Y00803432D01*
X01920606Y00802959D01*
X01923113Y00802426D01*
X01925606Y00801831D01*
X01928084Y00801176D01*
X01930545Y00800460D01*
X01932988Y00799685D01*
X01935411Y00798850D01*
X01937813Y00797956D01*
X01940192Y00797004D01*
X01942548Y00795995D01*
X01944878Y00794928D01*
X01947182Y00793804D01*
X01949457Y00792624D01*
X01951703Y00791390D01*
X01953918Y00790101D01*
X01956101Y00788758D01*
X01958251Y00787362D01*
X01960366Y00785915D01*
X01962445Y00784416D01*
X01964486Y00782866D01*
X01966490Y00781268D01*
X01968453Y00779621D01*
X01970376Y00777926D01*
X01972257Y00776186D01*
X01974095Y00774399D01*
X01975889Y00772569D01*
X01977637Y00770695D01*
X01979340Y00768779D01*
X01980995Y00766822D01*
X01982602Y00764826D01*
X01984159Y00762790D01*
X01985667Y00760717D01*
X01987123Y00758609D01*
X01988528Y00756465D01*
X01989879Y00754287D01*
X01991177Y00752077D01*
X01992421Y00749837D01*
X01993610Y00747566D01*
X01994743Y00745267D01*
X01995820Y00742941D01*
X01996839Y00740590D01*
X01997801Y00738214D01*
X01998705Y00735816D01*
X01999549Y00733396D01*
X02000335Y00730957D01*
X02000331Y00669044D02*
X01999551Y00666621D01*
X01998713Y00664218D01*
X01997817Y00661837D01*
X01996863Y00659477D01*
X01995853Y00657141D01*
X01994786Y00654831D01*
X01993663Y00652547D01*
X01992486Y00650291D01*
X01991254Y00648064D01*
X01989968Y00645868D01*
X01988630Y00643703D01*
X01987239Y00641572D01*
X01985798Y00639474D01*
X01984306Y00637413D01*
X01982764Y00635388D01*
X01981174Y00633401D01*
X01979536Y00631453D01*
X01977851Y00629546D01*
X01976121Y00627680D01*
X01974346Y00625856D01*
X01972527Y00624076D01*
X01970665Y00622341D01*
X01968763Y00620651D01*
X01966819Y00619008D01*
X01964837Y00617412D01*
X01962816Y00615865D01*
X01960759Y00614367D01*
X01958665Y00612920D01*
X01956538Y00611524D01*
X01954377Y00610179D01*
X01952184Y00608888D01*
X01949960Y00607650D01*
X01947708Y00606466D01*
X01945427Y00605337D01*
X01943119Y00604264D01*
X01940786Y00603247D01*
X01938429Y00602287D01*
X01936050Y00601385D01*
X01933649Y00600540D01*
X01931229Y00599754D01*
X01928790Y00599026D01*
X01926334Y00598358D01*
X01923863Y00597750D01*
X01921378Y00597201D01*
X01918881Y00596713D01*
X01916372Y00596286D01*
X01913853Y00595920D01*
X01911327Y00595615D01*
X01908794Y00595371D01*
X01906255Y00595188D01*
X01903713Y00595068D01*
X01901169Y00595009D01*
X01898624Y00595011D01*
X01896080Y00595075D01*
X01893538Y00595201D01*
X01891000Y00595388D01*
X01888467Y00595637D01*
X01885942Y00595947D01*
X01883424Y00596319D01*
X01880916Y00596751D01*
X01878419Y00597244D01*
X01875935Y00597797D01*
X01873465Y00598410D01*
X01871011Y00599083D01*
X01868574Y00599815D01*
X01866155Y00600606D01*
X01863756Y00601456D01*
X01861378Y00602363D01*
X01859023Y00603328D01*
X01856692Y00604349D01*
X01854387Y00605427D01*
X01852108Y00606560D01*
X01849858Y00607749D01*
X01847637Y00608991D01*
X01845446Y00610287D01*
X01843288Y00611635D01*
X01841163Y00613036D01*
X01839073Y00614487D01*
X01837018Y00615989D01*
X01835001Y00617540D01*
X01890000Y00254524D02*
X01890000Y00238728D01*
X01835000Y00232461D02*
X01835000Y00067539D01*
X01890000Y00061272D02*
X01890000Y00045476D01*
X01927462Y-00003527D02*
X01972500Y-00003527D01*
X01972500Y-00018539D02*
X01972500Y00011486D01*
X01942474Y-00018539D02*
X01927462Y-00003527D01*
X01927462Y-00034553D02*
X01927462Y-00064579D01*
X01927462Y-00049566D02*
X01972500Y-00049566D01*
X01890000Y00138728D02*
X01890000Y00161272D01*
X01835000Y00232465D02*
X01836984Y00233991D01*
X01839004Y00235469D01*
X01841059Y00236899D01*
X01843147Y00238279D01*
X01845267Y00239609D01*
X01847419Y00240888D01*
X01849600Y00242115D01*
X01851810Y00243291D01*
X01854048Y00244413D01*
X01856311Y00245481D01*
X01858600Y00246495D01*
X01860911Y00247455D01*
X01863246Y00248359D01*
X01865601Y00249207D01*
X01867975Y00249999D01*
X01870368Y00250734D01*
X01872777Y00251411D01*
X01875202Y00252031D01*
X01877642Y00252593D01*
X01880093Y00253097D01*
X01882557Y00253542D01*
X01885030Y00253929D01*
X01887511Y00254256D01*
X01890000Y00254524D01*
X01892554Y00254737D01*
X01895113Y00254887D01*
X01897674Y00254975D01*
X01900237Y00255001D01*
X01902800Y00254964D01*
X01905361Y00254864D01*
X01907918Y00254702D01*
X01910472Y00254478D01*
X01913018Y00254191D01*
X01915557Y00253842D01*
X01918087Y00253432D01*
X01920606Y00252959D01*
X01923113Y00252426D01*
X01925606Y00251831D01*
X01928084Y00251176D01*
X01930545Y00250460D01*
X01932988Y00249685D01*
X01935411Y00248850D01*
X01937813Y00247956D01*
X01940192Y00247004D01*
X01942548Y00245995D01*
X01944878Y00244928D01*
X01947182Y00243804D01*
X01949457Y00242624D01*
X01951703Y00241390D01*
X01953918Y00240101D01*
X01956101Y00238758D01*
X01958251Y00237362D01*
X01960366Y00235915D01*
X01962445Y00234416D01*
X01964486Y00232866D01*
X01966490Y00231268D01*
X01968453Y00229621D01*
X01970376Y00227926D01*
X01972257Y00226186D01*
X01974095Y00224399D01*
X01975889Y00222569D01*
X01977637Y00220695D01*
X01979340Y00218779D01*
X01980995Y00216822D01*
X01982602Y00214826D01*
X01984159Y00212790D01*
X01985667Y00210717D01*
X01987123Y00208609D01*
X01988528Y00206465D01*
X01989879Y00204287D01*
X01991177Y00202077D01*
X01992421Y00199837D01*
X01993610Y00197566D01*
X01994743Y00195267D01*
X01995820Y00192941D01*
X01996839Y00190590D01*
X01997801Y00188214D01*
X01998705Y00185816D01*
X01999549Y00183396D01*
X02000335Y00180957D01*
X02000331Y00119044D02*
X01999551Y00116621D01*
X01998713Y00114218D01*
X01997817Y00111837D01*
X01996863Y00109477D01*
X01995853Y00107141D01*
X01994786Y00104831D01*
X01993663Y00102547D01*
X01992486Y00100291D01*
X01991254Y00098064D01*
X01989968Y00095868D01*
X01988630Y00093703D01*
X01987239Y00091572D01*
X01985798Y00089474D01*
X01984306Y00087413D01*
X01982764Y00085388D01*
X01981174Y00083401D01*
X01979536Y00081453D01*
X01977851Y00079546D01*
X01976121Y00077680D01*
X01974346Y00075856D01*
X01972527Y00074076D01*
X01970665Y00072341D01*
X01968763Y00070651D01*
X01966819Y00069008D01*
X01964837Y00067412D01*
X01962816Y00065865D01*
X01960759Y00064367D01*
X01958665Y00062920D01*
X01956538Y00061524D01*
X01954377Y00060179D01*
X01952184Y00058888D01*
X01949960Y00057650D01*
X01947708Y00056466D01*
X01945427Y00055337D01*
X01943119Y00054264D01*
X01940786Y00053247D01*
X01938429Y00052287D01*
X01936050Y00051385D01*
X01933649Y00050540D01*
X01931229Y00049754D01*
X01928790Y00049026D01*
X01926334Y00048358D01*
X01923863Y00047750D01*
X01921378Y00047201D01*
X01918881Y00046713D01*
X01916372Y00046286D01*
X01913853Y00045920D01*
X01911327Y00045615D01*
X01908794Y00045371D01*
X01906255Y00045188D01*
X01903713Y00045068D01*
X01901169Y00045009D01*
X01898624Y00045011D01*
X01896080Y00045075D01*
X01893538Y00045201D01*
X01891000Y00045388D01*
X01888467Y00045637D01*
X01885942Y00045947D01*
X01883424Y00046319D01*
X01880916Y00046751D01*
X01878419Y00047244D01*
X01875935Y00047797D01*
X01873465Y00048410D01*
X01871011Y00049083D01*
X01868574Y00049815D01*
X01866155Y00050606D01*
X01863756Y00051456D01*
X01861378Y00052363D01*
X01859023Y00053328D01*
X01856692Y00054349D01*
X01854387Y00055427D01*
X01852108Y00056560D01*
X01849858Y00057749D01*
X01847637Y00058991D01*
X01845446Y00060287D01*
X01843288Y00061635D01*
X01841163Y00063036D01*
X01839073Y00064487D01*
X01837018Y00065989D01*
X01835001Y00067540D01*
X01326486Y00237500D02*
X01296461Y00237500D01*
X01311474Y00237500D02*
X01311474Y00282538D01*
X01296461Y00267526D01*
X02467462Y00467500D02*
X02467462Y00490019D01*
X02474968Y00497526D01*
X02489981Y00497526D01*
X02497487Y00490019D01*
X02497487Y00467500D01*
X02497487Y00482513D02*
X02512500Y00497526D01*
X02512500Y00513539D02*
X02512500Y00543565D01*
X02512500Y00528552D02*
X02467462Y00528552D01*
X02482474Y00513539D01*
X02467462Y00467500D02*
X02512500Y00467500D01*
X02837462Y00645421D02*
X02837462Y00667941D01*
X02844968Y00675447D01*
X02859981Y00675447D01*
X02867487Y00667941D01*
X02867487Y00645421D01*
X02882500Y00645421D02*
X02837462Y00645421D01*
X02867487Y00660434D02*
X02882500Y00675447D01*
X02874994Y00691461D02*
X02882500Y00698967D01*
X02882500Y00713980D01*
X02874994Y00721486D01*
X02859981Y00721486D01*
X02852474Y00713980D01*
X02852474Y00706473D01*
X02859981Y00691461D01*
X02837462Y00691461D01*
X02837462Y00721486D01*
X02166058Y01437500D02*
X02151046Y01437500D01*
X02143539Y01445006D01*
X02127526Y01437500D02*
X02112513Y01452513D01*
X02120019Y01452513D02*
X02097500Y01452513D01*
X02097500Y01437500D02*
X02097500Y01482538D01*
X02120019Y01482538D01*
X02127526Y01475032D01*
X02127526Y01460019D01*
X02120019Y01452513D01*
X02143539Y01475032D02*
X02151046Y01482538D01*
X02166058Y01482538D01*
X02173565Y01475032D01*
X02173565Y01467526D01*
X02166058Y01460019D01*
X02173565Y01452513D01*
X02173565Y01445006D01*
X02166058Y01437500D01*
X02166058Y01460019D02*
X02158552Y01460019D01*
X01927462Y01635421D02*
X01927462Y01665447D01*
X01927462Y01650434D02*
X01972500Y01650434D01*
X01949981Y01681461D02*
X01949981Y01711486D01*
X01972500Y01703980D02*
X01927462Y01703980D01*
X01949981Y01681461D01*
X01890000Y01745476D02*
X01890000Y01761272D01*
X01835000Y01767539D02*
X01835000Y01932461D01*
X01890000Y01938728D02*
X01890000Y01954524D01*
X01890000Y01861272D02*
X01890000Y01838728D01*
X01835000Y01932465D02*
X01836984Y01933991D01*
X01839004Y01935469D01*
X01841059Y01936899D01*
X01843147Y01938279D01*
X01845267Y01939609D01*
X01847419Y01940888D01*
X01849600Y01942115D01*
X01851810Y01943291D01*
X01854048Y01944413D01*
X01856311Y01945481D01*
X01858600Y01946495D01*
X01860911Y01947455D01*
X01863246Y01948359D01*
X01865601Y01949207D01*
X01867975Y01949999D01*
X01870368Y01950734D01*
X01872777Y01951411D01*
X01875202Y01952031D01*
X01877642Y01952593D01*
X01880093Y01953097D01*
X01882557Y01953542D01*
X01885030Y01953929D01*
X01887511Y01954256D01*
X01890000Y01954524D01*
X01892554Y01954737D01*
X01895113Y01954887D01*
X01897674Y01954975D01*
X01900237Y01955001D01*
X01902800Y01954964D01*
X01905361Y01954864D01*
X01907918Y01954702D01*
X01910472Y01954478D01*
X01913018Y01954191D01*
X01915557Y01953842D01*
X01918087Y01953432D01*
X01920606Y01952959D01*
X01923113Y01952426D01*
X01925606Y01951831D01*
X01928084Y01951176D01*
X01930545Y01950460D01*
X01932988Y01949685D01*
X01935411Y01948850D01*
X01937813Y01947956D01*
X01940192Y01947004D01*
X01942548Y01945995D01*
X01944878Y01944928D01*
X01947182Y01943804D01*
X01949457Y01942624D01*
X01951703Y01941390D01*
X01953918Y01940101D01*
X01956101Y01938758D01*
X01958251Y01937362D01*
X01960366Y01935915D01*
X01962445Y01934416D01*
X01964486Y01932866D01*
X01966490Y01931268D01*
X01968453Y01929621D01*
X01970376Y01927926D01*
X01972257Y01926186D01*
X01974095Y01924399D01*
X01975889Y01922569D01*
X01977637Y01920695D01*
X01979340Y01918779D01*
X01980995Y01916822D01*
X01982602Y01914826D01*
X01984159Y01912790D01*
X01985667Y01910717D01*
X01987123Y01908609D01*
X01988528Y01906465D01*
X01989879Y01904287D01*
X01991177Y01902077D01*
X01992421Y01899837D01*
X01993610Y01897566D01*
X01994743Y01895267D01*
X01995820Y01892941D01*
X01996839Y01890590D01*
X01997801Y01888214D01*
X01998705Y01885816D01*
X01999549Y01883396D01*
X02000335Y01880957D01*
X02000331Y01819044D02*
X01999551Y01816621D01*
X01998713Y01814218D01*
X01997817Y01811837D01*
X01996863Y01809477D01*
X01995853Y01807141D01*
X01994786Y01804831D01*
X01993663Y01802547D01*
X01992486Y01800291D01*
X01991254Y01798064D01*
X01989968Y01795868D01*
X01988630Y01793703D01*
X01987239Y01791572D01*
X01985798Y01789474D01*
X01984306Y01787413D01*
X01982764Y01785388D01*
X01981174Y01783401D01*
X01979536Y01781453D01*
X01977851Y01779546D01*
X01976121Y01777680D01*
X01974346Y01775856D01*
X01972527Y01774076D01*
X01970665Y01772341D01*
X01968763Y01770651D01*
X01966819Y01769008D01*
X01964837Y01767412D01*
X01962816Y01765865D01*
X01960759Y01764367D01*
X01958665Y01762920D01*
X01956538Y01761524D01*
X01954377Y01760179D01*
X01952184Y01758888D01*
X01949960Y01757650D01*
X01947708Y01756466D01*
X01945427Y01755337D01*
X01943119Y01754264D01*
X01940786Y01753247D01*
X01938429Y01752287D01*
X01936050Y01751385D01*
X01933649Y01750540D01*
X01931229Y01749754D01*
X01928790Y01749026D01*
X01926334Y01748358D01*
X01923863Y01747750D01*
X01921378Y01747201D01*
X01918881Y01746713D01*
X01916372Y01746286D01*
X01913853Y01745920D01*
X01911327Y01745615D01*
X01908794Y01745371D01*
X01906255Y01745188D01*
X01903713Y01745068D01*
X01901169Y01745009D01*
X01898624Y01745011D01*
X01896080Y01745075D01*
X01893538Y01745201D01*
X01891000Y01745388D01*
X01888467Y01745637D01*
X01885942Y01745947D01*
X01883424Y01746319D01*
X01880916Y01746751D01*
X01878419Y01747244D01*
X01875935Y01747797D01*
X01873465Y01748410D01*
X01871011Y01749083D01*
X01868574Y01749815D01*
X01866155Y01750606D01*
X01863756Y01751456D01*
X01861378Y01752363D01*
X01859023Y01753328D01*
X01856692Y01754349D01*
X01854387Y01755427D01*
X01852108Y01756560D01*
X01849858Y01757749D01*
X01847637Y01758991D01*
X01845446Y01760287D01*
X01843288Y01761635D01*
X01841163Y01763036D01*
X01839073Y01764487D01*
X01837018Y01765989D01*
X01835001Y01767540D01*
X02167500Y02087500D02*
X02167500Y02132538D01*
X02190019Y02132538D01*
X02197526Y02125032D01*
X02197526Y02110019D01*
X02190019Y02102513D01*
X02167500Y02102513D01*
X02182513Y02102513D02*
X02197526Y02087500D01*
X02213539Y02110019D02*
X02243565Y02110019D01*
X02236058Y02087500D02*
X02236058Y02132538D01*
X02213539Y02110019D01*
D16*
X02130000Y02030000D02*
X02115000Y02030000D01*
X02450000Y02030000D02*
X02465000Y02030000D01*
X02395000Y01380000D02*
X02380000Y01380000D01*
X02060000Y01380000D02*
X02045000Y01380000D01*
X02045000Y00840000D02*
X02060000Y00840000D01*
X02380000Y00840000D02*
X02395000Y00840000D01*
X02570000Y00765000D02*
X02570000Y00750000D01*
X02780000Y00770000D02*
X02780000Y00785000D01*
X02780000Y00450000D02*
X02780000Y00435000D01*
X02570000Y00430000D02*
X02570000Y00415000D01*
D17*
X02570000Y00398000D03*
X02570000Y00448000D03*
X02780000Y00468000D03*
X02780000Y00418000D03*
X02570000Y00732000D03*
X02570000Y00782000D03*
X02780000Y00802000D03*
X02780000Y00752000D03*
D18*
X02412000Y00840000D03*
X02362000Y00840000D03*
X02078000Y00840000D03*
X02028000Y00840000D03*
X02028000Y01380000D03*
X02078000Y01380000D03*
X02362000Y01380000D03*
X02412000Y01380000D03*
X02432000Y02030000D03*
X02482000Y02030000D03*
X02148000Y02030000D03*
X02098000Y02030000D03*
M02*
